<svg width="141" height="26" viewBox="0 0 141 26" fill="none" xmlns="http://www.w3.org/2000/svg">
<g clip-path="url(#clip0_2005_172)">
<path d="M93.709 0.682861H89.2175V9.1335C88.5692 2.81288 86.2308 0.682861 82.8042 0.682861C80.2343 0.682861 78.3127 1.95624 77.1319 5.29019C76.2753 1.9794 73.8211 0.682861 69.7463 0.682861H65.2547V9.1335H65.1389C64.4907 2.81288 62.1523 0.682861 58.7257 0.682861C55.4149 0.682861 53.0534 2.81288 52.3125 9.1335H52.1967V0.682861H46.4086L44.2786 13.3009H44.1628L42.3338 0.682861H36.3373V5.49856C35.8048 2.60451 34.0915 0.682861 30.8733 0.682861C27.331 0.682861 25.4094 3.13702 25.0852 6.23944C24.1128 2.07201 21.9828 0.682861 19.2045 0.682861C16.1021 0.682861 13.8563 2.5119 12.9997 7.74435C12.7913 3.99366 11.7263 0.682861 7.21156 0.682861C3.66924 0.682861 0.79834 3.90105 0.79834 13C0.79834 20.8023 2.39586 25.317 7.21156 25.317C11.4948 25.317 12.6755 21.8905 12.9997 18.4639C13.8563 23.6038 16.1021 25.317 19.2045 25.317C22.1912 25.317 24.3444 23.6038 25.2936 18.7881C25.502 21.8905 26.6828 25.317 31.0817 25.317C33.5359 25.317 35.3649 24.252 36.3373 22.423V25.2013H39.6481V7.21185H39.7639L42.7505 25.2013H45.2047L48.1914 7.21185H48.3071V25.2013H52.2662V16.7506H52.3819C53.0302 23.0713 55.3686 25.2013 58.7952 25.2013C62.106 25.2013 64.4675 23.0713 65.2084 16.7506H65.3242V25.2013H69.8157V15.3615H71.6448C73.8905 15.3615 75.3955 14.5049 76.3447 13.1157C76.3447 22.3304 78.9146 25.2013 82.8737 25.2013C86.1845 25.2013 88.546 23.0713 89.2869 16.7506V25.2013H99.4508V21.4506H93.7785V0.682861H93.709ZM9.38789 15.894C9.27213 19.3206 8.97115 21.4506 7.46624 21.4506C6.07709 21.4506 5.6372 20.5939 5.6372 12.7916C5.6372 4.87345 6.6096 4.34094 7.55885 4.34094C8.62386 4.34094 9.15637 5.84585 9.15637 9.68915L12.9071 9.57339C12.7913 10.6384 12.7913 11.7034 12.7913 13C12.7913 14.1807 12.7913 15.2457 12.9071 16.2181L9.38789 15.894ZM20.941 15.4541C20.941 20.5939 20.2927 21.5432 19.3434 21.5432C18.2784 21.5432 17.7459 20.4782 17.7459 15.4541V10.43C17.7459 5.2902 18.3942 4.34094 19.3434 4.34094C20.4084 4.34094 20.941 5.40596 20.941 10.43V15.4541ZM31.3132 21.5664C29.3916 21.5664 29.3916 19.2048 29.3916 17.9314H25.5483C25.7567 16.5423 25.8724 14.829 25.8724 12.9073C25.8724 11.9349 25.8724 10.9857 25.7567 10.129C27.6783 14.528 33.258 15.8014 33.258 19.3437C33.258 20.1541 32.8181 21.5664 31.3132 21.5664ZM29.1832 6.47097C29.1832 5.19758 29.8315 4.34094 30.8965 4.34094C32.7255 4.34094 32.7255 6.58673 32.7255 7.88327H36.4762V15.0605C34.3231 11.1709 29.1832 9.666 29.1832 6.47097ZM60.439 15.4541C60.439 20.5939 59.7907 21.659 58.8415 21.659C57.7765 21.659 57.244 20.5939 57.244 15.4541V10.43C57.244 5.2902 57.8922 4.22518 58.8415 4.22518C59.9065 4.22518 60.439 5.2902 60.439 10.43V15.4541ZM70.163 11.8192H69.7463V4.43356H70.0704C71.5753 4.43356 72.9645 4.54931 72.9645 8.06848C72.9645 11.0783 71.9921 11.8192 70.163 11.8192ZM84.4017 15.4541C84.4017 20.5939 83.7535 21.659 82.8042 21.659C81.7392 21.659 81.2067 20.5939 81.2067 15.4541V10.43C81.2067 5.2902 81.855 4.22518 82.8042 4.22518C83.8692 4.22518 84.4017 5.2902 84.4017 10.43V15.4541ZM100.145 0.682861H104.637V25.2013H100.145V0.682861ZM117.487 0.682861H105.285V4.43356H109.129V25.2013H113.62V4.43356H117.463V0.682861M135.985 0.682861V13.6251H135.87L131.795 0.682861H127.396V22.0989L124.71 0.706015H118.181L114.755 25.2244H118.505L119.154 19.7605H122.835L123.483 25.2244H131.285V10.3374H131.401L136.217 25.2244H139.736V0.682861H135.985ZM119.732 16.195L121.121 4.43356H121.237L122.511 16.195H119.732Z" fill="#8B8C8E"/>
</g>
<defs>
<clipPath id="clip0_2005_172">
<rect width="139.278" height="24.6342" fill="white" transform="translate(0.80127 0.682861)"/>
</clipPath>
</defs>
</svg>
