<svg width="138" height="28" viewBox="0 0 138 28" fill="none" xmlns="http://www.w3.org/2000/svg">
<path d="M14.9716 27.4071L17.3532 3.85882C17.4872 2.65137 17.7221 2.44985 18.1246 2.44985H18.3593V1.10836H14.5018V2.44985H14.7367C15.2733 2.44985 15.5416 2.81902 15.4746 3.85882L14.0993 17.9476L12.5229 3.85882C12.3884 2.75201 12.6567 2.44985 13.261 2.44985H13.3278V1.10836H7.96064V2.44985H8.22941C8.73261 2.44985 8.73261 2.65137 8.83325 3.85882L9.23581 7.4485L7.99426 18.8534L6.58576 3.85882C6.41787 2.65137 6.65278 2.44985 7.18937 2.44985H7.25615V1.10836H1.82202V2.44985H2.09055C2.66077 2.44985 2.69416 2.65137 2.82843 3.85882L5.24357 27.4071H8.73237L10.1077 15.2973L11.5165 27.4071H14.9716ZM38.0844 11.9769C38.0844 10.3332 38.0844 9.76276 39.1242 9.76276C39.8287 9.76276 39.8287 10.0311 39.8287 11.4064V25.4615C39.8287 25.965 39.6608 26.0654 39.3925 26.0654H39.2251V27.4069H44.6256V26.0654H44.3907C44.022 26.0654 43.9214 25.9309 43.9214 25.3943V10.6688C43.9214 8.25315 43.4182 7.31376 41.0364 7.31376C39.6608 7.31376 38.6549 7.74995 38.0174 9.25909C37.7487 7.9176 37.0444 7.31376 35.1997 7.31376C33.6901 7.31376 32.885 7.78357 32.2814 9.25909V7.31376L27.6521 7.68293V9.02442H27.8532C28.1551 9.02442 28.3898 9.25909 28.3898 9.99767V25.2934C28.3898 25.8973 28.2557 26.0654 27.8532 26.0654H27.6521V27.4069H32.818V26.0654H32.6169C32.3484 26.0654 32.2814 25.9648 32.2814 25.562V11.9769C32.2814 10.3332 32.2475 9.76276 33.2873 9.76276C33.9918 9.76276 33.9918 10.0311 33.9918 11.4064V25.4615C33.9918 25.965 33.8241 26.0654 33.5892 26.0654H33.3546V27.4069H38.6549V26.0654H38.5877C38.2189 26.0654 38.0844 25.9309 38.0844 25.3943V11.9769ZM75.8229 27.4071H82.2975V26.0656H81.8608C81.2908 26.0656 81.1232 25.8305 81.1232 24.6567V14.526H84.5447V24.6564C84.5447 25.8302 84.3771 26.0654 83.8402 26.0654H83.3368V27.4069H89.7776V26.0654H89.2412C88.6703 26.0654 88.5701 25.8302 88.5701 24.6564V3.85882C88.5701 2.65137 88.6703 2.44985 89.2412 2.44985H89.7776V1.10836H83.3368V2.44985H83.8402C84.3771 2.44985 84.5447 2.65137 84.5447 3.85882V12.9489H81.1232V3.85882C81.1232 2.65137 81.2908 2.44985 81.8608 2.44985H82.2975V1.10836H75.8229V2.44985H76.3933C76.9301 2.44985 77.0978 2.65137 77.0978 3.85882V25.327C77.0978 25.8975 76.9301 26.0656 76.3933 26.0656H75.8229V27.4071ZM124.732 27.4071H129.865V26.0656H129.697C129.362 26.0656 129.328 25.965 129.328 25.5622V11.9769C129.328 10.3332 129.362 9.76276 130.401 9.76276C131.172 9.76276 131.172 10.0311 131.172 11.4064V25.4615C131.172 25.965 131.039 26.0654 130.804 26.0654H130.569V27.4069H136.003V26.0654H135.769C135.4 26.0654 135.333 25.9309 135.333 25.3943V10.6688C135.333 8.25315 134.729 7.31376 132.38 7.31376C130.838 7.31376 129.965 7.78357 129.328 9.25909V0.705566L124.397 1.10836V2.44985H124.901C125.235 2.44985 125.437 2.65137 125.437 3.38948V25.2934C125.437 25.8973 125.336 26.0654 124.901 26.0654H124.732V27.4071ZM22.2173 27.6418C26.5115 27.6418 27.1151 24.0526 27.1151 17.4778C27.1151 10.8698 26.4776 7.31376 22.2173 7.31376C17.9575 7.31376 17.3202 10.8698 17.3202 17.4778C17.32 24.0526 17.9238 27.6418 22.2173 27.6418ZM54.7229 27.4071H59.8887V26.0656H59.6535C59.3523 26.0656 59.3523 25.965 59.3523 25.5622V11.9769C59.3523 10.3332 59.3523 9.76276 60.425 9.76276C61.1632 9.76276 61.197 10.0311 61.197 11.4064V25.4615C61.197 25.965 60.996 26.0654 60.7942 26.0654H60.5591V27.4069H65.9937V26.0654H65.759C65.3898 26.0654 65.2897 25.9309 65.2897 25.3943V10.6688C65.2897 8.25315 64.7192 7.31376 62.337 7.31376C60.8283 7.31376 59.9221 7.78357 59.3523 9.25909V7.31376L54.3873 7.68293V9.02442H54.9241C55.2263 9.02442 55.4605 9.25909 55.4605 9.99767V25.2934C55.4605 25.8973 55.3269 26.0654 54.9241 26.0654H54.7231V27.4071H54.7229ZM102.324 27.6418C104.101 27.6418 104.772 26.7701 105.141 25.7298C105.476 27.2728 105.846 27.6418 107.858 27.6418C110.206 27.6418 110.508 26.2333 110.475 23.4824H109.368C109.368 25.4618 109.334 25.6628 108.965 25.6628C108.63 25.6628 108.63 25.4952 108.63 24.3879V11.3394C108.63 8.68934 107.758 7.314 104.672 7.314C102.223 7.314 99.8076 8.05211 99.9414 10.7019C100.009 11.9098 100.479 13.1843 101.753 13.1171C102.927 13.05 103.464 12.413 103.464 11.4398C103.464 10.7692 102.96 9.66189 102.156 9.05804C102.458 8.92401 102.927 8.78928 103.699 8.78928C104.571 8.78928 104.738 9.46037 104.738 10.7351V14.3913C100.277 15.9009 99.338 16.5048 99.338 22.1068C99.338 26.1326 100.311 27.6418 102.324 27.6418ZM94.642 27.6418C97.9624 27.6418 98.7339 26.6356 98.5663 21.1345H97.1907C97.1907 25.4952 97.0566 25.8305 95.5139 25.8305C93.669 25.8305 93.669 25.0254 93.669 17.5455V16.9412H99.0354C99.0354 9.39406 98.1973 7.31423 94.6415 7.31423C91.4212 7.31423 89.744 9.29366 89.744 17.6123C89.7444 25.5286 91.0189 27.6756 94.642 27.6418ZM50.0598 27.6418C53.3141 27.6418 54.2197 26.6356 54.0852 21.1345H52.7105C52.7105 25.4952 52.5092 25.8305 50.9324 25.8305C48.9532 25.8305 49.0538 25.0254 49.0538 17.5455V16.9412H54.2533C54.2533 9.39406 53.549 7.31423 50.06 7.31423C46.8068 7.31423 45.1293 9.29366 45.1293 17.6123C45.1291 25.5286 46.4035 27.6756 50.0598 27.6418ZM111.214 27.4071H116.581V26.0656H116.178C115.842 26.0656 115.708 25.8975 115.708 25.3611V0.705566L110.71 1.10836V2.44985H111.281C111.616 2.44985 111.75 2.58388 111.75 3.12094V25.4282C111.75 25.9311 111.716 26.0656 111.482 26.0656H111.213V27.4071H111.214ZM72.0321 27.6418C74.4814 27.6418 75.7563 26.0315 75.7563 23.6169C75.7563 17.9478 70.6236 14.6603 70.6236 10.6013C70.6236 9.35997 71.0598 8.99103 71.932 8.99103C73.2064 8.99103 73.4079 9.52786 73.6426 11.4398L73.8434 13.3181H75.3194V7.48142H74.146C74.0786 8.22 73.9114 8.48806 73.8434 8.38718C73.4752 7.95123 72.6026 7.314 71.1605 7.314C69.0134 7.314 67.1351 8.28678 67.1351 11.4734C67.1351 16.438 72.2339 20.2287 72.2339 24.0192C72.2339 25.6628 71.8652 25.9311 70.6909 25.9311C69.517 25.9311 69.2154 25.3948 68.9807 22.9124L68.8126 21.2683H67.2696V27.4071H68.611C68.7122 26.736 68.9473 26.3003 69.1479 26.5013C69.5838 27.0048 70.0532 27.6418 72.0321 27.6418ZM117.587 23.2479C117.587 26.4343 118.057 27.6418 121.209 27.6418C123.424 27.6418 123.927 26.7701 123.927 24.3213V21H122.585V24.489C122.585 25.6628 122.484 25.7969 122.049 25.7969C121.613 25.7969 121.512 25.6628 121.512 24.623V8.99103H123.961V7.48142H121.546V2.44985H120.17C119.197 6.91167 118.359 7.48142 117.051 7.48142H116.682V8.9574H117.587L117.587 23.2479ZM22.2173 25.9309C21.2786 25.9309 21.2786 25.3945 21.2786 17.4778C21.2786 9.52786 21.2786 8.99103 22.2173 8.99103C23.1567 8.99103 23.1567 9.52786 23.1567 17.4778C23.1567 25.4282 23.1567 25.9309 22.2173 25.9309ZM66.464 8.32064C69.818 5.83777 70.4894 3.95946 69.3821 2.2488C68.7782 1.30965 67.4026 0.705802 66.3965 1.54432C65.1886 2.55049 65.4907 4.29524 67.7384 5.30165C67.3356 5.77099 66.3965 6.67723 65.625 7.44873L66.464 8.32064ZM103.934 25.2934C103.129 25.2934 103.129 24.4554 103.129 21.8053C103.129 16.9748 103.129 16.3373 104.738 15.4652V23.7507C104.738 24.9917 104.571 25.2934 103.934 25.2934ZM49.0536 15.5324C49.1206 9.25933 49.2215 8.95764 50.0936 8.95764C50.9321 8.95764 50.8654 9.29342 50.8654 15.5324H49.0536ZM93.6694 15.5324C93.7701 9.25933 93.8371 8.95764 94.7092 8.95764C95.5814 8.95764 95.4469 9.29342 95.4469 15.5324H93.6694Z" fill="#B5B6B7"/>
</svg>
