<svg width="10" height="32" viewBox="0 0 10 32" fill="none" xmlns="http://www.w3.org/2000/svg">
<path fill-rule="evenodd" clip-rule="evenodd" d="M0.5 11.364H9.10678V29.8353C9.10678 30.4755 8.58508 31 7.94211 31H1.66468C1.02171 31 0.5 30.4755 0.5 29.8353V11.364Z" fill="white" stroke="#212428" stroke-width="0.750001" stroke-miterlimit="2.61313" stroke-linecap="round" stroke-linejoin="round"/>
<path d="M4.78027 17.6073C5.13271 17.6073 5.47501 17.6801 5.79492 17.8202C6.12005 17.9658 6.40748 18.1617 6.65137 18.4081C6.90076 18.6602 7.0958 18.9519 7.24219 19.288C7.38854 19.624 7.46479 19.9826 7.46484 20.369C7.46484 20.7556 7.38859 21.1149 7.24219 21.451C7.0958 21.7871 6.8953 22.0786 6.65137 22.3251C6.40206 22.5715 6.12006 22.7673 5.79492 22.913C5.49128 23.0418 5.1706 23.1144 4.83984 23.12C4.83032 23.1204 4.67322 23.1258 4.58008 23.1151C4.2927 23.0927 4.02686 23.025 3.7666 22.913C3.44671 22.7673 3.15903 22.5716 2.91504 22.3251C2.6711 22.0786 2.47602 21.7871 2.32422 21.451C2.18324 21.1205 2.10742 20.7556 2.10742 20.369C2.10747 19.9882 2.18373 19.624 2.33008 19.288C2.47646 18.9519 2.67154 18.6601 2.9209 18.4081C3.16484 18.1561 3.45267 17.9602 3.77246 17.8202C4.09218 17.6803 4.42807 17.6073 4.78027 17.6073ZM4.78613 17.7469C4.5096 17.7469 4.27039 17.8146 4.0752 17.9491C3.8748 18.0835 3.71251 18.2629 3.58789 18.4979C3.46322 18.7332 3.37073 19.0078 3.30566 19.327C3.24602 19.6464 3.21387 19.9944 3.21387 20.3641C3.21389 20.7338 3.24604 21.081 3.30566 21.4003C3.36529 21.7195 3.45782 21.9938 3.58789 22.2235C3.71254 22.4531 3.87471 22.6386 4.0752 22.7675C4.27033 22.9075 4.50928 22.9686 4.78027 22.9686C5.0568 22.9686 5.29601 22.9022 5.49121 22.7733C5.69178 22.6445 5.85383 22.459 5.97852 22.2294C6.10862 21.9997 6.2011 21.7254 6.26074 21.4061C6.32037 21.0925 6.35252 20.745 6.35254 20.3641C6.35254 19.9889 6.32034 19.6414 6.26074 19.3221C6.20652 19.0084 6.11451 18.7276 5.98438 18.4979C5.85425 18.2683 5.69126 18.0835 5.49609 17.9491C5.29554 17.8147 5.06254 17.747 4.78613 17.7469Z" fill="#212428"/>
<path d="M4.78027 17.6073C5.13271 17.6073 5.47501 17.6801 5.79492 17.8202C6.12005 17.9658 6.40748 18.1617 6.65137 18.4081C6.90076 18.6602 7.0958 18.9519 7.24219 19.288C7.38854 19.624 7.46479 19.9826 7.46484 20.369C7.46484 20.7556 7.38859 21.1149 7.24219 21.451C7.0958 21.7871 6.8953 22.0786 6.65137 22.3251C6.40206 22.5715 6.12006 22.7673 5.79492 22.913C5.49128 23.0418 5.1706 23.1144 4.83984 23.12C4.83032 23.1204 4.67322 23.1258 4.58008 23.1151C4.2927 23.0927 4.02686 23.025 3.7666 22.913C3.44671 22.7673 3.15903 22.5716 2.91504 22.3251C2.6711 22.0786 2.47602 21.7871 2.32422 21.451C2.18324 21.1205 2.10742 20.7556 2.10742 20.369C2.10747 19.9882 2.18373 19.624 2.33008 19.288C2.47646 18.9519 2.67154 18.6601 2.9209 18.4081C3.16484 18.1561 3.45267 17.9602 3.77246 17.8202C4.09218 17.6803 4.42807 17.6073 4.78027 17.6073ZM4.78613 17.7469C4.5096 17.7469 4.27039 17.8146 4.0752 17.9491C3.8748 18.0835 3.71251 18.2629 3.58789 18.4979C3.46322 18.7332 3.37073 19.0078 3.30566 19.327C3.24602 19.6464 3.21387 19.9944 3.21387 20.3641C3.21389 20.7338 3.24604 21.081 3.30566 21.4003C3.36529 21.7195 3.45782 21.9938 3.58789 22.2235C3.71254 22.4531 3.87471 22.6386 4.0752 22.7675C4.27033 22.9075 4.50928 22.9686 4.78027 22.9686C5.0568 22.9686 5.29601 22.9022 5.49121 22.7733C5.69178 22.6445 5.85383 22.459 5.97852 22.2294C6.10862 21.9997 6.2011 21.7254 6.26074 21.4061C6.32037 21.0925 6.35252 20.745 6.35254 20.3641C6.35254 19.9889 6.32034 19.6414 6.26074 19.3221C6.20652 19.0084 6.11451 18.7276 5.98438 18.4979C5.85425 18.2683 5.69126 18.0835 5.49609 17.9491C5.29554 17.8147 5.06254 17.747 4.78613 17.7469Z" stroke="#212428"/>
<path d="M7.46191 23.7028C7.09872 23.7028 6.76256 23.7359 6.45898 23.7975C6.15535 23.8592 5.88984 23.9607 5.66211 24.0895C5.4398 24.224 5.26045 24.3917 5.13574 24.5934C5.01106 24.7951 4.94629 25.0419 4.94629 25.322H4.7998V25.2604C4.81065 24.9187 4.87532 24.5878 5 24.2741C5.1409 23.9437 5.33095 23.647 5.56934 23.3893C5.80791 23.1316 6.09069 22.9293 6.41602 22.778C6.74117 22.6269 7.08801 22.5485 7.46191 22.5485V23.7028Z" fill="#212428"/>
<path d="M7.46191 23.7028C7.09872 23.7028 6.76256 23.7359 6.45898 23.7975C6.15535 23.8592 5.88984 23.9607 5.66211 24.0895C5.4398 24.224 5.26045 24.3917 5.13574 24.5934C5.01106 24.7951 4.94629 25.0419 4.94629 25.322H4.7998V25.2604C4.81065 24.9187 4.87532 24.5878 5 24.2741C5.1409 23.9437 5.33095 23.647 5.56934 23.3893C5.80791 23.1316 6.09069 22.9293 6.41602 22.778C6.74117 22.6269 7.08801 22.5485 7.46191 22.5485V23.7028Z" stroke="#212428"/>
<path d="M9.1096 9.68268H0.5V11.3634H9.1096V9.68268Z" fill="white" stroke="#212428" stroke-width="0.750001" stroke-miterlimit="2.61313" stroke-linecap="round" stroke-linejoin="round"/>
<path d="M8.29282 5.41595H1.31885V9.68269H8.29282V5.41595Z" fill="white" stroke="#212428" stroke-width="0.750001" stroke-miterlimit="2.61313" stroke-linecap="round" stroke-linejoin="round"/>
<path d="M9.07167 1H2.17822V5.41901H7.42915V2.60713H9.07167V1Z" fill="#DFE0E0" stroke="#212428" stroke-width="0.750001" stroke-miterlimit="2.61313" stroke-linecap="round" stroke-linejoin="round"/>
</svg>
