<svg width="14" height="31" viewBox="0 0 14 31" fill="none" xmlns="http://www.w3.org/2000/svg">
<path fill-rule="evenodd" clip-rule="evenodd" d="M10.1226 29.839C6.7526 30.2112 1.24348 29.9382 1.00028 29.025L1.00028 13.4009C1.00028 13.4009 0.95065 12.5721 2.16663 12.2445L3.16919 12.1602L6.84193 12.1602L10.5147 12.1602L11.5172 12.2445C12.7382 12.5721 12.6836 13.4009 12.6836 13.4009L12.6836 29.3833" fill="#FDFDF7"/>
<path d="M10.1226 29.839C6.7526 30.2112 1.24348 29.9382 1.00028 29.025L1.00028 13.4009C1.00028 13.4009 0.95065 12.5721 2.16663 12.2445L3.16919 12.1602L6.84193 12.1602L10.5147 12.1602L11.5172 12.2445C12.7382 12.5721 12.6836 13.4009 12.6836 13.4009L12.6836 29.3833L10.1226 29.839Z" stroke="#212428" stroke-width="0.7027" stroke-miterlimit="2.61313"/>
<path d="M9.01409 18.7899L9.01409 18.368L9.38137 18.368L9.38633 18.363C9.3367 18.3382 9.28707 18.3085 9.23744 18.2737C9.1878 18.239 9.14314 18.1993 9.10343 18.1546C9.06372 18.1099 9.02898 18.0553 9.00417 17.9958C8.97935 17.9362 8.96446 17.8717 8.96446 17.7972C8.96446 17.6484 9.01906 17.5342 9.12328 17.4548C9.22751 17.3754 9.36648 17.3406 9.54019 17.3406L10.6916 17.3406L10.6916 17.7824L9.56501 17.7824C9.46574 17.7824 9.38633 17.8072 9.33174 17.8518C9.27714 17.8965 9.24736 17.966 9.24736 18.0504C9.24736 18.1248 9.26721 18.1844 9.30692 18.234C9.34663 18.2836 9.39129 18.3233 9.45085 18.3531L10.6916 18.3531L10.6916 18.7948L9.01906 18.7948L9.01409 18.7899ZM10.7115 21.7926L10.7115 21.7231L10.7363 21.7231L10.7363 21.8968L10.7115 21.8968L10.7115 21.8273L10.5279 21.8273L10.5279 21.7976L10.7115 21.7976L10.7115 21.7926ZM10.5279 22.1202L10.6817 22.1202L10.5576 22.0457L10.5576 22.0308L10.6817 21.9564L10.5328 21.9564L10.5328 21.9266L10.7413 21.9266L10.7413 21.9514L10.5924 22.0408L10.7413 22.1251L10.7413 22.1499L10.5328 22.1499L10.5328 22.1202L10.5279 22.1202ZM10.7016 19.9463C10.6718 19.8917 10.6371 19.8371 10.5973 19.7924C10.5576 19.7428 10.513 19.6981 10.4633 19.6584C10.4187 19.6187 10.379 19.584 10.3442 19.5542L10.6867 19.5542L10.6867 19.1125L9.72879 19.1125L9.01409 19.1125L9.01409 19.5592L10.2698 19.5592C10.3095 19.5939 10.3393 19.6237 10.3641 19.6584C10.3839 19.6932 10.3988 19.723 10.3988 19.7527C10.3988 19.7726 10.3939 19.7974 10.3889 19.8272C10.379 19.857 10.369 19.8867 10.3591 19.9215C10.3442 19.9513 10.3293 19.981 10.3144 20.0108C10.2946 20.0406 10.2747 20.0654 10.2549 20.0803L10.2549 20.115L10.7512 20.115C10.7512 20.0505 10.7413 20.0059 10.7115 19.9513L10.7016 19.9463ZM8.68156 17.1123C8.68156 16.9337 8.66667 16.7649 8.63689 16.616C8.60711 16.4622 8.56245 16.3331 8.49792 16.2239C8.4334 16.1147 8.35399 16.0254 8.25473 15.9609C8.15547 15.8964 8.04131 15.8666 7.90234 15.8666L7.90234 15.7921C7.9222 15.7921 7.93212 15.7921 7.93212 15.7921C8.09591 15.7971 8.25473 15.8318 8.40362 15.8914C8.56245 15.9609 8.70638 16.0552 8.82549 16.1743C8.94957 16.2934 9.04387 16.4324 9.11832 16.5912C9.19277 16.75 9.22751 16.9237 9.22751 17.1123L8.6766 17.1123L8.68156 17.1123ZM9.03395 15.7822C9.03395 15.9212 9.06373 16.0353 9.12825 16.1346C9.19277 16.2338 9.27714 16.3133 9.3913 16.3778C9.50048 16.4423 9.63449 16.487 9.78835 16.5167C9.94221 16.5465 10.106 16.5614 10.2896 16.5614C10.4683 16.5614 10.6371 16.5465 10.7909 16.5167C10.9448 16.487 11.0738 16.4423 11.188 16.3778C11.2972 16.3133 11.3865 16.2338 11.451 16.1346C11.5155 16.0353 11.5453 15.9212 11.5453 15.7822C11.5453 15.6432 11.5155 15.5291 11.451 15.4298C11.3865 15.3305 11.2972 15.2511 11.188 15.1866C11.0738 15.1221 10.9448 15.0774 10.7909 15.0476C10.6371 15.0179 10.4733 15.003 10.2946 15.003C10.1159 15.003 9.95213 15.0179 9.79828 15.0476C9.64442 15.0774 9.51537 15.1221 9.40122 15.1866C9.29203 15.2511 9.20269 15.3305 9.13817 15.4298C9.07365 15.5291 9.04387 15.6432 9.04387 15.7822L9.03395 15.7822ZM8.96446 15.6829C8.97439 15.544 9.00913 15.405 9.06373 15.2809C9.13321 15.1221 9.22751 14.9782 9.34663 14.859C9.46574 14.7399 9.60471 14.6407 9.76353 14.5662C9.92235 14.4918 10.0961 14.457 10.2847 14.457C10.4683 14.457 10.642 14.4918 10.8058 14.5662C10.9646 14.6407 11.1086 14.735 11.2277 14.859C11.3468 14.9782 11.4411 15.1221 11.5106 15.2809C11.5801 15.4397 11.6148 15.6085 11.6148 15.7822C11.6148 15.9559 11.5801 16.1247 11.5106 16.2835C11.4411 16.4423 11.3468 16.5862 11.2277 16.7053C11.1086 16.8294 10.9646 16.9237 10.8058 16.9982C10.647 17.0726 10.4733 17.1074 10.2847 17.1074C10.101 17.1074 9.92732 17.0726 9.76353 16.9982C9.60471 16.9237 9.46078 16.8294 9.34663 16.7053C9.22751 16.5813 9.13321 16.4423 9.06373 16.2835C8.9992 16.1346 8.96943 15.9758 8.96446 15.812C8.96446 15.812 8.96446 15.7276 8.96942 15.678L8.96446 15.6829ZM10.0961 20.5915C10.1755 20.5965 10.2499 20.6064 10.3194 20.6263C10.3889 20.6411 10.4484 20.666 10.503 20.6957C10.5576 20.7255 10.5973 20.7603 10.6271 20.8049C10.6569 20.8496 10.6718 20.8992 10.6718 20.9538C10.6718 21.0432 10.6321 21.1126 10.5576 21.1623C10.4832 21.2119 10.3045 21.2318 10.1358 21.2318L10.0266 21.2318L9.73872 20.6263C9.82309 20.6014 9.91243 20.5915 10.0266 20.5915L10.0961 20.5915ZM9.50049 21.6487C9.44589 21.604 9.39626 21.5395 9.35655 21.465C9.31685 21.3856 9.29699 21.2913 9.29699 21.1821C9.29699 21.0978 9.31188 21.0183 9.3367 20.9439C9.36152 20.8694 9.40618 20.8099 9.46574 20.7553C9.52034 20.7057 9.58982 20.6709 9.6742 20.6411L10.1358 21.6536C10.1358 21.6536 10.3045 21.6487 10.513 21.4948C10.5874 21.4402 10.6321 21.3558 10.6768 21.2715C10.7214 21.1821 10.7413 21.0829 10.7413 20.9737C10.7413 20.8694 10.7214 20.7652 10.6768 20.666C10.6321 20.5667 10.5725 20.4774 10.4882 20.4029C10.4087 20.3285 10.3095 20.2639 10.2003 20.2193C10.0861 20.1746 9.96206 20.1498 9.82309 20.1498C9.70397 20.1498 9.58982 20.1696 9.48559 20.2093C9.38137 20.2491 9.29203 20.3036 9.21262 20.3731C9.13321 20.4426 9.07365 20.527 9.02898 20.6263C8.98432 20.7255 8.96446 20.8347 8.96446 20.9588C8.96446 21.1474 9.01409 21.3062 9.11336 21.4253C9.21262 21.5444 9.34166 21.6288 9.49552 21.6784L9.50545 21.6586L9.50049 21.6487Z" fill="#212428"/>
<path fill-rule="evenodd" clip-rule="evenodd" d="M6.40494 17.093L6.4099 17.093C6.43472 17.1129 6.45953 17.1278 6.47939 17.1426C6.49924 17.1526 6.51909 17.1625 6.53895 17.1724C6.5588 17.1774 6.58361 17.1824 6.60347 17.1873C6.62828 17.1923 6.6531 17.1923 6.68784 17.1923L7.44224 17.1923C7.46706 17.1923 7.48691 17.1873 7.5018 17.1824C7.52165 17.1774 7.53654 17.1724 7.55143 17.1625C7.56632 17.1526 7.58121 17.1426 7.5961 17.1278C7.61099 17.1129 7.62588 17.098 7.64077 17.0781L7.64573 17.0781L7.64573 17.3213L6.62332 17.7829L7.64573 18.2345L7.64573 18.4629L7.64077 18.4629C7.62588 18.438 7.60603 18.4231 7.59114 18.4083C7.57625 18.3934 7.55639 18.3834 7.54151 18.3735C7.52165 18.3636 7.5018 18.3586 7.48195 18.3537C7.45713 18.3487 7.43232 18.3487 7.40254 18.3487L6.66799 18.3487C6.63821 18.3487 6.61339 18.3487 6.59354 18.3537C6.57369 18.3537 6.55383 18.3586 6.53398 18.3636C6.51413 18.3685 6.49924 18.3735 6.47939 18.3834C6.45953 18.3934 6.43968 18.4033 6.41983 18.4182L6.41487 18.4182L6.41487 18.1452L6.41983 18.1452C6.43968 18.1601 6.45953 18.17 6.47939 18.1799C6.49924 18.1899 6.51413 18.1948 6.53398 18.1998C6.55383 18.2048 6.57369 18.2097 6.59354 18.2097C6.61339 18.2097 6.64317 18.2147 6.66799 18.2147L7.51173 18.2147L6.44465 17.7432L6.44465 17.7134L7.51669 17.227L6.68784 17.232C6.65806 17.232 6.62828 17.232 6.60347 17.2369C6.57865 17.2419 6.5588 17.2469 6.53895 17.2568C6.51909 17.2667 6.49924 17.2767 6.47939 17.2915C6.45953 17.3064 6.43472 17.3263 6.4099 17.3511L6.40494 17.3511L6.40494 17.093ZM7.51669 18.7507C7.49187 18.7507 7.47202 18.7408 7.45713 18.7259C7.44224 18.711 7.43232 18.6912 7.43232 18.6663C7.43232 18.6415 7.44224 18.6266 7.45713 18.6068C7.47202 18.5919 7.49187 18.582 7.51669 18.582C7.54151 18.582 7.5564 18.5919 7.57625 18.6068C7.59114 18.6217 7.60106 18.6415 7.60106 18.6663C7.60106 18.6912 7.59114 18.706 7.57625 18.7259C7.56136 18.7408 7.54151 18.7507 7.51669 18.7507ZM6.4099 18.577C6.44465 18.5919 6.48435 18.6018 6.52406 18.6068C6.56376 18.6117 6.60843 18.6167 6.66799 18.6167L6.98067 18.6167C7.02037 18.6167 7.05511 18.6068 7.08489 18.5919C7.10971 18.577 7.13453 18.5572 7.14942 18.5423L7.15438 18.5423L7.24372 18.7408L6.66799 18.7408C6.60843 18.7408 6.5588 18.7408 6.52406 18.7458C6.48435 18.7507 6.44961 18.7606 6.4099 18.7755L6.40494 18.7755L6.40494 18.577L6.4099 18.577ZM6.59354 19.5895C6.52902 19.5647 6.47939 19.5299 6.43968 19.4753C6.39998 19.4207 6.38012 19.3562 6.38012 19.2718C6.38012 19.2173 6.39005 19.1676 6.4099 19.123C6.42976 19.0783 6.45457 19.0386 6.48931 19.0038C6.52406 18.9691 6.56872 18.9443 6.61836 18.9294C6.66799 18.9095 6.72755 18.9046 6.7871 18.9046C6.85659 18.9046 6.91615 18.9145 6.97074 18.9393C7.02534 18.9641 7.07 18.9939 7.10971 19.0336C7.14942 19.0733 7.17919 19.118 7.19905 19.1676C7.2189 19.2173 7.22883 19.2718 7.22883 19.3264C7.22883 19.381 7.22386 19.4307 7.20897 19.4654C7.19905 19.5002 7.18416 19.5299 7.17919 19.5498L7.00548 19.5647L7.00052 19.5498C7.02534 19.5349 7.05015 19.515 7.07497 19.5002C7.09978 19.4803 7.11964 19.4604 7.13453 19.4406C7.14941 19.4207 7.1643 19.3959 7.17423 19.3711C7.18416 19.3463 7.18912 19.3215 7.18912 19.2967C7.18912 19.2123 7.15934 19.1478 7.09482 19.0981C7.0303 19.0485 6.94593 19.0237 6.83177 19.0237C6.72258 19.0237 6.63821 19.0485 6.57369 19.0981C6.50917 19.1478 6.47939 19.2222 6.47939 19.3165C6.47939 19.3661 6.48931 19.4108 6.5042 19.4555C6.51909 19.5002 6.54887 19.5399 6.58858 19.5696L6.58361 19.5796L6.59354 19.5895ZM6.4099 19.7433C6.42976 19.7533 6.44464 19.7582 6.4645 19.7632C6.48435 19.7682 6.49924 19.7731 6.52406 19.7731C6.54391 19.7731 6.56376 19.7781 6.58858 19.7781C6.61339 19.7781 6.63821 19.7781 6.66799 19.7781L6.98563 19.7781C7.0303 19.7781 7.06504 19.7682 7.08986 19.7533C7.11467 19.7384 7.13949 19.7185 7.15438 19.7036L7.15934 19.7036L7.24868 19.8922L7.04519 19.8922L7.04519 19.9022C7.06504 19.922 7.08489 19.9369 7.10971 19.9568C7.13453 19.9766 7.15438 19.9965 7.17423 20.0213C7.19408 20.0411 7.20897 20.066 7.22386 20.0908C7.23875 20.1156 7.24372 20.1404 7.24372 20.1702L7.07497 20.1702L7.07497 20.1652C7.07993 20.1603 7.08489 20.1503 7.08986 20.1404C7.09482 20.1305 7.09978 20.1156 7.09978 20.1057C7.10475 20.0908 7.10475 20.0808 7.10971 20.066C7.10971 20.056 7.11467 20.0411 7.11467 20.0312C7.11467 20.0163 7.10475 19.9965 7.08489 19.9717C7.06504 19.9468 7.04023 19.922 7.01045 19.9022L6.67791 19.9022C6.61836 19.9022 6.56872 19.9022 6.53398 19.9071C6.49428 19.9121 6.45953 19.922 6.41983 19.9369L6.41487 19.9369L6.41487 19.7384L6.41983 19.7384L6.4099 19.7433ZM6.38012 20.6715C6.38012 20.6119 6.39005 20.5573 6.41487 20.5077C6.43968 20.458 6.46946 20.4134 6.50917 20.3737C6.54887 20.334 6.59354 20.3042 6.64317 20.2843C6.6928 20.2595 6.7474 20.2496 6.80696 20.2496C6.86651 20.2496 6.92111 20.2595 6.97074 20.2843C7.02037 20.3091 7.07 20.3389 7.10475 20.3786C7.14445 20.4183 7.17423 20.463 7.19905 20.5126C7.22386 20.5623 7.23379 20.6169 7.23379 20.6764C7.23379 20.736 7.22386 20.7906 7.19905 20.8402C7.17423 20.8898 7.14445 20.9345 7.10475 20.9742C7.06504 21.0139 7.02037 21.0437 6.97074 21.0636C6.92111 21.0884 6.86155 21.0983 6.80696 21.0983C6.7474 21.0983 6.6928 21.0884 6.64317 21.0636C6.59354 21.0387 6.54887 21.009 6.50917 20.9742C6.46946 20.9345 6.43968 20.8898 6.41487 20.8402C6.39005 20.7906 6.38012 20.736 6.38012 20.6764L6.38012 20.6715ZM6.4099 20.6715C6.4099 20.7211 6.41983 20.7608 6.43968 20.7955C6.45953 20.8303 6.48931 20.8601 6.52406 20.8849C6.5588 20.9097 6.60347 20.9246 6.64813 20.9395C6.69777 20.9494 6.7474 20.9544 6.79703 20.9544C6.85162 20.9544 6.90126 20.9494 6.94593 20.9345C6.99556 20.9246 7.03526 20.9047 7.07 20.8799C7.10475 20.8551 7.13453 20.8253 7.15934 20.7906C7.17919 20.7558 7.18912 20.7161 7.18912 20.6665C7.18912 20.6169 7.17919 20.5772 7.15934 20.5424C7.13949 20.5077 7.10971 20.4779 7.07 20.4531C7.03526 20.4283 6.99059 20.4134 6.94593 20.3985C6.89629 20.3886 6.84666 20.3786 6.79703 20.3786C6.74243 20.3786 6.6928 20.3836 6.64813 20.3935C6.5985 20.4035 6.5588 20.4233 6.52406 20.4481C6.48931 20.4729 6.45953 20.5027 6.43968 20.5375C6.41983 20.5722 6.4099 20.6119 6.4099 20.6615L6.4099 20.6715ZM6.40494 21.5003C6.42479 21.5152 6.44464 21.5251 6.4645 21.5351C6.48435 21.545 6.49924 21.5499 6.51909 21.5549C6.53895 21.5599 6.5588 21.5648 6.57865 21.5648C6.5985 21.5648 6.62332 21.5698 6.6531 21.5698L7.38268 21.5698C7.41246 21.5698 7.43728 21.5698 7.45713 21.5648C7.47698 21.5648 7.49684 21.5599 7.51669 21.5549C7.53654 21.5499 7.55143 21.545 7.57129 21.5351C7.59114 21.5251 7.61099 21.5152 7.63084 21.5003L7.63581 21.5003L7.63581 21.7733L7.63084 21.7733C7.61099 21.7584 7.59114 21.7485 7.57129 21.7385C7.55143 21.7286 7.53654 21.7237 7.51669 21.7187C7.49684 21.7137 7.47698 21.7088 7.45713 21.7088C7.43728 21.7088 7.41246 21.7038 7.38268 21.7038L6.6531 21.7038C6.62332 21.7038 6.5985 21.7038 6.57865 21.7088C6.5588 21.7088 6.53895 21.7137 6.51909 21.7187C6.49924 21.7237 6.48435 21.7286 6.4645 21.7385C6.44464 21.7485 6.42479 21.7584 6.40494 21.7733L6.39998 21.7733L6.39998 21.5003L6.40494 21.5003ZM6.39998 22.1257L6.39998 21.9271L6.40494 21.9271C6.42479 21.9371 6.43968 21.942 6.45953 21.947C6.47939 21.952 6.49428 21.9569 6.51909 21.9569C6.53894 21.9569 6.5588 21.9619 6.58361 21.9619C6.60843 21.9619 6.63325 21.9619 6.66302 21.9619L6.98067 21.9619C7.02534 21.9619 7.06008 21.952 7.08489 21.9371C7.10971 21.9222 7.13453 21.9023 7.14942 21.8874L7.15438 21.8874L7.24372 22.076L7.08489 22.076L7.08489 22.081C7.13453 22.1207 7.16927 22.1654 7.19408 22.215C7.2189 22.2646 7.23379 22.3143 7.23379 22.3738C7.23379 22.4532 7.21394 22.5128 7.16927 22.5525C7.1246 22.5922 7.06504 22.6121 6.99059 22.6121L6.66799 22.6121C6.63821 22.6121 6.60843 22.6121 6.58858 22.6121C6.56376 22.6121 6.54391 22.6121 6.52406 22.617C6.5042 22.617 6.48435 22.622 6.4645 22.627C6.44464 22.6319 6.42976 22.6369 6.4099 22.6468L6.40494 22.6468L6.40494 22.4483L6.4099 22.4483C6.44465 22.4632 6.48435 22.4731 6.52406 22.4781C6.56376 22.483 6.60843 22.483 6.66799 22.483L6.96081 22.483C6.98563 22.483 7.01045 22.4781 7.03526 22.4731C7.06008 22.4681 7.07993 22.4582 7.09482 22.4433C7.11467 22.4284 7.1246 22.4135 7.13453 22.3887C7.14445 22.3639 7.14942 22.3391 7.14942 22.3093C7.14942 22.2696 7.13949 22.2299 7.1246 22.1902C7.10971 22.1505 7.08489 22.1108 7.05015 22.081L6.66302 22.081C6.60347 22.081 6.55383 22.081 6.51909 22.086C6.47939 22.0909 6.44464 22.1009 6.40494 22.1157L6.39998 22.1157L6.39998 22.1257ZM6.40494 22.8354C6.42976 22.8503 6.45457 22.8602 6.48931 22.8652C6.52406 22.8701 6.57369 22.8751 6.63821 22.8751L7.17423 22.8751L7.17423 22.7709L7.20401 22.7709L7.20401 22.8751L7.34794 22.8751C7.4075 22.8751 7.45713 22.8801 7.5018 22.895C7.54647 22.9099 7.58617 22.9297 7.61595 22.9545C7.64573 22.9793 7.67055 23.0091 7.6904 23.0439C7.70529 23.0786 7.71522 23.1183 7.71522 23.158C7.71522 23.1828 7.71025 23.2076 7.70529 23.2275C7.70033 23.2473 7.69536 23.2622 7.6904 23.2722L7.53654 23.292L7.53158 23.2821C7.55143 23.2722 7.56632 23.2573 7.58617 23.2424C7.60603 23.2275 7.62092 23.2176 7.63581 23.2027C7.6507 23.1878 7.66062 23.1729 7.67055 23.163C7.68047 23.1481 7.68544 23.1332 7.68544 23.1183C7.68544 23.0836 7.66559 23.0538 7.62092 23.029C7.57625 23.0042 7.51173 22.9942 7.42239 22.9942L7.20401 22.9942L7.20401 23.1928L7.17423 23.1928L7.17423 22.9942L6.63821 22.9942C6.57369 22.9942 6.52406 22.9992 6.48931 23.0042C6.45457 23.0091 6.42976 23.019 6.40494 23.0339L6.39998 23.0339L6.39998 22.8304L6.40494 22.8304L6.40494 22.8354ZM6.55383 23.8231C6.52902 23.8082 6.50917 23.7883 6.48931 23.7734C6.46946 23.7536 6.44961 23.7337 6.42976 23.7139C6.41487 23.694 6.39998 23.6692 6.39005 23.6394C6.38012 23.6097 6.37516 23.5799 6.37516 23.5451C6.37516 23.4707 6.39998 23.4161 6.44464 23.3814C6.48931 23.3466 6.55383 23.3268 6.63325 23.3268L7.05511 23.3268C7.08986 23.3268 7.11964 23.3218 7.13949 23.3069C7.1643 23.292 7.17919 23.2771 7.19408 23.2573L7.19905 23.2573L7.19905 23.4508L6.65806 23.4508C6.53398 23.4508 6.46946 23.5054 6.46946 23.6146C6.46946 23.6643 6.47939 23.704 6.49924 23.7387C6.51909 23.7734 6.54391 23.7983 6.57369 23.8181L7.05015 23.8181C7.11467 23.8181 7.15934 23.7933 7.19408 23.7437L7.19905 23.7437L7.19905 23.9422L6.62828 23.9422C6.59354 23.9422 6.56376 23.9422 6.54391 23.9472C6.52406 23.9521 6.5042 23.9521 6.48931 23.962C6.47442 23.967 6.4645 23.9769 6.45457 23.9869C6.44465 23.9968 6.43968 24.0067 6.42976 24.0216L6.42479 24.0216L6.3702 23.833L6.54391 23.833L6.55383 23.8231ZM7.0303 24.6122L7.02534 24.6023C7.08986 24.5676 7.13453 24.5278 7.15934 24.4881C7.18416 24.4484 7.19408 24.4087 7.19408 24.369C7.19408 24.3194 7.17919 24.2797 7.15438 24.2499C7.12956 24.2201 7.09482 24.2052 7.05511 24.2052C7.0303 24.2052 7.00548 24.2102 6.99059 24.2251C6.97074 24.235 6.95585 24.2549 6.94593 24.2747C6.93104 24.2946 6.92111 24.3194 6.90622 24.3442C6.89629 24.369 6.88637 24.3988 6.87148 24.4286C6.86155 24.4584 6.84666 24.4881 6.83177 24.5179C6.81688 24.5477 6.80199 24.5725 6.78214 24.5924C6.76229 24.6172 6.73747 24.6321 6.70769 24.647C6.67791 24.6619 6.64317 24.6668 6.60347 24.6668C6.52406 24.6668 6.46946 24.637 6.42479 24.5824C6.38509 24.5278 6.36523 24.4534 6.36523 24.3591C6.36523 24.3095 6.3702 24.2648 6.38012 24.2251C6.39005 24.1854 6.39998 24.1506 6.41487 24.1209L6.60843 24.106L6.61339 24.1159C6.53895 24.1506 6.48435 24.1904 6.45457 24.2301C6.41983 24.2698 6.40494 24.3194 6.40494 24.379C6.40494 24.4385 6.41983 24.4881 6.45457 24.5179C6.48931 24.5477 6.52406 24.5626 6.56376 24.5626C6.58858 24.5626 6.60843 24.5576 6.62828 24.5477C6.64814 24.5378 6.66302 24.5229 6.67791 24.508C6.6928 24.4881 6.70769 24.4683 6.71762 24.4435C6.72755 24.4187 6.73747 24.3938 6.75236 24.3641C6.76229 24.3343 6.77718 24.3095 6.7871 24.2797C6.80199 24.2499 6.81688 24.2251 6.83673 24.2003C6.85659 24.1755 6.8814 24.1556 6.90622 24.1407C6.936 24.1258 6.96578 24.1159 7.00548 24.1159C7.04519 24.1159 7.07993 24.1258 7.10971 24.1407C7.13949 24.1556 7.15934 24.1804 7.17919 24.2052C7.19905 24.2301 7.20897 24.2648 7.21394 24.2946C7.2189 24.3293 7.22386 24.3641 7.22386 24.3988C7.22386 24.4335 7.2189 24.4733 7.21394 24.508C7.20897 24.5427 7.19905 24.5725 7.18912 24.5973L7.02534 24.6122L7.0303 24.6122ZM7.51173 24.9547C7.48691 24.9547 7.46706 24.9448 7.45217 24.9299C7.43728 24.915 7.42735 24.8951 7.42735 24.8703C7.42735 24.8455 7.43728 24.8306 7.45217 24.8107C7.46706 24.7959 7.48691 24.7859 7.51173 24.7859C7.53654 24.7859 7.55143 24.7959 7.57128 24.8107C7.58617 24.8256 7.5961 24.8455 7.5961 24.8703C7.5961 24.8951 7.58617 24.91 7.57128 24.9299C7.5564 24.9448 7.53654 24.9547 7.51173 24.9547ZM6.40494 24.781C6.43968 24.7959 6.47939 24.8058 6.51909 24.8107C6.5588 24.8157 6.60347 24.8207 6.66302 24.8207L6.9757 24.8207C7.01541 24.8207 7.05015 24.8107 7.07993 24.7959C7.10475 24.781 7.12956 24.7611 7.14445 24.7462L7.14942 24.7462L7.23875 24.9448L6.66302 24.9448C6.60347 24.9448 6.55383 24.9448 6.51909 24.9497C6.47939 24.9547 6.44464 24.9646 6.40494 24.9795L6.39998 24.9795L6.39998 24.781L6.40494 24.781ZM6.37516 25.5254C6.37516 25.4659 6.38509 25.4113 6.4099 25.3617C6.43472 25.312 6.4645 25.2674 6.5042 25.2277C6.54391 25.1879 6.58858 25.1582 6.63821 25.1383C6.68784 25.1135 6.74243 25.1036 6.80199 25.1036C6.86155 25.1036 6.91615 25.1135 6.96578 25.1383C7.01541 25.1631 7.06504 25.1929 7.09978 25.2326C7.13949 25.2723 7.16927 25.317 7.19408 25.3666C7.2189 25.4163 7.22883 25.4708 7.22883 25.5304C7.22883 25.59 7.2189 25.6446 7.19408 25.6942C7.16927 25.7438 7.13949 25.7885 7.09978 25.8282C7.06008 25.8679 7.01541 25.8977 6.96578 25.9175C6.91615 25.9424 6.85659 25.9523 6.80199 25.9523C6.74243 25.9523 6.68784 25.9424 6.63821 25.9175C6.58858 25.8927 6.54391 25.8629 6.5042 25.8282C6.4645 25.7885 6.43472 25.7438 6.4099 25.6942C6.38509 25.6446 6.37516 25.59 6.37516 25.5304L6.37516 25.5254ZM6.40494 25.5254C6.40494 25.5751 6.41487 25.6148 6.43472 25.6495C6.45457 25.6843 6.48435 25.714 6.51909 25.7389C6.55383 25.7637 6.5985 25.7786 6.64317 25.7935C6.6928 25.8034 6.74244 25.8083 6.79207 25.8083C6.84666 25.8083 6.89629 25.8034 6.94096 25.7885C6.99059 25.7786 7.0303 25.7587 7.06504 25.7339C7.09978 25.7091 7.12956 25.6793 7.15438 25.6446C7.17423 25.6098 7.18416 25.5701 7.18416 25.5205C7.18416 25.4708 7.17423 25.4311 7.15438 25.3964C7.13453 25.3617 7.10475 25.3319 7.06504 25.3071C7.0303 25.2822 6.98563 25.2674 6.94096 25.2525C6.89133 25.2425 6.8417 25.2326 6.79207 25.2326C6.73747 25.2326 6.68784 25.2376 6.64317 25.2475C6.59354 25.2574 6.55383 25.2773 6.51909 25.3021C6.48435 25.3269 6.45457 25.3567 6.43472 25.3914C6.41487 25.4262 6.40494 25.4659 6.40494 25.5155L6.40494 25.5254ZM6.39998 26.2848L6.39998 26.0863L6.40494 26.0863C6.42479 26.0962 6.43968 26.1012 6.45953 26.1061C6.47939 26.1111 6.49428 26.1161 6.51909 26.1161C6.53894 26.1161 6.5588 26.121 6.58361 26.121C6.60843 26.121 6.63325 26.121 6.66302 26.121L6.98067 26.121C7.02534 26.121 7.06008 26.1111 7.08489 26.0962C7.10971 26.0813 7.13453 26.0615 7.14942 26.0466L7.15438 26.0466L7.24372 26.2352L7.08489 26.2352L7.08489 26.2401C7.13453 26.2798 7.16927 26.3245 7.19408 26.3741C7.2189 26.4238 7.23379 26.4734 7.23379 26.533C7.23379 26.6124 7.21394 26.6719 7.16927 26.7116C7.1246 26.7513 7.06504 26.7712 6.99059 26.7712L6.66799 26.7712C6.63821 26.7712 6.60843 26.7712 6.58858 26.7712C6.56376 26.7712 6.54391 26.7712 6.52406 26.7762C6.5042 26.7762 6.48435 26.7811 6.4645 26.7861C6.44464 26.7911 6.42976 26.796 6.4099 26.8059L6.40494 26.8059L6.40494 26.6074L6.4099 26.6074C6.44464 26.6223 6.48435 26.6322 6.52406 26.6372C6.56376 26.6422 6.60843 26.6422 6.66799 26.6422L6.96081 26.6422C6.98563 26.6422 7.01045 26.6372 7.03526 26.6322C7.06008 26.6273 7.07993 26.6173 7.09482 26.6025C7.11467 26.5876 7.1246 26.5727 7.13453 26.5479C7.14445 26.523 7.14942 26.4982 7.14942 26.4684C7.14942 26.4287 7.13949 26.389 7.1246 26.3493C7.10971 26.3096 7.08489 26.2699 7.05015 26.2401L6.66302 26.2401C6.60347 26.2401 6.55383 26.2401 6.51909 26.2451C6.47939 26.2501 6.44464 26.26 6.40494 26.2749L6.39998 26.2749L6.39998 26.2848Z" fill="#212428"/>
<path d="M8.95117 21.9607L8.95117 28.2689" stroke="#212428" stroke-width="0.401769"/>
<path d="M7.63477 23.7605L12.7617 23.7673" stroke="#212428" stroke-width="0.401769"/>
<path fill-rule="evenodd" clip-rule="evenodd" d="M1.02344 8.47213L1.02344 12.1498L6.84028 12.1498L12.6571 12.1498L12.6571 8.47212C12.0218 8.26367 6.84028 8.26367 6.84028 8.26367C6.84028 8.26367 1.65872 8.26367 1.02344 8.47213Z" fill="white" stroke="#212428" stroke-width="0.7027" stroke-miterlimit="2.61313"/>
<path fill-rule="evenodd" clip-rule="evenodd" d="M1.94022 8.368C1.94022 7.51433 1.88563 6.26858 2.00474 5.07245C2.1586 3.50905 2.60032 2.03499 3.82126 1.62305L6.81902 1.62305L9.81678 1.62305C11.9807 2.35263 11.6978 6.40258 11.6978 8.368C10.0153 8.26873 6.83887 8.26873 6.83887 8.26873L6.81902 8.26873C6.56093 8.26873 3.53836 8.2737 1.94022 8.368Z" fill="white" stroke="#212428" stroke-width="0.7027" stroke-miterlimit="2.61313"/>
<path d="M1.9375 6.52118C4.70199 6.14398 8.92565 6.14398 11.6852 6.52118" stroke="#212428" stroke-width="0.64283" stroke-miterlimit="2.61313"/>
<path d="M3.42188 0.708984L3.42187 6.27766" stroke="#212428" stroke-width="0.64283" stroke-miterlimit="2.61313" stroke-linecap="round" stroke-linejoin="round"/>
<path d="M4.78125 0.708984L4.78125 6.27766" stroke="#212428" stroke-width="0.64283" stroke-miterlimit="2.61313" stroke-linecap="round" stroke-linejoin="round"/>
<path d="M6.14648 0.708984L6.14648 6.27766" stroke="#212428" stroke-width="0.64283" stroke-miterlimit="2.61313" stroke-linecap="round" stroke-linejoin="round"/>
<path d="M7.51172 0.708984L7.51172 6.27766" stroke="#212428" stroke-width="0.64283" stroke-miterlimit="2.61313" stroke-linecap="round" stroke-linejoin="round"/>
<path d="M8.87891 0.708984L8.87891 6.27766" stroke="#212428" stroke-width="0.64283" stroke-miterlimit="2.61313" stroke-linecap="round" stroke-linejoin="round"/>
<path d="M10.2363 0.708984L10.2363 6.27766" stroke="#212428" stroke-width="0.64283" stroke-miterlimit="2.61313" stroke-linecap="round" stroke-linejoin="round"/>
</svg>
