<svg width="9" height="32" viewBox="0 0 9 32" fill="none" xmlns="http://www.w3.org/2000/svg">
<rect x="2.75586" y="4.65863" width="3.42627" height="1.10816" fill="white"/>
<rect x="1.41455" y="6.23004" width="6.17213" height="0.467286" fill="white"/>
<path d="M6.43661 6.03375V4.39166H2.50098C2.50098 4.39166 2.50098 5.39248 2.50098 6.03375H6.40665" stroke="#212428" stroke-width="0.600001"/>
<path d="M4.37446 31C2.82379 30.9999 0.500161 30.1302 0.500161 30.1302L0.5 6.93793H8.25097V30.1302C8.25097 30.1302 5.92513 31.0002 4.37446 31Z" fill="white" stroke="#212428" stroke-width="0.750001"/>
<path d="M0.507324 9.90393H8.26572" stroke="#212428" stroke-width="0.750001"/>
<path d="M1.18896 6.89504V6.034H7.76796V6.89504" stroke="#212428" stroke-width="0.600001"/>
<path d="M2.2041 4.38797H6.42698H6.71426V1.6115C6.71426 1.6115 5.40739 0.970499 4.51754 1.00106C3.6425 1.03111 2.2041 1.55385 2.2041 1.55385V4.38797Z" fill="white" stroke="#212428" stroke-width="0.600001"/>
<circle cx="4.43015" cy="2.17484" r="0.435324" fill="#F6F6F7" stroke="#212428" stroke-width="0.225"/>
<circle cx="4.43013" cy="2.1747" r="0.143508" fill="#212428"/>
<path d="M4.46484 13.2154C4.7634 13.2154 5.05322 13.2774 5.32422 13.3961C5.59968 13.5195 5.84317 13.6854 6.0498 13.8941C6.26117 14.1078 6.42672 14.3553 6.55078 14.6402C6.67472 14.9249 6.73926 15.2288 6.73926 15.5562C6.73924 15.8837 6.67476 16.1875 6.55078 16.4722C6.42672 16.7571 6.25658 17.0045 6.0498 17.2134C5.83859 17.4222 5.59967 17.5881 5.32422 17.7115C5.0669 17.8207 4.79494 17.8825 4.51465 17.8873C4.50542 17.8877 4.3735 17.8913 4.29492 17.8824C4.05143 17.8634 3.82599 17.8064 3.60547 17.7115C3.33442 17.5881 3.09053 17.4223 2.88379 17.2134C2.67702 17.0045 2.51147 16.7571 2.38281 16.4722C2.26343 16.1922 2.19923 15.8837 2.19922 15.5562C2.19922 15.2335 2.26373 14.925 2.3877 14.6402C2.51176 14.3553 2.67731 14.1078 2.88867 13.8941C3.09527 13.6807 3.33857 13.5147 3.60938 13.3961C3.88047 13.2774 4.16617 13.2154 4.46484 13.2154ZM4.46875 13.3345C4.23456 13.3346 4.03252 13.3915 3.86719 13.5054C3.69732 13.6193 3.55973 13.771 3.4541 13.9703C3.34842 14.1697 3.26998 14.4028 3.21484 14.6734C3.16434 14.9439 3.13672 15.2381 3.13672 15.5513C3.13672 15.8645 3.16435 16.1587 3.21484 16.4293C3.26539 16.6999 3.34382 16.9328 3.4541 17.1275C3.55978 17.3221 3.6972 17.4793 3.86719 17.5884C4.03258 17.7071 4.23516 17.7593 4.46484 17.7593C4.69895 17.7593 4.9011 17.7024 5.06641 17.5933C5.23642 17.4841 5.37479 17.327 5.48047 17.1324C5.59068 16.9378 5.66822 16.7047 5.71875 16.4341C5.76926 16.1683 5.79688 15.8741 5.79688 15.5513C5.79687 15.2333 5.76927 14.9391 5.71875 14.6685C5.6728 14.4026 5.59465 14.1649 5.48438 13.9703C5.37419 13.7758 5.23651 13.6193 5.07129 13.5054C4.90128 13.3915 4.70309 13.3345 4.46875 13.3345Z" fill="#212428"/>
<path d="M4.46484 13.2154C4.7634 13.2154 5.05322 13.2774 5.32422 13.3961C5.59968 13.5195 5.84317 13.6854 6.0498 13.8941C6.26117 14.1078 6.42672 14.3553 6.55078 14.6402C6.67472 14.9249 6.73926 15.2288 6.73926 15.5562C6.73924 15.8837 6.67476 16.1875 6.55078 16.4722C6.42672 16.7571 6.25658 17.0045 6.0498 17.2134C5.83859 17.4222 5.59967 17.5881 5.32422 17.7115C5.0669 17.8207 4.79494 17.8825 4.51465 17.8873C4.50542 17.8877 4.3735 17.8913 4.29492 17.8824C4.05143 17.8634 3.82599 17.8064 3.60547 17.7115C3.33442 17.5881 3.09053 17.4223 2.88379 17.2134C2.67702 17.0045 2.51147 16.7571 2.38281 16.4722C2.26343 16.1922 2.19923 15.8837 2.19922 15.5562C2.19922 15.2335 2.26373 14.925 2.3877 14.6402C2.51176 14.3553 2.67731 14.1078 2.88867 13.8941C3.09527 13.6807 3.33857 13.5147 3.60938 13.3961C3.88047 13.2774 4.16617 13.2154 4.46484 13.2154ZM4.46875 13.3345C4.23456 13.3346 4.03252 13.3915 3.86719 13.5054C3.69732 13.6193 3.55973 13.771 3.4541 13.9703C3.34842 14.1697 3.26998 14.4028 3.21484 14.6734C3.16434 14.9439 3.13672 15.2381 3.13672 15.5513C3.13672 15.8645 3.16435 16.1587 3.21484 16.4293C3.26539 16.6999 3.34382 16.9328 3.4541 17.1275C3.55978 17.3221 3.6972 17.4793 3.86719 17.5884C4.03258 17.7071 4.23516 17.7593 4.46484 17.7593C4.69895 17.7593 4.9011 17.7024 5.06641 17.5933C5.23642 17.4841 5.37479 17.327 5.48047 17.1324C5.59068 16.9378 5.66822 16.7047 5.71875 16.4341C5.76926 16.1683 5.79688 15.8741 5.79688 15.5513C5.79687 15.2333 5.76927 14.9391 5.71875 14.6685C5.6728 14.4026 5.59465 14.1649 5.48438 13.9703C5.37419 13.7758 5.23651 13.6193 5.07129 13.5054C4.90128 13.3915 4.70309 13.3345 4.46875 13.3345Z" stroke="#212428"/>
<path d="M6.7373 18.3814C6.42963 18.3814 6.14488 18.4093 5.8877 18.4615C5.63038 18.5137 5.4049 18.5994 5.21191 18.7086C5.02356 18.8225 4.87227 18.9654 4.7666 19.1363C4.66099 19.3072 4.60547 19.5162 4.60547 19.7535H4.48145V19.7007C4.49065 19.4112 4.5457 19.1306 4.65137 18.8648C4.77082 18.5848 4.93169 18.3331 5.13379 18.1148C5.33595 17.8964 5.57492 17.7254 5.85059 17.5972C6.12621 17.4691 6.42035 17.4029 6.7373 17.4029V18.3814Z" fill="#212428"/>
<path d="M6.7373 18.3814C6.42963 18.3814 6.14488 18.4093 5.8877 18.4615C5.63038 18.5137 5.4049 18.5994 5.21191 18.7086C5.02356 18.8225 4.87227 18.9654 4.7666 19.1363C4.66099 19.3072 4.60547 19.5162 4.60547 19.7535H4.48145V19.7007C4.49065 19.4112 4.5457 19.1306 4.65137 18.8648C4.77082 18.5848 4.93169 18.3331 5.13379 18.1148C5.33595 17.8964 5.57492 17.7254 5.85059 17.5972C6.12621 17.4691 6.42035 17.4029 6.7373 17.4029V18.3814Z" stroke="#212428"/>
</svg>
