<svg width="38" height="24" viewBox="0 0 38 24" fill="none" xmlns="http://www.w3.org/2000/svg">
<g clip-path="url(#clip0_516_1035)">
<path d="M17.4484 23.4572C17.832 23.5311 18.2391 23.5653 18.6581 23.5653V23.5596H18.6699C19.0889 23.5596 19.4901 23.5254 19.8678 23.4515C25.202 22.4329 26.6064 19.07 26.9722 17.1524L27.0017 16.9704C27.0313 16.8167 27.049 16.6802 27.0608 16.5493C27.0667 16.4639 27.1198 16.3046 27.1729 16.1851C27.226 16.0656 27.2791 15.9461 27.3204 15.8209C28.3353 12.9417 30.9788 11.559 31.0202 11.5362C31.4686 11.246 31.9879 10.9445 32.5602 10.6429C33.0854 10.3698 33.3155 9.78367 33.1149 9.2431L32.4776 7.53036C32.3242 7.13204 31.9348 6.86461 31.4981 6.86461C31.4509 6.86461 31.4096 6.8703 31.3624 6.8703C28.0993 7.2743 22.3343 7.75227 21.1954 7.84332C21.1128 7.84332 21.042 7.78641 21.0302 7.71244C21.0243 7.66692 21.0361 7.62709 21.0656 7.59295C21.0951 7.5645 21.1364 7.54174 21.1836 7.54174C25.2787 7.49622 33.9115 6.54596 35.1684 6.35249C35.9355 6.22731 36.496 5.57863 36.496 4.82183V1.65809C36.496 0.463155 35.6994 0.372112 35.4575 0.372112C35.3867 0.372112 35.3395 0.377803 35.3395 0.377803C29.126 1.40772 22.5526 1.51584 20.0153 1.51584C19.1538 1.51584 18.6581 1.50446 18.6522 1.50446C18.6522 1.50446 18.1565 1.51584 17.295 1.51584C14.7577 1.51584 8.18428 1.40203 1.97079 0.377803C1.97079 0.377803 1.92359 0.372112 1.85278 0.372112C1.61085 0.372112 0.814249 0.463155 0.814249 1.65809V4.82183C0.814249 5.58432 1.37482 6.233 2.17732 6.36387C3.39877 6.55734 12.0139 7.50191 16.1149 7.54743C16.2034 7.54743 16.286 7.61002 16.286 7.68968C16.2919 7.7352 16.2742 7.77503 16.2447 7.80348C16.2152 7.83194 16.1739 7.84901 16.1208 7.84901C14.5276 7.71813 9.08709 7.26292 5.9538 6.87599C5.90659 6.8703 5.86529 6.8703 5.81809 6.8703H5.81808C5.38142 6.8703 4.98607 7.13773 4.83855 7.53605L4.20128 9.24879C4.00065 9.78367 4.23078 10.3754 4.75594 10.6486C6.89201 11.7639 8.11347 12.8052 8.11347 13.505C8.11347 14.4098 7.89514 14.774 7.76533 14.9105C7.63551 15.0414 7.62961 15.2462 7.75352 15.3885L8.07806 15.764C8.14887 15.8494 8.25508 15.8949 8.3672 15.8949H9.50014C9.89549 15.8949 10.22 16.1851 10.2613 16.5607C10.4384 18.2563 11.4946 22.3248 17.4484 23.4572Z" fill="white"/>
<path d="M34.9382 1.45325V5.23153M2.34844 5.23153V1.45325M29.8931 2.21004L33.8053 1.78897M7.62143 2.21004L3.71339 1.82169M18.6581 23.5653C18.2391 23.5653 17.832 23.5311 17.4484 23.4572C11.4946 22.3248 10.4384 18.2563 10.2613 16.5607C10.22 16.1851 9.89549 15.8949 9.50014 15.8949H8.3672C8.25508 15.8949 8.14887 15.8494 8.07806 15.764L7.75352 15.3885C7.62961 15.2462 7.63551 15.0414 7.76532 14.9105C7.89514 14.774 8.11347 14.4098 8.11347 13.505C8.11347 12.8052 6.89201 11.7639 4.75594 10.6486C4.23078 10.3754 4.00065 9.78367 4.20128 9.24879L4.83855 7.53605C4.98607 7.13773 5.38142 6.8703 5.81808 6.8703C5.86528 6.8703 5.90659 6.8703 5.9538 6.87599C9.08709 7.26292 14.5276 7.71813 16.1208 7.84901C16.1739 7.84901 16.2152 7.83194 16.2447 7.80348C16.2742 7.77503 16.2919 7.7352 16.286 7.68968C16.286 7.61002 16.2034 7.54743 16.1149 7.54743C12.0139 7.50191 3.39877 6.55734 2.17732 6.36387C1.37482 6.233 0.814249 5.58432 0.814249 4.82183V1.65809C0.814249 0.463155 1.61085 0.372112 1.85278 0.372112C1.92359 0.372112 1.97079 0.377803 1.97079 0.377803C8.18428 1.40203 14.7577 1.51584 17.295 1.51584C18.1565 1.51584 18.6522 1.50446 18.6522 1.50446C18.6581 1.50446 19.1538 1.51584 20.0153 1.51584C22.5526 1.51584 29.126 1.40772 35.3395 0.377803C35.3395 0.377803 35.3867 0.372112 35.4575 0.372112C35.6994 0.372112 36.496 0.463155 36.496 1.65809V4.82183C36.496 5.57863 35.9355 6.22731 35.1684 6.35249C33.9115 6.54596 25.2787 7.49622 21.1836 7.54174C21.1364 7.54174 21.0951 7.5645 21.0656 7.59295C21.0361 7.62709 21.0243 7.66692 21.0302 7.71244C21.042 7.78641 21.1128 7.84332 21.1954 7.84332C22.3343 7.75227 28.0993 7.2743 31.3624 6.8703C31.4096 6.8703 31.4509 6.86461 31.4981 6.86461C31.9348 6.86461 32.3242 7.13204 32.4776 7.53036L33.1149 9.2431C33.3155 9.78367 33.0854 10.3698 32.5602 10.6429C31.9879 10.9445 31.4686 11.246 31.0202 11.5362C30.9788 11.559 28.3353 12.9417 27.3204 15.8209C27.2791 15.9461 27.226 16.0656 27.1729 16.1851C27.1198 16.3046 27.0667 16.4639 27.0608 16.5493C27.049 16.6802 27.0313 16.8167 27.0017 16.9704L26.9722 17.1524C26.6064 19.07 25.202 22.4329 19.8678 23.4515C19.4901 23.5254 19.0889 23.5596 18.6699 23.5596H18.6581V23.5653Z" stroke="#212428" stroke-width="0.789269"/>
</g>
<defs>
<clipPath id="clip0_516_1035">
<rect width="37.3333" height="24" fill="white"/>
</clipPath>
</defs>
</svg>
