<svg width="68" height="52" viewBox="0 0 68 52" fill="none" xmlns="http://www.w3.org/2000/svg">
<path d="M25.6396 1C37.8772 1.00021 47.7128 9.99158 47.7129 20.9834C47.7129 31.9753 37.8773 40.9666 25.6396 40.9668C22.5874 40.9668 19.6807 40.4063 17.0391 39.3936L16.8701 39.3291L16.6992 39.3877L7.8125 42.417L8.58008 33.8613L8.59863 33.6523L8.46191 33.4922C5.56312 30.0999 3.56543 25.5678 3.56543 20.9834C3.56557 9.99145 13.4019 1 25.6396 1Z" stroke="#212428"/>
<path d="M50.7422 10.8523C53.6265 18.7465 52.1652 27.1168 50.3418 31.2195C45.3468 42.458 34.5218 44.9691 28.4492 44.8582C32.2427 47.6497 37.082 49.3278 42.3604 49.3279C45.4126 49.3279 48.3193 48.7674 50.9609 47.7546L51.1299 47.6892L51.3008 47.7478L60.1875 50.7781L59.4199 42.2224L59.4014 42.0125L59.5381 41.8523C62.4367 38.4601 64.4345 33.9287 64.4346 29.3445C64.4346 21.0189 58.8001 13.8487 50.7422 10.8523Z" stroke="#212428"/>
<circle cx="14.352" cy="21.8198" r="2.92623" fill="#C7E7DC"/>
<circle cx="26.0571" cy="21.8198" r="2.92623" fill="#C7E7DC"/>
<circle cx="37.7622" cy="21.8198" r="2.92623" fill="#C7E7DC"/>
</svg>
