<svg width="69" height="48" viewBox="0 0 69 48" fill="none" xmlns="http://www.w3.org/2000/svg">
<path d="M8.24707 47.2612V20.3474L24.2795 32.2897M8.24707 47.2612H60.2547M8.24707 47.2612C14.5081 41.4144 18.0185 38.1364 24.2795 32.2897M8.24707 47.2612L24.2795 32.2897M60.2547 47.2612V20.3474L43.9794 32.2897M60.2547 47.2612L43.9794 32.2897M24.2795 32.2897L34.0554 39.5715L43.9794 32.2897" stroke="#212428"/>
<path d="M49.6967 28.0368V9.12134C49.6967 7.46448 48.3536 6.12134 46.6967 6.12134H20.6318C18.975 6.12134 17.6318 7.46448 17.6318 9.12134V27.2679" stroke="#212428"/>
<path d="M8.24707 19.9629L17.4692 13.0422M60.6458 19.9629L49.6968 12.1036M26.6914 6.12152L30.9288 2.94159C32.6757 1.63066 35.0713 1.60526 36.8456 2.87887L41.363 6.12152" stroke="#212428"/>
<path fill-rule="evenodd" clip-rule="evenodd" d="M29.8172 17.79C29.8172 17.0246 29.8855 16.2056 30.0221 15.5543C30.3361 14.0102 31.0463 12.4862 32.6235 11.9693C34.31 11.4188 35.9488 12.2781 36.7272 13.688C37.0003 14.1848 37.3007 14.9031 37.3826 15.4805C37.6148 17.132 37.6831 18.8172 37.3485 20.462C37.0822 21.7711 36.6316 22.852 35.4913 23.5905C35.0884 23.8523 34.59 24.0269 34.0847 24.0806C33.7024 24.1209 33.32 24.1209 32.9513 24.047C30.937 23.6509 30.0903 21.3616 29.9333 19.5556C29.8787 18.9514 29.8309 18.3942 29.8309 17.7833L29.8172 17.79ZM27.1475 17.9578C27.1475 19.0118 27.3864 19.8645 27.7142 20.6097C27.7552 20.7037 27.8029 20.7909 27.8507 20.8715C28.0283 21.2206 28.0829 21.3079 28.3014 21.6369C28.4994 21.9323 28.793 22.2881 29.0388 22.5365C29.8991 23.3824 31.0121 24.0068 32.207 24.2552C33.3609 24.4969 34.0847 24.5103 35.2387 24.2283C36.0239 24.0336 36.8569 23.6912 37.5192 23.2481C37.6831 23.1407 37.8401 23.0199 37.9903 22.899C38.0654 22.8386 38.1337 22.7849 38.202 22.711C38.2839 22.6305 38.3454 22.5902 38.4273 22.5163C38.5024 22.4425 38.5434 22.3821 38.6185 22.3082C39.0419 21.892 39.513 21.1132 39.7315 20.5761C39.9568 20.0256 40.1753 19.2535 40.2299 18.6292C40.2504 18.3942 40.2914 18.1324 40.2914 17.8772C40.2914 17.4207 40.189 16.8568 40.0865 16.4741C39.9978 16.1183 39.8066 15.6013 39.6495 15.2791C39.2808 14.5607 38.8848 13.9632 38.2976 13.3791C38.045 13.1307 37.6967 12.8421 37.41 12.6474C36.7135 12.1841 35.9283 11.8417 35.1021 11.6672C33.3678 11.3046 31.9271 11.553 30.4317 12.3587C30.0152 12.5802 29.8172 12.7481 29.4758 13.0233C29.2027 13.2382 29.073 13.3926 28.8545 13.6208L28.6701 13.8357C28.5472 13.9901 28.4311 14.1311 28.3219 14.2989C27.564 15.4201 27.1475 16.5748 27.1475 17.9578Z" fill="#C7E7DC"/>
<path fill-rule="evenodd" clip-rule="evenodd" d="M33.7566 29.2629C33.7566 29.612 33.6951 29.5516 34.0775 29.5516C34.1799 29.5516 34.1321 29.3368 34.1662 29.0548C34.2618 28.2223 34.7057 27.5241 35.3543 27.0139C35.7572 26.6983 36.2146 26.4634 36.7131 26.2821C37.0135 26.1747 37.3003 26.1008 37.628 26.0136C38.5157 25.792 39.3897 25.7584 40.3115 25.7584V23.1133C38.8298 23.1133 37.3481 23.7041 36.2215 24.6104C36.0235 24.7648 35.6752 25.0804 35.5114 25.2683C35.4704 25.3221 35.4636 25.3355 35.4158 25.3825C35.2178 25.5839 34.89 26.0471 34.733 26.2754C34.6237 26.4432 34.535 26.6043 34.4394 26.7789C34.0638 27.4368 33.7702 28.4976 33.7702 29.2629H33.7566Z" fill="#C7E7DC"/>
</svg>
