<svg width="140" height="26" viewBox="0 0 140 26" fill="none" xmlns="http://www.w3.org/2000/svg">
<path d="M50.697 10.0961V25.1349H56.1509V7.17188L50.697 10.0961Z" fill="#8B8C8E"/>
<path d="M56.266 2.52832C56.0572 1.94812 55.6162 1.36793 55.0824 0.996602C53.8292 0.253946 52.0654 0.462812 51.0906 1.48396C50.3712 2.157 50.0231 3.29419 50.2087 4.38496C50.348 5.40611 51.1835 6.2184 51.8797 6.54331C53.0401 7.00747 54.7575 6.91464 55.8019 5.61499C56.4053 4.87233 56.6142 3.57268 56.266 2.52832Z" fill="#8B8C8E"/>
<path d="M23.5018 10.096C23.2233 8.98199 22.2718 8.00726 21.181 7.75197C18.6746 7.12535 16.377 8.10009 15.0773 10.3048L14.9613 10.5137L14.8684 10.2816C14.2186 8.63388 13.1743 7.72877 11.7818 7.58952C9.46098 7.21819 7.67397 8.1233 5.95658 10.4441L5.74771 10.7458V7.33423C5.42279 7.49668 0.479492 10.0264 0.479492 10.0264V25.1348H5.74771V13.8093C5.74771 12.9274 6.62961 12.1383 7.51151 12.1847C8.32379 12.2079 9.15928 12.997 9.15928 13.8093C9.15928 13.8093 9.15928 24.9027 9.15928 25.1116H14.6596C14.6596 24.9027 14.6596 13.8093 14.6596 13.8093C14.6596 12.9041 15.6111 12.1383 16.5162 12.1847C17.3285 12.2311 18.1176 12.997 18.1176 13.8093V25.1116H23.6643V12.0222C23.6643 11.5117 23.6643 10.7226 23.5018 10.096Z" fill="#8B8C8E"/>
<path d="M38.9346 23.022C38.4705 22.9756 38.3312 21.9776 38.3312 21.9776L37.3333 16.0132L37.1012 14.8528C36.8459 13.6228 36.6138 12.3231 36.1265 11.1395C34.5715 7.56548 30.162 6.96208 26.8897 7.93681C26.3559 8.09927 25.8685 8.35455 25.8685 8.35455V10.5825C27.2146 10.0023 28.5142 9.9559 29.5818 10.4665C30.9511 11.1395 31.3456 12.8337 31.4152 13.5299C31.4152 13.5531 31.5313 14.319 31.5313 14.319C29.9299 14.5511 27.9573 14.9456 26.4952 15.99C24.8706 17.1504 24.0119 19.007 24.1976 20.9333C24.2672 22.9988 25.8453 24.6234 27.3771 25.2036C29.4194 25.923 32.2275 25.807 33.8985 23.8807L34.1074 23.6486L34.5715 24.1128C35.7783 25.3892 37.1244 25.3428 38.6561 25.2964L39.4684 25.2732V23.0916C39.4916 23.0916 38.9578 23.022 38.9346 23.022ZM31.9258 16.9415L32.9238 21.7688C30.3709 24.7394 26.1238 19.5408 31.9258 16.9415Z" fill="#8B8C8E"/>
<path d="M49.3745 7.19508C46.9609 7.19508 45.6613 9.98005 45.638 10.0265L45.406 10.5602V10.2121V7.17188L40.0449 10.0961V25.1813H45.4292V15.5268L45.4524 15.1554C45.4988 14.3664 45.5452 13.5309 45.9165 12.8346C46.7288 11.2797 48.5855 11.3029 49.8851 11.4886L50.8366 7.42716C50.8366 7.45037 50.2332 7.19508 49.3745 7.19508Z" fill="#8B8C8E"/>
<path d="M126.171 7.45037C126.171 7.45037 125.567 7.19508 124.709 7.19508C122.295 7.19508 120.995 9.98005 120.972 10.0265L120.74 10.5602V10.2121V7.17188L115.379 10.0961V25.1813H120.763V15.5268L120.787 15.1554C120.833 14.3664 120.879 13.5309 121.251 12.8346C122.063 11.2797 123.92 11.3029 125.219 11.4886L126.171 7.45037Z" fill="#8B8C8E"/>
<path d="M114.865 2.34449C114.657 1.76429 114.216 1.18409 113.682 0.812761C112.429 0.0701056 110.665 0.278979 109.69 1.30013C108.971 1.97316 108.622 3.11035 108.808 4.20113C108.947 5.22228 109.783 6.03456 110.479 6.35947C111.639 6.82363 113.357 6.7308 114.401 5.43115C115.005 4.68849 115.19 3.41206 114.865 2.34449Z" fill="#8B8C8E"/>
<path d="M133.596 22.8821C131.461 22.7196 130.463 18.7975 130.463 18.7975L139.723 15.8036C139.723 15.8036 139.537 11.7655 137.309 9.56069C135.267 7.5416 132.157 6.9614 129.302 8.12179C127.608 8.77162 126.03 10.5354 125.311 12.6241C123.895 16.5695 124.73 20.979 127.423 23.6015C129.906 25.9687 133.758 25.9223 136.52 25.0868L137.913 24.4834V21.977C137.913 21.977 136.242 23.0677 133.596 22.8821ZM130.324 16.2446C130.184 14.5504 130.393 12.7402 130.788 11.9047C131.205 11.0692 131.67 10.7211 132.25 10.6515C134.71 10.3498 134.965 14.8521 134.965 14.8521L130.324 16.2446Z" fill="#8B8C8E"/>
<path d="M109.273 10.0961V25.1349H114.727V7.17188L109.273 10.0961Z" fill="#8B8C8E"/>
<path d="M69.4735 9.53823C67.4312 7.51914 64.3213 6.93893 61.4667 8.09933C59.7725 8.74916 58.1944 10.513 57.4749 12.6017C56.0593 16.547 56.8947 20.9566 59.5869 23.5791C62.0701 25.9463 65.9227 25.8999 68.6844 25.0644L70.0769 24.461V21.9545C70.0769 21.9545 68.3827 23.0453 65.7602 22.8364C63.6251 22.674 62.6271 18.7518 62.6271 18.7518L71.8871 15.758C71.8871 15.7812 71.7014 11.743 69.4735 9.53823ZM62.4879 16.2685C62.3486 14.5512 62.5575 12.7409 62.952 11.9054C63.3698 11.07 63.8339 10.7218 64.4141 10.6522C66.8742 10.3505 67.1295 14.8529 67.1295 14.8529L62.4879 16.2685Z" fill="#8B8C8E"/>
<path d="M83.4211 22.2801C81.9822 21.5374 80.7986 20.4467 80.6361 17.3136C80.4505 13.6699 81.1931 11.0938 83.1426 10.3512C84.6279 9.79419 86.647 11.0242 86.647 11.0242L86.6702 8.0768C86.6702 8.0768 83.8852 6.73074 80.7522 7.72868C77.9208 8.6338 76.1106 10.8386 75.4607 14.4358C74.9966 17.0583 75.3679 19.9593 76.6676 22.2337C78.1529 24.6937 81.0075 25.9702 84.2334 25.5524C85.1153 25.4364 86.9487 24.8794 86.9487 24.8794L86.9255 22.1408C86.9255 22.1176 84.9064 23.046 83.4211 22.2801Z" fill="#8B8C8E"/>
<path d="M108.161 22.8366C107.697 22.7902 107.558 21.7922 107.558 21.7922L106.56 15.8278L106.328 14.6674C106.072 13.4373 105.84 12.1377 105.353 10.9541C103.798 7.38006 99.3883 6.77665 96.116 7.75138C95.5822 7.91384 95.0949 8.16913 95.0949 8.16913V10.3971C96.4409 9.8169 97.7406 9.77049 98.8081 10.2811C100.177 10.9541 100.572 12.6483 100.642 13.3445C100.642 13.3677 100.758 14.1336 100.758 14.1336C99.1563 14.3657 97.1836 14.7602 95.7215 15.8046C94.0969 16.965 93.2382 18.8216 93.4239 20.7479C93.4935 22.8134 95.0716 24.4379 96.6034 25.0181C98.6457 25.7376 101.454 25.6215 103.125 23.6953L103.334 23.4632L103.798 23.9274C105.005 25.2038 106.351 25.1574 107.882 25.111L108.695 25.0878V22.9062C108.718 22.9294 108.184 22.8366 108.161 22.8366ZM101.152 16.7793L102.15 21.6066C99.5972 24.5772 95.3501 19.3786 101.152 16.7793Z" fill="#8B8C8E"/>
<path d="M87.4824 25.0873H92.8435V1.76331L87.4824 4.64109V25.0873Z" fill="#8B8C8E"/>
</svg>
