<svg width="40" height="40" viewBox="0 0 40 40" fill="none" xmlns="http://www.w3.org/2000/svg">
<path d="M33.3333 13.3333H6.66667C5.74619 13.3333 5 14.0795 5 15V18.3333C5 19.2538 5.74619 20 6.66667 20H33.3333C34.2538 20 35 19.2538 35 18.3333V15C35 14.0795 34.2538 13.3333 33.3333 13.3333Z" stroke="#212428" stroke-width="2" stroke-linecap="round" stroke-linejoin="round"/>
<path d="M20 13.3333V35" stroke="#212428" stroke-width="2" stroke-linecap="round" stroke-linejoin="round"/>
<path d="M31.6666 20V31.6667C31.6666 32.5507 31.3154 33.3986 30.6903 34.0237C30.0652 34.6488 29.2173 35 28.3333 35H11.6666C10.7825 35 9.93468 34.6488 9.30956 34.0237C8.68444 33.3986 8.33325 32.5507 8.33325 31.6667V20" stroke="#212428" stroke-width="2" stroke-linecap="round" stroke-linejoin="round"/>
<path d="M12.4999 13.3333C11.3949 13.3333 10.335 12.8943 9.55364 12.1129C8.77224 11.3315 8.33325 10.2717 8.33325 9.16666C8.33325 8.06159 8.77224 7.00178 9.55364 6.22038C10.335 5.43898 11.3949 4.99999 12.4999 4.99999C14.1077 4.97198 15.6833 5.75209 17.0211 7.23859C18.359 8.72509 19.397 10.849 19.9999 13.3333C20.6028 10.849 21.6408 8.72509 22.9787 7.23859C24.3165 5.75209 25.8921 4.97198 27.4999 4.99999C28.605 4.99999 29.6648 5.43898 30.4462 6.22038C31.2276 7.00178 31.6666 8.06159 31.6666 9.16666C31.6666 10.2717 31.2276 11.3315 30.4462 12.1129C29.6648 12.8943 28.605 13.3333 27.4999 13.3333" stroke="#212428" stroke-width="2" stroke-linecap="round" stroke-linejoin="round"/>
</svg>
