<svg width="40" height="40" viewBox="0 0 40 40" fill="none" xmlns="http://www.w3.org/2000/svg">
<path d="M5 18.3333H10C10.8841 18.3333 11.7319 18.6845 12.357 19.3096C12.9821 19.9348 13.3333 20.7826 13.3333 21.6667V26.6667C13.3333 27.5507 12.9821 28.3986 12.357 29.0237C11.7319 29.6488 10.8841 30 10 30H8.33333C7.44928 30 6.60143 29.6488 5.97631 29.0237C5.35119 28.3986 5 27.5507 5 26.6667V18.3333ZM5 18.3333C5 16.3635 5.38799 14.413 6.14181 12.5931C6.89563 10.7732 8.00052 9.11961 9.3934 7.72673C10.7863 6.33385 12.4399 5.22896 14.2597 4.47514C16.0796 3.72132 18.0302 3.33334 20 3.33334C21.9698 3.33334 23.9204 3.72132 25.7403 4.47514C27.5601 5.22896 29.2137 6.33385 30.6066 7.72673C31.9995 9.11961 33.1044 10.7732 33.8582 12.5931C34.612 14.413 35 16.3635 35 18.3333M35 18.3333V26.6667C35 27.5507 34.6488 28.3986 34.0237 29.0237C33.3986 29.6488 32.5507 30 31.6667 30H30C29.1159 30 28.2681 29.6488 27.643 29.0237C27.0179 28.3986 26.6667 27.5507 26.6667 26.6667V21.6667C26.6667 20.7826 27.0179 19.9348 27.643 19.3096C28.2681 18.6845 29.1159 18.3333 30 18.3333H35Z" stroke="#212428" stroke-width="2" stroke-linecap="round" stroke-linejoin="round"/>
<path d="M35 26.6667V30C35 31.7681 34.2976 33.4638 33.0474 34.714C31.7971 35.9643 30.1014 36.6667 28.3333 36.6667H20" stroke="#212428" stroke-width="2" stroke-linecap="round" stroke-linejoin="round"/>
</svg>
