<svg width="46" height="34" viewBox="0 0 46 34" fill="none" xmlns="http://www.w3.org/2000/svg">
<path d="M29.5753 3.58085L10.4537 14.6207C9.89785 14.9416 9.70741 15.6524 10.0283 16.2082L17.0009 28.285C17.3218 28.8408 18.0325 29.0313 18.5883 28.7104L37.71 17.6705C38.2658 17.3496 38.4562 16.6388 38.1353 16.083L31.1628 4.0062C30.8418 3.45038 30.1311 3.25995 29.5753 3.58085Z" fill="white" stroke="#212428" stroke-width="0.699996" stroke-miterlimit="2.61313" stroke-linecap="round" stroke-linejoin="round"/>
<path d="M29.7495 6.81254L25.2207 9.42725L26.9638 12.4465L31.4927 9.83174L29.7495 6.81254Z" stroke="#212428" stroke-width="0.699996" stroke-miterlimit="2.61313" stroke-linecap="round" stroke-linejoin="round"/>
<path d="M34.8044 10.3134L13.6699 22.5154L15.7036 26.0378L36.838 13.8358L34.8044 10.3134Z" stroke="#212428" stroke-width="0.699996" stroke-miterlimit="2.61313" stroke-linecap="round" stroke-linejoin="round"/>
<path d="M29.8591 14.7305H7.77928C7.13747 14.7305 6.61719 15.2508 6.61719 15.8926V29.8377C6.61719 30.4795 7.13747 30.9998 7.77928 30.9998H29.8591C30.5009 30.9998 31.0211 30.4795 31.0211 29.8377V15.8926C31.0211 15.2508 30.5009 14.7305 29.8591 14.7305Z" fill="#C7E5DB" stroke="#212428" stroke-width="0.699996" stroke-miterlimit="2.61313" stroke-linecap="round" stroke-linejoin="round"/>
<path d="M28.1142 17.6356H22.8848V21.1219H28.1142V17.6356Z" fill="white" stroke="#212428" stroke-width="0.699996" stroke-miterlimit="2.61313" stroke-linecap="round" stroke-linejoin="round"/>
<path d="M31.0192 23.4462H6.61523V27.5135H31.0192V23.4462Z" fill="#C7E5DB" stroke="#212428" stroke-width="0.699996" stroke-miterlimit="2.61313" stroke-linecap="round" stroke-linejoin="round"/>
</svg>
