<svg width="46" height="34" viewBox="0 0 46 34" fill="none" xmlns="http://www.w3.org/2000/svg">
<path d="M30.0678 1.07004L9.58025 12.8986C8.98472 13.2424 8.78068 14.0039 9.12451 14.5994L16.5952 27.5389C16.939 28.1345 17.7005 28.3385 18.296 27.9947L38.7836 16.1662C39.3791 15.8223 39.5832 15.0608 39.2393 14.4653L31.7687 1.52578C31.4249 0.930256 30.6634 0.726214 30.0678 1.07004Z" fill="white" stroke="#212428" stroke-width="0.75" stroke-miterlimit="2.61313" stroke-linecap="round" stroke-linejoin="round"/>
<path d="M30.2547 4.53261L25.4023 7.33411L27.27 10.569L32.1223 7.7675L30.2547 4.53261Z" stroke="#212428" stroke-width="0.75" stroke-miterlimit="2.61313" stroke-linecap="round" stroke-linejoin="round"/>
<path d="M35.6715 8.28367L13.0273 21.3573L15.2063 25.1313L37.8505 12.0577L35.6715 8.28367Z" stroke="#212428" stroke-width="0.75" stroke-miterlimit="2.61313" stroke-linecap="round" stroke-linejoin="round"/>
<path d="M30.3709 13.0164H6.71386C6.0262 13.0164 5.46875 13.5738 5.46875 14.2615V29.2028C5.46875 29.8904 6.0262 30.4479 6.71386 30.4479H30.3709C31.0586 30.4479 31.616 29.8904 31.616 29.2028V14.2615C31.616 13.5738 31.0586 13.0164 30.3709 13.0164Z" fill="white" stroke="#212428" stroke-width="0.75" stroke-miterlimit="2.61313" stroke-linecap="round" stroke-linejoin="round"/>
<path d="M28.5053 16.1289H22.9023V19.8642H28.5053V16.1289Z" stroke="#212428" stroke-width="0.75" stroke-miterlimit="2.61313" stroke-linecap="round" stroke-linejoin="round"/>
<path d="M31.616 22.3546H5.46875V26.7125H31.616V22.3546Z" stroke="#212428" stroke-width="0.75" stroke-miterlimit="2.61313" stroke-linecap="round" stroke-linejoin="round"/>
</svg>
