<svg width="36" height="31" viewBox="0 0 36 31" fill="none" xmlns="http://www.w3.org/2000/svg">
<path d="M25.6009 0.622366L5.11344 12.4508C4.51792 12.7946 4.31388 13.5561 4.65771 14.1517L12.1283 27.0911C12.4721 27.6866 13.2336 27.8907 13.8291 27.5468L34.3166 15.7184C34.9121 15.3746 35.1162 14.6131 34.7723 14.0175L27.3017 1.0781C26.9579 0.482581 26.1964 0.278541 25.6009 0.622366Z" fill="white" stroke="#212428" stroke-width="0.699996" stroke-miterlimit="2.61313" stroke-linecap="round" stroke-linejoin="round"/>
<path d="M25.7859 4.08488L20.9336 6.88635L22.8012 10.1212L27.6535 7.31974L25.7859 4.08488Z" stroke="#212428" stroke-width="0.699996" stroke-miterlimit="2.61313" stroke-linecap="round" stroke-linejoin="round"/>
<path d="M31.2026 7.83575L8.55859 20.9093L10.7375 24.6833L33.3816 11.6098L31.2026 7.83575Z" stroke="#212428" stroke-width="0.699996" stroke-miterlimit="2.61313" stroke-linecap="round" stroke-linejoin="round"/>
<path d="M25.904 12.5684H2.24705C1.5594 12.5684 1.00195 13.1258 1.00195 13.8135V28.7547C1.00195 29.4423 1.5594 29.9998 2.24705 29.9998H25.904C26.5916 29.9998 27.1491 29.4423 27.1491 28.7547V13.8135C27.1491 13.1258 26.5916 12.5684 25.904 12.5684Z" fill="#C7E5DB" stroke="#212428" stroke-width="0.699996" stroke-miterlimit="2.61313" stroke-linecap="round" stroke-linejoin="round"/>
<path d="M24.0346 15.681H18.4316V19.4163H24.0346V15.681Z" fill="white" stroke="#212428" stroke-width="0.699996" stroke-miterlimit="2.61313" stroke-linecap="round" stroke-linejoin="round"/>
<path d="M27.1471 21.9066H1V26.2645H27.1471V21.9066Z" fill="#C7E5DB" stroke="#212428" stroke-width="0.699996" stroke-miterlimit="2.61313" stroke-linecap="round" stroke-linejoin="round"/>
</svg>
