<svg width="35" height="31" viewBox="0 0 35 31" fill="none" xmlns="http://www.w3.org/2000/svg">
<path d="M25.0678 1.07004L4.58025 12.8986C3.98472 13.2424 3.78068 14.0039 4.12451 14.5994L11.5952 27.5389C11.939 28.1345 12.7005 28.3385 13.296 27.9947L33.7836 16.1662C34.3791 15.8223 34.5832 15.0608 34.2393 14.4653L26.7687 1.52578C26.4249 0.930256 25.6634 0.726214 25.0678 1.07004Z" fill="white" stroke="#212428" stroke-width="0.75" stroke-miterlimit="2.61313" stroke-linecap="round" stroke-linejoin="round"/>
<path d="M25.2547 4.53261L20.4023 7.33411L22.27 10.569L27.1223 7.7675L25.2547 4.53261Z" stroke="#212428" stroke-width="0.75" stroke-miterlimit="2.61313" stroke-linecap="round" stroke-linejoin="round"/>
<path d="M30.6715 8.28367L8.02734 21.3573L10.2063 25.1313L32.8505 12.0577L30.6715 8.28367Z" stroke="#212428" stroke-width="0.75" stroke-miterlimit="2.61313" stroke-linecap="round" stroke-linejoin="round"/>
<path d="M25.3709 13.0164H1.71386C1.0262 13.0164 0.46875 13.5738 0.46875 14.2615V29.2028C0.46875 29.8904 1.0262 30.4479 1.71386 30.4479H25.3709C26.0586 30.4479 26.616 29.8904 26.616 29.2028V14.2615C26.616 13.5738 26.0586 13.0164 25.3709 13.0164Z" fill="white" stroke="#212428" stroke-width="0.75" stroke-miterlimit="2.61313" stroke-linecap="round" stroke-linejoin="round"/>
<path d="M23.5053 16.1289H17.9023V19.8642H23.5053V16.1289Z" stroke="#212428" stroke-width="0.75" stroke-miterlimit="2.61313" stroke-linecap="round" stroke-linejoin="round"/>
<path d="M26.616 22.3546H0.46875V26.7125H26.616V22.3546Z" stroke="#212428" stroke-width="0.75" stroke-miterlimit="2.61313" stroke-linecap="round" stroke-linejoin="round"/>
</svg>
