<svg width="20" height="15" viewBox="0 0 20 15" fill="none" xmlns="http://www.w3.org/2000/svg">
<g clip-path="url(#clip0_4637_28074)">
<path d="M0.929692 7.80451C0.856769 7.60806 0.856769 7.39196 0.929692 7.19551C1.63993 5.47338 2.84552 4.00092 4.39362 2.9648C5.94171 1.92867 7.76261 1.37555 9.62544 1.37555C11.4883 1.37555 13.3092 1.92867 14.8573 2.9648C16.4054 4.00092 17.611 5.47338 18.3212 7.19551C18.3941 7.39196 18.3941 7.60806 18.3212 7.80451C17.611 9.52664 16.4054 10.9991 14.8573 12.0352C13.3092 13.0713 11.4883 13.6245 9.62544 13.6245C7.76261 13.6245 5.94171 13.0713 4.39362 12.0352C2.84552 10.9991 1.63993 9.52664 0.929692 7.80451Z" stroke="#212428" stroke-width="1.75" stroke-linecap="round" stroke-linejoin="round"/>
<path d="M9.625 10.125C11.0747 10.125 12.25 8.94975 12.25 7.5C12.25 6.05025 11.0747 4.875 9.625 4.875C8.17525 4.875 7 6.05025 7 7.5C7 8.94975 8.17525 10.125 9.625 10.125Z" stroke="#212428" stroke-width="1.75" stroke-linecap="round" stroke-linejoin="round"/>
</g>
<defs>
<clipPath id="clip0_4637_28074">
<rect width="19.25" height="14" fill="white" transform="translate(0 0.5)"/>
</clipPath>
</defs>
</svg>
