<svg width="14" height="30" viewBox="0 0 14 30" fill="none" xmlns="http://www.w3.org/2000/svg">
<g clip-path="url(#clip0_1033_9721)">
<path fill-rule="evenodd" clip-rule="evenodd" d="M9.59104 28.1705C6.40947 28.5219 1.20838 28.2642 0.978782 27.402L0.978783 12.6515C0.978783 12.6515 0.931925 11.869 2.07991 11.5598L3.02642 11.4801L6.49381 11.4801L9.96121 11.4801L10.9077 11.5598C12.0604 11.869 12.0088 12.6515 12.0088 12.6515L12.0088 27.7403" fill="#C7E5DB"/>
<path d="M9.59104 28.1705C6.40947 28.5219 1.20838 28.2642 0.978782 27.402L0.978783 12.6515C0.978783 12.6515 0.931925 11.869 2.07991 11.5598L3.02642 11.4801L6.49381 11.4801L9.96121 11.4801L10.9077 11.5598C12.0604 11.869 12.0088 12.6515 12.0088 12.6515L12.0088 27.7403L9.59104 28.1705Z" stroke="#212428" stroke-width="0.566453" stroke-miterlimit="2.61313"/>
<path fill-rule="evenodd" clip-rule="evenodd" d="M1.00098 7.99843L1.00098 11.4705L6.49258 11.4705L11.9842 11.4705L11.9842 7.99843C11.3844 7.80164 6.49258 7.80164 6.49258 7.80164C6.49258 7.80164 1.60074 7.80164 1.00098 7.99843Z" fill="#C7E7DC" stroke="#212428" stroke-width="0.566453" stroke-miterlimit="2.61313"/>
<path fill-rule="evenodd" clip-rule="evenodd" d="M1.86726 7.89969C1.86726 7.09375 1.81572 5.91765 1.92817 4.7884C2.07343 3.31241 2.49045 1.92077 3.64313 1.53186L6.47327 1.53186L9.30342 1.53186C11.3464 2.22065 11.0793 6.04416 11.0793 7.89969C9.49084 7.80597 6.49201 7.80597 6.49201 7.80597L6.47327 7.80597C6.22962 7.80597 3.37604 7.81066 1.86726 7.89969Z" fill="#C7E7DC" stroke="#212428" stroke-width="0.566453" stroke-miterlimit="2.61313"/>
<path d="M1.8623 6.15673C4.47222 5.80062 8.45973 5.80062 11.065 6.15673" stroke="#212428" stroke-width="0.566453" stroke-miterlimit="2.61313"/>
<path d="M3.26367 0.6698L3.26367 5.92712" stroke="#212428" stroke-width="0.566453" stroke-miterlimit="2.61313" stroke-linecap="round" stroke-linejoin="round"/>
<path d="M4.54785 0.6698L4.54785 5.92712" stroke="#212428" stroke-width="0.566453" stroke-miterlimit="2.61313" stroke-linecap="round" stroke-linejoin="round"/>
<path d="M5.83691 0.6698L5.84095 5.7201" stroke="#212428" stroke-width="0.566453" stroke-miterlimit="2.61313" stroke-linecap="round" stroke-linejoin="round"/>
<path d="M7.125 0.6698L7.11167 5.8897" stroke="#212428" stroke-width="0.566453" stroke-miterlimit="2.61313" stroke-linecap="round" stroke-linejoin="round"/>
<path d="M8.41406 0.6698L8.41406 5.92712" stroke="#212428" stroke-width="0.566453" stroke-miterlimit="2.61313" stroke-linecap="round" stroke-linejoin="round"/>
<path d="M9.69727 0.6698L9.69727 5.92712" stroke="#212428" stroke-width="0.566453" stroke-miterlimit="2.61313" stroke-linecap="round" stroke-linejoin="round"/>
<path d="M7.99685 17.7402L7.99685 17.342L8.34359 17.342L8.34828 17.3373C8.30142 17.3139 8.25457 17.2857 8.20771 17.2529C8.16085 17.2201 8.11868 17.1827 8.0812 17.1405C8.04371 17.0983 8.01091 17.0468 7.98748 16.9905C7.96406 16.9343 7.95 16.8734 7.95 16.8031C7.95 16.6625 8.00154 16.5548 8.09994 16.4798C8.19834 16.4048 8.32954 16.372 8.49354 16.372L9.58061 16.372L9.58061 16.7891L8.51696 16.7891C8.42325 16.7891 8.34828 16.8125 8.29674 16.8547C8.2452 16.8968 8.21708 16.9624 8.21708 17.0421C8.21708 17.1124 8.23582 17.1686 8.27331 17.2155C8.31079 17.2623 8.35297 17.2998 8.40919 17.3279L9.58061 17.3279L9.58061 17.7449L8.00154 17.7449L7.99685 17.7402ZM9.59935 20.5751L9.59935 20.5095L9.62278 20.5095L9.62278 20.6735L9.59935 20.6735L9.59935 20.6079L9.42598 20.6079L9.42598 20.5798L9.59935 20.5798L9.59935 20.5751ZM9.42598 20.8843L9.57124 20.8843L9.4541 20.814L9.4541 20.8L9.57124 20.7297L9.43067 20.7297L9.43067 20.7016L9.62747 20.7016L9.62747 20.725L9.4869 20.8094L9.62747 20.889L9.62747 20.9124L9.43067 20.9124L9.43067 20.8843L9.42598 20.8843ZM9.58998 18.832C9.56187 18.7805 9.52907 18.7289 9.49158 18.6868C9.4541 18.6399 9.41193 18.5977 9.36507 18.5602C9.3229 18.5228 9.28541 18.49 9.25261 18.4618L9.57593 18.4618L9.57593 18.0448L8.67159 18.0448L7.99685 18.0448L7.99685 18.4665L9.18233 18.4665C9.21982 18.4993 9.24793 18.5274 9.27136 18.5602C9.2901 18.593 9.30416 18.6212 9.30416 18.6493C9.30416 18.668 9.29947 18.6914 9.29478 18.7196C9.28541 18.7477 9.27604 18.7758 9.26667 18.8086C9.25262 18.8367 9.23856 18.8648 9.2245 18.8929C9.20576 18.921 9.18701 18.9445 9.16827 18.9585L9.16827 18.9913L9.63684 18.9913C9.63684 18.9304 9.62747 18.8882 9.59935 18.8367L9.58998 18.832ZM7.68292 16.1565C7.68292 15.9878 7.66886 15.8285 7.64074 15.6879C7.61263 15.5427 7.57046 15.4208 7.50955 15.3178C7.44863 15.2147 7.37366 15.1303 7.27995 15.0694C7.18623 15.0085 7.07846 14.9804 6.94727 14.9804L6.94727 14.9101C6.96601 14.9101 6.97538 14.9101 6.97538 14.9101C7.13001 14.9148 7.27995 14.9476 7.42052 15.0038C7.57046 15.0694 7.70634 15.1584 7.8188 15.2709C7.93594 15.3834 8.02497 15.5146 8.09525 15.6645C8.16554 15.8144 8.19834 15.9784 8.19834 16.1565L7.67823 16.1565L7.68292 16.1565ZM8.0156 14.9007C8.0156 15.0319 8.04371 15.1397 8.10463 15.2334C8.16554 15.3271 8.2452 15.4021 8.35297 15.463C8.45605 15.5239 8.58256 15.5661 8.72782 15.5942C8.87308 15.6223 9.0277 15.6364 9.20107 15.6364C9.36976 15.6364 9.52907 15.6223 9.67432 15.5942C9.81958 15.5661 9.94141 15.5239 10.0492 15.463C10.1523 15.4021 10.2366 15.3271 10.2975 15.2334C10.3584 15.1397 10.3865 15.0319 10.3865 14.9007C10.3865 14.7695 10.3584 14.6618 10.2975 14.568C10.2366 14.4743 10.1523 14.3994 10.0492 14.3385C9.94141 14.2775 9.81958 14.2354 9.67432 14.2073C9.52907 14.1791 9.37444 14.1651 9.20576 14.1651C9.03707 14.1651 8.88245 14.1791 8.73719 14.2073C8.59194 14.2354 8.47011 14.2775 8.36234 14.3385C8.25925 14.3994 8.17491 14.4743 8.114 14.568C8.05308 14.6618 8.02497 14.7695 8.02497 14.9007L8.0156 14.9007ZM7.95 14.807C7.95937 14.6758 7.99217 14.5446 8.04371 14.4275C8.10931 14.2775 8.19834 14.1417 8.3108 14.0292C8.42325 13.9167 8.55445 13.823 8.70439 13.7527C8.85433 13.6825 9.01833 13.6497 9.19639 13.6497C9.36976 13.6497 9.53375 13.6825 9.68838 13.7527C9.83832 13.823 9.97421 13.9121 10.0867 14.0292C10.1991 14.1417 10.2881 14.2775 10.3537 14.4275C10.4193 14.5774 10.4521 14.7367 10.4521 14.9007C10.4521 15.0647 10.4193 15.224 10.3537 15.374C10.2881 15.5239 10.1991 15.6598 10.0867 15.7723C9.97421 15.8894 9.83832 15.9784 9.68838 16.0487C9.53844 16.119 9.37444 16.1518 9.19639 16.1518C9.02302 16.1518 8.85902 16.119 8.70439 16.0487C8.55445 15.9784 8.41857 15.8894 8.3108 15.7723C8.19834 15.6551 8.10931 15.5239 8.04371 15.374C7.9828 15.2334 7.95468 15.0835 7.95 14.9288C7.95 14.9288 7.95 14.8492 7.95468 14.8023L7.95 14.807ZM9.01833 19.4411C9.0933 19.4458 9.16359 19.4552 9.22919 19.4739C9.29479 19.488 9.35101 19.5114 9.40256 19.5395C9.4541 19.5677 9.49158 19.6005 9.5197 19.6426C9.54781 19.6848 9.56187 19.7317 9.56187 19.7832C9.56187 19.8675 9.52438 19.9331 9.4541 19.98C9.38381 20.0269 9.21513 20.0456 9.05582 20.0456L8.95273 20.0456L8.68096 19.4739C8.76062 19.4505 8.84496 19.4411 8.95273 19.4411L9.01833 19.4411ZM8.45605 20.4392C8.40451 20.397 8.35765 20.3361 8.32017 20.2658C8.28268 20.1909 8.26394 20.1018 8.26394 19.9987C8.26394 19.9191 8.278 19.8441 8.30142 19.7738C8.32485 19.7035 8.36702 19.6473 8.42325 19.5958C8.47479 19.5489 8.54039 19.5161 8.62005 19.488L9.05582 20.4439C9.05582 20.4439 9.21513 20.4392 9.41193 20.2939C9.48221 20.2424 9.52438 20.1627 9.56655 20.0831C9.60873 19.9987 9.62747 19.905 9.62747 19.8019C9.62747 19.7035 9.60873 19.6051 9.56655 19.5114C9.52438 19.4177 9.46816 19.3334 9.3885 19.2631C9.31353 19.1928 9.21982 19.1319 9.11673 19.0897C9.00896 19.0475 8.89182 19.0241 8.76062 19.0241C8.64816 19.0241 8.54039 19.0429 8.44199 19.0803C8.34359 19.1178 8.25925 19.1694 8.18428 19.235C8.10931 19.3006 8.05308 19.3802 8.01091 19.4739C7.96874 19.5677 7.95 19.6707 7.95 19.7879C7.95 19.9659 7.99685 20.1159 8.09057 20.2283C8.18428 20.3408 8.30611 20.4205 8.45136 20.4673L8.46074 20.4486L8.45605 20.4392Z" fill="#212428"/>
<path fill-rule="evenodd" clip-rule="evenodd" d="M5.53065 16.1382L5.53534 16.1382C5.55876 16.1569 5.58219 16.171 5.60093 16.1851C5.61968 16.1944 5.63842 16.2038 5.65716 16.2132C5.67591 16.2179 5.69933 16.2225 5.71808 16.2272C5.7415 16.2319 5.76493 16.2319 5.79773 16.2319L6.50995 16.2319C6.53338 16.2319 6.55213 16.2272 6.56618 16.2225C6.58492 16.2179 6.59898 16.2132 6.61304 16.2038C6.6271 16.1944 6.64115 16.1851 6.65521 16.171C6.66927 16.1569 6.68332 16.1429 6.69738 16.1241L6.70207 16.1241L6.70207 16.3537L5.73682 16.7895L6.70207 17.2159L6.70207 17.4314L6.69738 17.4314C6.68332 17.408 6.66458 17.394 6.65052 17.3799C6.63647 17.3658 6.61772 17.3565 6.60367 17.3471C6.58492 17.3377 6.56618 17.333 6.54744 17.3284C6.52401 17.3237 6.50058 17.3237 6.47247 17.3237L5.77899 17.3237C5.75088 17.3237 5.72745 17.3237 5.7087 17.3284C5.68996 17.3284 5.67122 17.333 5.65248 17.3377C5.63373 17.3424 5.61968 17.3471 5.60093 17.3565C5.58219 17.3658 5.56345 17.3752 5.54471 17.3893L5.54002 17.3893L5.54002 17.1316L5.54471 17.1316C5.56345 17.1456 5.58219 17.155 5.60093 17.1644C5.61968 17.1737 5.63373 17.1784 5.65248 17.1831C5.67122 17.1878 5.68996 17.1925 5.7087 17.1925C5.72745 17.1925 5.75556 17.1972 5.77899 17.1972L6.57555 17.1972L5.56813 16.752L5.56813 16.7239L6.58024 16.2647L5.79773 16.2694C5.76962 16.2694 5.7415 16.2694 5.71808 16.2741C5.69465 16.2788 5.67591 16.2835 5.65716 16.2928C5.63842 16.3022 5.61968 16.3116 5.60093 16.3256C5.58219 16.3397 5.55876 16.3584 5.53534 16.3819L5.53065 16.3819L5.53065 16.1382ZM6.58024 17.7032C6.55681 17.7032 6.53807 17.6938 6.52401 17.6798C6.50995 17.6657 6.50058 17.647 6.50058 17.6236C6.50058 17.6001 6.50995 17.5861 6.52401 17.5673C6.53807 17.5533 6.55681 17.5439 6.58024 17.5439C6.60367 17.5439 6.61773 17.5533 6.63647 17.5673C6.65052 17.5814 6.6599 17.6001 6.6599 17.6236C6.6599 17.647 6.65052 17.661 6.63647 17.6798C6.62241 17.6938 6.60367 17.7032 6.58024 17.7032ZM5.53534 17.5392C5.56813 17.5533 5.60562 17.5626 5.64311 17.5673C5.68059 17.572 5.72276 17.5767 5.77899 17.5767L6.07419 17.5767C6.11167 17.5767 6.14447 17.5673 6.17259 17.5533C6.19601 17.5392 6.21944 17.5205 6.2335 17.5064L6.23819 17.5064L6.32253 17.6938L5.77899 17.6938C5.72276 17.6938 5.67591 17.6938 5.64311 17.6985C5.60562 17.7032 5.57282 17.7126 5.53534 17.7266L5.53065 17.7266L5.53065 17.5392L5.53534 17.5392ZM5.7087 18.4951C5.64779 18.4717 5.60093 18.4389 5.56345 18.3873C5.52596 18.3358 5.50722 18.2749 5.50722 18.1952C5.50722 18.1437 5.51659 18.0968 5.53534 18.0546C5.55408 18.0125 5.57751 17.975 5.61031 17.9422C5.64311 17.9094 5.68528 17.886 5.73213 17.8719C5.77899 17.8532 5.83522 17.8485 5.89145 17.8485C5.95705 17.8485 6.01327 17.8578 6.06482 17.8813C6.11636 17.9047 6.15853 17.9328 6.19601 17.9703C6.2335 18.0078 6.26161 18.05 6.28036 18.0968C6.2991 18.1437 6.30847 18.1952 6.30847 18.2468C6.30847 18.2983 6.30378 18.3452 6.28973 18.378C6.28036 18.4108 6.2663 18.4389 6.26161 18.4576L6.09762 18.4717L6.09293 18.4576C6.11636 18.4436 6.13979 18.4248 6.16321 18.4108C6.18664 18.392 6.20539 18.3733 6.21944 18.3545C6.2335 18.3358 6.24756 18.3124 6.25693 18.2889C6.2663 18.2655 6.27099 18.2421 6.27099 18.2186C6.27099 18.139 6.24287 18.0781 6.18196 18.0312C6.12104 17.9844 6.04139 17.9609 5.93362 17.9609C5.83053 17.9609 5.75088 17.9844 5.68996 18.0312C5.62905 18.0781 5.60093 18.1484 5.60093 18.2374C5.60093 18.2842 5.61031 18.3264 5.62436 18.3686C5.63842 18.4108 5.66653 18.4482 5.70402 18.4764L5.69933 18.4857L5.7087 18.4951ZM5.53534 18.6403C5.55408 18.6497 5.56813 18.6544 5.58688 18.6591C5.60562 18.6638 5.61968 18.6685 5.64311 18.6685C5.66185 18.6685 5.68059 18.6731 5.70402 18.6731C5.72745 18.6731 5.75088 18.6731 5.77899 18.6731L6.07887 18.6731C6.12104 18.6731 6.15384 18.6638 6.17727 18.6497C6.2007 18.6357 6.22413 18.6169 6.23819 18.6029L6.24287 18.6029L6.32721 18.7809L6.1351 18.7809L6.1351 18.7903C6.15384 18.809 6.17259 18.8231 6.19601 18.8418C6.21944 18.8606 6.23819 18.8793 6.25693 18.9027C6.27567 18.9215 6.28973 18.9449 6.30378 18.9683C6.31784 18.9918 6.32253 19.0152 6.32253 19.0433L6.16321 19.0433L6.16321 19.0386C6.1679 19.0339 6.17259 19.0246 6.17727 19.0152C6.18196 19.0058 6.18664 18.9918 6.18664 18.9824C6.19133 18.9683 6.19133 18.959 6.19601 18.9449C6.19601 18.9355 6.2007 18.9215 6.2007 18.9121C6.2007 18.8981 6.19133 18.8793 6.17259 18.8559C6.15384 18.8325 6.13041 18.809 6.1023 18.7903L5.78836 18.7903C5.73213 18.7903 5.68528 18.7903 5.65248 18.795C5.61499 18.7997 5.58219 18.809 5.54471 18.8231L5.54002 18.8231L5.54002 18.6357L5.54471 18.6357L5.53534 18.6403ZM5.50722 19.5166C5.50722 19.4603 5.51659 19.4088 5.54002 19.3619C5.56345 19.3151 5.59156 19.2729 5.62905 19.2354C5.66653 19.1979 5.7087 19.1698 5.75556 19.1511C5.80242 19.1277 5.85396 19.1183 5.91019 19.1183C5.96642 19.1183 6.01796 19.1277 6.06482 19.1511C6.11167 19.1745 6.15853 19.2026 6.19133 19.2401C6.22881 19.2776 6.25693 19.3198 6.28036 19.3666C6.30379 19.4135 6.31316 19.465 6.31316 19.5213C6.31316 19.5775 6.30379 19.629 6.28036 19.6759C6.25693 19.7227 6.22881 19.7649 6.19133 19.8024C6.15384 19.8399 6.11167 19.868 6.06482 19.8867C6.01796 19.9102 5.96173 19.9195 5.91019 19.9195C5.85396 19.9195 5.80242 19.9102 5.75556 19.8867C5.7087 19.8633 5.66653 19.8352 5.62905 19.8024C5.59156 19.7649 5.56345 19.7227 5.54002 19.6759C5.51659 19.629 5.50722 19.5775 5.50722 19.5213L5.50722 19.5166ZM5.53534 19.5166C5.53534 19.5634 5.54471 19.6009 5.56345 19.6337C5.58219 19.6665 5.61031 19.6946 5.64311 19.7181C5.6759 19.7415 5.71808 19.7555 5.76025 19.7696C5.8071 19.779 5.85396 19.7837 5.90082 19.7837C5.95236 19.7837 5.99922 19.779 6.04139 19.7649C6.08824 19.7555 6.12573 19.7368 6.15853 19.7134C6.19133 19.6899 6.21944 19.6618 6.24287 19.629C6.26161 19.5962 6.27099 19.5587 6.27099 19.5119C6.27099 19.465 6.26161 19.4275 6.24287 19.3947C6.22413 19.3619 6.19601 19.3338 6.15853 19.3104C6.12573 19.287 6.08356 19.2729 6.04139 19.2589C5.99453 19.2495 5.94767 19.2401 5.90082 19.2401C5.84927 19.2401 5.80242 19.2448 5.76025 19.2542C5.71339 19.2635 5.6759 19.2823 5.64311 19.3057C5.61031 19.3291 5.58219 19.3573 5.56345 19.3901C5.54471 19.4229 5.53534 19.4603 5.53534 19.5072L5.53534 19.5166ZM5.53065 20.2991C5.54939 20.3131 5.56813 20.3225 5.58688 20.3319C5.60562 20.3412 5.61968 20.3459 5.63842 20.3506C5.65716 20.3553 5.67591 20.36 5.69465 20.36C5.71339 20.36 5.73682 20.3647 5.76493 20.3647L6.45373 20.3647C6.48184 20.3647 6.50527 20.3647 6.52401 20.36C6.54275 20.36 6.5615 20.3553 6.58024 20.3506C6.59898 20.3459 6.61304 20.3412 6.63178 20.3319C6.65052 20.3225 6.66927 20.3131 6.68801 20.2991L6.6927 20.2991L6.6927 20.5568L6.68801 20.5568C6.66927 20.5427 6.65052 20.5334 6.63178 20.524C6.61304 20.5146 6.59898 20.5099 6.58024 20.5052C6.5615 20.5006 6.54275 20.4959 6.52401 20.4959C6.50527 20.4959 6.48184 20.4912 6.45373 20.4912L5.76493 20.4912C5.73682 20.4912 5.71339 20.4912 5.69465 20.4959C5.67591 20.4959 5.65716 20.5006 5.63842 20.5052C5.61968 20.5099 5.60562 20.5146 5.58688 20.524C5.56813 20.5334 5.54939 20.5427 5.53065 20.5568L5.52596 20.5568L5.52596 20.2991L5.53065 20.2991ZM5.52596 20.8895L5.52596 20.702L5.53065 20.702C5.54939 20.7114 5.56345 20.7161 5.58219 20.7208C5.60093 20.7255 5.61499 20.7302 5.63842 20.7302C5.65716 20.7302 5.67591 20.7348 5.69933 20.7348C5.72276 20.7348 5.74619 20.7348 5.7743 20.7348L6.07419 20.7348C6.11636 20.7348 6.14916 20.7255 6.17259 20.7114C6.19601 20.6974 6.21944 20.6786 6.2335 20.6646L6.23819 20.6646L6.32253 20.8426L6.17259 20.8426L6.17259 20.8473C6.21944 20.8848 6.25224 20.927 6.27567 20.9738C6.2991 21.0207 6.31316 21.0675 6.31316 21.1238C6.31316 21.1987 6.29441 21.255 6.25224 21.2924C6.21007 21.3299 6.15384 21.3487 6.08356 21.3487L5.77899 21.3487C5.75088 21.3487 5.72276 21.3487 5.70402 21.3487C5.68059 21.3487 5.66185 21.3487 5.64311 21.3534C5.62436 21.3534 5.60562 21.358 5.58688 21.3627C5.56813 21.3674 5.55408 21.3721 5.53534 21.3815L5.53065 21.3815L5.53065 21.194L5.53534 21.194C5.56813 21.2081 5.60562 21.2175 5.64311 21.2222C5.68059 21.2268 5.72276 21.2268 5.77899 21.2268L6.05544 21.2268C6.07887 21.2268 6.1023 21.2222 6.12573 21.2175C6.14916 21.2128 6.1679 21.2034 6.18196 21.1894C6.2007 21.1753 6.21007 21.1612 6.21944 21.1378C6.22881 21.1144 6.2335 21.091 6.2335 21.0628C6.2335 21.0254 6.22413 20.9879 6.21007 20.9504C6.19601 20.9129 6.17259 20.8754 6.13979 20.8473L5.7743 20.8473C5.71808 20.8473 5.67122 20.8473 5.63842 20.852C5.60093 20.8567 5.56813 20.866 5.53065 20.8801L5.52596 20.8801L5.52596 20.8895ZM5.53065 21.5595C5.55408 21.5736 5.57751 21.583 5.61031 21.5876C5.64311 21.5923 5.68996 21.597 5.75088 21.597L6.25693 21.597L6.25693 21.4986L6.28504 21.4986L6.28504 21.597L6.42093 21.597C6.47715 21.597 6.52401 21.6017 6.56618 21.6158C6.60835 21.6298 6.64584 21.6486 6.67395 21.672C6.70207 21.6954 6.7255 21.7235 6.74424 21.7563C6.75829 21.7891 6.76767 21.8266 6.76767 21.8641C6.76767 21.8875 6.76298 21.9109 6.75829 21.9297C6.75361 21.9484 6.74892 21.9625 6.74424 21.9719L6.59898 21.9906L6.5943 21.9812C6.61304 21.9719 6.6271 21.9578 6.64584 21.9437C6.66458 21.9297 6.67864 21.9203 6.6927 21.9063C6.70675 21.8922 6.71612 21.8781 6.72549 21.8688C6.73487 21.8547 6.73955 21.8407 6.73955 21.8266C6.73955 21.7938 6.72081 21.7657 6.67864 21.7423C6.63647 21.7188 6.57555 21.7095 6.49121 21.7095L6.28504 21.7095L6.28504 21.8969L6.25693 21.8969L6.25693 21.7095L5.75088 21.7095C5.68996 21.7095 5.64311 21.7141 5.61031 21.7188C5.57751 21.7235 5.55408 21.7329 5.53065 21.7469L5.52596 21.7469L5.52596 21.5548L5.53065 21.5548L5.53065 21.5595ZM5.67122 22.492C5.64779 22.4779 5.62905 22.4592 5.61031 22.4451C5.59156 22.4264 5.57282 22.4076 5.55408 22.3889C5.54002 22.3701 5.52596 22.3467 5.51659 22.3186C5.50722 22.2905 5.50254 22.2624 5.50254 22.2296C5.50254 22.1593 5.52596 22.1077 5.56813 22.0749C5.61031 22.0421 5.67122 22.0234 5.74619 22.0234L6.14447 22.0234C6.17727 22.0234 6.20539 22.0187 6.22413 22.0047C6.24756 21.9906 6.26161 21.9765 6.27567 21.9578L6.28036 21.9578L6.28036 22.1405L5.76962 22.1405C5.65248 22.1405 5.59156 22.1921 5.59156 22.2952C5.59156 22.342 5.60093 22.3795 5.61968 22.4123C5.63842 22.4451 5.66185 22.4685 5.68996 22.4873L6.13979 22.4873C6.2007 22.4873 6.24287 22.4639 6.27567 22.417L6.28036 22.417L6.28036 22.6044L5.7415 22.6044C5.70871 22.6044 5.68059 22.6044 5.66185 22.6091C5.64311 22.6138 5.62436 22.6138 5.61031 22.6232C5.59625 22.6279 5.58688 22.6372 5.57751 22.6466C5.56813 22.656 5.56345 22.6653 5.55408 22.6794L5.54939 22.6794L5.49785 22.5013L5.66185 22.5013L5.67122 22.492ZM6.12104 23.237L6.11636 23.2276C6.17727 23.1948 6.21944 23.1573 6.24287 23.1199C6.2663 23.0824 6.27567 23.0449 6.27567 23.0074C6.27567 22.9605 6.26161 22.9231 6.23819 22.8949C6.21476 22.8668 6.18196 22.8528 6.14447 22.8528C6.12104 22.8528 6.09762 22.8575 6.08356 22.8715C6.06482 22.8809 6.05076 22.8996 6.04139 22.9184C6.02733 22.9371 6.01796 22.9605 6.0039 22.984C5.99453 23.0074 5.98516 23.0355 5.9711 23.0636C5.96173 23.0917 5.94767 23.1199 5.93362 23.148C5.91956 23.1761 5.9055 23.1995 5.88676 23.2182C5.86802 23.2417 5.84459 23.2557 5.81648 23.2698C5.78836 23.2838 5.75556 23.2885 5.71808 23.2885C5.64311 23.2885 5.59156 23.2604 5.54939 23.2089C5.51191 23.1573 5.49316 23.0871 5.49316 22.998C5.49316 22.9512 5.49785 22.909 5.50722 22.8715C5.51659 22.834 5.52596 22.8012 5.54002 22.7731L5.72276 22.7591L5.72745 22.7684C5.65716 22.8012 5.60562 22.8387 5.57751 22.8762C5.54471 22.9137 5.53065 22.9605 5.53065 23.0168C5.53065 23.073 5.54471 23.1199 5.57751 23.148C5.61031 23.1761 5.64311 23.1901 5.68059 23.1901C5.70402 23.1901 5.72276 23.1854 5.7415 23.1761C5.76025 23.1667 5.7743 23.1527 5.78836 23.1386C5.80242 23.1199 5.81647 23.1011 5.82585 23.0777C5.83522 23.0543 5.84459 23.0308 5.85865 23.0027C5.86802 22.9746 5.88207 22.9512 5.89145 22.9231C5.9055 22.8949 5.91956 22.8715 5.9383 22.8481C5.95704 22.8247 5.98047 22.8059 6.0039 22.7919C6.03202 22.7778 6.06013 22.7684 6.09761 22.7684C6.1351 22.7684 6.1679 22.7778 6.19601 22.7919C6.22413 22.8059 6.24287 22.8293 6.26161 22.8528C6.28036 22.8762 6.28973 22.909 6.29441 22.9371C6.2991 22.9699 6.30378 23.0027 6.30378 23.0355C6.30378 23.0683 6.2991 23.1058 6.29441 23.1386C6.28973 23.1714 6.28036 23.1995 6.27099 23.2229L6.11636 23.237L6.12104 23.237ZM6.57555 23.5603C6.55213 23.5603 6.53338 23.5509 6.51933 23.5369C6.50527 23.5228 6.4959 23.5041 6.4959 23.4806C6.4959 23.4572 6.50527 23.4432 6.51933 23.4244C6.53338 23.4104 6.55213 23.401 6.57555 23.401C6.59898 23.401 6.61304 23.4104 6.63178 23.4244C6.64584 23.4385 6.65521 23.4572 6.65521 23.4806C6.65521 23.5041 6.64584 23.5181 6.63178 23.5369C6.61772 23.5509 6.59898 23.5603 6.57555 23.5603ZM5.53065 23.3963C5.56345 23.4104 5.60093 23.4197 5.63842 23.4244C5.6759 23.4291 5.71808 23.4338 5.7743 23.4338L6.0695 23.4338C6.10699 23.4338 6.13979 23.4244 6.1679 23.4104C6.19133 23.3963 6.21476 23.3776 6.22881 23.3635L6.2335 23.3635L6.31784 23.5509L5.7743 23.5509C5.71808 23.5509 5.67122 23.5509 5.63842 23.5556C5.60093 23.5603 5.56813 23.5697 5.53065 23.5837L5.52596 23.5837L5.52596 23.3963L5.53065 23.3963ZM5.50254 24.0992C5.50254 24.0429 5.51191 23.9914 5.53534 23.9445C5.55876 23.8977 5.58688 23.8555 5.62436 23.818C5.66185 23.7805 5.70402 23.7524 5.75088 23.7337C5.79773 23.7102 5.84927 23.7009 5.9055 23.7009C5.96173 23.7009 6.01327 23.7102 6.06013 23.7337C6.10699 23.7571 6.15384 23.7852 6.18664 23.8227C6.22413 23.8602 6.25224 23.9024 6.27567 23.9492C6.2991 23.9961 6.30847 24.0476 6.30847 24.1038C6.30847 24.1601 6.2991 24.2116 6.27567 24.2585C6.25224 24.3053 6.22413 24.3475 6.18664 24.385C6.14916 24.4225 6.10699 24.4506 6.06013 24.4693C6.01327 24.4928 5.95704 24.5021 5.9055 24.5021C5.84927 24.5021 5.79773 24.4928 5.75088 24.4693C5.70402 24.4459 5.66185 24.4178 5.62436 24.385C5.58688 24.3475 5.55876 24.3053 5.53534 24.2585C5.51191 24.2116 5.50254 24.1601 5.50254 24.1038L5.50254 24.0992ZM5.53065 24.0992C5.53065 24.146 5.54002 24.1835 5.55876 24.2163C5.57751 24.2491 5.60562 24.2772 5.63842 24.3006C5.67122 24.3241 5.71339 24.3381 5.75556 24.3522C5.80242 24.3616 5.84928 24.3662 5.89613 24.3662C5.94767 24.3662 5.99453 24.3616 6.0367 24.3475C6.08356 24.3381 6.12104 24.3194 6.15384 24.296C6.18664 24.2725 6.21476 24.2444 6.23819 24.2116C6.25693 24.1788 6.2663 24.1413 6.2663 24.0945C6.2663 24.0476 6.25693 24.0101 6.23819 23.9773C6.21944 23.9445 6.19133 23.9164 6.15384 23.893C6.12104 23.8696 6.07887 23.8555 6.0367 23.8414C5.98984 23.8321 5.94299 23.8227 5.89613 23.8227C5.84459 23.8227 5.79773 23.8274 5.75556 23.8368C5.7087 23.8461 5.67122 23.8649 5.63842 23.8883C5.60562 23.9117 5.57751 23.9398 5.55876 23.9726C5.54002 24.0054 5.53065 24.0429 5.53065 24.0898L5.53065 24.0992ZM5.52596 24.8161L5.52596 24.6286L5.53065 24.6286C5.54939 24.638 5.56345 24.6427 5.58219 24.6474C5.60093 24.6521 5.61499 24.6567 5.63842 24.6567C5.65716 24.6567 5.67591 24.6614 5.69933 24.6614C5.72276 24.6614 5.74619 24.6614 5.7743 24.6614L6.07419 24.6614C6.11636 24.6614 6.14916 24.6521 6.17259 24.638C6.19601 24.624 6.21944 24.6052 6.2335 24.5912L6.23819 24.5912L6.32253 24.7692L6.17259 24.7692L6.17259 24.7739C6.21944 24.8114 6.25224 24.8535 6.27567 24.9004C6.2991 24.9473 6.31316 24.9941 6.31316 25.0503C6.31316 25.1253 6.29441 25.1815 6.25224 25.219C6.21007 25.2565 6.15384 25.2753 6.08356 25.2753L5.77899 25.2753C5.75088 25.2753 5.72276 25.2753 5.70402 25.2753C5.68059 25.2753 5.66185 25.2753 5.64311 25.2799C5.62436 25.2799 5.60562 25.2846 5.58688 25.2893C5.56813 25.294 5.55408 25.2987 5.53533 25.3081L5.53065 25.3081L5.53065 25.1206L5.53533 25.1206C5.56813 25.1347 5.60562 25.1441 5.64311 25.1487C5.68059 25.1534 5.72276 25.1534 5.77899 25.1534L6.05544 25.1534C6.07887 25.1534 6.1023 25.1487 6.12573 25.1441C6.14916 25.1394 6.1679 25.13 6.18196 25.1159C6.2007 25.1019 6.21007 25.0878 6.21944 25.0644C6.22881 25.041 6.2335 25.0175 6.2335 24.9894C6.2335 24.9519 6.22413 24.9145 6.21007 24.877C6.19601 24.8395 6.17259 24.802 6.13979 24.7739L5.7743 24.7739C5.71808 24.7739 5.67122 24.7739 5.63842 24.7786C5.60093 24.7833 5.56813 24.7926 5.53065 24.8067L5.52596 24.8067L5.52596 24.8161Z" fill="#212428"/>
<path d="M7.93457 20.735L7.93457 26.6905" stroke="#212428" stroke-width="0.379305"/>
<path d="M6.69336 22.4404L11.8073 22.4408" stroke="#212428" stroke-width="0.379305"/>
</g>
<defs>
<clipPath id="clip0_1033_9721">
<rect width="12.7452" height="30" fill="white" transform="translate(0.293945)"/>
</clipPath>
</defs>
</svg>
