<svg width="14" height="30" viewBox="0 0 14 30" fill="none" xmlns="http://www.w3.org/2000/svg">
<g clip-path="url(#clip0_1033_9422)">
<path d="M8.54568 17.7402L8.54568 17.342L8.89242 17.342L8.89711 17.3373C8.85025 17.3139 8.80339 17.2857 8.75654 17.2529C8.70968 17.2201 8.66751 17.1827 8.63002 17.1405C8.59254 17.0983 8.55974 17.0468 8.53631 16.9905C8.51288 16.9343 8.49883 16.8734 8.49883 16.8031C8.49883 16.6625 8.55037 16.5548 8.64877 16.4798C8.74717 16.4048 8.87837 16.372 9.04236 16.372L10.1294 16.372L10.1294 16.7891L9.06579 16.7891C8.97208 16.7891 8.89711 16.8125 8.84557 16.8547C8.79402 16.8968 8.76591 16.9624 8.76591 17.0421C8.76591 17.1124 8.78465 17.1686 8.82214 17.2155C8.85962 17.2623 8.90179 17.2998 8.95802 17.3279L10.1294 17.3279L10.1294 17.7449L8.55037 17.7449L8.54568 17.7402ZM10.1482 20.5751L10.1482 20.5095L10.1716 20.5095L10.1716 20.6735L10.1482 20.6735L10.1482 20.6079L9.97481 20.6079L9.97481 20.5798L10.1482 20.5798L10.1482 20.5751ZM9.97481 20.8843L10.1201 20.8843L10.0029 20.814L10.0029 20.8L10.1201 20.7297L9.9795 20.7297L9.9795 20.7016L10.1763 20.7016L10.1763 20.725L10.0357 20.8094L10.1763 20.889L10.1763 20.9124L9.9795 20.9124L9.9795 20.8843L9.97481 20.8843ZM10.1388 18.832C10.1107 18.7805 10.0779 18.7289 10.0404 18.6868C10.0029 18.6399 9.96076 18.5977 9.9139 18.5602C9.87173 18.5228 9.83424 18.49 9.80144 18.4618L10.1248 18.4618L10.1248 18.0448L9.22042 18.0448L8.54568 18.0448L8.54568 18.4665L9.73116 18.4665C9.76864 18.4993 9.79676 18.5274 9.82019 18.5602C9.83893 18.593 9.85298 18.6212 9.85298 18.6493C9.85298 18.668 9.8483 18.6914 9.84361 18.7196C9.83424 18.7477 9.82487 18.7758 9.8155 18.8086C9.80144 18.8367 9.78739 18.8648 9.77333 18.8929C9.75459 18.921 9.73584 18.9445 9.7171 18.9585L9.7171 18.9913L10.1857 18.9913C10.1857 18.9304 10.1763 18.8882 10.1482 18.8367L10.1388 18.832ZM8.23174 16.1565C8.23174 15.9878 8.21769 15.8285 8.18957 15.6879C8.16146 15.5427 8.11929 15.4208 8.05837 15.3178C7.99746 15.2147 7.92249 15.1303 7.82878 15.0694C7.73506 15.0085 7.62729 14.9804 7.49609 14.9804L7.49609 14.9101C7.51484 14.9101 7.52421 14.9101 7.52421 14.9101C7.67883 14.9148 7.82878 14.9476 7.96935 15.0038C8.11929 15.0694 8.25517 15.1584 8.36763 15.2709C8.48477 15.3834 8.5738 15.5146 8.64408 15.6645C8.71437 15.8144 8.74717 15.9784 8.74717 16.1565L8.22706 16.1565L8.23174 16.1565ZM8.56443 14.9007C8.56443 15.0319 8.59254 15.1397 8.65345 15.2334C8.71437 15.3271 8.79402 15.4021 8.90179 15.463C9.00488 15.5239 9.13139 15.5661 9.27665 15.5942C9.4219 15.6223 9.57653 15.6364 9.7499 15.6364C9.91858 15.6364 10.0779 15.6223 10.2232 15.5942C10.3684 15.5661 10.4902 15.5239 10.598 15.463C10.7011 15.4021 10.7854 15.3271 10.8463 15.2334C10.9073 15.1397 10.9354 15.0319 10.9354 14.9007C10.9354 14.7695 10.9073 14.6618 10.8463 14.568C10.7854 14.4743 10.7011 14.3994 10.598 14.3385C10.4902 14.2775 10.3684 14.2354 10.2232 14.2073C10.0779 14.1791 9.92327 14.1651 9.75459 14.1651C9.5859 14.1651 9.43127 14.1791 9.28602 14.2073C9.14076 14.2354 9.01894 14.2775 8.91117 14.3385C8.80808 14.3994 8.72374 14.4743 8.66282 14.568C8.60191 14.6618 8.5738 14.7695 8.5738 14.9007L8.56443 14.9007ZM8.49883 14.807C8.5082 14.6758 8.541 14.5446 8.59254 14.4275C8.65814 14.2775 8.74717 14.1417 8.85962 14.0292C8.97208 13.9167 9.10328 13.823 9.25322 13.7527C9.40316 13.6825 9.56716 13.6497 9.74521 13.6497C9.91858 13.6497 10.0826 13.6825 10.2372 13.7527C10.3872 13.823 10.523 13.9121 10.6355 14.0292C10.7479 14.1417 10.837 14.2775 10.9026 14.4275C10.9682 14.5774 11.001 14.7367 11.001 14.9007C11.001 15.0647 10.9682 15.224 10.9026 15.374C10.837 15.5239 10.7479 15.6598 10.6355 15.7723C10.523 15.8894 10.3872 15.9784 10.2372 16.0487C10.0873 16.119 9.92327 16.1518 9.74521 16.1518C9.57184 16.1518 9.40785 16.119 9.25322 16.0487C9.10328 15.9784 8.96739 15.8894 8.85962 15.7723C8.74717 15.6551 8.65814 15.5239 8.59254 15.374C8.53163 15.2334 8.50351 15.0835 8.49883 14.9288C8.49883 14.9288 8.49883 14.8492 8.50351 14.8023L8.49883 14.807ZM9.56716 19.4411C9.64213 19.4458 9.71241 19.4552 9.77801 19.4739C9.84361 19.488 9.89984 19.5114 9.95138 19.5395C10.0029 19.5677 10.0404 19.6005 10.0685 19.6426C10.0966 19.6848 10.1107 19.7317 10.1107 19.7832C10.1107 19.8675 10.0732 19.9331 10.0029 19.98C9.93264 20.0269 9.76396 20.0456 9.60464 20.0456L9.50156 20.0456L9.22979 19.4739C9.30945 19.4505 9.39379 19.4411 9.50156 19.4411L9.56716 19.4411ZM9.00488 20.4392C8.95334 20.397 8.90648 20.3361 8.86899 20.2658C8.83151 20.1909 8.81277 20.1018 8.81277 19.9987C8.81277 19.9191 8.82682 19.8441 8.85025 19.7738C8.87368 19.7035 8.91585 19.6473 8.97208 19.5958C9.02362 19.5489 9.08922 19.5161 9.16888 19.488L9.60464 20.4439C9.60464 20.4439 9.76396 20.4392 9.96075 20.2939C10.031 20.2424 10.0732 20.1627 10.1154 20.0831C10.1576 19.9987 10.1763 19.905 10.1763 19.8019C10.1763 19.7035 10.1576 19.6051 10.1154 19.5114C10.0732 19.4177 10.017 19.3334 9.93733 19.2631C9.86236 19.1928 9.76864 19.1319 9.66556 19.0897C9.55779 19.0475 9.44065 19.0241 9.30945 19.0241C9.19699 19.0241 9.08922 19.0429 8.99082 19.0803C8.89242 19.1178 8.80808 19.1694 8.73311 19.235C8.65814 19.3006 8.60191 19.3802 8.55974 19.4739C8.51757 19.5677 8.49883 19.6707 8.49883 19.7879C8.49883 19.9659 8.54568 20.1159 8.6394 20.2283C8.73311 20.3408 8.85494 20.4205 9.00019 20.4673L9.00956 20.4486L9.00488 20.4392Z" fill="#212428"/>
<path fill-rule="evenodd" clip-rule="evenodd" d="M6.08045 16.1382L6.08514 16.1382C6.10857 16.1569 6.132 16.171 6.15074 16.1851C6.16948 16.1944 6.18822 16.2038 6.20697 16.2132C6.22571 16.2179 6.24914 16.2225 6.26788 16.2272C6.29131 16.2319 6.31474 16.2319 6.34754 16.2319L7.05976 16.2319C7.08319 16.2319 7.10193 16.2272 7.11599 16.2225C7.13473 16.2179 7.14879 16.2132 7.16284 16.2038C7.1769 16.1944 7.19096 16.1851 7.20501 16.171C7.21907 16.1569 7.23313 16.1429 7.24719 16.1241L7.25187 16.1241L7.25187 16.3537L6.28662 16.7895L7.25187 17.2159L7.25187 17.4314L7.24719 17.4314C7.23313 17.408 7.21439 17.394 7.20033 17.3799C7.18627 17.3658 7.16753 17.3565 7.15347 17.3471C7.13473 17.3377 7.11599 17.333 7.09724 17.3284C7.07382 17.3237 7.05039 17.3237 7.02227 17.3237L6.32879 17.3237C6.30068 17.3237 6.27725 17.3237 6.25851 17.3284C6.23977 17.3284 6.22102 17.333 6.20228 17.3377C6.18354 17.3424 6.16948 17.3471 6.15074 17.3565C6.132 17.3658 6.11325 17.3752 6.09451 17.3893L6.08983 17.3893L6.08983 17.1316L6.09451 17.1316C6.11325 17.1456 6.132 17.155 6.15074 17.1644C6.16948 17.1737 6.18354 17.1784 6.20228 17.1831C6.22102 17.1878 6.23977 17.1925 6.25851 17.1925C6.27725 17.1925 6.30537 17.1972 6.32879 17.1972L7.12536 17.1972L6.11794 16.752L6.11794 16.7239L7.13004 16.2647L6.34754 16.2694C6.31942 16.2694 6.29131 16.2694 6.26788 16.2741C6.24445 16.2788 6.22571 16.2835 6.20697 16.2928C6.18822 16.3022 6.16948 16.3116 6.15074 16.3256C6.132 16.3397 6.10857 16.3584 6.08514 16.3819L6.08045 16.3819L6.08045 16.1382ZM7.13004 17.7032C7.10662 17.7032 7.08787 17.6938 7.07382 17.6798C7.05976 17.6657 7.05039 17.647 7.05039 17.6236C7.05039 17.6001 7.05976 17.5861 7.07382 17.5673C7.08787 17.5533 7.10662 17.5439 7.13004 17.5439C7.15347 17.5439 7.16753 17.5533 7.18627 17.5673C7.20033 17.5814 7.2097 17.6001 7.2097 17.6236C7.2097 17.647 7.20033 17.661 7.18627 17.6798C7.17222 17.6938 7.15347 17.7032 7.13004 17.7032ZM6.08514 17.5392C6.11794 17.5533 6.15542 17.5626 6.19291 17.5673C6.2304 17.572 6.27257 17.5767 6.32879 17.5767L6.62399 17.5767C6.66148 17.5767 6.69428 17.5673 6.72239 17.5533C6.74582 17.5392 6.76925 17.5205 6.7833 17.5064L6.78799 17.5064L6.87233 17.6938L6.32879 17.6938C6.27257 17.6938 6.22571 17.6938 6.19291 17.6985C6.15542 17.7032 6.12263 17.7126 6.08514 17.7266L6.08045 17.7266L6.08045 17.5392L6.08514 17.5392ZM6.25851 18.4951C6.1976 18.4717 6.15074 18.4389 6.11325 18.3873C6.07577 18.3358 6.05703 18.2749 6.05703 18.1952C6.05703 18.1437 6.0664 18.0968 6.08514 18.0546C6.10388 18.0125 6.12731 17.975 6.16011 17.9422C6.19291 17.9094 6.23508 17.886 6.28194 17.8719C6.32879 17.8532 6.38502 17.8485 6.44125 17.8485C6.50685 17.8485 6.56308 17.8578 6.61462 17.8813C6.66616 17.9047 6.70833 17.9328 6.74582 17.9703C6.7833 18.0078 6.81142 18.05 6.83016 18.0968C6.8489 18.1437 6.85828 18.1952 6.85828 18.2468C6.85828 18.2983 6.85359 18.3452 6.83953 18.378C6.83016 18.4108 6.8161 18.4389 6.81142 18.4576L6.64742 18.4717L6.64273 18.4576C6.66616 18.4436 6.68959 18.4248 6.71302 18.4108C6.73645 18.392 6.75519 18.3733 6.76925 18.3545C6.7833 18.3358 6.79736 18.3124 6.80673 18.2889C6.8161 18.2655 6.82079 18.2421 6.82079 18.2186C6.82079 18.139 6.79268 18.0781 6.73176 18.0312C6.67085 17.9844 6.59119 17.9609 6.48342 17.9609C6.38034 17.9609 6.30068 17.9844 6.23977 18.0312C6.17885 18.0781 6.15074 18.1484 6.15074 18.2374C6.15074 18.2842 6.16011 18.3264 6.17417 18.3686C6.18822 18.4108 6.21634 18.4482 6.25382 18.4764L6.24914 18.4857L6.25851 18.4951ZM6.08514 18.6403C6.10388 18.6497 6.11794 18.6544 6.13668 18.6591C6.15542 18.6638 6.16948 18.6685 6.19291 18.6685C6.21165 18.6685 6.23039 18.6731 6.25382 18.6731C6.27725 18.6731 6.30068 18.6731 6.32879 18.6731L6.62868 18.6731C6.67085 18.6731 6.70365 18.6638 6.72708 18.6497C6.7505 18.6357 6.77393 18.6169 6.78799 18.6029L6.79268 18.6029L6.87702 18.7809L6.6849 18.7809L6.6849 18.7903C6.70365 18.809 6.72239 18.8231 6.74582 18.8418C6.76925 18.8606 6.78799 18.8793 6.80673 18.9027C6.82548 18.9215 6.83953 18.9449 6.85359 18.9683C6.86765 18.9918 6.87233 19.0152 6.87233 19.0433L6.71302 19.0433L6.71302 19.0386C6.71771 19.0339 6.72239 19.0246 6.72708 19.0152C6.73176 19.0058 6.73645 18.9918 6.73645 18.9824C6.74113 18.9683 6.74113 18.959 6.74582 18.9449C6.74582 18.9355 6.7505 18.9215 6.7505 18.9121C6.7505 18.8981 6.74113 18.8793 6.72239 18.8559C6.70365 18.8325 6.68022 18.809 6.65211 18.7903L6.33817 18.7903C6.28194 18.7903 6.23508 18.7903 6.20228 18.795C6.1648 18.7997 6.132 18.809 6.09451 18.8231L6.08983 18.8231L6.08983 18.6357L6.09451 18.6357L6.08514 18.6403ZM6.05703 19.5166C6.05703 19.4603 6.0664 19.4088 6.08983 19.3619C6.11325 19.3151 6.14137 19.2729 6.17885 19.2354C6.21634 19.1979 6.25851 19.1698 6.30537 19.1511C6.35222 19.1277 6.40376 19.1183 6.45999 19.1183C6.51622 19.1183 6.56776 19.1277 6.61462 19.1511C6.66148 19.1745 6.70833 19.2026 6.74113 19.2401C6.77862 19.2776 6.80673 19.3198 6.83016 19.3666C6.85359 19.4135 6.86296 19.465 6.86296 19.5213C6.86296 19.5775 6.85359 19.629 6.83016 19.6759C6.80673 19.7227 6.77862 19.7649 6.74113 19.8024C6.70365 19.8399 6.66148 19.868 6.61462 19.8867C6.56776 19.9102 6.51154 19.9195 6.45999 19.9195C6.40376 19.9195 6.35222 19.9102 6.30537 19.8867C6.25851 19.8633 6.21634 19.8352 6.17885 19.8024C6.14137 19.7649 6.11325 19.7227 6.08983 19.6759C6.0664 19.629 6.05703 19.5775 6.05703 19.5213L6.05703 19.5166ZM6.08514 19.5166C6.08514 19.5634 6.09451 19.6009 6.11325 19.6337C6.132 19.6665 6.16011 19.6946 6.19291 19.7181C6.22571 19.7415 6.26788 19.7555 6.31005 19.7696C6.35691 19.779 6.40376 19.7837 6.45062 19.7837C6.50216 19.7837 6.54902 19.779 6.59119 19.7649C6.63805 19.7555 6.67553 19.7368 6.70833 19.7134C6.74113 19.6899 6.76925 19.6618 6.79268 19.629C6.81142 19.5962 6.82079 19.5587 6.82079 19.5119C6.82079 19.465 6.81142 19.4275 6.79268 19.3947C6.77393 19.3619 6.74582 19.3338 6.70833 19.3104C6.67553 19.287 6.63336 19.2729 6.59119 19.2589C6.54434 19.2495 6.49748 19.2401 6.45062 19.2401C6.39908 19.2401 6.35222 19.2448 6.31005 19.2542C6.2632 19.2635 6.22571 19.2823 6.19291 19.3057C6.16011 19.3291 6.132 19.3573 6.11325 19.3901C6.09451 19.4229 6.08514 19.4603 6.08514 19.5072L6.08514 19.5166ZM6.08045 20.2991C6.0992 20.3131 6.11794 20.3225 6.13668 20.3319C6.15542 20.3412 6.16948 20.3459 6.18822 20.3506C6.20697 20.3553 6.22571 20.36 6.24445 20.36C6.2632 20.36 6.28662 20.3647 6.31474 20.3647L7.00353 20.3647C7.03164 20.3647 7.05507 20.3647 7.07382 20.36C7.09256 20.36 7.1113 20.3553 7.13004 20.3506C7.14879 20.3459 7.16284 20.3412 7.18159 20.3319C7.20033 20.3225 7.21907 20.3131 7.23781 20.2991L7.2425 20.2991L7.2425 20.5568L7.23781 20.5568C7.21907 20.5427 7.20033 20.5334 7.18159 20.524C7.16284 20.5146 7.14879 20.5099 7.13004 20.5052C7.1113 20.5006 7.09256 20.4959 7.07382 20.4959C7.05507 20.4959 7.03164 20.4912 7.00353 20.4912L6.31474 20.4912C6.28662 20.4912 6.2632 20.4912 6.24445 20.4959C6.22571 20.4959 6.20697 20.5006 6.18822 20.5052C6.16948 20.5099 6.15542 20.5146 6.13668 20.524C6.11794 20.5334 6.0992 20.5427 6.08045 20.5568L6.07577 20.5568L6.07577 20.2991L6.08045 20.2991ZM6.07577 20.8895L6.07577 20.702L6.08045 20.702C6.0992 20.7114 6.11325 20.7161 6.132 20.7208C6.15074 20.7255 6.1648 20.7302 6.18822 20.7302C6.20697 20.7302 6.22571 20.7348 6.24914 20.7348C6.27257 20.7348 6.296 20.7348 6.32411 20.7348L6.62399 20.7348C6.66616 20.7348 6.69896 20.7255 6.72239 20.7114C6.74582 20.6974 6.76925 20.6786 6.7833 20.6646L6.78799 20.6646L6.87233 20.8426L6.72239 20.8426L6.72239 20.8473C6.76925 20.8848 6.80205 20.927 6.82548 20.9738C6.8489 21.0207 6.86296 21.0675 6.86296 21.1238C6.86296 21.1987 6.84422 21.255 6.80205 21.2924C6.75988 21.3299 6.70365 21.3487 6.63336 21.3487L6.32879 21.3487C6.30068 21.3487 6.27257 21.3487 6.25382 21.3487C6.23039 21.3487 6.21165 21.3487 6.19291 21.3534C6.17417 21.3534 6.15542 21.358 6.13668 21.3627C6.11794 21.3674 6.10388 21.3721 6.08514 21.3815L6.08045 21.3815L6.08045 21.194L6.08514 21.194C6.11794 21.2081 6.15542 21.2175 6.19291 21.2222C6.2304 21.2268 6.27257 21.2268 6.32879 21.2268L6.60525 21.2268C6.62868 21.2268 6.65211 21.2222 6.67553 21.2175C6.69896 21.2128 6.7177 21.2034 6.73176 21.1894C6.7505 21.1753 6.75988 21.1612 6.76925 21.1378C6.77862 21.1144 6.7833 21.091 6.7833 21.0628C6.7833 21.0254 6.77393 20.9879 6.75988 20.9504C6.74582 20.9129 6.72239 20.8754 6.68959 20.8473L6.32411 20.8473C6.26788 20.8473 6.22102 20.8473 6.18822 20.852C6.15074 20.8567 6.11794 20.866 6.08045 20.8801L6.07577 20.8801L6.07577 20.8895ZM6.08045 21.5595C6.10388 21.5736 6.12731 21.583 6.16011 21.5876C6.19291 21.5923 6.23977 21.597 6.30068 21.597L6.80673 21.597L6.80673 21.4986L6.83485 21.4986L6.83485 21.597L6.97073 21.597C7.02696 21.597 7.07382 21.6017 7.11599 21.6158C7.15816 21.6298 7.19564 21.6486 7.22376 21.672C7.25187 21.6954 7.2753 21.7235 7.29404 21.7563C7.3081 21.7891 7.31747 21.8266 7.31747 21.8641C7.31747 21.8875 7.31278 21.9109 7.3081 21.9297C7.30341 21.9484 7.29873 21.9625 7.29404 21.9719L7.14879 21.9906L7.1441 21.9812C7.16284 21.9719 7.1769 21.9578 7.19564 21.9437C7.21439 21.9297 7.22844 21.9203 7.2425 21.9063C7.25656 21.8922 7.26593 21.8781 7.2753 21.8688C7.28467 21.8547 7.28936 21.8407 7.28936 21.8266C7.28936 21.7938 7.27061 21.7657 7.22844 21.7423C7.18627 21.7188 7.12536 21.7095 7.04102 21.7095L6.83485 21.7095L6.83485 21.8969L6.80673 21.8969L6.80673 21.7095L6.30068 21.7095C6.23977 21.7095 6.19291 21.7141 6.16011 21.7188C6.12731 21.7235 6.10388 21.7329 6.08045 21.7469L6.07577 21.7469L6.07577 21.5548L6.08045 21.5548L6.08045 21.5595ZM6.22102 22.492C6.1976 22.4779 6.17885 22.4592 6.16011 22.4451C6.14137 22.4264 6.12262 22.4076 6.10388 22.3889C6.08982 22.3701 6.07577 22.3467 6.0664 22.3186C6.05703 22.2905 6.05234 22.2624 6.05234 22.2296C6.05234 22.1593 6.07577 22.1077 6.11794 22.0749C6.16011 22.0421 6.22102 22.0234 6.29599 22.0234L6.69428 22.0234C6.72708 22.0234 6.75519 22.0187 6.77393 22.0047C6.79736 21.9906 6.81142 21.9765 6.82548 21.9578L6.83016 21.9578L6.83016 22.1405L6.31942 22.1405C6.20228 22.1405 6.14137 22.1921 6.14137 22.2952C6.14137 22.342 6.15074 22.3795 6.16948 22.4123C6.18822 22.4451 6.21165 22.4685 6.23977 22.4873L6.68959 22.4873C6.7505 22.4873 6.79268 22.4639 6.82548 22.417L6.83016 22.417L6.83016 22.6044L6.29131 22.6044C6.25851 22.6044 6.2304 22.6044 6.21165 22.6091C6.19291 22.6138 6.17417 22.6138 6.16011 22.6232C6.14605 22.6279 6.13668 22.6372 6.12731 22.6466C6.11794 22.656 6.11325 22.6653 6.10388 22.6794L6.0992 22.6794L6.04765 22.5013L6.21165 22.5013L6.22102 22.492ZM6.67085 23.237L6.66616 23.2276C6.72708 23.1948 6.76925 23.1573 6.79268 23.1199C6.8161 23.0824 6.82548 23.0449 6.82548 23.0074C6.82548 22.9605 6.81142 22.9231 6.78799 22.8949C6.76456 22.8668 6.73176 22.8528 6.69428 22.8528C6.67085 22.8528 6.64742 22.8575 6.63336 22.8715C6.61462 22.8809 6.60056 22.8996 6.59119 22.9184C6.57714 22.9371 6.56776 22.9605 6.55371 22.984C6.54434 23.0074 6.53496 23.0355 6.52091 23.0636C6.51154 23.0917 6.49748 23.1199 6.48342 23.148C6.46936 23.1761 6.45531 23.1995 6.43656 23.2182C6.41782 23.2417 6.39439 23.2557 6.36628 23.2698C6.33817 23.2838 6.30537 23.2885 6.26788 23.2885C6.19291 23.2885 6.14137 23.2604 6.0992 23.2089C6.06171 23.1573 6.04297 23.0871 6.04297 22.998C6.04297 22.9512 6.04765 22.909 6.05703 22.8715C6.0664 22.834 6.07577 22.8012 6.08983 22.7731L6.27257 22.7591L6.27725 22.7684C6.20697 22.8012 6.15542 22.8387 6.12731 22.8762C6.09451 22.9137 6.08045 22.9605 6.08045 23.0168C6.08045 23.073 6.09451 23.1199 6.12731 23.148C6.16011 23.1761 6.19291 23.1901 6.2304 23.1901C6.25382 23.1901 6.27257 23.1854 6.29131 23.1761C6.31005 23.1667 6.32411 23.1527 6.33817 23.1386C6.35222 23.1199 6.36628 23.1011 6.37565 23.0777C6.38502 23.0543 6.39439 23.0308 6.40845 23.0027C6.41782 22.9746 6.43188 22.9512 6.44125 22.9231C6.45531 22.8949 6.46936 22.8715 6.48811 22.8481C6.50685 22.8247 6.53028 22.8059 6.55371 22.7919C6.58182 22.7778 6.60993 22.7684 6.64742 22.7684C6.6849 22.7684 6.71771 22.7778 6.74582 22.7919C6.77393 22.8059 6.79268 22.8293 6.81142 22.8528C6.83016 22.8762 6.83953 22.909 6.84422 22.9371C6.8489 22.9699 6.85359 23.0027 6.85359 23.0355C6.85359 23.0683 6.8489 23.1058 6.84422 23.1386C6.83953 23.1714 6.83016 23.1995 6.82079 23.2229L6.66616 23.237L6.67085 23.237ZM7.12536 23.5603C7.10193 23.5603 7.08319 23.5509 7.06913 23.5369C7.05507 23.5228 7.0457 23.5041 7.0457 23.4806C7.0457 23.4572 7.05507 23.4432 7.06913 23.4244C7.08319 23.4104 7.10193 23.401 7.12536 23.401C7.14879 23.401 7.16284 23.4104 7.18159 23.4244C7.19564 23.4385 7.20501 23.4572 7.20501 23.4806C7.20501 23.5041 7.19564 23.5181 7.18159 23.5369C7.16753 23.5509 7.14879 23.5603 7.12536 23.5603ZM6.08045 23.3963C6.11325 23.4104 6.15074 23.4197 6.18822 23.4244C6.22571 23.4291 6.26788 23.4338 6.32411 23.4338L6.61931 23.4338C6.65679 23.4338 6.68959 23.4244 6.71771 23.4104C6.74113 23.3963 6.76456 23.3776 6.77862 23.3635L6.7833 23.3635L6.86765 23.5509L6.32411 23.5509C6.26788 23.5509 6.22102 23.5509 6.18822 23.5556C6.15074 23.5603 6.11794 23.5697 6.08045 23.5837L6.07577 23.5837L6.07577 23.3963L6.08045 23.3963ZM6.05234 24.0992C6.05234 24.0429 6.06171 23.9914 6.08514 23.9445C6.10857 23.8977 6.13668 23.8555 6.17417 23.818C6.21165 23.7805 6.25382 23.7524 6.30068 23.7337C6.34754 23.7102 6.39908 23.7009 6.45531 23.7009C6.51154 23.7009 6.56308 23.7102 6.60993 23.7337C6.65679 23.7571 6.70365 23.7852 6.73645 23.8227C6.77393 23.8602 6.80205 23.9024 6.82548 23.9492C6.8489 23.9961 6.85828 24.0476 6.85828 24.1038C6.85828 24.1601 6.8489 24.2116 6.82548 24.2585C6.80205 24.3053 6.77393 24.3475 6.73645 24.385C6.69896 24.4225 6.65679 24.4506 6.60993 24.4693C6.56308 24.4928 6.50685 24.5021 6.45531 24.5021C6.39908 24.5021 6.34754 24.4928 6.30068 24.4693C6.25382 24.4459 6.21165 24.4178 6.17417 24.385C6.13668 24.3475 6.10857 24.3053 6.08514 24.2585C6.06171 24.2116 6.05234 24.1601 6.05234 24.1038L6.05234 24.0992ZM6.08045 24.0992C6.08045 24.146 6.08983 24.1835 6.10857 24.2163C6.12731 24.2491 6.15542 24.2772 6.18822 24.3006C6.22102 24.3241 6.26319 24.3381 6.30537 24.3522C6.35222 24.3616 6.39908 24.3662 6.44594 24.3662C6.49748 24.3662 6.54434 24.3616 6.58651 24.3475C6.63336 24.3381 6.67085 24.3194 6.70365 24.296C6.73645 24.2725 6.76456 24.2444 6.78799 24.2116C6.80673 24.1788 6.8161 24.1413 6.8161 24.0945C6.8161 24.0476 6.80673 24.0101 6.78799 23.9773C6.76925 23.9445 6.74113 23.9164 6.70365 23.893C6.67085 23.8696 6.62868 23.8555 6.58651 23.8414C6.53965 23.8321 6.49279 23.8227 6.44594 23.8227C6.39439 23.8227 6.34754 23.8274 6.30537 23.8368C6.25851 23.8461 6.22102 23.8649 6.18822 23.8883C6.15542 23.9117 6.12731 23.9398 6.10857 23.9726C6.08983 24.0054 6.08045 24.0429 6.08045 24.0898L6.08045 24.0992ZM6.07577 24.8161L6.07577 24.6286L6.08045 24.6286C6.0992 24.638 6.11325 24.6427 6.132 24.6474C6.15074 24.6521 6.1648 24.6567 6.18822 24.6567C6.20697 24.6567 6.22571 24.6614 6.24914 24.6614C6.27257 24.6614 6.29599 24.6614 6.32411 24.6614L6.62399 24.6614C6.66616 24.6614 6.69896 24.6521 6.72239 24.638C6.74582 24.624 6.76925 24.6052 6.7833 24.5912L6.78799 24.5912L6.87233 24.7692L6.72239 24.7692L6.72239 24.7739C6.76925 24.8114 6.80205 24.8535 6.82548 24.9004C6.8489 24.9473 6.86296 24.9941 6.86296 25.0503C6.86296 25.1253 6.84422 25.1815 6.80205 25.219C6.75988 25.2565 6.70365 25.2753 6.63336 25.2753L6.32879 25.2753C6.30068 25.2753 6.27257 25.2753 6.25382 25.2753C6.23039 25.2753 6.21165 25.2753 6.19291 25.2799C6.17417 25.2799 6.15542 25.2846 6.13668 25.2893C6.11794 25.294 6.10388 25.2987 6.08514 25.3081L6.08045 25.3081L6.08045 25.1206L6.08514 25.1206C6.11794 25.1347 6.15542 25.1441 6.19291 25.1487C6.2304 25.1534 6.27257 25.1534 6.32879 25.1534L6.60525 25.1534C6.62868 25.1534 6.65211 25.1487 6.67553 25.1441C6.69896 25.1394 6.7177 25.13 6.73176 25.1159C6.7505 25.1019 6.75988 25.0878 6.76925 25.0644C6.77862 25.041 6.7833 25.0175 6.7833 24.9894C6.7833 24.9519 6.77393 24.9145 6.75988 24.877C6.74582 24.8395 6.72239 24.802 6.68959 24.7739L6.32411 24.7739C6.26788 24.7739 6.22102 24.7739 6.18822 24.7786C6.15074 24.7833 6.11794 24.7926 6.08045 24.8067L6.07577 24.8067L6.07577 24.8161Z" fill="#212428"/>
<path d="M8.4834 20.735L8.4834 26.6905" stroke="#212428" stroke-width="0.379305"/>
<path d="M7.24219 22.4404L12.3561 22.4408" stroke="#212428" stroke-width="0.379305"/>
<path fill-rule="evenodd" clip-rule="evenodd" d="M9.59007 28.1705C6.4085 28.5219 1.2074 28.2642 0.977806 27.402L0.977806 12.6515C0.977806 12.6515 0.930948 11.869 2.07894 11.5598L3.02544 11.4801L6.49284 11.4801L9.96023 11.4801L10.9067 11.5598C12.0594 11.869 12.0079 12.6515 12.0079 12.6515L12.0079 27.7403" stroke="#212428" stroke-width="0.566453" stroke-miterlimit="2.61313"/>
<path fill-rule="evenodd" clip-rule="evenodd" d="M0.999023 7.99843L0.999023 11.4705L6.49063 11.4705L11.9822 11.4705L11.9822 7.99843C11.3825 7.80164 6.49063 7.80164 6.49063 7.80164C6.49063 7.80164 1.59879 7.80164 0.999023 7.99843Z" stroke="#212428" stroke-width="0.566453" stroke-miterlimit="2.61313"/>
<path fill-rule="evenodd" clip-rule="evenodd" d="M1.86628 7.89969C1.86628 7.09375 1.81474 5.91765 1.9272 4.7884C2.07245 3.31241 2.48948 1.92077 3.64215 1.53186L6.4723 1.53186L9.30244 1.53186C11.3454 2.22065 11.0783 6.04416 11.0783 7.89969C9.48987 7.80597 6.49104 7.80597 6.49104 7.80597L6.47229 7.80597C6.22864 7.80597 3.37507 7.81066 1.86628 7.89969Z" stroke="#212428" stroke-width="0.566453" stroke-miterlimit="2.61313"/>
<path d="M1.86133 6.15673C4.47125 5.80062 8.45875 5.80062 11.064 6.15673" stroke="#212428" stroke-width="0.566453" stroke-miterlimit="2.61313"/>
<path d="M3.2627 0.6698L3.2627 5.92712" stroke="#212428" stroke-width="0.566453" stroke-miterlimit="2.61313" stroke-linecap="round" stroke-linejoin="round"/>
<path d="M4.54688 0.6698L4.54687 5.92712" stroke="#212428" stroke-width="0.566453" stroke-miterlimit="2.61313" stroke-linecap="round" stroke-linejoin="round"/>
<path d="M5.83594 0.6698L5.83997 5.7201" stroke="#212428" stroke-width="0.566453" stroke-miterlimit="2.61313" stroke-linecap="round" stroke-linejoin="round"/>
<path d="M7.12402 0.6698L7.11069 5.8897" stroke="#212428" stroke-width="0.566453" stroke-miterlimit="2.61313" stroke-linecap="round" stroke-linejoin="round"/>
<path d="M8.41309 0.6698L8.41309 5.92712" stroke="#212428" stroke-width="0.566453" stroke-miterlimit="2.61313" stroke-linecap="round" stroke-linejoin="round"/>
<path d="M9.69629 0.6698L9.69629 5.92712" stroke="#212428" stroke-width="0.566453" stroke-miterlimit="2.61313" stroke-linecap="round" stroke-linejoin="round"/>
</g>
<defs>
<clipPath id="clip0_1033_9422">
<rect width="12.7452" height="30" fill="white" transform="translate(0.292969)"/>
</clipPath>
</defs>
</svg>
