<svg width="34" height="30" viewBox="0 0 34 30" fill="none" xmlns="http://www.w3.org/2000/svg">
<g clip-path="url(#clip0_1033_10851)">
<path d="M16.464 1.06055H3.58523C2.33003 1.06055 1.3125 1.7389 1.3125 2.5757V26.8181C1.3125 27.6549 2.33003 28.3333 3.58523 28.3333H16.464C17.7192 28.3333 18.7367 27.6549 18.7367 26.8181V2.5757C18.7367 1.7389 17.7192 1.06055 16.464 1.06055Z" stroke="#212428" stroke-width="0.681818" stroke-miterlimit="2.61313" stroke-linecap="round" stroke-linejoin="round"/>
<path d="M14.38 3.78772H5.51634C4.70046 3.78772 4.03906 4.41389 4.03906 5.18632V20.5709C4.03906 21.3434 4.70046 21.9695 5.51634 21.9695H14.38C15.1958 21.9695 15.8572 21.3434 15.8572 20.5709V5.18632C15.8572 4.41389 15.1958 3.78772 14.38 3.78772Z" stroke="#212428" stroke-width="0.681818" stroke-miterlimit="2.61313" stroke-linecap="round" stroke-linejoin="round"/>
<path d="M8.88867 2.57605H11.1614" stroke="#212428" stroke-width="0.681818" stroke-miterlimit="2.61313" stroke-linecap="round" stroke-linejoin="round"/>
<path d="M10.0405 26.6969C10.8438 26.6969 11.495 26.0457 11.495 25.2424C11.495 24.4391 10.8438 23.7878 10.0405 23.7878C9.23716 23.7878 8.58594 24.4391 8.58594 25.2424C8.58594 26.0457 9.23716 26.6969 10.0405 26.6969Z" stroke="#212428" stroke-width="0.681818" stroke-miterlimit="2.61313" stroke-linecap="round" stroke-linejoin="round"/>
<path d="M27.828 7.87866H19.4947C16.9843 7.87866 14.9492 9.91373 14.9492 12.4241V20.7575C14.9492 23.2678 16.9843 25.3029 19.4947 25.3029H27.828C30.3384 25.3029 32.3735 23.2678 32.3735 20.7575V12.4241C32.3735 9.91373 30.3384 7.87866 27.828 7.87866Z" fill="#C7E5DB" stroke="#212428" stroke-width="0.681818" stroke-miterlimit="2.61313" stroke-linecap="round" stroke-linejoin="round"/>
<path fill-rule="evenodd" clip-rule="evenodd" d="M21.3398 14.9701C21.3398 14.4325 21.3869 13.8573 21.4812 13.3999C21.6981 12.3154 22.1885 11.245 23.2777 10.8819C24.4424 10.4953 25.5741 11.0988 26.1116 12.089C26.3002 12.438 26.5077 12.9425 26.5643 13.348C26.7246 14.508 26.7718 15.6915 26.5407 16.8467C26.3568 17.7662 26.0456 18.5254 25.2582 19.0441C24.98 19.228 24.6357 19.3506 24.2868 19.3883C24.0228 19.4166 23.7587 19.4166 23.5041 19.3647C22.1131 19.0865 21.5284 17.4786 21.4199 16.2102C21.3822 15.7858 21.3492 15.3944 21.3492 14.9654L21.3398 14.9701ZM19.4961 15.088C19.4961 15.8283 19.6611 16.4271 19.8875 16.9505C19.9158 17.0165 19.9488 17.0778 19.9818 17.1344C20.1044 17.3796 20.1421 17.4409 20.293 17.6719C20.4297 17.8794 20.6325 18.1293 20.8022 18.3038C21.3963 18.8979 22.1649 19.3364 22.9901 19.5109C23.787 19.6806 24.2868 19.6901 25.0837 19.492C25.6259 19.3553 26.2012 19.1148 26.6586 18.8036C26.7718 18.7281 26.8802 18.6433 26.9839 18.5584C27.0358 18.516 27.083 18.4782 27.1301 18.4264C27.1867 18.3698 27.2291 18.3415 27.2857 18.2896C27.3376 18.2378 27.3659 18.1953 27.4177 18.1434C27.7101 17.8511 28.0354 17.3041 28.1863 16.9269C28.3419 16.5403 28.4928 15.998 28.5305 15.5595C28.5447 15.3944 28.573 15.2106 28.573 15.0314C28.573 14.7107 28.5023 14.3147 28.4315 14.0459C28.3702 13.796 28.2382 13.4329 28.1298 13.2066C27.8751 12.702 27.6016 12.2824 27.1961 11.8721C27.0217 11.6977 26.7812 11.4949 26.5831 11.3582C26.1022 11.0328 25.5599 10.7923 24.9894 10.6697C23.7917 10.4151 22.7968 10.5896 21.7641 11.1554C21.4765 11.311 21.3398 11.4289 21.104 11.6222C20.9154 11.7731 20.8258 11.8816 20.6749 12.0419L20.5476 12.1928C20.4627 12.3012 20.3826 12.4003 20.3071 12.5181C19.7837 13.3056 19.4961 14.1166 19.4961 15.088Z" fill="#212428"/>
<path fill-rule="evenodd" clip-rule="evenodd" d="M24.0611 23.028C24.0611 23.2732 24.0187 23.2308 24.2827 23.2308C24.3535 23.2308 24.3204 23.0799 24.344 22.8819C24.41 22.2972 24.7165 21.8068 25.1645 21.4484C25.4427 21.2268 25.7586 21.0618 26.1028 20.9345C26.3103 20.859 26.5083 20.8072 26.7347 20.7459C27.3476 20.5903 27.9512 20.5667 28.5878 20.5667V18.7089C27.5645 18.7089 26.5413 19.1238 25.7633 19.7604C25.6266 19.8688 25.3861 20.0904 25.2729 20.2225C25.2446 20.2602 25.2399 20.2696 25.2069 20.3026C25.0702 20.4441 24.8438 20.7694 24.7354 20.9298C24.6599 21.0476 24.5986 21.1608 24.5326 21.2834C24.2733 21.7455 24.0705 22.4905 24.0705 23.028H24.0611Z" fill="#212428"/>
</g>
<defs>
<clipPath id="clip0_1033_10851">
<rect width="32.7273" height="30" fill="white" transform="translate(0.302734)"/>
</clipPath>
</defs>
</svg>
