<svg width="25" height="32" viewBox="0 0 25 32" fill="none" xmlns="http://www.w3.org/2000/svg">
<path fill-rule="evenodd" clip-rule="evenodd" d="M4.36211 25.8136C-0.503988 18.4652 -2.07211 1.34242 12.6668 1.16663C27.4058 1.34242 25.8377 18.4652 20.9645 25.8136C16.2391 32.951 9.09461 32.951 4.36211 25.8136Z" fill="#C7E5DB" stroke="#212428" stroke-width="0.75" stroke-miterlimit="2.61313" stroke-linecap="round" stroke-linejoin="round"/>
<path fill-rule="evenodd" clip-rule="evenodd" d="M11.725 5.66208C11.725 5.40399 11.7477 5.12779 11.793 4.90819C11.8971 4.38749 12.1326 3.87357 12.6555 3.69925C13.2147 3.51361 13.7581 3.80339 14.0161 4.27882C14.1067 4.44635 14.2063 4.68859 14.2335 4.88329C14.3105 5.44022 14.3331 6.00846 14.2222 6.56313C14.1339 7.0046 13.9845 7.36909 13.6064 7.61812C13.4728 7.70642 13.3075 7.76528 13.14 7.78339C13.0132 7.79697 12.8864 7.79697 12.7642 7.77207C12.0963 7.6385 11.8156 6.8665 11.7635 6.2575C11.7454 6.05374 11.7296 5.86584 11.7296 5.65982L11.725 5.66208ZM10.8398 5.71868C10.8398 6.07412 10.9191 6.36164 11.0278 6.61294C11.0413 6.64463 11.0572 6.67406 11.073 6.70123C11.1319 6.81895 11.15 6.84838 11.2224 6.95932C11.2881 7.05893 11.3855 7.17892 11.467 7.26268C11.7522 7.54794 12.1212 7.75849 12.5174 7.84225C12.9 7.92375 13.14 7.92828 13.5226 7.8332C13.783 7.76754 14.0592 7.65208 14.2788 7.50266C14.3331 7.46644 14.3852 7.42569 14.435 7.38494C14.4599 7.36456 14.4825 7.34645 14.5052 7.32155C14.5323 7.29438 14.5527 7.2808 14.5799 7.25589C14.6048 7.23099 14.6184 7.21061 14.6433 7.18571C14.7836 7.04535 14.9398 6.78273 15.0123 6.60161C15.087 6.41597 15.1594 6.15562 15.1775 5.94507C15.1843 5.86584 15.1979 5.77754 15.1979 5.69151C15.1979 5.53757 15.164 5.3474 15.13 5.21835C15.1006 5.09836 15.0372 4.92404 14.9851 4.81537C14.8629 4.57313 14.7315 4.37164 14.5369 4.17468C14.4531 4.09091 14.3376 3.99356 14.2425 3.92791C14.0116 3.7717 13.7513 3.65623 13.4773 3.59737C12.9023 3.47512 12.4246 3.55889 11.9288 3.83056C11.7907 3.90527 11.725 3.96187 11.6118 4.05469C11.5213 4.12713 11.4783 4.1792 11.4058 4.25618L11.3447 4.32862C11.304 4.38069 11.2655 4.42824 11.2292 4.48484C10.9779 4.86291 10.8398 5.25231 10.8398 5.71868Z" fill="#212428"/>
<path fill-rule="evenodd" clip-rule="evenodd" d="M13.0315 9.5308C13.0315 9.64852 13.0111 9.62815 13.1379 9.62815C13.1718 9.62815 13.156 9.5557 13.1673 9.46061C13.199 9.17989 13.3462 8.94444 13.5612 8.77238C13.6948 8.66597 13.8465 8.58673 14.0118 8.52561C14.1114 8.48939 14.2065 8.46448 14.3151 8.43505C14.6094 8.36034 14.8992 8.34902 15.2049 8.34902V7.45703C14.7136 7.45703 14.2223 7.65626 13.8488 7.96189C13.7831 8.01396 13.6676 8.12036 13.6133 8.18375C13.5997 8.20187 13.5975 8.20639 13.5816 8.22224C13.516 8.29016 13.4073 8.44637 13.3552 8.52334C13.319 8.57994 13.2896 8.63428 13.2579 8.69314C13.1334 8.91501 13.036 9.27271 13.036 9.5308H13.0315Z" fill="#212428"/>
<path fill-rule="evenodd" clip-rule="evenodd" d="M14.2695 12.9312C14.2695 12.9312 14.2695 11.5389 16.351 10.9201C18.4324 10.3013 21.5968 10.5333 21.5757 12.1155C21.5546 13.7047 18.5379 15.0268 16.7448 14.9635C14.9516 14.9072 14.2695 13.318 14.2695 12.9312Z" fill="white" stroke="#212428" stroke-width="0.75" stroke-miterlimit="2.61313" stroke-linecap="round" stroke-linejoin="round"/>
<path fill-rule="evenodd" clip-rule="evenodd" d="M12.6661 26.3125C12.6661 26.3125 8.56652 26.1157 7.44141 23.3099C7.44141 23.3099 8.74935 21.9949 10.2261 22.2622C11.7098 22.5364 12.0192 22.7895 12.6661 22.7474C13.3131 22.7895 13.6225 22.5364 15.0992 22.2622C16.5759 21.9949 17.8909 23.3099 17.8909 23.3099C16.7658 26.1157 12.6661 26.3125 12.6661 26.3125Z" fill="white" stroke="#212428" stroke-width="0.75" stroke-miterlimit="2.61313" stroke-linecap="round" stroke-linejoin="round"/>
<path fill-rule="evenodd" clip-rule="evenodd" d="M9.5791 18.5847C12.0614 19.7731 13.2709 19.7731 15.7531 18.5847H9.5791Z" fill="#C7E5DB"/>
<path d="M9.5791 18.5847C12.0614 19.7731 13.2709 19.7731 15.7531 18.5847" stroke="#212428" stroke-width="0.75" stroke-miterlimit="2.61313" stroke-linecap="round" stroke-linejoin="round"/>
<path fill-rule="evenodd" clip-rule="evenodd" d="M11.0631 12.9312C11.0631 12.9312 11.0631 11.5389 8.98167 10.9201C6.90022 10.3013 3.73585 10.5333 3.75694 12.1155C3.77804 13.7047 6.79474 15.0268 8.58788 14.9635C10.374 14.9072 11.0631 13.318 11.0631 12.9312Z" fill="white" stroke="#212428" stroke-width="0.75" stroke-miterlimit="2.61313" stroke-linecap="round" stroke-linejoin="round"/>
</svg>
