<svg width="25" height="32" viewBox="0 0 25 32" fill="none" xmlns="http://www.w3.org/2000/svg">
<path fill-rule="evenodd" clip-rule="evenodd" d="M4.36309 25.6471C-0.503012 18.2987 -2.07113 1.17592 12.6678 1.00012C27.4067 1.17592 25.8386 18.2987 20.9655 25.6471C16.24 32.7845 9.09558 32.7845 4.36309 25.6471V25.6471Z" stroke="#212428" stroke-width="0.75" stroke-miterlimit="2.61313" stroke-linecap="round" stroke-linejoin="round"/>
<path fill-rule="evenodd" clip-rule="evenodd" d="M11.726 5.49546C11.726 5.23737 11.7487 4.96117 11.7939 4.74156C11.8981 4.22086 12.1335 3.70695 12.6565 3.53262C13.2157 3.34698 13.759 3.63676 14.0171 4.11219C14.1077 4.27972 14.2073 4.52196 14.2345 4.71666C14.3114 5.27359 14.3341 5.84184 14.2231 6.3965C14.1348 6.83797 13.9854 7.20246 13.6074 7.4515C13.4738 7.53979 13.3085 7.59865 13.141 7.61676C13.0142 7.63035 12.8874 7.63035 12.7652 7.60544C12.0973 7.47187 11.8166 6.69987 11.7645 6.09087C11.7464 5.88712 11.7305 5.69921 11.7305 5.49319L11.726 5.49546ZM10.8408 5.55205C10.8408 5.90749 10.9201 6.19501 11.0287 6.44631C11.0423 6.478 11.0582 6.50744 11.074 6.5346C11.1329 6.65233 11.151 6.68176 11.2234 6.79269C11.2891 6.8923 11.3864 7.01229 11.4679 7.09606C11.7532 7.38131 12.1222 7.59186 12.5184 7.67563C12.901 7.75713 13.141 7.76166 13.5236 7.66657C13.7839 7.60092 14.0601 7.48546 14.2797 7.33604C14.3341 7.29981 14.3861 7.25906 14.436 7.21831C14.4609 7.19794 14.4835 7.17982 14.5061 7.15492C14.5333 7.12775 14.5537 7.11417 14.5808 7.08927C14.6057 7.06436 14.6193 7.04399 14.6442 7.01908C14.7846 6.87872 14.9408 6.6161 15.0133 6.43499C15.088 6.24935 15.1604 5.98899 15.1785 5.77845C15.1853 5.69921 15.1989 5.61092 15.1989 5.52489C15.1989 5.37094 15.1649 5.18077 15.131 5.05172C15.1015 4.93174 15.0382 4.75741 14.9861 4.64874C14.8638 4.4065 14.7325 4.20501 14.5378 4.00805C14.4541 3.92428 14.3386 3.82694 14.2435 3.76128C14.0126 3.60507 13.7522 3.48961 13.4783 3.43075C12.9033 3.30849 12.4256 3.39226 11.9298 3.66393C11.7917 3.73864 11.726 3.79524 11.6128 3.88806C11.5223 3.96051 11.4793 4.01258 11.4068 4.08955L11.3457 4.162C11.3049 4.21407 11.2664 4.26161 11.2302 4.31821C10.9789 4.69629 10.8408 5.08568 10.8408 5.55205Z" fill="#212428"/>
<path fill-rule="evenodd" clip-rule="evenodd" d="M13.0315 9.36417C13.0315 9.4819 13.0111 9.46152 13.1379 9.46152C13.1718 9.46152 13.156 9.38907 13.1673 9.29399C13.199 9.01326 13.3462 8.77781 13.5612 8.60575C13.6948 8.49935 13.8465 8.42011 14.0118 8.35898C14.1114 8.32276 14.2065 8.29786 14.3151 8.26843C14.6094 8.19372 14.8992 8.1824 15.2049 8.1824V7.29041C14.7136 7.29041 14.2223 7.48963 13.8488 7.79526C13.7831 7.84733 13.6676 7.95374 13.6133 8.01713C13.5997 8.03524 13.5975 8.03977 13.5816 8.05562C13.516 8.12353 13.4073 8.27975 13.3552 8.35672C13.319 8.41332 13.2896 8.46765 13.2579 8.52651C13.1334 8.74838 13.036 9.10608 13.036 9.36417H13.0315Z" fill="#212428"/>
<path fill-rule="evenodd" clip-rule="evenodd" d="M14.2695 12.7647C14.2695 12.7647 14.2695 11.3724 16.351 10.7536C18.4324 10.1348 21.5968 10.3668 21.5757 11.949C21.5546 13.5382 18.5379 14.8603 16.7448 14.797C14.9516 14.7407 14.2695 13.1515 14.2695 12.7647Z" fill="white" stroke="#212428" stroke-width="0.75" stroke-miterlimit="2.61313" stroke-linecap="round" stroke-linejoin="round"/>
<path fill-rule="evenodd" clip-rule="evenodd" d="M12.6661 26.1459C12.6661 26.1459 8.56652 25.949 7.44141 23.1433C7.44141 23.1433 8.74935 21.8283 10.2261 22.0955C11.7098 22.3698 12.0192 22.6229 12.6661 22.5807C13.3131 22.6229 13.6225 22.3698 15.0992 22.0955C16.5759 21.8283 17.8909 23.1433 17.8909 23.1433C16.7658 25.949 12.6661 26.1459 12.6661 26.1459Z" fill="white" stroke="#212428" stroke-width="0.75" stroke-miterlimit="2.61313" stroke-linecap="round" stroke-linejoin="round"/>
<path d="M9.5791 18.4181C12.0614 19.6065 13.2709 19.6065 15.7531 18.4181" stroke="#212428" stroke-width="0.75" stroke-miterlimit="2.61313" stroke-linecap="round" stroke-linejoin="round"/>
<path fill-rule="evenodd" clip-rule="evenodd" d="M11.0631 12.7647C11.0631 12.7647 11.0631 11.3724 8.98167 10.7536C6.90022 10.1348 3.73585 10.3668 3.75694 11.949C3.77804 13.5382 6.79474 14.8603 8.58788 14.797C10.374 14.7407 11.0631 13.1515 11.0631 12.7647Z" fill="white" stroke="#212428" stroke-width="0.75" stroke-miterlimit="2.61313" stroke-linecap="round" stroke-linejoin="round"/>
</svg>
