<svg width="31" height="30" viewBox="0 0 31 30" fill="none" xmlns="http://www.w3.org/2000/svg">
<g clip-path="url(#clip0_1033_9744)">
<path fill-rule="evenodd" clip-rule="evenodd" d="M1.57422 14.2334L12.13 17.9537L22.6858 14.2334L12.2876 10.5132L1.57422 14.2334Z" stroke="#212428" stroke-width="0.714286" stroke-miterlimit="2.61313" stroke-linecap="round" stroke-linejoin="round"/>
<path d="M1.57422 14.2332V25.9891L11.9725 29.5606L22.6858 25.8403V14.2332" stroke="#212428" stroke-width="0.714286" stroke-miterlimit="2.61313" stroke-linecap="round" stroke-linejoin="round"/>
<path d="M12.1309 17.9534V29.5605" stroke="#212428" stroke-width="0.714286" stroke-miterlimit="2.61313" stroke-linecap="round" stroke-linejoin="round"/>
<path fill-rule="evenodd" clip-rule="evenodd" d="M25.837 18.6976C25.837 18.6976 31.8239 9.91785 18.5897 8.13213L17.6444 10.3643L12.918 4.26307L20.953 0.989258L20.0077 3.2214C20.0077 3.2214 27.8851 4.41188 29.7757 9.62023C31.6663 14.8286 25.6794 18.6976 25.6794 18.6976H25.837Z" fill="#C7E7DC" stroke="#212428" stroke-width="0.714286" stroke-miterlimit="2.61313" stroke-linecap="round" stroke-linejoin="round"/>
<path fill-rule="evenodd" clip-rule="evenodd" d="M5.35352 15.5729V18.5491L8.1894 19.5907V16.6145L5.35352 15.5729Z" stroke="#212428" stroke-width="0.714286" stroke-miterlimit="2.61313" stroke-linecap="round" stroke-linejoin="round"/>
<path fill-rule="evenodd" clip-rule="evenodd" d="M5.35352 15.5727L9.29224 14.0846L12.1459 14.8923L8.1894 16.6144L5.35352 15.5727Z" stroke="#212428" stroke-width="0.714286" stroke-miterlimit="2.61313" stroke-linecap="round" stroke-linejoin="round"/>
</g>
<defs>
<clipPath id="clip0_1033_9744">
<rect width="30" height="30" fill="white" transform="translate(0.666016)"/>
</clipPath>
</defs>
</svg>
