<svg width="31" height="30" viewBox="0 0 31 30" fill="none" xmlns="http://www.w3.org/2000/svg">
<g clip-path="url(#clip0_1033_9884)">
<path fill-rule="evenodd" clip-rule="evenodd" d="M1.57617 14.2334L12.132 17.9537L22.6878 14.2334L12.2895 10.5132L1.57617 14.2334Z" stroke="#212428" stroke-width="0.714286" stroke-miterlimit="2.61313" stroke-linecap="round" stroke-linejoin="round"/>
<path d="M1.57617 14.2332V25.9891L11.9744 29.5606L22.6878 25.8403V14.2332" stroke="#212428" stroke-width="0.714286" stroke-miterlimit="2.61313" stroke-linecap="round" stroke-linejoin="round"/>
<path d="M12.1328 17.9534V29.5605" stroke="#212428" stroke-width="0.714286" stroke-miterlimit="2.61313" stroke-linecap="round" stroke-linejoin="round"/>
<path fill-rule="evenodd" clip-rule="evenodd" d="M25.8389 18.6976C25.8389 18.6976 31.8258 9.91785 18.5917 8.13213L17.6464 10.3643L12.9199 4.26307L20.9549 0.989258L20.0096 3.2214C20.0096 3.2214 27.8871 4.41188 29.7777 9.62023C31.6683 14.8286 25.6814 18.6976 25.6814 18.6976H25.8389Z" stroke="#212428" stroke-width="0.714286" stroke-miterlimit="2.61313" stroke-linecap="round" stroke-linejoin="round"/>
<path fill-rule="evenodd" clip-rule="evenodd" d="M5.35547 15.5729V18.5491L8.19135 19.5907V16.6145L5.35547 15.5729Z" stroke="#212428" stroke-width="0.714286" stroke-miterlimit="2.61313" stroke-linecap="round" stroke-linejoin="round"/>
<path fill-rule="evenodd" clip-rule="evenodd" d="M5.35547 15.5727L9.2942 14.0846L12.1479 14.8923L8.19135 16.6144L5.35547 15.5727Z" stroke="#212428" stroke-width="0.714286" stroke-miterlimit="2.61313" stroke-linecap="round" stroke-linejoin="round"/>
</g>
<defs>
<clipPath id="clip0_1033_9884">
<rect width="30" height="30" fill="white" transform="translate(0.666992)"/>
</clipPath>
</defs>
</svg>
