<svg width="14" height="15" viewBox="0 0 14 15" fill="none" xmlns="http://www.w3.org/2000/svg">
<g clip-path="url(#clip0_4637_28079)">
<path d="M10.875 5.3299C11.9105 5.3299 12.75 4.49043 12.75 3.4549C12.75 2.41936 11.9105 1.5799 10.875 1.5799C9.83947 1.5799 9 2.41936 9 3.4549C9 4.49043 9.83947 5.3299 10.875 5.3299Z" stroke="#212428" stroke-width="1.73077" stroke-linecap="round" stroke-linejoin="round"/>
<path d="M3.375 9.7049C4.41053 9.7049 5.25 8.86543 5.25 7.8299C5.25 6.79436 4.41053 5.9549 3.375 5.9549C2.33947 5.9549 1.5 6.79436 1.5 7.8299C1.5 8.86543 2.33947 9.7049 3.375 9.7049Z" stroke="#212428" stroke-width="1.73077" stroke-linecap="round" stroke-linejoin="round"/>
<path d="M10.875 14.0799C11.9105 14.0799 12.75 13.2404 12.75 12.2049C12.75 11.1694 11.9105 10.3299 10.875 10.3299C9.83947 10.3299 9 11.1694 9 12.2049C9 13.2404 9.83947 14.0799 10.875 14.0799Z" stroke="#212428" stroke-width="1.73077" stroke-linecap="round" stroke-linejoin="round"/>
<path d="M4.99414 8.77362L9.26289 11.2611" stroke="#212428" stroke-width="1.73077" stroke-linecap="round" stroke-linejoin="round"/>
<path d="M9.25664 4.39868L4.99414 6.88618" stroke="#212428" stroke-width="1.73077" stroke-linecap="round" stroke-linejoin="round"/>
</g>
<defs>
<clipPath id="clip0_4637_28079">
<rect width="13.75" height="15" fill="white" transform="translate(0.25)"/>
</clipPath>
</defs>
</svg>
