<svg width="39" height="26" viewBox="0 0 39 26" fill="none" xmlns="http://www.w3.org/2000/svg">
<path fill-rule="evenodd" clip-rule="evenodd" d="M20.1754 0.921143H23.3139V21.0122H14.2705C13.9341 18.7959 12.041 17.0975 9.75775 17.0975C7.47095 17.0975 5.58139 18.7959 5.24499 21.0122H3.65247C3.71688 20.7297 3.74909 21.0629 3.74909 20.1358C3.74909 19.2051 2.85799 17.2315 1.5625 16.5906V15.1529H20.1754V0.921143V0.921143Z" stroke="#212428" stroke-width="0.590909" stroke-miterlimit="2.61313" stroke-linecap="round" stroke-linejoin="round"/>
<path fill-rule="evenodd" clip-rule="evenodd" d="M9.75884 18.8793C11.3084 18.8793 12.5645 20.1504 12.5645 21.7184C12.5645 23.2864 11.3084 24.5575 9.75884 24.5575C8.20925 24.5575 6.95312 23.2864 6.95312 21.7184C6.95312 20.1504 8.20925 18.8793 9.75884 18.8793Z" stroke="#212428" stroke-width="0.590909" stroke-miterlimit="2.61313" stroke-linecap="round" stroke-linejoin="round"/>
<path fill-rule="evenodd" clip-rule="evenodd" d="M30.9258 18.8793C32.4754 18.8793 33.7315 20.1504 33.7315 21.7184C33.7315 23.2864 32.4754 24.5575 30.9258 24.5575C29.3762 24.5575 28.1201 23.2864 28.1201 21.7184C28.1201 20.1504 29.3762 18.8793 30.9258 18.8793Z" stroke="#212428" stroke-width="0.590909" stroke-miterlimit="2.61313" stroke-linecap="round" stroke-linejoin="round"/>
<path fill-rule="evenodd" clip-rule="evenodd" d="M24.8389 5.60718H32.007L37.0172 12.3464V21.0122H35.4426C35.1062 18.796 33.2131 17.0976 30.9298 17.0976C28.643 17.0976 26.7499 18.796 26.4171 21.0122H24.8424V5.60718H24.8389ZM27.0577 7.94292V13.0345H34.7948L31.0086 7.94292H27.0577Z" stroke="#212428" stroke-width="0.590909" stroke-miterlimit="2.61313" stroke-linecap="round" stroke-linejoin="round"/>
<path d="M18.5186 0.921143H1.77734V13.5161H18.5186V0.921143Z" stroke="#212428" stroke-width="0.590909" stroke-miterlimit="2.61313" stroke-linecap="round" stroke-linejoin="round"/>
<path fill-rule="evenodd" clip-rule="evenodd" d="M8.10142 5.73761C8.10142 5.32478 8.13721 4.88298 8.20879 4.53171C8.37341 3.69881 8.74559 2.87677 9.57227 2.59793C10.4562 2.30098 11.3151 2.76451 11.7231 3.52499C11.8662 3.79296 12.0237 4.18044 12.0666 4.49188C12.1883 5.38272 12.2241 6.29167 12.0487 7.17889C11.9092 7.88505 11.673 8.46808 11.0753 8.86642C10.8642 9.00765 10.6029 9.10181 10.3381 9.13078C10.1377 9.1525 9.9373 9.1525 9.74405 9.11267C8.68833 8.89901 8.24457 7.66415 8.16226 6.69001C8.13363 6.36409 8.10858 6.06352 8.10858 5.73399L8.10142 5.73761ZM6.70215 5.82814C6.70215 6.39669 6.8274 6.85659 6.99918 7.25856C7.02065 7.30926 7.0457 7.35633 7.07076 7.39979C7.1638 7.5881 7.19243 7.63517 7.30695 7.81262C7.41073 7.97196 7.56462 8.16389 7.69345 8.29787C8.14437 8.75416 8.7277 9.09094 9.35397 9.22493C9.95878 9.3553 10.3381 9.36254 10.9429 9.21044C11.3545 9.10543 11.7911 8.92074 12.1382 8.68173C12.2241 8.62379 12.3064 8.55861 12.3851 8.49343C12.4245 8.46083 12.4603 8.43186 12.4961 8.39203C12.539 8.34857 12.5712 8.32685 12.6142 8.28701C12.6535 8.24718 12.675 8.21458 12.7144 8.17475C12.9363 7.95023 13.1832 7.53016 13.2977 7.24045C13.4158 6.9435 13.5303 6.52705 13.559 6.19027C13.5697 6.06353 13.5912 5.92229 13.5912 5.78468C13.5912 5.53844 13.5375 5.23425 13.4838 5.02783C13.4373 4.8359 13.3371 4.55706 13.2548 4.38324C13.0615 3.99576 12.854 3.67346 12.5462 3.35841C12.4138 3.22442 12.2313 3.0687 12.0809 2.96368C11.7159 2.71381 11.3044 2.52912 10.8713 2.43497C9.96235 2.23942 9.20725 2.37341 8.42351 2.80797C8.20521 2.92747 8.10142 3.018 7.92249 3.16648C7.77934 3.28236 7.71134 3.36565 7.59683 3.48877L7.5002 3.60465C7.43578 3.68795 7.37495 3.76399 7.31769 3.85452C6.92045 4.45928 6.70215 5.08215 6.70215 5.82814Z" fill="#212428"/>
<path fill-rule="evenodd" clip-rule="evenodd" d="M10.166 11.9264C10.166 12.1147 10.1338 12.0821 10.3342 12.0821C10.3878 12.0821 10.3628 11.9662 10.3807 11.8141C10.4308 11.3651 10.6634 10.9885 11.0034 10.7132C11.2145 10.543 11.4543 10.4163 11.7155 10.3185C11.873 10.2606 12.0233 10.2207 12.1951 10.1737C12.6603 10.0542 13.1184 10.036 13.6015 10.036V8.60925C12.825 8.60925 12.0484 8.92793 11.4579 9.41681C11.3541 9.5001 11.1716 9.6703 11.0857 9.77169C11.0642 9.80066 11.0606 9.80791 11.0356 9.83326C10.9318 9.94189 10.76 10.1918 10.6777 10.3149C10.6205 10.4054 10.5739 10.4923 10.5238 10.5865C10.327 10.9414 10.1731 11.5135 10.1731 11.9264H10.166Z" fill="#212428"/>
</svg>
