<svg width="27" height="30" viewBox="0 0 27 30" fill="none" xmlns="http://www.w3.org/2000/svg">
<path fill-rule="evenodd" clip-rule="evenodd" d="M13.7885 28.3614C13.7885 28.3614 2.29102 23.705 2.29102 6.74273C2.29102 6.74273 9.95597 6.24383 13.7885 1.08862C17.7876 6.24383 25.2859 6.74273 25.2859 6.74273C25.2859 23.8713 13.7885 28.3614 13.7885 28.3614Z" stroke="#212428" stroke-width="0.681818" stroke-miterlimit="2.61313" stroke-linecap="round" stroke-linejoin="round"/>
<path d="M13.7882 19.8412C16.6138 19.8412 18.9045 17.5506 18.9045 14.7249C18.9045 11.8993 16.6138 9.60864 13.7882 9.60864C10.9625 9.60864 8.67188 11.8993 8.67188 14.7249C8.67188 17.5506 10.9625 19.8412 13.7882 19.8412Z" fill="#C7E5DB"/>
<path d="M15.8814 13.2861L13.0035 16.1641L11.6953 14.8559" stroke="#212428" stroke-width="0.639538" stroke-linecap="round" stroke-linejoin="round"/>
</svg>
