<svg width="61" height="31" viewBox="0 0 61 31" fill="none" xmlns="http://www.w3.org/2000/svg">
<path d="M22.4265 24.6846C20.9301 24.6846 19.5454 24.815 18.2947 25.0547C17.044 25.2943 15.9495 25.6864 15.0115 26.1875C14.0958 26.7103 13.3591 27.3642 12.8455 28.1484C12.3318 28.9327 12.0632 29.8912 12.0632 30.9805H11.4607V30.7412C11.5054 29.4123 11.7732 28.1262 12.2869 26.9062C12.8675 25.6212 13.6491 24.4668 14.6316 23.4648C15.6143 22.4627 16.776 21.678 18.116 21.0898C19.456 20.5016 20.8855 20.1963 22.4265 20.1963V24.6846ZM54.4539 8.01953C55.3693 8.01957 56.1955 8.19356 56.9324 8.54199C57.6693 8.89052 58.3393 9.28298 58.8083 9.87109C60.1001 11.5438 60.1266 12.9133 60.1267 12.9209L51.7292 16.6465C51.9749 17.3215 52.2874 17.8877 52.6892 18.3232C53.1359 18.7807 53.6497 19.1298 54.2527 19.3477C54.8779 19.5654 55.5255 19.6738 56.24 19.6738C57.1557 19.6738 57.938 19.5221 58.5857 19.1953C59.2333 18.8686 59.7471 18.4975 60.1267 18.04L60.3054 18.1494C59.9034 19.3693 59.2107 20.4147 58.2058 21.2207C57.2008 22.0267 55.9048 22.4404 54.3191 22.4404C53.2921 22.4404 52.3767 22.2449 51.5505 21.8965C50.7242 21.5262 50.0091 21.0467 49.4285 20.415C48.8255 19.8051 48.3788 19.0644 48.0662 18.2148C47.7535 17.387 47.5974 16.4715 47.5974 15.4912C47.5975 14.3585 47.7978 13.3563 48.1775 12.4414C48.5571 11.5266 49.0708 10.7423 49.696 10.0889C50.3214 9.43532 51.0591 8.91301 51.8855 8.56445C52.7118 8.19415 53.5605 8.01953 54.4539 8.01953ZM11.3718 0.980469C12.8235 0.980482 14.2309 1.26396 15.5486 1.80859C16.8884 2.37499 18.072 3.13727 19.0769 4.0957C20.1043 5.07607 20.9085 6.20945 21.5115 7.5166C22.1144 8.82359 22.4275 10.2177 22.4275 11.7207C22.4275 13.2239 22.1145 14.6186 21.5115 15.9258C20.9085 17.2329 20.0819 18.3657 19.0769 19.3242C18.0497 20.2827 16.8884 21.0449 15.5486 21.6113C14.2979 22.1124 12.9793 22.3962 11.6169 22.418C11.588 22.4194 10.9326 22.4374 10.5457 22.3955C9.36195 22.3084 8.2671 22.047 7.19507 21.6113C5.87758 21.045 4.69411 20.2826 3.68921 19.3242C2.68425 18.3657 1.87997 17.2328 1.25464 15.9258C0.673956 14.6404 0.361084 13.2239 0.361084 11.7207C0.361109 10.2394 0.674165 8.82364 1.2771 7.5166C1.88008 6.20953 2.68342 5.07603 3.71069 4.0957C4.71568 3.11538 5.89989 2.35324 7.21753 1.80859C8.53523 1.26395 9.92012 0.980469 11.3718 0.980469ZM27.988 17.5596C27.988 18.3656 28.167 18.9976 28.5466 19.4551C28.9262 19.9124 29.4845 20.1298 30.199 20.1299C30.8243 20.1299 31.3165 19.9778 31.7185 19.6729C32.1204 19.3679 32.4553 18.9753 32.7009 18.4961V8.43164H36.363V22.0039H32.8572V19.0195L32.8347 18.9971C32.6337 19.3892 32.3877 19.7814 32.0974 20.1953C31.8071 20.6092 31.4945 20.9584 31.0925 21.2852C30.7129 21.6118 30.2663 21.8948 29.7751 22.0908C29.2838 22.3087 28.7248 22.418 28.1218 22.418C26.8714 22.4179 25.9335 22.0038 25.2859 21.1543C24.6382 20.3047 24.3259 19.1934 24.3259 17.7773V8.43164H27.988V17.5596ZM47.3298 8.01758V12.0703H47.0398C46.9058 11.896 46.7044 11.7433 46.4587 11.5908C46.2131 11.4601 45.9679 11.3286 45.7 11.2197C45.4543 11.1108 45.1859 11.0243 44.9402 10.959C44.6946 10.8937 44.4938 10.8497 44.3152 10.8496C44.0918 10.8496 43.8233 10.937 43.533 11.1113C43.2651 11.2856 42.9747 11.525 42.7068 11.8516L42.7292 22.0049H38.9998V16.2314L39.0222 8.43164H42.7068V11.2197C42.9747 10.9366 43.2653 10.6102 43.5779 10.2617C43.9352 9.86954 44.2931 9.49869 44.6951 9.17188C45.0746 8.82343 45.4987 8.54007 45.9675 8.32227C46.4365 8.10441 46.8162 7.99582 47.3298 8.01758ZM11.3943 1.52539C10.2553 1.52539 9.27252 1.78674 8.46851 2.30957C7.64223 2.83238 6.9724 3.52946 6.45874 4.44434C5.94506 5.35934 5.56464 6.42715 5.29663 7.66895C5.05099 8.91066 4.91675 10.2615 4.91675 11.6992C4.91676 13.137 5.05097 14.4877 5.29663 15.7295C5.5423 16.9713 5.92274 18.0384 6.45874 18.9316C6.97242 19.8249 7.64215 20.5438 8.46851 21.0449C9.27253 21.5896 10.2551 21.8291 11.3718 21.8291C12.5108 21.8291 13.4936 21.5684 14.2976 21.0674C15.1239 20.5664 15.7937 19.8472 16.3074 18.9541C16.8434 18.0609 17.2228 16.9928 17.4685 15.751C17.7141 14.5311 17.8484 13.1805 17.8484 11.6992C17.8484 10.2396 17.7142 8.88828 17.4685 7.64648C17.2452 6.42668 16.8658 5.33743 16.3298 4.44434C15.7939 3.55125 15.124 2.8324 14.3201 2.30957C13.4938 1.78675 12.5332 1.52543 11.3943 1.52539ZM54.3416 8.58594C53.8728 8.586 53.4488 8.7166 53.0916 8.95605C52.7119 9.19565 52.4212 9.5224 52.1755 9.95801C51.9299 10.3719 51.7285 10.8731 51.5945 11.4395C51.4605 12.0058 51.3716 12.594 51.3269 13.2256V13.792C51.3269 14.7286 51.4383 15.426 51.6169 16.123L56.6423 13.792V12.9209C56.6423 11.5703 56.4633 10.1324 56.0613 9.52246C55.6593 8.89081 55.1008 8.58594 54.3416 8.58594Z" fill="black"/>
</svg>
