<svg width="51" height="46" viewBox="0 0 51 46" fill="none" xmlns="http://www.w3.org/2000/svg">
<path d="M33.3359 24.9214V34.4556L24.9434 39.228L16.5518 34.4556V24.9214L24.9434 20.1489L33.3359 24.9214Z" stroke="#212428" stroke-width="0.855003"/>
<path d="M42.1543 10.6328V20.167L33.7617 24.9395L25.3701 20.167V10.6328L33.7617 5.86035L42.1543 10.6328Z" stroke="#212428" stroke-width="0.855003"/>
<path d="M24.9497 10.3841L16.1301 5.36816L7.31055 10.3841" stroke="#212428" stroke-width="0.855003"/>
<circle cx="25.0967" cy="39.7208" r="1.70049" fill="#F6F6F7" stroke="#212428" stroke-width="0.855003"/>
<circle cx="33.6104" cy="34.8565" r="1.70049" fill="#F6F6F7" stroke="#212428" stroke-width="0.855003"/>
<circle cx="33.6104" cy="24.5206" r="1.70049" fill="#F6F6F7" stroke="#212428" stroke-width="0.855003"/>
<circle cx="25.0967" cy="20.2647" r="1.70049" fill="#F6F6F7" stroke="#212428" stroke-width="0.855003"/>
<circle cx="16.8878" cy="24.5206" r="1.70049" fill="#F6F6F7" stroke="#212428" stroke-width="0.855003"/>
<circle cx="16.2823" cy="34.8565" r="1.70049" fill="#F6F6F7" stroke="#212428" stroke-width="0.855003"/>
<circle cx="42.4249" cy="20.5684" r="1.70049" fill="#F6F6F7" stroke="#212428" stroke-width="0.855003"/>
<circle cx="42.4249" cy="10.232" r="1.70049" fill="#F6F6F7" stroke="#212428" stroke-width="0.855003"/>
<circle cx="33.9131" cy="5.97662" r="1.70049" fill="#F6F6F7" stroke="#212428" stroke-width="0.855003"/>
<circle cx="25.7061" cy="10.232" r="1.70049" fill="#F6F6F7" stroke="#212428" stroke-width="0.855003"/>
<circle cx="16.2803" cy="5.97662" r="1.70049" fill="#F6F6F7" stroke="#212428" stroke-width="0.855003"/>
<circle cx="8.0733" cy="10.232" r="1.70049" fill="#F6F6F7" stroke="#212428" stroke-width="0.855003"/>
</svg>
