<svg width="51" height="46" viewBox="0 0 51 46" fill="none" xmlns="http://www.w3.org/2000/svg">
<path d="M25.335 14.0132C25.7 14.0358 26.1774 14.0864 26.6084 14.0864C26.9275 14.0866 27.472 14.2467 27.9365 14.5728C28.3966 14.8956 28.701 15.3236 28.7012 15.8247C28.7012 16.3705 28.42 16.9502 27.9297 17.4019C27.4425 17.8506 26.7752 18.147 26.0537 18.147C25.275 18.1469 24.3702 17.9623 23.6738 17.6069C22.9686 17.247 22.5762 16.7701 22.5762 16.2134C22.5763 15.5944 22.9034 15.1132 23.3359 14.7446C23.7711 14.3738 24.2761 14.1511 24.5244 14.064L24.5371 14.0601L24.5488 14.0542C24.6011 14.0319 24.6919 14.0114 24.8359 14.0034C24.9765 13.9956 25.1432 14.0013 25.335 14.0132Z" stroke="#212428" stroke-width="0.8"/>
<path d="M10.2832 5.27539C12.1465 5.18317 14.7695 5.31189 18.2422 5.94336C19.197 6.62452 19.6923 7.11315 19.9229 7.52441C20.1359 7.90444 20.1382 8.24545 19.9854 8.71973C19.9055 8.96741 19.7855 9.24278 19.6328 9.57129C19.4833 9.8929 19.3013 10.2695 19.1143 10.6904C18.7356 11.5424 18.3229 12.6099 18.0137 14.0146C17.7116 15.3872 17.4876 16.324 17.2793 16.998C17.0714 17.6709 16.8872 18.0519 16.6768 18.3281C16.4668 18.6036 16.2114 18.8016 15.7998 19.085C15.3915 19.366 14.8478 19.7196 14.1299 20.2891C11.5766 22.314 7.00168 21.5012 3.84863 16.5273C2.65884 14.6502 2.88692 12.5161 3.71875 10.5479C4.54079 8.60286 5.92803 6.88728 6.96777 5.89355C7.38138 5.67242 8.44234 5.36653 10.2832 5.27539Z" stroke="#212428" stroke-width="0.8"/>
<path d="M10.2988 6.59912C11.843 6.52183 14.0191 6.62951 16.9023 7.15869C17.6878 7.72657 18.0874 8.12852 18.2715 8.46045C18.4387 8.76208 18.4426 9.03197 18.3184 9.42139C18.253 9.62631 18.1545 9.85475 18.0273 10.1313C17.9033 10.4012 17.751 10.7202 17.5947 11.0757C17.278 11.7963 16.9326 12.7002 16.6738 13.8892C16.422 15.046 16.2362 15.8335 16.0635 16.3989C15.8911 16.9632 15.7393 17.2761 15.5703 17.5005C15.402 17.7239 15.1968 17.8862 14.8545 18.1245C14.5152 18.3606 14.0596 18.6603 13.459 19.1421C11.3773 20.8118 7.60791 20.1648 4.98926 15.9878C4.01206 14.429 4.19632 12.652 4.88574 11.0024C5.5655 9.37627 6.71306 7.94062 7.57422 7.10693C7.91126 6.92852 8.78059 6.67512 10.2988 6.59912Z" stroke="#212428" stroke-width="0.8"/>
<path d="M12.7705 12.2661C13.2126 12.2664 13.577 12.6288 13.5771 13.0845C13.5771 13.5403 13.2127 13.9036 12.7705 13.9038C12.3281 13.9038 11.9629 13.5405 11.9629 13.0845C11.9631 12.6287 12.3282 12.2661 12.7705 12.2661Z" stroke="#212428" stroke-width="0.8"/>
<path d="M11.9639 15.5171C12.406 15.5173 12.7703 15.8798 12.7705 16.3354C12.7705 16.7913 12.4061 17.1545 11.9639 17.1548C11.5215 17.1548 11.1562 16.7914 11.1562 16.3354C11.1564 15.8796 11.5216 15.5171 11.9639 15.5171Z" stroke="#212428" stroke-width="0.8"/>
<path d="M7.93848 15.1108C8.38056 15.1111 8.74493 15.4735 8.74512 15.9292C8.74512 16.385 8.38068 16.7483 7.93848 16.7485C7.49607 16.7485 7.13086 16.3852 7.13086 15.9292C7.13105 15.4734 7.49618 15.1108 7.93848 15.1108Z" stroke="#212428" stroke-width="0.8"/>
<path d="M7.53613 11.8589C7.97822 11.8591 8.34258 12.2216 8.34277 12.6772C8.34277 13.1331 7.97833 13.4963 7.53613 13.4966C7.09372 13.4966 6.72852 13.1332 6.72852 12.6772C6.7287 12.2214 7.09384 11.8589 7.53613 11.8589Z" stroke="#212428" stroke-width="0.8"/>
<path d="M10.3545 9.01465C10.7966 9.0149 11.1609 9.37735 11.1611 9.83301C11.1611 10.2888 10.7967 10.6521 10.3545 10.6523C9.91208 10.6523 9.54688 10.289 9.54688 9.83301C9.54706 9.37719 9.9122 9.01465 10.3545 9.01465Z" stroke="#212428" stroke-width="0.8"/>
<path d="M15.1826 9.01465C15.6247 9.0149 15.9891 9.37735 15.9893 9.83301C15.9893 10.2888 15.6248 10.6521 15.1826 10.6523C14.7402 10.6523 14.375 10.289 14.375 9.83301C14.3752 9.37719 14.7403 9.01465 15.1826 9.01465Z" stroke="#212428" stroke-width="0.8"/>
<path d="M35.0049 16.4741C35.3102 16.4679 35.7286 16.5279 36.3994 16.6685C37.0663 16.8082 37.9429 17.0188 39.1582 17.2974C40.3506 17.5706 41.8584 17.906 43.7861 18.3003C44.3191 18.7173 44.7873 19.0659 45.1953 19.3657C45.6247 19.6813 45.9798 19.9389 46.2783 20.1714C46.8799 20.6399 47.1839 20.9588 47.3379 21.3306C47.4923 21.7037 47.5203 22.1922 47.4043 23.0591C47.2885 23.9247 47.0418 25.0916 46.7041 26.7974C46.3685 28.4926 46.1197 29.6553 45.8867 30.4937C45.6538 31.3316 45.4442 31.8158 45.2012 32.1704C44.96 32.5223 44.6687 32.773 44.2119 33.1226C43.7573 33.4704 43.1552 33.9051 42.3594 34.6069C40.913 35.8823 38.9431 36.2436 36.8848 35.5327C34.8186 34.8191 32.6505 33.0159 30.8965 29.9399C29.548 27.575 29.8123 24.8886 30.7441 22.437C31.6655 20.0133 33.2187 17.8814 34.3789 16.6499C34.565 16.5367 34.7403 16.4796 35.0049 16.4741Z" stroke="#212428" stroke-width="0.8"/>
<path d="M35.4766 17.7197C35.6784 17.6967 35.9678 17.716 36.4746 17.8066C37.4826 17.9869 39.1613 18.4066 42.3555 19.1016C42.7891 19.4623 43.1746 19.768 43.5146 20.0342C43.8766 20.3175 44.1801 20.5519 44.4395 20.7666C44.9604 21.1978 45.2492 21.5074 45.4102 21.8662C45.5698 22.2222 45.6261 22.6784 45.5605 23.4473C45.4948 24.2189 45.312 25.252 45.0352 26.7402C44.7592 28.2238 44.5545 29.2402 44.3633 29.9727C44.172 30.7052 44.0017 31.1251 43.8057 31.4297C43.6121 31.7303 43.378 31.9443 43.0039 32.249C42.6312 32.5526 42.1339 32.9346 41.4775 33.5508C40.3095 34.6473 38.7253 34.9565 37.0635 34.3457C35.3888 33.7301 33.6154 32.1677 32.1758 29.4805C31.0736 27.4229 31.2881 25.0807 32.0527 22.9395C32.8081 20.8244 34.0816 18.9649 35.0312 17.8916C35.19 17.7878 35.311 17.7386 35.4766 17.7197Z" stroke="#212428" stroke-width="0.8"/>
<path d="M38.251 26.3335C38.6931 26.3338 39.0574 26.6962 39.0576 27.1519C39.0576 27.6077 38.6932 27.9709 38.251 27.9712C37.8086 27.9712 37.4434 27.6078 37.4434 27.1519C37.4435 26.696 37.8087 26.3335 38.251 26.3335Z" stroke="#212428" stroke-width="0.8"/>
<path d="M35.7354 19.8179C36.1774 19.8181 36.5418 20.1806 36.542 20.6362C36.542 21.0921 36.1776 21.4553 35.7354 21.4556C35.2929 21.4556 34.9277 21.0922 34.9277 20.6362C34.9279 20.1804 35.2931 19.8179 35.7354 19.8179Z" stroke="#212428" stroke-width="0.8"/>
<path d="M41.2275 28.3188C41.6696 28.3191 42.034 28.6816 42.0342 29.1372C42.0342 29.593 41.6697 29.9563 41.2275 29.9565C40.7851 29.9565 40.4199 29.5932 40.4199 29.1372C40.4201 28.6814 40.7852 28.3188 41.2275 28.3188Z" stroke="#212428" stroke-width="0.8"/>
<path d="M35.4092 29.2461C35.8513 29.2463 36.2156 29.6088 36.2158 30.0645C36.2158 30.5203 35.8514 30.8835 35.4092 30.8838C34.9668 30.8838 34.6016 30.5204 34.6016 30.0645C34.6018 29.6086 34.9669 29.2461 35.4092 29.2461Z" stroke="#212428" stroke-width="0.8"/>
<path d="M35.0068 25.9951C35.4489 25.9954 35.8133 26.3578 35.8135 26.8135C35.8135 27.2693 35.449 27.6326 35.0068 27.6328C34.5644 27.6328 34.1992 27.2695 34.1992 26.8135C34.1994 26.3577 34.5645 25.9951 35.0068 25.9951Z" stroke="#212428" stroke-width="0.8"/>
<path d="M37.8232 23.1509C38.2653 23.1511 38.6297 23.5136 38.6299 23.9692C38.6299 24.4251 38.2654 24.7883 37.8232 24.7886C37.3808 24.7886 37.0156 24.4252 37.0156 23.9692C37.0158 23.5134 37.3809 23.1509 37.8232 23.1509Z" stroke="#212428" stroke-width="0.8"/>
<path d="M42.124 23.5835C42.5661 23.5838 42.9305 23.9462 42.9307 24.4019C42.9307 24.8577 42.5662 25.2209 42.124 25.2212C41.6816 25.2212 41.3164 24.8578 41.3164 24.4019C41.3166 23.946 41.6817 23.5835 42.124 23.5835Z" stroke="#212428" stroke-width="0.8"/>
<path d="M23.6484 32.9731C23.7389 33.8103 23.8447 35.0985 23.876 36.3452C23.8922 36.9906 23.8881 37.6196 23.8535 38.1665C23.8184 38.7211 23.7526 39.1636 23.6572 39.4497C23.5313 39.8274 23.3257 40.1532 23.0713 40.3208C22.8509 40.4658 22.5357 40.5321 22.0498 40.2749C21.5375 40.0037 20.8628 39.3814 20.0264 38.1655C19.2011 36.9658 18.2387 35.2187 17.1328 32.7368C16.9479 31.1261 17.5743 30.1625 18.415 29.5776C19.218 29.0191 20.2415 28.7931 21.0137 28.7573L23.6484 32.9731Z" stroke="#212428" stroke-width="0.8"/>
<path d="M5.63672 25.8989L5.71387 26.1997L6.12988 27.813L6.13965 27.853L6.1416 27.894C6.15561 28.2002 6.17283 28.6891 6.17773 29.1636C6.18252 29.627 6.17654 30.1102 6.13867 30.3862C6.11746 30.5407 6.07292 30.7676 5.9707 30.9312C5.92284 31.0077 5.79261 31.1808 5.55273 31.189C5.31858 31.1968 5.17016 31.04 5.10449 30.9556C4.9631 30.7738 4.83997 30.4577 4.71484 30.0161C4.58411 29.5547 4.43571 28.898 4.26855 27.9849L4.26465 27.9585L4.2627 27.9331C4.22719 27.2436 4.3345 26.7525 4.53223 26.4185C4.73154 26.0818 5.03249 25.8989 5.32715 25.8989H5.63672Z" stroke="#212428" stroke-width="0.8"/>
<path d="M13.3467 24.7759L13.4629 24.8892L13.8779 25.2925L13.9697 25.3813L13.9932 25.5073C14.0096 25.597 14.0284 25.7369 14.0342 25.8765C14.0371 25.9462 14.0373 26.0255 14.0293 26.1021C14.0222 26.1697 14.0054 26.277 13.9502 26.3774C13.89 26.4869 13.7863 26.5934 13.6377 26.6528C13.4847 26.714 13.3174 26.7118 13.1553 26.6597C12.8541 26.5629 12.5419 26.2866 12.1973 25.8159L12.1455 25.7456L12.1279 25.6606C12.0886 25.4695 12.1307 25.2862 12.2402 25.1401C12.3386 25.009 12.4717 24.9331 12.5781 24.8882C12.7894 24.799 13.0317 24.7759 13.1846 24.7759H13.3467Z" stroke="#212428" stroke-width="0.8"/>
</svg>
