<svg width="230" height="94" viewBox="0 0 230 94" fill="none" xmlns="http://www.w3.org/2000/svg">
<path d="M0.435625 76.21V60.88L38.3956 1.01999H58.8356V59.42H68.3256V76.21H58.8356V93H41.3156V76.21H0.435625ZM19.4156 59.42H41.3156V25.11L19.4156 59.42ZM115.029 17.08C104.809 17.08 94.5885 27.3 94.5885 47.01C94.5885 66.72 104.809 76.94 115.029 76.94C125.249 76.94 135.469 66.72 135.469 47.01C135.469 27.3 125.249 17.08 115.029 17.08ZM115.029 0.289993C135.469 0.289993 152.989 17.81 152.989 47.01C152.989 76.21 135.469 93.73 115.029 93.73C94.5885 93.73 77.0685 76.21 77.0685 47.01C77.0685 17.81 94.5885 0.289993 115.029 0.289993ZM161.691 76.21V60.88L199.651 1.01999H220.091V59.42H229.581V76.21H220.091V93H202.571V76.21H161.691ZM180.671 59.42H202.571V25.11L180.671 59.42Z" fill="#C7E5DB"/>
</svg>
