<svg width="147" height="46" viewBox="0 0 147 46" fill="none" xmlns="http://www.w3.org/2000/svg">
<rect x="1" y="1.25" width="145" height="43.5" rx="5" fill="black" fill-opacity="0.8" stroke="#D9D9D9"/>
<path d="M47.3691 16.6933V9.00247C47.9839 8.90967 48.7147 8.84007 49.5151 8.84007C50.9651 8.84007 51.9975 9.17647 52.6819 9.81447C53.3779 10.4525 53.7839 11.3573 53.7839 12.6217C53.7839 13.8977 53.3895 14.9417 52.6587 15.6609C51.9279 16.3917 50.7215 16.7861 49.2019 16.7861C48.4827 16.7861 47.8795 16.7513 47.3691 16.6933ZM48.3783 9.74487V15.9161C48.6335 15.9625 49.0047 15.9741 49.3991 15.9741C51.5567 15.9741 52.7283 14.7677 52.7283 12.6565C52.7399 10.8121 51.6959 9.64047 49.5615 9.64047C49.0395 9.64047 48.6451 9.68687 48.3783 9.74487Z" fill="white"/>
<path d="M57.5801 10.9745C59.1925 10.9745 60.2829 12.1461 60.2829 13.8629C60.2829 15.9393 58.8445 16.8441 57.4873 16.8441C55.9677 16.8441 54.7961 15.7305 54.7961 13.9557C54.7961 12.0765 56.0257 10.9745 57.5801 10.9745ZM57.5569 11.7401C56.3505 11.7401 55.8285 12.8537 55.8285 13.9209C55.8285 15.1505 56.5361 16.0785 57.5337 16.0785C58.5081 16.0785 59.2389 15.1621 59.2389 13.8977C59.2389 12.9465 58.7633 11.7401 57.5569 11.7401Z" fill="white"/>
<path d="M60.9479 11.1021H61.9919L62.7343 13.9557C62.8967 14.5821 63.0475 15.1621 63.1519 15.7421H63.1867C63.3143 15.1737 63.4999 14.5705 63.6855 13.9673L64.6019 11.1021H65.4603L66.3303 13.9093C66.5391 14.5821 66.7015 15.1737 66.8291 15.7421H66.8639C66.9567 15.1737 67.1075 14.5821 67.2931 13.9209L68.0935 11.1021H69.1027L67.2931 16.7165H66.3651L65.5067 14.0369C65.3095 13.4105 65.1471 12.8537 65.0079 12.1925H64.9847C64.8455 12.8653 64.6715 13.4453 64.4743 14.0485L63.5695 16.7165H62.6415L60.9479 11.1021Z" fill="white"/>
<path d="M70.224 16.7165V12.6217C70.224 12.0417 70.2124 11.5661 70.1776 11.1021H71.0824L71.1404 12.0301H71.1636C71.442 11.4965 72.0916 10.9745 73.0196 10.9745C73.7968 10.9745 75.0032 11.4385 75.0032 13.3641V16.7165H73.9824V13.4801C73.9824 12.5753 73.646 11.8213 72.6832 11.8213C72.0104 11.8213 71.4884 12.2969 71.3144 12.8653C71.268 12.9929 71.2448 13.1669 71.2448 13.3409V16.7165H70.224Z" fill="white"/>
<path d="M76.755 16.7165V8.48047H77.7758V16.7165H76.755Z" fill="white"/>
<path d="M81.9711 10.9745C83.5835 10.9745 84.6739 12.1461 84.6739 13.8629C84.6739 15.9393 83.2355 16.8441 81.8783 16.8441C80.3587 16.8441 79.1871 15.7305 79.1871 13.9557C79.1871 12.0765 80.4167 10.9745 81.9711 10.9745ZM81.9479 11.7401C80.7415 11.7401 80.2195 12.8537 80.2195 13.9209C80.2195 15.1505 80.9271 16.0785 81.9247 16.0785C82.8991 16.0785 83.6299 15.1621 83.6299 13.8977C83.6299 12.9465 83.1543 11.7401 81.9479 11.7401Z" fill="white"/>
<path d="M90.0929 16.7165H89.1649L89.0837 16.0089H89.0489C88.7357 16.4497 88.1325 16.8441 87.3321 16.8441C86.1953 16.8441 85.6153 16.0437 85.6153 15.2317C85.6153 13.8745 86.8217 13.1321 88.9909 13.1437V13.0277C88.9909 12.5637 88.8633 11.7285 87.7149 11.7285C87.1929 11.7285 86.6477 11.8909 86.2533 12.1461L86.0213 11.4733C86.4853 11.1717 87.1581 10.9745 87.8657 10.9745C89.5825 10.9745 90.0001 12.1461 90.0001 13.2713V15.3709C90.0001 15.8581 90.0233 16.3337 90.0929 16.7165ZM89.0141 14.8257V13.8513C87.9005 13.8281 86.6361 14.0253 86.6361 15.1157C86.6361 15.7769 87.0769 16.0901 87.5989 16.0901C88.3297 16.0901 88.7937 15.6261 88.9561 15.1505C88.9909 15.0461 89.0141 14.9301 89.0141 14.8257Z" fill="white"/>
<path d="M95.5769 8.48047H96.5977V15.2665C96.5977 15.7653 96.6093 16.3337 96.6441 16.7165H95.7277L95.6813 15.7421H95.6581C95.3449 16.3685 94.6605 16.8441 93.7441 16.8441C92.3869 16.8441 91.3429 15.6957 91.3429 13.9905C91.3313 12.1229 92.4913 10.9745 93.8601 10.9745C94.7185 10.9745 95.2985 11.3805 95.5537 11.8329H95.5769V8.48047ZM95.5769 14.3617V13.3873C95.5769 13.2597 95.5653 13.0857 95.5305 12.9581C95.3797 12.3085 94.8229 11.7749 94.0573 11.7749C93.0017 11.7749 92.3753 12.7029 92.3753 13.9441C92.3753 15.0809 92.9321 16.0205 94.0341 16.0205C94.7185 16.0205 95.3449 15.5681 95.5305 14.8025C95.5653 14.6633 95.5769 14.5241 95.5769 14.3617Z" fill="white"/>
<path d="M103.326 10.9745C104.938 10.9745 106.029 12.1461 106.029 13.8629C106.029 15.9393 104.59 16.8441 103.233 16.8441C101.714 16.8441 100.542 15.7305 100.542 13.9557C100.542 12.0765 101.772 10.9745 103.326 10.9745ZM103.303 11.7401C102.096 11.7401 101.574 12.8537 101.574 13.9209C101.574 15.1505 102.282 16.0785 103.28 16.0785C104.254 16.0785 104.985 15.1621 104.985 13.8977C104.985 12.9465 104.509 11.7401 103.303 11.7401Z" fill="white"/>
<path d="M107.411 16.7165V12.6217C107.411 12.0417 107.4 11.5661 107.365 11.1021H108.27L108.328 12.0301H108.351C108.629 11.4965 109.279 10.9745 110.207 10.9745C110.984 10.9745 112.19 11.4385 112.19 13.3641V16.7165H111.17V13.4801C111.17 12.5753 110.833 11.8213 109.87 11.8213C109.198 11.8213 108.676 12.2969 108.502 12.8653C108.455 12.9929 108.432 13.1669 108.432 13.3409V16.7165H107.411Z" fill="white"/>
<path d="M116.729 9.75647L117.727 9.48967V11.1021H119.188V11.8793H117.727V14.9069C117.727 15.6029 117.924 15.9973 118.492 15.9973C118.759 15.9973 118.956 15.9625 119.084 15.9277L119.13 16.6933C118.933 16.7745 118.62 16.8325 118.225 16.8325C117.75 16.8325 117.367 16.6817 117.123 16.4033C116.833 16.1017 116.729 15.6029 116.729 14.9417V11.8793H115.859V11.1021H116.729V9.75647Z" fill="white"/>
<path d="M120.434 16.7165V8.48047H121.455V11.9837H121.478C121.64 11.6937 121.896 11.4385 122.209 11.2645C122.51 11.0905 122.87 10.9745 123.253 10.9745C124.007 10.9745 125.213 11.4385 125.213 13.3757V16.7165H124.192V13.4917C124.192 12.5869 123.856 11.8213 122.893 11.8213C122.232 11.8213 121.71 12.2853 121.524 12.8421C121.466 12.9813 121.455 13.1321 121.455 13.3293V16.7165H120.434Z" fill="white"/>
<path d="M131.477 14.0949H127.533C127.557 15.4753 128.438 16.0437 129.459 16.0437C130.19 16.0437 130.631 15.9161 131.013 15.7537L131.187 16.4845C130.828 16.6469 130.213 16.8325 129.32 16.8325C127.591 16.8325 126.559 15.6957 126.559 14.0021C126.559 12.3085 127.557 10.9745 129.192 10.9745C131.025 10.9745 131.512 12.5869 131.512 13.6193C131.512 13.8281 131.489 13.9905 131.477 14.0949ZM127.545 13.3641H130.526C130.538 12.7145 130.259 11.7053 129.111 11.7053C128.079 11.7053 127.626 12.6565 127.545 13.3641Z" fill="white"/>
<path d="M54.4834 30.5748H49.4007L47.912 35.0833H45.998L50.8681 20.7496H53.1011L57.9924 35.0833H56.0146L54.4834 30.5748ZM49.7835 29.1286H54.1006L52.697 25.0029C52.378 24.0672 52.1654 23.2165 51.9527 22.3871H51.9102C51.6975 23.2378 51.4636 24.1097 51.1871 24.9816L49.7835 29.1286Z" fill="white"/>
<path d="M59.9782 39.2941V28.1504C59.9782 26.8318 59.9357 25.7685 59.8932 24.7902H61.5732L61.6583 26.5554H61.7008C62.4664 25.3006 63.6786 24.5563 65.3587 24.5563C67.8469 24.5563 69.7184 26.6617 69.7184 29.7879C69.7184 33.4883 67.4641 35.3172 65.0397 35.3172C63.6786 35.3172 62.4877 34.7218 61.871 33.701H61.8284V39.2941H59.9782ZM61.8284 29.1286V30.8938C61.8284 31.1702 61.871 31.4254 61.9135 31.6594C62.2538 32.9566 63.3809 33.8498 64.7207 33.8498C66.6985 33.8498 67.8469 32.2336 67.8469 29.873C67.8469 27.8101 66.7623 26.045 64.7845 26.045C63.5085 26.045 62.3176 26.9594 61.956 28.363C61.8922 28.597 61.8284 28.8734 61.8284 29.1286Z" fill="white"/>
<path d="M72.0861 39.2941V28.1504C72.0861 26.8318 72.0436 25.7685 72.001 24.7902H73.6811L73.7662 26.5554H73.8087C74.5743 25.3006 75.7865 24.5563 77.4666 24.5563C79.9548 24.5563 81.8262 26.6617 81.8262 29.7879C81.8262 33.4883 79.572 35.3172 77.1476 35.3172C75.7865 35.3172 74.5956 34.7218 73.9788 33.701H73.9363V39.2941H72.0861ZM73.9363 29.1286V30.8938C73.9363 31.1702 73.9788 31.4254 74.0214 31.6594C74.3616 32.9566 75.4888 33.8498 76.8286 33.8498C78.8064 33.8498 79.9548 32.2336 79.9548 29.873C79.9548 27.8101 78.8702 26.045 76.8924 26.045C75.6164 26.045 74.4254 26.9594 74.0639 28.363C74.0001 28.597 73.9363 28.8734 73.9363 29.1286Z" fill="white"/>
<path d="M88.0414 34.3815L88.5093 32.829C89.3387 33.3394 90.5509 33.7648 91.8269 33.7648C93.7196 33.7648 94.8255 32.7652 94.8255 31.3191C94.8255 29.9793 94.0599 29.2137 92.1246 28.4694C89.7853 27.64 88.3391 26.4278 88.3391 24.4074C88.3391 22.1744 90.1893 20.5156 92.9753 20.5156C94.4427 20.5156 95.506 20.8559 96.144 21.2174L95.6336 22.7274C95.1657 22.4722 94.2087 22.0468 92.9115 22.0468C90.9549 22.0468 90.2106 23.2165 90.2106 24.1948C90.2106 25.5346 91.0825 26.1938 93.0603 26.9594C95.4847 27.8952 96.7182 29.0648 96.7182 31.1702C96.7182 33.382 95.0807 35.296 91.6993 35.296C90.3169 35.296 88.807 34.8919 88.0414 34.3815Z" fill="white"/>
<path d="M99.5517 22.3233L101.381 21.8342V24.7902H104.06V26.2151H101.381V31.7657C101.381 33.0417 101.742 33.7648 102.784 33.7648C103.273 33.7648 103.635 33.701 103.869 33.6372L103.954 35.0408C103.592 35.1896 103.018 35.296 102.295 35.296C101.423 35.296 100.721 35.0195 100.275 34.5091C99.7431 33.9562 99.5517 33.0417 99.5517 31.8295V26.2151H97.9567V24.7902H99.5517V22.3233Z" fill="white"/>
<path d="M110.402 24.5563C113.358 24.5563 115.357 26.7042 115.357 29.8517C115.357 33.6584 112.72 35.3172 110.232 35.3172C107.446 35.3172 105.298 33.2756 105.298 30.0218C105.298 26.5766 107.552 24.5563 110.402 24.5563ZM110.359 25.9599C108.148 25.9599 107.191 28.0015 107.191 29.958C107.191 32.2123 108.488 33.9136 110.317 33.9136C112.103 33.9136 113.443 32.2336 113.443 29.9155C113.443 28.1716 112.571 25.9599 110.359 25.9599Z" fill="white"/>
<path d="M117.714 35.0833V28.0015C117.714 26.7893 117.693 25.7472 117.629 24.7902H119.266L119.33 26.8106H119.415C119.883 25.4282 121.01 24.5563 122.265 24.5563C122.478 24.5563 122.626 24.5776 122.797 24.6201V26.3852C122.605 26.3427 122.414 26.3214 122.159 26.3214C120.84 26.3214 119.904 27.321 119.649 28.7246C119.607 28.9798 119.564 29.2775 119.564 29.5965V35.0833H117.714Z" fill="white"/>
<path d="M132.736 30.277H125.506C125.548 32.8078 127.164 33.8498 129.036 33.8498C130.376 33.8498 131.184 33.6159 131.886 33.3182L132.205 34.658C131.545 34.9557 130.418 35.296 128.781 35.296C125.612 35.296 123.719 33.2118 123.719 30.1069C123.719 27.002 125.548 24.5563 128.547 24.5563C131.907 24.5563 132.8 27.5124 132.8 29.4051C132.8 29.7879 132.758 30.0856 132.736 30.277ZM125.527 28.9372H130.992C131.014 27.7463 130.503 25.8961 128.398 25.8961C126.505 25.8961 125.676 27.64 125.527 28.9372Z" fill="white"/>
<path fill-rule="evenodd" clip-rule="evenodd" d="M38.7014 28.2673C38.0636 28.1212 36.9326 27.3108 36.5122 26.8425C36.3948 26.7118 36.3039 26.6792 36.1885 26.5512C34.3457 24.5074 34.0342 21.3052 35.4584 19.0901C36.2855 17.8037 36.7545 17.6515 37.7286 16.9304C37.7556 16.9104 37.7981 16.8747 37.8245 16.8517L37.8841 16.7911C37.3716 15.9598 36.1317 15.0281 35.2031 14.6305C31.9062 13.2188 30.1347 14.1596 27.3497 15.0294C26.3842 15.3309 26.3045 15.3463 25.3283 15.0439C23.163 14.3733 21.8738 13.5878 19.4244 14.239C17.0732 14.8641 15.3235 16.4952 14.3446 18.7036C12.4889 22.8897 14.2652 28.4506 16.4647 31.8306C17.4873 33.402 19.353 35.8611 21.365 36.0381C23.5829 36.2332 25.1495 34.0069 28.9666 35.276C30.6742 35.8437 32.024 36.5131 33.7466 35.4446C35.326 34.4649 36.9043 32.1182 37.801 30.4263C38.0906 29.8798 38.5494 28.9121 38.7014 28.2673ZM32.403 7.05029C31.2453 7.05117 29.7161 7.75372 28.8283 8.39675C28.4401 8.67789 28.2342 8.90866 27.9418 9.19512C27.1425 9.97828 26.4845 11.1868 26.2482 12.3552C26.195 12.6179 26.0354 13.6911 26.2066 13.8609C26.371 14.024 27.3951 13.8399 27.6473 13.7735C28.0725 13.6616 28.4802 13.5005 28.8197 13.3075C30.203 12.5207 31.3134 11.319 31.9551 9.88643C32.3309 9.04758 32.4624 8.08153 32.403 7.05029Z" fill="white"/>
</svg>
