<svg width="147" height="46" viewBox="0 0 147 46" fill="none" xmlns="http://www.w3.org/2000/svg">
<rect x="1" y="1.25" width="145" height="43.5" rx="5" fill="black" fill-opacity="0.8" stroke="#D9D9D9"/>
<path d="M49.1222 11.7269H51.8599C51.8599 11.7741 51.8614 11.8402 51.8646 11.9251C51.874 12.1485 51.8787 12.2996 51.8787 12.3783C51.8787 13.3506 51.6003 14.1058 51.0433 14.6439C50.4863 15.182 49.7012 15.451 48.688 15.451C48.1216 15.451 47.6165 15.3676 47.1729 15.2008C46.7292 15.0341 46.3405 14.7823 46.007 14.4456C45.6797 14.1121 45.428 13.7203 45.2518 13.2703C45.0787 12.8204 44.9922 12.3389 44.9922 11.826C44.9922 11.3037 45.0803 10.8222 45.2565 10.3817C45.4359 9.94113 45.7002 9.55252 46.0495 9.21582C46.3862 8.88542 46.7811 8.63368 47.2342 8.46061C47.6873 8.28754 48.1719 8.20101 48.688 8.20101C49.2324 8.20101 49.7185 8.30013 50.1465 8.49837C50.5776 8.69661 50.9615 9.00027 51.2982 9.40934L50.4769 10.0277C50.244 9.75705 49.9813 9.55566 49.6886 9.4235C49.396 9.29134 49.0687 9.22526 48.7069 9.22526C47.958 9.22526 47.3459 9.46598 46.8708 9.94743C46.3988 10.4257 46.1628 11.0488 46.1628 11.8166C46.1628 12.597 46.3988 13.231 46.8708 13.7187C47.3459 14.2033 47.9611 14.4456 48.7163 14.4456C49.3582 14.4456 49.8633 14.2962 50.2314 13.9972C50.5996 13.6983 50.7837 13.2908 50.7837 12.7747V12.6756H49.1222V11.7269Z" fill="white"/>
<path d="M52.7735 15.2669V8.35677H56.6298V9.31022H53.8968V11.0425H56.6298V12.029H53.8968V14.2616H56.6298V15.2669H52.7735Z" fill="white"/>
<path d="M59.8609 9.31022V15.2669H58.7375V9.31022H56.9014V8.35677H61.6876V9.31022H59.8609Z" fill="white"/>
<path d="M64.9025 15.2669V8.35677H66.0259V15.2669H64.9025Z" fill="white"/>
<path d="M69.5827 9.31022V15.2669H68.4593V9.31022H66.6232V8.35677H71.4094V9.31022H69.5827Z" fill="white"/>
<path d="M80.5196 11.826C80.5196 11.4767 80.4551 11.1447 80.3261 10.8301C80.2003 10.5154 80.0177 10.2354 79.7786 9.98991C79.5457 9.74761 79.2751 9.56196 78.9667 9.43294C78.6615 9.30078 78.339 9.2347 77.9991 9.2347C77.6593 9.2347 77.3352 9.29921 77.0268 9.42822C76.7216 9.55724 76.4494 9.74447 76.2102 9.98991C75.9711 10.2322 75.7886 10.5107 75.6627 10.8254C75.5368 11.14 75.4739 11.4736 75.4739 11.826C75.4739 12.1753 75.5368 12.5057 75.6627 12.8172C75.7886 13.1287 75.9711 13.4072 76.2102 13.6527C76.4494 13.8981 76.7216 14.0853 77.0268 14.2144C77.332 14.3434 77.6561 14.4079 77.9991 14.4079C78.3358 14.4079 78.6552 14.3434 78.9573 14.2144C79.2625 14.0853 79.5363 13.8981 79.7786 13.6527C80.0177 13.4072 80.2003 13.1287 80.3261 12.8172C80.4551 12.5025 80.5196 12.1721 80.5196 11.826ZM81.6902 11.826C81.6902 12.3169 81.5974 12.781 81.4117 13.2184C81.2292 13.6558 80.9618 14.046 80.6093 14.389C80.2537 14.732 79.8525 14.9947 79.4057 15.1772C78.9589 15.3598 78.49 15.451 77.9991 15.451C77.502 15.451 77.0268 15.3598 76.5737 15.1772C76.1237 14.9916 75.7256 14.7288 75.3795 14.389C75.0271 14.046 74.7596 13.6574 74.5771 13.2231C74.3946 12.7889 74.3033 12.3232 74.3033 11.826C74.3033 11.332 74.3946 10.8663 74.5771 10.4289C74.7596 9.99148 75.0271 9.59972 75.3795 9.25358C75.7319 8.91059 76.1316 8.64941 76.5784 8.47005C77.0252 8.29069 77.4988 8.20101 77.9991 8.20101C78.4963 8.20101 78.9667 8.29069 79.4104 8.47005C79.8573 8.64941 80.2569 8.91059 80.6093 9.25358C80.9618 9.60286 81.2292 9.99778 81.4117 10.4383C81.5974 10.8757 81.6902 11.3383 81.6902 11.826Z" fill="white"/>
<path d="M82.6888 15.2669V8.08301L87.0784 12.3075C87.198 12.427 87.3192 12.5545 87.4419 12.6898C87.5646 12.8251 87.6936 12.9777 87.8289 13.1476V8.35677H88.8673V15.536L84.388 11.236C84.2684 11.1196 84.152 10.9969 84.0387 10.8678C83.9286 10.7388 83.8232 10.6035 83.7225 10.4619V15.2669H82.6888Z" fill="white"/>
<path d="M53.2787 28.3571H58.4802C58.4802 28.4468 58.4832 28.5723 58.4892 28.7338C58.5071 29.1582 58.5161 29.4452 58.5161 29.5947C58.5161 31.4421 57.987 32.877 56.9287 33.8994C55.8705 34.9217 54.3788 35.4329 52.4537 35.4329C51.3775 35.4329 50.4179 35.2745 49.5749 34.9576C48.7319 34.6407 47.9935 34.1624 47.3598 33.5227C46.738 32.889 46.2597 32.1446 45.9249 31.2897C45.5961 30.4347 45.4316 29.52 45.4316 28.5454C45.4316 27.553 45.599 26.6382 45.9339 25.8012C46.2746 24.9642 46.7769 24.2258 47.4405 23.5861C48.0802 22.9583 48.8306 22.48 49.6915 22.1512C50.5524 21.8223 51.4732 21.6579 52.4537 21.6579C53.488 21.6579 54.4117 21.8463 55.2248 22.2229C56.0439 22.5996 56.7733 23.1765 57.413 23.9538L55.8526 25.1286C55.4101 24.6144 54.9109 24.2318 54.3549 23.9807C53.7989 23.7296 53.1771 23.604 52.4895 23.604C51.0666 23.604 49.9037 24.0614 49.0009 24.9761C48.1041 25.8849 47.6557 27.0687 47.6557 28.5275C47.6557 30.0102 48.1041 31.2149 49.0009 32.1416C49.9037 33.0624 51.0726 33.5227 52.5075 33.5227C53.7271 33.5227 54.6867 33.2387 55.3862 32.6708C56.0857 32.1028 56.4355 31.3285 56.4355 30.348V30.1597H53.2787V28.3571Z" fill="white"/>
<path d="M66.3202 30.8592C66.3202 30.07 66.0661 29.4034 65.5579 28.8593C65.0498 28.3093 64.428 28.0342 63.6926 28.0342C62.9632 28.0342 62.3414 28.3093 61.8272 28.8593C61.319 29.4034 61.0649 30.07 61.0649 30.8592C61.0649 31.6484 61.319 32.318 61.8272 32.8681C62.3414 33.4121 62.9632 33.6842 63.6926 33.6842C64.422 33.6842 65.0408 33.4121 65.549 32.8681C66.0631 32.318 66.3202 31.6484 66.3202 30.8592ZM59.0112 30.8413C59.0112 30.2195 59.1278 29.6336 59.361 29.0835C59.6001 28.5275 59.9409 28.0342 60.3834 27.6038C60.8198 27.1793 61.322 26.8534 61.89 26.6263C62.458 26.3991 63.0529 26.2855 63.6746 26.2855C64.3144 26.2855 64.9152 26.3991 65.4772 26.6263C66.0452 26.8534 66.5534 27.1883 67.0018 27.6307C67.4502 28.0671 67.791 28.5604 68.0242 29.1104C68.2573 29.6605 68.3739 30.2374 68.3739 30.8413C68.3739 31.469 68.2573 32.0579 68.0242 32.608C67.797 33.158 67.4622 33.6453 67.0197 34.0698C66.5534 34.5182 66.0362 34.856 65.4683 35.0832C64.9003 35.3163 64.3024 35.4329 63.6746 35.4329C63.0588 35.4329 62.4669 35.3163 61.899 35.0832C61.331 34.856 60.8258 34.5242 60.3834 34.0877C59.9349 33.6453 59.5942 33.1491 59.361 32.599C59.1278 32.049 59.0112 31.4631 59.0112 30.8413Z" fill="white"/>
<path d="M76.1512 30.8592C76.1512 30.07 75.8971 29.4034 75.3889 28.8593C74.8807 28.3093 74.2589 28.0342 73.5235 28.0342C72.7941 28.0342 72.1723 28.3093 71.6581 28.8593C71.1499 29.4034 70.8959 30.07 70.8959 30.8592C70.8959 31.6484 71.1499 32.318 71.6581 32.8681C72.1723 33.4121 72.7941 33.6842 73.5235 33.6842C74.2529 33.6842 74.8717 33.4121 75.3799 32.8681C75.8941 32.318 76.1512 31.6484 76.1512 30.8592ZM68.8422 30.8413C68.8422 30.2195 68.9587 29.6336 69.1919 29.0835C69.4311 28.5275 69.7719 28.0342 70.2143 27.6038C70.6507 27.1793 71.1529 26.8534 71.7209 26.6263C72.2889 26.3991 72.8838 26.2855 73.5056 26.2855C74.1453 26.2855 74.7462 26.3991 75.3082 26.6263C75.8761 26.8534 76.3843 27.1883 76.8327 27.6307C77.2811 28.0671 77.6219 28.5604 77.8551 29.1104C78.0883 29.6605 78.2049 30.2374 78.2049 30.8413C78.2049 31.469 78.0883 32.0579 77.8551 32.608C77.6279 33.158 77.2931 33.6453 76.8507 34.0698C76.3843 34.5182 75.8672 34.856 75.2992 35.0832C74.7312 35.3163 74.1333 35.4329 73.5056 35.4329C72.8898 35.4329 72.2979 35.3163 71.7299 35.0832C71.1619 34.856 70.6567 34.5242 70.2143 34.0877C69.7659 33.6453 69.4251 33.1491 69.1919 32.599C68.9587 32.049 68.8422 31.4631 68.8422 30.8413Z" fill="white"/>
<path d="M85.4081 30.8054C85.4081 29.9265 85.2019 29.242 84.7893 28.7517C84.3828 28.2614 83.8118 28.0163 83.0764 28.0163C82.341 28.0163 81.7611 28.2704 81.3366 28.7786C80.9181 29.2808 80.7088 29.9803 80.7088 30.8771C80.7088 31.7799 80.9121 32.4764 81.3187 32.9667C81.7252 33.457 82.2992 33.7021 83.0405 33.7021C83.7401 33.7021 84.308 33.436 84.7445 32.9039C85.1869 32.3718 85.4081 31.6723 85.4081 30.8054ZM87.3004 34.5541C87.3004 36.2161 86.9686 37.385 86.3049 38.0606C85.6413 38.7422 84.5233 39.0829 82.9509 39.0829C81.779 39.0829 80.8434 38.8348 80.1439 38.3386C79.4443 37.8483 79.0886 37.1937 79.0767 36.3746L81.1662 36.3656C81.1961 36.7303 81.3665 37.0083 81.6774 37.1996C81.9883 37.391 82.4247 37.4866 82.9867 37.4866C83.8178 37.4866 84.4157 37.3043 84.7804 36.9396C85.1451 36.5749 85.3304 35.965 85.3364 35.1101L85.3543 33.9801C85.0076 34.4704 84.601 34.8351 84.1347 35.0742C83.6743 35.3134 83.1452 35.4329 82.5473 35.4329C81.3456 35.4329 80.398 35.0234 79.7044 34.2043C79.0169 33.3792 78.6731 32.2522 78.6731 30.8233C78.6731 29.4662 79.0258 28.372 79.7313 27.541C80.4368 26.704 81.3575 26.2855 82.4935 26.2855C83.187 26.2855 83.7789 26.4319 84.2692 26.7249C84.7654 27.0119 85.1271 27.4274 85.3543 27.9715V26.5814H87.3004V34.5541Z" fill="white"/>
<path d="M89.1138 35.0832V21.1826H91.0599V35.0832H89.1138Z" fill="white"/>
<path d="M101.07 31.1193H94.2724C94.3202 31.9144 94.5564 32.5362 94.9809 32.9846C95.4054 33.4271 95.9703 33.6483 96.6758 33.6483C97.3036 33.6483 97.8267 33.5167 98.2453 33.2537C98.6638 32.9906 99.0285 32.5661 99.3394 31.9802L100.981 32.895C100.502 33.7499 99.9103 34.3867 99.2048 34.8052C98.4993 35.2237 97.6713 35.4329 96.7207 35.4329C95.3575 35.4329 94.2724 35.0174 93.4653 34.1864C92.6581 33.3553 92.2546 32.2463 92.2546 30.8592C92.2546 29.5259 92.6701 28.4318 93.5011 27.5769C94.3382 26.7159 95.4113 26.2855 96.7207 26.2855C98.0898 26.2855 99.157 26.6771 99.9223 27.4603C100.688 28.2435 101.07 29.3406 101.07 30.7516V31.1193ZM99.0524 29.8099C98.9747 29.2001 98.7415 28.7367 98.3529 28.4199C97.9643 28.097 97.4321 27.9356 96.7565 27.9356C96.1168 27.9356 95.6027 28.091 95.214 28.4019C94.8254 28.7128 94.5534 29.1822 94.3979 29.8099H99.0524Z" fill="white"/>
<path d="M116.216 25.6485C116.216 26.3316 116.055 26.9761 115.732 27.5818C115.41 28.1876 114.895 28.6838 114.186 29.0705C113.477 29.4443 112.568 29.6312 111.46 29.6312H109.024V35.0832H106.82V21.6465H111.46C112.491 21.6465 113.361 21.827 114.07 22.1878C114.791 22.5358 115.326 23.0127 115.674 23.6185C116.035 24.2243 116.216 24.901 116.216 25.6485ZM111.46 27.8332C112.297 27.8332 112.923 27.6463 113.335 27.2725C113.747 26.8858 113.954 26.3445 113.954 25.6485C113.954 24.1792 113.122 23.4445 111.46 23.4445H109.024V27.8332H111.46Z" fill="white"/>
<path d="M117.26 35.0832V21.9142H119.104V35.0832H117.26Z" fill="white"/>
<path d="M128.85 35.0832H126.904V33.9801C126.557 34.4704 126.151 34.8351 125.684 35.0742C125.224 35.3134 124.695 35.4329 124.097 35.4329C122.895 35.4329 121.948 35.0234 121.254 34.2043C120.567 33.3792 120.223 32.2522 120.223 30.8233C120.223 29.4662 120.576 28.372 121.281 27.541C121.986 26.704 122.907 26.2855 124.043 26.2855C124.737 26.2855 125.329 26.4319 125.819 26.7249C126.315 27.0119 126.677 27.4274 126.904 27.9715V26.5814H128.85V35.0832ZM126.958 30.8054C126.958 29.9265 126.752 29.242 126.339 28.7517C125.932 28.2614 125.361 28.0163 124.626 28.0163C123.891 28.0163 123.311 28.2704 122.886 28.7786C122.468 29.2808 122.259 29.9803 122.259 30.8771C122.259 31.7799 122.462 32.4764 122.868 32.9667C123.275 33.457 123.849 33.7021 124.59 33.7021C125.29 33.7021 125.858 33.436 126.294 32.9039C126.737 32.3718 126.958 31.6723 126.958 30.8054Z" fill="white"/>
<path d="M132.036 39.0829H130.036L132.367 34.3478L129.247 26.5814H131.399L132.959 30.9848C133.049 31.2538 133.127 31.5288 133.193 31.8098C133.264 32.0848 133.321 32.3658 133.363 32.6528C133.441 32.3539 133.626 31.8786 133.919 31.2269L133.964 31.1193L136.062 26.5814H138.17L132.036 39.0829Z" fill="white"/>
<mask id="mask0_1202_12268" style="mask-type:alpha" maskUnits="userSpaceOnUse" x="11" y="10" width="24" height="26">
<path d="M11.6309 14.8034C11.6309 11.7561 14.9021 9.82796 17.5681 11.3038L32.3757 19.5009C35.126 21.0233 35.126 24.9775 32.3757 26.5L17.5681 34.6971C14.9021 36.1729 11.6309 34.2447 11.6309 31.1975V14.8034Z" fill="#D9D9D9"/>
</mask>
<g mask="url(#mask0_1202_12268)">
<path d="M11.6309 14.8034C11.6309 11.7561 14.9021 9.82796 17.5681 11.3038L32.3757 19.5009C35.126 21.0233 35.126 24.9775 32.3757 26.5L17.5681 34.6971C14.9021 36.1729 11.6309 34.2447 11.6309 31.1975V14.8034Z" fill="#FF5455"/>
<path d="M30.4798 27.8343L11.1465 8.01753C13.8532 5.69753 21.9409 10.2731 25.6465 12.8509L37.7298 20.1009L39.6632 25.4175L30.4798 27.8343Z" fill="#FFDB00"/>
<path d="M25.1632 23.4843L11.1465 8.01753C13.8532 5.69753 21.9409 10.2731 25.6465 12.8509L29.5132 11.8843L31.4465 17.2009L25.1632 23.4843Z" fill="#00EE89"/>
<path d="M25.6464 23.0004L10.1797 38.4671V13.8171L11.1464 8.01709L25.6464 23.0004Z" fill="#00DCFF"/>
</g>
</svg>
