<svg width="80" height="38" viewBox="0 0 80 38" fill="none" xmlns="http://www.w3.org/2000/svg">
<path d="M26.7845 30.0254C24.9852 30.0254 23.3197 30.1906 21.8158 30.4941C20.3121 30.7977 18.9963 31.2942 17.8685 31.9287C16.7674 32.591 15.8807 33.4197 15.263 34.4131C14.6456 35.4064 14.3236 36.6205 14.3236 38H13.598V37.6963C13.6517 36.0131 13.9745 34.3851 14.5921 32.8398C15.2904 31.2118 16.2298 29.7488 17.4115 28.4795C18.5931 27.2102 19.9897 26.2167 21.6009 25.4717C23.2122 24.7266 24.9315 24.3408 26.7845 24.3408V30.0254ZM65.2953 8.91309C66.3962 8.91312 67.3896 9.13374 68.2757 9.5752C69.1618 10.0166 69.9676 10.5129 70.5316 11.2578C72.0778 13.367 72.1161 15.0959 72.1165 15.1211L62.0189 19.8398C62.3143 20.6952 62.6898 21.413 63.1732 21.9648C63.7102 22.5443 64.3281 22.9858 65.0531 23.2617C65.805 23.5377 66.5843 23.6758 67.4437 23.6758C68.5446 23.6758 69.4843 23.4822 70.263 23.0684C71.0418 22.6545 71.66 22.1859 72.1165 21.6064L72.3314 21.7441C71.848 23.2893 71.0153 24.6138 69.807 25.6348C68.5985 26.6557 67.0407 27.1796 65.1341 27.1797C63.8988 27.1797 62.7976 26.9317 61.804 26.4902C60.8104 26.0211 59.9505 25.4145 59.2523 24.6143C58.5273 23.8417 57.9906 22.9032 57.6146 21.8271C57.2387 20.7787 57.0502 19.6195 57.0501 18.3779C57.0501 16.9432 57.292 15.6735 57.7484 14.5146C58.2049 13.3558 58.8227 12.362 59.5746 11.5342C60.3264 10.7064 61.2129 10.044 62.2064 9.60254C63.2 9.13343 64.2211 8.91309 65.2953 8.91309ZM13.4915 0C15.2371 0 16.9296 0.358969 18.514 1.04883C20.1253 1.76627 21.5487 2.73218 22.7572 3.94629C23.9924 5.18794 24.9589 6.62284 25.6839 8.27832C26.409 9.93398 26.7855 11.7005 26.7855 13.6045C26.7855 15.5084 26.4089 17.2741 25.6839 18.9297C24.9589 20.5852 23.9655 22.0203 22.7572 23.2344C21.5219 24.4485 20.1252 25.4144 18.514 26.1318C17.0102 26.7665 15.4256 27.1257 13.7874 27.1533C13.764 27.1548 12.9671 27.1795 12.4984 27.126C11.0751 27.0156 9.75911 26.6837 8.47006 26.1318C6.88567 25.4144 5.46269 24.4485 4.25424 23.2344C3.04576 22.0202 2.07845 20.5854 1.32651 18.9297C0.628373 17.3018 0.25232 15.5083 0.252289 13.6045C0.252289 11.7281 0.628763 9.93398 1.35385 8.27832C2.07892 6.62282 3.04538 5.18794 4.28061 3.94629C5.48899 2.70464 6.91213 1.73868 8.49643 1.04883C10.0808 0.359018 11.7461 5.14457e-05 13.4915 0ZM33.474 21C33.474 22.0208 33.6884 22.821 34.1449 23.4004C34.6014 23.9798 35.2729 24.2558 36.1322 24.2559C36.8841 24.2559 37.475 24.0621 37.9583 23.6758C38.4416 23.2895 38.8446 22.7934 39.14 22.1865V9.4375H43.5443V26.6289H39.3285V22.8486L39.3011 22.8213C39.0595 23.3178 38.7644 23.8147 38.4154 24.3389C38.0663 24.8631 37.6897 25.3039 37.2064 25.7178C36.7499 26.1316 36.2131 26.4909 35.6224 26.7393C35.0317 27.0152 34.3601 27.1533 33.6351 27.1533C32.1312 27.1533 31.0028 26.6289 30.224 25.5527C29.4452 24.4766 29.0697 23.069 29.0697 21.2754V9.4375H33.474V21ZM56.7249 8.91113V14.043H56.3763C56.2152 13.8223 55.9733 13.6296 55.6781 13.4365C55.3827 13.271 55.0872 13.1048 54.765 12.9668C54.4696 12.8288 54.1473 12.7185 53.8519 12.6357C53.5565 12.553 53.3148 12.498 53.0999 12.498C52.8315 12.498 52.5095 12.6085 52.1605 12.8291C51.8382 13.0499 51.4886 13.3537 51.1664 13.7676L51.1937 26.626H46.7083V19.3135L46.7357 9.43457H51.1664V12.9668C51.4886 12.6081 51.8383 12.1944 52.2142 11.7529C52.6438 11.2564 53.0728 10.7869 53.556 10.373C54.0125 9.93154 54.5233 9.57282 55.0872 9.29688C55.6511 9.02101 56.1075 8.88362 56.7249 8.91113ZM13.5189 0.69043C12.1493 0.69043 10.9671 1.02133 10.0003 1.68359C9.00685 2.34583 8.20094 3.22886 7.58334 4.3877C6.96572 5.54662 6.50911 6.89887 6.18686 8.47168C5.89149 10.0444 5.73083 11.7552 5.7308 13.5762C5.7308 15.3974 5.89146 17.1088 6.18686 18.6816C6.48227 20.2545 6.93882 21.6069 7.58334 22.7383C8.20098 23.8696 9.00676 24.7804 10.0003 25.415C10.967 26.1048 12.1489 26.4081 13.4915 26.4082C14.8612 26.4082 16.0433 26.0771 17.0101 25.4424C18.0037 24.8077 18.8094 23.897 19.4271 22.7656C20.0716 21.6343 20.5282 20.2818 20.8236 18.709C21.119 17.1638 21.2796 15.4525 21.2796 13.5762C21.2796 11.7276 21.1189 10.017 20.8236 8.44434C20.555 6.89905 20.098 5.51906 19.4535 4.3877C18.809 3.2564 18.0032 2.34583 17.0365 1.68359C16.0429 1.02143 14.8884 0.690448 13.5189 0.69043ZM65.1605 9.62988C64.5966 9.62993 64.0862 9.79612 63.6566 10.0996C63.2003 10.4031 62.8513 10.8166 62.556 11.3682C62.2606 11.8925 62.0189 12.5277 61.8578 13.2451C61.6966 13.9625 61.5892 14.7076 61.5355 15.5078V16.2256C61.5355 17.4119 61.6693 18.2948 61.8841 19.1777L67.9271 16.2256V15.1211C67.9271 13.4103 67.7122 11.589 67.2289 10.8164C66.7455 10.0162 66.0735 9.62988 65.1605 9.62988Z" fill="#212428"/>
<path d="M75.8282 10.6853V11.1747H75.0256V13.708H74.4214V11.1747H73.6188V10.6853H75.8282Z" fill="#212428"/>
<path d="M79.7325 10.6853V13.708H79.1284V11.742L78.3215 13.708H77.8641L77.0529 11.742V13.708H76.4488V10.6853H77.1349L78.0928 12.9329L79.0508 10.6853H79.7325Z" fill="#212428"/>
</svg>
