<svg width="198" height="25" viewBox="0 0 198 25" fill="none" xmlns="http://www.w3.org/2000/svg">
<g clip-path="url(#clip0_2033_377)">
<path d="M46.8196 28.7872C32.9982 32.6304 20.9579 29.3417 10.0827 16.357C11.0534 15.3211 11.6626 14.5968 12.1444 13.993C24.6027 26.5872 41.3437 26.5559 49.8725 25.7843C79.3193 23.1201 126.059 14.321 164.784 1.83331C166.262 1.7476 169.022 6.99006 165.324 11.1438C162.61 14.1919 97.8617 14.5944 46.8196 28.7872Z" fill="url(#paint0_linear_2033_377)"/>
<path d="M10.2767 11.4718C9.61971 12.3011 8.90484 13.1068 8.17423 13.873C7.28897 12.4362 6.72567 11.0292 6.58013 9.81856C6.49818 9.14786 6.57207 8.51926 6.75666 7.94344C6.99866 7.19745 7.43448 6.54517 7.97999 6.02108C8.23247 7.63721 9.03685 9.58193 10.2765 11.4691L10.2767 11.4718Z" fill="url(#paint1_linear_2033_377)"/>
<path d="M14.3977 8.36936C14.4636 10.1095 13.5558 12.0433 12.1962 13.9388C11.5788 14.8008 10.8692 15.652 10.115 16.4762C6.40679 20.5209 -4.565 27.818 -4.565 27.818L-4.79533 23.8456C-4.79533 23.8456 4.94017 17.2742 8.17719 13.8758C8.90785 13.1095 9.62529 12.3008 10.2798 11.4743C11.8423 9.50523 13.0698 7.42098 13.3677 5.50366C13.7167 5.86021 13.9973 6.33644 14.1779 6.94496L14.3032 7.48134C14.3541 7.75559 14.3847 8.05254 14.3979 8.37204L14.3977 8.36936Z" fill="url(#paint2_linear_2033_377)"/>
<path d="M14.1731 6.94245C13.9925 6.33405 13.712 5.85791 13.363 5.50144C11.984 4.08805 9.53672 4.53131 7.97906 6.0235C7.43357 6.54754 6.99778 7.19975 6.75579 7.94566L8.08873 3.55243C8.96776 0.334464 12.5947 -0.787997 13.3131 3.29524L13.3134 3.30061L14.1731 6.94245Z" fill="url(#paint3_linear_2033_377)"/>
</g>
<path d="M27.6011 14.7948H29.0411C29.0411 16.1628 29.8511 16.9548 31.3811 16.9548C32.9111 16.9548 33.7211 16.1628 33.7211 15.1548C33.7211 12.3648 27.6911 13.8048 27.6911 9.75476C27.6911 8.22476 29.2211 6.69475 31.3811 6.69475C33.3431 6.69475 34.8911 8.22476 34.8911 10.1148H33.4511C33.4511 8.83676 32.5511 7.95476 31.3811 7.95476C30.0311 7.95476 29.1311 8.83676 29.1311 9.75476C29.1311 12.5448 35.1611 11.1048 35.1611 15.1548C35.1611 16.7748 33.7391 18.2148 31.3811 18.2148C29.0231 18.2148 27.6011 16.7748 27.6011 14.7948ZM39.3074 18.1248V8.04476H35.8874V6.78475H44.1674V8.04476H40.7474V18.1248H39.3074ZM45.8817 18.1248V6.78475H50.1117C52.0017 6.78475 53.5317 8.31476 53.5317 10.1148C53.5317 11.4288 52.9017 12.2208 52.2717 12.7068C51.8937 12.9948 51.4797 13.2108 51.0297 13.3548L53.8017 18.1248H52.1817L49.4817 13.4448H47.3217V18.1248H45.8817ZM47.3217 12.1848H50.1117C51.1737 12.1848 52.0917 11.2668 52.0917 10.1148C52.0917 8.96276 51.1737 8.04476 50.1117 8.04476H47.3217V12.1848ZM60.366 7.95476C58.386 7.95476 56.496 9.84476 56.496 12.4548C56.496 15.0648 58.386 16.9548 60.366 16.9548C62.346 16.9548 64.236 15.0648 64.236 12.4548C64.236 9.84476 62.346 7.95476 60.366 7.95476ZM60.366 6.69475C63.156 6.69475 65.676 9.21476 65.676 12.4548C65.676 15.6948 63.156 18.2148 60.366 18.2148C57.576 18.2148 55.056 15.6948 55.056 12.4548C55.056 9.21476 57.576 6.69475 60.366 6.69475ZM67.7488 18.1248V6.78475H69.0088L74.6788 15.3348V6.78475H76.1188V18.1248H74.8588L69.1888 9.57476V18.1248H67.7488ZM87.3688 18.1248L87.0088 16.7748C86.7388 17.0448 86.4508 17.2788 86.1088 17.4948C85.5148 17.8548 84.6688 18.2148 83.5888 18.2148C80.7988 18.2148 78.2788 15.6948 78.2788 12.4548C78.2788 9.21476 80.7988 6.69475 83.5888 6.69475C86.1088 6.69475 87.6388 8.22476 88.3588 10.3848H86.8288C86.3788 8.94475 85.3888 7.95476 83.5888 7.95476C81.6088 7.95476 79.7188 9.84476 79.7188 12.4548C79.7188 15.0648 81.6088 16.9548 83.5888 16.9548C85.3888 16.9548 87.0088 15.3348 87.0088 13.7148H83.6788V12.4548H88.4488V18.1248H87.3688ZM91.1453 18.1248V6.78475H98.3453V8.04476H92.5853V11.6448H97.8953V12.9048H92.5853V16.8648H98.5253V18.1248H91.1453ZM100.866 18.1248V6.78475H105.096C106.986 6.78475 108.516 8.31476 108.516 10.1148C108.516 11.4288 107.886 12.2208 107.256 12.7068C106.878 12.9948 106.464 13.2108 106.014 13.3548L108.786 18.1248H107.166L104.466 13.4448H102.306V18.1248H100.866ZM102.306 12.1848H105.096C106.158 12.1848 107.076 11.2668 107.076 10.1148C107.076 8.96276 106.158 8.04476 105.096 8.04476H102.306V12.1848ZM116.878 18.1248V8.85476H113.548V6.78475H122.368V8.85476H119.038V18.1248H116.878ZM128.308 8.76476C126.508 8.76476 124.978 10.2948 124.978 12.4548C124.978 14.6148 126.508 16.1448 128.308 16.1448C130.108 16.1448 131.638 14.6148 131.638 12.4548C131.638 10.2948 130.108 8.76476 128.308 8.76476ZM128.308 6.69475C131.278 6.69475 133.798 9.21476 133.798 12.4548C133.798 15.6948 131.278 18.2148 128.308 18.2148C125.338 18.2148 122.818 15.6948 122.818 12.4548C122.818 9.21476 125.338 6.69475 128.308 6.69475ZM144.056 18.1248L143.606 17.0448C143.336 17.2788 143.048 17.4768 142.724 17.6388C142.166 17.9268 141.374 18.2148 140.366 18.2148C137.396 18.2148 134.876 15.6948 134.876 12.4548C134.876 9.21476 137.396 6.69475 140.366 6.69475C142.958 6.69475 144.884 8.58476 145.406 10.7448H143.156C142.868 9.75476 141.896 8.76476 140.366 8.76476C138.566 8.76476 137.036 10.2948 137.036 12.4548C137.036 14.6148 138.566 16.1448 140.366 16.1448C141.5 16.1448 142.22 15.6408 142.652 15.1188C142.904 14.8128 143.102 14.4528 143.246 14.0748H140.276V12.1848H145.586V18.1248H144.056ZM147.741 18.1248V6.78475H155.571V8.85476H149.901V11.2848H155.121V13.3548H149.901V16.0548H155.751V18.1248H147.741ZM159.979 18.1248V8.85476H156.649V6.78475H165.469V8.85476H162.139V18.1248H159.979ZM166.901 18.1248V6.78475H169.061V11.2848H173.831V6.78475H175.991V18.1248H173.831V13.3548H169.061V18.1248H166.901ZM178.326 18.1248V6.78475H186.156V8.85476H180.486V11.2848H185.706V13.3548H180.486V16.0548H186.336V18.1248H178.326ZM188.135 18.1248V6.78475H192.635C194.795 6.78475 196.415 8.40476 196.415 10.2948C196.415 11.5728 195.821 12.3828 195.191 12.9048C194.831 13.2108 194.435 13.4628 193.985 13.6248L196.685 18.1248H194.255L191.915 13.9848H190.295V18.1248H188.135ZM190.295 11.9148H192.635C193.553 11.9148 194.255 11.1948 194.255 10.3848C194.255 9.57476 193.553 8.85476 192.635 8.85476H190.295V11.9148Z" fill="#D453AF"/>
<defs>
<linearGradient id="paint0_linear_2033_377" x1="9.80629" y1="11.5907" x2="155.301" y2="-0.599444" gradientUnits="userSpaceOnUse">
<stop stop-color="#BE5AA5"/>
<stop offset="0.12" stop-color="#E8A6D5"/>
<stop offset="0.865" stop-color="#E6A0D2"/>
<stop offset="1" stop-color="#BE5AA5"/>
</linearGradient>
<linearGradient id="paint1_linear_2033_377" x1="6.17651" y1="7.27304" x2="9.7114" y2="12.5122" gradientUnits="userSpaceOnUse">
<stop stop-color="#BA0B93"/>
<stop offset="0.05" stop-color="#C726A2"/>
<stop offset="0.14" stop-color="#C15FA8"/>
<stop offset="0.23" stop-color="#CC69B1"/>
<stop offset="0.33" stop-color="#DE7BC1"/>
<stop offset="0.44" stop-color="#DF83C4"/>
<stop offset="0.626482" stop-color="#CE6BB3"/>
<stop offset="0.800687" stop-color="#B6529F"/>
<stop offset="0.90453" stop-color="#B12591"/>
<stop offset="1" stop-color="#B61792"/>
</linearGradient>
<linearGradient id="paint2_linear_2033_377" x1="16.0515" y1="6.66293" x2="-4.13061" y2="27.5888" gradientUnits="userSpaceOnUse">
<stop stop-color="#B73B9B"/>
<stop offset="0.05" stop-color="#CA67B0"/>
<stop offset="0.14" stop-color="#CB6AB4"/>
<stop offset="0.23" stop-color="#DB81C3"/>
<stop offset="0.33" stop-color="#E9A6D5"/>
<stop offset="0.44" stop-color="#E090C9"/>
<stop offset="0.59" stop-color="#E397CD"/>
<stop offset="0.723382" stop-color="#E298CD"/>
<stop offset="0.86853" stop-color="#DA7EC0"/>
<stop offset="0.945191" stop-color="#B3529D"/>
<stop offset="0.97" stop-color="#B73B9B"/>
<stop offset="1" stop-color="#C0199A"/>
</linearGradient>
<linearGradient id="paint3_linear_2033_377" x1="7.95131" y1="4.23033" x2="16.5771" y2="4.84677" gradientUnits="userSpaceOnUse">
<stop stop-color="#BD269B"/>
<stop offset="0.05" stop-color="#B44F9D"/>
<stop offset="0.14" stop-color="#B756A0"/>
<stop offset="0.308677" stop-color="#DD7AC0"/>
<stop offset="0.416418" stop-color="#E299CD"/>
<stop offset="0.463005" stop-color="#E397CD"/>
<stop offset="0.509591" stop-color="#E397CD"/>
<stop offset="0.59" stop-color="#E398CD"/>
<stop offset="0.78" stop-color="#E499CE"/>
<stop offset="0.85" stop-color="#CB6AB4"/>
<stop offset="0.89" stop-color="#CB68B2"/>
<stop offset="0.93" stop-color="#D476BB"/>
<stop offset="0.97" stop-color="#BA5AA3"/>
<stop offset="1" stop-color="#BB309B"/>
</linearGradient>
<clipPath id="clip0_2033_377">
<rect width="16.6956" height="24" fill="white" transform="matrix(0.999332 -0.0365526 0.0915316 0.995802 0 0.980469)"/>
</clipPath>
</defs>
</svg>
