<svg width="14" height="15" viewBox="0 0 14 15" fill="none" xmlns="http://www.w3.org/2000/svg">
<path d="M12.8506 4.89907C12.8504 4.67107 12.7902 4.44715 12.6761 4.24976C12.562 4.05237 12.398 3.88845 12.2005 3.77445L7.65008 1.17418C7.45244 1.06007 7.22824 1 7.00002 1C6.77179 1 6.54759 1.06007 6.34995 1.17418L1.79948 3.77445C1.60203 3.88845 1.43803 4.05237 1.32393 4.24976C1.20983 4.44715 1.14965 4.67107 1.14941 4.89907V10.0996C1.14965 10.3276 1.20983 10.5515 1.32393 10.7489C1.43803 10.9463 1.60203 11.1102 1.79948 11.2242L6.34995 13.8245C6.54759 13.9386 6.77179 13.9987 7.00002 13.9987C7.22824 13.9987 7.45244 13.9386 7.65008 13.8245L12.2005 11.2242C12.398 11.1102 12.562 10.9463 12.6761 10.7489C12.7902 10.5515 12.8504 10.3276 12.8506 10.0996V4.89907Z" stroke="#8B8C8E" stroke-width="0.75" stroke-linecap="round" stroke-linejoin="round"/>
<path d="M1.34448 4.24902L7.00006 7.49936L12.6556 4.24902" stroke="#8B8C8E" stroke-width="0.75" stroke-linecap="round" stroke-linejoin="round"/>
<path d="M7 14.0002V7.49951" stroke="#8B8C8E" stroke-width="0.75" stroke-linecap="round" stroke-linejoin="round"/>
</svg>
