<svg width="141" height="26" viewBox="0 0 141 26" fill="none" xmlns="http://www.w3.org/2000/svg">
<g clip-path="url(#clip0_525_1899)">
<path d="M93.8042 0.682861H89.3127V9.1335C88.6644 2.81288 86.326 0.682861 82.8995 0.682861C80.3295 0.682861 78.4079 1.95624 77.2271 5.29019C76.3705 1.9794 73.9163 0.682861 69.8415 0.682861H65.3499V9.1335H65.2341C64.5859 2.81288 62.2475 0.682861 58.8209 0.682861C55.5101 0.682861 53.1486 2.81288 52.4077 9.1335H52.2919V0.682861H46.5038L44.3738 13.3009H44.258L42.429 0.682861H36.4325V5.49856C35.9 2.60451 34.1867 0.682861 30.9686 0.682861C27.4262 0.682861 25.5046 3.13702 25.1805 6.23944C24.208 2.07201 22.078 0.682861 19.2997 0.682861C16.1973 0.682861 13.9515 2.5119 13.0949 7.74435C12.8865 3.99366 11.8215 0.682861 7.30678 0.682861C3.76446 0.682861 0.893555 3.90105 0.893555 13C0.893555 20.8023 2.49107 25.317 7.30678 25.317C11.59 25.317 12.7707 21.8905 13.0949 18.4639C13.9515 23.6038 16.1973 25.317 19.2997 25.317C22.2864 25.317 24.4396 23.6038 25.3888 18.7881C25.5972 21.8905 26.778 25.317 31.1769 25.317C33.6311 25.317 35.4601 24.252 36.4325 22.423V25.2013H39.7433V7.21185H39.8591L42.8458 25.2013H45.2999L48.2866 7.21185H48.4023V25.2013H52.3614V16.7506H52.4772C53.1254 23.0713 55.4638 25.2013 58.8904 25.2013C62.2012 25.2013 64.5627 23.0713 65.3036 16.7506H65.4194V25.2013H69.9109V15.3615H71.74C73.9858 15.3615 75.4907 14.5049 76.4399 13.1157C76.4399 22.3304 79.0098 25.2013 82.9689 25.2013C86.2797 25.2013 88.6413 23.0713 89.3821 16.7506V25.2013H99.546V21.4506H93.8737V0.682861H93.8042ZM9.4831 15.894C9.36734 19.3206 9.06636 21.4506 7.56145 21.4506C6.17231 21.4506 5.73241 20.5939 5.73241 12.7916C5.73241 4.87345 6.70481 4.34094 7.65406 4.34094C8.71907 4.34094 9.25158 5.84585 9.25158 9.68915L13.0023 9.57339C12.8865 10.6384 12.8865 11.7034 12.8865 13C12.8865 14.1807 12.8865 15.2457 13.0023 16.2181L9.4831 15.894ZM21.0362 15.4541C21.0362 20.5939 20.3879 21.5432 19.4386 21.5432C18.3736 21.5432 17.8411 20.4782 17.8411 15.4541V10.43C17.8411 5.2902 18.4894 4.34094 19.4386 4.34094C20.5037 4.34094 21.0362 5.40596 21.0362 10.43V15.4541ZM31.4085 21.5664C29.4868 21.5664 29.4868 19.2048 29.4868 17.9314H25.6435C25.8519 16.5423 25.9676 14.829 25.9676 12.9073C25.9676 11.9349 25.9676 10.9857 25.8519 10.129C27.7735 14.528 33.3533 15.8014 33.3533 19.3437C33.3533 20.1541 32.9134 21.5664 31.4085 21.5664ZM29.2784 6.47097C29.2784 5.19758 29.9267 4.34094 30.9917 4.34094C32.8207 4.34094 32.8208 6.58673 32.8208 7.88327H36.5714V15.0605C34.4183 11.1709 29.2784 9.666 29.2784 6.47097ZM60.5342 15.4541C60.5342 20.5939 59.8859 21.659 58.9367 21.659C57.8717 21.659 57.3392 20.5939 57.3392 15.4541V10.43C57.3392 5.2902 57.9874 4.22518 58.9367 4.22518C60.0017 4.22518 60.5342 5.2902 60.5342 10.43V15.4541ZM70.2582 11.8192H69.8415V4.43356H70.1656C71.6705 4.43356 73.0597 4.54931 73.0597 8.06848C73.0597 11.0783 72.0873 11.8192 70.2582 11.8192ZM84.497 15.4541C84.497 20.5939 83.8487 21.659 82.8995 21.659C81.8344 21.659 81.3019 20.5939 81.3019 15.4541V10.43C81.3019 5.2902 81.9502 4.22518 82.8995 4.22518C83.9645 4.22518 84.497 5.2902 84.497 10.43V15.4541ZM100.241 0.682861H104.732V25.2013H100.241V0.682861ZM117.582 0.682861H105.38V4.43356H109.224V25.2013H113.715V4.43356H117.559V0.682861M136.081 0.682861V13.6251H135.965L131.89 0.682861H127.491V22.0989L124.805 0.706015H118.276L114.85 25.2244H118.6L119.249 19.7605H122.93L123.578 25.2244H131.381V10.3374H131.496L136.312 25.2244H139.831V0.682861H136.081ZM119.828 16.195L121.217 4.43356H121.332L122.606 16.195H119.828Z" fill="#212428"/>
</g>
<defs>
<clipPath id="clip0_525_1899">
<rect width="139.278" height="24.6342" fill="white" transform="translate(0.895508 0.682861)"/>
</clipPath>
</defs>
</svg>
