<svg width="82" height="30" viewBox="0 0 82 30" fill="none" xmlns="http://www.w3.org/2000/svg">
<path d="M30.7118 29.2659H29.3096V0.89784H31.4938V0.520318H23.6602V0.89784H25.8445V29.2659H23.6602V29.63H36.105V21.9851H35.7409C35.66 27.0278 33.5567 29.2659 30.7118 29.2659ZM53.7946 29.2659H52.3923V0.89784H54.5766V0.520318H46.743V0.89784H48.9272V29.2659H46.743V29.63H59.1877V21.9851H58.8237C58.7563 27.0278 56.6395 29.2659 53.7946 29.2659ZM7.50767 29.2659H6.34814V15.001H6.84701C8.78855 15.001 9.81325 17.0639 9.81325 20.2054H10.1368V9.20332H9.81325C9.81325 11.8864 8.9099 14.6235 6.84701 14.6235H6.34814V0.89784H7.83126C10.1368 0.89784 12.6581 2.75848 12.6581 7.7202H12.9817V0.520318H0.981934V0.89784H2.88303V29.2659H0.981934V29.63H13.0222V22.0256H12.6986C12.6986 27.3918 9.97505 29.2659 7.50767 29.2659ZM81.5424 22.0121C81.5424 27.3918 78.8189 29.2524 76.3515 29.2524H75.192V14.9875H75.6908C77.6324 14.9875 78.6571 17.0504 78.6571 20.1919H78.9942V9.18984H78.6571C78.6571 11.8729 77.7537 14.61 75.6908 14.61H75.192V0.884356H76.6751C78.9941 0.884356 81.502 2.745 81.502 7.70672H81.8391V0.506836H69.8258V0.884356H71.7269V29.2524H69.8258V29.6165H81.866V22.0121H81.5424Z" fill="#212428"/>
</svg>
