<svg width="46" height="24" viewBox="0 0 46 24" fill="none" xmlns="http://www.w3.org/2000/svg">
<g clip-path="url(#clip0_525_1975)">
<path d="M36.9512 13.4049L36.3424 12.58H29.0859L32.0371 16.8413C28.9668 17.4412 26.0686 14.8739 26.1084 11.8875C26.1525 8.83491 28.6139 6.54986 31.5606 6.57196C34.7941 6.58957 38.0187 10.0745 36.9512 13.4049ZM41.305 18.6411C41.305 18.6411 43.4577 15.8311 43.4665 12.1742C43.4842 4.9883 38.451 0.321225 31.4283 0.307991C27.3611 0.303579 23.9072 2.28863 21.8118 5.19121C22.6808 6.42638 23.1881 7.6174 23.3954 8.40701H20.1797C20.0165 8.91429 19.8885 9.43483 19.7959 9.96856H23.766C23.8586 10.5553 23.9072 11.1552 23.9072 11.7684C23.9072 14.2298 23.1352 16.5104 21.8207 18.3896C23.8675 21.3319 27.2597 23.4669 31.468 23.4669C34.2603 23.4669 36.2321 22.2759 36.5895 22.0862L37.3305 23.0611H44.4767L41.305 18.6411Z" fill="#212428"/>
<path d="M13.0477 15.4213H16.0032C16.0032 15.5537 14.4902 17.027 12.214 17.027C9.7128 17.027 6.88081 15.0508 6.82343 11.8879C6.76611 8.61043 9.59811 6.46217 12.214 6.55477C14.3357 6.6298 15.143 7.23851 16.3296 8.40308C16.3296 8.40308 18.0412 8.40308 19.7792 8.40752H23.392C23.1847 7.61787 22.6774 6.42685 21.8084 5.19173C21.7334 5.09025 21.6628 4.98438 21.5834 4.88291C19.8454 2.56704 16.8237 0.220264 12.1257 0.211442C6.60731 0.202619 2.35046 3.89482 0.947686 8.40752C0.930044 8.46046 0.912398 8.51778 0.899163 8.57071C0.899163 8.57511 0.899163 8.57511 0.894752 8.57955C0.608023 9.58971 0.449219 10.6572 0.449219 11.7556C0.458041 12.8099 0.594789 13.8201 0.846229 14.7729C1.73289 18.0681 4.03555 20.7854 7.07488 22.2455C7.10137 22.2587 7.12342 22.2676 7.14986 22.2808C7.16309 22.2896 7.18075 22.2941 7.19841 22.3029C8.72908 22.9998 10.4495 23.388 12.2801 23.4013C16.1532 23.3704 19.5807 21.4736 21.6937 18.571C21.7378 18.5092 21.7775 18.4475 21.8216 18.3857C23.1362 16.5065 23.9081 14.2259 23.9081 11.7645C23.9081 11.1513 23.8596 10.5513 23.767 9.96468H13.0477V15.4213Z" fill="#212428"/>
</g>
<defs>
<clipPath id="clip0_525_1975">
<rect width="44.843" height="23.5772" fill="white" transform="translate(0.173828 0.211426)"/>
</clipPath>
</defs>
</svg>
