<svg width="51" height="29" viewBox="0 0 51 29" fill="none" xmlns="http://www.w3.org/2000/svg">
<path fill-rule="evenodd" clip-rule="evenodd" d="M0.680028 0.456877H12.5711C15.8589 0.456877 22.7846 1.5323 24.9231 7.18595C27.9097 -1.65317 39.1897 -0.24409 46.8399 0.711576C46.9816 0.729276 47.1221 0.746821 47.2612 0.764142C47.4353 0.805109 47.7836 0.954642 47.7836 1.22503V7.95411C47.7528 8.11798 47.5685 8.39657 47.0768 8.19992C46.5852 8.00327 43.4511 6.80699 41.9455 6.23343C41.5768 6.11053 40.7718 6.04293 40.5014 6.75578C40.1634 7.64685 41.0852 8.56864 42.3757 9.18316C43.6662 9.79769 48.2444 12.01 49.5964 16.158C50.9484 20.3061 49.2584 26.5743 42.345 28.3871C36.8142 29.8374 29.7574 28.3769 26.9203 27.4654C26.7974 27.4141 26.5516 27.238 26.5516 26.943V18.8927C26.5516 18.6879 26.693 18.3335 27.2583 18.5547C27.8237 18.7759 31.2425 20.4495 32.8813 21.2586C33.3114 21.4225 34.2701 21.5352 34.6634 20.6748C35.1476 19.6157 33.3666 18.6459 32.9898 18.4407L32.9734 18.4318C32.9393 18.4132 32.8594 18.3767 32.7413 18.3227C31.6893 17.8424 27.6035 15.9766 25.7527 12.9932C25.7424 13.1016 25.7325 13.2245 25.7217 13.3601C25.5082 16.0338 24.8976 23.6782 11.6801 22.9179V28.1106C11.6698 28.2438 11.551 28.51 11.1577 28.51H0.49567C0.372764 28.4998 0.126953 28.3687 0.126953 27.9262V0.948497C0.126953 0.784623 0.237568 0.456877 0.680028 0.456877ZM12.1713 6.75586C12.6732 6.77634 13.6769 7.10614 13.6769 8.26145V16.3118C13.6359 16.701 13.2897 17.5162 12.2328 17.6637C12.0484 17.6842 11.6797 17.5592 11.6797 16.8956V7.30893C11.6797 7.12458 11.778 6.75586 12.1713 6.75586Z" fill="#212428"/>
</svg>
