<svg width="222" height="16" viewBox="0 0 222 16" fill="none" xmlns="http://www.w3.org/2000/svg">
<g clip-path="url(#clip0_582_21326)">
<mask id="mask0_582_21326" style="mask-type:luminance" maskUnits="userSpaceOnUse" x="0" y="0" width="222" height="16">
<path d="M0.861328 0H221.052V15.2381H0.861328V0Z" fill="white"/>
</mask>
<g mask="url(#mask0_582_21326)">
<path d="M23.1089 0.228571L17.0137 15.2381H15.7947L11.9851 7.61905L8.17561 15.2381H6.95657L0.861328 0.228571H5.20419L7.94704 7.31429L11.3756 0H12.5947L16.0232 7.31429L18.7661 0.228571H23.1089ZM40.0994 15.0095H36.2899V9.06667H30.8042V15.0095H26.9947V0.228571H30.8042V5.63809H36.2137V0.304762H40.0232V15.0095H40.0994ZM48.328 7.61905C48.328 10.1333 50.0042 11.7333 52.3661 11.7333C54.6518 11.7333 56.4042 10.1333 56.4042 7.61905C56.4042 5.18095 54.6518 3.50476 52.3661 3.50476C50.0804 3.50476 48.328 5.18095 48.328 7.61905ZM60.3661 7.61905C60.3661 11.9619 56.7851 15.2381 52.3661 15.2381C47.947 15.2381 44.3661 11.9619 44.3661 7.61905C44.3661 3.27619 47.947 0 52.3661 0C56.7851 0 60.3661 3.27619 60.3661 7.61905ZM91.7566 0.228571L85.6613 15.2381H84.3661L80.5566 7.61905L76.8232 15.2381H75.6042L69.4328 0.228571H73.6994L76.5185 7.31429L79.947 0H81.1661L84.5947 7.31429L87.3375 0.228571H91.6804H91.7566ZM108.747 15.0095H104.861V9.06667H99.4518V15.0095H95.6423V0.228571H99.4518V5.63809H104.861V0.304762H108.671V15.0095H108.747ZM119.718 5.71429L118.423 9.14286H121.014L119.718 5.71429ZM121.699 12.1905H117.661L116.518 15.0095H112.328L118.957 0H120.861L127.109 15.0095H122.995L121.776 12.1905H121.699ZM196.976 5.71429L195.604 9.14286H198.195L196.976 5.71429ZM198.957 12.1905H194.918L193.699 15.0095H189.585L196.061 0H197.966L204.29 15.0095H200.099L198.957 12.1905ZM140.518 3.73333H136.023V15.0095H132.214V3.73333H127.718V0.228571H140.518V3.80952V3.73333ZM171.833 0.228571L165.738 15.2381H164.442L160.709 7.61905L156.899 15.2381H155.68L149.585 0.228571H153.852L156.671 7.31429L160.099 0H161.318L164.747 7.31429L167.49 0.228571H171.833ZM186.004 3.73333H179.528V5.71429H184.099V8.99048H179.528V11.4286H186.233V14.9333H175.642V0.228571H186.004V3.80952V3.73333ZM211.528 7.08571H213.433C214.576 7.08571 215.261 6.32381 215.261 5.33333C215.261 4.26667 214.499 3.58095 213.433 3.58095H211.528V7.08571ZM216.404 15.0095L213.128 10.4381H211.528V15.0095H207.642V0.228571H213.433C216.709 0.228571 219.147 2.20952 219.147 5.33333C219.147 7.1619 218.309 8.68571 216.861 9.52381L220.747 15.0095H216.404Z" fill="#B5B6B7"/>
</g>
</g>
<defs>
<clipPath id="clip0_582_21326">
<rect width="220.19" height="16" fill="white" transform="translate(0.86084)"/>
</clipPath>
</defs>
</svg>
