<svg width="146" height="45" viewBox="0 0 146 45" fill="none" xmlns="http://www.w3.org/2000/svg">
<rect x="0.5" y="1" width="145" height="43.5" rx="5" fill="black" fill-opacity="0.8" stroke="#D9D9D9"/>
<path d="M46.8691 16.4433V8.75247C47.4839 8.65967 48.2147 8.59007 49.0151 8.59007C50.4651 8.59007 51.4975 8.92647 52.1819 9.56447C52.8779 10.2025 53.2839 11.1073 53.2839 12.3717C53.2839 13.6477 52.8895 14.6917 52.1587 15.4109C51.4279 16.1417 50.2215 16.5361 48.7019 16.5361C47.9827 16.5361 47.3795 16.5013 46.8691 16.4433ZM47.8783 9.49487V15.6661C48.1335 15.7125 48.5047 15.7241 48.8991 15.7241C51.0567 15.7241 52.2283 14.5177 52.2283 12.4065C52.2399 10.5621 51.1959 9.39047 49.0615 9.39047C48.5395 9.39047 48.1451 9.43687 47.8783 9.49487Z" fill="white"/>
<path d="M57.0801 10.7245C58.6925 10.7245 59.7829 11.8961 59.7829 13.6129C59.7829 15.6893 58.3445 16.5941 56.9873 16.5941C55.4677 16.5941 54.2961 15.4805 54.2961 13.7057C54.2961 11.8265 55.5257 10.7245 57.0801 10.7245ZM57.0569 11.4901C55.8505 11.4901 55.3285 12.6037 55.3285 13.6709C55.3285 14.9005 56.0361 15.8285 57.0337 15.8285C58.0081 15.8285 58.7389 14.9121 58.7389 13.6477C58.7389 12.6965 58.2633 11.4901 57.0569 11.4901Z" fill="white"/>
<path d="M60.4479 10.8521H61.4919L62.2343 13.7057C62.3967 14.3321 62.5475 14.9121 62.6519 15.4921H62.6867C62.8143 14.9237 62.9999 14.3205 63.1855 13.7173L64.1019 10.8521H64.9603L65.8303 13.6593C66.0391 14.3321 66.2015 14.9237 66.3291 15.4921H66.3639C66.4567 14.9237 66.6075 14.3321 66.7931 13.6709L67.5935 10.8521H68.6027L66.7931 16.4665H65.8651L65.0067 13.7869C64.8095 13.1605 64.6471 12.6037 64.5079 11.9425H64.4847C64.3455 12.6153 64.1715 13.1953 63.9743 13.7985L63.0695 16.4665H62.1415L60.4479 10.8521Z" fill="white"/>
<path d="M69.724 16.4665V12.3717C69.724 11.7917 69.7124 11.3161 69.6776 10.8521H70.5824L70.6404 11.7801H70.6636C70.942 11.2465 71.5916 10.7245 72.5196 10.7245C73.2968 10.7245 74.5032 11.1885 74.5032 13.1141V16.4665H73.4824V13.2301C73.4824 12.3253 73.146 11.5713 72.1832 11.5713C71.5104 11.5713 70.9884 12.0469 70.8144 12.6153C70.768 12.7429 70.7448 12.9169 70.7448 13.0909V16.4665H69.724Z" fill="white"/>
<path d="M76.255 16.4665V8.23047H77.2758V16.4665H76.255Z" fill="white"/>
<path d="M81.4711 10.7245C83.0835 10.7245 84.1739 11.8961 84.1739 13.6129C84.1739 15.6893 82.7355 16.5941 81.3783 16.5941C79.8587 16.5941 78.6871 15.4805 78.6871 13.7057C78.6871 11.8265 79.9167 10.7245 81.4711 10.7245ZM81.4479 11.4901C80.2415 11.4901 79.7195 12.6037 79.7195 13.6709C79.7195 14.9005 80.4271 15.8285 81.4247 15.8285C82.3991 15.8285 83.1299 14.9121 83.1299 13.6477C83.1299 12.6965 82.6543 11.4901 81.4479 11.4901Z" fill="white"/>
<path d="M89.5929 16.4665H88.6649L88.5837 15.7589H88.5489C88.2357 16.1997 87.6325 16.5941 86.8321 16.5941C85.6953 16.5941 85.1153 15.7937 85.1153 14.9817C85.1153 13.6245 86.3217 12.8821 88.4909 12.8937V12.7777C88.4909 12.3137 88.3633 11.4785 87.2149 11.4785C86.6929 11.4785 86.1477 11.6409 85.7533 11.8961L85.5213 11.2233C85.9853 10.9217 86.6581 10.7245 87.3657 10.7245C89.0825 10.7245 89.5001 11.8961 89.5001 13.0213V15.1209C89.5001 15.6081 89.5233 16.0837 89.5929 16.4665ZM88.5141 14.5757V13.6013C87.4005 13.5781 86.1361 13.7753 86.1361 14.8657C86.1361 15.5269 86.5769 15.8401 87.0989 15.8401C87.8297 15.8401 88.2937 15.3761 88.4561 14.9005C88.4909 14.7961 88.5141 14.6801 88.5141 14.5757Z" fill="white"/>
<path d="M95.0769 8.23047H96.0977V15.0165C96.0977 15.5153 96.1093 16.0837 96.1441 16.4665H95.2277L95.1813 15.4921H95.1581C94.8449 16.1185 94.1605 16.5941 93.2441 16.5941C91.8869 16.5941 90.8429 15.4457 90.8429 13.7405C90.8313 11.8729 91.9913 10.7245 93.3601 10.7245C94.2185 10.7245 94.7985 11.1305 95.0537 11.5829H95.0769V8.23047ZM95.0769 14.1117V13.1373C95.0769 13.0097 95.0653 12.8357 95.0305 12.7081C94.8797 12.0585 94.3229 11.5249 93.5573 11.5249C92.5017 11.5249 91.8753 12.4529 91.8753 13.6941C91.8753 14.8309 92.4321 15.7705 93.5341 15.7705C94.2185 15.7705 94.8449 15.3181 95.0305 14.5525C95.0653 14.4133 95.0769 14.2741 95.0769 14.1117Z" fill="white"/>
<path d="M102.826 10.7245C104.438 10.7245 105.529 11.8961 105.529 13.6129C105.529 15.6893 104.09 16.5941 102.733 16.5941C101.214 16.5941 100.042 15.4805 100.042 13.7057C100.042 11.8265 101.272 10.7245 102.826 10.7245ZM102.803 11.4901C101.597 11.4901 101.074 12.6037 101.074 13.6709C101.074 14.9005 101.782 15.8285 102.78 15.8285C103.754 15.8285 104.485 14.9121 104.485 13.6477C104.485 12.6965 104.009 11.4901 102.803 11.4901Z" fill="white"/>
<path d="M106.911 16.4665V12.3717C106.911 11.7917 106.9 11.3161 106.865 10.8521H107.77L107.828 11.7801H107.851C108.129 11.2465 108.779 10.7245 109.707 10.7245C110.484 10.7245 111.69 11.1885 111.69 13.1141V16.4665H110.67V13.2301C110.67 12.3253 110.333 11.5713 109.37 11.5713C108.698 11.5713 108.176 12.0469 108.002 12.6153C107.955 12.7429 107.932 12.9169 107.932 13.0909V16.4665H106.911Z" fill="white"/>
<path d="M116.229 9.50647L117.227 9.23967V10.8521H118.688V11.6293H117.227V14.6569C117.227 15.3529 117.424 15.7473 117.992 15.7473C118.259 15.7473 118.456 15.7125 118.584 15.6777L118.63 16.4433C118.433 16.5245 118.12 16.5825 117.725 16.5825C117.25 16.5825 116.867 16.4317 116.623 16.1533C116.333 15.8517 116.229 15.3529 116.229 14.6917V11.6293H115.359V10.8521H116.229V9.50647Z" fill="white"/>
<path d="M119.934 16.4665V8.23047H120.955V11.7337H120.978C121.14 11.4437 121.396 11.1885 121.709 11.0145C122.01 10.8405 122.37 10.7245 122.753 10.7245C123.507 10.7245 124.713 11.1885 124.713 13.1257V16.4665H123.692V13.2417C123.692 12.3369 123.356 11.5713 122.393 11.5713C121.732 11.5713 121.21 12.0353 121.024 12.5921C120.966 12.7313 120.955 12.8821 120.955 13.0793V16.4665H119.934Z" fill="white"/>
<path d="M130.977 13.8449H127.033C127.057 15.2253 127.938 15.7937 128.959 15.7937C129.69 15.7937 130.131 15.6661 130.513 15.5037L130.687 16.2345C130.328 16.3969 129.713 16.5825 128.82 16.5825C127.091 16.5825 126.059 15.4457 126.059 13.7521C126.059 12.0585 127.057 10.7245 128.692 10.7245C130.525 10.7245 131.012 12.3369 131.012 13.3693C131.012 13.5781 130.989 13.7405 130.977 13.8449ZM127.045 13.1141H130.026C130.038 12.4645 129.759 11.4553 128.611 11.4553C127.579 11.4553 127.126 12.4065 127.045 13.1141Z" fill="white"/>
<path d="M53.9834 30.3248H48.9007L47.412 34.8333H45.498L50.3681 20.4996H52.6011L57.4924 34.8333H55.5146L53.9834 30.3248ZM49.2835 28.8786H53.6006L52.197 24.7529C51.878 23.8172 51.6654 22.9665 51.4527 22.1371H51.4102C51.1975 22.9878 50.9636 23.8597 50.6871 24.7316L49.2835 28.8786Z" fill="white"/>
<path d="M59.4782 39.0441V27.9004C59.4782 26.5818 59.4357 25.5185 59.3932 24.5402H61.0732L61.1583 26.3054H61.2008C61.9664 25.0506 63.1786 24.3063 64.8587 24.3063C67.3469 24.3063 69.2184 26.4117 69.2184 29.5379C69.2184 33.2383 66.9641 35.0672 64.5397 35.0672C63.1786 35.0672 61.9877 34.4718 61.371 33.451H61.3284V39.0441H59.4782ZM61.3284 28.8786V30.6438C61.3284 30.9202 61.371 31.1754 61.4135 31.4094C61.7538 32.7066 62.8809 33.5998 64.2207 33.5998C66.1985 33.5998 67.3469 31.9836 67.3469 29.623C67.3469 27.5601 66.2623 25.795 64.2845 25.795C63.0085 25.795 61.8176 26.7094 61.456 28.113C61.3922 28.347 61.3284 28.6234 61.3284 28.8786Z" fill="white"/>
<path d="M71.5861 39.0441V27.9004C71.5861 26.5818 71.5436 25.5185 71.501 24.5402H73.1811L73.2662 26.3054H73.3087C74.0743 25.0506 75.2865 24.3063 76.9666 24.3063C79.4548 24.3063 81.3262 26.4117 81.3262 29.5379C81.3262 33.2383 79.072 35.0672 76.6476 35.0672C75.2865 35.0672 74.0956 34.4718 73.4788 33.451H73.4363V39.0441H71.5861ZM73.4363 28.8786V30.6438C73.4363 30.9202 73.4788 31.1754 73.5214 31.4094C73.8616 32.7066 74.9888 33.5998 76.3286 33.5998C78.3064 33.5998 79.4548 31.9836 79.4548 29.623C79.4548 27.5601 78.3702 25.795 76.3924 25.795C75.1164 25.795 73.9254 26.7094 73.5639 28.113C73.5001 28.347 73.4363 28.6234 73.4363 28.8786Z" fill="white"/>
<path d="M87.5414 34.1315L88.0093 32.579C88.8387 33.0894 90.0509 33.5148 91.3269 33.5148C93.2196 33.5148 94.3255 32.5152 94.3255 31.0691C94.3255 29.7293 93.5599 28.9637 91.6246 28.2194C89.2853 27.39 87.8391 26.1778 87.8391 24.1574C87.8391 21.9244 89.6893 20.2656 92.4753 20.2656C93.9427 20.2656 95.006 20.6059 95.644 20.9674L95.1336 22.4774C94.6657 22.2222 93.7087 21.7968 92.4115 21.7968C90.4549 21.7968 89.7106 22.9665 89.7106 23.9448C89.7106 25.2846 90.5825 25.9438 92.5603 26.7094C94.9847 27.6452 96.2182 28.8148 96.2182 30.9202C96.2182 33.132 94.5807 35.046 91.1993 35.046C89.8169 35.046 88.307 34.6419 87.5414 34.1315Z" fill="white"/>
<path d="M99.0517 22.0733L100.881 21.5842V24.5402H103.56V25.9651H100.881V31.5157C100.881 32.7917 101.242 33.5148 102.284 33.5148C102.773 33.5148 103.135 33.451 103.369 33.3872L103.454 34.7908C103.092 34.9396 102.518 35.046 101.795 35.046C100.923 35.046 100.221 34.7695 99.7747 34.2591C99.2431 33.7062 99.0517 32.7917 99.0517 31.5795V25.9651H97.4567V24.5402H99.0517V22.0733Z" fill="white"/>
<path d="M109.902 24.3063C112.858 24.3063 114.857 26.4542 114.857 29.6017C114.857 33.4084 112.22 35.0672 109.732 35.0672C106.946 35.0672 104.798 33.0256 104.798 29.7718C104.798 26.3266 107.052 24.3063 109.902 24.3063ZM109.859 25.7099C107.648 25.7099 106.691 27.7515 106.691 29.708C106.691 31.9623 107.988 33.6636 109.817 33.6636C111.603 33.6636 112.943 31.9836 112.943 29.6655C112.943 27.9216 112.071 25.7099 109.859 25.7099Z" fill="white"/>
<path d="M117.214 34.8333V27.7515C117.214 26.5393 117.193 25.4972 117.129 24.5402H118.766L118.83 26.5606H118.915C119.383 25.1782 120.51 24.3063 121.765 24.3063C121.978 24.3063 122.126 24.3276 122.297 24.3701V26.1352C122.105 26.0927 121.914 26.0714 121.659 26.0714C120.34 26.0714 119.404 27.071 119.149 28.4746C119.107 28.7298 119.064 29.0275 119.064 29.3465V34.8333H117.214Z" fill="white"/>
<path d="M132.236 30.027H125.006C125.048 32.5578 126.664 33.5998 128.536 33.5998C129.876 33.5998 130.684 33.3659 131.386 33.0682L131.705 34.408C131.045 34.7057 129.918 35.046 128.281 35.046C125.112 35.046 123.219 32.9618 123.219 29.8569C123.219 26.752 125.048 24.3063 128.047 24.3063C131.407 24.3063 132.3 27.2624 132.3 29.1551C132.3 29.5379 132.258 29.8356 132.236 30.027ZM125.027 28.6872H130.492C130.514 27.4963 130.003 25.6461 127.898 25.6461C126.005 25.6461 125.176 27.39 125.027 28.6872Z" fill="white"/>
<path fill-rule="evenodd" clip-rule="evenodd" d="M38.2015 28.0173C37.5636 27.8712 36.4327 27.0608 36.0123 26.5925C35.8949 26.4618 35.8039 26.4292 35.6886 26.3012C33.8458 24.2574 33.5343 21.0552 34.9585 18.8401C35.7856 17.5537 36.2546 17.4015 37.2287 16.6804C37.2556 16.6604 37.2981 16.6247 37.3246 16.6017L37.3842 16.5411C36.8717 15.7098 35.6318 14.7781 34.7031 14.3805C31.4063 12.9688 29.6348 13.9096 26.8498 14.7794C25.8843 15.0809 25.8046 15.0963 24.8284 14.7939C22.6631 14.1233 21.3739 13.3378 18.9245 13.989C16.5732 14.6141 14.8236 16.2452 13.8446 18.4536C11.989 22.6397 13.7652 28.2006 15.9647 31.5806C16.9873 33.152 18.853 35.6111 20.865 35.7881C23.083 35.9832 24.6496 33.7569 28.4666 35.026C30.1743 35.5937 31.524 36.2631 33.2467 35.1946C34.8261 34.2149 36.4044 31.8682 37.3011 30.1763C37.5907 29.6298 38.0494 28.6621 38.2015 28.0173ZM31.9031 6.80029C30.7453 6.80117 29.2161 7.50372 28.3284 8.14675C27.9402 8.42789 27.7343 8.65866 27.4419 8.94512C26.6426 9.72828 25.9846 10.9368 25.7482 12.1052C25.6951 12.3679 25.5354 13.4411 25.7066 13.6109C25.871 13.774 26.8951 13.5899 27.1474 13.5235C27.5726 13.4116 27.9803 13.2505 28.3198 13.0575C29.7031 12.2707 30.8135 11.069 31.4552 9.63643C31.8309 8.79758 31.9625 7.83153 31.9031 6.80029Z" fill="white"/>
</svg>
