<svg width="41" height="41" viewBox="0 0 41 41" fill="none" xmlns="http://www.w3.org/2000/svg">
<path d="M20.334 6.59924C21.9582 6.59939 23.5782 7.99956 24.8213 10.61C26.0466 13.1832 26.8174 16.7738 26.8174 20.7662C26.8173 24.7584 26.0465 28.3483 24.8213 30.9215C23.5782 33.5319 21.9582 34.9321 20.334 34.9323C18.7097 34.9323 17.0898 33.5321 15.8467 30.9215C14.6214 28.3483 13.8497 24.7585 13.8496 20.7662C13.8496 16.7737 14.6213 13.1833 15.8467 10.61C17.0898 7.99943 18.7097 6.59924 20.334 6.59924Z" stroke="#212428"/>
<path d="M32.6021 27.8491C31.7899 29.2556 29.7673 29.9585 26.8851 29.7298C24.0439 29.5043 20.5491 28.3766 17.0915 26.3804C13.6341 24.3842 10.9106 21.9217 9.29479 19.574C7.65563 17.1923 7.25305 15.0893 8.06504 13.6826C8.8772 12.2759 10.8997 11.5731 13.7821 11.8018C16.6232 12.0273 20.1179 13.1538 23.5754 15.1499C27.033 17.1462 29.7566 19.6097 31.3724 21.9576C33.0116 24.3394 33.4143 26.4424 32.6021 27.8491Z" stroke="#212428"/>
<path d="M8.06485 27.8494C7.25286 26.4427 7.65544 24.3397 9.2946 21.9579C10.9105 19.6102 13.6345 17.1474 17.0921 15.1511C20.5495 13.1551 24.0439 12.0277 26.8849 11.8022C29.7671 11.5735 31.7897 12.2764 32.602 13.6829C33.4141 15.0896 33.0115 17.1926 31.3722 19.5744C29.7564 21.9221 27.0334 24.3854 23.576 26.3816C20.1183 28.3779 16.6231 29.5047 13.7819 29.7302C10.8995 29.9589 8.87701 29.2561 8.06485 27.8494Z" stroke="#212428"/>
</svg>
