<svg width="21" height="20" viewBox="0 0 21 20" fill="none" xmlns="http://www.w3.org/2000/svg">
<path d="M4.01818 11.6246C3.86447 11.6251 3.71376 11.582 3.58357 11.5003C3.45338 11.4186 3.34905 11.3016 3.2827 11.1629C3.21635 11.0243 3.1907 10.8696 3.20874 10.717C3.22678 10.5643 3.28776 10.4199 3.3846 10.3005L11.4263 2.0152C11.4866 1.94558 11.5688 1.89852 11.6594 1.88177C11.75 1.86502 11.8435 1.87956 11.9248 1.92301C12.006 1.96646 12.0701 2.03624 12.1064 2.12089C12.1428 2.20554 12.1493 2.30003 12.1248 2.38886L10.5652 7.27883C10.5192 7.40191 10.5038 7.53431 10.5202 7.66468C10.5366 7.79504 10.5844 7.91947 10.6595 8.0273C10.7346 8.13513 10.8347 8.22313 10.9513 8.28376C11.0679 8.3444 11.1974 8.37585 11.3288 8.37542H17.0148C17.1685 8.3749 17.3192 8.418 17.4494 8.49972C17.5796 8.58144 17.6839 8.69843 17.7503 8.83708C17.8166 8.97574 17.8423 9.13038 17.8242 9.28303C17.8062 9.43568 17.7452 9.58008 17.6484 9.69945L9.60673 17.9848C9.54641 18.0544 9.4642 18.1015 9.37362 18.1182C9.28303 18.135 9.18944 18.1204 9.1082 18.077C9.02697 18.0335 8.96292 17.9638 8.92657 17.8791C8.89022 17.7945 8.88373 17.7 8.90816 17.6111L10.4678 12.7212C10.5137 12.5981 10.5292 12.4657 10.5128 12.3353C10.4963 12.205 10.4485 12.0805 10.3735 11.9727C10.2984 11.8649 10.1983 11.7769 10.0817 11.7162C9.96513 11.6556 9.83559 11.6241 9.7042 11.6246H4.01818Z" stroke="#212428" stroke-width="1.25" stroke-linecap="round" stroke-linejoin="round"/>
</svg>
