<svg width="21" height="20" viewBox="0 0 21 20" fill="none" xmlns="http://www.w3.org/2000/svg">
<path d="M15.0826 15.8333H7.99924C6.91746 15.833 5.85707 15.532 4.93656 14.9637C4.01604 14.3955 3.27168 13.5824 2.78664 12.6155C2.30159 11.6486 2.09499 10.5658 2.1899 9.48818C2.28482 8.41057 2.67752 7.38058 3.32412 6.51331C3.97071 5.64604 4.84574 4.97565 5.85141 4.57706C6.85708 4.17847 7.95378 4.06739 9.01895 4.25621C10.0841 4.44504 11.0758 4.92634 11.8832 5.64633C12.6906 6.36632 13.2818 7.29664 13.5909 8.33333H15.0826C16.0771 8.33333 17.031 8.72841 17.7342 9.43168C18.4375 10.1349 18.8326 11.0888 18.8326 12.0833C18.8326 13.0779 18.4375 14.0317 17.7342 14.735C17.031 15.4382 16.0771 15.8333 15.0826 15.8333Z" stroke="#212428" stroke-width="1.25" stroke-linecap="round" stroke-linejoin="round"/>
</svg>
