<svg width="22" height="21" viewBox="0 0 22 21" fill="none" xmlns="http://www.w3.org/2000/svg">
<path d="M1.46973 0.969727C1.76262 0.676833 2.23738 0.676833 2.53027 0.969727L20.5303 18.9697L20.582 19.0264C20.8223 19.3209 20.8049 19.7557 20.5303 20.0303C20.2557 20.3049 19.8209 20.3223 19.5264 20.082L19.4697 20.0303L1.46973 2.03027C1.17683 1.73738 1.17683 1.26262 1.46973 0.969727Z" stroke="#212428" stroke-width="1.5" stroke-linecap="round" stroke-linejoin="round"/>
<path d="M19.4697 0.969727C19.7626 0.676833 20.2374 0.676833 20.5303 0.969727C20.8232 1.26262 20.8232 1.73738 20.5303 2.03027L2.53027 20.0303C2.23738 20.3232 1.76262 20.3232 1.46973 20.0303C1.17683 19.7374 1.17683 19.2626 1.46973 18.9697L19.4697 0.969727Z" stroke="#212428" stroke-width="1.5" stroke-linecap="round" stroke-linejoin="round"/>
</svg>
