<svg width="50" height="50" viewBox="0 0 50 50" fill="none" xmlns="http://www.w3.org/2000/svg">
<path d="M28.0874 38.357C26.6893 39.0934 25.1062 39.5076 23.427 39.5076C17.7089 39.5076 13.0708 34.6984 13.0708 28.7693C13.0708 28.5162 13.0782 28.2707 13.093 28.0253C13.093 28.0253 12.4124 23.4002 23.427 6.77887C33.6279 22.1729 33.7981 27.2813 33.7685 27.9486" stroke="#212428" stroke-width="1.36719" stroke-miterlimit="2.61313" stroke-linecap="round" stroke-linejoin="round"/>
<path d="M24.059 34.637C20.3456 34.637 17.3423 31.5152 17.3423 27.6725" stroke="#212428" stroke-width="1.36719" stroke-miterlimit="2.61313" stroke-linecap="round" stroke-linejoin="round"/>
<path d="M9.56288 18.1999C12.7495 18.1999 15.3328 15.5213 15.3328 12.2171C15.3328 8.91294 12.7495 6.23438 9.56288 6.23438C6.37625 6.23438 3.79297 8.91294 3.79297 12.2171C3.79297 15.5213 6.37625 18.1999 9.56288 18.1999Z" stroke="#212428" stroke-width="1.36719" stroke-miterlimit="2.61313" stroke-linecap="round" stroke-linejoin="round"/>
<path d="M9.79867 15.1317C8.11948 15.1317 6.75098 13.7204 6.75098 11.9716" stroke="#212428" stroke-width="1.36719" stroke-miterlimit="2.61313" stroke-linecap="round" stroke-linejoin="round"/>
<path d="M38.207 43.7656C42.6253 43.7656 46.207 40.1839 46.207 35.7656C46.207 31.3473 42.6253 27.7656 38.207 27.7656C33.7888 27.7656 30.207 31.3473 30.207 35.7656C30.207 40.1839 33.7888 43.7656 38.207 43.7656Z" stroke="#212428" stroke-width="1.36719" stroke-miterlimit="2.61313" stroke-linecap="round" stroke-linejoin="round"/>
<path d="M43.7512 38.0797C42.8447 40.2506 40.7055 41.7695 38.2085 41.7695" stroke="#212428" stroke-width="0.78125" stroke-miterlimit="2.61313" stroke-linecap="round" stroke-linejoin="round"/>
<path d="M42.0659 31.1613C42.6226 31.6305 43.0918 32.1951 43.4576 32.8313" stroke="#212428" stroke-width="0.78125" stroke-miterlimit="2.61313" stroke-linecap="round" stroke-linejoin="round"/>
<path d="M37.7182 38.5909V37.9194C36.9283 37.793 36.3358 37.2085 36.3358 36.3396H37.2838C37.2838 36.7819 37.5997 37.09 38.1132 37.09C38.674 37.09 38.9426 36.8135 38.9426 36.4976C38.9426 35.5891 36.3753 36.0631 36.3753 34.3331C36.3753 33.6143 36.9283 33.0693 37.7182 32.9429V32.2714H38.5871V32.9429C39.2586 33.1325 39.772 33.6617 39.772 34.4832H38.8636C38.8636 34.0409 38.5871 33.7723 38.1132 33.7723C37.6392 33.7723 37.3627 34.0488 37.3627 34.3252C37.3627 35.1863 39.93 34.7281 39.93 36.5371C39.93 37.169 39.3455 37.7693 38.5871 37.9194V38.5909H37.7182Z" fill="#212428"/>
</svg>
