<svg width="53" height="42" viewBox="0 0 53 42" fill="none" xmlns="http://www.w3.org/2000/svg">
<g clip-path="url(#clip0_313_1090)">
<path fill-rule="evenodd" clip-rule="evenodd" d="M20.8143 36.595C22.4076 37.3995 24.2077 37.853 26.1139 37.853H26.1232H26.1325C28.0387 37.853 29.8387 37.3995 31.432 36.595L31.4292 36.5866C35.263 34.6441 37.8909 30.6669 37.8909 26.0751C37.8909 25.8004 37.8797 25.5294 37.862 25.2603H37.863C37.863 25.2603 37.8667 25.2323 37.8695 25.1755L37.8881 25.1718C37.9235 24.438 37.7344 18.8414 26.1325 1.95764L26.1232 1.97068L26.1139 1.95764C14.5119 18.8414 14.3229 24.438 14.3583 25.1718L14.3769 25.1755C14.3797 25.2323 14.3834 25.2603 14.3834 25.2603H14.3843C14.3657 25.5294 14.3555 25.8004 14.3555 26.0751C14.3555 30.6669 16.9833 34.6441 20.8171 36.5866L20.8143 36.595V36.595Z" fill="#E9F1FB" stroke="#212428" stroke-width="1.1" stroke-miterlimit="2.61313" stroke-linecap="round" stroke-linejoin="round"/>
<path fill-rule="evenodd" clip-rule="evenodd" d="M25.9113 33.4987C21.692 33.4987 18.2707 30.0774 18.2707 25.8581Z" fill="#E9F1FB"/>
<path d="M25.9113 33.4987C21.692 33.4987 18.2707 30.0774 18.2707 25.8581" stroke="#212428" stroke-width="1.1" stroke-miterlimit="2.61313" stroke-linecap="round" stroke-linejoin="round"/>
<path d="M43.4643 20.6849C42.2999 20.6849 41.356 19.7407 41.356 18.5765" stroke="#212428" stroke-width="0.820652" stroke-miterlimit="2.61313" stroke-linecap="round" stroke-linejoin="round"/>
<path fill-rule="evenodd" clip-rule="evenodd" d="M41.6009 21.8096C42.0876 22.0727 42.6381 22.2213 43.2206 22.2213H43.2238H43.2271C43.8095 22.2213 44.3601 22.0727 44.8467 21.8096L44.8454 21.8068C46.0169 21.1712 46.8202 19.8692 46.8202 18.3662C46.8202 18.2762 46.8169 18.1876 46.8111 18.0996H46.8117C46.8117 18.0996 46.813 18.0906 46.8137 18.0717L46.8196 18.0703C46.8306 17.8303 46.7726 15.998 43.2264 10.4718L43.2238 10.476L43.2212 10.4718C39.675 15.9987 39.617 17.8303 39.6281 18.0703L39.6339 18.0717C39.6346 18.0906 39.6359 18.0996 39.6359 18.0996C39.63 18.1876 39.6268 18.2769 39.6268 18.3662C39.6268 19.8692 40.4301 21.1712 41.6015 21.8068L41.6002 21.8096H41.6009Z" stroke="#212428" stroke-width="1.1" stroke-miterlimit="2.61313" stroke-linecap="round" stroke-linejoin="round"/>
<path d="M9.78116 39.1596C8.60837 39.1596 7.65729 38.2085 7.65729 37.0357" stroke="#212428" stroke-width="0.816667" stroke-miterlimit="2.61313" stroke-linecap="round" stroke-linejoin="round"/>
<path fill-rule="evenodd" clip-rule="evenodd" d="M8.31669 40.5873C8.87448 40.8685 9.50491 41.0277 10.1735 41.0277H10.1772H10.181C10.8487 41.0277 11.4791 40.8685 12.0369 40.5873L12.0359 40.5845C13.3788 39.9038 14.2997 38.5107 14.2997 36.9025C14.2997 36.8065 14.296 36.7116 14.2895 36.6175C14.2895 36.6175 14.2913 36.6082 14.2923 36.5877L14.2988 36.5868C14.3109 36.3298 14.2448 34.3696 10.181 28.4554L10.1782 28.4601L10.1754 28.4554C6.11158 34.3696 6.04547 36.3298 6.05757 36.5868L6.06409 36.5877C6.06502 36.6073 6.06688 36.6175 6.06688 36.6175C6.06037 36.7116 6.05664 36.8065 6.05664 36.9025C6.05664 38.5107 6.97761 39.9038 8.32041 40.5845L8.31948 40.5873H8.31669Z" stroke="#212428" stroke-width="1.1" stroke-miterlimit="2.61313" stroke-linecap="round" stroke-linejoin="round"/>
<path fill-rule="evenodd" clip-rule="evenodd" d="M12.213 20.5783C12.9086 20.9294 13.6955 21.1278 14.528 21.1278H14.5326H14.5373C15.3698 21.1278 16.1567 20.9294 16.8523 20.5783L16.8504 20.5746C18.5247 19.7263 19.6729 17.9887 19.6729 15.9828C19.6729 15.8627 19.6683 15.7444 19.6599 15.6271H19.6608C19.6608 15.6271 19.6627 15.615 19.6636 15.5899L19.672 15.588C19.6878 15.2677 19.6049 12.8223 14.5364 5.4471L14.5326 5.45269L14.5289 5.4471C9.46033 12.8232 9.37745 15.2677 9.39328 15.588L9.40166 15.5899C9.40259 15.615 9.40446 15.6271 9.40446 15.6271C9.39607 15.7444 9.39142 15.8636 9.39142 15.9828C9.39142 17.9887 10.5396 19.7263 12.2139 20.5746L12.2121 20.5783H12.213Z" fill="#E9F1FB" stroke="#212428" stroke-width="1.1" stroke-miterlimit="2.61313" stroke-linecap="round" stroke-linejoin="round"/>
<path d="M14.4339 19.2263C12.5901 19.2263 11.0955 17.7317 11.0955 15.8888" stroke="#212428" stroke-width="0.816667" stroke-miterlimit="2.61313" stroke-linecap="round" stroke-linejoin="round"/>
<path d="M37.9343 36.5819C40.0362 36.5819 41.7401 34.8779 41.7401 32.776C41.7401 30.6741 40.0362 28.9701 37.9343 28.9701C35.8324 28.9701 34.1284 30.6741 34.1284 32.776C34.1284 34.8779 35.8324 36.5819 37.9343 36.5819Z" fill="#E9F1FB" stroke="#212428" stroke-width="1.1" stroke-miterlimit="2.61313" stroke-linecap="round" stroke-linejoin="round"/>
<path d="M4.65614 23.8867C6.31371 23.8867 7.65743 22.543 7.65743 20.8854C7.65743 19.2278 6.31371 17.8841 4.65614 17.8841C2.99857 17.8841 1.65485 19.2278 1.65485 20.8854C1.65485 22.543 2.99857 23.8867 4.65614 23.8867Z" fill="#E9F1FB" stroke="#212428" stroke-width="1.1" stroke-miterlimit="2.61313" stroke-linecap="round" stroke-linejoin="round"/>
<path d="M50.1149 23.1469C51.0859 23.1469 51.8731 22.3598 51.8731 21.3888C51.8731 20.4178 51.0859 19.6307 50.1149 19.6307C49.144 19.6307 48.3568 20.4178 48.3568 21.3888C48.3568 22.3598 49.144 23.1469 50.1149 23.1469Z" fill="#E9F1FB" stroke="#212428" stroke-width="1.1" stroke-miterlimit="2.61313" stroke-linecap="round" stroke-linejoin="round"/>
<path d="M33.2441 6.31194C34.6903 6.31194 35.8627 5.13957 35.8627 3.69337C35.8627 2.24718 34.6903 1.07481 33.2441 1.07481C31.7979 1.07481 30.6255 2.24718 30.6255 3.69337C30.6255 5.13957 31.7979 6.31194 33.2441 6.31194Z" fill="#E9F1FB" stroke="#212428" stroke-width="1.1" stroke-miterlimit="2.61313" stroke-linecap="round" stroke-linejoin="round"/>
</g>
<defs>
<clipPath id="clip0_313_1090">
<rect width="51.6923" height="42" fill="white" transform="translate(0.65387)"/>
</clipPath>
</defs>
</svg>
