<svg xmlns="http://www.w3.org/2000/svg" width="81" height="30" viewBox="0 0 81 30" fill="none">
  <path d="M29.7914 29.4529H28.3892V1.08485H30.5734V0.707329H22.7398V1.08485H24.924V29.4529H22.7398V29.817H35.1846V22.1721H34.8205C34.7396 27.2148 32.6363 29.4529 29.7914 29.4529ZM52.8742 29.4529H51.4719V1.08485H53.6562V0.707329H45.8226V1.08485H48.0068V29.4529H45.8226V29.817H58.2673V22.1721H57.9033C57.8359 27.2148 55.7191 29.4529 52.8742 29.4529ZM6.58726 29.4529H5.42773V15.188H5.9266C7.86814 15.188 8.89284 17.2509 8.89284 20.3924H9.21643V9.39034H8.89284C8.89284 12.0734 7.98949 14.8105 5.9266 14.8105H5.42773V1.08485H6.91085C9.21643 1.08485 11.7377 2.9455 11.7377 7.90721H12.0613V0.707329H0.0615234V1.08485H1.96262V29.4529H0.0615234V29.817H12.1018V22.2126H11.7782C11.7782 27.5788 9.05464 29.4529 6.58726 29.4529ZM80.622 22.1991C80.622 27.5788 77.8985 29.4394 75.4311 29.4394H74.2716V15.1745H74.7704C76.712 15.1745 77.7367 17.2374 77.7367 20.3789H78.0737V9.37685H77.7367C77.7367 12.06 76.8333 14.797 74.7704 14.797H74.2716V1.07137H75.7547C78.0737 1.07137 80.5816 2.93201 80.5816 7.89373H80.9186V0.693848H68.9054V1.07137H70.8064V29.4394H68.9054V29.8035H80.9456V22.1991H80.622Z" fill="black"/>
</svg>