<svg width="35" height="42" viewBox="0 0 35 42" fill="none" xmlns="http://www.w3.org/2000/svg">
<path d="M24.3027 2.12801C24.3735 2.14502 24.4403 2.17576 24.499 2.21883L24.5 2.21981C24.6165 2.30736 24.6938 2.43703 24.7158 2.58114C24.7377 2.72547 24.7027 2.87295 24.6172 2.99129C23.3034 4.79159 22.2948 6.79675 21.6328 8.92489C20.3308 13.1121 17.233 15.02 15.3418 16.1495L15.3398 16.1514C14.8726 16.4045 14.4367 16.7117 14.042 17.0675C13.9371 17.1905 13.9229 17.353 13.9844 17.5528C14.0466 17.7547 14.1837 17.9848 14.3643 18.2257C14.7254 18.7072 15.2475 19.2163 15.6426 19.6114C16.034 20.0029 16.2939 20.2535 16.4541 20.4571C16.6177 20.665 16.6825 20.8305 16.6826 21.0518C16.6839 21.5004 16.5524 21.9396 16.3047 22.3136C16.0583 22.6855 15.7076 22.9755 15.2969 23.1495L15.2979 23.1505C15.1177 23.2559 14.988 23.3345 14.9023 23.4034C14.8159 23.473 14.787 23.523 14.7842 23.5675C14.784 23.5718 14.7856 23.5811 14.793 23.5968C14.8004 23.6125 14.8126 23.6315 14.8301 23.6534C14.8652 23.6972 14.9172 23.7473 14.9805 23.8009C15.1063 23.9075 15.2694 24.0215 15.4131 24.1173L15.5938 24.2306C15.7789 24.3486 15.9706 24.4831 16.123 24.6466C16.328 24.8663 16.4658 25.1407 16.4287 25.4942L16.4277 25.504C16.3021 25.9743 16.0048 26.3802 15.5957 26.6436L15.3672 26.8477C15.3011 26.9099 15.2453 26.9675 15.2002 27.0225C15.1106 27.1319 15.0696 27.2262 15.0732 27.3243C15.0751 27.3703 15.093 27.4253 15.1289 27.4893C15.1648 27.5532 15.2166 27.623 15.2793 27.6964C15.4045 27.8429 15.57 27.9997 15.7363 28.1573C16.0092 28.3394 16.2411 28.5769 16.416 28.8546C16.5923 29.1345 16.7074 29.4488 16.7529 29.7764L16.7549 29.7911L16.752 29.7901C16.699 30.3162 16.5584 30.8296 16.3369 31.3097L16.3379 31.3106C16.1669 31.749 15.9802 32.2259 15.8818 32.6798C15.7833 33.1348 15.7761 33.5561 15.9502 33.8878C16.0905 34.1443 16.2146 34.3706 16.416 34.5675C16.6166 34.7634 16.8978 34.9334 17.3545 35.0675C18.272 35.3368 19.8865 35.4577 22.9492 35.3614H22.9512L23.3887 35.3565C24.3876 35.334 25.2219 35.2404 25.9131 35.1866C27.7527 35.0471 28.8863 34.9555 29.9209 35.6241C30.9508 36.29 31.6405 37.3996 33.082 40.0206C33.1523 40.149 33.169 40.2998 33.1289 40.4405C33.0887 40.5814 32.9948 40.7015 32.8672 40.7735L32.8604 40.7764L32.8525 40.7784C32.7682 40.8001 32.6803 40.7999 32.5957 40.7794C32.4996 40.78 32.4051 40.756 32.3223 40.7071C32.2378 40.6571 32.1688 40.584 32.123 40.4972L31.6689 39.6964C31.2412 38.9475 30.8862 38.3504 30.5664 37.8761C30.1401 37.2438 29.7789 36.8343 29.3936 36.5743C29.0097 36.3154 28.597 36.2017 28.0625 36.17C27.5258 36.1382 26.8699 36.189 26 36.2569C25.1952 36.3182 24.2049 36.3967 22.9873 36.4317C19.9256 36.5279 18.145 36.4211 17.0215 36.0889C16.4581 35.9223 16.0573 35.699 15.7432 35.4141C15.4296 35.1298 15.2049 34.787 14.9893 34.3888V34.3878C14.6838 33.8299 14.6624 33.2182 14.7676 32.6182C14.8726 32.0189 15.1053 31.4254 15.3105 30.9014L15.3115 30.8975C15.477 30.5403 15.5923 30.1621 15.6553 29.7735C15.6541 29.6706 15.5836 29.5485 15.458 29.4034C15.334 29.2601 15.1701 29.1081 15.0029 28.9454C14.7326 28.773 14.4992 28.5485 14.3174 28.2843C14.1339 28.0176 14.0062 27.7158 13.9424 27.3985L13.9414 27.3917V27.3848C13.9565 27.0718 14.0463 26.7666 14.2031 26.4952C14.3588 26.2259 14.5759 25.9971 14.8369 25.8282C14.9418 25.7408 15.0495 25.6489 15.1348 25.5616C15.1772 25.5181 15.2131 25.4765 15.2402 25.4386C15.2578 25.4139 15.2697 25.3912 15.2783 25.3722C15.1355 25.2301 14.9731 25.1089 14.7949 25.0147L14.791 25.0128C14.5471 24.8603 14.2543 24.677 14.0264 24.4356C13.7969 24.1926 13.6297 23.8873 13.6436 23.4913L13.6445 23.4845L13.667 23.3731C13.727 23.1152 13.8475 22.8748 14.0195 22.672C14.2146 22.4421 14.4677 22.2682 14.7529 22.171C15.019 22.0182 15.2288 21.8902 15.373 21.7325C15.5114 21.5812 15.59 21.4015 15.5938 21.1417C15.371 20.8708 15.1262 20.6188 14.8623 20.3878L14.8604 20.3858C14.3108 19.858 13.6129 19.1961 13.1914 18.4991C12.9804 18.1501 12.8365 17.7879 12.8164 17.4259C12.7963 17.0619 12.9021 16.7018 13.1846 16.3604L13.1885 16.3546L13.1895 16.3556C13.6618 15.8998 14.1962 15.5132 14.7773 15.2081C16.6233 14.0795 19.4026 12.3823 20.585 8.60067C21.2831 6.35798 22.3449 4.24527 23.7266 2.34578C23.7684 2.28631 23.8213 2.23508 23.8828 2.19637C23.9446 2.15756 24.0139 2.13204 24.0859 2.1202C24.1579 2.10838 24.2318 2.11102 24.3027 2.12801Z" fill="black" stroke="black" stroke-width="0.116667"/>
<path d="M29.0392 13.0987C29.0392 13.2441 28.9809 13.3836 28.8781 13.4864C28.7755 13.589 28.6365 13.6454 28.4914 13.6456L28.4924 13.6466L28.1506 13.6554H28.1496C26.1301 13.6554 24.8968 13.4695 24.1447 13.252C23.3933 13.0347 23.1167 12.7846 23.0187 12.6524L22.9846 12.6055L23.0305 12.5704L23.7951 12.0011V11.8624L23.8908 11.9425L23.8918 11.9434C23.8928 11.9442 23.8943 11.9457 23.8967 11.9473C23.9022 11.9513 23.9117 11.9577 23.925 11.9659C23.9516 11.9824 23.9952 12.0067 24.0598 12.0362C24.189 12.0953 24.4033 12.1749 24.7385 12.254C25.4096 12.4123 26.5642 12.5674 28.4904 12.5499H28.4914C28.6357 12.5524 28.7741 12.6109 28.8762 12.713C28.9783 12.8151 29.0367 12.9534 29.0392 13.0977V13.0987Z" fill="black" stroke="black" stroke-width="0.116667"/>
<path d="M24.4468 9.79688C24.5669 9.76499 24.6943 9.77514 24.8081 9.8252C24.922 9.87532 25.0161 9.96297 25.0737 10.0732C25.1312 10.1833 25.1492 10.3097 25.1255 10.4316L25.1235 10.4424L25.0688 10.4209L25.1226 10.4424C24.8439 11.1451 24.7261 11.9011 24.7769 12.6553L24.7759 12.7637C24.7651 12.8705 24.7241 12.9729 24.6558 13.0576C24.5644 13.1708 24.432 13.2435 24.2876 13.2607L24.2808 13.2617H24.2632C24.1282 13.2604 23.9976 13.21 23.897 13.1201C23.7964 13.0303 23.7319 12.9063 23.7153 12.7725V12.7695C23.6502 11.8311 23.795 10.8901 24.1392 10.0146L24.1421 10.0068L24.146 10.001C24.22 9.9009 24.3265 9.82886 24.4468 9.79688Z" fill="black" stroke="black" stroke-width="0.116667"/>
<path d="M25.9434 5.54132C26.3424 5.54132 27.026 5.72282 28.5527 7.0296L28.8701 7.30597L28.8721 7.3089C29.3095 7.74629 29.7255 8.16138 30.0361 8.47198L30.5732 9.00909C30.6416 9.08911 30.6861 9.1872 30.7012 9.29132C30.7162 9.39558 30.7012 9.50277 30.6582 9.59894C30.6152 9.69501 30.5456 9.77696 30.458 9.83527C30.3949 9.87724 30.3239 9.90467 30.25 9.91827L30.2725 9.9632H30.1787C30.1031 9.96358 30.0282 9.94769 29.959 9.9173C29.8898 9.88688 29.8272 9.84237 29.7764 9.78644C29.0823 9.02697 28.2688 8.23671 27.5537 7.63605C27.1962 7.33574 26.864 7.08385 26.585 6.90656C26.4456 6.81801 26.3198 6.74866 26.2119 6.70148C26.1049 6.65473 26.0188 6.63092 25.9551 6.62921C25.6683 6.66172 25.3927 6.76002 25.1494 6.91534C24.9058 7.07098 24.7 7.27963 24.5498 7.52667L24.5508 7.52765C24.5137 7.59157 24.4639 7.64777 24.4053 7.69269C24.3464 7.73767 24.2786 7.77131 24.207 7.79034C24.1355 7.8093 24.0606 7.81382 23.9873 7.80402C23.914 7.79417 23.8433 7.76983 23.7793 7.73273C23.7153 7.69557 23.6592 7.64604 23.6143 7.58722C23.5694 7.52844 23.5366 7.46143 23.5176 7.38995C23.4986 7.31839 23.4931 7.24362 23.5029 7.17023C23.5127 7.09693 23.5372 7.02621 23.5742 6.96222L23.5752 6.96027L23.6738 6.81085C23.914 6.46787 24.2238 6.17837 24.584 5.96222C24.9956 5.71524 25.4613 5.57059 25.9404 5.54132H25.9434Z" fill="black" stroke="black" stroke-width="0.116667"/>
<path d="M15.1544 26.81C15.0418 26.8208 14.929 26.7923 14.8351 26.7295C14.7411 26.6666 14.6717 26.5732 14.6388 26.4651C14.6058 26.3569 14.6113 26.2407 14.6542 26.1361C14.6972 26.0315 14.7749 25.945 14.8744 25.8912L15.6006 25.4625L15.2506 25.2525C15.1932 25.218 15.1431 25.1725 15.1032 25.1187C15.0633 25.0649 15.0344 25.0037 15.0182 24.9387C15.0019 24.8737 14.9986 24.8061 15.0085 24.7399C15.0183 24.6736 15.0412 24.6099 15.0756 24.5525C15.1101 24.495 15.1556 24.4449 15.2094 24.405C15.2632 24.3651 15.3244 24.3362 15.3894 24.32C15.4544 24.3037 15.522 24.3004 15.5882 24.3103C15.6545 24.3202 15.7182 24.343 15.7756 24.3775L16.7994 25.025C16.8712 25.0684 16.9301 25.1303 16.9701 25.2041C17.0101 25.2779 17.0297 25.3611 17.0269 25.445C17.0279 25.5296 17.0066 25.6129 16.9651 25.6867C16.9236 25.7604 16.8635 25.8219 16.7906 25.865L15.3731 26.74C15.3063 26.7791 15.2316 26.8031 15.1544 26.81Z" fill="black"/>
<path d="M7.76122 7.56911C7.63376 7.56776 7.51165 7.51767 7.41997 7.42911C7.37228 7.38426 7.33443 7.32998 7.30882 7.26973C7.28322 7.20948 7.27041 7.14457 7.27121 7.07911C7.27041 7.01365 7.28322 6.94873 7.30882 6.88848C7.33443 6.82823 7.37228 6.77396 7.41997 6.72911C7.46456 6.68165 7.51899 6.64452 7.57946 6.62034C7.63992 6.59615 7.70494 6.58549 7.76996 6.58911H7.82247C7.95242 6.58911 8.07705 6.64073 8.16895 6.73263C8.26084 6.82452 8.31247 6.94915 8.31247 7.07911C8.31247 7.20906 8.26084 7.3337 8.16895 7.42559C8.07705 7.51748 7.95242 7.56911 7.82247 7.56911H7.76122Z" fill="black"/>
<path d="M12.0313 12.8191C11.966 12.8189 11.9014 12.8056 11.8413 12.7801C11.7812 12.7545 11.7268 12.7172 11.6813 12.6704C11.5922 12.5755 11.5422 12.4505 11.5413 12.3204V12.2504C11.5413 12.1204 11.5929 11.9958 11.6848 11.9039C11.7767 11.812 11.9014 11.7604 12.0313 11.7604C12.1621 11.7604 12.2876 11.8117 12.3809 11.9033C12.4742 11.995 12.5278 12.1196 12.5301 12.2504V12.3204C12.5299 12.3857 12.5166 12.4503 12.491 12.5104C12.4655 12.5705 12.4282 12.6249 12.3813 12.6704C12.3372 12.7189 12.283 12.7574 12.2226 12.7831C12.1622 12.8087 12.0969 12.821 12.0313 12.8191Z" fill="black"/>
<path d="M12.0222 2.39734C11.8923 2.39734 11.7676 2.34571 11.6757 2.25382C11.5839 2.16193 11.5322 2.03729 11.5322 1.90734V1.83734C11.5322 1.70702 11.5824 1.5817 11.6722 1.48734C11.7177 1.44047 11.7721 1.40317 11.8322 1.37762C11.8923 1.35208 11.9569 1.33881 12.0222 1.33859C12.0864 1.33792 12.1499 1.35083 12.2088 1.37647C12.2676 1.4021 12.3203 1.43989 12.3635 1.48734C12.4112 1.53219 12.449 1.58646 12.4746 1.64671C12.5002 1.70696 12.513 1.77188 12.5122 1.83734V1.90734C12.51 2.03659 12.4576 2.15992 12.3662 2.25133C12.2748 2.34274 12.1515 2.39509 12.0222 2.39734Z" fill="black"/>
<path d="M16.2842 7.56911H16.2229C16.093 7.56911 15.9683 7.51748 15.8764 7.42559C15.7845 7.3337 15.7329 7.20906 15.7329 7.07911C15.7329 6.94915 15.7845 6.82452 15.8764 6.73263C15.9683 6.64073 16.093 6.58911 16.2229 6.58911H16.2842C16.3492 6.58549 16.4142 6.59615 16.4747 6.62034C16.5351 6.64452 16.5896 6.68165 16.6342 6.72911C16.6818 6.77396 16.7197 6.82823 16.7453 6.88848C16.7709 6.94873 16.7837 7.01365 16.7829 7.07911C16.7827 7.14442 16.7694 7.20902 16.7439 7.26913C16.7183 7.32923 16.681 7.38363 16.6342 7.42911C16.5393 7.51822 16.4143 7.56823 16.2842 7.56911Z" fill="black"/>
<path d="M12.0227 12.7398C11.8927 12.7398 11.7681 12.6882 11.6762 12.5963C11.5843 12.5044 11.5327 12.3798 11.5327 12.2498C11.5327 9.62482 9.8702 7.56857 7.8227 7.56857C7.69275 7.56857 7.56811 7.51694 7.47622 7.42505C7.38433 7.33316 7.3327 7.20852 7.3327 7.07857C7.3327 6.94861 7.38433 6.82398 7.47622 6.73209C7.56811 6.64019 7.69275 6.58857 7.8227 6.58857C9.8702 6.58857 11.5327 4.48857 11.5327 1.90732C11.5327 1.77736 11.5843 1.65273 11.6762 1.56083C11.7681 1.46894 11.8927 1.41732 12.0227 1.41732C12.1535 1.4173 12.279 1.46864 12.3723 1.56029C12.4656 1.65194 12.5192 1.77656 12.5215 1.90732C12.5215 4.53232 14.184 6.58857 16.2227 6.58857C16.3527 6.58857 16.4773 6.64019 16.5692 6.73209C16.6611 6.82398 16.7127 6.94861 16.7127 7.07857C16.7127 7.20852 16.6611 7.33316 16.5692 7.42505C16.4773 7.51694 16.3527 7.56857 16.2227 7.56857C14.184 7.56857 12.5215 9.66857 12.5215 12.2498C12.5192 12.3806 12.4656 12.5052 12.3723 12.5968C12.279 12.6885 12.1535 12.7398 12.0227 12.7398ZM9.73895 7.07857C10.7765 7.66854 11.582 8.59442 12.0227 9.70357C12.4687 8.59489 13.2767 7.66973 14.3152 7.07857C13.2767 6.4874 12.4687 5.56224 12.0227 4.45357C11.582 5.56272 10.7765 6.48859 9.73895 7.07857Z" fill="black"/>
<path d="M2.39726 24.4821C2.2698 24.4807 2.14769 24.4306 2.05601 24.3421C2.00832 24.2972 1.97048 24.2429 1.94487 24.1827C1.91926 24.1224 1.90646 24.0575 1.90726 23.9921C1.90748 23.9268 1.92075 23.8622 1.9463 23.802C1.97184 23.7419 2.00914 23.6876 2.05601 23.6421C2.10193 23.5964 2.15659 23.5604 2.21673 23.5364C2.27687 23.5123 2.34125 23.5006 2.40601 23.5021C2.53597 23.5021 2.6606 23.5537 2.75249 23.6456C2.84439 23.7375 2.89601 23.8621 2.89601 23.9921C2.89601 24.122 2.84439 24.2467 2.75249 24.3386C2.6606 24.4304 2.53597 24.4821 2.40601 24.4821H2.39726Z" fill="black"/>
<path d="M5.08383 27.7905C5.01916 27.7917 4.95491 27.7799 4.89492 27.7557C4.83494 27.7315 4.78044 27.6954 4.73471 27.6497C4.68897 27.6039 4.65292 27.5494 4.62871 27.4895C4.60451 27.4295 4.59264 27.3652 4.59383 27.3005C4.59383 27.1706 4.64546 27.046 4.73735 26.9541C4.82924 26.8622 4.95387 26.8105 5.08383 26.8105C5.21379 26.8105 5.33842 26.8622 5.43031 26.9541C5.52221 27.046 5.57383 27.1706 5.57383 27.3005C5.57745 27.3656 5.56679 27.4306 5.5426 27.4911C5.51842 27.5515 5.48129 27.606 5.43383 27.6505C5.33946 27.7404 5.21414 27.7905 5.08383 27.7905Z" fill="black"/>
<path d="M5.08375 21.2273C4.953 21.225 4.82837 21.1714 4.73672 21.0781C4.64507 20.9849 4.59373 20.8593 4.59375 20.7285V20.6848C4.59629 20.555 4.64607 20.4305 4.73375 20.3348C4.8286 20.2457 4.95361 20.1957 5.08375 20.1948C5.21406 20.1948 5.33938 20.2449 5.43375 20.3348C5.48029 20.3801 5.5168 20.4346 5.54092 20.4949C5.56503 20.5552 5.57622 20.6199 5.57375 20.6848V20.7285C5.57377 20.8593 5.52243 20.9849 5.43078 21.0781C5.33913 21.1714 5.2145 21.225 5.08375 21.2273Z" fill="black"/>
<path d="M7.76959 24.4824H7.72584C7.59588 24.4824 7.47125 24.4308 7.37936 24.3389C7.28746 24.247 7.23584 24.1224 7.23584 23.9924C7.23813 23.8616 7.29169 23.737 7.38498 23.6454C7.47826 23.5537 7.60382 23.5024 7.73459 23.5024C7.80093 23.4987 7.86729 23.5092 7.92918 23.5334C7.99108 23.5576 8.04706 23.5947 8.09334 23.6424C8.18492 23.7364 8.23799 23.8612 8.24209 23.9924C8.24187 24.0577 8.2286 24.1223 8.20305 24.1824C8.17751 24.2425 8.14021 24.2969 8.09334 24.3424C8.00703 24.4284 7.89133 24.4784 7.76959 24.4824Z" fill="black"/>
<path d="M5.08416 27.7461C4.9542 27.7461 4.82957 27.6945 4.73768 27.6026C4.64579 27.5107 4.59416 27.3861 4.59416 27.2561C4.59416 25.7249 3.63166 24.4824 2.44166 24.4824C2.37731 24.4824 2.31359 24.4697 2.25415 24.4451C2.1947 24.4205 2.14068 24.3844 2.09518 24.3389C2.04968 24.2934 2.01358 24.2394 1.98896 24.1799C1.96434 24.1205 1.95166 24.0567 1.95166 23.9924C1.95166 23.9281 1.96434 23.8643 1.98896 23.8049C2.01358 23.7454 2.04968 23.6914 2.09518 23.6459C2.14068 23.6004 2.1947 23.5643 2.25415 23.5397C2.31359 23.5151 2.37731 23.5024 2.44166 23.5024C3.63166 23.5024 4.59416 22.2599 4.59416 20.7286C4.59416 20.5987 4.64579 20.4741 4.73768 20.3822C4.82957 20.2903 4.9542 20.2386 5.08416 20.2386C5.21412 20.2386 5.33875 20.2903 5.43064 20.3822C5.52254 20.4741 5.57416 20.5987 5.57416 20.7286C5.57416 22.2599 6.54541 23.5024 7.73541 23.5024C7.86537 23.5024 7.99 23.554 8.08189 23.6459C8.17378 23.7378 8.22541 23.8624 8.22541 23.9924C8.22541 24.1224 8.17378 24.247 8.08189 24.3389C7.99 24.4308 7.86537 24.4824 7.73541 24.4824C6.54541 24.4824 5.57416 25.7249 5.57416 27.2561C5.57416 27.3861 5.52254 27.5107 5.43064 27.6026C5.33875 27.6945 5.21412 27.7461 5.08416 27.7461ZM3.99041 23.9749C4.4491 24.2957 4.82417 24.7217 5.08416 25.2174C5.34976 24.7256 5.72379 24.3007 6.17791 23.9749C5.72379 23.6491 5.34976 23.2242 5.08416 22.7324C4.82417 23.2281 4.4491 23.6541 3.99041 23.9749Z" fill="black"/>
</svg>
