<svg width="16" height="17" viewBox="0 0 16 17" fill="none" xmlns="http://www.w3.org/2000/svg">
<path fill-rule="evenodd" clip-rule="evenodd" d="M8.0013 1.67424C4.3194 1.67424 1.33464 4.659 1.33464 8.3409C1.33464 8.44744 1.33713 8.55337 1.34207 8.65864C1.35069 8.8425 1.2086 8.99857 1.02471 9.00724C0.840815 9.01584 0.684755 8.87377 0.676129 8.68984C0.670709 8.57417 0.667969 8.45784 0.667969 8.3409C0.667969 4.29082 3.95122 1.00757 8.0013 1.00757C10.482 1.00757 12.6745 2.2393 14.0014 4.12364L14.0013 1.3409C14.0013 1.15681 14.1506 1.00757 14.3346 1.00757C14.5187 1.00757 14.668 1.15681 14.668 1.3409V5.3409C14.668 5.525 14.5187 5.67424 14.3346 5.67424H10.3346C10.1506 5.67424 10.0013 5.525 10.0013 5.3409C10.0013 5.15681 10.1506 5.00757 10.3346 5.00757L13.7762 5.00759C12.6232 3.01438 10.4684 1.67424 8.0013 1.67424ZM14.9779 7.67464C15.1618 7.66597 15.3179 7.8081 15.3265 7.99197C15.3319 8.10764 15.3347 8.22397 15.3347 8.3409C15.3347 12.391 12.0514 15.6742 8.00137 15.6742C5.52068 15.6742 3.32818 14.4425 2.0013 12.5582V15.3409C2.0013 15.525 1.85206 15.6742 1.66797 15.6742C1.48388 15.6742 1.33464 15.525 1.33464 15.3409V11.3409C1.33464 11.1568 1.48388 11.0076 1.66797 11.0076H5.66797C5.85206 11.0076 6.0013 11.1568 6.0013 11.3409C6.0013 11.525 5.85206 11.6742 5.66797 11.6742H2.22648C3.37951 13.6674 5.5342 15.0076 8.00137 15.0076C11.6832 15.0076 14.668 12.0228 14.668 8.3409C14.668 8.23437 14.6655 8.12844 14.6606 8.02317C14.652 7.8393 14.794 7.68324 14.9779 7.67464Z" fill="#212428"/>
</svg>
