<svg width="17" height="17" viewBox="0 0 17 17" fill="none" xmlns="http://www.w3.org/2000/svg">
<path d="M1.58398 4.42057C1.98398 4.75391 2.38398 5.08724 3.25065 5.08724C4.91732 5.08724 4.91732 3.75391 6.58398 3.75391C8.31732 3.75391 8.18398 5.08724 9.91732 5.08724C11.584 5.08724 11.584 3.75391 13.2507 3.75391C14.1173 3.75391 14.5173 4.08724 14.9173 4.42057" stroke="#212428" stroke-width="0.7" stroke-linecap="round" stroke-linejoin="round"/>
<path d="M1.58398 8.42057C1.98398 8.75391 2.38398 9.08724 3.25065 9.08724C4.91732 9.08724 4.91732 7.75391 6.58398 7.75391C8.31732 7.75391 8.18398 9.08724 9.91732 9.08724C11.584 9.08724 11.584 7.75391 13.2507 7.75391C14.1173 7.75391 14.5173 8.08724 14.9173 8.42057" stroke="#212428" stroke-width="0.7" stroke-linecap="round" stroke-linejoin="round"/>
<path d="M1.58398 12.4206C1.98398 12.7539 2.38398 13.0872 3.25065 13.0872C4.91732 13.0872 4.91732 11.7539 6.58398 11.7539C8.31732 11.7539 8.18398 13.0872 9.91732 13.0872C11.584 13.0872 11.584 11.7539 13.2507 11.7539C14.1173 11.7539 14.5173 12.0872 14.9173 12.4206" stroke="#212428" stroke-width="0.7" stroke-linecap="round" stroke-linejoin="round"/>
</svg>
