<svg width="16" height="17" viewBox="0 0 16 17" fill="none" xmlns="http://www.w3.org/2000/svg">
<g clip-path="url(#clip0_2044_223)">
<path d="M11.3274 0.322266C11.4781 0.29011 11.6278 0.38082 11.6692 0.529297L11.804 1.01562C12.0805 2.02096 11.4933 3.06071 10.4895 3.34277L6.31567 4.50879C6.21119 4.53796 6.13892 4.63371 6.13892 4.74219V7.91895L11.9915 6.35059C13.2853 6.00512 14.6149 6.77233 14.9631 8.06543L15.2395 9.09668C15.2811 9.2523 15.1891 9.41246 15.0334 9.4541L14.7991 9.51562L14.8625 9.75098C14.9806 10.1912 14.7188 10.6436 14.2786 10.7617L12.217 11.3145L12.2141 11.3154H12.2131C11.7737 11.4318 11.323 11.1699 11.2063 10.7305L11.1428 10.4951L6.13892 11.8359V14.7725C6.45793 14.8932 6.67059 15.1977 6.67212 15.54V16.0742C6.67202 16.2353 6.54121 16.3662 6.38013 16.3662H1.04419C0.883197 16.3661 0.752301 16.2352 0.752197 16.0742V15.54C0.753729 15.1976 0.967153 14.8931 1.28638 14.7725V3.99707C1.29003 3.10555 1.91235 2.33623 2.78345 2.14648L11.3274 0.322266ZM1.57837 15.2988C1.44496 15.2988 1.33639 15.4067 1.33618 15.54V15.7822H6.08911V15.54C6.08891 15.4067 5.98031 15.2989 5.84692 15.2988H1.57837ZM1.86938 14.7148H5.55493V7.29492H1.86938V14.7148ZM14.3997 8.21582C14.1345 7.23429 13.1253 6.65244 12.1428 6.91406L6.13892 8.52246V11.2324L14.6008 8.96484L14.3997 8.21582ZM11.7073 10.3467L11.7698 10.5811C11.8046 10.7099 11.9378 10.7857 12.0667 10.751L14.1282 10.1982C14.2565 10.1637 14.3327 10.0319 14.2991 9.90332L14.2356 9.66895L11.7073 10.3467ZM2.90552 2.7168C2.30298 2.84825 1.87204 3.38037 1.86938 3.99707V6.71094H5.55493V4.74219C5.55576 4.37226 5.80231 4.04741 6.15845 3.94727L10.3313 2.78125C11.0256 2.5859 11.4325 1.86641 11.2415 1.1709L11.1799 0.950195L2.90552 2.7168Z" fill="#212428" stroke="#212428" stroke-width="0.05"/>
<path d="M13.8016 11.9203L13.582 11.6023L13.3624 11.9203C13.221 12.1252 11.9812 13.943 11.9812 14.7399C11.9812 15.624 12.6979 16.3407 13.582 16.3407C14.4661 16.3407 15.1828 15.624 15.1828 14.7399C15.1828 13.943 13.943 12.1252 13.8016 11.9203ZM13.582 15.8071C12.9926 15.8071 12.5148 15.3293 12.5148 14.7399C12.5148 14.3298 13.1018 13.2917 13.582 12.5521C14.0623 13.292 14.6492 14.3301 14.6492 14.7399C14.6492 15.3293 14.1714 15.8071 13.582 15.8071Z" fill="#212428"/>
</g>
<defs>
<clipPath id="clip0_2044_223">
<rect width="16" height="16" fill="white" transform="translate(0 0.34082)"/>
</clipPath>
</defs>
</svg>
