<svg width="17" height="17" viewBox="0 0 17 17" fill="none" xmlns="http://www.w3.org/2000/svg">
<path d="M11.9161 13.0872H6.24946C5.38403 13.087 4.53572 12.8462 3.79931 12.3916C3.0629 11.937 2.4674 11.2865 2.07937 10.513C1.69134 9.73943 1.52605 8.87321 1.60198 8.01112C1.67792 7.14904 1.99207 6.32504 2.50935 5.63123C3.02663 4.93741 3.72665 4.4011 4.53119 4.08223C5.33573 3.76336 6.21309 3.67449 7.06522 3.82555C7.91736 3.97661 8.71071 4.36165 9.35661 4.93764C10.0025 5.51364 10.4755 6.25789 10.7228 7.08724H11.9161C12.7118 7.08724 13.4748 7.40331 14.0374 7.96592C14.6001 8.52853 14.9161 9.29159 14.9161 10.0872C14.9161 10.8829 14.6001 11.646 14.0374 12.2086C13.4748 12.7712 12.7118 13.0872 11.9161 13.0872Z" stroke="#212428" stroke-width="0.7" stroke-linecap="round" stroke-linejoin="round"/>
</svg>
