<svg width="146" height="45" viewBox="0 0 146 45" fill="none" xmlns="http://www.w3.org/2000/svg">
<rect x="0.5" y="0.5" width="145" height="43.5" rx="5" fill="black" fill-opacity="0.8" stroke="#D9D9D9"/>
<path d="M48.6222 10.9766H51.3599C51.3599 11.0238 51.3614 11.0899 51.3646 11.1749C51.374 11.3983 51.3787 11.5493 51.3787 11.628C51.3787 12.6003 51.1003 13.3555 50.5433 13.8936C49.9863 14.4317 49.2012 14.7008 48.188 14.7008C47.6216 14.7008 47.1165 14.6174 46.6729 14.4506C46.2292 14.2838 45.8405 14.0321 45.507 13.6954C45.1797 13.3618 44.928 12.9701 44.7518 12.5201C44.5787 12.0701 44.4922 11.5887 44.4922 11.0758C44.4922 10.5534 44.5803 10.072 44.7565 9.63143C44.9359 9.19089 45.2002 8.80227 45.5495 8.46558C45.8862 8.13517 46.2811 7.88344 46.7342 7.71037C47.1873 7.5373 47.6719 7.45076 48.188 7.45076C48.7324 7.45076 49.2185 7.54989 49.6465 7.74813C50.0776 7.94637 50.4615 8.25003 50.7982 8.6591L49.9769 9.27743C49.744 9.00681 49.4813 8.80542 49.1886 8.67326C48.896 8.5411 48.5687 8.47502 48.2069 8.47502C47.458 8.47502 46.8459 8.71574 46.3708 9.19718C45.8988 9.67548 45.6628 10.2985 45.6628 11.0663C45.6628 11.8467 45.8988 12.4808 46.3708 12.9685C46.8459 13.4531 47.4611 13.6954 48.2163 13.6954C48.8582 13.6954 49.3633 13.5459 49.7314 13.247C50.0996 12.9481 50.2837 12.5406 50.2837 12.0245V11.9254H48.6222V10.9766Z" fill="white"/>
<path d="M52.2735 14.5167V7.60653H56.1298V8.55998H53.3968V10.2922H56.1298V11.2787H53.3968V13.5113H56.1298V14.5167H52.2735Z" fill="white"/>
<path d="M59.3609 8.55998V14.5167H58.2375V8.55998H56.4014V7.60653H61.1876V8.55998H59.3609Z" fill="white"/>
<path d="M64.4025 14.5167V7.60653H65.5259V14.5167H64.4025Z" fill="white"/>
<path d="M69.0827 8.55998V14.5167H67.9593V8.55998H66.1232V7.60653H70.9094V8.55998H69.0827Z" fill="white"/>
<path d="M80.0196 11.0758C80.0196 10.7265 79.9551 10.3945 79.8261 10.0798C79.7003 9.76516 79.5177 9.48511 79.2786 9.23966C79.0457 8.99737 78.7751 8.81171 78.4667 8.6827C78.1615 8.55054 77.839 8.48446 77.4991 8.48446C77.1593 8.48446 76.8352 8.54896 76.5268 8.67798C76.2216 8.80699 75.9494 8.99422 75.7102 9.23966C75.4711 9.48196 75.2886 9.76044 75.1627 10.0751C75.0368 10.3898 74.9739 10.7233 74.9739 11.0758C74.9739 11.425 75.0368 11.7555 75.1627 12.067C75.2886 12.3785 75.4711 12.657 75.7102 12.9024C75.9494 13.1479 76.2216 13.3351 76.5268 13.4641C76.832 13.5931 77.1561 13.6576 77.4991 13.6576C77.8358 13.6576 78.1552 13.5931 78.4573 13.4641C78.7625 13.3351 79.0363 13.1479 79.2786 12.9024C79.5177 12.657 79.7003 12.3785 79.8261 12.067C79.9551 11.7523 80.0196 11.4219 80.0196 11.0758ZM81.1902 11.0758C81.1902 11.5667 81.0974 12.0308 80.9117 12.4682C80.7292 12.9056 80.4618 13.2958 80.1093 13.6388C79.7537 13.9817 79.3525 14.2445 78.9057 14.427C78.4589 14.6095 77.99 14.7008 77.4991 14.7008C77.002 14.7008 76.5268 14.6095 76.0737 14.427C75.6237 14.2413 75.2256 13.9786 74.8795 13.6388C74.5271 13.2958 74.2596 12.9071 74.0771 12.4729C73.8946 12.0387 73.8033 11.5729 73.8033 11.0758C73.8033 10.5817 73.8946 10.116 74.0771 9.67863C74.2596 9.24124 74.5271 8.84947 74.8795 8.50334C75.2319 8.16035 75.6316 7.89917 76.0784 7.71981C76.5252 7.54045 76.9988 7.45076 77.4991 7.45076C77.9963 7.45076 78.4667 7.54045 78.9104 7.71981C79.3573 7.89917 79.7569 8.16035 80.1093 8.50334C80.4618 8.85262 80.7292 9.24753 80.9117 9.68807C81.0974 10.1255 81.1902 10.588 81.1902 11.0758Z" fill="white"/>
<path d="M82.1888 14.5167V7.33276L86.5784 11.5572C86.698 11.6768 86.8192 11.8042 86.9419 11.9395C87.0646 12.0748 87.1936 12.2275 87.3289 12.3974V7.60653H88.3673V14.7857L83.888 10.4858C83.7684 10.3693 83.652 10.2466 83.5387 10.1176C83.4286 9.98858 83.3232 9.85327 83.2225 9.71167V14.5167H82.1888Z" fill="white"/>
<path d="M52.7787 27.6071H57.9802C57.9802 27.6968 57.9832 27.8223 57.9892 27.9838C58.0071 28.4082 58.0161 28.6952 58.0161 28.8447C58.0161 30.6921 57.487 32.127 56.4287 33.1494C55.3705 34.1717 53.8788 34.6829 51.9537 34.6829C50.8775 34.6829 49.9179 34.5245 49.0749 34.2076C48.2319 33.8907 47.4935 33.4124 46.8598 32.7727C46.238 32.139 45.7597 31.3946 45.4249 30.5397C45.0961 29.6847 44.9316 28.77 44.9316 27.7954C44.9316 26.803 45.099 25.8882 45.4339 25.0512C45.7746 24.2142 46.2769 23.4758 46.9405 22.8361C47.5802 22.2083 48.3306 21.73 49.1915 21.4012C50.0524 21.0723 50.9732 20.9079 51.9537 20.9079C52.988 20.9079 53.9117 21.0963 54.7248 21.4729C55.5439 21.8496 56.2733 22.4265 56.913 23.2038L55.3526 24.3786C54.9101 23.8644 54.4109 23.4818 53.8549 23.2307C53.2989 22.9796 52.6771 22.854 51.9895 22.854C50.5666 22.854 49.4037 23.3114 48.5009 24.2261C47.6041 25.1349 47.1557 26.3187 47.1557 27.7775C47.1557 29.2602 47.6041 30.4649 48.5009 31.3916C49.4037 32.3124 50.5726 32.7727 52.0075 32.7727C53.2271 32.7727 54.1867 32.4887 54.8862 31.9208C55.5857 31.3528 55.9355 30.5785 55.9355 29.598V29.4097H52.7787V27.6071Z" fill="white"/>
<path d="M65.8202 30.1092C65.8202 29.32 65.5661 28.6534 65.0579 28.1093C64.5498 27.5593 63.928 27.2842 63.1926 27.2842C62.4632 27.2842 61.8414 27.5593 61.3272 28.1093C60.819 28.6534 60.5649 29.32 60.5649 30.1092C60.5649 30.8984 60.819 31.568 61.3272 32.1181C61.8414 32.6621 62.4632 32.9342 63.1926 32.9342C63.922 32.9342 64.5408 32.6621 65.049 32.1181C65.5631 31.568 65.8202 30.8984 65.8202 30.1092ZM58.5112 30.0913C58.5112 29.4695 58.6278 28.8836 58.861 28.3335C59.1001 27.7775 59.4409 27.2842 59.8834 26.8538C60.3198 26.4293 60.822 26.1034 61.39 25.8763C61.958 25.6491 62.5529 25.5355 63.1746 25.5355C63.8144 25.5355 64.4152 25.6491 64.9772 25.8763C65.5452 26.1034 66.0534 26.4383 66.5018 26.8807C66.9502 27.3171 67.291 27.8104 67.5242 28.3604C67.7573 28.9105 67.8739 29.4874 67.8739 30.0913C67.8739 30.719 67.7573 31.3079 67.5242 31.858C67.297 32.408 66.9622 32.8953 66.5197 33.3198C66.0534 33.7682 65.5362 34.106 64.9683 34.3332C64.4003 34.5663 63.8024 34.6829 63.1746 34.6829C62.5588 34.6829 61.9669 34.5663 61.399 34.3332C60.831 34.106 60.3258 33.7742 59.8834 33.3377C59.4349 32.8953 59.0942 32.3991 58.861 31.849C58.6278 31.299 58.5112 30.713 58.5112 30.0913Z" fill="white"/>
<path d="M75.6512 30.1092C75.6512 29.32 75.3971 28.6534 74.8889 28.1093C74.3807 27.5593 73.7589 27.2842 73.0235 27.2842C72.2941 27.2842 71.6723 27.5593 71.1581 28.1093C70.6499 28.6534 70.3959 29.32 70.3959 30.1092C70.3959 30.8984 70.6499 31.568 71.1581 32.1181C71.6723 32.6621 72.2941 32.9342 73.0235 32.9342C73.7529 32.9342 74.3717 32.6621 74.8799 32.1181C75.3941 31.568 75.6512 30.8984 75.6512 30.1092ZM68.3422 30.0913C68.3422 29.4695 68.4587 28.8836 68.6919 28.3335C68.9311 27.7775 69.2719 27.2842 69.7143 26.8538C70.1507 26.4293 70.6529 26.1034 71.2209 25.8763C71.7889 25.6491 72.3838 25.5355 73.0056 25.5355C73.6453 25.5355 74.2462 25.6491 74.8082 25.8763C75.3761 26.1034 75.8843 26.4383 76.3327 26.8807C76.7811 27.3171 77.1219 27.8104 77.3551 28.3604C77.5883 28.9105 77.7049 29.4874 77.7049 30.0913C77.7049 30.719 77.5883 31.3079 77.3551 31.858C77.1279 32.408 76.7931 32.8953 76.3507 33.3198C75.8843 33.7682 75.3672 34.106 74.7992 34.3332C74.2312 34.5663 73.6333 34.6829 73.0056 34.6829C72.3898 34.6829 71.7979 34.5663 71.2299 34.3332C70.6619 34.106 70.1567 33.7742 69.7143 33.3377C69.2659 32.8953 68.9251 32.3991 68.6919 31.849C68.4587 31.299 68.3422 30.713 68.3422 30.0913Z" fill="white"/>
<path d="M84.9081 30.0554C84.9081 29.1765 84.7019 28.492 84.2893 28.0017C83.8828 27.5114 83.3118 27.2663 82.5764 27.2663C81.841 27.2663 81.2611 27.5204 80.8366 28.0286C80.4181 28.5308 80.2088 29.2303 80.2088 30.1271C80.2088 31.0299 80.4121 31.7264 80.8187 32.2167C81.2252 32.707 81.7992 32.9521 82.5406 32.9521C83.2401 32.9521 83.808 32.686 84.2445 32.1539C84.6869 31.6218 84.9081 30.9223 84.9081 30.0554ZM86.8004 33.8041C86.8004 35.4661 86.4686 36.635 85.8049 37.3106C85.1413 37.9922 84.0233 38.3329 82.4509 38.3329C81.279 38.3329 80.3434 38.0848 79.6439 37.5886C78.9443 37.0983 78.5886 36.4437 78.5766 35.6246L80.6662 35.6156C80.6961 35.9803 80.8665 36.2583 81.1774 36.4496C81.4883 36.641 81.9247 36.7366 82.4867 36.7366C83.3178 36.7366 83.9157 36.5543 84.2804 36.1896C84.6451 35.8249 84.8304 35.215 84.8364 34.3601L84.8543 33.2301C84.5076 33.7204 84.101 34.0851 83.6347 34.3242C83.1743 34.5634 82.6452 34.6829 82.0473 34.6829C80.8456 34.6829 79.8979 34.2734 79.2044 33.4543C78.5169 32.6292 78.1731 31.5022 78.1731 30.0733C78.1731 28.7162 78.5258 27.622 79.2313 26.791C79.9368 25.954 80.8575 25.5355 81.9935 25.5355C82.687 25.5355 83.2789 25.6819 83.7692 25.9749C84.2654 26.2619 84.6271 26.6774 84.8543 27.2215V25.8314H86.8004V33.8041Z" fill="white"/>
<path d="M88.6138 34.3332V20.4326H90.5599V34.3332H88.6138Z" fill="white"/>
<path d="M100.57 30.3693H93.7724C93.8202 31.1644 94.0564 31.7862 94.4809 32.2346C94.9054 32.6771 95.4703 32.8983 96.1758 32.8983C96.8036 32.8983 97.3267 32.7667 97.7453 32.5037C98.1638 32.2406 98.5285 31.8161 98.8394 31.2302L100.481 32.145C100.002 32.9999 99.4103 33.6367 98.7048 34.0552C97.9993 34.4737 97.1713 34.6829 96.2207 34.6829C94.8575 34.6829 93.7724 34.2674 92.9653 33.4364C92.1581 32.6053 91.7546 31.4963 91.7546 30.1092C91.7546 28.7759 92.1701 27.6818 93.0011 26.8269C93.8382 25.9659 94.9113 25.5355 96.2207 25.5355C97.5898 25.5355 98.657 25.9271 99.4223 26.7103C100.188 27.4935 100.57 28.5906 100.57 30.0016V30.3693ZM98.5524 29.0599C98.4747 28.4501 98.2415 27.9867 97.8529 27.6699C97.4643 27.347 96.9321 27.1856 96.2565 27.1856C95.6168 27.1856 95.1027 27.341 94.714 27.6519C94.3254 27.9628 94.0534 28.4322 93.8979 29.0599H98.5524Z" fill="white"/>
<path d="M115.716 24.8985C115.716 25.5816 115.555 26.2261 115.232 26.8318C114.91 27.4376 114.395 27.9338 113.686 28.3205C112.977 28.6943 112.068 28.8812 110.96 28.8812H108.524V34.3332H106.32V20.8965H110.96C111.991 20.8965 112.861 21.077 113.57 21.4378C114.291 21.7858 114.826 22.2627 115.174 22.8685C115.535 23.4743 115.716 24.151 115.716 24.8985ZM110.96 27.0832C111.797 27.0832 112.423 26.8963 112.835 26.5225C113.247 26.1358 113.454 25.5945 113.454 24.8985C113.454 23.4292 112.622 22.6945 110.96 22.6945H108.524V27.0832H110.96Z" fill="white"/>
<path d="M116.76 34.3332V21.1642H118.604V34.3332H116.76Z" fill="white"/>
<path d="M128.35 34.3332H126.404V33.2301C126.057 33.7204 125.651 34.0851 125.184 34.3242C124.724 34.5634 124.195 34.6829 123.597 34.6829C122.395 34.6829 121.448 34.2734 120.754 33.4543C120.067 32.6292 119.723 31.5022 119.723 30.0733C119.723 28.7162 120.076 27.622 120.781 26.791C121.486 25.954 122.407 25.5355 123.543 25.5355C124.237 25.5355 124.829 25.6819 125.319 25.9749C125.815 26.2619 126.177 26.6774 126.404 27.2215V25.8314H128.35V34.3332ZM126.458 30.0554C126.458 29.1765 126.252 28.492 125.839 28.0017C125.432 27.5114 124.861 27.2663 124.126 27.2663C123.391 27.2663 122.811 27.5204 122.386 28.0286C121.968 28.5308 121.759 29.2303 121.759 30.1271C121.759 31.0299 121.962 31.7264 122.368 32.2167C122.775 32.707 123.349 32.9521 124.09 32.9521C124.79 32.9521 125.358 32.686 125.794 32.1539C126.237 31.6218 126.458 30.9223 126.458 30.0554Z" fill="white"/>
<path d="M131.536 38.3329H129.536L131.867 33.5978L128.747 25.8314H130.899L132.459 30.2348C132.549 30.5038 132.627 30.7788 132.693 31.0598C132.764 31.3348 132.821 31.6158 132.863 31.9028C132.941 31.6039 133.126 31.1286 133.419 30.4769L133.464 30.3693L135.562 25.8314H137.67L131.536 38.3329Z" fill="white"/>
<mask id="mask0_3680_497" style="mask-type:alpha" maskUnits="userSpaceOnUse" x="11" y="10" width="23" height="25">
<path d="M11.1309 14.0534C11.1309 11.0061 14.4021 9.07796 17.0681 10.5538L31.8757 18.7509C34.626 20.2733 34.626 24.2275 31.8757 25.75L17.0681 33.9471C14.4021 35.4229 11.1309 33.4947 11.1309 30.4475V14.0534Z" fill="#D9D9D9"/>
</mask>
<g mask="url(#mask0_3680_497)">
<path d="M11.1309 14.0534C11.1309 11.0061 14.4021 9.07796 17.0681 10.5538L31.8757 18.7509C34.626 20.2733 34.626 24.2275 31.8757 25.75L17.0681 33.9471C14.4021 35.4229 11.1309 33.4947 11.1309 30.4475V14.0534Z" fill="#FF5455"/>
<path d="M29.9798 27.0843L10.6465 7.26753C13.3532 4.94753 21.4409 9.52309 25.1465 12.1009L37.2298 19.3509L39.1632 24.6675L29.9798 27.0843Z" fill="#FFDB00"/>
<path d="M24.6632 22.7343L10.6465 7.26753C13.3532 4.94753 21.4409 9.52309 25.1465 12.1009L29.0132 11.1343L30.9465 16.4509L24.6632 22.7343Z" fill="#00EE89"/>
<path d="M25.1464 22.2504L9.67969 37.7171V13.0671L10.6464 7.26709L25.1464 22.2504Z" fill="#00DCFF"/>
</g>
</svg>
