<svg width="46" height="24" viewBox="0 0 46 24" fill="none" xmlns="http://www.w3.org/2000/svg">
<g clip-path="url(#clip0_302_1050)">
<path d="M36.9511 13.405L36.3424 12.5801H29.0859L32.037 16.8413C28.9668 17.4413 26.0686 14.8739 26.1083 11.8875C26.1524 8.83497 28.6139 6.54992 31.5606 6.57201C34.794 6.58963 38.0186 10.0745 36.9511 13.405ZM41.305 18.6411C41.305 18.6411 43.4577 15.8312 43.4665 12.1742C43.4841 4.98836 38.4509 0.321282 31.4283 0.308048C27.3611 0.303637 23.9071 2.28869 21.8118 5.19127C22.6808 6.42644 23.1881 7.61746 23.3954 8.40706H20.1796C20.0164 8.91434 19.8885 9.43489 19.7958 9.96862H23.7659C23.8586 10.5553 23.9071 11.1552 23.9071 11.7684C23.9071 14.2299 23.1351 16.5105 21.8206 18.3897C23.8674 21.332 27.2597 23.467 31.468 23.467C34.2603 23.467 36.2321 22.276 36.5894 22.0863L37.3305 23.0612H44.4766L41.305 18.6411Z" fill="#B5B6B7"/>
<path d="M13.047 15.4213H16.0026C16.0026 15.5537 14.4895 17.027 12.2133 17.027C9.71215 17.027 6.88015 15.0508 6.82278 11.8879C6.76545 8.61042 9.59745 6.46216 12.2133 6.55476C14.3351 6.62979 15.1424 7.2385 16.329 8.40308C16.329 8.40308 18.0406 8.40308 19.7786 8.40752H23.3913C23.184 7.61786 22.6767 6.42684 21.8077 5.19172C21.7327 5.09024 21.6622 4.98438 21.5827 4.8829C19.8447 2.56703 16.823 0.220258 12.1251 0.211435C6.60665 0.202613 2.3498 3.89481 0.947029 8.40752C0.929388 8.46045 0.911742 8.51778 0.898507 8.57071C0.898507 8.5751 0.898507 8.5751 0.894096 8.57954C0.607367 9.58971 0.448563 10.6572 0.448563 11.7556C0.457385 12.8099 0.594133 13.8201 0.845573 14.7729C1.73223 18.0681 4.03489 20.7854 7.07422 22.2455C7.10071 22.2587 7.12276 22.2676 7.14921 22.2808C7.16243 22.2896 7.18009 22.2941 7.19775 22.3029C8.72842 22.9998 10.4488 23.388 12.2795 23.4013C16.1525 23.3704 19.5801 21.4736 21.693 18.571C21.7371 18.5092 21.7769 18.4474 21.821 18.3857C23.1355 16.5065 23.9074 14.2259 23.9074 11.7645C23.9074 11.1513 23.859 10.5513 23.7663 9.96468H13.047V15.4213Z" fill="#B5B6B7"/>
</g>
<defs>
<clipPath id="clip0_302_1050">
<rect width="44.843" height="23.5772" fill="white" transform="translate(0.17334 0.211426)"/>
</clipPath>
</defs>
</svg>
