<svg width="91" height="30" viewBox="0 0 91 30" fill="none" xmlns="http://www.w3.org/2000/svg">
<g clip-path="url(#clip0_1253_19943)">
<mask id="mask0_1253_19943" style="mask-type:luminance" maskUnits="userSpaceOnUse" x="0" y="0" width="13" height="30">
<path d="M12.5179 0.494141H0.202148V29.4781H12.5179V0.494141Z" fill="white"/>
</mask>
<g mask="url(#mask0_1253_19943)">
<path d="M6.99063 14.8748V15.2211H8.36317V24.1364C8.36317 26.9309 7.69545 29.0453 6.45893 29.0453C3.89934 29.0453 3.33054 19.4376 3.33054 14.8625C3.33054 11.326 4.09718 0.77854 6.38474 0.77854C9.35238 0.77854 10.119 9.3847 10.4034 10.4976L10.5394 10.4852L10.1314 0.704348H9.97064C9.93355 0.964017 9.87172 1.22369 9.7728 1.48336C9.42657 2.27473 8.62284 2.12634 8.20242 1.52045C7.62126 0.679619 7.11428 0.494141 6.38474 0.494141C2.05693 0.494141 0.202148 9.80512 0.202148 14.8748C0.202148 20.9832 1.79726 29.4658 6.38474 29.4781C7.782 29.4781 8.84541 27.4131 9.84699 27.4131C10.7496 27.4131 10.7744 28.6126 10.9722 29.1937H11.133V15.2211H12.5179V14.8748H6.99063Z" fill="#212428"/>
</g>
<path d="M69.9025 28.7121V0.717319H68.7031V0.371094H73.8347V0.717319H72.6229L72.6353 28.7121H73.8347V29.0583H68.7031V28.7121H69.9025Z" fill="#212428"/>
<path d="M19.2058 0.371094H25.0422C27.8367 0.371094 29.642 3.56131 29.642 7.38215C29.642 11.203 28.1211 14.7394 25.7717 14.7394C25.4626 14.7394 25.4873 14.9373 25.7717 14.9373C27.1814 14.9373 28.2324 16.5942 28.455 17.027C29.3205 18.8076 28.7147 26.981 29.5802 27.7847C30.3098 28.4648 30.8415 27.4014 30.928 27.2406L31.0146 27.3025C31.0022 27.3766 30.3716 29.4911 28.8012 29.4911C27.4905 29.4911 26.8351 27.8465 26.6497 26.8202C26.3405 25.1385 26.4395 20.007 26.2787 18.9683C26.1303 18.0657 25.7346 15.3824 24.5105 15.1475C24.0653 15.0609 23.6202 15.0238 23.175 15.0486V28.811H24.4116V29.1572H19.0327V28.811H20.4052V0.717319H19.1935L19.2058 0.371094ZM23.3234 0.803875V14.5045C23.9046 14.5045 24.8691 14.5663 25.8707 13.2927C26.798 12.118 27.169 9.15037 27.169 6.92464C27.169 4.56289 25.9572 0.791509 24.4116 0.791509L23.3234 0.803875Z" fill="#212428"/>
<path d="M36.9359 28.7121L42.1787 0.371094L47.0383 28.7121H48.1388V29.0583H43.0938V28.7121H44.1943L42.8217 20.8107H38.8031L37.3687 28.7245H38.7907V29.0707H35.7241V28.7368L36.9359 28.7121ZM38.8772 20.4521H42.7723L40.8928 9.38531L38.8772 20.4521Z" fill="#212428"/>
<path d="M79.746 28.7121L85.0012 0.371094L89.8607 28.7121H90.9612V29.0583H85.9162V28.7121H87.0167L85.6442 20.8107H81.6131L80.1787 28.7245H81.6007V29.0707H78.5342V28.7368L79.746 28.7121ZM81.6873 20.4521H85.5823L83.7028 9.38531L81.6873 20.4521Z" fill="#212428"/>
<path d="M55.336 28.7121H58.588C60.109 28.6503 61.9761 27.1788 61.9761 23.0983L61.9885 20.6871H62.2729V29.0583H52.4302L59.1074 0.717319H55.9914C54.0253 0.717319 52.9371 3.78388 52.9371 6.60314C52.9371 7.33269 52.9124 8.72996 52.9124 8.72996H52.628V0.371094H62.1987L55.336 28.7121Z" fill="#212428"/>
</g>
<defs>
<clipPath id="clip0_1253_19943">
<rect width="90.72" height="29.12" fill="white" transform="translate(0.199707 0.371094)"/>
</clipPath>
</defs>
</svg>
