<svg width="44" height="42" viewBox="0 0 44 42" fill="none" xmlns="http://www.w3.org/2000/svg">
<g clip-path="url(#clip0_313_1085)">
<path d="M43.1332 26.0125C43.0987 25.8145 43.0161 25.6262 42.8916 25.4614C42.7671 25.2967 42.6038 25.1597 42.4139 25.0606C41.3701 24.4679 38.9746 23.9735 36.6628 25.0329C35.6993 25.4751 34.7291 26.0063 33.8257 26.5161C33.8047 26.478 33.7813 26.4411 33.7555 26.4055C33.451 25.994 32.8823 25.7914 32.0559 25.7914C31.0322 25.7914 29.1385 26.7126 26.5791 28.0299C25.8055 28.4512 25.0069 28.8326 24.187 29.1722C23.6517 29.1139 23.1298 29.0678 22.5611 29.0187C21.6946 28.9419 20.7076 28.859 19.3894 28.7116C18.9354 28.5564 18.503 28.3523 18.1014 28.1036C15.1516 26.4927 11.8937 25.414 8.5028 24.9254C3.23681 24.0933 0.99525 25.0329 0.884845 25.0851C0.803368 25.1185 0.729998 25.1666 0.669053 25.2264C0.608108 25.2863 0.56082 25.3567 0.529972 25.4335C0.499124 25.5104 0.485339 25.5921 0.489429 25.674C0.493518 25.7558 0.5154 25.836 0.553786 25.91C0.592172 25.9839 0.646286 26.0501 0.712943 26.1045C0.779601 26.159 0.857455 26.2007 0.941923 26.2271C1.02639 26.2535 1.11577 26.2642 1.20479 26.2584C1.29381 26.2527 1.38068 26.2307 1.46029 26.1936C1.48036 26.1936 3.50111 25.3799 8.2753 26.1353C11.5128 26.6025 14.6231 27.6333 17.4389 29.1722C18.2218 29.5806 18.737 29.8539 19.2155 29.9123C20.5537 30.0781 21.5574 30.1641 22.4373 30.2408C23.8808 30.3386 25.3145 30.5346 26.7264 30.8273C29.2289 31.3463 30.8716 32.2736 31.3533 33.4343C31.4743 33.7302 31.5149 34.0486 31.4718 34.3621C31.4287 34.6756 31.303 34.9748 31.1058 35.2338L30.6006 35.5408C29.5668 35.7374 27.2249 35.1202 25.8632 34.7609C24.9336 34.4717 23.9756 34.266 23.0027 34.1467C20.1254 34.048 17.245 34.2426 14.4145 34.7271C14.3266 34.7413 14.2427 34.7715 14.1677 34.816C14.0928 34.8604 14.0282 34.9181 13.9779 34.9858C13.9276 35.0535 13.8926 35.1297 13.8749 35.21C13.8572 35.2902 13.8571 35.373 13.8747 35.4532C13.8924 35.5335 13.9273 35.6098 13.9775 35.6775C14.0278 35.7452 14.0922 35.803 14.1671 35.8475C14.2421 35.892 14.3259 35.9223 14.4138 35.9366C14.5017 35.9509 14.5918 35.949 14.6788 35.9308C17.4008 35.4698 20.1695 35.2824 22.9358 35.372C23.8038 35.4901 24.659 35.6771 25.4918 35.9308C26.5624 36.2133 27.6464 36.4958 28.6334 36.6586C25.2409 38.544 22.1061 39.9841 20.634 39.9841C17.7367 39.9841 5.69584 34.6227 1.2997 32.5592C1.14247 32.4907 0.962352 32.4812 0.797572 32.5326C0.632792 32.584 0.496314 32.6923 0.417094 32.8345C0.337873 32.9767 0.322144 33.1417 0.373244 33.2944C0.424344 33.4471 0.538251 33.5755 0.690799 33.6524C1.35992 33.9594 16.8267 41.2124 20.6373 41.2124C22.5845 41.2124 26.8435 39.1673 31.0957 36.6801C31.4907 36.5878 31.8427 36.381 32.0994 36.0905C37.1279 33.0536 41.9087 29.5622 42.4808 28.3247C42.6363 28.0188 42.7184 27.6858 42.7217 27.3482C43.0331 26.9645 43.1796 26.489 43.1332 26.0125ZM37.2617 26.1322C39.0717 25.3031 40.9419 25.6747 41.7114 26.1046C41.7329 26.1171 41.7531 26.1315 41.7716 26.1476C41.0021 25.8989 39.8211 26.0524 38.2319 26.6113C37.0774 27.0206 35.9828 27.5601 34.9733 28.2172C34.0198 28.7884 32.7183 29.5714 30.343 30.7536C29.9684 30.557 29.5794 30.3846 29.1787 30.2377C30.1456 29.8263 31.2931 29.3165 31.7782 29.0832C32.3738 28.7761 33.0696 28.3892 33.809 27.9685C34.8796 27.3605 36.0907 26.6696 37.2617 26.1322ZM27.2249 29.0985C28.7471 28.3186 31.2965 27.0166 32.0492 27.0166C32.2565 26.994 32.4665 27.0259 32.6548 27.1087C32.6364 27.0911 32.6246 27.0685 32.6213 27.0442C32.6202 27.035 32.6202 27.0258 32.6213 27.0166L32.8053 27.0841C32.1897 27.4342 31.611 27.7597 31.1325 28.0054C30.4099 28.3646 27.9943 29.3872 27.275 29.6881L27.0241 29.639L26.4219 29.51L27.2249 29.0985ZM41.2497 27.8365C40.8147 28.7577 37.0676 31.5213 32.8187 34.1744C32.8278 33.7707 32.7517 33.3693 32.5946 32.9922C32.3583 32.4446 31.99 31.9533 31.5173 31.5551C33.5982 30.5018 34.796 29.7802 35.6926 29.2428C36.6248 28.6341 37.6364 28.1348 38.7036 27.7566C40.5805 27.0934 41.2932 27.25 41.3801 27.3206C41.3963 27.5007 41.3544 27.6811 41.2597 27.8395L41.2497 27.8365Z" fill="black"/>
<path fill-rule="evenodd" clip-rule="evenodd" d="M11.2841 13.6105C17.0609 13.6105 21.743 7.97345 21.743 1.02026C21.743 7.97345 26.425 13.6105 32.2019 13.6105C26.425 13.6105 21.743 19.2476 21.743 26.2008C21.743 19.2476 17.0609 13.6105 11.2841 13.6105V13.6105Z" fill="#E9F1FB" stroke="#212428" stroke-width="1.23618" stroke-miterlimit="2.61313" stroke-linecap="round" stroke-linejoin="round"/>
</g>
<defs>
<clipPath id="clip0_313_1085">
<rect width="43.3125" height="42" fill="white" transform="translate(0.34375)"/>
</clipPath>
</defs>
</svg>
