<svg xmlns="http://www.w3.org/2000/svg" width="34" height="36" viewBox="0 0 34 36" fill="none">
  <g opacity="0.8">
    <path fill-rule="evenodd" clip-rule="evenodd" d="M16.158 4V32C16.158 32 4.48471 28.7958 3.07031 8.59245C3.07031 8.59245 13.5212 6.17399 16.158 4.00873V4Z" stroke="white" stroke-width="1.5" stroke-miterlimit="2.61313" stroke-linecap="round" stroke-linejoin="round"/>
    <path fill-rule="evenodd" clip-rule="evenodd" d="M16.1582 4V32C16.1582 32 27.8314 28.7958 29.2458 8.59245C29.2458 8.59245 18.795 6.17399 16.1582 4.00873V4Z" stroke="white" stroke-width="1.5" stroke-miterlimit="2.61313" stroke-linecap="round" stroke-linejoin="round"/>
    <path d="M16.1565 24.8248C20.5264 24.8248 24.0689 21.2823 24.0689 16.9124C24.0689 12.5425 20.5264 9 16.1565 9C11.7866 9 8.24414 12.5425 8.24414 16.9124C8.24414 21.2823 11.7866 24.8248 16.1565 24.8248Z" fill="black" stroke="white" stroke-width="1.5" stroke-miterlimit="2.61313" stroke-linecap="round" stroke-linejoin="round"/>
    <path fill-rule="evenodd" clip-rule="evenodd" d="M14.6313 21.7124C15.089 21.9464 15.6077 22.0786 16.1569 22.0786C16.7061 22.0786 17.2247 21.9464 17.6824 21.7124C18.7909 21.1531 19.5435 20.0039 19.5435 18.6919C19.5435 18.6105 19.5435 18.5393 19.5334 18.458C19.5334 18.458 19.5334 18.4478 19.5334 18.4376H19.5435C19.5537 18.2241 19.5028 16.6172 16.1569 11.7559C12.8211 16.6172 12.76 18.2241 12.7702 18.4376H12.7804C12.7804 18.458 12.7804 18.458 12.7804 18.458C12.7702 18.5393 12.7702 18.6105 12.7702 18.6919C12.7702 20.014 13.5228 21.1632 14.6313 21.7124Z" stroke="white" stroke-width="1.5" stroke-miterlimit="2.61313" stroke-linecap="round" stroke-linejoin="round"/>
  </g>
</svg>