<svg width="51" height="46" viewBox="0 0 51 46" fill="none" xmlns="http://www.w3.org/2000/svg">
<path d="M13.7865 6.76053H20.3208L22.5283 6.72224C22.7789 6.71789 22.9843 6.91978 22.9843 7.17034V13.0902C22.9843 13.1356 22.9912 13.1808 23.0048 13.2242L25.6712 21.7336C25.6844 21.776 25.7039 21.8161 25.729 21.8527L32.5943 31.8867C32.6453 31.9612 32.6726 32.0495 32.6726 32.1398V38.5344C32.6726 38.7819 32.472 38.9826 32.2245 38.9826H29.0439C28.9587 38.9826 28.8752 38.9583 28.8033 38.9125L23.1479 35.3136C23.0564 35.2554 22.9891 35.166 22.9586 35.062L20.4155 26.4155C20.3594 26.2247 20.1843 26.0938 19.9855 26.0938H13.5635C13.4224 26.0938 13.2896 26.0273 13.2049 25.9145L10.3189 22.0664C10.1994 21.907 10.1994 21.6879 10.3189 21.5286L13.2498 17.6207C13.3079 17.5431 13.3394 17.4488 13.3394 17.3518V7.2087C13.3394 6.96118 13.539 6.76053 13.7865 6.76053Z" stroke="#212428" stroke-width="0.9"/>
<path d="M6.89603 33.3262V25.177C6.89603 24.7534 7.42952 24.5663 7.69416 24.8971L11.0577 29.1016C11.1428 29.2079 11.2716 29.2698 11.4077 29.2698H16.1145C16.362 29.2698 16.5626 29.4704 16.5626 29.7179V33.1179C16.5626 33.3654 16.362 33.566 16.1145 33.566H13.0275C12.8864 33.566 12.7536 33.6324 12.669 33.7453L11.2307 35.6629C11.2052 35.6969 11.1751 35.7271 11.1411 35.7526L7.20699 38.7032C7.02856 38.837 6.77889 38.8192 6.62118 38.6615L4.06039 36.1007C3.86041 35.9007 3.89338 35.5678 4.12869 35.4109L6.69646 33.6991C6.82114 33.616 6.89603 33.476 6.89603 33.3262Z" stroke="#212428" stroke-width="0.9"/>
<path d="M37.8261 23.4311L40.2847 21.4642C40.3122 21.4422 40.3368 21.4169 40.3579 21.3887L41.7009 19.5981C41.7797 19.493 41.9033 19.4312 42.0347 19.4312H46.4087C46.6392 19.4312 46.826 19.618 46.826 19.8484V23.0776C46.826 23.2816 46.6785 23.4557 46.4773 23.4892L44.2511 23.8602C44.0186 23.899 43.8643 24.1225 43.9105 24.3536L44.2521 26.0613C44.2941 26.2713 44.1703 26.479 43.9656 26.5419L38.0662 28.3571C37.9185 28.4026 37.7578 28.3626 37.6485 28.2534L35.1861 25.7909C34.9999 25.6048 35.0306 25.2948 35.2497 25.1487L37.8261 23.4311Z" stroke="#212428" stroke-width="0.9"/>
<path d="M31.8261 14.4316L34.2847 12.4647C34.3122 12.4427 34.3368 12.4174 34.3579 12.3892L35.5678 10.776C35.7091 10.5876 35.9783 10.5534 36.1622 10.7006L38.326 12.4316L40.0963 13.8478C40.378 14.0732 40.2602 14.5259 39.9042 14.5852L38.2511 14.8607C38.0186 14.8995 37.8643 15.123 37.9105 15.3541L38.1898 16.7505C38.2515 17.0591 37.9623 17.3224 37.6607 17.2319L33.4076 15.956C33.3538 15.9399 33.2973 15.9347 33.2416 15.9409L30.5306 16.2422C30.0961 16.2904 29.8893 15.7228 30.2531 15.4803L31.8261 14.4316Z" stroke="#212428" stroke-width="0.9"/>
<path d="M29.2053 19.7987L30.1749 18.1828C30.2656 18.0316 30.4416 17.9537 30.6145 17.9883L32.7856 18.4226C32.8125 18.4279 32.8399 18.4307 32.8674 18.4307H35.1797C35.2744 18.4307 35.3664 18.4629 35.4404 18.5221L37.5626 20.2199C37.7163 20.3428 37.7632 20.5563 37.6752 20.7323L36.8756 22.3315C36.8431 22.3964 36.7943 22.4518 36.7338 22.4921L35.4894 23.3217C35.3859 23.3907 35.2571 23.4099 35.138 23.3742L30.7381 22.0542C30.5126 21.9865 30.3877 21.7459 30.4622 21.5226L30.6431 20.9798C30.7331 20.7096 30.532 20.4306 30.2472 20.4306H29.5631C29.2388 20.4306 29.0385 20.0768 29.2053 19.7987Z" stroke="#212428" stroke-width="0.9"/>
</svg>
