<svg width="21" height="20" viewBox="0 0 21 20" fill="none" xmlns="http://www.w3.org/2000/svg">
<path d="M2.01807 4.91072C2.527 5.33482 3.03592 5.75893 4.1386 5.75893C6.25914 5.75893 6.25914 4.0625 8.37968 4.0625C10.585 4.0625 10.4154 5.75893 12.6208 5.75893C14.7413 5.75893 14.7413 4.0625 16.8618 4.0625C17.9645 4.0625 18.4734 4.48661 18.9824 4.91072" stroke="#212428" stroke-width="1.25" stroke-linecap="round" stroke-linejoin="round"/>
<path d="M2.01807 9.99995C2.527 10.4241 3.03592 10.8482 4.1386 10.8482C6.25914 10.8482 6.25914 9.15173 8.37968 9.15173C10.585 9.15173 10.4154 10.8482 12.6208 10.8482C14.7413 10.8482 14.7413 9.15173 16.8618 9.15173C17.9645 9.15173 18.4734 9.57584 18.9824 9.99995" stroke="#212428" stroke-width="1.25" stroke-linecap="round" stroke-linejoin="round"/>
<path d="M2.01807 15.0893C2.527 15.5134 3.03592 15.9375 4.1386 15.9375C6.25914 15.9375 6.25914 14.2411 8.37968 14.2411C10.585 14.2411 10.4154 15.9375 12.6208 15.9375C14.7413 15.9375 14.7413 14.2411 16.8618 14.2411C17.9645 14.2411 18.4734 14.6652 18.9824 15.0893" stroke="#212428" stroke-width="1.25" stroke-linecap="round" stroke-linejoin="round"/>
</svg>
