<svg width="51" height="46" viewBox="0 0 51 46" fill="none" xmlns="http://www.w3.org/2000/svg">
<path d="M29.1211 28.2459C29.1211 25.7865 30.9656 24.5568 31.5805 24.2494C32.0864 23.942 33.1176 24.2494 34.0399 24.2494C34.9621 24.2494 36.8067 25.4791 36.8067 27.6311C36.8067 29.7831 35.2696 31.935 33.425 31.935C31.5805 31.935 29.1211 30.7053 29.1211 28.2459Z" stroke="#212428" stroke-width="0.9"/>
<path d="M12.5997 28.3828C15.4447 27.822 17.2952 29.7133 17.7935 30.3671C18.2665 30.8926 18.1502 32.1769 18.3642 33.2627C18.5782 34.3485 17.5838 36.8006 15.0944 37.2912C12.6051 37.7819 9.75901 36.4628 9.33098 34.2911C8.90295 32.1195 9.75473 28.9435 12.5997 28.3828Z" stroke="#212428" stroke-width="0.9"/>
<path d="M18.9746 32.4695C18.9746 29.9564 21.3356 28.6998 22.1226 28.3857C22.7702 28.0716 24.0901 28.3857 25.2706 28.3857C26.4511 28.3857 28.8122 29.6423 28.8122 31.8412C28.8122 34.0402 26.8447 36.2391 24.4836 36.2391C22.1226 36.2391 18.9746 34.9826 18.9746 32.4695Z" stroke="#212428" stroke-width="0.9"/>
<path d="M26.3521 42.3876C24.1387 41.8958 24.4051 39.3134 24.815 38.0837C24.9063 37.7763 25.7374 36.854 26.3521 36.2392C26.9669 35.6243 28.8116 35.3169 30.6562 34.702C32.5007 34.0872 34.0378 32.5501 37.4195 31.6278C40.8011 30.7056 42.0308 34.3946 42.3383 35.6243C42.6457 36.854 41.1086 39.3134 38.9566 39.9283C36.8046 40.5431 36.1898 41.7728 35.2675 42.3876C34.3452 43.0025 29.119 43.0025 26.3521 42.3876Z" stroke="#212428" stroke-width="0.9"/>
<path d="M16.4949 21.1118C14.366 21.9269 12.9511 19.4237 12.5098 18.0702C12.3903 17.7382 12.4894 16.4243 12.6053 15.5137C12.7211 14.6031 14.0416 13.2706 15.1674 11.6583C16.2933 10.046 16.5832 7.76942 18.7769 5.00013C20.9705 2.23085 23.7866 6.70461 24.817 7.64881C25.8474 8.59301 26.6685 9.89275 25.2902 11.6805C23.9119 13.4682 23.6482 14.4276 23.2797 15.5137C22.9113 16.5997 19.156 20.0929 16.4949 21.1118Z" stroke="#212428" stroke-width="0.9"/>
<path d="M18.5555 28.5827C15.4637 29.2553 14.9151 26.773 15.0273 25.4478C15.0406 25.1221 15.8156 23.8633 16.4124 22.9933C17.0092 22.1234 19.3359 20.9107 21.5552 19.4187C23.7745 17.9266 25.2667 15.7517 29.4069 13.2026C33.5471 10.6535 36.4553 13.3851 37.2896 14.3474C38.1238 15.3098 36.953 18.3231 34.3281 19.9707C31.7032 21.6183 27.788 21.8372 26.7855 22.8627C25.783 23.8882 22.4202 27.742 18.5555 28.5827Z" stroke="#212428" stroke-width="0.9"/>
</svg>
