<svg width="51" height="46" viewBox="0 0 51 46" fill="none" xmlns="http://www.w3.org/2000/svg">
<path d="M30.4121 40.6943C30.7772 40.7478 31.0576 41.0593 31.0576 41.4355C31.0575 41.8503 30.7224 42.1855 30.3076 42.1855C29.8929 42.1855 29.5578 41.8502 29.5576 41.4355C29.5576 41.0887 29.7929 40.7994 30.1211 40.7129L30.2695 40.6729L30.4121 40.6943ZM24.0596 38.5332C24.3136 38.2822 24.7001 38.247 24.9873 38.4258L25.1104 38.5029L25.2021 38.6299C25.411 38.921 25.3871 39.3297 25.123 39.5938C24.8284 39.8884 24.3552 39.8884 24.0605 39.5938C23.7664 39.2996 23.7653 38.827 24.0586 38.5322L24.0596 38.5332ZM35.583 38.4619C35.8782 38.2435 36.2919 38.2687 36.5547 38.5312C36.8494 38.8259 36.8494 39.2991 36.5547 39.5938C36.2601 39.8881 35.7878 39.8881 35.4932 39.5938L35.4912 39.5918C35.2448 39.3481 35.2065 38.9708 35.3809 38.6807L35.4551 38.5557L35.583 38.4619ZM30.4512 28.6924C31.5958 28.725 32.6341 29.1711 33.4258 29.8896L33.5801 30.0293L33.7197 30.1797C34.4541 30.9669 34.9131 32.0097 34.9619 33.1602L34.9707 33.3672L34.9619 33.5615C34.9091 34.7074 34.4466 35.7468 33.7119 36.5303L33.582 36.667L33.4189 36.8154C32.6266 37.5264 31.5955 37.9682 30.4541 38.0049L30.2471 38.0107L30.0469 38.001C28.9223 37.94 27.9075 37.4816 27.1357 36.7627L27.0117 36.6465L26.8516 36.4697C26.1492 35.6943 25.7062 34.679 25.6533 33.5615L25.6416 33.3291L25.6494 33.1592C25.6942 32.0381 26.1319 31.0195 26.834 30.2402L26.9883 30.0684L27.1191 29.9473C27.8955 29.2197 28.9146 28.7572 30.043 28.6963L30.2363 28.6855L30.4512 28.6924ZM22.2188 32.6006C22.5809 32.6006 22.8883 32.8649 22.9531 33.2119L22.9824 33.3721L22.9551 33.501C22.8807 33.8461 22.5784 34.1006 22.2188 34.1006C21.804 34.1005 21.4688 33.7654 21.4688 33.3506C21.4688 32.9359 21.804 32.6007 22.2188 32.6006ZM38.3926 32.6006H38.3965C38.8113 32.6006 39.1464 32.9358 39.1465 33.3506C39.1465 33.7655 38.8114 34.1006 38.3965 34.1006C38.0346 34.1005 37.7315 33.8442 37.6611 33.5039L37.6309 33.3584L37.6582 33.2119C37.7232 32.864 38.0269 32.6006 38.3926 32.6006ZM24.0566 27.1035C24.3513 26.8091 24.8236 26.8091 25.1182 27.1035C25.3809 27.3662 25.406 27.7799 25.1875 28.0752L25.0938 28.2021L24.9697 28.2773C24.6817 28.4508 24.3026 28.4116 24.0566 28.166C23.762 27.8713 23.762 27.3982 24.0566 27.1035ZM35.4883 27.0996C35.7829 26.8049 36.2561 26.8049 36.5508 27.0996C36.8451 27.3942 36.8451 27.8666 36.5508 28.1611L36.5488 28.1631C36.2908 28.4237 35.8835 28.4514 35.5859 28.2402L35.46 28.1504L35.3838 28.0264C35.203 27.7326 35.2407 27.3475 35.4883 27.0996ZM30.3037 24.5117C30.7184 24.5119 31.0536 24.847 31.0537 25.2617C31.0537 25.6392 30.7761 25.9486 30.4082 26.002L30.2666 26.0225L30.1133 25.9834C29.7902 25.901 29.5537 25.6107 29.5537 25.2617C29.5538 24.8469 29.8889 24.5117 30.3037 24.5117Z" stroke="#212428" stroke-width="0.735"/>
<path d="M36.1175 22.4606C36.1933 22.5333 36.2046 22.6496 36.1455 22.7332C36.0784 22.8276 35.948 22.8502 35.8535 22.7834C35.759 22.7163 35.7368 22.5851 35.8039 22.4906C35.8586 22.4139 35.9571 22.3847 36.0488 22.419L36.0898 22.4337L36.1175 22.4606ZM34.2409 19.699C34.3403 19.6828 34.4346 19.7379 34.4708 19.824L34.486 19.8599L34.4863 19.9068C34.4867 20.0066 34.4157 20.095 34.3138 20.1125C34.1986 20.1321 34.0913 20.0559 34.0718 19.9406C34.0524 19.8261 34.1269 19.7196 34.2409 19.699ZM39.0866 23.1151C39.1901 23.1131 39.2794 23.1866 39.2965 23.2868C39.316 23.4019 39.2395 23.5091 39.1246 23.5289C39.0093 23.5484 38.902 23.4722 38.8825 23.357L38.8815 23.355L38.8819 23.287C38.8932 23.2203 38.9377 23.1608 39.004 23.1319L39.0406 23.1159L39.0866 23.1151ZM39.7355 17.4349C40.1724 17.7642 40.4535 18.2245 40.5632 18.7234L40.5845 18.82L40.5978 18.9193C40.666 19.4288 40.5567 19.9624 40.257 20.4247L40.203 20.5074L40.1461 20.5808C39.8082 21.0129 39.3401 21.2898 38.8373 21.3917L38.7539 21.4079L38.644 21.4209C38.1381 21.4787 37.6141 21.3664 37.1591 21.0647L37.0746 21.0083L37.0017 20.9506C36.5804 20.6157 36.3116 20.1562 36.2098 19.6623L36.1944 19.5879L36.1805 19.4691C36.1214 18.9726 36.2303 18.4543 36.5191 18.0039L36.5839 17.9026L36.6276 17.8461C36.9553 17.4215 37.408 17.1465 37.8968 17.0371L38.0013 17.0131L38.0897 17.0016C38.5939 16.9329 39.1187 17.0339 39.5749 17.3221L39.6446 17.3656L39.7355 17.4349ZM35.1083 16.6223C35.189 16.6799 35.2171 16.7905 35.1758 16.8799L35.1558 16.9232L35.1316 16.9455C35.0568 17.0138 34.9463 17.0209 34.8658 16.9639C34.7713 16.8969 34.7487 16.7664 34.8156 16.672C34.8827 16.5774 35.0138 16.5552 35.1083 16.6223ZM41.9136 21.4551L41.916 21.4568C42.0103 21.5239 42.0319 21.6545 41.9648 21.749C41.8977 21.8432 41.7678 21.8652 41.6734 21.7984C41.591 21.7398 41.5629 21.6319 41.6015 21.5437L41.6187 21.5044L41.6482 21.4762C41.7197 21.4071 41.8315 21.397 41.9136 21.4551ZM37.6559 14.8885C37.7711 14.869 37.8784 14.9452 37.898 15.0604C37.9149 15.1607 37.8554 15.2587 37.757 15.2909L37.7125 15.3048L37.6735 15.3023C37.5801 15.2951 37.5001 15.225 37.484 15.1306C37.4645 15.0155 37.5409 14.9083 37.6559 14.8885ZM42.4684 18.3025C42.5834 18.283 42.6907 18.3594 42.7104 18.4744C42.7299 18.5896 42.6537 18.6969 42.5385 18.7164L42.5366 18.7175C42.4396 18.7344 42.3418 18.6775 42.3071 18.5784L42.2921 18.5355L42.2949 18.4979C42.3015 18.3997 42.3741 18.3185 42.4684 18.3025ZM40.927 15.634C41.0215 15.7011 41.0437 15.8323 40.9766 15.9268C40.9164 16.0112 40.8042 16.0383 40.71 15.9902L40.6753 15.9715L40.6457 15.9373C40.5856 15.8666 40.5792 15.7631 40.635 15.6842C40.7021 15.5898 40.8325 15.5671 40.927 15.634Z" stroke="#212428" stroke-width="0.735"/>
<path d="M15.1045 16.3994C15.4432 16.445 15.749 16.6146 15.96 16.8838C16.1739 17.1569 16.2692 17.4861 16.2324 17.833L16.2188 17.959C16.1568 18.2421 15.9997 18.4962 15.7656 18.6797L15.7627 18.6826C15.5309 18.8709 15.246 18.96 14.9648 18.96C14.6284 18.96 14.301 18.8355 14.0527 18.5889L13.9512 18.4756C13.7645 18.2368 13.6683 17.9551 13.6719 17.6562L13.6797 17.5273C13.7163 17.1906 13.8845 16.8841 14.1553 16.6719C14.3943 16.4846 14.6763 16.388 14.9756 16.3916L15.1045 16.3994ZM14.8076 16.7969C14.6831 16.8159 14.5582 16.8598 14.4473 16.9355L14.3828 16.9854C14.1923 17.1333 14.0737 17.3511 14.0498 17.5898C14.0255 17.8333 14.1003 18.0608 14.2393 18.2461V18.2471L14.2451 18.2539C14.5571 18.6379 15.1236 18.7124 15.5225 18.3984L15.5215 18.3975C15.7163 18.2495 15.8381 18.0298 15.8623 17.7881C15.8866 17.5447 15.8118 17.3171 15.6729 17.1318C15.5249 16.9345 15.3031 16.8115 15.0596 16.7871L15.0479 16.7861H14.9561L14.8076 16.7969Z" stroke="#212428" stroke-width="0.5"/>
<path d="M19.9619 15.7402C20.1868 15.5693 20.5033 15.6068 20.6787 15.8252C20.8504 16.0504 20.8131 16.3665 20.5938 16.542C20.3684 16.7131 20.0521 16.6766 19.877 16.457C19.7065 16.2319 19.7432 15.9154 19.9619 15.7402Z" stroke="#212428" stroke-width="0.63"/>
<path d="M22.5342 9.15918C23.1515 8.66231 24.0644 8.76692 24.5547 9.39258L24.5576 9.39648C25.0544 10.0139 24.9491 10.9269 24.3232 11.417L24.3203 11.4199C23.7029 11.9169 22.789 11.8115 22.2988 11.1855L22.2969 11.1826L22.2109 11.0635C21.815 10.4526 21.9434 9.6208 22.5303 9.16113L22.5342 9.15918Z" stroke="#212428" stroke-width="0.63"/>
<path d="M30.7479 9.94372C30.7295 9.68605 30.5086 9.5112 30.2509 9.5204L28.5116 9.66765C28.4748 9.5112 28.4288 9.36396 28.3736 9.21672L29.9748 8.25045C30.1957 8.12161 30.2601 7.83633 30.1313 7.61547C30.0024 7.3946 29.7172 7.33019 29.4963 7.45902L27.9963 8.36088C27.9227 8.23204 27.849 8.094 27.7662 7.97437L28.8981 6.74122C29.073 6.55717 29.0546 6.26269 28.8705 6.08784C28.6865 5.92219 28.392 5.93139 28.2171 6.11544L27.1957 7.22896C26.9656 6.96208 26.7079 6.72282 26.4318 6.51116L27.1036 4.9007C27.2049 4.67064 27.0944 4.39456 26.8552 4.30253C26.6159 4.2013 26.349 4.31173 26.257 4.551L25.6496 5.99581C25.4104 5.85777 25.1527 5.74734 24.895 5.64611L25.0146 3.8516C25.033 3.59393 24.8398 3.38227 24.5821 3.36387C24.3337 3.34546 24.1128 3.53872 24.0944 3.78719L23.984 5.38844C23.6987 5.33322 23.4134 5.28721 23.1281 5.2688L22.806 3.52031C22.76 3.27184 22.5207 3.10619 22.2723 3.15221C22.0238 3.19822 21.8582 3.43749 21.9042 3.68596L22.2079 5.29641C21.895 5.33322 21.5821 5.38844 21.2784 5.47126L20.5146 4.03566C20.3949 3.81479 20.1189 3.72277 19.8888 3.8424C19.6679 3.96204 19.5759 4.23811 19.6955 4.46818L20.3949 5.78415C20.3949 5.78415 20.3673 5.79335 20.3489 5.80256C20.0452 5.94059 19.76 6.12465 19.4931 6.3087L18.7017 5.32402C18.5452 5.13077 18.2507 5.09396 18.0575 5.2596C17.8642 5.41605 17.8274 5.71053 17.9931 5.90378L18.7937 6.88846C18.536 7.13693 18.2967 7.40381 18.0851 7.69829L17.1188 6.77803C16.9348 6.60318 16.6403 6.61238 16.4654 6.79644C16.2906 6.98049 16.2998 7.27497 16.4838 7.44982L17.5973 8.50812C17.4961 8.70137 17.3857 8.89463 17.3121 9.09708C17.2753 9.19831 17.22 9.29954 17.1832 9.39157L16.4194 8.4529C16.263 8.25965 15.9685 8.22284 15.7752 8.38848C15.582 8.54493 15.5452 8.83941 15.7108 9.03267L16.7047 10.2566C16.4746 10.5787 16.1894 10.8732 15.8857 11.1217L15.1955 9.53881C15.0942 9.30874 14.8274 9.19831 14.5881 9.29954C14.358 9.40077 14.2476 9.67685 14.3488 9.90691L15.1034 11.6462C14.7906 11.8119 14.4593 11.9499 14.1096 12.0511L13.6034 10.4407C13.5298 10.2014 13.2721 10.0634 13.0237 10.137C12.7844 10.2106 12.6464 10.4683 12.72 10.7167L13.1985 12.2352C12.7844 12.2996 12.3979 12.4008 12.0206 12.5389L11.3028 11.2597C11.1739 11.0388 10.8979 10.956 10.677 11.0848C10.4561 11.2137 10.3733 11.4898 10.5021 11.7106L11.1831 12.9254C10.7414 13.1738 10.3365 13.4867 9.9776 13.8456L8.78127 12.9254C8.57881 12.7689 8.29353 12.8057 8.13708 13.0082C7.98064 13.2106 8.01745 13.4959 8.21991 13.6524L9.37023 14.545C9.08495 14.9223 8.85489 15.3364 8.67084 15.7782L6.75669 15.6401C6.50822 15.6217 6.28736 15.815 6.26896 16.0635C6.25055 16.3211 6.44381 16.542 6.69228 16.5604L8.37635 16.68C8.26592 17.131 8.21071 17.6003 8.21071 18.0788L5.83643 18.6494C5.58796 18.7138 5.44072 18.9623 5.49594 19.2015C5.55116 19.4132 5.73521 19.5512 5.94687 19.5512C5.98368 19.5512 6.02049 19.5512 6.0573 19.542L8.30273 18.9991C8.35795 19.3396 8.44077 19.6709 8.5604 19.993L6.52663 21.0421C6.29656 21.1617 6.21374 21.4378 6.32417 21.6586C6.40699 21.8151 6.56344 21.9071 6.73829 21.9071C6.81191 21.9071 6.88553 21.8887 6.94995 21.8519L8.93771 20.8304C9.11256 21.1525 9.31501 21.447 9.54508 21.7322L7.93463 23.2415C7.75057 23.4163 7.74137 23.7016 7.91622 23.8949C8.00825 23.9961 8.12788 24.0421 8.24751 24.0421C8.35794 24.0421 8.47758 24.0053 8.5604 23.9133L10.1801 22.3948C10.2721 22.4777 10.3641 22.5605 10.4653 22.6433C10.585 22.7353 10.7138 22.809 10.8334 22.8918L9.79355 24.9163C9.67392 25.1464 9.76594 25.4225 9.99601 25.5329C10.0604 25.5697 10.134 25.5881 10.2077 25.5881C10.3733 25.5881 10.539 25.4961 10.6218 25.3397L11.6433 23.3519C11.8273 23.4347 12.0114 23.5268 12.2046 23.6004L12.131 25.8274C12.131 26.0851 12.3243 26.2967 12.5727 26.3059H12.5911C12.8396 26.3059 13.0421 26.1127 13.0513 25.8642L13.1249 23.8304C13.4286 23.8857 13.7415 23.9041 14.0544 23.9041L14.1648 25.7722C14.1832 26.0207 14.3856 26.2047 14.6249 26.2047C14.6249 26.2047 14.6433 26.2047 14.6525 26.2047C14.9102 26.1863 15.1034 25.9746 15.085 25.717L14.9746 23.8396C15.2875 23.8028 15.5912 23.7568 15.8949 23.7016L16.2722 25.6157C16.3182 25.8366 16.5114 25.9838 16.7231 25.9838C16.7507 25.9838 16.7783 25.9838 16.8151 25.9838C17.0636 25.9378 17.2292 25.6894 17.174 25.4409L16.7875 23.5083C17.0084 23.4531 17.22 23.3979 17.4409 23.3335L18.0115 25.2752C18.0667 25.4777 18.2507 25.6065 18.4532 25.6065C18.4992 25.6065 18.536 25.6065 18.582 25.5881C18.8305 25.5145 18.9685 25.266 18.8949 25.0176L18.3244 23.0574C18.6556 22.9378 18.9869 22.8182 19.309 22.6801L20.1833 24.5574C20.2569 24.7231 20.4317 24.8243 20.5974 24.8243C20.6618 24.8243 20.7262 24.8151 20.7907 24.7783C21.0207 24.6679 21.1219 24.401 21.0115 24.1709L20.1373 22.3028C20.4133 22.1648 20.671 22.0267 20.9379 21.8795L22.0974 23.5636C22.1894 23.6924 22.3275 23.766 22.4747 23.766C22.5668 23.766 22.6588 23.7384 22.7324 23.6832C22.9441 23.536 22.9901 23.2507 22.852 23.039L21.7293 21.401C21.941 21.2629 22.1526 21.1249 22.3643 20.9776L23.6711 22.4869C23.7631 22.5881 23.8919 22.6433 24.0208 22.6433C24.1312 22.6433 24.2324 22.6065 24.3244 22.5329C24.5177 22.3672 24.5361 22.0727 24.3705 21.8795L23.1097 20.4255C23.3122 20.269 23.4962 20.0942 23.6895 19.9285L24.849 21.2629C24.941 21.3641 25.0699 21.4194 25.1987 21.4194C25.3091 21.4194 25.4104 21.3825 25.5024 21.3089C25.6956 21.1433 25.714 20.8488 25.5484 20.6555L24.3705 19.2936C24.5637 19.1095 24.7478 18.9255 24.9226 18.723L26.3214 19.9561C26.4042 20.0298 26.5147 20.0666 26.6251 20.0666C26.7539 20.0666 26.8828 20.0114 26.9748 19.9101C27.1404 19.7169 27.122 19.4316 26.9288 19.2568L25.53 18.0236C25.7877 17.7107 26.0269 17.3978 26.2662 17.0665L27.6558 18.1248C27.7386 18.1892 27.8398 18.2169 27.9319 18.2169C28.0699 18.2169 28.2079 18.1524 28.3 18.0328C28.4564 17.8303 28.4104 17.5451 28.2079 17.3886L26.7723 16.3027C26.9564 16.0174 27.122 15.723 27.2877 15.4285L28.7417 16.3303C28.8153 16.3763 28.8981 16.4039 28.981 16.4039C29.1374 16.4039 29.2846 16.3303 29.3675 16.1831C29.5055 15.9714 29.4319 15.6861 29.2202 15.5481L27.7018 14.6002C27.8398 14.315 27.9687 14.0297 28.0883 13.7352L29.7264 14.2689C29.7724 14.2873 29.8184 14.2873 29.8736 14.2873C30.0669 14.2873 30.2509 14.1677 30.3153 13.9745C30.3982 13.7352 30.2601 13.4775 30.0209 13.3947L28.4196 12.8701C28.5024 12.6125 28.5668 12.3548 28.6036 12.0971L30.1497 12.2812C30.1497 12.2812 30.1865 12.2812 30.2049 12.2812C30.435 12.2812 30.6374 12.1063 30.665 11.8763C30.6926 11.6278 30.5178 11.3977 30.2601 11.3701L28.6865 11.1861C28.6865 10.9836 28.6865 10.7812 28.6589 10.5787L30.3245 10.4407C30.573 10.4223 30.7663 10.1922 30.7479 9.94372ZM11.6065 21.2077C10.7598 20.5451 10.2261 19.588 10.0972 18.5205C9.83036 16.3119 11.4132 14.3058 13.6126 14.0389C16.1065 13.7352 18.1863 12.0879 19.0514 9.74127C19.4195 8.72898 20.1649 7.92835 21.1403 7.47743C21.6741 7.22896 22.2539 7.10012 22.8336 7.10012C23.303 7.10012 23.7723 7.18294 24.2232 7.34859C24.9226 7.60626 25.53 8.04799 25.9901 8.62775C26.8644 9.74127 27.1036 11.1953 26.6159 12.5204C24.7018 17.7291 20.0913 21.3826 14.5789 22.0359C13.5114 22.1648 12.4531 21.8703 11.6157 21.2077H11.6065Z" stroke="#212428" stroke-width="0.63" stroke-linejoin="round"/>
</svg>
