<svg width="43" height="42" viewBox="0 0 43 42" fill="none" xmlns="http://www.w3.org/2000/svg">
<g clip-path="url(#clip0_313_1080)">
<path d="M16.0598 16.3379C15.5459 15.9898 14.9566 15.7691 14.3405 15.6938C13.7245 15.6186 13.0993 15.691 12.5168 15.9052C11.9343 16.1194 11.4111 16.4691 10.9904 16.9254C10.5698 17.3818 10.2638 17.9317 10.0978 18.5297C9.9748 18.9773 9.94223 19.4449 10.0019 19.9051C10.0617 20.3654 10.2125 20.8092 10.4456 21.2105C10.7205 21.6841 11.104 22.0856 11.5645 22.3819C11.7107 22.4743 11.8874 22.5053 12.0563 22.4681C12.2252 22.4309 12.3726 22.3286 12.4664 22.1833C12.5603 22.038 12.5929 21.8615 12.5574 21.6923C12.5218 21.523 12.4209 21.3747 12.2765 21.2794C11.989 21.0956 11.7494 20.8459 11.5776 20.551C11.4322 20.2992 11.3385 20.0209 11.3019 19.7325C11.2653 19.444 11.2865 19.1512 11.3643 18.871C11.4751 18.4767 11.6774 18.1143 11.9549 17.8131C12.2323 17.5119 12.577 17.2805 12.9609 17.1379C13.3447 16.9952 13.7569 16.9453 14.1637 16.9921C14.5705 17.039 14.9605 17.1813 15.3018 17.4076C15.4104 17.4855 15.5114 17.5734 15.6037 17.6701C15.6634 17.7323 15.7347 17.7822 15.8137 17.8169C15.8927 17.8516 15.9777 17.8704 16.0639 17.8722C16.1501 17.874 16.2359 17.8589 16.3162 17.8276C16.3966 17.7963 16.47 17.7494 16.5323 17.6897C16.5946 17.6301 16.6445 17.5587 16.6791 17.4797C16.7138 17.4008 16.7326 17.3158 16.7344 17.2295C16.7363 17.1433 16.7211 17.0576 16.6898 16.9772C16.6585 16.8968 16.6117 16.8234 16.552 16.7612C16.4013 16.6051 16.2366 16.4634 16.0598 16.3379Z" fill="#212428"/>
<path d="M42.3989 35.5087C41.4966 34.0945 33.5559 21.6553 32.4534 20.5757L32.2238 20.3493C31.1836 19.3256 30.0089 18.164 28.4175 18.164H28.3913C27.2658 18.164 24.9656 18.3314 23.9583 18.4068L17.1136 0.422305C17.0518 0.260349 16.9284 0.12942 16.7704 0.0581069C16.6124 -0.0132066 16.4327 -0.0191121 16.2703 0.04168L3.54891 4.8159C3.46803 4.84616 3.39392 4.89209 3.33083 4.95105C3.26774 5.01001 3.2169 5.08085 3.18124 5.15949C3.14557 5.23814 3.12578 5.32305 3.12299 5.40936C3.12021 5.49567 3.13448 5.58168 3.165 5.66246L4.62516 8.4375C4.68695 8.60023 5.06624 8.32759 5.225 8.39898C5.06227 8.46076 5.38376 8.47036 5.225 8.39898C5.15362 8.55774 5.38774 8.33719 5.225 8.39898C5.29638 8.24021 5.81179 7.95442 5.75 7.79169L4.62516 5.8134L16.1095 1.49856L23.9845 22.2098H23.9583C23.947 22.1218 23.918 22.0369 23.873 21.9604L13.4944 4.09731C13.4073 3.94776 13.2646 3.83868 13.0974 3.79382C12.9303 3.74896 12.7522 3.77194 12.6019 3.85777L0.828754 10.6171C0.75383 10.6603 0.688171 10.7178 0.635549 10.7864C0.582926 10.855 0.544378 10.9333 0.52212 11.0169C0.499862 11.1004 0.494331 11.1876 0.505847 11.2732C0.517363 11.3589 0.545698 11.4415 0.589223 11.5162L13.9931 34.5211C14.0126 34.5512 14.0346 34.5798 14.0588 34.6064C14.0721 34.6246 14.0863 34.6421 14.1014 34.6589C14.1251 34.6804 14.1503 34.7001 14.1769 34.7179C14.2185 34.7565 14.2693 34.7836 14.3245 34.7967C14.3978 34.833 14.4791 34.8499 14.5608 34.8459C14.6173 34.8455 14.6736 34.8378 14.7281 34.8229L14.7773 34.8032C14.8147 34.7912 14.851 34.7758 14.8856 34.7573L17.7141 33.1167C17.6178 33.5737 17.6644 34.0493 17.8475 34.4789C18.0307 34.9086 18.3415 35.2715 18.7378 35.5186C19.2234 35.8467 23.2134 37.9565 24.3586 37.9565C25.0706 37.9565 26.4684 37.3528 27.2822 36.9722C27.9764 38.2607 28.9472 39.3797 30.1249 40.2488C31.3026 41.1179 32.6581 41.7156 34.0941 41.999H34.1892C34.2754 42.0053 34.362 41.9945 34.444 41.9673C34.526 41.9401 34.6018 41.897 34.6672 41.8405C34.7326 41.7839 34.7861 41.7151 34.8249 41.6379C34.8636 41.5606 34.8868 41.4765 34.8931 41.3904C34.8993 41.3042 34.8885 41.2176 34.8613 41.1356C34.8341 41.0536 34.791 40.9777 34.7345 40.9124C34.678 40.847 34.6091 40.7934 34.5319 40.7547C34.4547 40.7159 34.3706 40.6928 34.2844 40.6865C33.0337 40.4351 31.8548 39.9083 30.8332 39.1443C29.8116 38.3804 28.9729 37.3985 28.3781 36.27C28.122 35.752 27.8963 35.2195 27.7022 34.6753C27.2363 33.4579 26.7572 32.2012 25.9303 31.4826C25.4939 31.102 23.8894 29.842 22.0355 28.372L19.3842 26.272C18.472 25.5501 15.6994 23.3484 15.1645 22.8234C14.973 22.6595 14.8163 22.459 14.7036 22.2336C14.5909 22.0081 14.5245 21.7624 14.5083 21.5109C14.5497 21.0052 14.7848 20.535 15.1645 20.1984C15.7191 19.6373 16.582 19.6701 17.7239 20.2903L28.7194 26.249C28.8142 26.3002 28.9201 26.3272 29.0278 26.3278C29.1753 26.3316 29.3198 26.2855 29.4379 26.1971C29.556 26.1087 29.6409 25.983 29.6788 25.8404C29.7168 25.6978 29.7055 25.5466 29.6469 25.4112C29.5884 25.2757 29.4858 25.164 29.3559 25.094L25.7663 23.1581C25.7593 23.1223 25.7495 23.0872 25.7367 23.0531L24.4538 19.6865C25.5661 19.6078 27.4594 19.4831 28.4077 19.4765C29.4577 19.4765 30.3502 20.3559 31.2919 21.2845L31.5248 21.5142C32.2795 22.2525 37.7592 30.7017 41.28 36.2142C41.3247 36.2902 41.3843 36.3563 41.4552 36.4088C41.526 36.4612 41.6067 36.4989 41.6925 36.5194C41.7782 36.54 41.8672 36.5431 41.9541 36.5285C42.0411 36.5139 42.1242 36.482 42.1985 36.4345C42.2729 36.3871 42.3369 36.3252 42.3867 36.2525C42.4366 36.1798 42.4713 36.0978 42.4888 36.0114C42.5063 35.925 42.5062 35.8359 42.4885 35.7496C42.4708 35.6632 42.4358 35.5813 42.3858 35.5087H42.3989ZM26.1108 34.1962C26.242 34.5243 26.37 34.8525 26.4914 35.1543C26.5767 35.3775 26.6588 35.5907 26.7441 35.8106C25.7761 36.2601 24.713 36.6736 24.3586 36.6768C23.7286 36.6604 20.257 34.9739 19.4564 34.4522C19.2376 34.3231 19.0773 34.1144 19.0088 33.8698C18.9403 33.6252 18.969 33.3636 19.0889 33.1396C19.1474 32.9868 19.2389 32.8487 19.3569 32.7353C19.4748 32.6218 19.6164 32.5358 19.7714 32.4834C20.2111 32.8115 20.723 33.1396 21.1955 33.4284C21.5794 33.6679 21.9403 33.8943 22.1405 34.0486C22.4948 34.3275 23.1478 34.4161 23.8336 34.4161C24.5979 34.4086 25.36 34.3328 26.1108 34.1897V34.1962ZM25.5005 32.9854C24.7163 33.1101 23.2659 33.2118 22.9477 33.0314C22.6917 32.8312 22.3209 32.6015 21.8911 32.3292C21.4613 32.0568 20.9953 31.7681 20.6048 31.4793L22.485 30.3965C23.7647 31.4072 24.7819 32.2045 25.0838 32.4834C25.2456 32.63 25.3868 32.7977 25.5038 32.9822L25.5005 32.9854ZM14.2294 19.2862C13.9149 19.5743 13.6614 19.9225 13.4839 20.3103C13.3064 20.698 13.2084 21.1174 13.1958 21.5437C13.2138 21.9674 13.3175 22.383 13.5008 22.7654C13.6841 23.1478 13.9432 23.489 14.2622 23.7684C14.6658 24.1622 15.998 25.2548 18.5836 27.3056L21.2381 29.4056L21.3825 29.5172L14.797 33.3004L2.05594 11.4276L12.6905 5.32121L21.8484 21.0417L18.3473 19.1451C16.208 17.9868 14.9381 18.5807 14.2294 19.2862Z" fill="#212428"/>
</g>
<defs>
<clipPath id="clip0_313_1080">
<rect width="42" height="42" fill="white" transform="translate(0.5)"/>
</clipPath>
</defs>
</svg>
