<svg width="50" height="50" viewBox="0 0 50 50" fill="none" xmlns="http://www.w3.org/2000/svg">
<path d="M34.8804 26.8695C34.8804 32.8759 30.0264 37.5901 24.0375 37.5901C18.0312 37.5901 13.1772 32.7362 13.1772 26.7473C13.1772 21.5616 21.0344 11.3473 24.0375 6.66797L31.8248 18.9251" stroke="#212428" stroke-width="1.25" stroke-miterlimit="2.61313" stroke-linecap="round" stroke-linejoin="round"/>
<path d="M34.8822 26.7984H30.2513L37.1655 16.6016L44.0973 26.7984H40.675M40.617 26.7984C40.617 35.9476 33.202 43.3333 24.0354 43.3333C14.8687 43.3333 7.43066 35.8952 7.43066 26.746" stroke="#212428" stroke-width="1.25" stroke-miterlimit="2.61313" stroke-linecap="round" stroke-linejoin="round"/>
<path d="M7.95605 23.7602L8.27034 22.957" stroke="#212428" stroke-width="1.25" stroke-miterlimit="2.61313" stroke-linecap="round" stroke-linejoin="round"/>
<path d="M9.19385 20.6508L9.50813 19.8477" stroke="#212428" stroke-width="1.25" stroke-miterlimit="2.61313" stroke-linecap="round" stroke-linejoin="round"/>
<path d="M23.1562 28.1708V27.25C22.0729 27.0767 21.2604 26.275 21.2604 25.0833H22.5604C22.5604 25.69 22.9937 26.1125 23.6979 26.1125C24.467 26.1125 24.8354 25.7333 24.8354 25.3C24.8354 24.0542 21.3145 24.7042 21.3145 22.3317C21.3145 21.3458 22.0729 20.5983 23.1562 20.425V19.5042H24.3479V20.425C25.2687 20.685 25.9729 21.4108 25.9729 22.5375H24.727C24.727 21.9308 24.3479 21.5625 23.6979 21.5625C23.0479 21.5625 22.6687 21.9417 22.6687 22.3208C22.6687 23.5017 26.1895 22.8733 26.1895 25.3542C26.1895 26.2208 25.3879 27.0442 24.3479 27.25V28.1708H23.1562Z" fill="#212428"/>
</svg>
