<svg width="233" height="20" viewBox="0 0 233 20" fill="none" xmlns="http://www.w3.org/2000/svg">
<rect x="0.172414" y="0.172414" width="28.6207" height="19.6552" rx="1.2069" fill="#F4B6C7" stroke="#8B8C8E" stroke-width="0.344828"/>
<path d="M10.9941 9.05859C11.3938 9.05869 11.7642 9.18512 12.0713 9.40039V9.16113H13.1592V12.8936H12.0713V12.6553C11.7643 12.8704 11.3938 12.997 10.9941 12.9971C9.93583 12.9971 9.07715 12.115 9.07715 11.0273C9.07734 9.93982 9.93595 9.05859 10.9941 9.05859ZM22.4639 9.05859C22.8638 9.05859 23.2348 9.18504 23.542 9.40039V9.16113H24.6289V12.8936H23.542V12.6553C23.2348 12.8706 22.8638 12.9971 22.4639 12.9971C21.4059 12.9969 20.5481 12.1157 20.5479 11.0283C20.5479 9.94075 21.4057 9.05879 22.4639 9.05859ZM25.7822 11.5732C26.159 11.5732 26.4648 11.8871 26.4648 12.2744C26.4648 12.6616 26.159 12.9756 25.7822 12.9756C25.4056 12.9753 25.1006 12.6615 25.1006 12.2744C25.1006 11.8872 25.4056 11.5735 25.7822 11.5732ZM3.69922 7.5V12.8984H2.49414V7.5H3.69922ZM6.70996 7.5C6.70996 8.66864 6.26611 9.75541 5.47656 10.5635L7.14258 12.8984H5.6543L3.84375 10.3613L4.31152 10.002C5.08624 9.40543 5.53027 8.49334 5.53027 7.5H6.70996ZM14.8398 9.65234C15.0578 9.36081 15.4638 9.16609 15.9053 9.16602V10.252C15.901 10.2519 15.8969 10.252 15.8926 10.252C15.4625 10.252 14.843 10.5676 14.8428 11.1553V12.8984H13.7266V9.16602H14.8398V9.65234ZM8.63281 12.8955H7.49414V7.5H8.63281V12.8955ZM18.6133 9.0625C19.4891 9.0625 20.161 9.65306 20.1611 10.5215V12.8955H19.0752V10.9258C19.0751 10.3816 18.8 10.0889 18.3223 10.0889C17.8767 10.0891 17.507 10.3664 17.5068 10.9336V12.8955H16.4102V9.16309H17.4932V9.58301C17.768 9.20089 18.1791 9.06253 18.6133 9.0625ZM11.0811 10.0664C10.5373 10.0667 10.0969 10.4964 10.0967 11.0264C10.0967 11.5566 10.5372 11.9871 11.0811 11.9873C11.6252 11.9873 12.0664 11.5567 12.0664 11.0264C12.0662 10.4962 11.6251 10.0664 11.0811 10.0664ZM22.5518 10.0664C22.008 10.0666 21.5676 10.4964 21.5674 11.0264C21.5674 11.5566 22.0078 11.9871 22.5518 11.9873C23.0959 11.9873 23.5371 11.5567 23.5371 11.0264C23.5369 10.4962 23.0958 10.0664 22.5518 10.0664Z" fill="#17120F"/>
<rect x="34.1373" y="0.172414" width="28.6207" height="19.6552" rx="1.2069" fill="white" stroke="#8B8C8E" stroke-width="0.344828"/>
<path d="M46.8279 13.7157H44.8994L46.1056 6.71533H48.0339L46.8279 13.7157Z" fill="#15195A"/>
<path d="M53.8161 6.88885C53.4357 6.74721 52.8324 6.59082 52.0864 6.59082C50.182 6.59082 48.8409 7.54401 48.8327 8.90679C48.8169 9.91224 49.7929 10.4707 50.5228 10.8059C51.2689 11.1485 51.5225 11.3721 51.5225 11.6775C51.5149 12.1464 50.9196 12.3626 50.3644 12.3626C49.5945 12.3626 49.182 12.2512 48.555 11.9903L48.3011 11.8784L48.0312 13.4498C48.4835 13.6432 49.3168 13.8149 50.182 13.8224C52.2055 13.8224 53.5228 12.884 53.5384 11.4317C53.5461 10.6348 53.0307 10.0242 51.9197 9.52522C51.2452 9.20492 50.8321 8.98894 50.8321 8.66121C50.84 8.36328 51.1815 8.05812 51.9429 8.05812C52.5698 8.04317 53.0304 8.18462 53.3794 8.32616L53.5538 8.4005L53.8161 6.88885Z" fill="#15195A"/>
<path fill-rule="evenodd" clip-rule="evenodd" d="M57.2659 6.71436H58.7576L60.3134 13.7146H58.5278C58.5278 13.7146 58.3531 12.9103 58.2977 12.6645H55.8218C55.7501 12.8506 55.417 13.7146 55.417 13.7146H53.3936L56.258 7.29518C56.4565 6.84085 56.806 6.71436 57.2659 6.71436ZM57.1469 9.27746C57.1469 9.27746 56.5358 10.8339 56.377 11.2361H57.9799C57.9006 10.8861 57.5354 9.21045 57.5354 9.21045L57.4006 8.60726C57.3438 8.76259 57.2618 8.97614 57.2064 9.12017C57.1689 9.21781 57.1436 9.2835 57.1469 9.27746Z" fill="#15195A"/>
<path d="M39.6416 6.71533C40.0621 6.73008 40.4035 6.85635 40.5146 7.30322L41.1875 10.5112C41.1884 10.5142 41.1895 10.5171 41.1904 10.52L41.3965 11.4888L43.2852 6.71533H45.3242L42.293 13.7075H40.2539L38.5352 7.62549C37.942 7.29989 37.2648 7.03865 36.5078 6.85693L36.5391 6.71533H39.6416Z" fill="#15195A"/>
<rect x="68.1031" y="0.172414" width="28.6207" height="19.6552" rx="1.2069" fill="white" stroke="#8B8C8E" stroke-width="0.344828"/>
<path d="M85.0649 14.4875H79.8955V5.25537H85.0649V14.4875Z" fill="#FF5F00"/>
<path d="M80.2263 9.87075C80.2263 7.99797 81.1086 6.32975 82.4827 5.25468C81.4779 4.46854 80.2097 3.99932 78.8315 3.99932C75.5687 3.99932 72.9238 6.62801 72.9238 9.87075C72.9238 13.1135 75.5687 15.7422 78.8315 15.7422C80.2097 15.7422 81.4779 15.273 82.4827 14.4868C81.1086 13.4118 80.2263 11.7435 80.2263 9.87075Z" fill="#EB001B"/>
<path d="M92.0358 9.87075C92.0358 13.1135 89.391 15.7422 86.1282 15.7422C84.7499 15.7422 83.4818 15.273 82.4766 14.4868C83.851 13.4118 84.7334 11.7435 84.7334 9.87075C84.7334 7.99797 83.851 6.32975 82.4766 5.25468C83.4818 4.46854 84.7499 3.99932 86.1282 3.99932C89.391 3.99932 92.0358 6.62801 92.0358 9.87075Z" fill="#F79E1B"/>
<rect x="102.066" y="0.172414" width="28.6207" height="19.6552" rx="1.2069" fill="white" stroke="#8B8C8E" stroke-width="0.344828"/>
<path d="M121.038 10.875L122.159 8.08398H123.036L121.244 12.3447H120.809L119.047 8.08398H119.932L121.038 10.875ZM109.801 8.01367C110.256 8.01367 110.673 8.16891 111.021 8.47363L110.597 9.0293C110.386 8.79275 110.187 8.6924 109.944 8.69238C109.596 8.69238 109.342 8.89172 109.342 9.15332C109.342 9.37775 109.484 9.49591 109.97 9.67578C110.89 10.013 111.163 10.3125 111.163 10.9727C111.163 11.7764 110.573 12.3358 109.732 12.3359C109.117 12.3359 108.668 12.093 108.295 11.5449L108.818 11.041C109.005 11.4017 109.315 11.5956 109.701 11.5957C110.062 11.5957 110.33 11.3462 110.33 11.0098C110.33 10.8353 110.249 10.6849 110.087 10.5791C110.006 10.529 109.844 10.4546 109.527 10.3428C108.768 10.0691 108.507 9.77606 108.507 9.2041C108.507 8.52435 109.067 8.01383 109.801 8.01367ZM113.63 7.98828C113.978 7.98833 114.27 8.06292 114.625 8.24316V9.19727C114.289 8.86777 113.996 8.72949 113.61 8.72949C112.851 8.72955 112.255 9.35879 112.255 10.1562C112.255 10.9975 112.833 11.5889 113.648 11.5889C114.015 11.5888 114.302 11.4579 114.625 11.1338V12.0879C114.257 12.2613 113.959 12.3301 113.61 12.3301C112.378 12.33 111.42 11.3831 111.42 10.1621C111.42 8.95426 112.404 7.98828 113.63 7.98828ZM107.99 12.2383H107.181V8.08398H107.99V12.2383ZM125.699 8.78809H124.213V9.70996H125.645V10.4141H124.213V11.5352H125.699V12.2383H123.404V8.08398H125.699V8.78809ZM104.58 8.08008C105.893 8.08008 106.807 8.93428 106.808 10.1602C106.808 10.7715 106.528 11.3628 106.055 11.7549C105.656 12.0861 105.203 12.2344 104.574 12.2344H103.393V8.08008H104.58ZM127.436 8.08008C128.369 8.08008 128.904 8.52905 128.904 9.30664C128.904 9.94263 128.569 10.3603 127.959 10.4844L129.266 12.2344H128.27L127.149 10.5654H127.044V12.2344H126.235V8.08008H127.436ZM104.201 11.5303H104.419C104.942 11.5302 105.272 11.4301 105.526 11.2002C105.806 10.9508 105.975 10.5521 105.975 10.1533C105.975 9.75558 105.806 9.36848 105.526 9.11914C105.259 8.87693 104.942 8.78324 104.419 8.7832H104.201V11.5303ZM127.045 8.7334V9.99219H127.281C127.798 9.99212 128.072 9.76711 128.072 9.34961C128.072 8.94535 127.798 8.73343 127.294 8.7334H127.045Z" fill="#1D1D1B"/>
<path fill-rule="evenodd" clip-rule="evenodd" d="M118.954 11.3646C119.611 10.3362 119.311 8.97002 118.284 8.31242C117.257 7.65482 115.892 7.95503 115.235 8.98342C114.579 10.0115 114.879 11.3782 115.906 12.0358C116.933 12.6934 118.298 12.3927 118.954 11.3646Z" fill="url(#paint0_linear_4230_11676)"/>
<rect x="136.037" y="0.172414" width="28.6207" height="19.6552" rx="1.2069" fill="#C2FAE5" stroke="#8B8C8E" stroke-width="0.344828"/>
<path d="M139.397 10.0891C139.397 9.64738 139.066 9.33707 138.66 9.33707C138.253 9.33707 137.923 9.65279 137.923 10.0891C137.923 10.5203 138.253 10.841 138.66 10.841C139.067 10.841 139.397 10.5309 139.397 10.0891ZM139.403 11.4036V11.0618C139.203 11.2984 138.904 11.4454 138.547 11.4454C137.804 11.4454 137.24 10.867 137.24 10.0891C137.24 9.31619 137.825 8.72751 138.563 8.72751C138.91 8.72751 139.203 8.87492 139.403 9.10587V8.77468H140.07V11.4036H139.403ZM143.308 10.8198C143.075 10.8198 143.01 10.7358 143.01 10.5152V9.34788H143.439V8.77444H143.01V8.13318H142.327V8.77444H141.447V8.61474C141.447 8.39361 141.534 8.30934 141.772 8.30934H141.922V7.79953H141.593C141.03 7.79953 140.764 7.97839 140.764 8.52506V8.77419H140.385V9.34788H140.764V11.4033H141.447V9.34788H142.328V10.636C142.328 11.1724 142.539 11.4038 143.092 11.4038H143.444V10.8201H143.308L143.308 10.8198ZM145.759 9.85229C145.71 9.51078 145.423 9.30562 145.087 9.30562C144.75 9.30562 144.474 9.50537 144.404 9.85229H145.759H145.759ZM144.398 10.2626C144.447 10.6515 144.734 10.8726 145.097 10.8726C145.385 10.8726 145.607 10.741 145.737 10.5306H146.437C146.274 11.0879 145.759 11.4454 145.081 11.4454C144.263 11.4454 143.688 10.8884 143.688 10.0943C143.688 9.30046 144.295 8.72726 145.098 8.72726C145.906 8.72726 146.491 9.30562 146.491 10.0943C146.491 10.1523 146.486 10.2098 146.475 10.2626H144.398ZM150.835 10.0891C150.835 9.6631 150.504 9.33707 150.098 9.33707C149.691 9.33707 149.361 9.65279 149.361 10.0891C149.361 10.5203 149.691 10.841 150.098 10.841C150.504 10.841 150.835 10.5152 150.835 10.0891ZM148.688 8.77468H149.355V9.11644C149.555 8.87443 149.853 8.72751 150.211 8.72751C150.943 8.72751 151.517 9.31127 151.517 10.0837C151.517 10.8569 150.932 11.4458 150.195 11.4458C149.853 11.4458 149.571 11.3142 149.377 11.0935V12.4854H148.688V8.77468ZM153.921 10.0891C153.921 9.64738 153.59 9.33707 153.183 9.33707C152.777 9.33707 152.446 9.65279 152.446 10.0891C152.446 10.5203 152.777 10.841 153.183 10.841C153.59 10.841 153.921 10.5309 153.921 10.0891ZM153.927 11.4036V11.0618C153.726 11.2984 153.427 11.4454 153.07 11.4454C152.327 11.4454 151.764 10.867 151.764 10.0891C151.764 9.31619 152.349 8.72751 153.086 8.72751C153.433 8.72751 153.726 8.87492 153.927 9.10587V8.77468H154.593V11.4036H153.927ZM147.487 9.03241C147.487 9.03241 147.656 8.72775 148.072 8.72775C148.249 8.72775 148.364 8.78672 148.364 8.78672V9.45746C148.364 9.45746 148.114 9.30734 147.883 9.33756C147.653 9.36778 147.507 9.57294 147.508 9.84762V11.4041H146.82V8.77517H147.487V9.03241ZM157.707 8.77468L156.024 12.477H155.314L155.975 11.0456L154.857 8.77468H155.662L156.315 10.2921L156.986 8.77468H157.707ZM163.08 8.71498L161.411 7.7811C160.922 7.50691 160.309 7.8494 160.309 8.39828V8.4941C160.309 8.58058 160.357 8.66068 160.434 8.70368L160.749 8.88008C160.842 8.93217 160.957 8.86731 160.957 8.76387V8.52555C160.957 8.40639 161.09 8.3317 161.196 8.3914L162.642 9.20071C162.748 9.26017 162.748 9.40906 162.642 9.46852L161.196 10.2776C161.09 10.337 160.957 10.2628 160.957 10.1434V10.0167C160.957 9.46802 160.345 9.12479 159.855 9.39948L158.186 10.3336C158.074 10.3943 157.982 10.4837 157.917 10.5922C157.852 10.7008 157.818 10.8246 157.818 10.9508C157.818 11.0769 157.852 11.2008 157.917 11.3093C157.982 11.4179 158.074 11.5072 158.186 11.568L159.855 12.5018C160.344 12.776 160.957 12.4335 160.957 11.8847V11.7888C160.957 11.746 160.945 11.704 160.923 11.6672C160.901 11.6304 160.87 11.6 160.832 11.5793L160.517 11.4024C160.425 11.3505 160.309 11.4154 160.309 11.5188V11.7571C160.309 11.8763 160.176 11.9507 160.07 11.891L158.625 11.082C158.6 11.0688 158.58 11.0493 158.566 11.0258C158.552 11.0022 158.545 10.9753 158.545 10.948C158.545 10.9206 158.552 10.8937 158.566 10.8701C158.58 10.8466 158.6 10.8271 158.625 10.8139L160.07 10.0046C160.176 9.94491 160.309 10.0194 160.309 10.1388V10.2655C160.309 10.8142 160.921 11.1574 161.411 10.8827L163.08 9.9486C163.191 9.8879 163.284 9.79864 163.348 9.69016C163.413 9.58168 163.447 9.45795 163.447 9.33191C163.447 9.20587 163.413 9.08214 163.348 8.97366C163.284 8.86518 163.191 8.77592 163.08 8.71522V8.71498Z" fill="#212428"/>
<rect x="169.998" y="0.172414" width="28.6207" height="19.6552" rx="1.2069" fill="#006FCF" stroke="#8B8C8E" stroke-width="0.344828"/>
<path fill-rule="evenodd" clip-rule="evenodd" d="M175.75 14.4485V10.3312H180.406L180.906 10.9409L181.422 10.3312H198.323V14.1645C198.323 14.1645 197.881 14.4444 197.37 14.4485H188.011L187.448 13.7995V14.4485H185.602V13.3406C185.602 13.3406 185.35 13.4952 184.805 13.4952H184.177V14.4485H181.382L180.883 13.8257L180.377 14.4485H175.75ZM170.323 7.22937L171.371 4.9375H173.183L173.777 6.22132V4.9375H176.029L176.383 5.8654L176.726 4.9375H186.836V5.40399C186.836 5.40399 187.368 4.9375 188.241 4.9375L191.522 4.94826L192.106 6.21527V4.9375H193.991L194.509 5.6653V4.9375H196.412V9.05476H194.509L194.012 8.32461V9.05476H191.243L190.965 8.40573H190.22L189.946 9.05476H188.068C187.317 9.05476 186.836 8.5978 186.836 8.5978V9.05476H184.005L183.443 8.40573V9.05476H172.914L172.636 8.40573H171.894L171.618 9.05476H170.323V7.22937ZM170.332 8.52851L171.745 5.44564H172.816L174.228 8.52851H173.288L173.028 7.91118H171.513L171.252 8.52851H170.332ZM172.73 7.24135L172.268 6.1626L171.805 7.24135H172.73ZM174.322 8.52803V5.44515L175.63 5.44971L176.39 7.43735L177.132 5.44515H178.429V8.52803H177.608V6.25643L176.737 8.52803H176.017L175.144 6.25643V8.52803H174.322ZM178.992 8.52803V5.44515H181.672V6.13474H179.822V6.66208H181.629V7.3111H179.822V7.85872H181.672V8.52803H178.992ZM182.144 8.52851V5.44564H183.972C184.577 5.44564 185.12 5.79705 185.12 6.4458C185.12 7.00039 184.662 7.3576 184.219 7.39272L185.3 8.52851H184.296L183.311 7.43328H182.965V8.52851H182.144ZM183.903 6.13493H182.964V6.78396H183.915C184.08 6.78396 184.292 6.66426 184.292 6.45944C184.292 6.30025 184.128 6.13493 183.903 6.13493ZM186.297 8.52803H185.458V5.44515H186.297V8.52803ZM188.286 8.52803H188.105C187.229 8.52803 186.697 7.88053 186.697 6.99927C186.697 6.09624 187.223 5.44515 188.329 5.44515H189.237V6.17531H188.296C187.847 6.17531 187.529 6.50411 187.529 7.00687C187.529 7.60391 187.892 7.85466 188.415 7.85466H188.632L188.286 8.52803ZM188.656 8.52851L190.069 5.44564H191.14L192.552 8.52851H191.612L191.353 7.91118H189.837L189.576 8.52851H188.656ZM191.055 7.24135L190.593 6.1626L190.129 7.24135H191.055ZM192.649 8.52803V5.44515H193.693L195.027 7.38209V5.44515H195.848V8.52803H194.838L193.471 6.54038V8.52803H192.649ZM176.311 13.9219V10.839H178.991V11.5286H177.141V12.056H178.948V12.705H177.141V13.2526H178.991V13.9219H176.311ZM189.443 13.9219V10.839H192.123V11.5286H190.273V12.056H192.071V12.705H190.273V13.2526H192.123V13.9219H189.443ZM179.093 13.9219L180.398 12.3995L179.062 10.839H180.097L180.892 11.8037L181.691 10.839H182.685L181.367 12.3805L182.674 13.9219H181.639L180.867 12.9724L180.113 13.9219H179.093ZM182.769 13.9234V10.8405H184.583C185.328 10.8405 185.762 11.2907 185.762 11.8774C185.762 12.5857 185.208 12.9498 184.476 12.9498H183.612V13.9234H182.769ZM184.521 11.5363H183.61V12.2462H184.518C184.758 12.2462 184.926 12.097 184.926 11.8912C184.926 11.6722 184.757 11.5363 184.521 11.5363ZM186.122 13.9234V10.8405H187.949C188.555 10.8405 189.098 11.1919 189.098 11.8407C189.098 12.3952 188.64 12.7525 188.197 12.7876L189.277 13.9234H188.274L187.289 12.8281H186.943V13.9234H186.122ZM187.881 11.5298H186.942V12.1788H187.893C188.058 12.1788 188.27 12.0591 188.27 11.8543C188.27 11.6951 188.106 11.5298 187.881 11.5298ZM192.505 13.9219V13.2526H194.148C194.391 13.2526 194.497 13.1293 194.497 12.994C194.497 12.8644 194.392 12.7334 194.148 12.7334H193.405C192.76 12.7334 192.4 12.3642 192.4 11.81C192.4 11.3157 192.73 10.839 193.689 10.839H195.288L194.943 11.5327H193.559C193.295 11.5327 193.213 11.6629 193.213 11.7872C193.213 11.915 193.314 12.056 193.516 12.056H194.294C195.014 12.056 195.326 12.4391 195.326 12.9408C195.326 13.4801 194.978 13.9219 194.255 13.9219H192.505ZM195.4 13.9219V13.2526H197.044C197.287 13.2526 197.392 13.1293 197.392 12.994C197.392 12.8644 197.287 12.7334 197.044 12.7334H196.301C195.655 12.7334 195.296 12.3642 195.296 11.81C195.296 11.3157 195.625 10.839 196.584 10.839H198.184L197.838 11.5327H196.455C196.19 11.5327 196.109 11.6629 196.109 11.7872C196.109 11.915 196.21 12.056 196.412 12.056H197.19C197.909 12.056 198.222 12.4391 198.222 12.9408C198.222 13.4801 197.874 13.9219 197.15 13.9219H195.4Z" fill="white"/>
<rect x="203.963" y="0.172414" width="28.6207" height="19.6552" rx="1.2069" fill="white" stroke="#8B8C8E" stroke-width="0.344828"/>
<path d="M206.278 10.7257C206.834 11.2884 207.732 11.2884 208.283 10.7257L208.337 10.6719C208.614 10.3905 208.059 8.91738 208.337 8.64014L206.278 10.7257Z" fill="url(#paint1_linear_4230_11676)"/>
<path d="M208.392 8.58271L208.339 8.63651C208.061 8.91789 208.617 10.391 208.339 10.6682L210.397 8.58271C210.119 8.30133 209.756 8.16064 209.393 8.16064C209.033 8.16064 208.67 8.30133 208.392 8.58271Z" fill="url(#paint2_linear_4230_11676)"/>
<path d="M206.278 8.69107C205.722 9.25383 205.722 10.1642 206.278 10.7228L208.389 8.58348C208.945 8.02072 208.945 7.11038 208.389 6.55176L206.278 8.69107Z" fill="url(#paint3_linear_4230_11676)"/>
<path d="M208.285 10.7257C207.729 11.2885 207.729 12.1988 208.285 12.7575L210.396 10.6182C210.951 10.0554 210.951 9.14505 210.396 8.58643L208.285 10.7257Z" fill="url(#paint4_linear_4230_11676)"/>
<path d="M218.622 9.66813C218.581 9.51917 218.516 9.37848 218.434 9.2502C218.291 9.02675 218.095 8.84055 217.863 8.71227C217.495 8.50951 217.058 8.46399 216.658 8.57986C216.249 8.69986 215.915 8.97296 215.714 9.34951C215.514 9.72606 215.465 10.1564 215.584 10.5661V10.5702C215.612 10.6612 215.653 10.7771 215.653 10.7812C215.788 11.0999 216.013 11.344 216.343 11.5261C216.576 11.6543 216.838 11.7247 217.099 11.7247C217.25 11.7247 217.401 11.704 217.548 11.6585C217.858 11.5674 218.128 11.3854 218.332 11.133L218.344 11.1164C218.398 11.0502 218.442 10.9799 218.483 10.9054C218.557 10.773 218.508 10.6074 218.381 10.533C218.34 10.5123 218.295 10.4999 218.25 10.4999C218.152 10.4999 218.063 10.5537 218.014 10.6405C217.948 10.7605 217.858 10.8681 217.752 10.9509C217.744 10.9592 217.736 10.9674 217.728 10.9716C217.63 11.0461 217.515 11.104 217.397 11.1371C217.132 11.2157 216.846 11.1826 216.601 11.0502C216.441 10.9633 216.307 10.8309 216.209 10.6695L218.438 10.0074C218.581 9.96193 218.663 9.80882 218.622 9.66813ZM217.103 9.05572C217.274 9.05572 217.45 9.10124 217.601 9.18399C217.752 9.26675 217.883 9.39089 217.981 9.53986C217.985 9.54813 217.993 9.55641 217.997 9.56468L216.053 10.144C216.049 9.95779 216.094 9.77158 216.18 9.6102C216.315 9.36193 216.535 9.17986 216.805 9.10124C216.903 9.07227 217.001 9.05572 217.103 9.05572ZM221.485 11.2033H220.011L221.66 8.74537C221.693 8.69986 221.693 8.63779 221.669 8.58813C221.644 8.53848 221.591 8.50951 221.538 8.50951H219.439C219.3 8.50951 219.186 8.62537 219.186 8.76606C219.186 8.90675 219.3 9.02261 219.439 9.02261H220.844L219.194 11.4805C219.161 11.5261 219.161 11.5881 219.186 11.6378C219.21 11.6874 219.263 11.7164 219.316 11.7164H221.485C221.624 11.7164 221.738 11.6005 221.738 11.4599C221.738 11.3192 221.624 11.2033 221.485 11.2033ZM224.752 11.2033H223.278L224.927 8.74537C224.96 8.69986 224.96 8.63779 224.936 8.58813C224.911 8.53848 224.858 8.50951 224.805 8.50951H222.706C222.567 8.50951 222.453 8.62537 222.453 8.76606C222.453 8.90675 222.567 9.02261 222.706 9.02261H224.115L222.465 11.4805C222.432 11.5261 222.432 11.5881 222.457 11.6378C222.481 11.6874 222.534 11.7164 222.587 11.7164H224.756C224.895 11.7164 225.009 11.6005 225.009 11.4599C225.005 11.3192 224.895 11.2033 224.752 11.2033ZM226.21 7.12744C226.071 7.12744 225.957 7.2433 225.957 7.38399V11.4723C225.957 11.613 226.071 11.7288 226.21 11.7288C226.349 11.7288 226.463 11.613 226.463 11.4723V7.38399C226.463 7.23917 226.349 7.12744 226.21 7.12744ZM230.355 9.66813C230.314 9.51917 230.249 9.37848 230.167 9.2502C230.024 9.02675 229.828 8.84055 229.595 8.71227C229.228 8.50951 228.791 8.46399 228.391 8.57986C227.982 8.69986 227.647 8.97296 227.447 9.34951C227.243 9.72606 227.198 10.1564 227.316 10.5661V10.5702C227.345 10.6612 227.386 10.7771 227.386 10.7812C227.521 11.0999 227.745 11.344 228.076 11.5261C228.309 11.6543 228.57 11.7247 228.832 11.7247C228.983 11.7247 229.134 11.704 229.281 11.6585C229.591 11.5674 229.861 11.3854 230.065 11.133L230.077 11.1164C230.13 11.0502 230.175 10.9799 230.216 10.9054C230.289 10.773 230.24 10.6074 230.114 10.533C230.073 10.5123 230.028 10.4999 229.983 10.4999C229.885 10.4999 229.795 10.5537 229.746 10.6405C229.681 10.7605 229.591 10.8681 229.485 10.9509C229.477 10.9592 229.469 10.9674 229.46 10.9716C229.362 11.0461 229.248 11.104 229.13 11.1371C228.864 11.2157 228.578 11.1826 228.333 11.0502C228.174 10.9633 228.039 10.8309 227.941 10.6695L230.171 10.0074C230.314 9.96193 230.396 9.80882 230.355 9.66813ZM228.836 9.05572C229.007 9.05572 229.183 9.10124 229.334 9.18399C229.485 9.26675 229.616 9.39089 229.714 9.53986C229.718 9.54813 229.726 9.55641 229.73 9.56468L227.786 10.144C227.782 9.95779 227.827 9.77158 227.913 9.6102C228.047 9.36193 228.268 9.17986 228.538 9.10124C228.636 9.07227 228.738 9.05572 228.836 9.05572ZM214.73 10.293C214.657 10.1812 214.547 10.0902 214.408 10.0157C214.183 9.89986 213.889 9.84606 213.607 9.80055L213.562 9.79227C213.366 9.75917 213.162 9.7302 213.031 9.65986C212.933 9.6102 212.897 9.55227 212.897 9.44055C212.897 9.22537 213.129 9.05986 213.436 9.05986C213.803 9.05986 214.007 9.16744 214.24 9.31227C214.281 9.3371 214.33 9.35365 214.383 9.35365C214.477 9.35365 214.567 9.30399 214.616 9.22124C214.653 9.15917 214.665 9.08468 214.649 9.01434C214.632 8.94399 214.587 8.88192 214.526 8.84468C214.399 8.76606 214.261 8.6833 214.085 8.62124C213.889 8.55089 213.677 8.51365 213.44 8.51365C213.158 8.51365 212.893 8.60055 212.692 8.75779C212.476 8.93158 212.354 9.17572 212.354 9.44468C212.354 9.76331 212.505 10.0116 212.786 10.1564C212.995 10.264 213.244 10.3012 213.481 10.3385L213.526 10.3468C214.138 10.4461 214.318 10.533 214.318 10.7357C214.318 10.9923 214.065 11.1578 213.677 11.1619H213.66C213.244 11.1619 213.007 11.0005 212.88 10.9137C212.86 10.9012 212.844 10.8847 212.823 10.8764C212.778 10.8474 212.729 10.835 212.68 10.835C212.586 10.835 212.501 10.8847 212.447 10.9633C212.37 11.0916 212.407 11.2612 212.533 11.344C212.541 11.3481 212.55 11.3564 212.562 11.3647L212.57 11.3688C212.721 11.4723 213.068 11.7164 213.656 11.7164H213.677C214.016 11.7123 214.306 11.6212 214.518 11.4516C214.738 11.2737 214.857 11.0212 214.857 10.744C214.861 10.5702 214.816 10.4212 214.73 10.293Z" fill="#382757"/>
<defs>
<linearGradient id="paint0_linear_4230_11676" x1="120.144" y1="9.50293" x2="116.422" y2="7.12575" gradientUnits="userSpaceOnUse">
<stop stop-color="#F6A000"/>
<stop offset="0.623918" stop-color="#E47E02"/>
<stop offset="1" stop-color="#D36002"/>
</linearGradient>
<linearGradient id="paint1_linear_4230_11676" x1="208.221" y1="10.7842" x2="207.209" y2="9.59492" gradientUnits="userSpaceOnUse">
<stop stop-color="#CE5DCB"/>
<stop offset="0.2095" stop-color="#C558CC"/>
<stop offset="0.5525" stop-color="#AC4ACF"/>
<stop offset="0.9845" stop-color="#8534D4"/>
<stop offset="1" stop-color="#8333D4"/>
</linearGradient>
<linearGradient id="paint2_linear_4230_11676" x1="208.259" y1="9.41627" x2="210.399" y2="9.41627" gradientUnits="userSpaceOnUse">
<stop offset="0.0237" stop-color="#FF5667"/>
<stop offset="0.6592" stop-color="#FC8B82"/>
<stop offset="1" stop-color="#FBA28E"/>
</linearGradient>
<linearGradient id="paint3_linear_4230_11676" x1="205.861" y1="8.63783" x2="208.805" y2="8.63783" gradientUnits="userSpaceOnUse">
<stop stop-color="#00B874"/>
<stop offset="0.5126" stop-color="#29D3A2"/>
<stop offset="0.6817" stop-color="#53DFB6"/>
<stop offset="1" stop-color="#9FF4D9"/>
</linearGradient>
<linearGradient id="paint4_linear_4230_11676" x1="207.869" y1="10.6697" x2="210.813" y2="10.6697" gradientUnits="userSpaceOnUse">
<stop stop-color="#FCD77E"/>
<stop offset="0.5241" stop-color="#FEA500"/>
<stop offset="1" stop-color="#FF5B00"/>
</linearGradient>
</defs>
</svg>
