<svg width="16" height="16" viewBox="0 0 16 16" fill="none" xmlns="http://www.w3.org/2000/svg">
<rect x="0.32" y="0.32" width="15.36" height="15.36" rx="7.68" fill="#F6F6F7"/>
<rect x="0.32" y="0.32" width="15.36" height="15.36" rx="7.68" stroke="#8B8C8E" stroke-width="0.64"/>
<g clip-path="url(#clip0_4230_10870)">
<path d="M12.306 4.97754H3.66699V10.9237H12.306V4.97754Z" fill="white"/>
<path d="M7.13614 4.64456C7.86031 4.63501 8.56895 4.63678 9.2495 4.65203L9.37989 4.65567C10.03 4.677 10.6539 4.75487 11.24 4.88397L11.2677 4.88901C11.335 4.89849 11.4185 4.89368 11.5115 4.88015C11.617 4.8648 11.7301 4.8389 11.8391 4.81383L11.84 4.81366L11.9591 4.78675C11.9983 4.7778 12.0368 4.76953 12.0735 4.76383L12.0769 4.76331H12.0806C12.3455 4.7219 12.5 4.79071 12.5804 4.8654C12.7052 4.97989 12.72 5.14387 12.6943 5.30411C12.6686 5.46431 12.6005 5.63316 12.5446 5.77113L12.5448 5.7713C12.5362 5.79347 12.5255 5.81894 12.5189 5.83553C12.5115 5.85452 12.5063 5.86926 12.5037 5.88154L12.5031 5.88363L12.5024 5.88571C12.4692 5.98893 12.4611 6.06526 12.4787 6.13918L12.4877 6.17078L12.488 6.17147L12.5202 6.27998C12.5902 6.53636 12.6241 6.81716 12.6242 7.17044L12.6268 7.95186L12.6242 8.7331C12.6207 9.13771 12.5695 9.49598 12.4702 9.82251L12.47 9.82286C12.4662 9.83492 12.4669 9.8575 12.4722 9.88745C12.4775 9.91652 12.4838 9.93764 12.4884 9.95792L12.5104 10.0329C12.518 10.0576 12.5257 10.0819 12.5335 10.106L12.5815 10.2482V10.2486L12.6242 10.3756C12.6645 10.4993 12.6963 10.6126 12.7049 10.7121C12.7107 10.7793 12.7062 10.8431 12.6849 10.9013C12.6635 10.9602 12.6257 11.0109 12.5695 11.0531L12.5696 11.0532C12.475 11.1247 12.3494 11.1538 12.182 11.147C12.0151 11.1402 11.8018 11.0975 11.5264 11.0199L11.4828 11.0112C11.3805 10.996 11.2716 11.0148 11.141 11.0406L11.1403 11.0407C11.1076 11.0467 11.0738 11.0526 11.0394 11.0581L10.9351 11.073C9.82694 11.2092 8.95219 11.2708 7.97989 11.2746L7.98179 11.2769H7.88527C7.6391 11.2769 7.38918 11.2741 7.12398 11.2651C6.45811 11.2476 5.58332 11.2036 4.7146 11.0123C4.65818 10.9996 4.5798 11.0035 4.48891 11.0171C4.39898 11.0307 4.30217 11.0529 4.20957 11.0735L4.2094 11.0734C4.07826 11.1038 3.94024 11.1355 3.81009 11.1442C3.67965 11.1529 3.55151 11.1392 3.4429 11.0739L3.44256 11.0737C3.30622 10.9904 3.24776 10.8559 3.24776 10.6729C3.24776 10.661 3.24756 10.6469 3.25297 10.6284C3.28576 10.5139 3.32214 10.3966 3.35836 10.285C3.40084 10.152 3.44354 10.018 3.47902 9.88622V9.88294L3.48075 9.87686C3.48123 9.87524 3.48619 9.85458 3.47346 9.80359C3.36093 9.43206 3.30193 9.05938 3.30193 8.69577V8.29474C3.30193 7.9027 3.30193 7.49582 3.3054 7.0923V7.09213L3.30905 6.97182C3.32255 6.69268 3.37222 6.42743 3.45558 6.17772C3.5073 6.02027 3.44663 5.85483 3.37294 5.66054L3.32763 5.53849C3.28371 5.41416 3.24708 5.28246 3.24707 5.14144V5.13328L3.25176 5.09126C3.2852 4.88631 3.47546 4.75481 3.71096 4.75481H3.72346L3.72207 4.79647V4.79717L3.72346 4.75481C3.92009 4.76058 4.08329 4.80001 4.22363 4.83189H4.22398L4.37276 4.86522C4.5155 4.89373 4.64665 4.9045 4.82311 4.86661L4.82329 4.86644L4.94117 4.84248C5.53278 4.72585 6.1643 4.66299 6.82467 4.64925L7.13614 4.64456ZM9.24378 5.0213C8.4702 5.0039 7.66113 5.00376 6.83665 5.01835C6.16287 5.0301 5.52175 5.09995 4.93162 5.22234L4.93179 5.22251C4.58126 5.29771 4.32711 5.237 4.10992 5.18744H4.1094C3.97525 5.1554 3.85677 5.12738 3.71443 5.12408C3.70321 5.12409 3.69605 5.12465 3.69099 5.12737C3.68928 5.1283 3.68764 5.12969 3.68596 5.13241C3.68421 5.13526 3.68172 5.14119 3.6804 5.1522C3.68084 5.24731 3.70707 5.34369 3.74447 5.44612L3.78526 5.55168L3.78561 5.55255L3.81669 5.63536C3.88818 5.83143 3.9478 6.04624 3.87329 6.28102L3.87294 6.28172C3.78783 6.53394 3.74545 6.81015 3.74134 7.0989V7.09908C3.73441 7.49961 3.73787 7.90496 3.73787 8.29751V8.69856C3.73787 9.03305 3.79123 9.37406 3.89829 9.71488L3.90037 9.7213V9.72599C3.92166 9.81022 3.92573 9.89174 3.90575 9.96418L3.90592 9.96436C3.88768 10.0353 3.8665 10.1065 3.84464 10.1769L3.77884 10.385C3.74658 10.4888 3.71191 10.5932 3.68335 10.6956C3.68525 10.727 3.68982 10.7489 3.69481 10.7631C3.69803 10.7723 3.7007 10.777 3.70211 10.7789C3.70259 10.7791 3.70327 10.7795 3.70419 10.7798C3.70644 10.7805 3.70967 10.7812 3.71391 10.7819C3.72255 10.7832 3.73391 10.784 3.74811 10.7838C3.77664 10.7833 3.81262 10.7793 3.85297 10.773C3.93309 10.7607 4.02463 10.7402 4.10124 10.7241L4.22815 10.6939C4.35866 10.6647 4.49906 10.6408 4.63631 10.6407H4.63735L4.68526 10.642C4.71722 10.6435 4.74915 10.6464 4.7804 10.651L4.82676 10.6591L4.82728 10.6593L4.98266 10.6914C5.75966 10.845 6.53834 10.8844 7.14099 10.898H7.14117L7.38613 10.9036C8.59422 10.9259 9.56803 10.8702 10.8818 10.7114L10.8828 10.7112L10.9245 10.7062C10.9663 10.7002 11.0094 10.6915 11.0557 10.6826H11.0563L11.192 10.6588C11.3324 10.6371 11.4899 10.6259 11.6559 10.6701H11.6601L11.666 10.6716C11.9484 10.7515 12.1094 10.7761 12.1988 10.781C12.2434 10.7835 12.2692 10.7809 12.2825 10.7784C12.2828 10.7784 12.2831 10.7781 12.2834 10.7781C12.2843 10.7711 12.2848 10.7609 12.2837 10.7472C12.2813 10.7173 12.2732 10.6779 12.2615 10.6324C12.238 10.5418 12.2016 10.4352 12.1722 10.3484L12.1719 10.3479C12.1433 10.2591 12.1066 10.1542 12.0738 10.0454L12.0736 10.0447C12.0485 9.95646 12.0226 9.84274 12.0556 9.73015L12.0559 9.72964L12.0884 9.61678C12.1592 9.35049 12.1953 9.05979 12.1983 8.73015C12.2018 8.21254 12.2018 7.6893 12.1983 7.17165V7.17129L12.1965 7.03518C12.1886 6.72754 12.1523 6.4871 12.0811 6.26974L12.0646 6.21175C12.0325 6.07628 12.0432 5.93703 12.0959 5.78206L12.0964 5.78033C12.1106 5.74316 12.1257 5.70055 12.1478 5.64995C12.1733 5.58665 12.2227 5.46222 12.2552 5.34422C12.2717 5.2847 12.2832 5.22904 12.2858 5.18467C12.2871 5.1625 12.286 5.14494 12.2832 5.13206C12.2813 5.12368 12.2788 5.11871 12.2769 5.11574C12.2741 5.11512 12.2691 5.11416 12.261 5.11366C12.2427 5.11253 12.2137 5.11364 12.1707 5.1206C12.107 5.13216 12.0364 5.14909 11.9603 5.16661L11.9601 5.16678C11.7026 5.22454 11.3991 5.29509 11.1384 5.23988H11.138C10.5446 5.10912 9.9071 5.03584 9.24378 5.0213Z" fill="#8B8C8E"/>
<path d="M3.72346 4.75481H3.71096C3.47546 4.75481 3.2852 4.88631 3.25176 5.09126L3.24707 5.13328V5.14144C3.24708 5.28246 3.28371 5.41416 3.32763 5.53849L3.37294 5.66054C3.44663 5.85483 3.5073 6.02027 3.45558 6.17772C3.37222 6.42743 3.32255 6.69268 3.30905 6.97182L3.3054 7.09213V7.0923C3.30193 7.49582 3.30193 7.9027 3.30193 8.29474V8.69577C3.30193 9.05938 3.36093 9.43206 3.47346 9.80359C3.48619 9.85458 3.48123 9.87524 3.48075 9.87686L3.47902 9.88294V9.88622C3.44354 10.018 3.40084 10.152 3.35836 10.285C3.32214 10.3966 3.28576 10.5139 3.25297 10.6284C3.24756 10.6469 3.24776 10.661 3.24776 10.6729C3.24776 10.8559 3.30622 10.9904 3.44256 11.0737L3.4429 11.0739C3.55151 11.1392 3.67965 11.1529 3.81009 11.1442C3.94024 11.1355 4.07826 11.1038 4.2094 11.0734L4.20957 11.0735C4.30217 11.0529 4.39898 11.0307 4.48891 11.0171C4.5798 11.0035 4.65818 10.9996 4.7146 11.0123C5.58332 11.2036 6.45811 11.2476 7.12398 11.2651C7.38918 11.2741 7.6391 11.2769 7.88527 11.2769H7.98179L7.97989 11.2746C8.95219 11.2708 9.82694 11.2092 10.9351 11.073L11.0394 11.0581C11.0738 11.0526 11.1076 11.0467 11.1403 11.0407L11.141 11.0406C11.2716 11.0148 11.3805 10.996 11.4828 11.0112L11.5264 11.0199C11.8018 11.0975 12.0151 11.1402 12.182 11.147C12.3494 11.1538 12.475 11.1247 12.5696 11.0532L12.5695 11.0531C12.6257 11.0109 12.6635 10.9602 12.6849 10.9013C12.7062 10.8431 12.7107 10.7793 12.7049 10.7121C12.6963 10.6126 12.6645 10.4993 12.6242 10.3756L12.5815 10.2486V10.2482L12.5335 10.106C12.5257 10.0819 12.518 10.0576 12.5104 10.0329L12.4884 9.95792C12.4838 9.93764 12.4775 9.91652 12.4722 9.88745C12.4669 9.8575 12.4662 9.83492 12.47 9.82286L12.4702 9.82251C12.5695 9.49598 12.6207 9.13771 12.6242 8.7331L12.6268 7.95186L12.6242 7.17044C12.6241 6.81716 12.5902 6.53636 12.5202 6.27998L12.488 6.17147L12.4877 6.17078L12.4787 6.13918C12.4611 6.06526 12.4692 5.98893 12.5024 5.88571L12.5031 5.88363L12.5037 5.88154C12.5063 5.86926 12.5115 5.85452 12.5189 5.83553C12.5255 5.81894 12.5362 5.79347 12.5448 5.7713L12.5446 5.77113C12.6005 5.63316 12.6686 5.46431 12.6943 5.30411C12.72 5.14387 12.7052 4.97989 12.5804 4.8654C12.5 4.79071 12.3455 4.7219 12.0806 4.76331H12.0769L12.0735 4.76383C12.0368 4.76953 11.9983 4.7778 11.9591 4.78675L11.84 4.81366L11.8391 4.81383C11.7301 4.8389 11.617 4.8648 11.5115 4.88015C11.4185 4.89368 11.335 4.89849 11.2677 4.88901L11.24 4.88397C10.6539 4.75487 10.03 4.677 9.37989 4.65567L9.2495 4.65203C8.56895 4.63678 7.86031 4.63501 7.13614 4.64456L6.82467 4.64925C6.1643 4.66299 5.53278 4.72585 4.94117 4.84248L4.82329 4.86644L4.82311 4.86661C4.64665 4.9045 4.5155 4.89373 4.37276 4.86522L4.22398 4.83189H4.22363C4.08329 4.80001 3.92009 4.76058 3.72346 4.75481ZM3.72346 4.75481L3.72207 4.79647V4.79717L3.72346 4.75481ZM9.24378 5.0213C8.4702 5.0039 7.66113 5.00376 6.83665 5.01835C6.16287 5.0301 5.52175 5.09995 4.93162 5.22234L4.93179 5.22251C4.58126 5.29771 4.32711 5.237 4.10992 5.18744H4.1094C3.97525 5.1554 3.85677 5.12738 3.71443 5.12408C3.70321 5.12409 3.69605 5.12465 3.69099 5.12737C3.68928 5.1283 3.68764 5.12969 3.68596 5.13241C3.68421 5.13526 3.68172 5.14119 3.6804 5.1522C3.68084 5.24731 3.70707 5.34369 3.74447 5.44612L3.78526 5.55168L3.78561 5.55255L3.81669 5.63536C3.88818 5.83143 3.9478 6.04624 3.87329 6.28102L3.87294 6.28172C3.78783 6.53394 3.74545 6.81015 3.74134 7.0989V7.09908C3.73441 7.49961 3.73787 7.90496 3.73787 8.29751V8.69856C3.73787 9.03305 3.79123 9.37406 3.89829 9.71488L3.90037 9.7213V9.72599C3.92166 9.81022 3.92573 9.89174 3.90575 9.96418L3.90592 9.96436C3.88768 10.0353 3.8665 10.1065 3.84464 10.1769L3.77884 10.385C3.74658 10.4888 3.71191 10.5932 3.68335 10.6956C3.68525 10.727 3.68982 10.7489 3.69481 10.7631C3.69803 10.7723 3.7007 10.777 3.70211 10.7789C3.70259 10.7791 3.70327 10.7795 3.70419 10.7798C3.70644 10.7805 3.70967 10.7812 3.71391 10.7819C3.72255 10.7832 3.73391 10.784 3.74811 10.7838C3.77664 10.7833 3.81262 10.7793 3.85297 10.773C3.93309 10.7607 4.02463 10.7402 4.10124 10.7241L4.22815 10.6939C4.35866 10.6647 4.49906 10.6408 4.63631 10.6407H4.63735L4.68526 10.642C4.71722 10.6435 4.74915 10.6464 4.7804 10.651L4.82676 10.6591L4.82728 10.6593L4.98266 10.6914C5.75966 10.845 6.53834 10.8844 7.14099 10.898H7.14117L7.38613 10.9036C8.59422 10.9259 9.56803 10.8702 10.8818 10.7114L10.8828 10.7112L10.9245 10.7062C10.9663 10.7002 11.0094 10.6915 11.0557 10.6826H11.0563L11.192 10.6588C11.3324 10.6371 11.4899 10.6259 11.6559 10.6701H11.6601L11.666 10.6716C11.9484 10.7515 12.1094 10.7761 12.1988 10.781C12.2434 10.7835 12.2692 10.7809 12.2825 10.7784C12.2828 10.7784 12.2831 10.7781 12.2834 10.7781C12.2843 10.7711 12.2848 10.7609 12.2837 10.7472C12.2813 10.7173 12.2732 10.6779 12.2615 10.6324C12.238 10.5418 12.2016 10.4352 12.1722 10.3484L12.1719 10.3479C12.1433 10.2591 12.1066 10.1542 12.0738 10.0454L12.0736 10.0447C12.0485 9.95646 12.0226 9.84274 12.0556 9.73015L12.0559 9.72964L12.0884 9.61678C12.1592 9.35049 12.1953 9.05979 12.1983 8.73015C12.2018 8.21254 12.2018 7.6893 12.1983 7.17165V7.17129L12.1965 7.03518C12.1886 6.72754 12.1523 6.4871 12.0811 6.26974L12.0646 6.21175C12.0325 6.07628 12.0432 5.93703 12.0959 5.78206L12.0964 5.78033C12.1106 5.74316 12.1257 5.70055 12.1478 5.64995C12.1733 5.58665 12.2227 5.46222 12.2552 5.34422C12.2717 5.2847 12.2832 5.22904 12.2858 5.18467C12.2871 5.1625 12.286 5.14494 12.2832 5.13206C12.2813 5.12368 12.2788 5.11871 12.2769 5.11574C12.2741 5.11512 12.2691 5.11416 12.261 5.11366C12.2427 5.11253 12.2137 5.11364 12.1707 5.1206C12.107 5.13216 12.0364 5.14909 11.9603 5.16661L11.9601 5.16678C11.7026 5.22454 11.3991 5.29509 11.1384 5.23988H11.138C10.5446 5.10912 9.9071 5.03584 9.24378 5.0213Z" stroke="#8B8C8E" stroke-width="0.16"/>
</g>
<defs>
<clipPath id="clip0_4230_10870">
<rect width="9.6" height="6.93333" fill="white" transform="translate(3.2002 4.5332)"/>
</clipPath>
</defs>
</svg>
