<svg width="59" height="59" viewBox="0 0 59 59" fill="none" xmlns="http://www.w3.org/2000/svg">
<rect x="0.625" y="0.294678" width="58.2517" height="58.2517" rx="29.1258" fill="black" fill-opacity="0.35"/>
<path d="M29.5473 6.38037C16.9622 6.38037 6.71094 16.5702 6.71094 29.0799C6.71094 41.5896 16.9622 51.7794 29.5473 51.7794C42.1325 51.7794 52.3837 41.5896 52.3837 29.0799C52.3837 16.5702 42.1325 6.38037 29.5473 6.38037ZM29.5473 10.9203C39.6641 10.9203 47.8165 19.0237 47.8165 29.0799C47.8165 39.1361 39.6641 47.2395 29.5473 47.2395C19.4305 47.2395 11.2782 39.1361 11.2782 29.0799C11.2782 19.0237 19.4305 10.9203 29.5473 10.9203ZM24.9801 21.2149V36.9449L38.6819 29.0799L24.9801 21.2149Z" fill="white"/>
</svg>
