<svg width="46" height="24" viewBox="0 0 46 24" fill="none" xmlns="http://www.w3.org/2000/svg">
<g clip-path="url(#clip0_1538_1164)">
<path d="M37.543 13.4049L36.9342 12.58H29.6777L32.6289 16.8413C29.5586 17.4412 26.6604 14.8739 26.7002 11.8875C26.7443 8.83491 29.2057 6.54986 32.1524 6.57196C35.3859 6.58957 38.6105 10.0745 37.543 13.4049ZM41.8968 18.6411C41.8968 18.6411 44.0495 15.8311 44.0583 12.1742C44.076 4.9883 39.0428 0.321225 32.0201 0.307991C27.9529 0.303579 24.499 2.28863 22.4036 5.19121C23.2726 6.42638 23.7799 7.6174 23.9872 8.40701H20.7715C20.6083 8.91429 20.4803 9.43483 20.3877 9.96856H24.3578C24.4504 10.5553 24.499 11.1552 24.499 11.7684C24.499 14.2298 23.727 16.5104 22.4125 18.3896C24.4593 21.3319 27.8515 23.4669 32.0598 23.4669C34.8521 23.4669 36.8239 22.2759 37.1813 22.0862L37.9223 23.0611H45.0685L41.8968 18.6411Z" fill="#B5B6B7"/>
<path d="M13.6395 15.4213H16.595C16.595 15.5537 15.082 17.027 12.8058 17.027C10.3046 17.027 7.4726 15.0508 7.41523 11.8879C7.35791 8.61043 10.1899 6.46217 12.8058 6.55477C14.9275 6.6298 15.7348 7.23851 16.9214 8.40308C16.9214 8.40308 18.633 8.40308 20.371 8.40752H23.9838C23.7765 7.61787 23.2692 6.42685 22.4002 5.19173C22.3252 5.09025 22.2546 4.98438 22.1752 4.88291C20.4372 2.56704 17.4155 0.220264 12.7175 0.211442C7.19911 0.202619 2.94225 3.89482 1.53948 8.40752C1.52184 8.46046 1.5042 8.51778 1.49096 8.57071C1.49096 8.57511 1.49096 8.57511 1.48655 8.57955C1.19982 9.58971 1.04102 10.6572 1.04102 11.7556C1.04984 12.8099 1.18659 13.8201 1.43803 14.7729C2.32468 18.0681 4.62734 20.7854 7.66668 22.2455C7.69317 22.2587 7.71522 22.2676 7.74166 22.2808C7.75488 22.2896 7.77254 22.2941 7.7902 22.3029C9.32087 22.9998 11.0413 23.388 12.8719 23.4013C16.745 23.3704 20.1725 21.4736 22.2855 18.571C22.3296 18.5092 22.3693 18.4475 22.4134 18.3857C23.728 16.5065 24.4999 14.2259 24.4999 11.7645C24.4999 11.1513 24.4514 10.5513 24.3588 9.96468H13.6395V15.4213Z" fill="#B5B6B7"/>
</g>
<defs>
<clipPath id="clip0_1538_1164">
<rect width="44.843" height="23.5772" fill="white" transform="translate(0.765625 0.211426)"/>
</clipPath>
</defs>
</svg>
