<svg width="116" height="20" viewBox="0 0 116 20" fill="none" xmlns="http://www.w3.org/2000/svg">
<path fill-rule="evenodd" clip-rule="evenodd" d="M12.032 0.429385L14.318 7.07621L21.4606 7.15742C22.0752 7.16445 22.3297 7.93361 21.8367 8.2936L16.1062 12.4822L18.2348 19.179C18.4176 19.7553 17.7521 20.2301 17.2504 19.881L11.4237 15.8228L5.59621 19.8802C5.09528 20.2293 4.42897 19.7537 4.61185 19.1782L6.7404 12.4814L1.00992 8.29282C0.516939 7.93283 0.77138 7.16367 1.38601 7.15664L8.52864 7.07543L10.8146 0.428604C11.0118 -0.142998 11.8356 -0.142998 12.032 0.429385Z" fill="#91BAEC"/>
<path fill-rule="evenodd" clip-rule="evenodd" d="M35.3785 0.429385L37.6645 7.07621L44.8071 7.15742C45.4218 7.16445 45.6762 7.93361 45.1832 8.2936L39.4528 12.4822L41.5813 19.179C41.7642 19.7553 41.0987 20.2301 40.5969 19.881L34.7703 15.8228L28.9428 19.8802C28.4418 20.2293 27.7755 19.7537 27.9584 19.1782L30.087 12.4814L24.3565 8.29281C23.8635 7.93283 24.1179 7.16367 24.7326 7.15664L31.8752 7.07543L34.1612 0.428604C34.3584 -0.142998 35.1821 -0.142998 35.3785 0.429385Z" fill="#91BAEC"/>
<path fill-rule="evenodd" clip-rule="evenodd" d="M58.7252 0.429385L61.0112 7.07621L68.1538 7.15742C68.7685 7.16445 69.0229 7.93361 68.5299 8.2936L62.7994 12.4822L64.928 19.179C65.1109 19.7553 64.4454 20.2301 63.9436 19.881L58.1169 15.8228L52.2894 19.8802C51.7885 20.2293 51.1222 19.7537 51.3051 19.1782L53.4336 12.4814L47.7032 8.29282C47.2102 7.93283 47.4646 7.16367 48.0793 7.15664L55.2219 7.07543L57.5079 0.428604C57.7051 -0.142998 58.5288 -0.142998 58.7252 0.429385Z" fill="#91BAEC"/>
<path fill-rule="evenodd" clip-rule="evenodd" d="M82.0718 0.429385L84.3578 7.07621L91.5004 7.15742C92.115 7.16445 92.3695 7.93361 91.8765 8.2936L86.146 12.4822L88.2746 19.179C88.4574 19.7553 87.7919 20.2301 87.2902 19.881L81.4635 15.8228L75.636 19.8802C75.1351 20.2293 74.4688 19.7537 74.6516 19.1782L76.7802 12.4814L71.0497 8.29282C70.5567 7.93283 70.8112 7.16367 71.4258 7.15664L78.5684 7.07543L80.8544 0.428604C81.0516 -0.142998 81.8754 -0.142998 82.0718 0.429385Z" fill="#91BAEC"/>
<path fill-rule="evenodd" clip-rule="evenodd" d="M105.419 0.429383L107.704 7.07622L114.847 7.15743C115.462 7.16446 115.717 7.93362 115.223 8.2936L109.493 12.4823L111.621 19.1791C111.804 19.7553 111.139 20.2301 110.637 19.8811L104.81 15.8228L98.9827 19.8802C98.4818 20.2293 97.8155 19.7538 97.9984 19.1782L100.127 12.4815L94.3964 8.29282C93.9034 7.93284 94.1579 7.16368 94.7725 7.15665L101.915 7.07543L104.201 0.428605C104.398 -0.142998 105.222 -0.142998 105.419 0.429383Z" fill="#D9D9D9"/>
<path fill-rule="evenodd" clip-rule="evenodd" d="M108.021 7.08706L105.736 0.445781C105.54 -0.126125 104.717 -0.126125 104.52 0.445L102.236 7.08628L95.0993 7.16742C94.4852 7.17445 94.231 7.94297 94.7236 8.30265L100.449 12.4877L98.3224 19.179C98.1397 19.754 98.8055 20.2292 99.3061 19.8804L105.129 15.8263L109.065 18.5683V7.09894L108.021 7.08706Z" fill="#91BAEC"/>
</svg>
