<svg width="46" height="47" viewBox="0 0 46 47" fill="none" xmlns="http://www.w3.org/2000/svg">
<circle cx="22.7801" cy="23.4999" r="16.14" fill="white"/>
<circle cx="22.78" cy="23.5" r="21.8919" stroke="#B5B6B7" stroke-width="1.21622"/>
<g clip-path="url(#clip0_911_9761)">
<path d="M31.1603 24.5186C31.1603 29.6188 27.5902 32.1688 23.3469 33.6479C23.1247 33.7232 22.8833 33.7196 22.6635 33.6377C18.4099 32.1688 14.8398 29.6188 14.8398 24.5186V17.3784C14.8398 17.1079 14.9473 16.8484 15.1386 16.6572C15.3299 16.4659 15.5893 16.3584 15.8599 16.3584C17.8999 16.3584 20.45 15.1344 22.2248 13.5839C22.4409 13.3993 22.7158 13.2979 23.0001 13.2979C23.2843 13.2979 23.5592 13.3993 23.7753 13.5839C25.5603 15.1446 28.1002 16.3584 30.1403 16.3584C30.4108 16.3584 30.6702 16.4659 30.8615 16.6572C31.0528 16.8484 31.1603 17.1079 31.1603 17.3784V24.5186Z" stroke="#FF5429" stroke-linecap="round" stroke-linejoin="round"/>
<path d="M19.3318 23.4999L22.005 26.1731L27.3514 20.8267" stroke="#FF5429" stroke-linecap="round" stroke-linejoin="round"/>
</g>
<defs>
<clipPath id="clip0_911_9761">
<rect width="18" height="23" fill="white" transform="translate(14 12)"/>
</clipPath>
</defs>
</svg>
