<svg width="40" height="42" viewBox="0 0 40 42" fill="none" xmlns="http://www.w3.org/2000/svg">
<path fill-rule="evenodd" clip-rule="evenodd" d="M11.3257 27.535C17.5203 27.535 22.5409 21.4903 22.5409 14.0343C22.5409 21.4903 27.5615 27.535 33.756 27.535C27.5615 27.535 22.5409 33.5797 22.5409 41.0356C22.5409 33.5797 17.5203 27.535 11.3257 27.535Z" fill="#91BAEC" fill-opacity="0.2" stroke="#212428" stroke-width="1.22473" stroke-miterlimit="2.61313" stroke-linecap="round" stroke-linejoin="round"/>
<path fill-rule="evenodd" clip-rule="evenodd" d="M0.935059 17.9923C4.16972 17.9923 6.79243 14.6327 6.79243 10.4988C6.79243 14.6327 9.41513 17.9923 12.6498 17.9923C9.41513 17.9923 6.79243 21.3518 6.79243 25.4857C6.79243 21.3518 4.16972 17.9923 0.935059 17.9923Z" fill="#91BAEC" fill-opacity="0.2" stroke="#212428" stroke-width="1.22473" stroke-miterlimit="2.61313" stroke-linecap="round" stroke-linejoin="round"/>
<path fill-rule="evenodd" clip-rule="evenodd" d="M28.4463 7.49927C31.3785 7.49927 33.756 4.5694 33.756 0.964233C33.756 4.5694 36.1335 7.49927 39.0657 7.49927C36.1335 7.49927 33.756 10.4291 33.756 14.0343C33.756 10.4291 31.3785 7.49927 28.4463 7.49927Z" fill="#91BAEC" fill-opacity="0.2" stroke="#212428" stroke-width="1.22473" stroke-miterlimit="2.61313" stroke-linecap="round" stroke-linejoin="round"/>
</svg>
