<svg width="174" height="30" viewBox="0 0 174 30" fill="none" xmlns="http://www.w3.org/2000/svg">
<path fill-rule="evenodd" clip-rule="evenodd" d="M17.2062 0.644077L20.6351 10.6143L31.3491 10.7361C32.271 10.7467 32.6527 11.9004 31.9132 12.4404L23.3175 18.7233L26.5103 28.7685C26.7847 29.633 25.7864 30.3451 25.0338 29.8215L16.2938 23.7342L7.55252 29.8204C6.80113 30.344 5.80165 29.6306 6.07597 28.7674L9.2688 18.7222L0.67308 12.4392C-0.0663882 11.8992 0.315273 10.7455 1.23722 10.735L11.9512 10.6131L15.3802 0.642906C15.6759 -0.214497 16.9116 -0.214497 17.2062 0.644077Z" fill="#91BAEC"/>
<path fill-rule="evenodd" clip-rule="evenodd" d="M52.5592 0.644077L55.9882 10.6143L66.7021 10.7361C67.6241 10.7467 68.0057 11.9004 67.2663 12.4404L58.6705 18.7233L61.8634 28.7685C62.1377 29.633 61.1394 30.3451 60.3868 29.8215L51.6468 23.7342L42.9055 29.8204C42.1542 30.344 41.1547 29.6306 41.429 28.7674L44.6218 18.7222L36.0261 12.4392C35.2866 11.8992 35.6683 10.7455 36.5902 10.735L47.3042 10.6131L50.7332 0.642906C51.029 -0.214497 52.2646 -0.214497 52.5592 0.644077Z" fill="#91BAEC"/>
<path fill-rule="evenodd" clip-rule="evenodd" d="M87.9127 0.644077L91.3417 10.6143L102.056 10.7361C102.978 10.7467 103.359 11.9004 102.62 12.4404L94.0241 18.7233L97.2169 28.7685C97.4912 29.633 96.4929 30.3451 95.7403 29.8215L87.0003 23.7342L78.2591 29.8204C77.5077 30.3439 76.5082 29.6306 76.7825 28.7674L79.9753 18.7222L71.3796 12.4392C70.6402 11.8992 71.0218 10.7455 71.9438 10.735L82.6577 10.6131L86.0867 0.642906C86.3825 -0.214497 87.6181 -0.214497 87.9127 0.644077Z" fill="#91BAEC"/>
<path fill-rule="evenodd" clip-rule="evenodd" d="M123.266 0.644077L126.695 10.6143L137.409 10.7361C138.331 10.7467 138.712 11.9004 137.973 12.4404L129.377 18.7233L132.57 28.7685C132.844 29.633 131.846 30.3451 131.093 29.8215L122.353 23.7342L113.612 29.8204C112.861 30.3439 111.861 29.6306 112.136 28.7674L115.328 18.7222L106.733 12.4392C105.993 11.8992 106.375 10.7455 107.297 10.735L118.011 10.6131L121.44 0.642906C121.736 -0.214497 122.971 -0.214497 123.266 0.644077Z" fill="#91BAEC"/>
<path fill-rule="evenodd" clip-rule="evenodd" d="M158.619 0.644074L162.048 10.6143L172.761 10.7361C173.685 10.7467 174.066 11.9004 173.326 12.4404L164.73 18.7234L167.923 28.7686C168.197 29.633 167.199 30.3451 166.447 29.8216L157.707 23.7343L148.965 29.8203C148.214 30.344 147.214 29.6307 147.489 28.7673L150.682 18.7222L142.086 12.4392C141.346 11.8993 141.728 10.7455 142.65 10.735L153.364 10.6131L156.793 0.642908C157.089 -0.214497 158.324 -0.214497 158.619 0.644074Z" fill="#D9D9D9"/>
<path fill-rule="evenodd" clip-rule="evenodd" d="M162.522 10.6305L159.095 0.668565C158.801 -0.189294 157.566 -0.189294 157.271 0.667393L153.845 10.6293L143.14 10.751C142.219 10.7616 141.837 11.9143 142.576 12.4539L151.165 18.7315L147.974 28.7684C147.7 29.6309 148.699 30.3436 149.45 29.8206L158.184 23.7394L164.089 27.8524V10.6483L162.522 10.6305Z" fill="#91BAEC"/>
</svg>
