<svg width="106" height="28" viewBox="0 0 106 28" fill="none" xmlns="http://www.w3.org/2000/svg">
<path d="M31.3063 0.36438C34.365 0.364558 37.2988 2.11381 39.1823 4.44543C41.3523 7.13162 42.4332 10.6116 42.4332 14.0441C42.4331 17.3314 41.4476 20.6489 39.4401 23.2775C37.4714 25.8382 34.4983 27.713 31.2008 27.713C28.1132 27.713 25.1599 25.9833 23.2477 23.6212C21.0686 20.9362 20.0065 17.4652 20.0065 14.0333C20.0065 10.7358 20.9822 7.41874 22.9987 4.79016C24.9871 2.20946 27.9793 0.36438 31.3063 0.36438ZM31.4576 0.963013C26.3053 0.963086 24.9664 10.4366 24.9664 14.2413C24.9664 18.0456 26.3149 27.5284 31.4576 27.5284C36.5908 27.5279 37.9479 18.0366 37.9479 14.2413C37.9479 10.4461 36.5908 0.963013 31.4576 0.963013ZM55.5114 0.287231C56.3145 0.287231 57.1075 0.535496 57.8531 0.832153L58.399 1.04211C59.0207 1.2717 59.6994 1.49133 60.3678 1.49133C61.1997 1.49127 61.9454 0.946617 62.5856 0.468872H62.7946V9.59778H62.5836C62.1916 7.80078 61.6375 6.0516 60.6725 4.46497C59.5257 2.61024 57.6994 0.526489 55.319 0.526489C49.8514 0.526589 49.3541 10.3248 49.3541 14.0626C49.3541 17.4086 49.6218 20.8592 50.8356 23.9943C51.6862 26.1931 52.9196 27.2736 55.2047 27.2736C57.0205 27.2735 58.9515 26.3552 59.9166 24.7775C60.1653 24.3663 60.1852 23.9086 60.1852 23.4406V16.3849H57.7955V16.1085H66.5426V16.3849H64.4957V26.9386H64.316C63.7994 26.0784 62.9862 25.5138 61.9449 25.5138C61.1891 25.5138 60.4528 25.7814 59.7946 26.1447L59.2018 26.4698C57.8632 27.0627 56.5815 27.4923 55.1002 27.4923C48.3137 27.4923 44.6998 20.2555 44.6998 14.2531C44.6999 9.86517 46.3735 5.17191 49.9293 2.42883C51.5257 1.19518 53.4564 0.287248 55.5114 0.287231ZM9.47229 1.19446H7.18811L14.1285 20.1984L19.9879 1.19446H17.6842V0.927856H22.7028V1.19446H20.485L12.2262 27.463L2.61877 1.19446H0.171509V0.927856H9.47229V1.19446ZM74.734 1.19543H72.2584V21.4523C72.2587 24.6249 75.5269 26.5557 78.3844 26.5558C81.4625 26.5558 84.0531 24.4157 84.0533 21.2706V1.19446H81.1285V0.927856H105.209V10.3243H105.027C104.749 7.83897 104.271 5.28629 102.56 3.34583C100.831 1.38619 98.4784 1.19446 96.0602 1.19446H93.4518V13.2784C93.9859 13.3354 94.5314 13.3732 95.0768 13.3732C98.355 13.3731 99.2059 11.1178 99.3492 8.32629H99.5885V18.9269H99.3492C98.938 16.3941 97.8196 13.6788 94.8463 13.6788C94.3783 13.6788 93.9198 13.7079 93.4518 13.7462V26.67H97.361C99.3881 26.6699 101.404 25.791 102.839 24.3771C104.061 23.1727 104.913 21.6045 105.21 19.9122C105.371 18.9659 105.448 18.0009 105.496 17.045H105.707V26.9386H86.8844V26.67H89.0739V1.19446H84.4459V21.3468C84.4456 25.5134 80.4881 27.3585 76.7799 27.3585C72.5838 27.3584 67.9568 25.3225 67.9567 20.5236V1.19446H65.4049L65.4039 0.927856H74.734V1.19543Z" fill="#8B8C8E"/>
</svg>
