<svg width="41" height="31" viewBox="0 0 41 31" fill="none" xmlns="http://www.w3.org/2000/svg">
<path d="M39.3632 9.37102L39.3582 9.33555V9.31022L39.2467 8.57555L39.0035 7.89155L38.6032 7.32915L38.6184 7.31395L38.583 7.27848L37.3518 5.99155L37.367 5.97635V5.97128L37.3214 5.93582C37.22 5.83448 37.0984 5.74328 36.9819 5.66728L36.9059 5.60648L36.7894 5.55075C36.7235 5.51528 36.6526 5.47982 36.5766 5.44942L36.3232 5.32782L35.6595 5.19102L34.9147 5.16568L34.1142 5.30248L33.2934 5.57608L32.5992 5.88515L32.5688 5.90035H32.4928L32.508 5.93075L27.6339 8.46408H27.5883V8.19048H27.5326V8.02328C27.5326 7.96755 27.5123 7.91688 27.4971 7.87635C27.487 7.85102 27.4768 7.82062 27.4768 7.80542V7.78515L27.4616 7.76995C27.4464 7.75475 27.4262 7.73448 27.4211 7.72435V7.70408L27.4059 7.68888C27.4059 7.68888 27.3755 7.64835 27.3654 7.62808V7.53688H27.112V7.55715L26.9499 7.61288L26.9296 7.26835V7.15688C26.9043 7.11128 26.9043 7.09608 26.9043 7.07075V7.05048L26.8891 7.03528C26.8891 7.03528 26.8486 6.97448 26.8486 6.96435C26.8486 6.91368 26.8232 6.87822 26.803 6.85795C26.803 6.85795 26.7979 6.84275 26.7928 6.85795C26.7928 6.81742 26.7574 6.77182 26.7219 6.74142C26.6966 6.71608 26.651 6.69075 26.6358 6.68062C26.5952 6.64515 26.5598 6.64515 26.5496 6.64515H26.4331L26.4128 6.59955L26.3216 6.64515H26.2963V6.65528L26.0176 6.80222L25.9974 6.47288H26.0227V6.29048L26.0075 6.27528C26.0075 6.27528 25.967 6.21448 25.967 6.20435C25.967 6.17395 25.9518 6.14862 25.9315 6.12328C25.9264 6.11315 25.9112 6.09795 25.9112 6.09795V6.07768L25.815 5.98142C25.815 5.98142 25.7998 5.96115 25.7947 5.95102C25.7744 5.92568 25.7542 5.89528 25.7238 5.88515C25.668 5.82942 25.6275 5.82435 25.592 5.82435H25.4603C25.4603 5.82435 25.4198 5.85475 25.4046 5.85982C25.3995 5.85982 25.3944 5.86488 25.3894 5.86995L25.359 5.82942L25.2931 5.88008H25.2678L25.2779 5.89022L24.908 6.16888V6.14862L24.8827 5.73315H24.9334V5.60142L24.8726 5.46968C24.8422 5.40888 24.7408 5.30248 24.7256 5.29235L24.6851 5.25182L24.6446 5.30248C24.6344 5.18088 24.6192 5.05928 24.604 4.94275C24.5787 4.76542 24.528 4.60328 24.4368 4.38542C24.3406 4.16755 24.2595 4.01048 24.1582 3.85848C24.0518 3.69635 23.9352 3.52915 23.7984 3.38728L23.7427 3.33155C23.6262 3.21502 23.5096 3.11875 23.3728 3.00728L23.2968 2.94648L22.8054 2.61715C22.5064 2.44488 22.1366 2.29795 21.6704 2.17635C21.2094 2.08515 20.804 2.03955 20.4342 2.03955C20.0086 2.03955 19.5678 2.10035 19.1979 2.20675C18.8534 2.28275 18.4734 2.42968 18.063 2.65262L17.5715 2.98195C17.4043 3.09342 17.2624 3.23528 17.1256 3.37208C16.9838 3.53928 16.8774 3.67608 16.7659 3.83822C16.6798 3.96488 16.6139 4.10168 16.548 4.23848C16.5278 4.27902 16.5075 4.32462 16.4872 4.37022C16.472 4.41075 16.4568 4.45128 16.4416 4.49182C16.396 4.62355 16.3403 4.77555 16.32 4.91742C16.2694 5.09982 16.2643 5.27715 16.2643 5.45448C16.2339 5.43928 16.2035 5.42408 16.1782 5.42408H16.0667C16.0667 5.42408 16.0262 5.42915 16.011 5.43928C15.9958 5.44435 15.9806 5.45448 15.9552 5.45448C15.9248 5.45448 15.8995 5.46968 15.8742 5.48995C15.864 5.49502 15.8488 5.50515 15.8488 5.51022H15.8286L15.7323 5.60648C15.6816 5.65715 15.6512 5.69262 15.6411 5.72808C15.6107 5.76355 15.5803 5.81928 15.5803 5.85982V5.99662L15.555 6.41208H15.5499L15.2054 6.18408L15.2155 6.17395L15.1648 6.14862C15.099 6.11822 15.0078 6.11315 14.9115 6.14862C14.8811 6.14862 14.8608 6.17395 14.8456 6.18915C14.8456 6.18915 14.8355 6.19928 14.8406 6.19928H14.8203L14.8051 6.21448C14.8051 6.21448 14.7899 6.22968 14.7798 6.23475C14.7494 6.25502 14.719 6.28035 14.7139 6.31582C14.7038 6.33102 14.6886 6.34622 14.6734 6.36142C14.6582 6.37662 14.6379 6.39688 14.6328 6.41715C14.6075 6.44755 14.5822 6.49315 14.5771 6.52862C14.5467 6.56915 14.5467 6.62995 14.5467 6.66035V6.78702L14.5264 7.11128L14.2174 6.97955V6.98968L14.1819 6.97448C14.111 6.93902 14.0046 6.96435 13.9336 7.04035C13.9134 7.06062 13.9032 7.08595 13.8982 7.10622L13.8779 7.12142C13.8779 7.12142 13.8526 7.14675 13.8424 7.16195H13.8019L13.8272 7.18222C13.8272 7.18222 13.812 7.20755 13.812 7.21768C13.7867 7.24808 13.7614 7.29368 13.7563 7.32915C13.7259 7.36968 13.7259 7.43048 13.7259 7.46088V7.72942H13.731L13.7208 8.00808L13.5334 7.96248L13.4726 8.21582V8.14995H13.4067L13.4523 7.99288L13.432 7.97262C13.432 7.97262 13.4016 7.95235 13.3814 7.95235C13.3307 7.95235 13.275 8.00302 13.2496 8.02835L13.2344 8.04355V8.15502C13.2091 8.18542 13.2091 8.22088 13.2091 8.24622C13.1838 8.30702 13.1838 8.33742 13.1838 8.36782V8.74782H13.2091L13.1939 9.03155H13.1382L13.123 9.13795V8.93528L12.9963 9.06195H12.9406V9.81688H12.9659L12.9456 10.1766V10.3793L12.9203 10.7187V10.9822H12.9355L12.824 15.4814L12.6416 15.7195L12.292 16.0134L11.9627 16.211L11.8664 16.2515H11.8614L6.83018 18.6126L6.80485 18.6278L6.73898 18.6582L5.96378 19.0787L5.08725 19.6817L4.26645 20.3657L3.52671 21.1358L2.86805 21.9617L2.34618 22.8382L1.93578 23.7198L1.71791 24.571L1.63685 25.2651H1.60645V25.331H1.61151L1.66725 25.9289L1.86485 26.5673L1.91045 26.6483C1.96111 26.7649 2.02191 26.8763 2.08271 26.9777C2.14858 27.0891 2.29045 27.2563 2.35631 27.3273L2.39685 27.3729L2.42218 27.4033L3.58751 28.6446L3.61791 28.675L3.65338 28.7155L3.67871 28.7409H3.68378L4.03845 29.0145L4.59578 29.2931L5.26458 29.4603H6.03471L6.83525 29.3235L7.66111 29.0499L8.32485 28.7459L8.41605 28.7003L13.3408 26.1518H13.351L13.736 25.9643L14.3035 25.8275L14.8963 25.7718L15.4891 25.7971L16.0566 25.9035L16.5176 26.0657C17.0344 26.3241 17.6171 26.5217 18.296 26.6686C18.9243 26.8307 19.583 26.9169 20.2467 26.9169H20.4899V26.8662L20.5152 26.8409V26.8915C21.0422 26.8915 21.5995 26.8459 22.2176 26.7547C22.8763 26.6382 23.4944 26.471 24.0568 26.2582C24.6648 26.0099 25.1766 25.7414 25.6731 25.407C25.9264 25.2651 26.1494 25.0726 26.3672 24.8801C26.4128 24.8345 26.4635 24.7838 26.5142 24.7382C26.6662 24.5913 26.8232 24.4443 26.955 24.267C27.112 24.0542 27.2792 23.8363 27.416 23.6134C27.5528 23.3601 27.6643 23.1422 27.7758 22.8939C27.8518 22.6659 27.9379 22.4075 27.9936 22.1542C28.0494 21.8958 28.1051 21.6273 28.1051 21.379V21.3283H28.0494L28.1304 19.1598L28.2824 18.9268L28.6523 18.6379L29.0323 18.4201L29.088 18.3947L29.1032 18.41L29.1438 18.3694L34.1142 16.0387L34.2155 15.9881L34.2307 16.0033L34.2864 15.9475L34.9856 15.5726L35.8622 14.9697L36.7134 14.2806L37.4531 13.5105L38.1118 12.6846L38.6336 11.8334L39.044 10.9518L39.2923 10.0955L39.3632 9.46728C39.3632 9.46728 39.3632 9.45715 39.3683 9.45715L39.3936 9.40142H39.3734L39.3632 9.37102ZM27.6947 10.6883L27.5883 10.6732L27.5782 10.6579V10.6681L25.8251 10.4198V10.3387L27.6896 10.4806V10.6833L27.6947 10.6883ZM25.668 11.1899V11.1393L27.4566 11.5345L27.4667 11.727H27.4262V11.7169L25.6731 11.195L25.668 11.1899ZM27.2032 12.2843C27.2032 12.2843 27.2134 12.2742 27.2134 12.2641V12.3857V12.3299C27.2134 12.3299 27.2134 12.2995 27.1982 12.2843H27.2032ZM26.6712 12.6593L26.5496 12.6187L25.288 12.0158V11.8993L26.9347 12.5579V12.7403L26.6814 12.6593H26.6712ZM26.8992 13.0697V13.0849C26.879 13.1305 26.8739 13.1609 26.8739 13.1862C26.8688 13.1913 26.8638 13.2014 26.8587 13.2115V13.0595L26.9043 13.0747L26.8992 13.0697ZM25.1208 13.0494V13.0595L24.7358 12.7809V12.5529L26.1342 13.4142V13.5814L25.1208 13.0545V13.0494ZM26.1088 13.9259V13.9766C26.0886 14.0019 26.0835 14.0323 26.0835 14.0577C26.0632 14.083 26.0379 14.1083 26.0328 14.1387C26.0075 14.1691 25.9923 14.1995 25.9822 14.2198H25.9467L25.9264 13.8297L26.1088 13.9259ZM24.7915 14.9241L24.7662 14.4326L25.0752 14.6809V14.7265C25.0752 14.7265 25.0702 14.7417 25.0651 14.7467C25.055 14.7619 25.0448 14.7873 25.0448 14.8025C25.0448 14.8126 25.0246 14.8379 25.0043 14.8531L24.9232 14.9342C24.9232 14.9342 24.8878 14.9697 24.8776 14.9747H24.832L24.8776 14.919H24.7915V14.9241ZM24.0112 13.475V13.2065L25.0702 14.159V14.1843H25.0955V14.3059L24.0112 13.475ZM23.3931 14.8379C23.3931 14.8379 23.3779 14.8025 23.3627 14.7822L23.2411 14.5643L23.7984 15.2635C23.7984 15.2635 23.7731 15.299 23.768 15.3091C23.7224 15.3547 23.6718 15.4054 23.6211 15.4307L23.6059 15.4409C23.6059 15.4409 23.5856 15.451 23.5603 15.451H23.4742L23.4438 14.9241H23.4032L23.3982 14.9038L23.4134 14.8937L23.388 14.8481L23.3931 14.8379ZM23.1296 13.9107V13.7283L23.8491 14.7315V14.7822H23.8744V14.8329L23.1296 13.9107ZM23.1144 13.1558L23.1347 13.1406H23.2259L24.2392 14.2451C24.2392 14.2451 24.1936 14.2603 24.1683 14.2755C24.1582 14.2806 24.143 14.2907 24.143 14.2958H24.1278C24.072 14.3161 24.0315 14.3515 23.996 14.3921L23.1144 13.1558ZM22.0352 15.7043L22.015 15.2939H22.0302L22.015 15.223L21.863 14.6353C21.863 14.6353 21.8934 14.6201 21.9086 14.6201L21.9846 14.5897L22.4355 15.6131H22.4051V15.6993C22.4051 15.6993 22.3696 15.755 22.3595 15.7702C22.3443 15.7854 22.3291 15.8006 22.319 15.8057H22.2987L22.2835 15.8209C22.2835 15.8209 22.248 15.831 22.2075 15.831H22.0454V15.7043H22.0352ZM20.9307 13.6676C20.9307 13.6676 20.9307 13.6625 20.9307 13.6574H21.26V13.6827H21.2854L21.6147 14.9494C21.6147 14.9494 21.5944 14.9494 21.5843 14.9494H21.4475C21.412 14.9494 21.3867 14.9595 21.3614 14.9646C21.3411 14.9697 21.3259 14.9747 21.3107 14.9747H21.2904L21.1435 13.7081V13.6676H20.9307ZM20.9307 15.9475C20.9307 15.9475 20.9104 15.9627 20.9003 15.9678L20.8851 15.9779C20.8851 15.9779 20.8496 16.0134 20.8395 16.0185H20.6216C20.6216 16.0185 20.6064 16.0134 20.6014 16.0083C20.5912 16.0033 20.576 15.9982 20.5608 15.9931L20.5304 15.9627V15.8715L20.5507 14.7163C20.5507 14.7163 20.5558 14.7163 20.5608 14.7163H20.6723V14.6657L20.7534 14.6403V14.691H20.8294L21.0016 15.8462H20.9256V15.9374L20.9307 15.9475ZM19.4563 12.8518L19.3347 12.8265C19.0966 12.7809 18.8483 12.7302 18.6152 12.6593C18.3771 12.5883 18.1187 12.4921 17.8299 12.3603C17.3131 12.1019 16.8976 11.803 16.5886 11.4686L16.5531 11.4281L16.5126 11.4686C16.4011 11.3521 16.3099 11.2355 16.239 11.1139C16.1275 10.9721 16.0464 10.8049 15.9958 10.6833C15.9248 10.5667 15.8691 10.4147 15.8387 10.2577C15.788 10.1057 15.7576 9.94355 15.7576 9.81182V9.35582L15.7678 9.29502C15.783 9.22408 15.7982 9.14808 15.8184 9.07715C15.7931 9.22408 15.7931 9.36595 15.7931 9.50782C15.7931 9.73075 15.8488 9.95875 15.9046 10.1766C15.9654 10.4198 16.092 10.6579 16.1832 10.815C16.2846 10.9923 16.4315 11.1697 16.5835 11.347L16.5176 11.4129H16.619C16.928 11.7473 17.2878 12.0158 17.7083 12.2286C17.9262 12.335 18.144 12.4465 18.3923 12.5275C18.6406 12.639 18.8939 12.6947 19.1371 12.7505C19.5779 12.8366 20.0491 12.8873 20.4544 12.8873V12.8619H20.7078C20.7888 12.8518 20.875 12.8467 20.9611 12.8417C21.1334 12.8315 21.3107 12.8163 21.4678 12.7809C21.716 12.7555 21.9694 12.6998 22.2126 12.6137C22.6838 12.4819 23.1499 12.2742 23.5603 12.0107C23.7376 11.9094 23.915 11.7574 24.072 11.6307L24.3659 11.3419C24.3912 11.3014 24.4267 11.2609 24.4571 11.2204C24.4926 11.1798 24.528 11.1342 24.5534 11.0987C24.6699 10.9619 24.751 10.8302 24.8219 10.6985C24.7712 10.815 24.7054 10.9315 24.6091 11.0633C24.4774 11.2507 24.3406 11.4382 24.148 11.6004C24.072 11.6763 23.991 11.7574 23.8795 11.8435C23.8238 11.8841 23.7731 11.9145 23.7174 11.9499C23.6616 11.9854 23.6059 12.0209 23.5552 12.0614C23.3171 12.2084 23.0739 12.3401 22.851 12.4414C22.6078 12.5478 22.3342 12.6339 22.0656 12.7099C21.7464 12.7961 21.4779 12.8467 21.1992 12.8721C20.6875 12.943 20.1099 12.9379 19.4411 12.8467L19.4563 12.8518ZM20.2416 13.8246L20.2214 14.9899C20.191 14.9849 20.1606 14.9798 20.1302 14.9798H19.9731C19.9427 15.0001 19.9224 15.0051 19.9022 15.0051L20.0846 13.7689H20.2416V13.8246ZM19.5323 15.3649L19.507 15.8563H19.4107L19.5019 15.9475H19.4968C19.4968 15.9475 19.4664 15.9627 19.4512 15.9627H19.2587C19.2587 15.9627 19.2232 15.9577 19.203 15.9475C19.1928 15.9475 19.1827 15.9374 19.1726 15.9374C19.1422 15.9121 19.0966 15.8867 19.0915 15.8867C19.0763 15.8766 19.0662 15.8665 19.0662 15.8715L19.4512 14.6657C19.4512 14.6657 19.4614 14.6707 19.4664 14.6707C19.5222 14.6859 19.583 14.6961 19.6235 14.6961L19.5526 15.1723L19.5374 15.1622V15.3091L19.5272 15.3598H19.5374L19.5323 15.3649ZM18.519 14.0526L18.4936 13.4851L18.5088 13.4548L18.4886 13.4446V13.3686H18.4683C18.4582 13.3382 18.4531 13.3129 18.4379 13.2875C18.5899 13.3331 18.7318 13.3686 18.8736 13.399C18.8584 13.4142 18.8483 13.4294 18.8382 13.4446L18.7926 13.4243L18.5088 14.0779V14.0425L18.519 14.0526ZM18.1136 14.9899L18.0528 15.0507L18.0832 15.0659L18.068 15.0963L18.0427 15.1521H18.068L18.0376 15.6689H17.84C17.84 15.6689 17.7894 15.6233 17.764 15.6182L17.6931 15.5473C17.6678 15.5219 17.6576 15.4865 17.6576 15.4662L18.3518 14.3819C18.3518 14.3819 18.372 14.4073 18.3872 14.4174L18.1542 14.9595L18.1187 14.995L18.1136 14.9899ZM16.5734 15.1875C16.5734 15.1875 16.5582 15.1723 16.548 15.1723C16.5379 15.1673 16.5328 15.1571 16.5227 15.1521C16.5126 15.147 16.4974 15.1318 16.4923 15.1369V15.1166L16.4771 15.1014C16.4771 15.1014 16.4416 15.0659 16.4366 15.0558V15.0254L16.4062 15.0102C16.3808 14.995 16.3808 14.995 16.3808 14.9747V14.919L16.695 14.6201C16.695 14.6201 16.695 14.6555 16.695 14.6758V14.7011L16.6696 15.1723H16.5531L16.5734 15.1926V15.1875ZM16.3403 14.5441V14.4225L16.3555 14.4022H16.3656V14.3921L17.2776 13.4243V13.6625L16.3403 14.5441ZM15.2814 14.3921C15.2814 14.3921 15.2459 14.3566 15.2408 14.3465V14.3262L15.2256 14.311C15.2256 14.311 15.2155 14.2907 15.2155 14.2654L15.4688 14.1083L15.4486 14.5137V14.539C15.4486 14.539 15.4182 14.5187 15.3979 14.5137C15.3827 14.4934 15.3675 14.4833 15.3523 14.4731C15.3422 14.4579 15.332 14.4427 15.3168 14.4326C15.3168 14.4326 15.3016 14.4225 15.3067 14.4275V14.4073L15.2915 14.3921H15.2814ZM15.2003 13.9158L15.1902 13.7486L16.4771 12.8163V13.0849L16.3251 13.2166L15.2003 13.9158ZM15.0939 13.2774C15.0939 13.2774 15.0686 13.2571 15.0534 13.247C15.0432 13.242 15.028 13.2267 15.023 13.2318V13.2115L15.0078 13.1963C15.0078 13.1963 15.0027 13.1862 14.9976 13.1862L16.4264 12.3603L16.4619 12.3958L16.472 12.4161V12.4566L15.1446 13.4041C15.1446 13.4041 15.1344 13.3635 15.1192 13.3433C15.1142 13.3331 15.104 13.3179 15.099 13.3179V13.2977L15.0838 13.2825L15.0939 13.2774ZM14.3035 13.0849L14.2934 12.9278L15.8488 12.1881V12.3249L15.0128 12.8062L14.3035 13.0849ZM14.4606 13.3686L14.4403 13.7537C14.4403 13.7537 14.4251 13.7334 14.4251 13.7283L14.415 13.7132C14.415 13.7132 14.3795 13.6777 14.3744 13.6676V13.6473C14.3491 13.6017 14.3491 13.5865 14.3491 13.5611V13.4193L14.4656 13.3737L14.4606 13.3686ZM14.1667 12.4009C14.1667 12.4009 14.1566 12.3857 14.1464 12.3806L14.2022 12.335L14.187 12.3198L15.8235 11.7219V11.8486L14.2376 12.6035C14.2376 12.6035 14.2326 12.5883 14.2326 12.5782C14.2326 12.5377 14.2123 12.5073 14.1971 12.4819C14.187 12.4617 14.1768 12.4515 14.1768 12.4414V12.4211L14.1616 12.4059L14.1667 12.4009ZM13.8576 12.0969L13.8475 12.0766L13.807 12.1171L13.7664 12.1323V12.1425L13.66 12.1627V11.9601L15.3878 11.4281V11.5395L13.8576 12.0969ZM13.9691 12.7403V12.8265H13.964V12.7302C13.964 12.7302 13.9691 12.7302 13.9691 12.7403ZM13.5992 11.5142C13.579 11.4737 13.5638 11.4281 13.5587 11.3876L15.3624 11.0379L15.3776 11.0582C15.3878 11.0683 15.3878 11.0785 15.3878 11.119L13.6043 11.6409V11.5193L13.5992 11.5142ZM15.1243 9.96382L13.2547 10.055V9.86755L15.1192 9.89288C15.1192 9.89288 15.1243 9.93848 15.1294 9.96382H15.1243ZM13.4979 9.00622V8.82888L15.1446 9.09742C15.1446 9.09742 15.1395 9.14808 15.1344 9.17342L13.4979 9.00622ZM13.3155 10.3489L15.1446 10.2577V10.3641L13.2699 10.6276L13.2547 10.3641H13.3256L13.3155 10.3539V10.3489ZM13.3054 10.9163L15.1395 10.6579V10.7492L13.4168 11.1089L13.3003 11.0633V10.9163H13.3054ZM14.035 8.04355V7.85608L15.4384 8.30702C15.4232 8.33235 15.4131 8.35768 15.3979 8.38808L14.035 8.04355ZM16.1478 11.9753C16.1883 12.0107 16.2238 12.0462 16.2643 12.0817L16.1579 12.1425L16.1478 11.9753ZM16.5126 13.4851L16.548 13.4649L17.1662 12.9227H17.1966C17.2168 12.9379 17.232 12.943 17.2472 12.9481L17.2624 12.9633C17.2624 12.9633 17.2624 12.9683 17.2675 12.9734L16.2744 14.0526C16.2542 14.0222 16.2339 14.0019 16.2187 13.9817L16.1376 13.9006C16.1376 13.9006 16.1022 13.8753 16.0819 13.8601L16.5176 13.4801L16.5126 13.4851ZM16.7963 12.8113V12.5073C16.8622 12.5529 16.923 12.5985 16.9888 12.639L16.7963 12.8062V12.8113ZM18.0376 13.3585H18.1187C18.139 13.3737 18.1542 13.3787 18.1694 13.3838V13.399L17.4347 14.6606L17.3587 14.5846C17.3587 14.5846 17.3486 14.5745 17.3435 14.5643C17.3232 14.539 17.2928 14.5035 17.2422 14.4883C17.227 14.4681 17.2118 14.463 17.1966 14.4579L18.0376 13.3585ZM17.5867 13.0849V12.9835H17.5664V12.9582C17.6171 12.9785 17.6627 13.0038 17.7184 13.0241C17.764 13.0393 17.8096 13.0595 17.8603 13.0747L17.6019 13.4193L17.5918 13.0798L17.5867 13.0849ZM18.1947 13.9817V14.0475L17.6222 14.9494V14.9393L18.1947 13.9817ZM17.8046 12.715C17.5867 12.6339 17.3992 12.5225 17.2118 12.4161C16.8318 12.1982 16.5227 11.9601 16.2744 11.6966L16.2998 11.6713L16.2694 11.6358C16.016 11.347 15.8488 11.1139 15.7323 10.8859L15.5702 10.4755C15.5296 10.3742 15.4891 10.2019 15.4739 10.1361L15.4638 10.0854V10.0297H15.4587C15.4587 9.99422 15.4536 9.95368 15.4486 9.91822L15.4587 9.49768H15.4334V9.35075H15.4587C15.4587 9.18862 15.4992 9.04675 15.5448 8.88462L15.5651 8.81875V8.80355C15.5651 8.74782 15.6006 8.66168 15.6158 8.63635L15.6259 8.62115H15.6512C15.6918 8.47928 15.7728 8.34248 15.859 8.19555C15.8792 8.16008 15.8995 8.12462 15.9198 8.08915C15.94 8.04862 15.9958 7.97262 16.016 7.94222H16.0211C16.0616 7.88648 16.1022 7.83582 16.1427 7.78515L16.1224 7.86622L16.1123 7.85608L16.0819 7.89662C16.0008 7.99795 15.935 8.11448 15.8691 8.22595C15.8488 8.26648 15.8235 8.30195 15.8032 8.33742C15.7171 8.47928 15.6614 8.64648 15.6056 8.81368C15.5499 8.97582 15.4942 9.14808 15.4942 9.32035V9.81182C15.4942 9.97902 15.5246 10.1513 15.5752 10.3134C15.6056 10.4654 15.6664 10.6326 15.7424 10.7897C15.8235 10.9518 15.9096 11.1241 16.0211 11.2609C16.1072 11.3673 16.2744 11.5598 16.3454 11.6358L16.3555 11.6459L16.3454 11.6662L16.4264 11.727H16.4315C16.7912 12.0969 17.2219 12.4059 17.7032 12.639C17.9768 12.7758 18.2555 12.8873 18.5291 12.9683C18.7723 13.0393 19.0408 13.0899 19.2992 13.1406C19.0003 13.0899 18.7166 13.0342 18.4531 12.9531L17.7995 12.7099L17.8046 12.715ZM15.859 7.64835L15.0787 7.31395L14.8406 7.16702L14.8507 6.98462L15.94 7.55715C15.9147 7.58755 15.8894 7.61795 15.859 7.65342V7.64835ZM19.1776 13.6321L18.828 14.8582C18.823 14.8582 18.8128 14.8481 18.8078 14.8481C18.7976 14.843 18.7875 14.8379 18.7774 14.8329C18.7419 14.8126 18.7064 14.7923 18.6558 14.7923H18.5595L19.056 13.6321H19.1776ZM19.5526 14.3515V14.3363H19.5475L19.5222 13.7182H19.5576V13.6676C19.5576 13.6676 19.5475 13.6219 19.5424 13.5966C19.5424 13.5865 19.5323 13.5662 19.5323 13.5561C19.5323 13.5459 19.5222 13.5307 19.5171 13.5206C19.6387 13.5358 19.7603 13.5459 19.8768 13.5561C19.8464 13.5865 19.8312 13.6219 19.8211 13.6523H19.7755L19.6691 14.3566H19.5475L19.5526 14.3515ZM20.8142 13.7385L20.7888 14.3566H20.7787L20.7838 14.3971L20.6115 14.4022V14.3769H20.5558V14.3515L20.5304 13.7689H20.5862V13.7182C20.5862 13.6777 20.576 13.6473 20.5659 13.627C20.5659 13.622 20.5608 13.6118 20.5608 13.6118V13.5915L20.5456 13.5763C20.6368 13.5763 20.723 13.5763 20.8142 13.5763V13.703H20.8091V13.7385H20.8142ZM21.5944 13.627L21.5843 13.5763H21.5742C21.5742 13.5459 21.5488 13.5155 21.5235 13.4851C21.6603 13.4598 21.787 13.4345 21.9136 13.4091C21.8934 13.4497 21.8782 13.4953 21.868 13.5257H21.8579V13.5662L21.8528 13.5713V13.5814L21.8478 13.627H21.8579L21.8326 14.2755H21.8478L21.8579 14.3009C21.8579 14.3009 21.8478 14.311 21.8376 14.3161H21.7768L21.5944 13.6169V13.627ZM22.2024 13.5865V13.5561H22.3291L22.9726 14.6961C22.9422 14.7062 22.9067 14.7062 22.8915 14.7062C22.8459 14.7062 22.8054 14.7315 22.775 14.7467C22.7648 14.7518 22.7547 14.7569 22.7547 14.7619H22.7344C22.7344 14.7619 22.704 14.7873 22.6888 14.7974L22.2024 13.5865ZM22.8358 13.3331L22.8155 13.779L22.6128 13.4041L22.6027 13.3939L22.547 13.2977L22.5216 13.3129C22.5216 13.3129 22.4912 13.2723 22.471 13.2673C22.5723 13.2369 22.6686 13.2065 22.7648 13.171C22.7902 13.1609 22.8104 13.1507 22.8358 13.1406C22.8104 13.2115 22.8104 13.2825 22.8104 13.2875V13.3382H22.8358V13.3331ZM22.7091 12.8822C22.2784 13.019 21.8123 13.1558 21.331 13.2065C21.184 13.2166 21.0371 13.2217 20.8902 13.2267C20.9915 13.2166 21.0979 13.2065 21.1992 13.1963C21.4982 13.171 21.8072 13.1153 22.1062 13.0292C22.4102 12.943 22.6888 12.8366 22.9624 12.7251C23.0435 12.6795 23.1296 12.6339 23.2107 12.5883C23.3779 12.4971 23.5502 12.4059 23.7022 12.3097L24.0264 12.0665C24.1379 11.9854 24.219 11.8993 24.3304 11.7878C24.523 11.5953 24.6902 11.4028 24.827 11.2102C24.9587 11.0278 25.0702 10.8099 25.1614 10.5718C25.2475 10.3387 25.3286 10.0955 25.3286 9.88275C25.3843 9.66488 25.359 9.42675 25.3286 9.18355C25.2982 8.96062 25.2171 8.73262 25.136 8.51475C25.0752 8.35262 24.9739 8.18035 24.8472 7.98782L24.7966 7.79528L24.8067 7.80542C24.9638 7.96248 25.0651 8.13982 25.1715 8.32728V8.45395L25.212 8.42862C25.2272 8.46408 25.2424 8.49448 25.2576 8.52488C25.3286 8.67182 25.3843 8.84408 25.4299 9.01128L25.4451 9.05182C25.4451 9.05182 25.4451 9.05182 25.4451 9.05688C25.4958 9.21902 25.4958 9.40142 25.4958 9.56355C25.4958 9.64462 25.4907 9.71555 25.4806 9.79155C25.4755 9.86755 25.4654 9.94355 25.4654 10.0246C25.44 10.1817 25.4096 10.3438 25.359 10.4705L25.3488 10.4907L25.3184 10.4806L25.3032 10.5262C25.2526 10.6833 25.1715 10.8454 25.0904 11.0076L25.0803 11.0227C24.9739 11.1798 24.8675 11.3369 24.7611 11.4737C24.68 11.5902 24.5686 11.6966 24.4622 11.7979C24.4267 11.8334 24.3912 11.8689 24.3558 11.8993C24.1987 12.0513 24.0416 12.1779 23.8694 12.2742C23.5552 12.4921 23.1651 12.6846 22.6838 12.867L22.7091 12.8822ZM24.9942 11.6611V11.879L24.8574 11.8132C24.903 11.7625 24.9486 11.7169 24.9942 11.6611ZM24.4166 12.2337V12.5427L24.2494 12.4211L24.2088 12.3958C24.2798 12.3401 24.3456 12.2894 24.4115 12.2337H24.4166ZM24.2139 12.3958L24.1886 12.4262C24.1886 12.4262 24.1835 12.4262 24.1784 12.4262C24.1886 12.4161 24.2038 12.4059 24.2139 12.4009V12.3958ZM23.7022 12.8974V13.2014L23.4387 12.9126L23.4235 12.9278H23.4184C23.4184 12.9278 23.4032 12.9075 23.3982 12.9025C23.4944 12.8569 23.5958 12.791 23.692 12.7353C23.692 12.7454 23.692 12.7555 23.692 12.7657V12.8974H23.7123H23.7022ZM24.0264 12.791V12.7454L24.0467 12.7099L24.0619 12.6998H24.0872L24.0974 12.6897L25.3488 13.6118C25.3488 13.6118 25.3387 13.627 25.3286 13.6321C25.3184 13.6422 25.3083 13.6574 25.3134 13.6625H25.2931L25.2779 13.6777C25.2779 13.6777 25.2576 13.6929 25.2526 13.6979C25.2222 13.7233 25.1816 13.7486 25.1867 13.7891C25.1867 13.7942 25.1715 13.8094 25.1664 13.8195C25.1664 13.8195 25.1664 13.8195 25.1664 13.8246L24.0366 12.7809L24.0264 12.791ZM24.751 12.183C24.751 12.183 24.756 12.1729 24.756 12.1678C24.7712 12.1577 24.7712 12.1323 24.7763 12.1121L26.2811 12.8315C26.2811 12.8315 26.2659 12.8518 26.2558 12.8619L26.2456 12.8771C26.2456 12.8771 26.2254 12.9126 26.2203 12.9278C26.2102 12.9481 26.195 12.9683 26.1899 12.9886C26.1747 13.0038 26.1696 13.0291 26.1595 13.0545L24.7459 12.1881L24.751 12.183ZM25.3134 11.5649V11.5395C25.3134 11.5395 25.3184 11.5142 25.3235 11.499C25.3336 11.4737 25.3387 11.4483 25.3387 11.4281L27.0158 11.9246C27.0006 11.9449 26.9904 11.9601 26.9854 11.9854C26.9651 12.031 26.96 12.0665 26.955 12.0918C26.9296 12.1323 26.9296 12.183 26.9296 12.2134L25.3134 11.5649ZM25.668 10.8049V10.7238L27.4515 10.9518V11.2204L25.668 10.8049ZM27.6896 10.1918L25.8251 10.0499V9.94862L27.6896 9.92328V10.1918ZM27.639 9.44195V9.62942H25.8302C25.8302 9.61928 25.8302 9.60408 25.8302 9.59395H25.8403V9.55848L27.639 9.44195ZM27.5832 8.87448V8.96568L27.5984 8.98088C27.5984 8.98088 27.6086 9.01128 27.6086 9.02648V9.12275L25.7947 9.26462C25.7947 9.22915 25.7846 9.19368 25.7795 9.15822L27.5832 8.87448ZM27.2742 8.59582L25.739 8.84408C25.7339 8.81368 25.7288 8.78835 25.7187 8.75795L27.264 8.40835L27.2742 8.59582ZM27.183 7.85608C27.183 7.85608 27.1931 7.89155 27.1931 7.90675V7.93208C27.2235 7.97768 27.2488 8.02835 27.2488 8.07395V8.10435L25.6123 8.47422C25.5971 8.44382 25.587 8.40835 25.5768 8.37795L27.183 7.85608ZM26.6206 7.64835L26.3976 7.75475V7.76995L25.3843 8.09928C25.3691 8.07395 25.3539 8.04862 25.3387 8.02328L26.6104 7.51155V7.64835H26.6206ZM26.4534 6.90355L26.5344 6.98462C26.5344 6.98462 26.5699 7.03528 26.58 7.05555L26.5902 7.07075C26.5902 7.07075 26.6003 7.09102 26.6003 7.11635V7.17715L25.1512 7.75982C25.1208 7.71928 25.0904 7.67875 25.055 7.63822C25.055 7.63822 25.055 7.63822 25.055 7.63315L25.2982 7.50648L25.3083 7.51662L25.3792 7.46595L26.4584 6.90862L26.4534 6.90355ZM25.7238 6.81235L25.136 7.24808L24.8675 7.38995L24.756 7.27848L25.7136 6.67048L25.7238 6.81235ZM25.4654 6.10302L25.4856 6.12835H25.5414L25.5819 6.16888V6.17902H25.6072C25.6072 6.17902 25.6224 6.19928 25.6275 6.20942L25.6376 6.22462C25.6376 6.22462 25.6731 6.27528 25.6832 6.29048L25.6934 6.30568C25.6934 6.30568 25.6934 6.32088 25.6984 6.33102L24.675 6.95422V6.72115L25.4654 6.10302ZM24.3608 7.32915H24.3507L24.3608 7.36968V7.65848H24.4368V7.67875C24.4368 7.78515 24.4267 7.91688 24.3912 8.08915C24.3659 8.21075 24.3203 8.36275 24.2595 8.50968C24.2342 8.55528 24.2088 8.60088 24.1835 8.64648C24.1328 8.73768 24.0872 8.82382 24.0163 8.90995C23.9099 9.04168 23.8035 9.17848 23.692 9.28995C23.4336 9.54835 23.1347 9.75608 22.8003 9.91315C22.6483 10.0145 22.4659 10.0955 22.2683 10.1513C22.172 10.1766 22.0656 10.207 21.9643 10.2323C21.863 10.2577 21.7616 10.2881 21.6704 10.3134C21.3158 10.4097 20.9459 10.4502 20.4291 10.4502C20.0035 10.4502 19.5982 10.3996 19.1827 10.2881C19.0003 10.2374 18.8078 10.1817 18.6254 10.1006C18.5443 10.0601 18.4531 10.0145 18.3619 9.97395C18.2758 9.93342 18.1896 9.89288 18.1086 9.85235C17.7944 9.68008 17.5208 9.47742 17.2574 9.21395L17.3131 9.15822L17.2776 9.12275C17.1662 9.01128 17.0648 8.90995 16.9838 8.77315C16.8976 8.65662 16.8216 8.52488 16.771 8.39822C16.7203 8.26648 16.6646 8.12968 16.6342 7.99288C16.5886 7.88142 16.5835 7.76995 16.5835 7.65848V6.71608C16.619 6.76675 16.6494 6.82248 16.6798 6.87315C16.7862 7.00995 16.999 7.24808 17.0091 7.25822L17.0344 7.28862L17.0547 7.27848C17.3384 7.55715 17.6374 7.78515 17.9515 7.95235C18.1187 8.03848 18.3214 8.12462 18.4987 8.20062C18.6912 8.28168 18.8787 8.33742 19.1067 8.39315C19.5171 8.50462 19.9528 8.56035 20.4038 8.56035H20.4595V8.61608C20.8294 8.61608 21.2347 8.57048 21.7008 8.47928L21.8072 8.44888C21.9744 8.40328 22.1467 8.35262 22.3088 8.28675L22.8864 8.03848C23.2614 7.83582 23.5704 7.57742 23.8238 7.34942C23.9606 7.21262 24.072 7.07075 24.1886 6.92888C24.2443 6.83262 24.3051 6.73128 24.3659 6.61982V7.33422L24.3608 7.32915ZM16.6342 4.94275C16.6494 4.89208 16.6595 4.84142 16.6747 4.79075C16.7102 4.65902 16.7355 4.54755 16.7963 4.42595C16.847 4.26888 16.923 4.14222 17.0395 3.96995C17.1104 3.82302 17.2118 3.69128 17.3587 3.54435C17.4904 3.41262 17.6272 3.27582 17.759 3.16942C17.9059 3.05288 18.063 2.94648 18.215 2.87555C18.5088 2.70328 18.8534 2.56142 19.2638 2.44488C20.1251 2.26248 20.728 2.26248 21.5894 2.44488C21.9846 2.52595 22.3342 2.65768 22.6686 2.85022C22.8206 2.92622 22.9827 3.02755 23.1195 3.13902C23.2563 3.27582 23.5299 3.51902 23.5299 3.52408L23.5654 3.55448L23.5806 3.56968C23.6363 3.63555 23.687 3.71155 23.7427 3.78755C23.7984 3.86355 23.8542 3.93955 23.9048 4.00035C23.9808 4.13208 24.0568 4.27902 24.148 4.46142C24.1987 4.56275 24.2291 4.67422 24.2544 4.78568C24.2696 4.85155 24.2899 4.91235 24.3102 4.97315C24.3608 5.12008 24.3608 5.27715 24.3608 5.45448H24.3355V5.48488L24.2646 5.55582H24.3304C24.3304 5.65715 24.3102 5.77875 24.2798 5.93075C24.2544 6.05235 24.2088 6.20435 24.148 6.35128C24.067 6.48808 23.9859 6.62488 23.9048 6.75662C23.8744 6.79208 23.8491 6.83262 23.8187 6.86808C23.7478 6.96435 23.6768 7.05555 23.5806 7.13662C23.3019 7.41528 23.0283 7.61288 22.7192 7.75475C22.5318 7.86115 22.3747 7.94222 22.1822 7.99795C22.0758 8.03342 21.939 8.06888 21.8123 8.10435C21.7464 8.12462 21.6755 8.13982 21.6147 8.16008C21.2702 8.25128 20.875 8.29688 20.3734 8.29688C19.9731 8.29688 19.5627 8.24115 19.1523 8.13475C18.9699 8.08408 18.7774 8.02835 18.595 7.94728C18.5139 7.90675 18.4227 7.86622 18.3366 7.82568C18.2504 7.78515 18.1592 7.74462 18.0832 7.70408C17.7944 7.53688 17.531 7.33422 17.2827 7.09102L17.308 7.06568L17.2726 7.03022C17.1662 6.92382 17.0598 6.81742 16.9787 6.68062C16.8926 6.56408 16.8166 6.43235 16.7659 6.31075C16.7507 6.27528 16.7355 6.23982 16.7203 6.20435C16.6747 6.10302 16.6342 6.01182 16.6342 5.92062V5.90035C16.6088 5.84968 16.6038 5.79902 16.5936 5.74835V5.43422H16.5784C16.5784 5.26702 16.6088 5.07448 16.6291 4.94782L16.6342 4.94275ZM16.3454 8.21075C16.3707 8.31715 16.4062 8.43368 16.4518 8.55022C16.5075 8.71742 16.5936 8.85928 16.6798 9.00115C16.7862 9.13288 16.9838 9.35582 17.004 9.38115L17.0395 9.42168C17.3232 9.70035 17.6272 9.93342 17.9464 10.1006C18.1136 10.1817 18.3062 10.2678 18.4936 10.3489C18.6507 10.4147 18.823 10.4654 18.9952 10.511L19.1016 10.5414C19.512 10.6529 19.9478 10.7086 20.3987 10.7086H20.4544V10.6579L20.5659 10.6833V10.7339C20.9358 10.7339 21.3411 10.6883 21.8022 10.5971C22.02 10.5667 22.2379 10.5059 22.4152 10.4299L22.9928 10.1817C23.3627 9.98408 23.6566 9.76115 23.9302 9.49262C24.072 9.35075 24.1886 9.20382 24.295 9.07208C24.3152 9.03662 24.3406 9.00115 24.3659 8.96062C24.4318 8.85422 24.5027 8.74782 24.5432 8.63128C24.5838 8.56542 24.6142 8.49448 24.6446 8.41848L24.7712 8.89982L24.7814 8.95048H24.7966C24.8422 9.09235 24.8624 9.23422 24.8624 9.39635C24.8624 9.55848 24.832 9.75608 24.8118 9.89795L24.7814 9.99928C24.7358 10.1411 24.6902 10.283 24.6243 10.4148C24.5432 10.5718 24.4368 10.7339 24.3304 10.9011C24.3051 10.9366 24.2747 10.967 24.2392 11.0025C24.2038 11.0379 24.1683 11.0734 24.143 11.1139L23.9251 11.3318C23.7832 11.4737 23.6464 11.57 23.4843 11.6865L23.4184 11.7371C23.0486 11.9753 22.623 12.1627 22.1518 12.3046C22.096 12.3198 22.0352 12.335 21.9744 12.3502C21.8022 12.3958 21.6299 12.4465 21.4475 12.4667C21.2144 12.5174 20.9459 12.5478 20.6926 12.5478C20.0744 12.5478 19.6286 12.5073 19.203 12.411C18.9648 12.3603 18.7166 12.3046 18.4987 12.2235C18.2808 12.1526 18.0528 12.0665 17.8502 11.955C17.4651 11.7777 17.1155 11.5142 16.8318 11.2001C16.6848 11.0481 16.5531 10.8707 16.4315 10.663C16.315 10.4908 16.239 10.2627 16.1934 10.1057C16.1427 9.92835 16.1123 9.71555 16.1123 9.51795C16.1123 9.32035 16.1427 9.10755 16.1934 8.93022L16.2086 8.87955H16.1984L16.3707 8.20568L16.3454 8.21075ZM15.9502 5.85475C15.9806 5.82435 16.0059 5.79395 16.0008 5.76355C16.0008 5.76355 16.0211 5.74835 16.0312 5.74328L16.0616 5.72302V5.69262H16.1478L16.2694 5.83448V6.20435L15.9198 5.92568C15.935 5.90035 15.9451 5.86995 15.9451 5.84968L15.9502 5.85475ZM15.8792 6.28035L16.2694 6.60462V6.76168L15.8742 6.38168V6.27528L15.8792 6.28035ZM14.8355 6.58942C14.8558 6.56408 14.876 6.53368 14.8811 6.51848C14.9064 6.49315 14.9267 6.45262 14.9368 6.43742L14.9875 6.38675C14.9875 6.38675 15.0027 6.38168 15.0128 6.38168L16.2592 7.21262L16.1731 7.29875C16.1731 7.29875 16.163 7.31395 16.1579 7.31902L14.8304 6.62995C14.8304 6.62995 14.8406 6.60462 14.8406 6.59448L14.8355 6.58942ZM14.1008 7.18222H14.1059L14.1008 7.20248V7.18222ZM14.0147 7.46088C14.04 7.42035 14.04 7.37475 14.04 7.35955C14.04 7.34942 14.0502 7.32408 14.0603 7.29875V7.27848C14.0603 7.27848 14.0704 7.26328 14.0806 7.25822L14.1008 7.23795L14.9267 7.59262L15.1344 7.71928L15.1547 7.68888L15.6563 7.90675C15.6563 7.90675 15.6512 7.91688 15.6462 7.92195L15.636 7.93208C15.6158 7.96755 15.5955 8.00302 15.5803 8.03342L14.0147 7.52675V7.45582V7.46088ZM13.4574 8.24115L13.4675 8.23102L13.9539 8.35262L14.0248 8.38808V8.37288L15.2611 8.68195C15.2611 8.69208 15.251 8.70222 15.251 8.71235C15.2408 8.73768 15.2358 8.76302 15.2256 8.78835L13.4118 8.48942V8.29182C13.4118 8.29182 13.432 8.25635 13.4523 8.24115H13.4574ZM15.1142 9.46728V9.57368L13.199 9.54835V9.30008L15.1142 9.47235V9.46728ZM3.08591 25.9339C3.00485 26.2227 3.00485 26.5166 3.00485 26.8003V26.9017C3.00485 26.9017 3.00485 26.9017 3.00485 26.9067L2.97445 26.9371L3.00485 26.9625C3.00485 27.0182 3.00485 27.079 3.01498 27.1347C3.02005 27.2158 3.02511 27.2918 3.03018 27.3779C3.04538 27.459 3.05551 27.535 3.07578 27.6059L2.66031 27.155L2.62485 27.1195C2.52351 27.0182 2.44245 26.9118 2.36138 26.775C2.28031 26.6433 2.22965 26.5065 2.17391 26.3747C2.10805 26.2075 2.06245 26.0555 2.03711 25.9086C1.98645 25.7819 1.98645 25.5995 1.98645 25.4374V25.3766L2.03205 25.331H1.98645V25.2246H1.91045H1.95605C1.95605 24.9865 1.99658 24.7382 2.09285 24.3937C2.17391 24.0998 2.28538 23.7958 2.41711 23.5019C2.55391 23.2081 2.71605 22.9041 2.90351 22.6102C3.09098 22.3113 3.31391 22.0123 3.55711 21.7134C3.76991 21.4195 4.04351 21.1459 4.31711 20.8723C4.58565 20.6038 4.88458 20.3555 5.18858 20.1123C5.51791 19.8438 5.80671 19.6361 6.11071 19.4587C6.38938 19.2814 6.69845 19.1243 6.99738 18.9774H7.04805L7.06831 19.023L12.216 16.6011L12.2616 16.5809C12.52 16.4643 12.7328 16.3123 12.9355 16.1603L12.9456 16.1502C12.9456 16.1502 12.976 16.1147 12.9912 16.0945L13.1382 16.2921C13.3611 16.5403 13.579 16.7481 13.7968 16.9457H13.7918C13.4574 17.047 13.1787 17.1585 12.9659 17.2801L12.9203 17.3054V17.3155L7.98031 19.8691L7.99045 19.8843C7.68645 20.0617 7.37738 20.2441 7.06831 20.4467C6.70858 20.6849 6.38431 20.9382 6.10565 21.1865C5.81178 21.455 5.50271 21.7337 5.22911 22.0377C4.96058 22.3315 4.68191 22.6406 4.46405 22.9649C4.25125 23.2233 4.08405 23.5171 3.92191 23.8009L3.83071 23.9529C3.65845 24.2771 3.48111 24.6267 3.36458 24.9713L3.31391 25.1334C3.22271 25.4273 3.13658 25.7009 3.09098 25.9542L3.08591 25.9339ZM13.28 15.3446L13.2952 15.2838C13.3155 15.2027 13.3358 15.1318 13.3358 15.0609V14.8379H13.3611V14.7822H13.3712L13.3611 14.7265V14.6809H13.351C13.3408 14.6251 13.3256 14.5694 13.3155 14.5086C13.3459 14.5339 13.3864 14.5542 13.3966 14.5593C13.4422 14.5795 13.4624 14.5998 13.4878 14.6251C13.503 14.6555 13.5283 14.6809 13.5486 14.7011C13.5688 14.7214 13.584 14.7366 13.5992 14.7619C13.6398 14.8227 13.6904 14.8937 13.7208 14.9291L13.7006 14.9443L13.7715 15.0153H13.7614L13.7867 15.0609C13.9792 15.3395 14.2326 15.5878 14.4808 15.8361C14.5315 15.8715 14.6328 15.9526 14.6936 16.0033L14.643 16.059H14.8102C14.8406 16.0843 14.871 16.1097 14.9014 16.1401C14.9368 16.1755 14.9723 16.211 15.0179 16.2414C15.0635 16.2718 15.104 16.3174 15.1496 16.3681C15.175 16.3985 15.2003 16.4238 15.2256 16.4491C15.3574 16.6062 15.4942 16.7734 15.636 16.9659C15.7019 17.047 15.7627 17.1331 15.8235 17.2193C15.8792 17.3003 15.94 17.3865 16.0008 17.4625C16.0008 17.4625 16.0008 17.4625 15.9958 17.4625C15.7931 17.3763 15.6056 17.2953 15.3979 17.2193C15.2814 17.1585 15.1902 17.1331 15.0939 17.1078C15.0128 17.0825 14.8203 17.0267 14.8152 17.0267C14.7595 17.0115 14.7088 16.9963 14.6632 16.9862C14.6176 16.971 14.572 16.9609 14.5163 16.9457C14.4099 16.9203 14.2174 16.8646 14.2174 16.8646L14.1819 16.8545C13.8982 16.6315 13.6195 16.363 13.3662 16.059C13.3104 16.0033 13.2192 15.8867 13.1686 15.8158C13.1686 15.6841 13.204 15.5726 13.2648 15.4662V15.4561L13.2699 15.3446H13.28ZM13.1939 17.8881L8.34511 20.4062V20.3961L8.29445 20.4214C7.99551 20.5835 7.69151 20.7507 7.37738 20.9787C7.08351 21.1915 6.77951 21.4145 6.51098 21.6577C6.23738 21.9009 5.96378 22.1795 5.71551 22.4531C5.44191 22.7267 5.21898 23.0358 5.00111 23.3297C4.76805 23.6185 4.57045 23.9681 4.42351 24.2366C4.28165 24.5001 4.13978 24.8142 4.01311 25.1739C3.90165 25.4729 3.82058 25.7819 3.76485 26.0809C3.69391 26.3494 3.68378 26.5977 3.68378 26.8409C3.67365 26.8611 3.65338 26.8662 3.59765 26.8662H3.43551C3.41018 26.8662 3.37978 26.851 3.34938 26.8409C3.34938 26.5723 3.37978 26.2835 3.43045 25.9998C3.47605 25.7465 3.56218 25.4881 3.65338 25.2195L3.69898 25.0777C3.80538 24.7534 3.97258 24.4241 4.13471 24.0998C4.27151 23.8211 4.46911 23.5121 4.73258 23.1473C4.93018 22.8483 5.16325 22.5545 5.46725 22.2251C5.74085 21.9262 6.00938 21.6577 6.31845 21.379C6.61231 21.1409 6.91124 20.8926 7.23551 20.6798C7.50911 20.4771 7.82831 20.2846 8.18298 20.1123L8.22351 20.0921L13.1635 17.5283L13.1483 17.4979C13.3763 17.3814 13.6296 17.3003 13.8779 17.2243C13.9286 17.2041 14.0198 17.1889 14.0704 17.1787L14.0856 17.1939L14.1008 17.1737H14.1464C14.2022 17.1889 14.2478 17.199 14.2934 17.2142C14.344 17.2294 14.3896 17.2446 14.4454 17.2547C14.5518 17.2801 14.7392 17.3358 14.7392 17.3358C14.7798 17.351 14.8254 17.3611 14.871 17.3763C14.9216 17.3915 14.9672 17.4017 15.0128 17.4169C15.0635 17.4321 15.1091 17.4473 15.1547 17.4675C15.1699 17.4726 15.1902 17.4777 15.2054 17.4878C15.0888 17.4827 14.9723 17.4827 14.8608 17.4827C14.5568 17.4827 14.2782 17.5385 14.0046 17.5942C13.7259 17.6499 13.4726 17.7614 13.2294 17.8678L13.1787 17.8931V17.9083L13.1939 17.8881ZM4.71231 28.9587L4.20058 28.7155L3.78511 28.3609H3.78005C3.71418 28.2899 3.65338 28.2139 3.61791 28.1379C3.56218 28.0265 3.50138 27.8795 3.45578 27.7579C3.38485 27.5806 3.34938 27.4438 3.34938 27.3323C3.33925 27.2614 3.33418 27.1905 3.32911 27.1195C3.36458 27.1297 3.40005 27.1449 3.43551 27.1449H3.62805C3.62805 27.1449 3.67365 27.1449 3.69898 27.1347C3.70911 27.3323 3.72938 27.5147 3.76991 27.6819C3.79525 27.7934 3.82565 27.9049 3.88138 28.0214C3.94218 28.143 3.99285 28.2443 4.04858 28.3254C4.10431 28.4065 4.16005 28.4926 4.24618 28.5787C4.32218 28.6547 4.41338 28.7459 4.49951 28.8017C4.58058 28.8574 4.66671 28.9131 4.77311 28.9638C4.77818 28.9638 4.78831 28.9689 4.79338 28.9739L4.71231 28.9537V28.9587ZM15.7526 25.3817C15.4739 25.2955 15.1902 25.2955 14.8912 25.2955C14.5923 25.2955 14.3086 25.3513 14.035 25.407C13.7715 25.4577 13.5334 25.5641 13.3003 25.6654L13.2648 25.6806L13.2142 25.7059L8.29445 28.2494L8.25391 28.2697V28.2798C7.94991 28.4318 7.66111 28.5585 7.40271 28.6547C7.10885 28.7611 6.83525 28.8169 6.56671 28.8726C6.29818 28.9283 6.04991 28.9283 5.81178 28.9283C5.58885 28.9283 5.34058 28.8675 5.17338 28.8219L5.12271 28.8067C5.05178 28.7865 4.97071 28.7611 4.91498 28.7206L4.66671 28.5534C4.58565 28.5027 4.51471 28.4521 4.45898 28.371C4.40831 28.3203 4.35258 28.2393 4.30191 28.1582C4.25125 28.0822 4.19551 27.9758 4.17018 27.8897L4.13978 27.8339C4.09925 27.7529 4.06378 27.687 4.06378 27.5958C4.01311 27.383 4.01311 27.1702 4.01311 26.927V26.8763H3.99285C3.99791 26.6483 4.02325 26.4102 4.06885 26.1721C4.12458 25.8883 4.21071 25.5843 4.31205 25.3057C4.41845 25.0067 4.55525 24.7078 4.71738 24.4139C4.87445 24.1201 5.04165 23.8211 5.25951 23.5171C5.48751 23.203 5.70031 22.9395 5.93845 22.6761C6.18671 22.4025 6.46031 22.1542 6.72378 21.9161C6.99231 21.6779 7.26591 21.4297 7.56485 21.2371C7.86378 21.0193 8.16271 20.8571 8.46165 20.695L8.48191 20.6849L13.3662 18.1465L13.3966 18.1313C13.5891 18.035 13.8374 17.9185 14.1008 17.8627C14.3187 17.7918 14.572 17.7563 14.876 17.7563C15.1446 17.7563 15.4131 17.7817 15.6867 17.8374C15.9299 17.8881 16.1528 17.9641 16.3555 18.0553V21.8907H16.3454L16.3656 25.559C16.1731 25.4881 15.9755 25.4273 15.7627 25.3817H15.7526ZM27.8822 17.3915H27.8568L27.7099 21.3689V21.4195C27.7099 21.6273 27.6795 21.8451 27.6339 22.0326C27.5782 22.2505 27.4971 22.4734 27.416 22.6811C27.335 22.8939 27.2286 23.1118 27.0918 23.3297C26.9904 23.5019 26.8384 23.7147 26.6611 23.9225C26.504 24.1099 26.3115 24.2974 26.1291 24.4849V24.495C25.9062 24.6875 25.6832 24.8497 25.4704 25.0118C25.0144 25.3361 24.4926 25.6097 23.9251 25.8225C23.3576 26.0403 22.7547 26.2025 22.1315 26.3089C21.5894 26.4051 21.0016 26.4457 20.2315 26.4457C19.6438 26.4457 19.0307 26.3747 18.3619 26.2278C17.7539 26.091 17.1915 25.9035 16.6848 25.6806V25.6654L16.6696 25.6401L16.6494 21.8857H16.6342V17.8931L16.6544 17.8779L16.624 17.8374C16.624 17.8374 16.6088 17.8121 16.5987 17.8019L16.5936 17.7969C16.5024 17.6753 16.3555 17.4625 16.3555 17.4625L16.2744 17.3257C16.1832 17.1889 16.0414 16.9862 15.8894 16.8038C15.8286 16.7329 15.7678 16.6569 15.712 16.591C15.6208 16.4795 15.5347 16.3681 15.4536 16.2921C15.3979 16.2059 15.3118 16.1198 15.2358 16.0489C15.18 15.9627 15.0128 15.8259 15.0078 15.8209L14.9672 15.7905L14.9368 15.831L14.9216 15.8209C14.8456 15.7702 14.7646 15.6891 14.6835 15.6081C14.4555 15.3801 14.2528 15.1521 14.0755 14.9291L14.0856 14.919L14.0198 14.8227L14.04 14.8075L13.9944 14.7619C13.9691 14.7366 13.9438 14.7011 13.9134 14.6707C13.883 14.6353 13.8576 14.5998 13.8272 14.5745L13.6955 14.4427C13.6651 14.3819 13.6296 14.3465 13.5688 14.3161H13.5536C13.5536 14.3161 13.5334 14.3009 13.5232 14.2907C13.4979 14.2755 13.4776 14.2603 13.4574 14.2553C13.3966 14.2249 13.3611 14.2249 13.3358 14.2249H13.1534L13.204 12.0867L13.2547 12.1121L13.28 12.0766L13.3054 12.1222V12.1729C13.3054 12.1729 13.3256 12.1678 13.3358 12.1627V12.4161H13.3915V12.6035L13.4067 12.6187C13.4067 12.6187 13.4168 12.6491 13.4168 12.6897C13.4168 12.7099 13.427 12.7353 13.432 12.7606C13.432 12.7707 13.4422 12.791 13.4422 12.8011V12.8214C13.4422 12.8214 13.4675 12.8619 13.4776 12.8771C13.4827 12.8873 13.4928 12.9025 13.4928 12.9075C13.4928 12.943 13.5182 12.9683 13.5334 12.9835C13.5334 12.9835 13.5435 12.9937 13.5435 12.9886V13.0089L13.5942 13.0595L13.7563 13.1659V13.0849L13.7867 13.0697L13.8424 13.095L13.8779 13.1305C13.8779 13.1305 13.9286 13.095 13.9488 13.0849L13.9792 13.0697V12.8721H13.9843V13.3889H14.0096V13.5206L14.0248 13.5358C14.0248 13.5358 14.035 13.5713 14.035 13.6118V13.6321L14.0502 13.6473C14.0502 13.6473 14.0907 13.7081 14.0907 13.7182C14.0907 13.7486 14.1059 13.7739 14.1262 13.7993C14.1312 13.8094 14.1414 13.8246 14.1464 13.8246V13.8449C14.1819 13.9057 14.2123 13.9361 14.2427 13.9665C14.2528 13.9766 14.2579 13.9867 14.263 13.9969C14.2883 14.0273 14.3136 14.0678 14.3592 14.0678H14.496V14.0932H14.6278L14.6024 14.0323C14.6379 14.0222 14.6632 14.0019 14.6683 13.9969C14.7088 13.9563 14.7088 13.9158 14.7088 13.9057V13.8398H14.7392L14.7595 13.4041C14.7747 13.4193 14.795 13.4497 14.8 13.4699L14.8102 13.4851C14.8102 13.4851 14.8456 13.5206 14.8507 13.5307V13.7182H14.876V14.3465C14.876 14.3465 14.8963 14.387 14.9014 14.4073C14.9115 14.4377 14.9216 14.4731 14.9419 14.4985C14.9926 14.5491 15.0078 14.5694 15.0078 14.5694V14.5897L15.023 14.6049C15.023 14.6049 15.0432 14.6353 15.0584 14.6505C15.0736 14.6758 15.0888 14.6961 15.104 14.7113C15.1547 14.7619 15.1902 14.7923 15.2256 14.8025C15.2611 14.8329 15.3168 14.8633 15.3574 14.8633H15.4587L15.4739 14.8481C15.4739 14.8481 15.5296 14.8177 15.5651 14.8075L15.636 14.7822L15.6158 14.7569H15.631L15.6664 14.7923C15.6968 14.7619 15.7374 14.7214 15.7374 14.6758V14.5947L15.7627 14.1286H15.8184C15.8184 14.1286 15.859 14.1641 15.8742 14.1742L15.9248 14.2249C15.9248 14.2249 15.9603 14.2755 15.9704 14.2958L15.9806 14.311C15.9806 14.311 15.9907 14.3313 15.9907 14.3465L16.0008 14.843H15.9907L16.0008 14.8582V14.9646H16.0464V15.0659C16.0464 15.1217 16.0667 15.1571 16.087 15.1875C16.092 15.1977 16.1022 15.2078 16.1072 15.223L16.1174 15.2382C16.1174 15.2382 16.1427 15.2686 16.1528 15.2838C16.168 15.3041 16.1782 15.3243 16.1934 15.3395C16.2238 15.4003 16.2592 15.4358 16.32 15.4662C16.3352 15.4713 16.3454 15.4814 16.3555 15.4865C16.391 15.5067 16.4264 15.527 16.4771 15.527H16.6139V15.4763L16.6696 15.5017V15.5523H16.8014C16.8622 15.5169 16.923 15.4561 16.923 15.4561L16.9635 15.4155L16.9027 15.3649C16.928 15.3345 16.9382 15.3091 16.9382 15.2787V15.2483H16.9635L16.9888 14.7974V14.7569H17.08L17.0598 14.7366C17.0598 14.7366 17.1003 14.7518 17.1155 14.7569C17.1459 14.7822 17.1915 14.8025 17.2067 14.8075C17.2118 14.8075 17.2219 14.8278 17.227 14.8379L17.2371 14.8531H17.2523C17.2523 14.8531 17.2675 14.8785 17.2726 14.8886L17.232 14.9038L17.2472 15.0001H17.2827L17.308 15.4409V15.4915H17.3182C17.3283 15.5878 17.3587 15.6739 17.4296 15.7449C17.46 15.8057 17.4955 15.8361 17.5563 15.8715C17.5715 15.8817 17.5867 15.8918 17.6019 15.9019C17.6272 15.9222 17.6576 15.9475 17.6982 15.9526C17.7387 15.983 17.7995 15.983 17.8552 15.983H17.9363V16.0083H18.0427C18.0782 15.983 18.139 15.9526 18.1542 15.9526H18.1795C18.2454 15.9121 18.3011 15.831 18.3062 15.8209V15.8107H18.3214V15.7854L18.3366 15.7753L18.3467 15.7347L18.3568 15.7246H18.3467L18.367 15.6385H18.3467L18.367 15.2281V15.2027L18.3974 15.1369H18.5848C18.5848 15.1369 18.6 15.1419 18.6051 15.147C18.6152 15.1521 18.6304 15.1571 18.6456 15.1622L18.6862 15.2027L18.6963 15.223V15.2787L18.7216 15.7753V15.8259C18.7216 15.8614 18.7318 15.8867 18.7368 15.9121C18.7419 15.9323 18.747 15.9475 18.747 15.9627V15.983L18.7622 15.9982C18.7622 15.9982 18.7723 16.0134 18.7774 16.0235C18.7875 16.0489 18.8078 16.0945 18.8584 16.1147C18.8736 16.1249 18.8888 16.135 18.904 16.1502C18.9294 16.1705 18.9547 16.1958 19.0003 16.2009C19.0358 16.2313 19.0966 16.2566 19.1574 16.2566H19.3195V16.2059L19.3448 16.2313V16.2819H19.4816C19.5475 16.2819 19.6134 16.2515 19.6488 16.2161C19.7096 16.1806 19.7654 16.1046 19.7704 16.0945L19.8008 16.0489L19.6995 15.9931V15.983H19.7755V15.8563L19.8008 15.4003H19.816V15.375L19.8819 15.4105V15.3446H19.9072V15.3193H20.1504C20.1504 15.3193 20.1656 15.3243 20.1707 15.3294C20.1808 15.3395 20.1808 15.3446 20.1808 15.3446V15.4206L20.2062 15.8766V15.8918H20.1808V15.9425C20.1808 15.9779 20.2011 16.0286 20.2416 16.0995L20.2518 16.1147C20.2518 16.1147 20.267 16.1299 20.272 16.1401C20.2923 16.1705 20.3227 16.211 20.3734 16.2313C20.4291 16.2617 20.4899 16.2921 20.5608 16.2921H20.6622V16.3174C20.7027 16.3174 20.7331 16.3123 20.7635 16.3022C20.7888 16.2971 20.8142 16.2921 20.8344 16.2921L21.0219 16.2059C21.0776 16.1755 21.1435 16.1451 21.1587 16.0742C21.1992 16.0235 21.2094 15.9475 21.2144 15.9121H21.2702V15.8766H21.2803V15.8411L21.3006 15.3851H21.3107L21.3056 15.3395V15.2939H21.3006C21.3006 15.2939 21.331 15.2585 21.336 15.2585H21.5944L21.6096 15.2686V15.3294L21.6603 15.3142V15.3294L21.6856 15.7651L21.635 15.7753L21.6654 15.8057L21.6907 15.8563C21.7211 15.9171 21.7515 15.9729 21.7819 16.0033L21.7971 16.0134C21.7971 16.0134 21.8275 16.0337 21.8427 16.0438C21.868 16.0641 21.8984 16.0945 21.944 16.0995C21.9947 16.1249 22.0454 16.1249 22.091 16.1249V16.1502H22.2278C22.2683 16.1502 22.3038 16.135 22.3342 16.1198C22.3544 16.1097 22.3798 16.0995 22.395 16.0995H22.4152C22.471 16.0641 22.5267 16.0134 22.5672 15.9729L22.5774 15.9577C22.5774 15.9577 22.5976 15.9273 22.6078 15.9121C22.628 15.8867 22.6584 15.8563 22.6635 15.8107C22.6736 15.7803 22.6838 15.7449 22.6888 15.7145H22.7699L22.7851 15.1369C22.7902 15.1217 22.8003 15.1065 22.8104 15.0963H22.8206V15.071C22.8206 15.071 22.8408 15.0558 22.851 15.0507L22.8662 15.0406L22.8763 15.0254C22.8915 15.0001 22.8915 15.0001 22.9118 15.0001H23.079L23.0942 15.0609H23.1094L23.1296 15.4611H23.1144L23.155 15.5523H23.1448L23.1651 15.5979C23.1904 15.6486 23.2411 15.7145 23.2968 15.7297C23.3576 15.7854 23.3982 15.7905 23.459 15.7905H23.5147V15.7347H23.5907L23.6059 15.7195C23.6059 15.7195 23.6667 15.679 23.7072 15.679H23.7275C23.8238 15.6233 23.9251 15.5675 23.9859 15.4713C24.0416 15.4155 24.0771 15.3801 24.0822 15.3091C24.0923 15.2889 24.0923 15.2737 24.0974 15.2534H24.148L24.1683 14.6454H24.1734L24.1683 14.6353L24.1328 14.5897C24.1582 14.5643 24.1886 14.539 24.219 14.5238L24.2342 14.5137C24.2342 14.5137 24.2646 14.5035 24.2798 14.5035H24.4064L24.4216 14.4934L24.452 15.0001H24.4774V15.0457L24.4926 15.0609C24.4926 15.0609 24.5179 15.0963 24.528 15.1166L24.5078 15.1369L24.5432 15.1723C24.5736 15.2027 24.6142 15.2433 24.6902 15.2433H24.7712V15.2686H24.827C24.8675 15.2686 24.903 15.2585 24.9334 15.2483C24.9435 15.2483 24.9587 15.2382 24.9638 15.2382H24.984L24.9992 15.223C25.0246 15.1977 25.0448 15.1723 25.0955 15.1521C25.1462 15.1267 25.1766 15.0862 25.1968 15.0609C25.2019 15.0507 25.212 15.0406 25.2171 15.0355C25.2728 14.9798 25.3032 14.9443 25.3083 14.9089C25.3134 14.8987 25.3184 14.8886 25.3235 14.8785C25.3438 14.843 25.364 14.8075 25.364 14.7569V14.0374C25.3843 14.0121 25.3894 13.9817 25.3894 13.9563C25.4096 13.931 25.4299 13.9006 25.435 13.8854L25.4856 13.8347H25.4958V13.8094C25.4958 13.8094 25.5059 13.7993 25.516 13.7942H25.5464L25.5768 13.8094L25.6022 14.2755H25.6174V14.3667L25.6934 14.4427L25.6832 14.4579L25.7136 14.4883C25.7542 14.5289 25.8352 14.5289 25.8606 14.5289V14.4782L25.8859 14.4529V14.5035H25.9923C26.0683 14.5035 26.1088 14.463 26.1392 14.4326L26.2203 14.3515C26.271 14.3009 26.3014 14.2654 26.3115 14.2299C26.3368 14.2046 26.3622 14.1691 26.3672 14.1134C26.3976 14.0779 26.3976 14.0374 26.3976 13.9867V13.2521H26.3723V13.2115C26.3723 13.2115 26.3723 13.2014 26.3723 13.1963L26.3875 13.171H26.3824C26.3824 13.171 26.3926 13.1406 26.3976 13.1305C26.4179 13.1051 26.4382 13.0747 26.4432 13.0595L26.499 13.0038L26.5192 13.4294H26.5395V13.4902L26.5699 13.5662L26.6307 13.6321V13.6473H26.6459L26.6662 13.6676L26.6864 13.6473H26.8283L26.803 13.5915H26.8536L26.8688 13.5763L26.8891 13.5662H26.9094L26.9246 13.551C26.9246 13.551 26.9448 13.5358 26.9499 13.5307C26.9803 13.5105 27.0107 13.4851 27.0158 13.4497C27.0259 13.4345 27.031 13.4193 27.0411 13.4091C27.0563 13.3889 27.0664 13.3686 27.0715 13.3483C27.0918 13.323 27.1171 13.2825 27.1222 13.247C27.183 13.2065 27.183 13.1558 27.183 13.1051V12.9329H27.2083V12.5681C27.2083 12.5681 27.264 12.6137 27.2894 12.6289L27.2792 12.6593H27.335L27.3806 12.6897L27.3907 12.6593C27.4262 12.6593 27.487 12.6593 27.5224 12.6187L27.5478 12.5934C27.5883 12.5529 27.5883 12.5123 27.5883 12.5022V12.487C27.5883 12.487 27.5984 12.4667 27.6035 12.4617C27.6187 12.4313 27.639 12.4009 27.644 12.3603C27.6998 12.2945 27.6998 12.2286 27.6998 12.1779V11.9246H27.7099L27.8467 17.1483V17.351L27.8822 17.3915ZM28.0088 9.71555H27.9683L27.9531 9.21395H27.8214V9.11262H27.796V8.89982C27.8315 8.88462 27.872 8.86435 27.9075 8.85422L27.9582 8.83395L28.0038 8.81875L32.9134 6.27528H32.9235C33.4504 6.00675 33.8507 5.84968 34.2206 5.75342C34.4334 5.69768 34.6563 5.64702 34.8488 5.61662C35.0312 5.56595 35.2136 5.56595 35.4062 5.56595C35.5227 5.56595 35.619 5.57608 35.7152 5.58115C35.7963 5.58622 35.8774 5.59635 35.9432 5.59128C36.1003 5.61662 36.2675 5.64702 36.3992 5.69768C36.4246 5.70782 36.4499 5.71795 36.4752 5.72808L36.7438 5.85475L37.1187 6.17902L37.5392 6.62995C37.4075 6.58435 37.2859 6.54382 37.1592 6.52862C36.9667 6.50328 36.7488 6.47288 36.5512 6.47288C36.455 6.47288 36.3587 6.47795 36.2574 6.48808C36.151 6.49315 36.0344 6.50328 35.9179 6.50328C35.6747 6.52862 35.4518 6.55902 35.2288 6.61475C34.8995 6.69582 34.3979 6.84782 33.876 7.09102L28.6827 9.53315C28.4294 9.64462 28.2115 9.80168 28.0088 9.95368V9.71555ZM38.7552 10.3033L38.74 10.3793C38.6792 10.6731 38.5576 10.9974 38.4715 11.2153C38.355 11.5041 38.2182 11.7726 38.0408 12.0563C37.8686 12.3401 37.6811 12.6086 37.443 12.8974L37.4024 12.9481C37.1795 13.2217 36.9667 13.4801 36.7083 13.7132C36.4651 13.9817 36.1763 14.2198 35.8976 14.4427C35.6038 14.6555 35.3048 14.8785 35.0008 15.071C34.7475 15.2331 34.4435 15.3902 34.0787 15.5574L34.0331 15.5777L28.9968 17.9387L28.9867 17.9185L28.9411 17.9641L28.9056 17.9793C28.9056 17.9793 28.8904 17.9894 28.8803 17.9945L28.8398 18.0097L28.7942 18.0249V18.035C28.627 18.1363 28.4496 18.2579 28.2824 18.3998C28.2318 18.4403 28.1862 18.491 28.1355 18.5417L28.176 17.4777H28.2014V17.1331L28.0544 11.347C28.0798 11.266 28.1203 11.195 28.1963 11.0987C28.247 11.0227 28.3534 10.9164 28.4294 10.8404L28.7536 10.5971C28.8854 10.5211 29.1083 10.3945 29.1286 10.3843L34.2763 7.98782L34.2662 7.96755L34.3422 7.93715C34.6056 7.82568 34.8488 7.72435 35.0971 7.65342C35.391 7.57235 35.6899 7.49128 35.9534 7.46595H36.7691C37.0174 7.49128 37.2606 7.54702 37.4734 7.62808C37.5646 7.64835 37.6659 7.69902 37.7571 7.75982H37.7723C37.8432 7.78515 37.904 7.83075 37.9598 7.87635C37.9851 7.89155 38.0054 7.91182 38.0256 7.92195C38.132 8.00302 38.1878 8.05368 38.2587 8.12968C38.2891 8.17022 38.3195 8.21582 38.355 8.25635C38.3904 8.29688 38.4208 8.33742 38.4462 8.37795C38.4968 8.45395 38.5526 8.53502 38.6032 8.64142C38.6134 8.67182 38.6286 8.70728 38.6438 8.74782C38.6691 8.80862 38.6944 8.87448 38.7147 8.94542C38.7856 9.13288 38.8211 9.35582 38.8211 9.62435L38.7603 9.74088H38.8363C38.8262 9.92835 38.7907 10.1158 38.7502 10.3134L38.7552 10.3033ZM38.9478 8.74782C38.9224 8.67688 38.8971 8.60595 38.8667 8.54008C38.8414 8.48435 38.811 8.43368 38.7806 8.38808C38.7552 8.34248 38.7248 8.29182 38.6944 8.23102L38.6488 8.17022C38.588 8.08915 38.5424 8.02328 38.4766 7.96248C38.436 7.90168 38.3752 7.84595 38.3094 7.79022C38.279 7.76488 38.2486 7.73448 38.2131 7.70408C38.1928 7.68888 38.1726 7.67875 38.1523 7.66355C38.0814 7.61288 37.9952 7.55715 37.9192 7.51662C37.8432 7.45582 37.7672 7.42542 37.6912 7.39502C37.6558 7.37982 37.6203 7.36462 37.5798 7.34435C37.3366 7.26328 37.0832 7.17715 36.8147 7.17715C36.5411 7.12142 36.2675 7.14675 35.9787 7.17715H35.9534C35.6848 7.20248 35.4112 7.27342 35.1275 7.34435L35.0211 7.36968C34.7374 7.44062 34.479 7.54702 34.2054 7.66355L34.0128 7.74462L34.023 7.76995L28.9867 10.1006L28.936 10.1259V10.1361C28.8246 10.1918 28.7131 10.2577 28.5966 10.3236C28.5054 10.3793 28.4294 10.4451 28.3534 10.5059C28.3128 10.5363 28.2774 10.5718 28.2318 10.6022C28.1608 10.6731 28.1 10.7491 28.0443 10.8201V10.6883L28.0848 10.4553L28.0392 10.4451L28.0646 10.2881C28.0646 10.2881 28.0848 10.2729 28.095 10.2627C28.1304 10.2323 28.1659 10.207 28.1862 10.1817C28.4192 10.0043 28.632 9.87768 28.86 9.77635L28.9056 9.75608L33.9166 7.39502L33.9622 7.37475C34.4131 7.16195 34.8691 6.99982 35.315 6.88835C35.5278 6.83768 35.7456 6.78195 35.9584 6.78195H36.5563C36.7235 6.78195 36.8654 6.80222 37.0275 6.82755L37.0883 6.83768C37.2504 6.86302 37.4126 6.91875 37.5747 6.97448C37.7318 7.02515 37.8635 7.10622 38.0003 7.18728C38.1219 7.25822 38.3094 7.44568 38.3347 7.47102V7.48115L38.7147 8.01822L38.9528 8.65662L38.9731 8.84915C38.963 8.81875 38.9478 8.78328 38.9376 8.75795L38.9478 8.74782Z" fill="#C7E7DC"/>
<path d="M17.9059 5.33794C17.987 5.47474 18.1745 5.69261 18.1846 5.69767L18.2201 5.73821L18.2403 5.71794C18.4734 5.94087 18.7115 6.11314 18.9598 6.22461C19.1017 6.31074 19.2689 6.36647 19.431 6.42221C19.5881 6.47287 19.7857 6.53367 19.9529 6.53367C20.0998 6.55901 20.2518 6.55901 20.3987 6.56407V6.61474C20.571 6.61474 20.7281 6.59447 20.8902 6.56914L20.951 6.55901C21.2803 6.50834 21.6046 6.40701 21.9491 6.24994L22.3494 6.00674C22.4406 5.97634 22.5014 5.91554 22.5622 5.85981L22.7294 5.69261L22.7699 5.63687C22.8459 5.54061 22.927 5.42407 22.9777 5.33287C23.0587 5.19607 23.1195 5.07954 23.1449 4.94274C23.2006 4.79581 23.2006 4.65394 23.2006 4.51207C23.2006 4.39554 23.1753 4.25874 23.1449 4.12194C23.1145 3.98007 23.0587 3.86354 22.9777 3.72167C22.9219 3.62541 22.8206 3.49874 22.7547 3.42274L22.8155 3.36194L22.7801 3.32647C22.5318 3.07821 22.2785 2.89581 22.0049 2.77421C21.863 2.68807 21.6958 2.63234 21.5286 2.57661C21.3715 2.52594 21.1739 2.46514 21.0067 2.46514C20.647 2.40941 20.2873 2.40941 19.9275 2.46514C19.5982 2.51581 19.2689 2.61714 18.9294 2.77421L18.5291 3.01741C18.4379 3.04781 18.3771 3.10861 18.3163 3.16434L18.1491 3.33154L18.1086 3.38727C18.0326 3.48861 17.9465 3.60007 17.9009 3.69127C17.8198 3.82807 17.759 3.94461 17.7337 4.08141C17.6729 4.22834 17.6729 4.37021 17.6729 4.51207C17.6729 4.65394 17.7033 4.79581 17.7286 4.93261C17.759 5.08461 17.8198 5.22647 17.8958 5.33287L17.9059 5.33794ZM18.1086 4.15234C18.1339 4.04594 18.1897 3.93954 18.2403 3.83314C18.2758 3.76221 18.3214 3.70647 18.3771 3.63554C18.4025 3.60514 18.4278 3.57474 18.4582 3.52914C18.4734 3.50381 18.4937 3.48354 18.5241 3.45821C18.5443 3.44301 18.5646 3.42274 18.5849 3.40247C18.6102 3.37714 18.6355 3.35687 18.6609 3.33661C18.6913 3.31634 18.7166 3.29101 18.7419 3.27074C18.8585 3.18461 18.9902 3.10861 19.1169 3.05794C19.3651 2.93634 19.6438 2.85021 20.0035 2.78941C20.3227 2.73367 20.647 2.73874 20.9713 2.78941C21.1283 2.81474 21.2905 2.84514 21.4526 2.89581C21.6097 2.94647 21.7465 3.00221 21.8833 3.05794C22.1366 3.18461 22.3443 3.32647 22.5115 3.48354L22.4558 3.53927L22.5014 3.57474C22.6179 3.66594 22.6939 3.77741 22.7345 3.85847C22.7902 3.96994 22.8409 4.07127 22.8662 4.18274C22.9169 4.30941 22.9169 4.41074 22.9169 4.51714C22.9169 4.64887 22.8915 4.75021 22.8662 4.86167C22.8409 4.96807 22.7851 5.07447 22.7345 5.18087C22.699 5.25181 22.6534 5.30754 22.5977 5.37341C22.5723 5.40381 22.547 5.43421 22.5166 5.47981C22.5065 5.50514 22.4811 5.52541 22.4507 5.55074C22.4305 5.56594 22.4102 5.58114 22.3899 5.60647C22.3646 5.63181 22.3393 5.65207 22.3139 5.67234C22.2835 5.69261 22.2582 5.71794 22.2329 5.73821C22.1163 5.82434 21.9846 5.90034 21.8579 5.95101C21.6097 6.07261 21.331 6.15874 20.9713 6.21954C20.6521 6.27527 20.3278 6.27527 20.0035 6.21954C19.8262 6.19421 19.6894 6.16887 19.5222 6.11314C19.3601 6.05741 19.2182 6.00167 19.0915 5.95101C18.8483 5.83954 18.6406 5.69767 18.4481 5.51527L18.4835 5.47981L18.4481 5.44434C18.367 5.36327 18.291 5.25687 18.2403 5.15554C18.1897 5.04914 18.1339 4.94274 18.1035 4.83127C18.0529 4.70461 18.0529 4.60327 18.0529 4.49687C18.0529 4.36514 18.0782 4.26381 18.1035 4.15234H18.1086Z" fill="#C7E7DC"/>
</svg>
