<svg width="31" height="31" viewBox="0 0 31 31" fill="none" xmlns="http://www.w3.org/2000/svg">
<g clip-path="url(#clip0_244_10944)">
<path d="M21.1635 14.8718V9.90859H21.0425V9.8928L21.032 9.80859H20.9477C20.6899 9.84017 20.4267 9.86123 20.1688 9.86123H20.0899V9.95596H19.9951V15.0402H20.0899V15.1349H20.1688C20.3056 15.1349 20.4425 15.1244 20.5741 15.1086C20.7056 15.0981 20.8372 15.0823 20.9688 15.0823H21.0477V14.9875H21.1688V14.8875H21.1793L21.1688 14.8718H21.1635ZM20.5267 10.1875V14.577C20.4635 14.5823 20.4056 14.5823 20.3477 14.5875V10.1981C20.4056 10.1981 20.4688 10.1928 20.5267 10.1875Z" fill="#C7E7DC"/>
<path d="M17.9996 9.90346H16.9944V9.99819H16.9207V14.9719L16.9102 15.035H16.9207V15.0771H16.9944V15.1719H17.9207V15.0929H17.9733V15.0771H18.0944V9.99293H17.9996V9.89819V9.90346ZM17.2996 14.6614V10.2561H17.747V14.6614H17.2996Z" fill="#C7E7DC"/>
<path d="M23.8845 9.51929H23.6371C23.4424 9.5456 23.274 9.56666 23.1055 9.59297L23.0371 9.6035V9.68771H22.9424V14.7719H23.0371V14.8877L23.1319 14.8667C23.2424 14.8456 23.3529 14.8298 23.4634 14.8088C23.574 14.793 23.6792 14.7719 23.7845 14.7509L23.8213 14.7719L23.8424 14.7403L23.9003 14.7298V14.6509H24.0213V9.56665H23.895L23.8845 9.51929ZM23.374 9.89297V14.2614C23.374 14.2614 23.3529 14.2614 23.3424 14.2667C23.3213 14.2667 23.3108 14.2667 23.2898 14.2719V9.90876C23.3161 9.9035 23.3424 9.89823 23.374 9.89297Z" fill="#C7E7DC"/>
<path d="M26.3369 8.91919L26.2579 8.95077C26.0737 9.01919 25.8843 9.06656 25.6632 9.11393L25.579 9.12972L25.6001 9.20866H25.5264V14.2929H25.6474V14.3087L25.7053 14.2929L25.7211 14.3613C25.8316 14.335 25.9369 14.3087 26.0422 14.2771C26.1211 14.2508 26.2053 14.2297 26.2895 14.2087L26.3158 14.2192V14.1981C26.3158 14.1981 26.3369 14.1981 26.3474 14.1929L26.4316 14.1771L26.4158 14.1245H26.4843V9.04024H26.3737L26.3369 8.91919ZM26.1316 13.7929L26.0737 13.7718V9.34024C26.0737 9.34024 26.1158 9.32972 26.1316 9.32445V13.7929Z" fill="#C7E7DC"/>
<path d="M28.2002 8.22449L27.6318 8.5087L27.6423 8.54028H27.6055V13.6245H27.7107L27.7634 13.7455L28.2213 13.5297H28.2528V13.514L28.3581 13.4666L28.3423 13.435H28.3792V8.3508H28.2528L28.1844 8.22975L28.2002 8.22449ZM28.0423 13.135L27.9581 13.1192V8.72975L28.0423 8.69291V13.1403V13.135Z" fill="#C7E7DC"/>
<path d="M29.6265 7.63495V7.50337H29.4633L29.3791 7.42969L29.2896 7.50337H29.2738V7.5139L28.9844 7.75074L29.0054 7.76653V12.656L28.9844 12.6718L29.0054 12.6928V12.8244H29.1686L29.2581 12.8981L29.337 12.8244H29.3581V12.8086L29.5002 12.6823H29.5212V12.6613L29.6054 12.5876H29.6265V7.67179L29.6475 7.656L29.6265 7.63495Z" fill="#C7E7DC"/>
<path d="M30.0579 11.6297L30.0737 11.5403H30.0579V6.70868L30.0789 6.60342H30.0579V5.83498H30.0684L30.0579 5.76656V5.67708H30.0474L30.0263 5.51393L29.9579 5.3034C30.0053 5.13498 30.0632 4.81919 29.9579 4.4034V4.28235H29.9474L29.9316 4.06656L29.8263 3.81919L29.7 3.59287L29.5474 3.39287L29.321 3.17182L28.9263 2.87708L28.4421 2.57708C28.1105 2.36129 27.7316 2.15077 27.3 1.96129H27.2842L26.6 2.1034V1.74024H26.4579C26.1105 1.63498 22.2684 0.550767 17.9368 0.782346H17.8684L16.7316 0.803398L16.1 0.829714V0.871819H16.0053V1.01919H15.9947L16.0053 1.03498V1.38761L15.5684 1.41919L15.1842 0.919188L15.1684 0.929714V0.892872L13.9 1.01919L12.9579 1.14024L12.1316 1.26129L10.5526 1.57708L9.53684 1.86656L8.85263 2.08761L8.3421 2.3034L8.02105 2.45077L7.16316 2.94024L6.97895 3.08761H6.96316V3.31919L6.75263 3.29814V3.31919L6.71579 3.28761L6.6 3.44551C6.54737 3.47708 6.46316 3.54024 6.38421 3.77182L6.33684 3.86656L6.26316 4.11919L6.24737 4.28761H6.21579V4.69287C6.19474 4.90866 6.17895 5.16129 6.16842 5.46129L6.14737 5.51919V7.62447L4.70526 7.24553C4.67895 7.24553 4.34737 7.25079 3.9 7.36658H3.89474L3.57368 7.44026L3.25263 7.54026L2.97895 7.66132L2.68421 7.835L2.41579 8.02974L2.16316 8.22974L1.59474 8.86658L1.52105 8.99816L1.40526 9.035V9.05605L1.20526 9.135L1 9.2929L0.773684 9.57184L0.6 9.92447L0.573684 10.0561C0.573684 10.0561 0.557895 10.0929 0.552632 10.1139C0.536842 10.1718 0.536842 10.2297 0.526316 10.2876L0.5 10.4192V10.6245L0.547368 10.9139L0.652632 11.1561L0.689474 11.2192L0.673684 11.2297L0.726316 11.2824L0.736842 11.3034V11.335L0.757895 11.8455L0.857895 12.5087L0.957895 12.8297L1.23158 13.4192L1.43158 13.7139L1.47895 13.7666C1.72632 14.1192 2.07368 14.4139 2.54737 14.5982H2.55263L2.57368 14.6087C2.60526 14.6192 2.63684 14.6403 2.67368 14.6508L2.74737 14.6718L2.80526 14.6929L2.88421 14.7245L6.96842 16.0455V21.6561H6.96316V21.7403L6.96842 21.8139H6.97368L6.98947 22.0087L7.09474 22.2824L7.25263 22.5403L7.62632 22.9087L7.92105 23.1297L8.16316 23.2876C8.61579 23.6245 9.25789 23.9508 10.1579 24.2087V24.2192L10.1842 24.3982V24.4139C10.1368 24.7929 10.0632 25.5245 10.1579 26.2718V26.2824L10.1737 26.3824C10.1895 26.4771 10.2053 26.5666 10.2263 26.6561L10.2158 26.6718L10.1579 26.9034V26.9876L10.2053 27.2561L10.4316 27.6455L10.6474 27.835L10.7105 27.8824V28.5613L10.7368 28.6508L10.7684 28.7087L10.8211 28.8508L11.0632 29.1666L11.5526 29.5034L11.9211 29.6718L12.3368 29.8403L12.8263 29.9876L13.9211 30.2297L15.0158 30.3982L16.4 30.5192L17.8263 30.5666H18.0947L19.5 30.5403L20.8316 30.4192L21.6579 30.3245L22.6526 30.1561L23.1895 30.035L24.0895 29.7455L24.4842 29.5718L24.7895 29.3824L24.9368 29.3087L25.2737 28.9824L25.3579 28.8034L25.3737 28.7824L25.4579 28.5982V28.5034H25.4632V27.6982L25.5053 27.6139L25.5211 27.5718L25.5474 27.5508H25.5526L25.6053 27.5034L25.6684 27.4508H25.6632L25.7316 27.3771L25.8526 27.235L25.9579 27.0034L26.0053 26.9087L26.0368 26.7297V26.5613L25.9579 26.3245V26.3139L26.0368 25.9876L26.0053 25.7403L25.9579 25.6192L25.9842 25.5666L26.0368 25.335V25.1718L26.0053 25.0666L25.9579 24.9403L25.9789 24.8876L26.0053 24.7139L26.0368 24.6245L25.9842 24.2929L25.9263 24.1561L26.2947 24.0455L27.2474 23.7034L27.6684 23.5087L28.2526 23.1455L28.6263 22.8718L28.8 22.6982L28.9526 22.5192L29.0789 22.3192L29.2 22.0561L29.2316 21.835V21.2034L29.2789 14.0455L29.2895 14.0297C29.2895 14.0297 29.3263 13.9824 29.3421 13.9561L29.5947 13.7297L29.6947 13.6034L29.8947 13.3034L29.9947 13.0718L30.021 12.9455L30.0368 12.7982H30.0421V12.7297L30.0526 12.6403H30.0421V11.6508L30.0579 11.6297ZM25.1158 28.4876L25.0789 28.6087L24.9737 28.735L24.7895 28.9192L24.5158 29.0771L23.7737 29.3876L23.3211 29.5297L22.8158 29.6508L22.2421 29.7718L21.1842 29.9403L19.8105 30.0613L18.9474 30.1087H17.2579L16.7053 30.0876L15.3526 29.9666L14.5579 29.8718L13.5737 29.7034L13.0474 29.5824L12.5895 29.4403L12.0105 29.2245L11.6789 29.0824L11.4 28.9245L11.2158 28.7666L11.1684 28.6771L11.0789 28.5403L11.0632 28.4929V28.1034L11.1053 28.1245L11.4316 28.3718L11.5684 28.4403L11.6474 28.4824L12.0684 28.6771L12.6263 28.8718L13.2105 29.0403L13.7947 29.1876L14.6211 29.335L15.7368 29.4771L16.9263 29.5718L18.1368 29.5982L19.4737 29.5508L20.1263 29.5034L21.2684 29.3824L21.6 29.3297C22.5474 29.2297 23.3421 29.0297 23.9842 28.7403L24.3158 28.6087L24.6316 28.4403L25.0053 28.2139L25.1158 28.1139V28.4982V28.4876ZM29.1579 13.6666L28.7526 13.9718L28.3474 14.2087L27.921 14.4192L27.2947 14.6613L26.7421 14.8508L26.3579 14.9718L25.7579 15.1403L24.6737 15.3824L22.8895 15.6718L21.5895 15.8139L20.2632 15.9087L19.5895 15.935L18.1895 15.9613H16.9368L16.2632 15.9403L15.2632 15.8666L16.0474 15.0403L16.0579 15.0245L16.0474 15.0139V12.4034H16L16.0211 12.3613L15.0579 11.8403V9.87711H14.9632V9.78763L14.0105 9.70342V9.80868H13.9368V10.9982L13.7 10.8297L13.4158 10.735L12.5474 10.4403V10.4297L12.4684 10.4139L12.4 10.3929V10.4034L12.2421 10.3718V9.52974H12.1684V9.45079L12.1053 9.435C11.8895 9.38763 11.6421 9.34026 11.3789 9.2929L11.2842 9.27711V9.41395H11.2105V9.44026H11.2053L10.8737 9.335L10.8895 9.29816H10.8842V9.28763L10.8053 9.27184L9.73684 8.935L9.70526 8.91921C9.65789 8.89289 9.60526 8.86658 9.5421 8.86132C9.52105 8.85079 9.5 8.84553 9.47368 8.84026L9.4 8.81921C9.31053 8.79816 9.14737 8.72974 9.14737 8.72447L9.06316 8.68763L9.05263 8.71395L8.00526 8.38237V8.26132H7.95263L7.96316 8.24553L7.46316 7.95079L7.39474 8.05079H7.26316V8.15605L6.86316 8.02974V7.42974H6.81053L6.66842 7.22974V7.21395H6.65789L6.57895 7.10342L6.51579 7.15605L6.52632 6.71395L6.73684 6.94553L6.98421 7.14026L7.45263 7.45605L7.8421 7.65079L8.61579 7.98763L9.22105 8.22447L9.3 8.25605L9.37368 8.28237L9.78947 8.40342L11.1947 8.74026L11.8 8.86132L12.7421 9.00342L14.4158 9.21921L16.1579 9.34026L17.9474 9.38763H18.7526L19.8632 9.34026L20.6632 9.2929L21.6053 9.21921L22.3579 9.14553L23.3 9.02447L23.9789 8.92974L24.8526 8.76132L25.4368 8.64026L26.2842 8.42447L26.7684 8.28237L27.5263 8.04026L28.3789 7.65079L28.7947 7.40868L29.1632 7.16658L29.4895 6.91921L29.6895 6.69816V6.96132L29.6789 7.04026H29.6895V12.9455C29.5526 13.1824 29.4263 13.3824 29.3158 13.5455L29.1632 13.6982L29.1579 13.6666ZM28.3421 22.6508L28.3158 22.6718L27.8842 22.9561L27.5526 23.1455L27.1263 23.3561L26.4263 23.6192L25.9684 23.7718C25.6842 23.8297 25.4895 23.8561 25.4842 23.8561H25.2474L25.2895 23.9613L24.9368 24.0508L24.4105 24.1718L23.6158 24.3139L23.0158 24.4087L21.521 24.5771L20.6789 24.6508L19.1105 24.7455H17.4211L16.7 24.7245L15.8579 24.6771L15.1579 24.6297L14.3368 24.5561L13.6895 24.4824L12.2947 24.2666L11.5474 24.0982L10.3474 23.8139L9.31579 23.4561L8.6 23.1245L8.16316 22.8508C7.38947 22.1929 7.33158 21.5561 7.33158 21.5139V21.4824L7.44737 16.1824L9.14211 16.7297L9.20526 16.7508L9.28947 16.7876V16.7771L9.4421 16.8087V18.9666H9.51053L9.5 19.0087L9.58421 19.035V19.0508L9.61579 19.0455L10.4 19.2982L10.4316 19.1824H10.5421V16.8403L10.6263 16.8245L10.9263 16.7508L11.0263 16.7087L11.2368 16.7771L11.2789 16.7982L11.3368 16.8192V16.8297L11.4053 16.8455L11.4895 16.8771V16.8666L11.5211 16.8718L11.9579 16.9192H12.1053L12.5 16.8297L12.6737 16.8982L12.6842 16.8508L12.7263 16.8929L12.7632 16.835L13.4526 17.0508L13.5105 17.0824V17.0718L13.5684 17.0876L13.5947 16.9929H13.7158V16.6034L14.3316 16.7929L14.3526 16.7508L14.3895 16.7876L14.4895 16.6824H14.5158V16.6561L14.9632 16.1824L15.5684 16.2245L16.9474 16.2718L18.2053 16.2982L19.6105 16.2718H19.7211V20.0666H19.8158V20.1929H19.9211C20.2737 20.1613 20.6316 20.1403 20.9632 20.1139H21.0368V20.0192H21.1316V19.9192H21.1421L21.1316 19.8982V16.1824L21.6421 16.1245L22.9053 16.0034L24.1158 15.8087L25.2579 15.5929L25.8632 15.4455L26.8842 15.1561L27.2526 15.035L28.0789 14.6982L28.2053 14.635V18.0718H28.3368L28.421 18.1876L28.5368 18.0718H28.5579V18.0508L28.7526 17.8561H28.7579V17.8508L28.8474 17.7613H28.8947V14.2718H28.9053V21.6771C28.8211 22.0613 28.621 22.3771 28.3632 22.6403L28.3421 22.6508ZM10.7895 27.3139H10.8789L10.8421 27.3455L10.9526 27.3982L11.3579 27.7245L11.3737 27.7034L11.6316 27.8508L11.7947 27.9139C11.5105 27.8455 11.3053 27.7876 11.2158 27.7666C11.1895 27.7613 11.1737 27.7561 11.1632 27.7508L11.1105 27.7139C10.9842 27.6034 10.8789 27.4613 10.7947 27.3034L10.7895 27.3139ZM25.6474 25.5034L25.5632 25.6455L25.1526 26.035L25.0368 26.1034C24.9895 26.1297 24.8632 26.2034 24.8632 26.2034L24.7947 26.2455V26.2561L24.3158 26.4876L23.7895 26.7034L23 26.9403L22.0842 27.1297L21.1 27.2982L20.0632 27.4192L19.0053 27.4929L17.9211 27.5192H16.8632L15.8263 27.4455L14.3579 27.3034L13.0579 27.0666L12.3105 26.8508L11.6895 26.6403L11.1632 26.3771H11.1526L11.0368 26.2982L11.0105 26.2613L11 26.2718L10.9526 26.2403L10.7737 26.1087L10.6579 25.9718L10.5211 25.7718L10.5053 25.6192L10.6158 25.7192L10.8474 25.8876L10.8737 25.9139V25.9245L10.8579 25.935L10.8737 25.9508V25.9718L10.8474 26.0245H10.8737V26.0508H10.9684L11.0526 26.135H11.0579V26.1403L11.1368 26.1876L11.1895 26.2245L11.2789 26.2824V26.2929L11.6632 26.5034L12.1789 26.7245L12.7895 26.9192L13.4421 27.0613L14.5842 27.2771L15.3842 27.3718L16.2842 27.4455L17.5421 27.4718H18.6158L19.5579 27.3982L20.7895 27.2771L21.2316 27.2297L22.0368 27.0824L22.7105 26.9139L22.9474 26.8613L23.0211 26.8455L23.1 26.8297L23.5421 26.6771L24.1316 26.4561L24.6474 26.1876L24.6632 26.2034L25.1421 25.8455V25.8192L25.3737 25.6192L25.6105 25.4297L25.6316 25.4034C25.6316 25.4403 25.6368 25.4824 25.6421 25.5192L25.6474 25.5034ZM10.8105 27.2455L10.8368 27.2718L10.7895 27.3034C10.7684 27.2613 10.7421 27.2245 10.7263 27.1824L10.8158 27.2455H10.8105ZM25.6316 26.2403L25.5263 26.3876L25.3684 26.5718L25.1579 26.735L25.1316 26.7508L25.121 26.7403L25.0842 26.7771L24.9421 26.8666V26.8561L24.6842 27.0139L24.3263 27.1771L23.8 27.3666L23.0053 27.6034L22.0895 27.8192L21.1 27.9876L20.5737 28.0613L19.5158 28.1561L18.4789 28.2034H16.8632L15.8526 28.1297L14.3579 27.9876L13.9263 27.9139L13.0632 27.7455L12.3211 27.5297L11.5421 27.2508L11.1105 27.0087L11.1 26.9929L11.0895 27.0034L11.0158 26.9508L10.7842 26.7876L10.6684 26.6561L10.5316 26.4297L10.5158 26.3087L10.6526 26.4245L10.8211 26.5455L10.8737 26.6139L10.8421 26.6403L10.9526 26.6929L11.2632 26.9297V26.9403L11.3211 26.9771L11.3895 27.0297V27.0192L11.5053 27.0824L11.9526 27.3034L12.7789 27.5718L13.4579 27.7403L14.1842 27.8824L14.9421 28.0034L15.8158 28.0771L16.5895 28.1245L17.5316 28.1455H18.0211L19.0895 28.1192L20.0368 28.0455L20.8105 27.9508L21.6368 27.8297L22.0526 27.7561L22.7316 27.5876L22.9632 27.5192V27.5403L23.2211 27.4666L23.9 27.2245L24.3158 27.0508L24.8 26.7982L24.7842 26.7718L25.0368 26.5876L25.0474 26.5982L25.1053 26.5403L25.1842 26.4561L25.2632 26.3771L25.5632 26.1297L25.6632 26.0297C25.6632 26.0297 25.6632 26.0666 25.6632 26.0876L25.6316 26.2297V26.2403ZM25.4368 25.1087L25.2947 25.2245L25.1263 25.3455L25.1053 25.3666L24.8737 25.5297L24.3263 25.7929L23.8 26.0087L23.0053 26.2455L22.5 26.3666L21.1 26.6087L20.5737 26.6824L19.5158 26.7771L18.4789 26.8245H17.3947L16.3579 26.8034L15.3263 26.7297L13.9263 26.5403L13.0842 26.3718L12.6263 26.2508L11.9316 26.035L11.6947 25.9403L11.2316 25.7087V25.6929H11.1947L11.2053 25.6666H11.1421L11.1158 25.6508L11.2263 25.5403L11.3316 25.6034L11.3947 25.6403L11.6421 25.7718L11.9421 25.9192L12.4789 26.1139L13.1105 26.2824L13.7895 26.4297L14.5474 26.5771L15.3421 26.6508L16.2421 26.7455L17.5211 26.7666H18.0053L19.0737 26.7403L19.9947 26.6666L20.7947 26.5718L21.6211 26.4508L22.3737 26.3034L22.9526 26.1561L23.0316 26.135L23.1053 26.1192L23.3526 26.0403L23.8895 25.8455L24.3632 25.6455L24.8737 25.3297L25.0737 25.1771L25.2474 25.0034L25.3737 24.8561L25.4947 24.6876V24.6666C25.5211 24.7613 25.5368 24.8455 25.5579 24.935L25.4316 25.1087H25.4368ZM10.5158 24.2034L10.7 24.2561L10.7474 24.3666L10.8 24.4455L10.9316 24.5982L11.1053 24.7455L11.3105 24.8982L12.0211 25.2403L12.7053 25.4824L13.5053 25.6771L14.4053 25.8455L14.9158 25.9192L15.8842 26.0139L16.8789 26.0613H18.4053L19.4211 26.0139L20.4895 25.9192L21.3632 25.7982L22.2368 25.6297L22.9368 25.4613L23.0053 25.5403L22.5895 25.6455L21.8158 25.7876L21.3842 25.8613L20.5158 25.9824L19.6684 26.0561L18.6842 26.1297H17.6L16.5895 26.1087L15.8158 26.0613L14.9053 25.9876L14.1316 25.8666L13.7526 25.8192L13.0263 25.6508L12.6947 25.5824L12.1 25.4192L11.5947 25.2034L11.1684 24.9929L11.1 24.9508H11.0895V24.9613H11.0842L11.0263 24.8718L10.9947 24.8982L10.9 24.835L10.7158 24.6508L10.6 24.4876L10.5368 24.3824L10.5211 24.2455C10.5211 24.2455 10.5211 24.2245 10.5211 24.2139L10.5158 24.2034ZM25.2368 24.3824L25.1947 24.5087L25.1105 24.635L24.8526 24.9403L24.7 25.0508L24.2 25.335L23.7737 25.5245L23.4158 25.6455L23.5053 25.5666L23.0947 25.0771L23.0474 25.1192V25.0929L21.4263 25.4455L20.4632 25.5666L19.5737 25.6613L18.4368 25.7087L17.4263 25.735L15.9105 25.6613L14.9684 25.5666L14.5632 25.5192L13.7211 25.3771L12.9737 25.1876L12.5684 25.0666L12.1579 24.9245L11.8053 24.7824L11.5053 24.6245L11.2526 24.4192L11.2263 24.3876L11.4684 24.4508L12.0211 24.5455L12.8474 24.7139L13.4474 24.7876L14.3 24.9087L15 24.9561L15.8526 25.0297L18.1737 25.1034L19.8474 25.0561L21.4 24.9613L22.8789 24.7929L23.6789 24.6718L24.2632 24.5508L25.2526 24.3245V24.3876L25.2368 24.3824ZM10.7 25.0876L10.8316 25.1771L10.8526 25.2034H10.8421L10.8789 25.2455L10.9263 25.2929L10.9947 25.3771L11.0053 25.3613L11.1368 25.4771L11.1 25.635L10.8526 25.4771L10.6947 25.3245L10.5737 25.135L10.5105 25.0087V24.9034L10.7 25.0929V25.0876ZM25.2579 27.3245H25.2421L25.2368 27.3403L24.8368 27.6139L24.6789 27.7139L24.3211 27.8771L23.7947 28.0666L23 28.3034L22.0842 28.5192L21.0947 28.6876L20.5684 28.7613L18.4684 28.9034H17.3842L16.9053 28.8824C16.7 28.8561 16.5 28.8297 16.3 28.8034L17.0421 28.8508H18.0105L19.0789 28.8245L20.3579 28.7034L21.2105 28.6034L22.7158 28.2876L23.0053 28.1982L23.5421 28.0455L23.8895 27.9245L24.5263 27.635L24.6263 27.5771V27.5876L24.7 27.535L24.7632 27.4982V27.4876L25.1 27.235L25.1105 27.2245L25.1263 27.2403L25.1474 27.2139L25.2053 27.1824L25.1895 27.1613L25.3158 27.0139L25.5053 26.8666C25.4579 27.0087 25.3947 27.1455 25.3211 27.2718L25.2526 27.3192L25.2579 27.3245ZM0.910526 10.0245H0.905263L0.98421 9.86132C1.03158 9.7929 1.08421 9.72974 1.14737 9.67184L1.00526 9.98763L0.905263 10.3297L0.857895 10.5666L0.842105 10.5034V10.4245H0.821053C0.821053 10.4245 0.821053 10.4192 0.821053 10.4139L0.910526 10.0297V10.0245ZM7.30526 3.69814L8.22105 3.78761C8.22105 3.78761 8.22105 3.8034 8.21579 3.80866L8.18421 3.85603L8.16842 3.89287L8.10526 3.87708V4.05077L8.05789 4.02972V4.28761H8.04737L8.05789 4.36656L8.0421 4.37182L8.05263 4.41393V4.45077H8.06316V4.52445H8.08421L8.09474 4.58761L8.14737 4.77182L8.22632 4.92445L8.27368 4.99814V5.00866L8.41053 5.21393L8.6 5.38235L8.64737 5.42972L8.69474 5.46656L8.82105 5.57708L8.96316 5.67182L8.96842 5.67708L9.18421 5.81919L9.6 6.035L9.64737 6.05605L9.7421 6.10868L9.87895 6.16658L9.08421 6.37711L8.52631 6.15605L8.21579 6.01395L7.71579 5.75077L7.45789 5.58761L7.1 5.3034L6.92105 5.15077L6.73158 4.89287L6.66842 4.78761L6.62105 4.65603L6.6 4.53498C6.62632 4.27708 6.65263 4.09814 6.68421 3.97708L6.75263 3.85603L6.84737 3.74024H7.30526V3.69814ZM1.10526 11.2034L1.12105 11.1929L1.10526 11.1771V11.0876H1.1V11.0087L1.19474 10.5139L1.45263 9.75605L1.62105 9.45079L1.71579 9.29816H1.73684L1.73158 9.27184L1.74211 9.25079L1.78421 9.21395C1.86842 9.08237 1.96316 8.96658 2.05263 8.85079L1.86316 9.15605L1.64211 9.54553L1.39474 10.0876L1.17368 10.9824L1.1 11.4771V11.7297C1.07895 11.4771 1.08421 11.2824 1.08947 11.2034H1.10526ZM16.4895 1.69814H16.7947V1.67708H17.2263L18.0842 1.65603L19.1789 1.67708L19.6158 1.69814L20.1947 1.72972L20.9526 1.78761L21.8737 1.88761L23.0105 2.05077L23.6316 2.16129L24.4 2.32972L24.7895 2.42972L24.7789 2.47708H24.9895V2.49287H25.0105L25.1421 2.51919L25.621 2.67708L25.7211 2.71919V2.72972L25.7421 2.74024V2.87182L25.8421 2.77182L25.8842 2.78235L26.2842 2.95077L26.8421 3.22972L27.1684 3.44024L27.2368 3.5034L27.4105 3.66129L27.5895 3.86129L27.6632 3.97182L27.7 4.03498L27.7632 4.21919L27.7737 4.26129H27.7684V4.38761H27.7421V4.55603H27.7211V4.61919C27.7211 4.61919 27.7211 4.62445 27.7158 4.62972H27.6947V4.7034H27.6474V4.80866L27.5947 4.87182L27.5684 4.89814C27.5684 4.89814 27.5579 4.90866 27.5526 4.91393L27.5316 4.89814L27.4737 5.01393H27.4526V5.05603L27.2789 5.21393L27.2632 5.2034L27.1895 5.27708H27.1789C27.1789 5.27708 27.1368 5.3034 27.1263 5.31393L26.8053 5.51919L26.7895 5.52972L26.5316 5.66129L25.9947 5.90866L25.6053 6.05605L25.1789 6.19816L24.7263 6.31921L24.6579 6.34026L24.0526 6.49816L23.4 6.62974L22 6.84553L21.1 6.94553L20.8684 6.96658H20.6263C20.5158 6.97711 20.4105 6.98763 20.3053 6.99816C20.0632 7.01921 19.8368 7.04026 19.6211 7.04026H19.5421V7.06132H19.1105L18.4053 7.07711H17.9789L17.0632 7.07184L16.0263 7.01395L15.0632 6.94026L13.7895 6.79289L13.4526 6.75079L12.5105 6.57711L12.4158 6.55605L11.5105 6.34553L11.3895 6.31395V6.29289H11.2895L11.2947 6.26658H11.1789V6.25079H11.1526L10.4632 6.02974H10.4526V6.01395H10.4368L9.93158 5.82445L9.56316 5.62972L9.21053 5.43498L9.13158 5.38235L8.92105 5.22972L8.88421 5.19814L8.72105 5.05077L8.61053 4.92972L8.57368 4.87708L8.5 4.74551L8.48947 4.70866L8.4 4.50866V4.27708L8.42105 4.18761L8.42632 4.16129H8.44737V4.1034C8.48947 4.08761 8.52105 4.05077 8.52105 3.99287V3.98235L8.53158 3.96129L8.56316 3.91919H8.56842V3.90866L8.61579 3.84024V3.82972H8.62632L8.68947 3.88235V3.76656H8.85263L8.75263 3.68235L8.85263 3.58235L8.92632 3.52972H8.94737V3.51393L9.11579 3.39287L9.18947 3.34551L9.46842 3.18235L10.3 2.79814L10.7158 2.65077L11.0579 2.54024L11.3 2.46656H11.3211C11.3526 2.45077 11.4 2.44024 11.4316 2.43498L11.5 2.41919L11.5842 2.4034L12.4947 2.19287L13.1632 2.06129L13.7211 1.97708L14.1526 1.91919L15.2368 1.80866L15.3158 1.79814H15.3737L15.4158 1.85077L16.3579 1.79814V1.73498H16.4895V1.69814ZM29.6053 4.44551L29.5474 4.68761L29.4526 4.89287L29.3105 5.06656L28.0053 4.9613V4.86656L28.0368 4.80866L28.0526 4.75077H28.0737V4.67182L28.0947 4.59814V4.58235L28.1053 4.5034H28.1474V4.28235H28.1263V4.19287L28.1 4.11393V4.09814L28.0421 3.91393L28.0263 3.88235V3.86656L27.9158 3.68761L27.8421 3.6034L27.8105 3.5613L27.7684 3.52445V3.51393L27.5789 3.33498L27.5579 3.31393L27.2368 3.06656L26.8684 2.84551L26.5947 2.71393L26.3789 2.6034L26.3158 2.58235L27.1474 2.37708L27.4263 2.48761L28.1316 2.8034C29.0737 3.38761 29.4579 3.97708 29.5947 4.44551H29.6053ZM20.5263 19.4824C20.3684 19.4982 20.2105 19.5087 20.0526 19.5087V16.2666L20.2947 16.2561L20.5263 16.2403V19.4824ZM2.91053 14.3666L2.64737 14.2666L2.63158 14.2561L2.45789 14.1245L2.17895 13.8982L1.87368 13.5034L1.75789 13.2718L1.61579 12.8718L1.52105 12.4192L1.47368 12.0929V11.5034L1.56842 10.8403L1.73684 10.2034L1.87895 9.85079L2.28947 9.15605L2.47368 8.87711L2.80526 8.52447L3.13684 8.24026L3.36842 8.07711L3.72105 7.88763L3.94737 7.79816L4.3 7.72974L4.53158 7.70342H4.76316L5.46842 7.935V7.95605L5.53158 7.96658C5.64737 7.9929 5.85789 8.035 5.86842 8.04026L10.2632 9.46658V9.47711L10.3 9.4929V9.50342L10.2316 9.52447L9.95263 9.62447L9.56316 9.84026L9.28947 10.0139L8.92105 10.335L8.57895 10.7245L8.26316 11.1876L8.0421 11.5771L7.79474 12.135L7.67368 12.5245L7.6 12.8245L7.50526 13.5297V13.8929L7.53158 14.3297L7.58421 14.6982L7.71053 15.1666L7.76316 15.2929L7.91053 15.5876L8.13684 15.9613L8.22632 16.0666L5.02632 15.0403L2.92632 14.3561L2.91053 14.3666ZM11.3158 16.4455L11.1579 16.3613L10.9368 16.1666L10.8526 16.1034L10.7421 15.9508L10.7158 15.9087L11.9684 16.5824H11.8632L11.6789 16.5613L11.5421 16.5245L11.3158 16.4455ZM8.90526 16.2403L8.7421 16.1245L8.55789 15.9666L8.48947 15.8508L8.27895 15.5718L8.13684 15.3139L8.0421 15.0824L7.92105 14.635L7.87368 14.3034L7.84737 13.8982V13.5455L7.89474 13.0771L8.10526 12.2508L8.34737 11.7455L8.51053 11.4192L8.8421 10.9455L9.17368 10.5666L9.50526 10.2824L9.73684 10.1192L10.0895 9.92974L10.3158 9.84026L10.6684 9.77184L10.8947 9.74553V9.96132L11.0105 9.75605H11.0895V9.76658L11.2 9.80868L11.3789 9.94026L11.6526 10.2561L11.7 10.3455L11.5842 10.3561L11.3263 10.4087L11.0789 10.5087L10.7053 10.7087L10.3842 10.9508L10.1368 11.1771L9.86316 11.4982L9.66842 11.7876L9.44737 12.1561L9.3 12.4982L9.15263 12.9561L9.05263 13.3034L9.00526 13.7192V14.4508L9.08421 14.9245L9.25789 15.3876L9.38421 15.635L9.51579 15.8403L9.76316 16.1087L9.93684 16.2561L10.1474 16.4087L10.3684 16.4982L10.1105 16.5192H9.83684L9.57368 16.4718L9.28421 16.3982L9.11053 16.335L8.9 16.2192L8.90526 16.2403ZM10.5579 13.2982L11.6789 13.6613V15.7876L10.5579 15.4245V13.2982ZM11.8211 13.3403L10.7053 12.9824L12.2 11.3876L12.1684 11.5034L13.2158 11.8508L11.8158 13.3403H11.8211ZM12.6895 11.235L12.9105 11.3508V11.3929L12.6263 11.2982L12.6895 11.2297V11.235ZM10.9842 12.1718L11.0947 12.0034L11.2842 11.7718L11.5421 11.5139L11.7737 11.335L10.9842 12.1771V12.1718ZM12.0316 15.9087V13.6192L13.3474 12.2139V16.6139L12.0316 15.9034V15.9087ZM13.0789 11.0666L12.9211 10.9824L13.0474 10.9982L13.2789 11.0455L13.3105 11.0561L13.4526 11.1087L13.6632 11.2455L13.6947 11.2718L13.0789 11.0666ZM9.78421 18.6666V16.8771H9.82631L10.0895 16.8824H10.1789V18.5613L9.77895 18.6613L9.78421 18.6666ZM13.6947 11.8403L13.7105 11.8245L13.6947 11.8139V11.6824H13.6263L13.6368 11.6403L13.2579 11.5139V11.5034L14.1368 11.7824V16.3929L13.6895 16.2455V11.8403H13.6947ZM14.4947 16.1876V11.9455L15.6895 12.5876V14.9034L14.4947 16.1876ZM14.7 11.6561L14.4474 11.5192V10.1034C14.5316 10.1139 14.6158 10.1192 14.7 10.1245V11.6561ZM12.0368 10.8034L11.6632 11.0034L11.3158 11.2508L11.0947 11.4718L10.7 11.9403L10.4789 12.3087L10.3316 12.6245L10.0368 13.4297L9.96316 13.8718L9.9421 14.3034V14.5824L9.96842 14.935L10.0895 15.4455L10.1947 15.7245L10.3421 15.9666L10.4895 16.1876H10.4737V16.1929L10.4 16.1666L10.2368 16.0771L10.0789 15.9666L9.9421 15.8297L9.75263 15.5771L9.58947 15.2718L9.44737 14.9034L9.37368 14.4297L9.35263 14.0982L9.4 13.4455L9.44737 13.235L9.61579 12.7297L9.71053 12.4771L9.94737 12.0297L10.1684 11.7139L10.2579 11.5824L10.5211 11.3245L10.8474 11.0455L11.1579 10.8824L11.3684 10.7876L11.5684 10.7192L11.8789 10.6929H12.0421L12.2737 10.7139L12.3316 10.7245L12.0579 10.8087L12.0368 10.8034ZM6.61053 5.28761V5.27182L6.65263 5.32972L6.87895 5.55077L7.24737 5.84551L7.54737 6.04026L8.3 6.40342L8.90526 6.65079V6.98237L8.77368 6.92974L8.01053 6.59816L7.57895 6.335L7.32632 6.16132V6.15079H7.31579L7.21053 6.07711L7.14737 6.01395V6.00866L6.93158 5.79814L6.74737 5.57182L6.65789 5.39814L6.63158 5.29287V5.28235L6.61053 5.28761ZM13.4158 7.08237L13.6684 7.11395L13.7789 7.12974L15 7.26658H15.0632L15.0947 7.27711L16.0105 7.34553L16.4842 7.36658H16.5053L16.9842 7.38763L17.7263 7.40342L18 7.41395H18.6579L18.9842 7.39816L19.4842 7.38763H19.5684L19.6947 7.55605L19.4474 7.56658L18.3105 7.5929H17.2526L16.1684 7.54553L14.5316 7.45079L12.4789 7.18763L11.7053 7.04553L10.8842 6.87711L10.4579 6.77184L11.1 6.60342H11.1211L11.1947 6.67711L11.2105 6.60868L11.4211 6.67184L12.3421 6.88763L12.9737 6.99289L13.4053 7.07711L13.4158 7.08237ZM22.0632 7.17711L23.4737 6.96132L23.7895 6.88237L23.8789 6.86658L24.6737 6.69289V6.70342L24.7474 6.67711V6.69816C24.8158 6.67711 24.9421 6.62447 24.9895 6.60342H25.1526L25.1368 6.55605L25.7526 6.35605L25.9632 6.27184L26.0632 6.235L26.5526 6.04026L26.7632 5.92972L26.9 5.86656L26.9842 5.80866L27.2895 5.62445L27.3368 5.58761H27.3421C27.3421 5.58761 27.3579 5.58761 27.3684 5.57708L28.5526 5.69287L28.5263 5.70866L28.2158 5.87708L27.8053 6.06658L27.1842 6.32974L26.5632 6.54553L25.1632 6.90342L23.9842 7.14026L23.1895 7.26132L22.2526 7.38237L21.1474 7.47184L21.0105 7.28763L21.5842 7.22447L22.0526 7.18237L22.0632 7.17711ZM28.0158 6.66658L27.4632 6.90342L26.5789 7.235L25.1789 7.5929L24 7.82974L21.7842 8.11921L21.2632 8.15605V7.80868L21.8 7.77184L22.7684 7.65079L24.0526 7.45605L24.9053 7.30868L25.9947 7.04553L26.6737 6.85079L27.6 6.535L28.1842 6.27184L28.5789 6.07711L28.8895 5.87182V6.16132L28.8263 6.20868L28.5421 6.39816L28.0158 6.66132V6.66658ZM20.9105 7.71921V8.07184L20.8947 8.08237H20.8737V7.67184L20.9105 7.71921ZM27.5053 7.31921L26.9368 7.58237L25.8789 7.91921L25.421 8.04026L24.1211 8.32974L23.3526 8.47184L21.2263 8.71395L21.1158 8.72447V8.535L21.7947 8.48763L22.7632 8.36658L24.4842 8.10342L25.2579 7.935L25.9842 7.76658L26.6632 7.57184L26.9579 7.47184L27.5895 7.22974L28.0263 7.05079L27.7895 7.18237L27.5 7.32447L27.5053 7.31921ZM10.4842 7.12974L11.6474 7.39289L12.8842 7.58763L14.4842 7.78237L15.5737 7.87711L16.6895 7.92447H17.2421L18.3053 7.95079H18.8895L19.8474 7.90868V8.25605L19.4421 8.27184L18.3053 8.29816H17.2474L16.1632 8.25079L14.5211 8.12974L13.2421 7.98763L12.0105 7.79816L10.8789 7.58237L9.96842 7.32974V6.99816L10.4789 7.135L10.4842 7.12974ZM9.03158 7.40342L9.0421 7.435L9.43158 7.32974V7.61921L9.3 7.57711L8.8421 7.38763L8.38947 7.17711L8.20526 7.06658L9.03158 7.40342ZM11.5105 8.20342L10.9789 8.08237L10.5316 7.97184V7.82974L10.8 7.89816L11.6474 8.06658L12.8842 8.28237L14.2158 8.45079L16.6842 8.61921L17.7474 8.64553L19.6947 8.60342V8.79816L18.1579 8.84553L15.7684 8.77184L14.2474 8.62974L13.5737 8.55605L12.8316 8.46132L11.5053 8.19816L11.5105 8.20342ZM9.78421 7.64026L10.1842 7.74026V7.87184L9.79474 7.74553H9.78421V7.64026ZM29.2263 5.48235H29.1421L29.1526 5.4034H29.2263V5.48235ZM20.5263 7.31395V8.76658L20.4105 8.77711L20.0579 8.78763V8.59816H20.1053V8.50342H20.2V7.70342H20.2105L20.2 7.68763V7.65079H20.1737L20.1053 7.55605V7.55079L19.9632 7.35605C20.1579 7.34553 20.3474 7.32974 20.5316 7.31921L20.5263 7.31395ZM10.2526 6.46658L9.67895 6.60868L9.7 6.68237H9.62632V6.91921L9.25263 7.01921V6.66132L10.2526 6.3929V6.46658ZM6.86316 6.24026L6.96316 6.40868V6.435H6.97895L7.07895 6.60342L7.32105 6.84553L7.62105 7.11921L7.78947 7.22447L7.61579 7.12974L7.18947 6.84553L6.97368 6.65605L6.76316 6.45079L6.64737 6.28763L6.53158 6.08237V5.88761L6.64737 6.02974L6.86316 6.24026ZM25.7895 2.37182L25.7579 2.35603V2.36656L25.6368 2.32972L26.2263 2.18235V2.25603L25.7895 2.37182ZM29.6737 6.00866L29.6632 6.06132L29.4632 6.39816L29.2526 6.62974L28.9684 6.86658L28.3737 7.24553L28.2684 7.2929L28.5316 7.11395L28.8 6.89816L28.8316 6.87184H28.8737V6.835L29.0263 6.69816L29.1947 6.46658H29.2316V6.41921H29.2789V6.34026L29.3158 6.28763L29.3579 6.12974H29.4421L29.4526 6.14026L29.5421 6.02974H29.5737V5.98761L29.6579 5.88235L29.6684 6.01395L29.6737 6.00866ZM14.9947 1.29814H15.0316L15.1368 1.44024L14.5053 1.51919L14.2579 1.54551L13.9789 1.58761L13.7263 1.61919L13.4421 1.66656H13.4263L12.8526 1.76129L12.4368 1.84024L12.3421 1.85603L12.3053 1.86656L12.1 1.90866L11.5 2.05603L11.4421 2.07182H11.4316L11.3474 2.09287C11.3474 2.09287 11.3105 2.1034 11.2947 2.11393L11.2105 2.14024V2.12445L11.1421 2.14551H11.0526V2.17182L10.4632 2.36129H10.4526L9.81579 2.60866L9.48421 2.77182H9.47368L9.46316 2.78235L9.27368 2.87708L9.17895 2.93498L9.14737 2.95077L9.1 2.98235L8.95263 3.07182L8.84737 3.15077L7.73684 3.06129C9.23158 2.20866 11.8368 1.57708 14.9895 1.3034L14.9947 1.29814ZM0.847368 10.6034C0.847368 10.6034 0.847368 10.5982 0.847368 10.5929V10.6034ZM18.9579 1.12445L20.6 1.19814L22.4579 1.36656L24.4842 1.67708L25.6421 1.94024L25.7053 1.95603L25.0316 2.13498C25.0316 2.13498 25 2.12445 24.9842 2.12445L24.3263 1.95603L24.0105 1.89287L23.7684 1.83498L22.8947 1.66656L22.0211 1.54551L20.6368 1.4034L20.2421 1.38235H20.2053L19.6316 1.35077L19.2368 1.32972L18.3158 1.3034H18.1316L16.8895 1.32972L16.6684 1.34551L16.5737 1.22445H16.7789C17.2632 1.17182 17.7421 1.1455 18.2211 1.12971H18.9684L18.9579 1.12445Z" fill="#C7E7DC"/>
<path d="M12.4521 4.42975V4.50344L12.5574 4.7508L12.6785 4.89817L12.9837 5.14554L13.3048 5.31396L13.7995 5.53501L14.3837 5.70344L15.0416 5.8508L15.7679 5.97186L16.5469 6.06661L17.3469 6.11398H18.9732L20.5048 5.96659L21.1837 5.84554L21.7416 5.71923L21.8206 5.70344L21.8837 5.68765L22.2364 5.58238L22.9521 5.3087L23.2258 5.13501L23.4521 4.95607L23.6943 4.66659L23.7574 4.42975V4.27186H23.7469L23.6732 4.01923L23.589 3.88238L23.3837 3.68238L23.2364 3.58238L22.7679 3.31396L22.4206 3.16659L21.8364 2.99817L21.1574 2.8508L20.4521 2.72975L19.6732 2.63501L18.8732 2.58765H17.9785L17.2258 2.61396L16.4521 2.66133L15.7206 2.73501L15.0153 2.85607L14.4574 2.98238L14.389 2.99817L14.3048 3.01923L14.1837 3.0508L13.7679 3.19817L13.4258 3.34554L13.0995 3.49817L12.8521 3.67186L12.6574 3.84028L12.5679 3.98238L12.4943 4.12449L12.4679 4.3087H12.4627V4.35607L12.4521 4.41923H12.4627L12.4521 4.42975ZM14.4627 3.33501L15.6574 3.09817L17.1732 2.95607L17.9679 2.92975L18.6943 2.95607L19.5627 3.00344L20.3048 3.07186L21.6258 3.3087L22.1574 3.47712L22.6311 3.64028L22.9785 3.82449L23.2364 4.03501L23.3679 4.2087L23.41 4.32975V4.40344L23.389 4.49817L23.2416 4.68765L23.0627 4.84554L22.4943 5.1508L22.1364 5.27186L21.6521 5.41396L21.2521 5.5087L20.5521 5.62975L19.81 5.72449L19.0153 5.77186L18.2469 5.79817L17.4995 5.77186L16.6311 5.72449L15.91 5.6508L15.2153 5.55607L14.589 5.41396L13.7311 5.15607L13.4364 5.0087L13.3311 4.96659L13.0258 4.75607L12.8048 4.47186L12.789 4.37186L12.8048 4.28765L12.8469 4.16133L12.9732 4.03501L13.1521 3.87712L13.4153 3.73501L13.889 3.52449L14.4679 3.33501H14.4627Z" fill="#C7E7DC"/>
<path d="M16.0316 1.97706L15.7474 1.99811H15.7316L15.4474 2.01917L15.1106 2.06653L14.6685 2.1139L13.6737 2.28232L13.579 2.30338L13.4264 2.32969L13.1369 2.40864L13.0579 2.42969L12.7843 2.49811H12.6895V2.51917H12.6948L12.1843 2.6718L11.6474 2.86653L11.379 2.98759L10.9369 3.20864L10.8106 3.28759L10.5843 3.46127L10.2685 3.7718L10.1527 3.99811L10.0843 4.22969H10.0527V4.30864H10.0422L10.0474 4.36127L10.0264 4.43496H10.0579L10.079 4.56653L10.1106 4.67706L10.1632 4.78232L10.3632 5.05601L10.5422 5.22969L10.7685 5.40338L11.0316 5.54548L11.2369 5.6718L11.679 5.86654L11.9474 5.96127L12.779 6.22971L13.7264 6.42445L14.7474 6.59287L15.8632 6.71392L17.0053 6.78761L18.1422 6.81392H18.8211L19.3527 6.78761L20.4685 6.71392L21.5106 6.59287L22.5053 6.42445L23.4685 6.21919V6.19813L24.0106 6.04024L24.5264 5.86654L24.9948 5.64548L25.5843 5.27706L25.7895 5.09285L25.9106 4.91917L26.0369 4.7139L26.1106 4.51917V4.4718H26.1369V4.26653H26.1106V4.22969L26.0632 4.04022L26.0211 3.96653L26.0053 3.91917L25.8369 3.65601L25.6264 3.46653L25.4053 3.29285L25.0579 3.0718L24.5211 2.82969L24.4053 2.78759L24.3264 2.75601L24.1737 2.70864L23.7422 2.56127L23.2264 2.44548L22.6001 2.29811L22.5422 2.28759L22.4843 2.2718L21.8948 2.15075L21.3264 2.08759L20.5422 1.98232L19.4264 1.90864L18.8211 1.88232H17.3685L16.4895 1.93496L16.0369 1.95601L16.0316 1.97706ZM10.4527 4.12969L10.5369 4.00338L10.6527 3.86653L10.9053 3.63496L11.2632 3.42443L11.7158 3.20864L12.2158 3.01917L12.7948 2.85075L12.8106 2.90338L12.8895 2.82443L12.9632 2.80864H12.9948L13.0316 2.79811C13.0422 2.79285 13.0632 2.78759 13.0843 2.77706L13.3579 2.7139L13.9106 2.60864L14.0211 2.58232L14.579 2.48759L15.3843 2.38232L15.4948 2.3718L15.9737 2.32443L16.4948 2.29285L17.3948 2.25601H18.8158L20.4053 2.35075L21.4422 2.4718L22.3474 2.60864L23.1474 2.78232L23.6527 2.92443L24.3053 3.13496L24.5422 3.23496L24.8527 3.38232L25.1527 3.56653L25.3632 3.70338L25.6422 3.97706L25.7737 4.24548L25.7948 4.36127L25.7737 4.45601L25.6632 4.72443L25.4632 4.92443L25.279 5.08232L24.9211 5.29811L24.4895 5.5139L24.2053 5.62969L23.3158 5.89285C23.2158 5.91917 23.0474 5.96654 23.0474 5.96654L22.9737 5.98759L22.0474 6.17708L21.6106 6.22445L20.5527 6.36656L19.4211 6.44024L18.2158 6.48761L17.1053 6.46129L15.9948 6.38761L14.9369 6.29287L13.9474 6.12445L12.8685 5.88759L12.2422 5.69811L11.8106 5.55601L11.579 5.46127L11.2211 5.2718L11.0579 5.17706L10.8474 5.04022L10.6843 4.90338L10.479 4.6139L10.4369 4.5139L10.4158 4.35601L10.4369 4.20864L10.4579 4.12443L10.4527 4.12969Z" fill="#C7E7DC"/>
</g>
<defs>
<clipPath id="clip0_244_10944">
<rect width="30" height="30" fill="white" transform="translate(0.5 0.75)"/>
</clipPath>
</defs>
</svg>
