<svg width="41" height="31" viewBox="0 0 41 31" fill="none" xmlns="http://www.w3.org/2000/svg">
<path d="M17.55 25.8016C15.221 25.8016 13.0145 25.5564 10.9306 25.0661L10.5016 24.9435C6.27257 23.9016 3.33063 21.9403 2.22741 19.4887C1.12418 17.0371 1.98225 14.279 4.61774 11.8274C7.3145 9.37578 11.421 7.47578 16.3242 6.43385C21.0435 5.4532 25.8855 5.4532 30.0532 6.43385L30.4823 6.55643C34.7113 7.59836 37.6532 9.55965 38.7564 12.0113C39.8597 14.4016 39.0629 17.0371 36.6113 19.4274L36.3661 19.6726C33.6694 22.1242 29.5629 24.0242 24.6597 25.0661C22.2694 25.5564 19.879 25.8016 17.55 25.8016ZM16.4468 7.04675C11.6661 8.0274 7.62096 9.86611 5.04677 12.2564C2.59516 14.5242 1.79838 16.9758 2.77902 19.2435C3.82096 21.5726 6.64032 23.35 10.6855 24.3919L11.1145 24.5145C15.1597 25.4338 19.9403 25.4338 24.5984 24.5145C29.379 23.5338 33.4242 21.6951 35.9984 19.3048L36.2435 19.0597C38.5113 16.8532 39.1855 14.4629 38.2661 12.3177C37.2242 9.98869 34.4048 8.21127 30.3597 7.16933L29.9306 7.04675C25.8855 6.1274 21.1048 6.1274 16.4468 7.04675ZM17.9177 22.9822C16.2629 22.9822 14.7306 22.8597 13.2597 22.5532H12.9532C9.76613 21.8177 7.49838 20.5306 6.57903 18.8145C6.0887 17.8951 5.96612 16.8532 6.27257 15.8726C6.57903 14.8919 7.25322 13.9113 8.29516 12.9919C10.2565 11.2758 13.3823 9.86611 17.121 9.13062C20.7984 8.39514 24.5984 8.33385 27.7855 8.94675H28.0919C31.279 9.68224 33.5468 10.9693 34.4661 12.6855C34.9564 13.6048 35.079 14.6468 34.7726 15.6274C34.4661 16.608 33.7919 17.5887 32.75 18.508C30.7887 20.2242 27.6629 21.6338 23.9242 22.3693C21.9016 22.7984 19.879 22.9822 17.9177 22.9822ZM23.1274 9.06933C21.2274 9.06933 19.2048 9.2532 17.2435 9.68224C13.6887 10.4177 10.6242 11.7661 8.72419 13.4209C7.74354 14.279 7.13063 15.1371 6.88548 15.9951C6.64032 16.8532 6.7016 17.65 7.13063 18.4468C7.98871 19.979 10.0726 21.2048 13.0758 21.8177H13.3823C16.5081 22.4919 20.2468 22.4306 23.8016 21.6951C27.3565 20.9597 30.421 19.6113 32.321 17.9564C33.3016 17.0984 33.9145 16.2403 34.1597 15.3822C34.4048 14.5242 34.3435 13.6661 33.9145 12.9306C33.0564 11.3984 30.9726 10.1726 27.9694 9.55965H27.6629C26.2532 9.19191 24.721 9.06933 23.1274 9.06933Z" fill="#C7E7DC"/>
</svg>
