<svg width="41" height="31" viewBox="0 0 41 31" fill="none" xmlns="http://www.w3.org/2000/svg">
<g clip-path="url(#clip0_244_10957)">
<path d="M38.6561 10.5992C38.6561 10.5992 38.6837 10.5194 38.915 10.3599C39.0692 10.2403 39.2289 10.1149 39.2289 9.92694C39.2509 9.68766 39.1353 9.45408 38.948 9.2205L38.8048 8.97552L38.7553 9.004C38.5405 8.78751 38.2816 8.57672 38.0118 8.35453C37.7199 8.11525 37.406 7.85888 37.2463 7.65948L37.1967 7.45438H37.1527C36.6735 5.59143 34.399 4.13296 31.5022 3.88228C31.0892 3.86519 30.6651 3.8481 30.2686 3.86519C28.71 3.86519 27.4764 4.18993 26.6118 4.82231C25.648 5.52306 25.1248 6.52006 25.0973 7.72784C23.6489 8.06967 20.9724 8.53684 19.3037 5.32366V5.0388H19.2927C19.3037 4.87359 19.3147 4.69698 19.3202 4.51467C19.3643 4.34945 19.3808 4.17284 19.3973 3.97344V3.62021H19.2816C19.1605 3.09608 18.819 2.52636 18.5216 2.30987C18.2463 2.10477 17.9985 2.16174 17.8222 2.20162C17.7396 2.22441 17.6956 2.23011 17.6735 2.21871C17.5744 2.16744 17.4863 2.13326 17.3816 2.08768C17.1118 1.96234 16.8585 1.8484 16.2967 1.74585C16.2967 1.42681 16.17 1.23881 15.9167 1.19323C15.7129 1.15335 14.8538 1.02801 14.5729 1.14765C14.3471 1.2502 14.3031 1.4553 14.2976 1.60342C13.4935 1.69458 12.9758 1.8541 12.5408 2.01931C12.3921 1.91107 12.2214 1.85979 12.0561 1.88258C11.7532 1.92246 11.4834 2.15605 11.2631 2.34405L11.2135 2.38963C11.2135 2.38963 11.175 2.42381 11.1585 2.4409C11.1419 2.45799 11.1254 2.46939 11.1089 2.48078C10.9327 2.61182 10.8776 2.81692 10.9547 3.14165C10.9437 3.15305 10.9382 3.17014 10.9271 3.18153L10.8941 3.16444L10.839 3.30687C10.7179 3.48348 10.6022 3.67719 10.5031 3.91077C10.2498 4.54885 10.3819 5.35784 10.5031 6.07569L10.5141 6.13266C10.5582 6.36054 10.5967 6.57703 10.5967 6.75365C10.6132 6.95873 10.6298 7.14104 10.6518 7.31765L10.6353 7.35753L10.6573 7.36892C10.8445 8.82739 11.2796 9.50535 11.577 9.97252C11.7092 10.1776 11.7973 10.3257 11.8469 10.4796C7.56222 10.0295 4.47267 11.7842 2.99122 13.6187C1.89528 14.9803 1.50977 16.5584 1.93934 17.9428C1.93934 17.9599 1.95035 17.977 1.95586 17.9941L1.92832 18.0112L2.00542 18.165C2.33586 19.219 2.54514 19.9767 2.71035 20.592L2.82601 21.0079C3.03528 21.7998 3.16746 22.267 3.39876 22.7854C3.9605 23.9647 4.44514 24.3066 4.83064 24.5743C4.96832 24.6712 5.06195 24.7395 5.14456 24.825C6.3947 26.2721 7.78251 27.0412 9.27498 27.1096C9.99642 27.1551 10.7729 27.1836 11.6376 27.007C13.6753 26.5854 15.344 25.4973 16.126 24.0901C19.4303 22.2271 21.9086 22.4892 23.6929 24.882C23.8527 25.0871 24.0454 25.389 24.2712 25.7365L24.5135 26.1126C24.8109 26.574 25.1138 27.0469 25.3506 27.3545C25.3451 28.7162 25.8518 29.6391 26.8706 30.1006C27.8014 30.5221 28.6329 30.7386 29.3489 30.75C29.3489 30.75 29.3819 30.75 29.3985 30.75C30.3347 30.7386 31.0947 30.3968 31.7335 29.7018C31.9538 29.4511 32.0915 29.2289 32.1961 29.0409C32.3118 28.8358 32.4054 28.6877 32.5486 28.5395L32.7193 28.3629C33.2425 27.8217 33.4022 27.6166 33.5785 26.517C33.6666 26.0556 33.7712 25.6796 33.9199 25.1782C34.0245 24.825 34.1567 24.3692 34.3109 23.7425C34.377 23.6115 34.4376 23.4748 34.4982 23.3096L34.5973 23.0532L34.4816 23.0019C34.4927 22.9563 34.5037 22.9164 34.5092 22.8709C34.6414 22.2442 34.3605 21.1332 33.9529 20.5692C33.997 20.4496 33.9915 20.3185 33.9309 20.1932C33.7382 19.8628 33.5069 19.6577 33.2425 19.4298C33.2095 19.407 33.1599 19.3728 33.1269 19.3329C33.0443 19.2475 32.7964 19.1734 32.6202 19.2874C32.2732 19.0595 31.8822 18.8886 31.5463 18.7632C31.5463 18.6721 31.5243 18.5809 31.4692 18.4898C31.3811 18.3587 31.2654 18.279 31.1332 18.2676C30.8469 18.2049 30.5605 18.1536 30.3127 18.1138C30.2411 18.1024 30.175 18.091 30.1309 18.0853C29.9877 18.0568 29.839 18.1024 29.7729 18.1764C29.7289 18.2106 29.6958 18.2505 29.6738 18.2904C29.6463 18.091 29.7069 17.9144 29.8556 17.7377C30.1144 17.4358 30.5385 17.1851 31.1443 16.9572C33.0938 16.2052 34.5202 15.5671 35.5776 14.7069C36.2825 14.1428 36.4532 13.2826 36.6185 12.4052L36.6845 12.4223L36.7011 12.297L36.8828 12.2172C37.7144 11.9266 38.0283 11.8013 38.6616 11.4196C38.7112 11.3854 38.8324 11.3057 38.8709 11.1518L39.0582 11.0208L38.8654 10.9239C38.8324 10.8214 38.7553 10.753 38.7222 10.7245L38.6947 10.753L38.6671 10.6847V10.6733C38.6671 10.6733 38.6616 10.6619 38.6561 10.6562L38.6341 10.5992H38.6561ZM36.1118 11.7728L36.0347 12.1887C35.9025 12.9692 35.7758 13.7042 35.2306 14.1542C34.2283 14.9632 32.8074 15.5899 30.979 16.285C30.3292 16.5356 29.8831 16.7977 29.5747 17.0997C29.6022 16.9401 29.6463 16.7863 29.7124 16.6439C29.9987 15.9545 31.1498 15.2367 31.5243 14.9974C32.1466 14.6043 32.6367 14.4277 33.3637 14.1884C33.595 14.12 33.8208 14.0517 34.0796 13.9548L35.0489 13.6073L34.9002 13.0604L33.6996 13.3281C32.9727 13.4877 32.4164 13.613 31.7115 13.8067L31.7005 13.7668L30.979 13.9206C30.3127 14.0859 29.5527 14.2739 28.7321 14.0859C27.0744 13.6985 25.4498 12.24 25.7196 9.30026H25.7306V9.19771C26.6448 10.5536 28.5999 11.5962 30.9295 11.8013C31.2103 11.8355 31.4912 11.8355 31.739 11.8355V11.8526C33.0498 11.8526 34.2558 11.5791 35.2361 11.0664C35.6767 10.8385 36.0457 10.5707 36.3541 10.2745L36.3156 10.5422L36.2054 10.6106L36.2825 10.7473L36.1669 11.5108L36.0787 11.5506L36.1393 11.6931L36.1283 11.7728H36.1118ZM27.124 29.4625C26.3254 29.0922 25.9729 28.3914 26.0005 27.1893V27.0811L25.9289 27.0013C25.6921 26.7221 25.3286 26.1581 24.9816 25.5998L24.7558 25.2466C24.5521 24.9275 24.3758 24.6484 24.2216 24.449C23.0927 22.9221 21.6828 22.1473 20.0251 22.1473V22.3012C20.0251 22.3012 19.9921 22.3012 19.9756 22.3012V22.1587C18.764 22.1587 17.4367 22.5632 15.9332 23.3893L15.9057 23.3551L15.7735 23.4748C15.7405 23.4919 15.7129 23.509 15.6799 23.526L15.5367 23.6229V23.6685C14.975 24.0787 13.8625 24.6142 13.3834 24.8136C12.684 25.1212 12.0231 25.332 11.4834 25.4175C10.4645 25.5599 9.10976 25.4973 7.94773 25.2523C6.80775 25.0244 5.74485 24.4205 5.35934 24.0673L5.14456 23.8736L5.1005 23.9248C4.80311 23.7254 4.44514 23.4235 4.00456 22.4778C3.79528 22.022 3.66861 21.5719 3.46485 20.8085L3.41528 20.6205C3.34369 20.3584 3.26108 20.0622 3.16195 19.7146C4.40108 20.9338 6.33412 21.9251 8.70222 21.9251V21.7941L8.71874 21.9251H9.0657C12.8547 21.7656 16.6382 19.2589 17.3541 16.5812C17.5799 18.0853 17.3045 19.4355 16.55 20.2901C16.126 20.7629 15.5808 21.2016 15.1071 21.5719C14.6115 21.9536 14.1709 22.3069 13.7744 22.717L13.0089 23.509L13.3724 23.9362L14.215 23.2469C15.5532 22.1473 18.5161 20.7515 21.1871 21.4067C22.988 21.8511 24.3814 23.15 25.3286 25.2637L25.4883 25.6283L26.017 25.5087L25.9674 25.0244C25.8903 24.4547 25.8903 23.9533 25.9234 23.3722C25.9234 23.3039 25.9344 23.2469 25.9399 23.1842C25.9785 23.207 26.017 23.2298 26.0666 23.2355C26.0996 23.2412 26.1327 23.2469 26.1712 23.2412C26.2373 23.3323 26.3419 23.4862 26.4906 23.7311C26.5292 23.7767 26.5567 23.8166 26.5842 23.8622C26.4851 24.147 26.6393 24.3236 26.7329 24.392C27.0524 24.6712 27.4158 24.8934 27.7628 25.1042C28.0106 25.2694 28.286 25.3947 28.5228 25.4916L28.7706 25.5143L28.9358 25.5941V25.3776C28.9854 25.3093 29.0129 25.2238 29.0405 25.1269C29.2277 25.1497 29.5141 25.1953 29.7069 25.2523C29.6848 25.3719 29.6628 25.5257 29.7895 25.7081C29.8005 25.7194 29.8115 25.7251 29.8225 25.7365L29.8556 25.7593C29.9161 25.7992 29.9932 25.822 30.0648 25.822H30.3677V25.7821C30.3677 25.7821 30.4008 25.7821 30.4173 25.7821V25.8733C31.0121 25.8733 31.5793 25.7707 32.108 25.5713C32.3614 25.4688 32.3614 25.1896 32.3614 25.0244C32.4109 24.9959 32.4605 24.9674 32.51 24.9332C32.5816 24.8934 32.6587 24.8535 32.7303 24.8079C32.7579 24.7908 32.7854 24.7737 32.8129 24.7623C32.8295 24.8022 32.8515 24.8307 32.8735 24.8592V25.0643L33.0277 24.9674C33.1048 24.9902 33.1929 24.9902 33.27 24.9674L33.3141 24.9446L33.27 25.0814C33.1379 25.5087 33.0277 25.8847 32.9561 26.3575C32.7964 27.3033 32.7248 27.383 32.2512 27.8673L32.108 28.0154C31.9428 28.1863 31.8327 28.3629 31.7225 28.5338L31.6509 28.6478C31.5683 28.7959 31.4471 28.9953 31.2764 29.189C30.3512 30.2088 28.9964 30.2886 27.135 29.4397L27.124 29.4625ZM7.81005 25.953C8.59208 26.1182 9.4457 26.2037 10.2828 26.2037C10.7069 26.2037 11.1419 26.1752 11.577 26.1182C12.1387 26.0328 12.8327 25.8106 13.6587 25.4517C13.7744 25.4004 13.9231 25.332 14.0828 25.258C13.3669 25.7479 12.4857 26.1182 11.5054 26.3176C10.7564 26.4601 10.0956 26.4487 9.30802 26.4145C8.65816 26.386 8.02483 26.198 7.41353 25.8562C7.5457 25.8904 7.67237 25.9245 7.80454 25.953H7.81005ZM36.5689 7.84748L36.6019 7.93294C36.6019 7.93294 36.6129 7.95003 36.6185 7.96143C36.6295 8.09816 36.6295 8.25768 36.6295 8.31465C36.5579 9.15783 35.9576 9.90985 34.9332 10.4397C34.1182 10.8727 33.0993 11.1176 31.9979 11.1461C32.108 11.1461 32.2127 11.1347 32.3173 11.1233C32.3724 11.1233 32.4329 11.112 32.488 11.1063C32.9782 11.0493 33.4408 10.9524 33.8648 10.8043C33.8814 10.7986 33.8979 10.7929 33.9199 10.7872C34.1732 10.7018 34.41 10.5992 34.6358 10.4796C35.6602 9.96113 36.266 9.18062 36.3376 8.28047C36.4092 7.35753 35.919 6.46879 34.9498 5.76804C34.735 5.61422 34.5037 5.47179 34.2558 5.34075C35.517 5.94465 36.3927 6.83909 36.5689 7.84748ZM11.2411 6.70237C11.2245 6.48018 11.1915 6.22381 11.1419 5.97883L11.1254 5.87059C11.1034 5.73386 11.0869 5.59713 11.0703 5.4547C11.1199 5.50597 11.175 5.55725 11.2356 5.61422L11.3016 5.69398C11.2851 5.79653 11.2356 6.10987 11.577 6.33206C12.0066 6.59413 12.5683 6.73656 13.064 6.85618L13.5431 6.98152C13.5982 7.01 13.6808 7.02709 13.7799 6.99861L13.8625 6.97012C13.8625 6.97012 13.868 6.97012 13.8735 6.97012L13.9396 6.99861V6.92454C14.0222 6.85048 14.0553 6.75934 14.0718 6.67958C14.3361 6.66249 14.4573 6.6454 14.7437 6.66249H14.9419C14.9419 6.74225 14.9695 6.83339 15.0356 6.91885C15.0961 6.99861 15.1953 7.04988 15.3385 7.07267L15.3605 6.91315H15.41V7.04418H15.4927C16.2967 6.94164 17.0732 6.66819 17.679 6.27509C17.9544 6.08708 17.9158 5.79653 17.8938 5.62561C18.1251 5.47749 18.2628 5.35784 18.3619 5.26099C18.3729 5.27239 18.384 5.28948 18.395 5.30087V5.72246L18.6153 5.4547V5.48318L18.6318 5.51167V5.91047L18.5712 5.92756L18.6318 6.11557V6.99861C18.5271 7.6196 17.9103 8.46847 16.886 8.92994C16.2031 9.24898 14.8153 9.57942 13.1906 8.24059L13.0034 8.08676C12.4802 7.58541 12.0616 7.28916 11.2576 6.91885C11.2576 6.85618 11.2466 6.79921 11.2411 6.73086V6.70237ZM33.4298 10.2175C33.237 10.2745 33.0387 10.32 32.835 10.3542C32.7358 10.3713 32.6367 10.3884 32.5321 10.3998C32.3338 10.4283 32.1356 10.4454 31.9318 10.4568C31.8437 10.4568 31.75 10.4568 31.6564 10.4568C31.4251 10.4568 31.1938 10.4568 30.957 10.434C30.9515 10.434 30.9405 10.434 30.935 10.434C30.9019 10.434 30.8689 10.4226 30.8358 10.4226C30.6156 10.3998 30.4008 10.3656 30.1915 10.3257C30.1034 10.3087 30.0153 10.2973 29.9272 10.2745C29.7234 10.2289 29.5251 10.1719 29.3324 10.1093C29.2387 10.0808 29.1451 10.0466 29.057 10.0181C28.8643 9.94973 28.677 9.86997 28.5008 9.78451C28.4347 9.75603 28.3741 9.72185 28.3135 9.68766C28.1263 9.58511 27.95 9.48257 27.7848 9.36293C27.7022 9.30595 27.6251 9.24329 27.5535 9.18631C27.537 9.17492 27.5205 9.15783 27.504 9.14643C28.4237 8.6052 29.7399 8.35453 31.1002 8.46847C32.477 8.59951 33.7327 9.06667 34.5312 9.75033C34.4431 9.80161 34.3495 9.85858 34.2503 9.90415C34.0466 10.0067 33.8263 10.0922 33.6005 10.1662C33.5454 10.1833 33.4958 10.2004 33.4408 10.2175H33.4298ZM31.1387 7.77342C29.5912 7.63669 28.0877 7.95003 27.0193 8.64508C26.7274 8.25198 26.5842 7.83609 26.6173 7.44299C26.6724 6.78783 27.1845 6.17823 28.0216 5.76234C28.7486 5.39203 29.6683 5.19832 30.6816 5.19832C30.8854 5.19832 31.0892 5.20972 31.3425 5.23251C32.5761 5.34645 33.7106 5.73386 34.5312 6.33206C35.2912 6.89606 35.6987 7.59111 35.6437 8.23489C35.6106 8.62799 35.4069 9.0097 35.0709 9.33444C34.1622 8.49696 32.7248 7.92155 31.1387 7.77912V7.77342ZM26.8266 9.44269C26.8596 9.47687 26.8982 9.51105 26.9312 9.54523C26.8596 9.48256 26.7935 9.4142 26.7274 9.34583C26.7605 9.38002 26.7935 9.4085 26.8266 9.44269ZM30.3237 19.0595V18.974C30.3402 18.9455 30.3512 18.917 30.3622 18.8829C30.4724 18.9057 30.61 18.9341 30.7477 18.9683C30.7422 19.0538 30.7477 19.1734 30.8193 19.276L30.8083 19.3215H30.8524C30.8854 19.3557 30.924 19.3842 30.9845 19.407C31.5022 19.5779 32.0364 19.84 32.3944 20.1021C32.5706 20.2388 32.7524 20.1704 32.8515 20.1134C32.9727 20.216 33.0663 20.3015 33.1434 20.4154C33.0993 20.5123 33.0608 20.6547 33.1103 20.837C33.1599 20.968 33.2205 21.1332 33.2921 21.3212C33.3692 21.4979 33.4408 21.6574 33.4958 21.8739C33.5124 21.9308 33.5289 21.9992 33.5344 22.0334C33.5179 22.0904 33.5179 22.1416 33.5179 22.1758C33.5179 22.2499 33.5014 22.3239 33.4903 22.398L33.4683 22.5461C33.4518 22.6487 33.4408 22.7341 33.4408 22.8196C33.4408 22.8538 33.4408 22.8994 33.4573 22.9848C33.4573 23.0133 33.4573 23.0475 33.4738 23.0646C33.3802 23.3209 33.2315 23.526 33.0222 23.7027C32.2953 23.0418 31.1773 22.5404 29.9437 22.341C28.7596 22.153 27.6196 22.2727 26.8266 22.6544C26.7715 22.586 26.7219 22.512 26.6614 22.4379C26.5677 22.341 26.4631 22.3126 26.3695 22.3069C26.2703 22.0163 26.2373 21.4979 26.2703 21.0763L26.3364 21.1446L26.386 21.0079C26.4906 20.9452 26.5292 20.8484 26.5457 20.78C26.6614 20.4382 26.9587 20.0565 27.3938 19.6919C27.548 19.5722 27.548 19.3899 27.537 19.2532C27.6306 19.2019 27.7298 19.1506 27.8069 19.1221C27.95 19.3215 28.1373 19.3102 28.2529 19.276C28.6219 19.1449 29.1837 19.1108 29.9932 19.1791C30.1034 19.1791 30.186 19.1335 30.23 19.0937H30.3182V19.0766L30.3237 19.0595ZM11.8689 3.03341C11.9405 2.97644 12.0451 2.90807 12.1277 2.86819C12.1938 2.91946 12.2874 2.95934 12.4196 2.97644C12.684 3.01632 13.0915 2.89668 13.6257 2.72576C13.7414 2.69728 13.857 2.6574 13.9727 2.62321L14.1709 2.56624L14.3086 2.54915C14.7547 2.46939 15.1732 2.39533 15.1732 2.00222V1.96804C15.2669 1.96804 15.366 1.97374 15.4706 1.98513C15.4816 2.11617 15.5257 2.29278 15.6964 2.43521C15.9002 2.60612 16.2416 2.69728 16.6327 2.78843C17.0512 2.88528 17.299 2.97074 17.3651 3.03341C17.4863 3.14735 17.7286 3.30117 17.9929 3.14165C18.1141 3.26699 18.3014 3.58033 18.3124 3.76264C18.3124 3.80252 18.3124 3.92216 18.3124 4.0532C18.2077 4.08738 18.1251 4.15575 18.0756 4.20132C17.9158 4.28108 17.8332 4.36654 17.7671 4.43491L17.7176 4.48048C17.6185 4.56594 17.5028 4.67419 17.2385 4.83371C16.9576 4.99323 16.9796 5.28948 17.0071 5.46609L16.9631 5.49458C16.539 5.76234 16.2416 5.94465 15.7735 6.0472C15.7625 5.96744 15.7295 5.88768 15.6689 5.80792C15.5918 5.72816 15.4761 5.69398 15.3935 5.67689V5.69967L15.3825 5.6541H14.628C14.3251 5.63701 14.0663 5.61991 13.7083 5.6541C13.5431 5.67689 13.4164 5.78513 13.3503 5.94465C12.9098 5.83071 12.5077 5.71107 12.1277 5.50027C12.1553 5.27808 12.0947 5.09578 11.9405 4.95904C11.5329 4.57164 11.4889 4.41212 11.544 4.18993C11.544 4.17853 11.5715 4.13865 11.588 4.11017L11.61 4.07029C11.7147 3.92216 11.9515 3.58603 11.8634 3.0448L11.8689 3.03341ZM28.6274 14.8037C28.8147 14.8436 29.0074 14.8721 29.2002 14.8892C28.8367 15.174 28.5558 15.4988 28.3521 15.8634C27.9611 16.5356 27.8399 17.356 27.9996 18.2562C27.9666 18.2562 27.939 18.2676 27.9115 18.2733L27.6747 18.353C27.4158 18.4556 27.168 18.5467 26.9973 18.6835C26.8156 18.8373 26.8156 19.0538 26.8156 19.1677V19.1905C26.6063 19.3842 26.364 19.7146 26.1712 19.9938L26.1382 19.9254L26.017 20.0907L25.7802 20.1191V20.3072C25.7582 20.3413 25.7471 20.3698 25.7251 20.3983H25.659L25.637 20.5464C25.5269 20.7686 25.4883 20.9794 25.4387 21.2244L25.4167 21.3497V21.4238C25.3231 21.965 25.3066 22.1416 25.3066 22.5233C25.3011 22.6088 25.2956 22.7057 25.29 22.8196C25.2845 22.9734 25.2735 23.1614 25.257 23.4007C25.2515 23.4976 25.246 23.5944 25.2405 23.6913C24.2437 22.1188 22.9329 21.1275 21.3358 20.7401C20.8567 20.6148 20.339 20.5521 19.7553 20.5521V20.5692C18.6538 20.5749 17.624 20.8256 16.7648 21.1332C16.875 21.025 16.9796 20.9111 17.0843 20.7971C18.1416 19.5836 18.4225 17.6181 17.8442 15.5386C17.6295 14.7638 17.2715 14.0403 16.7869 13.3623V13.3566C16.2141 12.559 15.4596 11.8127 14.4958 11.1233L14.5179 11.0721L14.4903 11.0607C14.4848 10.7302 14.4187 10.2175 14.1324 9.58511C15.4596 10.1377 16.5831 9.83579 17.2054 9.56802C18.1196 9.15783 18.7529 8.47417 19.0889 7.83039C19.6341 8.66218 20.4437 9.13504 21.0825 9.39141C22.3602 9.91555 23.9022 9.97252 25.0698 9.56233C24.888 12.7698 26.755 14.3707 28.6329 14.8037H28.6274ZM29.024 18.4727C28.9193 18.4784 28.8202 18.4898 28.7211 18.5012C28.5448 17.8745 28.4347 16.9629 28.8863 16.171C29.1947 15.6355 29.7234 15.2025 30.4448 14.8778C29.7454 15.3848 29.2883 15.8805 29.079 16.359C28.9799 16.604 28.9193 16.8433 28.8863 17.0883C28.8312 17.4871 28.7982 17.9884 29.024 18.4727ZM32.3228 24.0046L32.2237 24.0616C32.0585 24.1584 31.8987 24.2439 31.7611 24.2895C31.7005 24.3009 31.6564 24.3236 31.6179 24.3464C31.6179 24.3464 31.6069 24.3464 31.6014 24.3521C31.5628 24.3806 31.5408 24.4148 31.5187 24.449C31.5187 24.4547 31.5077 24.4604 31.5077 24.4661C31.4857 24.506 31.4747 24.5458 31.4637 24.5914C31.4637 24.5914 31.4637 24.5971 31.4637 24.6028C31.4527 24.6484 31.4471 24.694 31.4471 24.7338C31.4251 24.7395 31.3976 24.7452 31.3756 24.7509C31.2709 24.7737 31.1773 24.7965 31.0837 24.8136C31.0561 24.8136 31.0341 24.825 31.0121 24.825C30.9515 24.8364 30.8854 24.8478 30.8303 24.8592C30.8083 24.8592 30.7863 24.8649 30.7642 24.8706C30.7147 24.8763 30.6651 24.8877 30.6211 24.8934C30.5935 24.8934 30.5715 24.8934 30.5495 24.8991C30.5164 24.8991 30.4889 24.8991 30.4614 24.9048C30.4448 24.8136 30.4063 24.7167 30.3402 24.637C30.2741 24.5401 30.1695 24.4547 29.9987 24.4262C29.5527 24.3236 29.3379 24.2895 28.7761 24.204C28.5669 24.204 28.4457 24.335 28.3796 24.4604C28.0382 24.2895 27.8124 24.0958 27.4929 23.7596V23.7425C27.4929 23.64 27.4929 23.4463 27.3663 23.2811L27.2782 23.1728C27.9611 22.9108 28.8973 22.8367 29.8611 22.9848C30.8414 23.1443 31.739 23.509 32.3614 23.9818C32.3503 23.9818 32.3448 23.9932 32.3393 23.9989L32.3228 24.0046ZM13.444 10.7359C13.444 10.2517 13.3008 9.70475 13.0695 9.16352C13.5541 9.85858 13.7138 10.4397 13.7634 10.8157C13.6587 10.7872 13.5541 10.7587 13.444 10.7359ZM38.0063 10.4739C37.9842 10.5593 37.9842 10.6334 37.9898 10.7075L36.8828 11.1917L36.9158 10.9809L38.1274 10.2232C38.0724 10.303 38.0283 10.3827 38.0063 10.4796V10.4739ZM37.048 10.0751L37.2573 8.64508C37.3509 8.72484 37.45 8.8103 37.5547 8.89576L37.6263 8.95843C37.7695 9.07807 37.9622 9.23759 38.1329 9.39711L37.0425 10.0751H37.048ZM27.7573 5.14705C26.6834 5.66549 26.05 6.46309 25.9785 7.38601C25.9234 7.97282 26.1051 8.54823 26.5016 9.07237L26.4851 9.08946C26.039 8.54823 25.8298 7.95003 25.8738 7.37462L25.8958 7.06697C26.0666 6.40612 26.4466 5.8478 27.0358 5.42621C27.6967 4.93626 28.5724 4.72546 29.3764 4.64C28.7927 4.74255 28.2419 4.91347 27.7573 5.15275V5.14705ZM12.7556 10.5821C12.6729 10.565 12.6014 10.5536 12.5298 10.5422C12.4802 10.1833 12.315 9.90415 12.1112 9.59081C11.8689 9.23189 11.566 8.77042 11.3787 7.84748C12.0231 8.48556 12.6785 9.70475 12.75 10.5821H12.7556ZM12.2048 11.2202H12.3315C12.4196 11.2373 12.5463 11.2601 12.6895 11.2886V11.3H12.75C13.086 11.3683 13.51 11.4652 13.8019 11.5449V11.6076H14.0002C14.964 12.2913 15.7129 13.0148 16.2582 13.7896L16.3022 13.8865C16.6602 14.6271 16.8419 15.3563 16.7979 15.8919C16.5886 18.4784 12.8106 21.0706 9.03816 21.2301H8.70222C5.81093 21.2301 3.47035 19.5608 2.64977 17.9087L2.5947 17.8004C2.5947 17.8004 2.57818 17.7491 2.57267 17.7206C2.20369 16.5641 2.53963 15.231 3.49238 14.0574C4.89673 12.3027 7.90918 10.6334 12.2048 11.2145V11.2202Z" fill="#C7E7DC"/>
<path d="M3.9776 18.7521L4.03818 18.8205L4.0547 18.8376C4.51731 19.3333 5.13963 19.7378 5.85557 20.0397L5.86658 20.1422H6.09238C6.09238 20.1422 6.1034 20.1423 6.1089 20.1479C6.97354 20.4727 7.97034 20.655 9.01671 20.655H9.57294L14.0724 18.9743H14.1385L14.2156 18.9117C14.9205 18.3192 15.4547 17.607 15.7576 16.855L15.7796 16.7695L15.7631 16.6841C15.8787 16.3593 15.9503 16.0232 15.9834 15.6871C16.0715 14.6787 15.7245 13.7273 14.9866 12.9467C13.8741 11.7617 11.9906 11.1294 9.93642 11.249L5.68485 12.6277L5.61876 12.6562C4.11528 13.6418 3.19557 14.9806 3.09093 16.3309C3.02485 17.2082 3.32774 18.04 3.96658 18.7521H3.9776ZM14.5405 13.4766C15.1298 14.1033 15.4106 14.861 15.3556 15.6757C15.3445 15.8124 15.3225 15.9548 15.295 16.0916C14.166 15.0718 12.4202 14.5306 10.4982 14.6388L6.26311 16.0175L6.19702 16.046C5.36543 16.5872 4.70456 17.2538 4.25296 17.9887C3.91702 17.4931 3.76282 16.9689 3.80687 16.4106C3.89499 15.3111 4.67702 14.183 5.9547 13.3114L10.0521 11.9782C11.886 11.8757 13.5712 12.434 14.546 13.4766H14.5405ZM13.8466 18.342L9.4628 19.9599C9.21497 19.9713 8.97266 19.9713 8.73034 19.9599C8.69179 19.9599 8.64773 19.9542 8.60918 19.9485C8.40541 19.9372 8.20715 19.9258 8.00889 19.8973C7.97034 19.8973 7.92628 19.8859 7.88773 19.8802C7.68947 19.8517 7.49121 19.8175 7.29845 19.7776C7.27644 19.7776 7.25991 19.7662 7.2434 19.7605C7.02861 19.7093 6.81934 19.6523 6.61006 19.5839C7.11673 18.5357 8.64222 17.6013 10.3935 17.2994C11.9686 17.0202 13.4886 17.3336 14.1495 18.0457C14.0503 18.1425 13.9567 18.2394 13.8466 18.3306V18.342ZM14.97 16.9632C14.9315 17.0373 14.8929 17.1057 14.8489 17.1797C14.8379 17.2025 14.8213 17.2196 14.8103 17.2424C14.7442 17.3449 14.6727 17.4418 14.6011 17.5387C13.7695 16.6385 12.1393 16.2682 10.2669 16.5986C8.22367 16.9689 6.53296 18.0685 5.96571 19.339C5.91064 19.3162 5.85557 19.2877 5.806 19.2649C5.7234 19.225 5.64079 19.1851 5.56369 19.1396C5.47006 19.0883 5.38195 19.0313 5.29934 18.9743C5.22224 18.9231 5.13963 18.8718 5.06803 18.8148C4.99093 18.7578 4.91383 18.6952 4.84224 18.6325C4.80369 18.5983 4.76514 18.5641 4.72658 18.53C5.09557 17.8463 5.71238 17.2025 6.52195 16.6556L10.6028 15.3282C12.4367 15.2484 14.0834 15.7896 15.0527 16.7923C15.0251 16.8493 14.9976 16.9006 14.97 16.9575V16.9632Z" fill="#C7E7DC"/>
</g>
<defs>
<clipPath id="clip0_244_10957">
<rect width="40" height="30" fill="white" transform="translate(0.5 0.75)"/>
</clipPath>
</defs>
</svg>
