<svg width="21" height="21" viewBox="0 0 21 21" fill="none" xmlns="http://www.w3.org/2000/svg">
<rect x="1" y="1" width="19" height="19" rx="9.5" stroke="#212428"/>
<path d="M7.53333 14.5V13.5667L10.8667 9.96667C11.0133 9.80667 11.1467 9.64667 11.2667 9.47333C11.4667 9.16667 11.6667 8.80667 11.6667 8.43333C11.6667 7.68667 11.1467 7.16667 10.2 7.16667C9.33333 7.16667 8.73333 7.76667 8.73333 8.63333H7.46667C7.46667 7.1 8.53333 6.03333 10.2 6.03333C11.8667 6.03333 12.9333 7.1 12.9333 8.5C12.9333 9.03333 12.64 9.59333 12.3333 10.0067C12.16 10.2467 11.96 10.4733 11.7333 10.7L9.34667 13.3H12.9333V14.5H7.53333Z" fill="#212428"/>
</svg>
