<svg width="21" height="21" viewBox="0 0 21 21" fill="none" xmlns="http://www.w3.org/2000/svg">
<rect x="1" y="1" width="19" height="19" rx="9.5" stroke="#212428"/>
<path d="M7.4 12.2333H8.66667C8.73333 12.8333 9.33333 13.4333 10.2667 13.4333C11.28 13.4333 11.8667 12.8467 11.8667 12.1C11.8667 11.3533 11.28 10.7667 10.2667 10.7667H9.66667V9.63333H10.2C11.0667 9.63333 11.6 9.11333 11.6 8.43333C11.6 7.68667 11.0667 7.16667 10.2 7.16667C9.33333 7.16667 8.8 7.68667 8.73333 8.36667H7.46667C7.53333 7.1 8.6 6.03333 10.2 6.03333C11.7333 6.03333 12.8667 7.15333 12.8667 8.36667C12.8667 8.96667 12.6 9.40667 12.3333 9.68667C12.1733 9.84667 12 9.98 11.8 10.1C12.0533 10.22 12.2667 10.3667 12.4667 10.5533C12.8 10.8733 13.1333 11.4067 13.1333 12.1667C13.1333 13.4333 12 14.5667 10.2667 14.5667C8.52 14.5667 7.46667 13.5 7.4 12.2333Z" fill="#212428"/>
</svg>
