<svg width="29" height="29" viewBox="0 0 29 29" fill="none" xmlns="http://www.w3.org/2000/svg">
<g clip-path="url(#clip0_244_11797)">
<path d="M27.0888 1.0188H1.9112C1.1328 1.0188 0.5 1.63919 0.5 2.40233V27.0972C0.5 27.8604 1.1328 28.4808 1.9112 28.4808H27.0888C27.8672 28.4808 28.5 27.8604 28.5 27.0972V2.40233C28.5 1.63919 27.8672 1.0188 27.0888 1.0188ZM27.94 27.0972C27.94 27.5584 27.5592 27.9317 27.0888 27.9317H1.9112C1.4408 27.9317 1.06 27.5584 1.06 27.0972V2.40233C1.06 1.94115 1.4408 1.56782 1.9112 1.56782H27.0888C27.5592 1.56782 27.94 1.94115 27.94 2.40233V27.0972Z" fill="#C7E7DC"/>
<path d="M17.603 10.5441C18.0062 9.51746 17.855 8.67746 17.827 8.54021C17.7822 8.33158 17.7094 8.09001 17.5918 7.83746C17.1718 6.94256 16.2366 5.9104 14.5006 5.84452C14.5006 5.84452 12.1822 5.72923 11.2806 8.11746C11.2806 8.11746 10.715 9.51197 11.5998 10.9394C12.4902 12.3669 13.963 12.5151 14.5006 12.5206C14.9934 12.5261 16.9142 12.2955 17.6086 10.5441H17.603ZM16.2422 10.9833C16.2422 10.9833 15.8558 12.3559 14.4278 12.3559C12.9998 12.3559 12.6526 10.7363 12.5966 10.5167C12.5462 10.3026 12.227 8.32609 12.8542 7.06335C12.8542 7.06335 13.291 5.98727 14.4838 5.98727C14.4838 5.98727 15.9566 5.9104 16.3822 7.83746C16.3822 7.83746 16.707 9.50099 16.2422 10.9779V10.9833Z" fill="#C7E7DC"/>
<path d="M17.9044 11.8506C16.4876 11.8506 15.5356 12.8388 15.5356 12.8388C14.3708 14.0082 14.522 15.1722 14.522 15.1722H14.7012C14.7012 13.0584 17.9044 13.2176 17.9044 13.2176V11.8506Z" fill="#C7E7DC"/>
<path d="M8.16114 20.9372H9.23634V21.7113C8.97874 21.898 8.61474 22.0243 8.22274 22.0243C7.36034 22.0243 6.78914 21.3984 6.78914 20.5474V20.5364C6.78914 19.7459 7.38274 19.0761 8.15554 19.0761C8.69314 19.0761 9.00674 19.2462 9.33714 19.5153L9.80754 18.9662C9.37634 18.6039 8.92274 18.4062 8.18914 18.4062C6.91794 18.4062 6.01074 19.389 6.01074 20.5419V20.5529C6.01074 21.7608 6.87874 22.6776 8.19474 22.6776C8.93954 22.6776 9.53874 22.3812 9.95314 22.0353V20.3004H8.15554V20.9317L8.16114 20.9372Z" fill="#C7E7DC"/>
<path d="M12.921 21.2555C12.921 21.7387 12.6242 22.0241 12.2042 22.0241C11.7842 22.0241 11.521 21.7496 11.521 21.2665V19.4932H10.793V21.4751C10.793 22.1998 11.2074 22.6775 11.9242 22.6775C12.417 22.6775 12.7138 22.4249 12.921 22.1285V22.6116H13.6546V19.4932H12.921V21.2555Z" fill="#C7E7DC"/>
<path d="M18.6835 19.9819C18.4595 19.6854 18.1235 19.4329 17.6027 19.4329C16.8467 19.4329 16.1299 20.0203 16.1299 21.0525V21.0635C16.1299 22.0956 16.8579 22.6831 17.6027 22.6831C18.1235 22.6831 18.4539 22.425 18.6835 22.0956V22.6172H19.4115V18.3074H18.6835V19.9819ZM18.6947 21.0635C18.6947 21.6619 18.2635 22.0627 17.7763 22.0627C17.2891 22.0627 16.8635 21.6674 16.8635 21.0635V21.0525C16.8635 20.4321 17.2779 20.0533 17.7763 20.0533C18.2747 20.0533 18.6947 20.4486 18.6947 21.0525V21.0635Z" fill="#C7E7DC"/>
<path d="M21.7016 19.433C20.7944 19.433 20.1504 20.1632 20.1504 21.0581V21.0691C20.1504 22.0298 20.8616 22.6832 21.78 22.6832C22.3624 22.6832 22.7824 22.4526 23.0792 22.0957L22.648 21.7224C22.396 21.964 22.144 22.0957 21.7912 22.0957C21.3208 22.0957 20.9512 21.8157 20.8784 21.3051H23.2136C23.2136 21.2338 23.2248 21.1734 23.2248 21.1075C23.2248 20.2071 22.7152 19.433 21.7016 19.433ZM20.8728 20.8385C20.94 20.3553 21.2536 20.0204 21.696 20.0204C22.1776 20.0204 22.452 20.3828 22.5024 20.8385H20.8672H20.8728Z" fill="#C7E7DC"/>
<path d="M15.3621 18.3406H14.5781V19.0214H15.3621V18.3406Z" fill="#C7E7DC"/>
<path d="M15.3344 19.4987H14.6064V22.6171H15.3344V19.4987Z" fill="#C7E7DC"/>
</g>
<defs>
<clipPath id="clip0_244_11797">
<rect width="28" height="28" fill="white" transform="translate(0.5 0.75)"/>
</clipPath>
</defs>
</svg>
