<svg width="41" height="23" viewBox="0 0 41 23" fill="none" xmlns="http://www.w3.org/2000/svg">
<g clip-path="url(#clip0_244_11767)">
<path d="M40.4605 5.82324C40.4605 5.82324 40.4605 5.79537 40.4605 5.78608C40.6245 5.08916 40.2508 4.63384 39.8315 4.33648C39.2482 3.79754 38.3094 3.54665 37.6713 3.38867C37.6439 3.31434 37.5984 3.26787 37.5345 3.22141C37.5072 3.15637 37.4707 3.09132 37.4434 3.05416C37.4161 3.00769 37.3705 2.9984 37.3249 2.97982C37.3249 2.96123 37.3249 2.94265 37.3158 2.92407C36.7142 1.98555 34.2987 1.27005 29.9235 0.758971L29.7959 0.740387C27.1798 0.470912 24.6641 0.34082 22.0845 0.34082C19.0856 0.34082 8.97705 0.489497 4.80235 2.4037C4.72031 2.44087 4.65651 2.47804 4.58358 2.5152C4.52889 2.5152 4.4742 2.53379 4.41951 2.56167C4.34659 2.60813 4.28279 2.65459 4.20986 2.69176C3.94553 2.85902 3.65385 3.04487 3.48066 3.41656C3.48066 3.41656 3.48066 3.43514 3.47155 3.44443C3.47155 3.46301 3.46243 3.4816 3.45332 3.49089C3.37128 3.54665 3.31659 3.63957 3.31659 3.75108V3.87188L3.21633 3.89975C2.85172 4.01126 2.48712 4.12277 2.13163 4.29002C2.05871 4.26215 1.97667 4.26215 1.89464 4.29002C0.399767 4.99623 0.417997 5.84183 0.563839 6.28786C0.591184 6.37148 0.636759 6.44582 0.682335 6.52017C0.76437 6.78964 0.855521 7.04982 0.946672 7.30071C1.03782 7.5516 1.11986 7.80249 1.20189 8.06267C1.19278 8.09055 1.18366 8.12772 1.18366 8.16488V8.21135C1.18366 8.21135 1.18366 8.21135 1.18366 8.22064L1.37508 16.1841V16.2956C1.37508 16.3978 1.42977 16.4907 1.50269 16.5465C1.50269 16.6023 1.50269 16.658 1.53004 16.7137C1.61207 16.8717 1.73968 17.0297 1.89464 17.1784C2.1134 17.3921 2.38685 17.5594 2.66942 17.6987C3.71765 18.2376 5.41305 18.6837 7.74651 19.0368C8.53953 19.1669 9.25962 19.2691 9.97055 19.3342C10.5905 19.3992 11.2103 19.4643 11.8483 19.5107L11.8756 20.0218C11.8392 20.0775 11.8118 20.1519 11.8209 20.2262C11.8301 20.347 11.8756 20.4585 11.9304 20.5607C11.9668 20.6351 12.0215 20.7001 12.0853 20.7652C12.0944 20.7745 12.1126 20.7837 12.1217 20.8024C13.0333 21.6758 15.8863 21.8338 15.9136 21.8338C17.2262 21.9639 18.4841 22.0196 19.7602 22.0289C19.8149 22.1033 19.906 22.159 20.0063 22.159C21.8749 22.159 23.4883 22.0754 24.9557 21.8895C25.2201 21.8524 25.4845 21.8152 25.7488 21.778C26.3139 21.7036 26.8882 21.6294 27.4442 21.49C27.508 21.4714 27.5809 21.4528 27.6721 21.4342C28.3922 21.2576 29.5862 20.951 29.7321 20.124C29.7321 20.0775 29.7321 20.0311 29.7321 19.9939C29.7321 19.9754 29.7321 19.9567 29.7321 19.9382C29.7321 19.9382 29.7321 19.9382 29.7321 19.9289C29.7321 19.9289 29.7321 19.9289 29.7321 19.9103L29.6956 19.2691L29.8232 19.2505C31.5186 19.0554 33.2687 18.8603 34.9641 18.4793L35.274 18.4143C37.4343 17.9775 39.6857 17.3456 39.9865 16.0633C39.9956 16.0075 39.9865 15.9611 39.9865 15.9146C39.9865 15.9054 39.9865 15.896 39.9865 15.8867C39.9865 15.8775 39.9865 15.8682 39.9865 15.8588V15.7287L39.8589 7.82107L40.424 5.83254L40.4605 5.82324ZM29.1305 19.9382C29.1214 20.0032 28.9117 20.1984 28.4468 20.347C28.064 20.4771 27.6994 20.5979 27.3075 20.6723C26.797 20.8024 26.2684 20.8674 25.7032 20.9417C25.4297 20.9789 25.1655 21.0161 24.9011 21.0532C23.5338 21.2205 22.0116 21.3041 20.2706 21.3134L20.225 19.7802C23.4974 19.743 26.4233 19.5944 29.094 19.3249L29.1305 19.9289V19.9382ZM22.0936 1.12137C22.1939 1.12137 22.2759 1.07491 22.3397 1.00057C22.4947 1.00057 22.6496 1.00986 22.8046 1.00986C22.8046 1.00986 22.8046 1.00986 22.8046 1.01915C22.8046 1.01915 22.8046 1.01915 22.7955 1.02845L22.7773 1.05632C22.7773 1.05632 22.7773 1.05632 22.7773 1.06561L21.5741 3.19354C21.5285 3.26787 21.5194 3.3608 21.5467 3.44443C21.5285 3.44443 21.5012 3.44443 21.4829 3.45372C21.4009 3.4816 21.2824 3.5931 21.2368 3.66744C21.2004 3.74178 21.2004 3.81612 21.2185 3.89046L20.0883 5.88828C20.0518 5.95334 20.0427 6.01838 20.0518 6.08343C20.0518 6.09272 20.0518 6.1113 20.0518 6.12059C20.0518 6.16706 20.0518 6.20422 20.0792 6.24139C19.669 6.24139 19.268 6.25068 18.8486 6.25068C18.8486 6.25068 18.8395 6.25068 18.8305 6.25068C18.6299 6.25068 18.4203 6.24139 18.2197 6.2321C18.238 6.19493 18.2471 6.15777 18.2471 6.1113C18.2471 6.09272 18.2471 6.07413 18.238 6.04626L19.432 4.03913C19.432 4.03913 19.432 4.01126 19.4412 4.00197V3.98338C19.4503 3.94621 19.4594 3.91833 19.4594 3.88117C19.4594 3.88117 19.4594 3.88117 19.4594 3.87188C19.4594 3.8347 19.4594 3.79754 19.4412 3.76966C19.4412 3.76966 19.4503 3.76037 19.4594 3.75108C19.4776 3.73249 19.4958 3.72319 19.5141 3.70461C19.6144 3.66744 19.7055 3.61169 19.7602 3.50947C19.7875 3.45372 19.7875 3.39797 19.7875 3.34221L20.9086 1.35367C20.9086 1.35367 20.9086 1.34438 20.9086 1.33509C20.9178 1.3165 20.9269 1.29792 20.9269 1.27005C20.9269 1.25146 20.936 1.23288 20.936 1.205C20.936 1.205 20.936 1.19571 20.936 1.18641C20.936 1.16783 20.936 1.15854 20.936 1.14925C20.936 1.13066 20.936 1.10278 20.9269 1.0842C20.9269 1.06561 20.9086 1.04703 20.8995 1.02845C20.8995 1.01915 20.8995 1.00986 20.8814 0.991278C21.2824 0.991278 21.6015 0.991278 21.8566 0.991278C21.9114 1.06561 22.0025 1.12137 22.1027 1.12137H22.0936ZM39.2665 8.59233L39.3849 15.7195V15.8031C39.2026 16.4535 37.7898 17.0762 35.1737 17.643L34.8638 17.7173C33.132 18.1075 31.309 18.312 29.5497 18.4978C26.3777 18.8416 23.0689 19.0089 19.1859 19.0182L19.0036 11.4451C22.9049 11.4357 26.2319 11.2685 29.4222 10.9154C31.2087 10.7203 33.0499 10.5158 34.7909 10.1255C35.1737 10.0698 37.9721 9.59591 39.2755 8.58304L39.2665 8.59233ZM10.8365 6.57591C13.4343 6.83609 15.941 6.95689 18.4932 6.96619L18.5387 8.36003C17.9372 8.36003 17.3538 8.35073 16.7705 8.33215C16.4696 8.33215 16.1688 8.31357 15.8498 8.30428C15.4214 8.28568 14.993 8.2671 14.5828 8.24852C14.3458 8.23923 14.1088 8.22064 13.8627 8.21135C12.5319 8.12772 11.2649 8.00692 10.0617 7.83966C8.4666 7.62594 7.1358 7.4308 5.78677 7.05911C4.97554 6.81751 4.40128 6.5852 4.01845 6.36219L3.98199 4.97765C4.34659 5.21925 4.76588 5.36792 5.00288 5.43297C5.68651 5.71174 6.30634 5.85112 6.92615 5.97192C8.2205 6.2321 9.53306 6.43653 10.8274 6.56662L10.8365 6.57591ZM32.2478 2.61742C33.0226 2.79397 33.5695 2.97982 33.9067 3.16567L23.6979 3.10991V1.66032C25.4935 1.71607 27.3348 1.79041 29.1395 2.0413C30.0785 2.17139 31.0537 2.30148 32.0108 2.56167L32.2478 2.61742ZM33.6971 5.79537C33.7974 5.79537 33.8795 5.7489 33.9341 5.68386C34.4901 5.55377 35.0553 5.41438 35.6295 5.17278C35.6933 5.14491 35.7845 5.10774 35.8847 5.07058C36.2129 4.94978 36.6413 4.78251 37.0059 4.54091C37.0059 4.5502 37.0059 4.56879 37.0059 4.57808C36.9876 4.65242 36.9876 4.72676 37.015 4.7918L37.0424 5.95334C36.9876 5.98121 36.933 6.00908 36.8783 6.03697C36.8418 6.05555 36.8145 6.09272 36.7871 6.12059C36.2402 6.38077 35.4564 6.65955 34.3898 6.91973C32.7492 7.29142 31.0994 7.56089 29.1943 7.76532C26.2045 8.09984 22.9049 8.27639 19.1495 8.28568L19.1039 7.02194C22.4126 7.01265 25.4662 6.86398 28.4195 6.56662C30.0966 6.36219 31.6189 6.16706 33.2323 5.83254C33.3143 5.81395 33.3964 5.79537 33.4784 5.77678C33.5604 5.77678 33.6333 5.78608 33.6697 5.78608L33.6971 5.79537ZM22.9231 3.10991H22.5312L22.8957 2.45945L22.914 3.10991H22.9231ZM21.3826 5.78608C21.2733 5.78608 21.1639 5.78608 21.0636 5.78608L21.3826 5.22854V5.78608ZM22.5129 5.75819C22.44 5.73032 22.358 5.73032 22.2851 5.75819C22.2577 5.75819 22.2304 5.75819 22.203 5.75819L22.1575 4.33648L32.7583 4.39224C30.0966 5.22854 25.7396 5.6374 22.5129 5.7489V5.75819ZM19.0675 3.03557L8.31165 2.97982C11.3743 1.96697 17.4176 1.68819 19.8514 1.65103L19.0675 3.03557ZM18.3565 11.4451L18.5387 19.0089C15.467 18.9996 12.6869 18.851 10.0526 18.5536C8.77652 18.4421 7.42748 18.2191 5.72296 17.8381C5.6227 17.8103 5.48597 17.7824 5.32191 17.7359C4.51066 17.5407 2.40508 17.0297 2.1134 16.2398C2.1134 16.2398 2.1134 16.2213 2.10428 16.212C2.10428 16.1934 2.08605 16.1841 2.07694 16.1655C2.06783 16.1191 2.04959 16.0725 2.02225 16.0447L1.85818 9.05695C2.97934 9.84682 5.09403 10.2649 5.38571 10.3207C6.78032 10.6274 8.18404 10.8411 9.80655 10.9805C12.5228 11.2778 15.3303 11.4265 18.3655 11.4357L18.3565 11.4451ZM39.7131 5.28429C39.7769 5.52589 39.5855 6.03697 37.5345 6.73388C37.1517 6.85468 36.778 6.95689 36.3952 7.04982C36.6322 6.95689 36.86 6.85468 37.0605 6.75247C37.1062 6.73388 37.1335 6.706 37.1608 6.66884C37.2702 6.61308 37.3796 6.54804 37.4707 6.49228C37.5072 6.4737 37.5436 6.45511 37.571 6.42724C37.571 6.42724 37.571 6.42724 37.5801 6.42724C37.6166 6.43653 37.6439 6.44582 37.6804 6.44582C37.8171 6.44582 37.9356 6.36219 37.9812 6.22281C37.9995 6.16706 38.0176 6.1113 38.0359 6.04626C38.2091 5.86041 38.3094 5.66528 38.3458 5.46085C38.4005 5.05198 38.1544 4.66171 37.6257 4.30861V4.05772C38.0541 4.1971 38.5007 4.35507 38.9565 4.5595C39.1388 4.65242 39.2937 4.74534 39.4305 4.83827C39.5581 4.96836 39.6584 5.10774 39.7039 5.275L39.7131 5.28429ZM7.05377 4.29931V4.21568L18.3655 4.28073C18.32 4.33648 18.2926 4.40153 18.2926 4.48516C18.2926 4.48516 18.2926 4.50375 18.2926 4.51304L17.6181 5.73961H17.5179C17.4541 5.73961 17.3903 5.76749 17.3447 5.79537C15.4487 5.79537 13.5437 5.66528 11.6934 5.40509C11.0371 5.31217 10.3716 5.20996 9.69718 5.07058C9.64246 5.0334 9.58775 5.00553 9.52395 5.00553H9.41457C9.21404 4.95907 9.02263 4.93118 8.82209 4.87544L8.64891 4.83827C8.20226 4.74534 7.83766 4.64313 7.53686 4.54091C7.35456 4.45728 7.19961 4.37366 7.06288 4.29002L7.05377 4.29931ZM4.86615 8.35073C6.48864 8.71313 8.02908 8.95473 9.41457 9.08482C12.1946 9.38217 15.0842 9.53082 18.238 9.54018L18.32 10.7945C15.3211 10.7853 12.541 10.6366 9.85209 10.3393C8.25695 10.1999 6.87146 9.98618 5.49509 9.68882C4.2281 9.45655 2.30482 8.84322 1.87641 8.22064C1.87641 8.17418 1.88553 8.11843 1.87641 8.07197C1.80349 7.81178 1.71234 7.56089 1.62119 7.31929C2.87906 8.00692 4.75677 8.34144 4.85704 8.36003L4.86615 8.35073ZM39.3029 7.54231C39.3029 7.54231 39.2755 7.57947 39.2665 7.60736C39.0021 8.45295 36.4316 9.21491 34.6633 9.49364C32.9405 9.88391 31.1175 10.0791 29.3492 10.2742C26.1772 10.618 22.8593 10.7853 18.9672 10.7945L18.8851 9.53082C22.9414 9.53082 26.5054 9.35429 29.7321 9.01048C31.6097 8.8711 33.4693 8.60162 35.2375 8.22064C35.8209 8.12772 38.1362 7.71886 39.4943 6.88256L39.3029 7.54231ZM36.7415 3.20283C36.7415 3.20283 36.7598 3.28646 36.778 3.33292C36.8054 3.37938 36.8145 3.42585 36.8235 3.46301C36.8145 3.49089 36.8054 3.52806 36.8054 3.55594C36.7506 3.69532 36.5228 4.02984 35.4745 4.42941C34.6997 4.68959 33.925 4.88473 33.1866 5.07987C33.0682 5.10774 32.9496 5.11703 32.8312 5.14491C32.9405 5.10774 33.0499 5.07987 33.1594 5.04269C33.1594 5.04269 33.6971 4.84756 33.9615 4.70818C34.0162 4.68029 34.0526 4.64313 34.0799 4.59667C34.1985 4.53162 34.2896 4.45728 34.399 4.38295C34.4901 4.3179 34.5904 4.27144 34.6725 4.20639C34.7818 4.11347 34.7909 3.97408 34.7454 3.85328C34.7635 3.85328 34.7727 3.8347 34.7818 3.82541C34.8092 3.80683 34.8274 3.78824 34.8456 3.76037C34.8638 3.75107 34.8821 3.73249 34.8912 3.7139C34.9276 3.68603 34.9641 3.65815 34.9824 3.61169C34.9824 3.61169 34.9824 3.60239 34.9915 3.5931C35.0188 3.54665 35.0279 3.50018 35.0279 3.45372C35.0279 3.45372 35.0279 3.44443 35.0279 3.43514C35.0279 3.43514 35.0279 3.43514 35.0279 3.42585C35.0279 3.40726 35.0188 3.39797 35.0188 3.37938C35.0188 3.3515 35.0097 3.33292 35.0005 3.30505C34.8 2.37582 33.214 1.97626 32.4301 1.79041H32.3845C35.4564 2.30148 36.4316 2.86831 36.7233 3.22141L36.7415 3.20283ZM8.74917 1.96697C7.71005 2.23644 6.85324 2.57096 6.34279 2.97982C6.20606 3.09132 6.17872 3.29576 6.2881 3.43514C6.18784 3.43514 6.09668 3.49089 6.04199 3.56523C5.95996 3.62098 5.90527 3.7139 5.90527 3.82541C5.90527 4.59667 6.74385 5.00553 7.54598 5.24712C7.59155 5.26571 7.64625 5.28429 7.70094 5.30288C7.10845 5.18208 6.53421 5.04269 5.99642 4.89402C4.52889 4.44799 4.10048 4.00197 4.06403 3.80683C4.10048 3.76037 4.14606 3.70461 4.19164 3.65815C4.24633 3.60239 4.26455 3.53735 4.27367 3.46301C4.42863 3.32363 4.68385 3.17496 5.06668 2.9984C6.01465 2.56167 7.30899 2.22715 8.75829 1.95767L8.74917 1.96697ZM3.33482 4.5595V4.76393C2.88818 5.09845 2.66942 5.45156 2.72411 5.84183C2.73323 5.93475 2.76968 6.02768 2.81526 6.12059C2.81526 6.13917 2.81526 6.14848 2.82437 6.16706C2.84261 6.20422 2.86995 6.22281 2.88818 6.25997C2.88818 6.25997 2.88818 6.25997 2.88818 6.26927C2.92465 6.33432 2.97022 6.50157 2.99756 6.5945C3.03402 6.74318 3.16164 6.84539 3.30747 6.84539C3.3257 6.84539 3.35305 6.84539 3.37128 6.84539V6.85468C3.66296 7.0684 4.04579 7.26354 4.49244 7.44009C3.85438 7.29142 3.21633 7.11487 2.58738 6.87327C1.51181 6.41795 1.29304 6.07413 1.25658 5.91617C1.25658 5.87899 1.22012 5.75819 1.39331 5.56306C1.94933 4.99623 2.61473 4.78251 3.31659 4.5595H3.33482ZM18.8669 19.7987C18.8669 19.7987 18.8669 19.7987 18.8851 19.7987C19.1313 19.7987 19.35 19.7987 19.587 19.7987L19.6325 21.3227C18.402 21.3134 17.1624 21.2576 15.9318 21.1368C15.2574 21.0718 14.5281 20.9325 13.9083 20.8024C13.7443 20.7745 13.6075 20.7465 13.4799 20.7187C13.0879 20.5886 12.778 20.4306 12.696 20.2541C12.6595 20.1797 12.6048 20.1333 12.5319 20.1055L12.5045 19.5757C14.5373 19.7337 16.6337 19.8081 18.8578 19.8081L18.8669 19.7987Z" fill="#C7E7DC"/>
</g>
<defs>
<clipPath id="clip0_244_11767">
<rect width="40" height="21.8182" fill="white" transform="translate(0.5 0.34082)"/>
</clipPath>
</defs>
</svg>
