<svg width="39" height="19" viewBox="0 0 39 19" fill="none" xmlns="http://www.w3.org/2000/svg">
<g clip-path="url(#clip0_244_11785)">
<mask id="mask0_244_11785" style="mask-type:luminance" maskUnits="userSpaceOnUse" x="0" y="0" width="39" height="19">
<path d="M38.03 0.75H0.5V18.25H38.03V0.75Z" fill="white"/>
</mask>
<g mask="url(#mask0_244_11785)">
<path d="M38.03 8.46011C38.03 8.46011 38.03 8.45011 38.03 8.44011V8.07011C38.03 8.07011 38.03 8.01011 38.02 7.98011L37.76 7.18011L37.59 6.85011C37.56 6.79011 37.51 6.75011 37.46 6.71011C34.07 2.11011 21.8 0.710113 16.67 0.770113C14.32 0.640113 1.43 1.06011 0.83 5.93011C0.83 5.93011 0.83 5.93011 0.83 5.94011L0.5 10.4701C0.5 10.4701 0.5 10.4901 0.5 10.5001C0.5 10.5001 0.5 10.5201 0.5 10.5301L0.54 10.9601L0.63 11.3901L0.79 11.7701L0.99 12.1001C0.99 12.1201 0.99 12.1401 1 12.1601C4.24 16.7501 16.49 18.2301 21.9 18.2301C22.1 18.2301 22.34 18.2301 22.6 18.2301C26.56 18.2301 37.15 17.4401 37.72 13.0201C37.72 13.0201 37.72 13.0201 37.72 13.0101C37.72 13.0101 37.72 13.0101 37.72 13.0001L38.02 8.44011L38.03 8.46011ZM16.65 1.47011C22.34 1.40011 34.06 3.01011 36.98 7.24011C36.98 7.25011 37 7.25011 37.01 7.26011L37.11 7.46011L37.32 8.12011V8.40011C36.83 12.3901 25.3 13.1101 22.23 12.9501C16.92 12.9501 4.97 11.5401 1.89 7.18011C1.87 7.15011 1.83 7.15011 1.8 7.13011L1.69 6.95011L1.52 6.31011V6.02011C2.05 2.03011 13.57 1.30011 16.65 1.47011ZM21.91 17.5401C16.62 17.5401 4.72 16.1301 1.6 11.8001C1.6 11.7801 1.6 11.7701 1.58 11.7501L1.4 11.4701L1.29 11.2101L1.2 10.5001L1.4 7.72011C1.4 7.72011 1.43 7.73011 1.45 7.74011C4.85 12.2001 16.87 13.6601 22.21 13.6601C22.41 13.6701 22.69 13.6801 23.04 13.6801C26.17 13.6801 34.54 13.1301 37.2 10.1701L37.02 12.9601C36.52 16.8101 25.76 17.6601 21.9 17.5501L21.91 17.5401Z" fill="#C7E7DC"/>
<path d="M8.56977 7.05005L8.63976 7.25005C8.63976 7.25005 8.66977 7.33005 8.69977 7.36005L8.80976 7.50005L8.82977 7.52005C10.7898 10.3801 18.5498 11.1201 21.0198 11.0801C21.1298 11.0801 21.2898 11.0901 21.4998 11.0901C23.5498 11.0901 29.9798 10.6701 30.3298 7.98005C30.3298 7.96005 30.3298 7.95005 30.3298 7.93005C30.3298 7.92005 30.3298 7.91005 30.3298 7.90005V7.70005C30.3298 7.70005 30.3298 7.64005 30.3198 7.60005L30.1498 7.08005L30.0498 6.91005C30.0498 6.91005 30.0498 6.91005 30.0398 6.90005C28.0798 4.08005 20.3598 3.29005 17.8398 3.32005C16.9498 3.24005 9.17977 3.40005 8.58977 6.29005C8.53977 6.35005 8.50977 6.42005 8.50977 6.50005L8.55976 7.04005L8.56977 7.05005ZM21.0298 10.3801C19.2298 10.4301 15.2398 10.0301 12.3698 9.00005C16.4798 8.14005 22.2098 8.53005 26.1498 9.93005C24.2398 10.3301 22.0698 10.4401 21.0398 10.3801H21.0298ZM17.8198 4.03005C20.9598 3.99005 27.7998 4.94005 29.4598 7.30005L29.6398 7.76005V7.91005C29.5298 8.70005 28.5698 9.26005 27.3098 9.65005C22.9898 7.79005 15.8498 7.30005 11.2798 8.55005C10.4398 8.15005 9.76976 7.68005 9.38976 7.12005C9.38976 7.12005 9.38977 7.12005 9.37977 7.12005C9.37977 7.12005 9.37977 7.11005 9.37977 7.10005L9.27977 6.98005L9.22976 6.59005C9.22976 6.59005 9.24977 6.57005 9.24977 6.55005C9.43977 4.50005 15.7998 3.86005 17.8198 4.04005V4.03005Z" fill="#C7E7DC"/>
</g>
</g>
<defs>
<clipPath id="clip0_244_11785">
<rect width="38" height="18" fill="white" transform="translate(0.5 0.75)"/>
</clipPath>
</defs>
</svg>
