<svg width="86" height="40" viewBox="0 0 86 40" fill="none" xmlns="http://www.w3.org/2000/svg">
<g clip-path="url(#clip0_404_1080)">
<g clip-path="url(#clip1_404_1080)">
<path fill-rule="evenodd" clip-rule="evenodd" d="M9.36512 27.5091C10.7221 28.0901 12.1073 28.4386 13.6057 28.5549C14.1146 28.6129 14.9909 28.5839 14.9627 28.5839C16.6872 28.5549 18.3552 28.1773 19.9382 27.5091C21.6345 26.7538 23.1045 25.7371 24.405 24.459C25.6772 23.1808 26.7232 21.6703 27.4865 19.9274C28.2498 18.1845 28.6456 16.3254 28.6456 14.321C28.6456 12.3167 28.2498 10.4575 27.4865 8.71461C26.7232 6.97168 25.7054 5.46115 24.405 4.15397C23.1329 2.87582 21.6345 1.85912 19.9382 1.10385C18.2704 0.377633 16.4893 0 14.6517 0C12.8141 0 11.0614 0.377633 9.39338 1.10385C7.72543 1.83007 6.2271 2.84678 4.95493 4.15397C3.65448 5.46115 2.63674 6.97168 1.87344 8.71461C1.11014 10.4575 0.714355 12.3457 0.714355 14.321C0.714355 16.3254 1.11014 18.2135 1.84517 19.9274C2.63674 21.6703 3.65448 23.1808 4.92665 24.459C6.19882 25.7371 7.69717 26.7538 9.36512 27.5091ZM18.3552 26.7829C17.3374 27.451 16.0934 27.7995 14.6517 27.7995C13.2381 27.7995 11.9943 27.4801 10.9765 26.7538C9.93053 26.0857 9.08241 25.1271 8.4322 23.9361C7.7537 22.7451 7.27311 21.3217 6.96213 19.6659C6.65116 18.0102 6.48153 16.2091 6.48153 14.292C6.48153 12.3747 6.65116 10.5737 6.96213 8.91794C7.30137 7.26217 7.78198 5.83879 8.4322 4.61874C9.08241 3.3987 9.93053 2.46914 10.9765 1.77197C11.9943 1.0748 13.2381 0.726217 14.68 0.726217C16.1218 0.726217 17.3374 1.0748 18.3834 1.77197C19.4011 2.46914 20.2492 3.42775 20.9277 4.61874C21.6062 5.80974 22.0868 7.26217 22.3696 8.8889C22.6805 10.5447 22.8501 12.3457 22.8501 14.292C22.8501 16.2673 22.6805 18.0682 22.3696 19.695C22.0586 21.3507 21.578 22.7742 20.8995 23.9651C20.2492 25.1561 19.4011 26.1147 18.3552 26.7829ZM76.3664 22.7453C75.8857 23.3552 75.2355 23.849 74.4156 24.2848C73.5958 24.7206 72.6064 24.9239 71.4473 24.9239C70.5426 24.9239 69.7228 24.7786 68.9312 24.4881C68.1678 24.1977 67.5177 23.7329 66.9523 23.1229C66.4434 22.5418 66.0476 21.7866 65.7366 20.8861L76.3664 15.9187C76.3664 15.9187 76.338 14.0887 74.6984 11.852C74.1046 11.0676 73.2565 10.5448 72.3236 10.08C71.3907 9.61521 70.3448 9.38282 69.1857 9.38282C68.0548 9.38282 66.9805 9.61521 65.9345 10.109C64.8885 10.5738 63.9556 11.271 63.1641 12.1424C62.3724 13.0139 61.7222 14.0597 61.2417 15.2797C60.761 16.4998 60.5066 17.836 60.5066 19.3465C60.5066 20.6537 60.7045 21.8737 61.1003 22.9776C61.4961 24.1105 62.0614 25.0982 62.8248 25.9115C63.5598 26.7539 64.4644 27.393 65.5105 27.8869C66.5565 28.3517 67.7156 28.613 69.016 28.613C71.0232 28.613 72.6629 28.0611 73.935 26.9863C75.2073 25.9115 76.0836 24.5171 76.5925 22.8905L76.3664 22.7453ZM65.2277 16.3255C65.2843 15.4831 65.3973 14.6987 65.567 13.9434C65.7366 13.1882 65.991 12.5201 66.302 11.9681C66.613 11.3872 66.9805 10.9515 67.4611 10.6319C67.9134 10.3124 68.4506 10.1381 69.0443 10.1381C70.0054 10.1381 70.7122 10.5448 71.2211 11.3872C71.73 12.2006 71.9562 14.1177 71.9562 15.9187V17.0807L65.5953 20.1889C65.3691 19.2594 65.2277 18.3298 65.2277 17.0807V16.3255ZM46.287 28.0317H41.8485V24.052L41.8203 24.023C41.5659 24.5458 41.2549 25.0687 40.8874 25.6207C40.5198 26.1726 40.1241 26.6374 39.6152 27.073C39.1346 27.5088 38.5692 27.8864 37.9473 28.1479C37.3253 28.4384 36.6186 28.5835 35.8553 28.5835C34.2721 28.5835 33.0848 28.0317 32.2649 26.8987C31.445 25.7658 31.0492 24.2843 31.0492 22.3962V9.93434H35.6856V22.1057C35.6856 23.1806 35.9117 24.023 36.3924 24.633C36.873 25.243 37.5797 25.5335 38.4844 25.5335C39.276 25.5335 39.8979 25.3302 40.4068 24.9234C40.9156 24.5168 41.3397 23.9939 41.6507 23.3549V9.93434H46.287V28.0317ZM28.6453 31.6046C26.7513 31.6046 24.9985 31.7789 23.4154 32.0984C21.8322 32.4179 20.4469 32.9408 19.2596 33.6089C18.1005 34.3061 17.1676 35.1776 16.5173 36.2233C15.8672 37.269 15.5278 38.5472 15.5278 39.9997H14.7645V39.6801C14.8211 37.9081 15.1604 36.1943 15.8106 34.5675C16.5457 32.8537 17.535 31.3141 18.779 29.9778C20.0229 28.6416 21.493 27.5959 23.1892 26.8115C24.8854 26.0272 26.6947 25.6206 28.6453 25.6206V31.6046ZM56.8306 10.9216C57.3112 10.4568 57.8483 10.0792 58.442 9.78867C59.0356 9.49819 59.5163 9.35295 60.1665 9.382V14.785H59.7989C59.6293 14.5527 59.3749 14.3494 59.064 14.1459C58.753 13.9717 58.442 13.7974 58.1027 13.6521C57.7917 13.5069 57.4525 13.3907 57.1416 13.3035C56.8306 13.2165 56.5762 13.1583 56.35 13.1583C56.0673 13.1583 55.7281 13.2745 55.3605 13.5069C55.0212 13.7393 54.6538 14.0589 54.3145 14.4945L54.3428 28.0312H49.6216V20.3334L49.6499 9.93392H54.3145V13.6521C54.6048 13.329 54.9157 12.9634 55.2473 12.5735C55.3033 12.5077 55.3598 12.4411 55.417 12.3741C55.8693 11.8511 56.3217 11.3573 56.8306 10.9216Z" fill="black"/>
<path d="M80.2724 11.25V11.7651H79.4274V14.432H78.7914V11.7651H77.9465V11.25H80.2724Z" fill="black"/>
<path d="M84.3766 11.25V14.432H83.7406V12.3624L82.8912 14.432H82.4096L81.5557 12.3624V14.432H80.9197V11.25H81.642L82.6504 13.616L83.6589 11.25H84.3766Z" fill="black"/>
</g>
</g>
<defs>
<clipPath id="clip0_404_1080">
<rect width="84.5714" height="40" fill="white" transform="translate(0.714355)"/>
</clipPath>
<clipPath id="clip1_404_1080">
<rect width="84.5714" height="40" fill="white" transform="translate(0.714355)"/>
</clipPath>
</defs>
</svg>
