<svg width="24" height="25" viewBox="0 0 24 25" fill="none" xmlns="http://www.w3.org/2000/svg">
<path d="M1.8208 6.39286C2.43152 6.90179 3.04223 7.41072 4.36545 7.41072C6.91009 7.41072 6.91009 5.375 9.45474 5.375C12.1012 5.375 11.8976 7.41072 14.544 7.41072C17.0887 7.41072 17.0887 5.375 19.6333 5.375C20.9565 5.375 21.5673 5.88393 22.178 6.39286" stroke="#212428" stroke-width="1.5" stroke-linecap="round" stroke-linejoin="round"/>
<path d="M1.8208 12.4998C2.43152 13.0087 3.04223 13.5177 4.36545 13.5177C6.91009 13.5177 6.91009 11.4819 9.45474 11.4819C12.1012 11.4819 11.8976 13.5177 14.544 13.5177C17.0887 13.5177 17.0887 11.4819 19.6333 11.4819C20.9565 11.4819 21.5673 11.9909 22.178 12.4998" stroke="#212428" stroke-width="1.5" stroke-linecap="round" stroke-linejoin="round"/>
<path d="M1.8208 18.6067C2.43152 19.1157 3.04223 19.6246 4.36545 19.6246C6.91009 19.6246 6.91009 17.5889 9.45474 17.5889C12.1012 17.5889 11.8976 19.6246 14.544 19.6246C17.0887 19.6246 17.0887 17.5889 19.6333 17.5889C20.9565 17.5889 21.5673 18.0978 22.178 18.6067" stroke="#212428" stroke-width="1.5" stroke-linecap="round" stroke-linejoin="round"/>
</svg>
