<svg width="46" height="11" viewBox="0 0 46 11" fill="none" xmlns="http://www.w3.org/2000/svg">
<path fill-rule="evenodd" clip-rule="evenodd" d="M37.7854 4.97769C38.8015 4.89571 39.6511 5.63568 39.7387 6.5452C39.8387 7.58127 39.0212 8.37022 38.0864 8.44834C37.0523 8.53461 36.2061 7.79699 36.1154 6.87944C36.0122 5.83694 36.8378 5.05431 37.7854 4.97769ZM41.7416 10.0974C41.7778 9.92519 41.7524 3.49066 41.7523 3.33431H39.7492L39.7516 3.75204C39.6244 3.68538 39.5064 3.60083 39.3653 3.5271C38.9442 3.30698 38.4322 3.17056 37.9432 3.14548C35.0825 2.99931 33.2472 6.18276 34.7623 8.6077C35.0669 9.0953 35.4928 9.52675 35.9952 9.80881C36.8783 10.3048 37.9453 10.4481 38.9601 10.075C39.4665 9.88875 39.6061 9.73508 39.7529 9.67389L39.7593 10.0987L41.7416 10.0974Z" fill="#212428"/>
<path fill-rule="evenodd" clip-rule="evenodd" d="M14.9227 6.90138C14.8151 5.85727 15.623 5.06842 16.5533 4.98194C17.5879 4.88581 18.4435 5.6169 18.5422 6.5263C18.6556 7.57116 17.8388 8.36033 16.9105 8.44842C15.8723 8.5469 15.0159 7.80628 14.9227 6.90138ZM20.5394 10.1003C20.5857 9.94863 20.5556 3.67603 20.5556 3.34049H18.5588L18.5554 3.75586C18.4403 3.69928 18.3075 3.59908 18.1694 3.52717C15.9205 2.35778 13.029 3.96259 13.0283 6.71416C13.0278 8.84043 14.8077 10.3835 16.7507 10.2824C17.1041 10.264 17.456 10.1905 17.7633 10.0782C18.1514 9.93652 18.2526 9.84103 18.5579 9.67439L18.5642 10.1007L20.5394 10.1003Z" fill="#212428"/>
<path fill-rule="evenodd" clip-rule="evenodd" d="M31.4993 6.40279C31.5614 6.53814 31.5253 9.65194 31.5247 10.0865H33.4997L33.4904 5.58759C33.5347 5.36715 33.3868 4.92638 33.3048 4.74034C33.0001 4.04848 32.441 3.54641 31.6519 3.29403C30.8677 3.04327 29.8047 3.08935 29.112 3.57481C28.7316 3.84144 28.7246 3.95192 28.5838 4.07141L28.5776 3.32822L26.583 3.32801L26.5887 10.0984L28.6036 10.0979C28.6318 9.72181 28.6076 8.24861 28.6076 7.7519C28.6076 7.04632 28.5084 6.18278 28.8442 5.63688C29.1167 5.19354 29.7719 4.87997 30.5206 5.04865C31.1142 5.18229 31.5096 5.69229 31.4993 6.40279Z" fill="#212428"/>
<path fill-rule="evenodd" clip-rule="evenodd" d="M6.37972 5.86619C6.76166 5.43539 6.91598 5.28857 7.27284 4.78468C8.08773 3.63426 8.72354 1.79133 8.64992 0.308808L6.47853 0.308594C6.44735 0.644664 6.45045 0.927795 6.39462 1.26537C6.1729 2.60847 5.50429 3.73338 4.52909 4.59928C4.25882 4.83912 3.75846 5.18622 3.43536 5.4401L3.36816 5.50493L6.50372 9.82327C6.56716 9.912 6.65042 10.016 6.69811 10.101L9.44487 10.0975C9.41283 10.0325 9.30877 9.90172 9.2599 9.83409L7.91197 7.9782C7.68264 7.67021 6.58216 6.18426 6.37972 5.86619Z" fill="#212428"/>
<path fill-rule="evenodd" clip-rule="evenodd" d="M0.87906 10.1014L3.07209 10.097L3.08345 0.3125H0.874023L0.87906 10.1014Z" fill="#212428"/>
<path fill-rule="evenodd" clip-rule="evenodd" d="M10.1123 10.0912H12.1883L12.1836 0.316406H10.1125L10.1123 10.0912Z" fill="#212428"/>
<path fill-rule="evenodd" clip-rule="evenodd" d="M23.6761 10.0985C23.7 9.84871 23.6812 9.50932 23.6812 9.24987C23.6812 8.85604 23.6622 6.96843 23.6963 6.73266C23.792 6.0737 24.3385 5.62264 24.9405 5.41656C25.2092 5.32472 25.3659 5.33437 25.6456 5.28957L25.6412 3.33327C25.2661 3.30101 24.7761 3.44911 24.4793 3.58275C24.0589 3.77211 23.9524 3.93736 23.6773 4.19627L23.6698 3.32812L21.6201 3.32963L21.6238 10.0984L23.6761 10.0985Z" fill="#212428"/>
<path fill-rule="evenodd" clip-rule="evenodd" d="M42.6407 9.08182C42.6969 9.73853 43.2733 10.2904 43.9968 10.2351C44.6582 10.1846 45.2178 9.58914 45.1514 8.85206C45.0922 8.19588 44.5123 7.63294 43.7805 7.70089C43.1285 7.76144 42.5775 8.34367 42.6407 9.08182Z" fill="#212428"/>
<path fill-rule="evenodd" clip-rule="evenodd" d="M0.878194 10.1027L0.873157 0.313826H3.08258L3.07123 10.0983C3.10091 10.0701 3.08891 10.0923 3.09748 10.0403L3.09705 2.75923C3.09705 2.18375 3.12342 0.787712 3.09405 0.313826C3.00393 0.279105 1.01858 0.275139 0.858368 0.306217C0.826433 0.667471 0.853438 1.15679 0.853438 1.53187L0.852153 9.97896C0.852153 10.0008 0.852153 10.0388 0.856332 10.0591C0.866084 10.1063 0.859762 10.0781 0.878194 10.1027Z" fill="#78575F"/>
<path fill-rule="evenodd" clip-rule="evenodd" d="M10.1129 0.315778H12.184L12.1887 10.0905H10.1127L10.1129 0.315778ZM10.0971 10.0969C10.238 10.1259 12.1044 10.1242 12.2108 10.0929L12.2063 0.311277C12.1084 0.283414 10.2338 0.281271 10.0928 0.307633L10.0971 10.0969Z" fill="#705058"/>
<path fill-rule="evenodd" clip-rule="evenodd" d="M31.499 6.40114L31.5053 10.1022L33.5139 10.0974C33.5411 9.75799 33.5182 8.29561 33.5182 7.83352C33.5182 7.40314 33.5402 6.10365 33.516 5.68946L33.49 5.58594L33.4994 10.0848H31.5244C31.525 9.65029 31.5611 6.53649 31.499 6.40114Z" fill="#212428"/>
<path fill-rule="evenodd" clip-rule="evenodd" d="M41.7414 10.0961C41.791 10.0739 41.774 10.0838 41.7725 9.91456C41.7642 8.94933 41.8001 3.59267 41.7662 3.32915C41.6542 3.28767 40.2441 3.31179 39.882 3.3105C39.8732 3.3105 39.8236 3.30975 39.8184 3.31039L39.7643 3.32465C39.7603 3.32604 39.7541 3.33011 39.749 3.33301H41.752C41.7522 3.48936 41.7776 9.92389 41.7414 10.0961Z" fill="#8D646E"/>
<path fill-rule="evenodd" clip-rule="evenodd" d="M20.5402 10.0982C20.5909 10.0786 20.5703 10.1156 20.5799 10.0215C20.5815 10.0057 20.5777 9.93748 20.5775 9.91584C20.5675 8.95949 20.6033 3.571 20.5706 3.32892C20.4176 3.2987 19.0728 3.3197 18.6846 3.31842L18.5596 3.33846H20.5564C20.5564 3.67399 20.5865 9.94659 20.5402 10.0982Z" fill="#6C4F55"/>
</svg>
