<svg width="94" height="16" viewBox="0 0 94 16" fill="none" xmlns="http://www.w3.org/2000/svg">
<path fill-rule="evenodd" clip-rule="evenodd" d="M9.02558 0.343508L10.8544 5.66097L16.5685 5.72594C17.0602 5.73156 17.2637 6.34689 16.8694 6.63488L12.285 9.98578L13.9878 15.3432C14.1341 15.8042 13.6017 16.1841 13.2003 15.9048L8.53896 12.6582L3.87697 15.9042C3.47623 16.1834 2.94317 15.803 3.08948 15.3426L4.79232 9.98515L0.207934 6.63425C-0.186449 6.34626 0.0171039 5.73093 0.508811 5.72531L6.22291 5.66034L8.05171 0.342883C8.20946 -0.114398 8.86846 -0.114398 9.02558 0.343508Z" fill="#91BAEC"/>
<path fill-rule="evenodd" clip-rule="evenodd" d="M28.1027 0.343508L29.9315 5.66097L35.6456 5.72594C36.1373 5.73156 36.3409 6.34689 35.9465 6.63488L31.3621 9.98577L33.065 15.3432C33.2113 15.8042 32.6788 16.1841 32.2775 15.9048L27.6161 12.6582L22.9541 15.9042C22.5534 16.1834 22.0203 15.803 22.1666 15.3426L23.8695 9.98515L19.2851 6.63425C18.8907 6.34626 19.0943 5.73093 19.586 5.72531L25.3001 5.66034L27.1289 0.342883C27.2866 -0.114398 27.9456 -0.114398 28.1027 0.343508Z" fill="#91BAEC"/>
<path fill-rule="evenodd" clip-rule="evenodd" d="M47.1799 0.343508L49.0087 5.66097L54.7228 5.72594C55.2145 5.73156 55.418 6.34689 55.0236 6.63488L50.4393 9.98578L52.1421 15.3432C52.2884 15.8042 51.756 16.1841 51.3546 15.9048L46.6933 12.6582L42.0313 15.9042C41.6305 16.1834 41.0975 15.803 41.2438 15.3426L42.9466 9.98515L38.3622 6.63425C37.9678 6.34626 38.1714 5.73093 38.6631 5.72531L44.3772 5.66034L46.206 0.342883C46.3638 -0.114398 47.0228 -0.114398 47.1799 0.343508Z" fill="#91BAEC"/>
<path fill-rule="evenodd" clip-rule="evenodd" d="M66.257 0.343508L68.0858 5.66097L73.7999 5.72594C74.2916 5.73156 74.4952 6.34689 74.1008 6.63488L69.5164 9.98578L71.2193 15.3432C71.3656 15.8042 70.8331 16.1841 70.4318 15.9048L65.7704 12.6582L61.1084 15.9042C60.7077 16.1834 60.1746 15.803 60.3209 15.3426L62.0238 9.98515L57.4394 6.63425C57.045 6.34626 57.2486 5.73093 57.7403 5.72531L63.4544 5.66034L65.2832 0.342883C65.4409 -0.114398 66.0999 -0.114398 66.257 0.343508Z" fill="#91BAEC"/>
<path fill-rule="evenodd" clip-rule="evenodd" d="M85.3351 0.343508L87.1639 5.66097L92.878 5.72594C93.3698 5.73156 93.5733 6.34689 93.1789 6.63488L88.5945 9.98578L90.2974 15.3432C90.4437 15.8042 89.9113 16.1841 89.5099 15.9048L84.8485 12.6582L80.1865 15.9042C79.7858 16.1834 79.2527 15.803 79.399 15.3426L81.1019 9.98515L76.5175 6.63425C76.1231 6.34626 76.3267 5.73093 76.8184 5.72531L82.5325 5.66034L84.3613 0.342883C84.519 -0.114398 85.178 -0.114398 85.3351 0.343508Z" fill="#91BAEC"/>
<path fill-rule="evenodd" clip-rule="evenodd" d="M85.3351 0.343508L87.1639 5.66097L92.878 5.72594C93.3698 5.73156 93.5733 6.34689 93.1789 6.63488L88.5945 9.98578L90.2974 15.3432C90.4437 15.8042 89.9113 16.1841 89.5099 15.9048L84.8485 12.6582L80.1865 15.9042C79.7858 16.1834 79.2527 15.803 79.399 15.3426L81.1019 9.98515L76.5175 6.63425C76.1231 6.34626 76.3267 5.73093 76.8184 5.72531L82.5325 5.66034L84.3613 0.342883C84.519 -0.114398 85.178 -0.114398 85.3351 0.343508Z" fill="url(#paint0_linear_653_2426)"/>
<defs>
<linearGradient id="paint0_linear_653_2426" x1="76.3096" y1="8" x2="89.6657" y2="8" gradientUnits="userSpaceOnUse">
<stop offset="0.715081" stop-color="#DFE0E0" stop-opacity="0"/>
<stop offset="0.71544" stop-color="#DFE0E0"/>
</linearGradient>
</defs>
</svg>
