<svg width="17" height="12" viewBox="0 0 17 12" fill="none" xmlns="http://www.w3.org/2000/svg">
<g clip-path="url(#clip0_5138_2703)">
<path d="M1.23212 3.85714C1.80044 3.85714 2.34548 4.08291 2.74735 4.48477C3.14921 4.88663 3.37497 5.43168 3.37497 6C3.37497 6.56832 3.14921 7.11337 2.74735 7.51523C2.34548 7.91709 1.80044 8.14286 1.23212 8.14286V9.57143C1.23212 9.95031 1.38263 10.3137 1.65054 10.5816C1.91844 10.8495 2.28181 11 2.66069 11H14.0893C14.4681 11 14.8315 10.8495 15.0994 10.5816C15.3673 10.3137 15.5178 9.95031 15.5178 9.57143V8.14286C14.9495 8.14286 14.4045 7.91709 14.0026 7.51523C13.6007 7.11337 13.375 6.56832 13.375 6C13.375 5.43168 13.6007 4.88663 14.0026 4.48477C14.4045 4.08291 14.9495 3.85714 15.5178 3.85714V2.42857C15.5178 2.04969 15.3673 1.68633 15.0994 1.41842C14.8315 1.15051 14.4681 1 14.0893 1H2.66069C2.28181 1 1.91844 1.15051 1.65054 1.41842C1.38263 1.68633 1.23212 2.04969 1.23212 2.42857V3.85714Z" stroke="#212428" stroke-linecap="round" stroke-linejoin="round"/>
<path d="M6.23212 5.99998L7.66069 7.42855L10.5178 4.57141" stroke="#212428" stroke-linecap="round" stroke-linejoin="round"/>
</g>
<defs>
<clipPath id="clip0_5138_2703">
<rect width="16.2857" height="12" fill="white" transform="translate(0.232147)"/>
</clipPath>
</defs>
</svg>
