<svg width="51" height="46" viewBox="0 0 51 46" fill="none" xmlns="http://www.w3.org/2000/svg">
<path d="M16.5513 17.8763C18.0138 18.0839 19.5022 17.7042 20.6936 16.8013C23.1551 14.9421 23.6474 11.4242 21.7911 8.95913C20.8914 7.76451 19.5811 6.99235 18.1013 6.78505C16.6222 6.57783 15.1512 6.95957 13.9589 7.86011C11.4973 9.71924 11.005 13.2373 12.8614 15.7023C13.761 16.8969 15.0715 17.669 16.5512 17.8763H16.5513ZM14.4018 8.44644C15.4365 7.66222 16.7292 7.3325 17.9993 7.51276C19.2846 7.69286 20.4227 8.36355 21.2041 9.40121C22.817 11.543 22.3894 14.5997 20.2507 16.2149C19.2153 16.997 17.9375 17.3286 16.6533 17.1486C15.368 16.9685 14.2299 16.2978 13.4484 15.2602C11.8355 13.1184 12.2631 10.0617 14.4018 8.44644Z" fill="#212428" stroke="#212428" stroke-width="0.1"/>
<path d="M16.2905 19.7388C17.7411 19.9449 19.2119 19.7189 20.524 19.0961L21.7477 20.7211L17.9869 23.5616C17.8252 23.6838 17.7929 23.9139 17.9149 24.0758L19.2963 25.9102C19.412 26.0705 19.6559 26.1043 19.8113 25.9824L23.5712 23.1425L24.5106 24.39L20.7498 27.2304C20.5881 27.3526 20.5558 27.5827 20.6778 27.7446L22.0592 29.5791C22.1751 29.7392 22.4184 29.7735 22.5742 29.6512L26.3341 26.8114L27.5544 28.4319C25.2683 31.0415 25.0398 34.9939 27.2073 37.8721C28.4077 39.4662 30.1591 40.4969 32.1388 40.7743C34.0931 41.052 36.0845 40.5462 37.6742 39.341C40.9639 36.8564 41.6219 32.1547 39.1409 28.8602C37.9404 27.2661 36.189 26.2354 34.2093 25.958C32.7398 25.7521 31.2777 25.9802 29.9708 26.6032L28.7522 24.9851L32.513 22.1446C32.6748 22.0224 32.707 21.7923 32.585 21.6304L31.2036 19.7959C31.0879 19.6358 30.844 19.6016 30.6887 19.7238L26.9287 22.5636L25.9893 21.3162L29.7501 18.4757C29.9119 18.3535 29.9441 18.1235 29.8221 17.9615L28.4407 16.1271C28.325 15.9669 28.0811 15.9329 27.9258 16.0549L24.1658 18.8947L22.9417 17.2693C25.2314 14.6598 25.4614 10.7046 23.2926 7.8247C22.0921 6.23063 20.3407 5.19995 18.3611 4.92248C16.3823 4.64522 14.4166 5.15424 12.8257 6.35592C9.53603 8.84054 8.87813 13.5421 11.3591 16.8366C12.5595 18.4307 14.3109 19.4614 16.2905 19.7389L16.2905 19.7388ZM34.1074 26.6856C35.8924 26.9357 37.4717 27.865 38.5539 29.3021C40.7915 32.2734 40.1982 36.5137 37.2313 38.7545C35.7971 39.8377 34.0247 40.2965 32.2408 40.0466C30.4557 39.7964 28.8766 38.8672 27.7944 37.43C25.5568 34.4587 26.1501 30.2185 29.1169 27.9777C30.5499 26.8913 32.3455 26.4352 34.1074 26.6857V26.6856ZM23.8001 19.6306C23.8587 19.7086 23.946 19.7599 24.0426 19.7735C24.1391 19.7869 24.2372 19.7616 24.3151 19.7028L28.075 16.8629L29.0144 18.1104L25.2536 20.9508C25.0919 21.073 25.0596 21.3031 25.1816 21.465L26.563 23.2995C26.6216 23.3774 26.7089 23.4288 26.8055 23.4423C26.9022 23.4557 27.0001 23.4304 27.078 23.3717L30.8379 20.5318L31.7773 21.7793L28.0165 24.6197C27.8548 24.7419 27.8225 24.972 27.9445 25.1339L29.3166 26.956C29.0966 27.0892 28.8821 27.2342 28.674 27.3913C28.4624 27.5512 28.2618 27.7204 28.0721 27.8976L26.6998 26.0754C26.6411 25.9974 26.5538 25.9461 26.4573 25.9325C26.3607 25.9192 26.2627 25.9444 26.1848 26.0032L22.4249 28.8431L21.4854 27.5956L25.2463 24.7552C25.408 24.633 25.4402 24.4029 25.3183 24.241L23.9369 22.4065C23.8782 22.3286 23.7909 22.2772 23.6944 22.2637C23.5978 22.2502 23.4998 22.2756 23.4219 22.3344L19.662 25.1742L18.7225 23.9267L22.4834 21.0862C22.6451 20.964 22.6773 20.734 22.5554 20.572L21.1787 18.744C21.4006 18.6099 21.6168 18.4638 21.8259 18.3053C22.036 18.1466 22.2353 17.9788 22.4238 17.8029L23.8001 19.6306ZM13.2685 6.94217C14.7015 5.85572 16.4971 5.39968 18.259 5.65011C20.0441 5.90025 21.6233 6.82952 22.7056 8.26663C24.9431 11.2379 24.3498 15.4782 21.3829 17.719C19.9488 18.8022 18.1763 19.261 16.3925 19.0111C14.6073 18.7609 13.0282 17.8317 11.946 16.3946C9.70842 13.4233 10.3017 9.1829 13.2685 6.94217Z" fill="#212428" stroke="#212428" stroke-width="0.1"/>
<path d="M28.7091 36.7374C29.6088 37.932 30.9192 38.7042 32.3989 38.9115C33.8615 39.119 35.3499 38.7393 36.5413 37.8364C39.0028 35.9773 39.4951 32.4594 37.6387 29.9943C36.7391 28.7997 35.4287 28.0275 33.9489 27.8202C32.4698 27.613 30.9988 27.9947 29.8065 28.8953C27.345 30.7544 26.8527 34.2724 28.709 36.7374H28.7091ZM30.2495 29.4816C31.2842 28.6974 32.5768 28.3677 33.847 28.5479C35.1322 28.728 36.2703 29.3987 37.0517 30.4364C38.6647 32.5782 38.237 35.6349 36.0984 37.2501C35.0629 38.0322 33.7852 38.3637 32.5009 38.1838C31.2157 38.0037 30.0775 37.333 29.2961 36.2953C27.6831 34.1535 28.1108 31.0969 30.2495 29.4816Z" fill="#212428" stroke="#212428" stroke-width="0.1"/>
</svg>
