<svg width="31" height="31" viewBox="0 0 31 31" fill="none" xmlns="http://www.w3.org/2000/svg">
<path fill-rule="evenodd" clip-rule="evenodd" d="M15.5688 4.56641V26.5664C15.5688 26.5664 6.39696 24.0488 5.28564 8.17476C5.28564 8.17476 13.4971 6.27454 15.5688 4.57327V4.56641Z" stroke="#212428" stroke-width="0.75" stroke-miterlimit="2.61313" stroke-linecap="round" stroke-linejoin="round"/>
<path fill-rule="evenodd" clip-rule="evenodd" d="M15.5693 4.56641V26.5664C15.5693 26.5664 24.7411 24.0488 25.8525 8.17476C25.8525 8.17476 17.6411 6.27454 15.5693 4.57327V4.56641Z" stroke="#212428" stroke-width="0.75" stroke-miterlimit="2.61313" stroke-linecap="round" stroke-linejoin="round"/>
<path d="M15.5694 20.9298C19.0029 20.9298 21.7863 18.1464 21.7863 14.713C21.7863 11.2795 19.0029 8.49609 15.5694 8.49609C12.1359 8.49609 9.35254 11.2795 9.35254 14.713C9.35254 18.1464 12.1359 20.9298 15.5694 20.9298Z" stroke="#212428" stroke-width="0.75" stroke-miterlimit="2.61313" stroke-linecap="round" stroke-linejoin="round"/>
<path fill-rule="evenodd" clip-rule="evenodd" d="M14.3703 18.4832C14.7299 18.667 15.1374 18.7709 15.5689 18.7709C16.0005 18.7709 16.408 18.667 16.7676 18.4832C17.6386 18.0437 18.2299 17.1407 18.2299 16.1099C18.2299 16.046 18.2299 15.99 18.2219 15.9261C18.2219 15.9261 18.2219 15.9181 18.2219 15.9101H18.2299C18.2379 15.7423 18.1979 14.4798 15.5689 10.6602C12.948 14.4798 12.9 15.7423 12.908 15.9101H12.916C12.916 15.9261 12.916 15.9261 12.916 15.9261C12.908 15.99 12.908 16.046 12.908 16.1099C12.908 17.1487 13.4993 18.0517 14.3703 18.4832Z" stroke="#212428" stroke-width="0.75" stroke-miterlimit="2.61313" stroke-linecap="round" stroke-linejoin="round"/>
</svg>
