<svg width="41" height="41" viewBox="0 0 41 41" fill="none" xmlns="http://www.w3.org/2000/svg">
<path fill-rule="evenodd" clip-rule="evenodd" d="M20.6669 6.09924V35.4326C20.6669 35.4326 8.43781 32.0758 6.95605 10.9104C6.95605 10.9104 17.9046 8.37676 20.6669 6.10839V6.09924Z" stroke="#212428" stroke-miterlimit="2.61313" stroke-linecap="round" stroke-linejoin="round"/>
<path fill-rule="evenodd" clip-rule="evenodd" d="M20.668 6.09924V35.4326C20.668 35.4326 32.897 32.0758 34.3788 10.9104C34.3788 10.9104 23.4303 8.37676 20.668 6.10839V6.09924Z" stroke="#212428" stroke-miterlimit="2.61313" stroke-linecap="round" stroke-linejoin="round"/>
<path d="M20.6671 27.9166C25.2451 27.9166 28.9562 24.2054 28.9562 19.6274C28.9562 15.0494 25.2451 11.3383 20.6671 11.3383C16.0891 11.3383 12.3779 15.0494 12.3779 19.6274C12.3779 24.2054 16.0891 27.9166 20.6671 27.9166Z" stroke="#212428" stroke-miterlimit="2.61313" stroke-linecap="round" stroke-linejoin="round"/>
<path fill-rule="evenodd" clip-rule="evenodd" d="M19.0686 24.6559C19.5481 24.901 20.0915 25.0395 20.6668 25.0395C21.2421 25.0395 21.7855 24.901 22.265 24.6559C23.4263 24.0699 24.2147 22.866 24.2147 21.4916C24.2147 21.4063 24.2147 21.3317 24.2041 21.2465C24.2041 21.2465 24.2041 21.2358 24.2041 21.2252H24.2147C24.2254 21.0014 24.1721 19.318 20.6668 14.2252C17.1721 19.318 17.1082 21.0014 17.1189 21.2252H17.1295C17.1295 21.2465 17.1295 21.2465 17.1295 21.2465C17.1189 21.3317 17.1189 21.4063 17.1189 21.4916C17.1189 22.8766 17.9073 24.0806 19.0686 24.6559Z" stroke="#212428" stroke-miterlimit="2.61313" stroke-linecap="round" stroke-linejoin="round"/>
</svg>
