<svg width="17" height="17" viewBox="0 0 17 17" fill="none" xmlns="http://www.w3.org/2000/svg">
<path d="M12.7262 9.21095C12.4428 8.32562 11.8388 7.49162 10.9162 6.75362C9.58282 5.68695 8.58282 4.08695 8.24949 2.42029C8.12754 3.01778 7.92948 3.59717 7.66016 4.14429" stroke="#212428" stroke-width="0.7" stroke-linecap="round" stroke-linejoin="round"/>
<path d="M1.58398 1.75366L14.9173 15.087" stroke="#212428" stroke-width="0.7" stroke-linecap="round" stroke-linejoin="round"/>
<path d="M6.11398 6.28516C5.94496 6.44981 5.76809 6.60622 5.58398 6.75382C4.25065 7.82049 3.58398 9.08716 3.58398 10.4205C3.58388 11.4669 3.93544 12.4829 4.58222 13.3055C5.22899 14.128 6.13345 14.7093 7.15032 14.9561C8.1672 15.2028 9.23748 15.1006 10.1893 14.6659C11.1411 14.2312 11.9192 13.4892 12.3987 12.5592" stroke="#212428" stroke-width="0.7" stroke-linecap="round" stroke-linejoin="round"/>
</svg>
