<svg width="16" height="17" viewBox="0 0 16 17" fill="none" xmlns="http://www.w3.org/2000/svg">
<path d="M7.29011 10.4381H8.68826C9.05908 10.4381 9.4147 10.2908 9.67691 10.0286C9.93911 9.76643 10.0864 9.41081 10.0864 9.04C10.0864 8.66918 9.93911 8.31356 9.67691 8.05135C9.4147 7.78915 9.05908 7.64185 8.68826 7.64185H6.59104C6.17159 7.64185 5.82206 7.78166 5.61233 8.06129L1.69751 11.8363" stroke="#212428" stroke-width="0.7" stroke-linecap="round" stroke-linejoin="round"/>
<path d="M4.49609 14.6324L5.61461 13.6537C5.82434 13.3741 6.17387 13.2343 6.59332 13.2343H9.38962C10.1586 13.2343 10.8577 12.9547 11.347 12.3954L14.5628 9.31947C14.8325 9.06454 14.99 8.71288 15.0005 8.34187C15.011 7.97085 14.8736 7.61086 14.6187 7.34109C14.3638 7.07132 14.0121 6.91388 13.6411 6.90339C13.2701 6.8929 12.9101 7.03023 12.6403 7.28517L9.70421 10.0116" stroke="#212428" stroke-width="0.7" stroke-linecap="round" stroke-linejoin="round"/>
<path d="M1 11.1375L5.19445 15.3319" stroke="#212428" stroke-width="0.7" stroke-linecap="round" stroke-linejoin="round"/>
<path d="M10.7866 8.27095C11.9063 8.27095 12.8139 7.36328 12.8139 6.24363C12.8139 5.12397 11.9063 4.21631 10.7866 4.21631C9.66694 4.21631 8.75928 5.12397 8.75928 6.24363C8.75928 7.36328 9.66694 8.27095 10.7866 8.27095Z" stroke="#212428" stroke-width="0.7" stroke-linecap="round" stroke-linejoin="round"/>
<path d="M3.79474 5.54455C4.953 5.54455 5.89196 4.60559 5.89196 3.44732C5.89196 2.28906 4.953 1.3501 3.79474 1.3501C2.63647 1.3501 1.69751 2.28906 1.69751 3.44732C1.69751 4.60559 2.63647 5.54455 3.79474 5.54455Z" stroke="#212428" stroke-width="0.7" stroke-linecap="round" stroke-linejoin="round"/>
</svg>
