<svg width="17" height="17" viewBox="0 0 17 17" fill="none" xmlns="http://www.w3.org/2000/svg">
<path d="M6.8743 10.7541C6.81478 10.5234 6.69453 10.3128 6.52605 10.1443C6.35757 9.97585 6.14701 9.85559 5.9163 9.79607L1.8263 8.74141C1.75652 8.7216 1.69511 8.67957 1.65138 8.6217C1.60765 8.56383 1.58398 8.49327 1.58398 8.42074C1.58398 8.3482 1.60765 8.27765 1.65138 8.21978C1.69511 8.1619 1.75652 8.11988 1.8263 8.10007L5.9163 7.04474C6.14693 6.98528 6.35743 6.86512 6.5259 6.69677C6.69438 6.52841 6.81468 6.318 6.8743 6.08741L7.92897 1.99741C7.94857 1.92735 7.99056 1.86563 8.04851 1.82167C8.10647 1.7777 8.17722 1.75391 8.24997 1.75391C8.32271 1.75391 8.39346 1.7777 8.45142 1.82167C8.50938 1.86563 8.55136 1.92735 8.57097 1.99741L9.62497 6.08741C9.68449 6.31812 9.80474 6.52867 9.97322 6.69715C10.1417 6.86563 10.3523 6.98589 10.583 7.04541L14.673 8.09941C14.7433 8.11881 14.8053 8.16075 14.8495 8.21879C14.8937 8.27684 14.9177 8.34778 14.9177 8.42074C14.9177 8.4937 14.8937 8.56464 14.8495 8.62269C14.8053 8.68073 14.7433 8.72267 14.673 8.74207L10.583 9.79607C10.3523 9.85559 10.1417 9.97585 9.97322 10.1443C9.80474 10.3128 9.68449 10.5234 9.62497 10.7541L8.5703 14.8441C8.5507 14.9141 8.50871 14.9758 8.45075 15.0198C8.3928 15.0638 8.32205 15.0876 8.2493 15.0876C8.17655 15.0876 8.10581 15.0638 8.04785 15.0198C7.98989 14.9758 7.94791 14.9141 7.9283 14.8441L6.8743 10.7541Z" stroke="#212428" stroke-width="0.7" stroke-linecap="round" stroke-linejoin="round"/>
</svg>
