<svg width="81" height="99" viewBox="0 0 81 99" fill="none" xmlns="http://www.w3.org/2000/svg">
<path d="M31.7279 70.6729C28.0402 70.3853 24.6309 69.5225 21.2911 68.0846C17.1859 66.2154 13.4983 63.699 10.3672 60.5357C7.23618 57.3723 4.73135 53.6337 2.78315 49.32C0.974102 45.0782 0 40.405 0 35.4443C0 30.5554 0.974101 25.8822 2.85273 21.5685C4.73135 17.2548 7.23618 13.5163 10.4368 10.281C13.5678 7.04572 17.2555 4.52939 21.3607 2.73201C25.4658 0.934636 29.7797 0 34.3023 0C38.8249 0 43.2084 0.934636 47.3135 2.73201C51.4882 4.60129 55.1759 7.11761 58.3069 10.281C61.5076 13.5163 64.0124 17.2548 65.891 21.5685C67.7696 25.8822 68.7437 30.4835 68.7437 35.4443C68.7437 40.405 67.7696 45.0063 65.891 49.32C64.0124 53.6337 61.438 57.3723 58.3069 60.5357C55.1063 63.699 51.4882 66.2154 47.3135 68.0846C43.4171 69.7382 39.312 70.6729 35.0677 70.7448C35.1372 70.7448 32.9803 70.8167 31.7279 70.6729ZM34.3023 68.8036C37.8508 68.8036 40.9123 67.9409 43.4171 66.2873C45.9915 64.6337 48.0789 62.2611 49.6792 59.3134C51.3491 56.3657 52.5319 52.8429 53.2973 48.7449C54.0626 44.7187 54.4801 40.2612 54.4801 35.3724C54.4801 30.5554 54.0626 26.0979 53.2973 21.9999C52.6015 17.9738 51.4186 14.379 49.7488 11.4313C48.0789 8.48362 45.9915 6.11108 43.4867 4.3856C40.9123 2.66012 37.9204 1.79738 34.3719 1.79738C30.8234 1.79738 27.7619 2.66012 25.2571 4.3856C22.6826 6.11108 20.5953 8.41173 18.995 11.4313C17.3947 14.4509 16.2118 17.9738 15.3769 22.0718C14.6115 26.1698 14.194 30.6273 14.194 35.3724C14.194 40.1175 14.6115 44.575 15.3769 48.673C16.1423 52.771 17.3251 56.2939 18.995 59.2416C20.5953 62.1893 22.6826 64.5618 25.2571 66.2154C27.7619 68.0127 30.8234 68.8036 34.3023 68.8036Z" fill="white"/>
<path d="M68.7491 78.2223C64.0873 78.2223 59.7734 78.6536 55.877 79.4445C51.9806 80.2353 48.5713 81.5294 45.6489 83.183C42.7962 84.9085 40.5001 87.0654 38.8998 89.6536C37.2995 92.2418 36.4646 95.4052 36.4646 99H34.5859C34.5859 98.4967 34.5859 98.2091 34.5859 98.2091C34.7251 93.8235 35.56 89.5817 37.1603 85.5556C38.9694 81.3138 41.4046 77.5033 44.4661 74.1961C47.5276 70.889 51.1457 68.3007 55.3204 66.3596C59.4951 64.4184 63.9481 63.4119 68.7491 63.4119V78.2223Z" fill="white"/>
<path d="M73.5871 3.30444V4.17415H72.1556V8.67662H71.078V4.17415H69.6465V3.30444H73.5871Z" fill="white"/>
<path d="M81 3.30444V8.67662H79.9225V5.1824L78.4832 8.67662H77.6674L76.2205 5.1824V8.67662H75.1429V3.30444H76.3667L78.0753 7.29894L79.7839 3.30444H81Z" fill="white"/>
</svg>
