<svg width="50" height="50" viewBox="0 0 50 50" fill="none" xmlns="http://www.w3.org/2000/svg">
<path fill-rule="evenodd" clip-rule="evenodd" d="M25.7587 10H29.4434V34.5618H19.5149C18.7779 31.6722 16.5023 29.505 12.4856 29.505C8.46879 29.505 6.19316 31.6722 5.45622 34.5618H4.38724C4.38724 34.5618 4.38724 34.5618 4.38724 33.8394C4.38724 32.3946 2.91335 30.2274 1.43945 29.505V10L25.7587 10Z" stroke="#212428" stroke-width="1.25" stroke-miterlimit="2.61313" stroke-linecap="round" stroke-linejoin="round"/>
<path fill-rule="evenodd" clip-rule="evenodd" d="M12.4948 32.7773C14.7056 32.7773 16.1795 34.2222 16.1795 36.3894C16.1795 38.5566 14.7056 40.0014 12.4948 40.0014C10.284 40.0014 8.81006 38.5566 8.81006 36.3894C8.81006 34.2222 10.284 32.7773 12.4948 32.7773Z" stroke="#212428" stroke-width="1.25" stroke-miterlimit="2.61313" stroke-linecap="round" stroke-linejoin="round"/>
<path fill-rule="evenodd" clip-rule="evenodd" d="M40.696 32.7773C42.9068 32.7773 44.3807 34.2222 44.3807 36.3894C44.3807 38.5566 42.9068 40.0014 40.696 40.0014C38.4851 40.0014 37.0112 38.5566 37.0112 36.3894C37.0112 34.2222 38.4851 32.7773 40.696 32.7773Z" stroke="#212428" stroke-width="1.25" stroke-miterlimit="2.61313" stroke-linecap="round" stroke-linejoin="round"/>
<path fill-rule="evenodd" clip-rule="evenodd" d="M33.0851 16.1602H41.9285L48.561 24.1066V34.9427H47.411C46.6741 32.0531 44.3984 29.8859 40.4546 29.8859C36.3649 29.8859 34.0893 32.0531 33.3523 34.9427H32.3481V16.1602H33.0851Z" stroke="#212428" stroke-width="1.25" stroke-miterlimit="2.61313" stroke-linecap="round" stroke-linejoin="round"/>
<path d="M48.2519 23.582L32.6567 23.582" stroke="#212428" stroke-width="1.25"/>
<path d="M35.8003 16.1625V23.9805" stroke="#212428" stroke-width="1.25"/>
<path d="M23.4421 10H1.74658V26.7101H23.4421V10Z" stroke="#212428" stroke-width="1.25" stroke-miterlimit="2.61313" stroke-linecap="round" stroke-linejoin="round"/>
<path d="M12.2573 20.427C11.8532 20.3962 11.4797 20.3035 11.1137 20.149C10.6639 19.9483 10.2598 19.678 9.91674 19.3382C9.57366 18.9984 9.29919 18.5968 9.08572 18.1335C8.8875 17.6779 8.78076 17.1759 8.78076 16.6431C8.78076 16.118 8.8875 15.616 9.09335 15.1527C9.29919 14.6893 9.57366 14.2877 9.92436 13.9402C10.2674 13.5927 10.6715 13.3224 11.1213 13.1294C11.5711 12.9363 12.0438 12.8359 12.5394 12.8359C13.0349 12.8359 13.5153 12.9363 13.9651 13.1294C14.4225 13.3302 14.8266 13.6005 15.1697 13.9402C15.5204 14.2877 15.7948 14.6893 16.0007 15.1527C16.2065 15.616 16.3133 16.1102 16.3133 16.6431C16.3133 17.1759 16.2065 17.6702 16.0007 18.1335C15.7948 18.5968 15.5127 18.9984 15.1697 19.3382C14.819 19.678 14.4225 19.9483 13.9651 20.149C13.5381 20.3267 13.0883 20.427 12.6233 20.4348C12.6309 20.4348 12.3945 20.4425 12.2573 20.427ZM12.5394 20.2263C12.9282 20.2263 13.2637 20.1336 13.5381 19.956C13.8202 19.7784 14.0489 19.5235 14.2243 19.2069C14.4073 18.8903 14.5369 18.5119 14.6207 18.0717C14.7046 17.6393 14.7503 17.1605 14.7503 16.6354C14.7503 16.118 14.7046 15.6392 14.6207 15.199C14.5445 14.7665 14.4149 14.3804 14.2319 14.0638C14.0489 13.7472 13.8202 13.4923 13.5458 13.307C13.2637 13.1217 12.9358 13.029 12.547 13.029C12.1582 13.029 11.8227 13.1217 11.5483 13.307C11.2662 13.4923 11.0375 13.7395 10.8621 14.0638C10.6868 14.3881 10.5572 14.7665 10.4657 15.2067C10.3818 15.6469 10.3361 16.1257 10.3361 16.6354C10.3361 17.145 10.3818 17.6238 10.4657 18.064C10.5495 18.5042 10.6791 18.8826 10.8621 19.1992C11.0375 19.5158 11.2662 19.7706 11.5483 19.9483C11.8227 20.1413 12.1582 20.2263 12.5394 20.2263Z" fill="#212428"/>
<path d="M16.3117 21.2393C15.8009 21.2393 15.3282 21.2856 14.9013 21.3705C14.4744 21.4555 14.1008 21.5945 13.7806 21.7721C13.468 21.9574 13.2164 22.1891 13.041 22.4671C12.8657 22.7451 12.7742 23.0849 12.7742 23.471H12.5684C12.5684 23.417 12.5684 23.3861 12.5684 23.3861C12.5836 22.915 12.6751 22.4594 12.8504 22.0269C13.0487 21.5713 13.3155 21.162 13.651 20.8068C13.9864 20.4516 14.3829 20.1736 14.8403 19.9651C15.2977 19.7566 15.7857 19.6484 16.3117 19.6484V21.2393Z" fill="#212428"/>
</svg>
