<svg width="31" height="31" viewBox="0 0 31 31" fill="none" xmlns="http://www.w3.org/2000/svg">
<path fill-rule="evenodd" clip-rule="evenodd" d="M15.4997 4.78296V26.783C15.4997 26.783 6.32787 24.2653 5.21655 8.39132C5.21655 8.39132 13.428 6.4911 15.4997 4.78982V4.78296Z" stroke="#212428" stroke-width="0.75" stroke-miterlimit="2.61313" stroke-linecap="round" stroke-linejoin="round"/>
<path fill-rule="evenodd" clip-rule="evenodd" d="M15.5005 4.78296V26.783C15.5005 26.783 24.6723 24.2653 25.7836 8.39132C25.7836 8.39132 17.5722 6.4911 15.5005 4.78982V4.78296Z" stroke="#212428" stroke-width="0.75" stroke-miterlimit="2.61313" stroke-linecap="round" stroke-linejoin="round"/>
<path d="M15.5003 21.146C18.9338 21.146 21.7172 18.3626 21.7172 14.9291C21.7172 11.4957 18.9338 8.71228 15.5003 8.71228C12.0668 8.71228 9.28345 11.4957 9.28345 14.9291C9.28345 18.3626 12.0668 21.146 15.5003 21.146Z" stroke="#212428" stroke-width="0.75" stroke-miterlimit="2.61313" stroke-linecap="round" stroke-linejoin="round"/>
<path fill-rule="evenodd" clip-rule="evenodd" d="M14.3012 18.7005C14.6608 18.8843 15.0684 18.9881 15.4999 18.9881C15.9314 18.9881 16.3389 18.8843 16.6985 18.7005C17.5695 18.261 18.1608 17.358 18.1608 16.3272C18.1608 16.2633 18.1608 16.2073 18.1528 16.1434C18.1528 16.1434 18.1528 16.1354 18.1528 16.1274H18.1608C18.1688 15.9596 18.1288 14.6971 15.4999 10.8774C12.8789 14.6971 12.8309 15.9596 12.8389 16.1274H12.8469C12.8469 16.1434 12.8469 16.1434 12.8469 16.1434C12.8389 16.2073 12.8389 16.2633 12.8389 16.3272C12.8389 17.366 13.4302 18.269 14.3012 18.7005Z" stroke="#212428" stroke-width="0.75" stroke-miterlimit="2.61313" stroke-linecap="round" stroke-linejoin="round"/>
</svg>
