<svg xmlns="http://www.w3.org/2000/svg" width="42" height="36" viewBox="0 0 42 36" fill="none">
  <g opacity="0.8">
    <path fill-rule="evenodd" clip-rule="evenodd" d="M21.6116 6.36426H24.4315V25.5398H16.8332C16.2692 23.2838 14.5276 21.5919 11.4536 21.5919C8.37957 21.5919 6.63802 23.2838 6.07404 25.5398H5.25595C5.25595 25.5398 5.25595 25.5398 5.25595 24.9758C5.25595 23.8478 4.12797 22.1558 3 21.5919V6.36427L21.6116 6.36426Z" stroke="white" stroke-width="1.5" stroke-miterlimit="2.61313" stroke-linecap="round" stroke-linejoin="round"/>
    <path fill-rule="evenodd" clip-rule="evenodd" d="M11.4606 24.1465C13.1525 24.1465 14.2805 25.2745 14.2805 26.9664C14.2805 28.6584 13.1525 29.7864 11.4606 29.7864C9.7686 29.7864 8.64062 28.6584 8.64062 26.9664C8.64062 25.2745 9.7686 24.1465 11.4606 24.1465Z" stroke="white" stroke-width="1.5" stroke-miterlimit="2.61313" stroke-linecap="round" stroke-linejoin="round"/>
    <path fill-rule="evenodd" clip-rule="evenodd" d="M33.984 24.1465C35.676 24.1465 36.8039 25.2745 36.8039 26.9664C36.8039 28.6584 35.676 29.7864 33.984 29.7864C32.292 29.7864 31.1641 28.6584 31.1641 26.9664C31.1641 25.2745 32.292 24.1465 33.984 24.1465Z" stroke="white" stroke-width="1.5" stroke-miterlimit="2.61313" stroke-linecap="round" stroke-linejoin="round"/>
    <path fill-rule="evenodd" clip-rule="evenodd" d="M28.1576 11.1748H34.9255L40.0014 17.3786V25.8384H39.1213C38.5573 23.5825 36.8159 21.8905 33.7976 21.8905C30.6678 21.8905 28.9262 23.5825 28.3623 25.8384H27.5938V11.1748H28.1576Z" stroke="white" stroke-width="1.5" stroke-miterlimit="2.61313" stroke-linecap="round" stroke-linejoin="round"/>
    <path d="M40.0003 17.0381H28.1406" stroke="white" stroke-width="1.5"/>
    <path d="M30.5117 11.1084V17.0382" stroke="white" stroke-width="1.5"/>
    <path d="M19.838 6.36426H3.23438V19.4099H19.838V6.36426Z" stroke="white" stroke-width="1.5" stroke-miterlimit="2.61313" stroke-linecap="round" stroke-linejoin="round"/>
    <path d="M12.1049 14.719L12.106 14.7189C12.4684 14.7126 12.8185 14.6327 13.1504 14.4919C13.5061 14.3326 13.8153 14.1177 14.0879 13.8484C14.3548 13.5788 14.5745 13.2597 14.7345 12.8923C14.8948 12.5242 14.9779 12.1315 14.9779 11.7087C14.9779 11.2859 14.8948 10.8933 14.7345 10.5252C14.5746 10.1581 14.3612 9.83938 14.0883 9.56349C13.8212 9.29361 13.5067 9.07913 13.1513 8.91999C12.8008 8.76654 12.426 8.68652 12.0397 8.68652C11.6534 8.68652 11.2848 8.76641 10.9344 8.91982C10.5846 9.07301 10.27 9.28761 10.0027 9.56369C9.72991 9.83953 9.51651 10.1581 9.35666 10.5252C9.19633 10.8933 9.11328 11.292 9.11328 11.7087C9.11328 12.1314 9.19629 12.5299 9.35068 12.8919L9.3511 12.8929C9.51667 13.2595 9.72996 13.5781 9.99711 13.848C10.2642 14.1179 10.5785 14.3323 10.9279 14.4914L10.9289 14.4918C11.2136 14.6144 11.5046 14.6881 11.8191 14.7127C11.8745 14.719 11.948 14.7204 12.0055 14.7204C12.0347 14.7204 12.0604 14.7201 12.0785 14.7197L12.0994 14.7191L12.1049 14.719ZM12.7771 14.2531C12.5764 14.3856 12.329 14.4561 12.0397 14.4561C11.7556 14.4561 11.5099 14.3916 11.3104 14.2485L11.3083 14.247C11.1006 14.1136 10.9309 13.9215 10.8001 13.6804C10.6635 13.4392 10.5653 13.1486 10.5019 12.8089C10.4383 12.4684 10.4035 12.0977 10.4035 11.7027C10.4035 11.3079 10.4383 10.9373 10.5018 10.5969C10.5711 10.2569 10.6689 9.96646 10.8003 9.71853C10.9308 9.47233 11.1003 9.28574 11.3091 9.14582C11.5094 9.00784 11.7563 8.93725 12.0456 8.93725C12.3344 8.93725 12.5752 9.00725 12.7818 9.14565C12.9846 9.28543 13.1547 9.47827 13.2915 9.71977C13.4281 9.96079 13.5257 10.2564 13.5833 10.5898C13.6468 10.9302 13.6818 11.3017 13.6818 11.7027C13.6818 12.1098 13.647 12.4805 13.5835 12.8147C13.52 13.1545 13.4223 13.4445 13.2857 13.6857C13.1548 13.9267 12.9848 14.1196 12.7771 14.2531Z" fill="white" stroke="white" stroke-width="0.1" stroke-linecap="round" stroke-linejoin="round"/>
    <path d="M14.9265 15.3458C14.9541 15.3458 14.9765 15.3234 14.9765 15.2958V14.0539C14.9765 14.0263 14.9541 14.0039 14.9265 14.0039C14.5166 14.0039 14.136 14.0899 13.7793 14.2557C13.4237 14.4211 13.1149 14.6419 12.8535 14.9242C12.5927 15.206 12.3854 15.5304 12.2316 15.8912L12.2311 15.8923C12.0946 16.2357 12.0236 16.5971 12.0117 16.9703V16.9719V16.973V16.9741V16.9751V16.9762V16.9772V16.9783V16.9793V16.9804V16.9814V16.9825V16.9835V16.9846V16.9856V16.9868V16.9879V16.9889V16.99V16.991V16.9921V16.9931V16.9943V16.9955V16.9966V16.9977V16.9988V17V17.001V17.0022V17.0034V17.0045V17.0057V17.0068V17.0079V17.0091V17.0102V17.0114V17.0125V17.0137V17.0148V17.016V17.0172V17.0183V17.0195V17.0206V17.0217V17.0228V17.0239V17.025V17.0261V17.0272V17.0284V17.0295V17.0307V17.0319V17.0331V17.0343V17.0355V17.0367V17.0379C12.0117 17.0655 12.0341 17.0882 12.0617 17.0882H12.2192C12.2469 17.0882 12.2692 17.0658 12.2692 17.0382C12.2692 16.7445 12.3374 16.4887 12.466 16.2807C12.5952 16.0716 12.7814 15.8962 13.0147 15.755C13.2548 15.6192 13.5355 15.5126 13.8571 15.4473C14.1802 15.3817 14.5386 15.3458 14.9265 15.3458Z" fill="white" stroke="white" stroke-width="0.1" stroke-linecap="round" stroke-linejoin="round"/>
  </g>
</svg>