<svg xmlns="http://www.w3.org/2000/svg" width="35" height="36" viewBox="0 0 35 36" fill="none">
  <g opacity="0.8">
    <path d="M23.9557 17.9219C23.9557 21.9777 23.1713 25.6129 21.9364 28.206C20.6749 30.8551 19.0788 32.1719 17.5628 32.1719C16.0468 32.1719 14.4507 30.8551 13.1892 28.206C11.9543 25.6129 11.1699 21.9777 11.1699 17.9219C11.1699 13.866 11.9543 10.2309 13.1892 7.63772C14.4507 4.98864 16.0468 3.67188 17.5628 3.67188C19.0788 3.67188 20.6749 4.98864 21.9364 7.63772C23.1713 10.2309 23.9557 13.866 23.9557 17.9219Z" stroke="white" stroke-width="1.5"/>
    <path d="M14.3654 23.4583C10.8529 21.4304 8.09699 18.9335 6.46867 16.5675C4.80523 14.1505 4.46295 12.1098 5.22095 10.7969C5.97895 9.484 7.91737 8.76007 10.8423 8.99215C13.7054 9.21933 17.2458 10.3576 20.7582 12.3855C24.2707 14.4135 27.0266 16.9104 28.655 19.2763C30.3184 21.6933 30.6607 23.734 29.9027 25.0469C29.1447 26.3598 27.2063 27.0837 24.2813 26.8517C21.4182 26.6245 17.8779 25.4862 14.3654 23.4583Z" stroke="white" stroke-width="1.5"/>
    <path d="M14.3654 12.3856C17.8779 10.3576 21.4182 9.21933 24.2814 8.99215C27.2063 8.76007 29.1447 9.48399 29.9027 10.7969C30.6607 12.1098 30.3184 14.1505 28.655 16.5675C27.0267 18.9335 24.2707 21.4304 20.7583 23.4583C17.2458 25.4862 13.7055 26.6245 10.8423 26.8517C7.91737 27.0837 5.97895 26.3598 5.22095 25.0469C4.46295 23.734 4.80522 21.6933 6.46867 19.2763C8.09699 16.9104 10.8529 14.4135 14.3654 12.3856Z" stroke="white" stroke-width="1.5"/>
  </g>
</svg>