<svg xmlns="http://www.w3.org/2000/svg" width="36" height="36" viewBox="0 0 36 36" fill="none">
  <g opacity="0.8">
    <path d="M24.8284 19.4858C24.8284 24.2625 20.9681 28.0117 16.2053 28.0117C11.4286 28.0117 7.56836 24.1514 7.56836 19.3886C7.56836 15.2645 13.817 7.14131 16.2053 3.41992L22.3984 13.1677" stroke="white" stroke-width="1.5" stroke-miterlimit="2.61313" stroke-linecap="round" stroke-linejoin="round"/>
    <path d="M26.8836 19.4306H21.1487L26.6475 11.3213L32.1602 19.4306H29.4385M29.3969 19.3889C29.3969 26.6651 23.4954 32.5804 16.2054 32.5804C8.91535 32.5804 3 26.6651 3 19.3889" stroke="white" stroke-width="1.5" stroke-miterlimit="2.61313" stroke-linecap="round" stroke-linejoin="round"/>
    <path d="M3.41602 17.0137L3.66597 16.375" stroke="white" stroke-width="1.5" stroke-miterlimit="2.61313" stroke-linecap="round" stroke-linejoin="round"/>
    <path d="M4.40234 14.5421L4.65229 13.9033" stroke="white" stroke-width="1.5" stroke-miterlimit="2.61313" stroke-linecap="round" stroke-linejoin="round"/>
    <path d="M14.1363 21.5685C14.414 21.7906 14.9973 22.1794 15.8443 22.2627V22.8876C15.8443 23.0681 15.9415 23.1653 16.1498 23.1653H16.2331C16.4414 23.1653 16.5386 23.0542 16.5386 22.8459V22.2627C17.705 22.1239 18.3993 21.3046 18.3993 20.3187C18.3993 18.1109 14.9973 18.4025 14.9973 17.0139C14.9973 16.4724 15.511 16.0003 16.247 16.0003C16.8163 16.0003 17.2606 16.2363 17.4967 16.4029C17.6911 16.514 17.8438 16.5001 17.9549 16.3057L18.0799 16.0697C18.1771 15.8892 18.1632 15.7364 17.9966 15.6253C17.7328 15.4448 17.2467 15.1671 16.5386 15.1254V14.4867C16.5386 14.3062 16.4414 14.209 16.2331 14.209H16.1498C15.9415 14.209 15.8443 14.3201 15.8443 14.5284V15.1254C14.7473 15.2921 14.0252 16.0836 14.0252 17.0417C14.0252 19.1384 17.4273 18.9163 17.4273 20.3604C17.4273 21.013 16.8579 21.3741 16.2192 21.3741C15.5249 21.3741 14.9834 21.0408 14.7057 20.8325C14.5251 20.7214 14.3724 20.7214 14.2474 20.888L14.0947 21.1241C13.9558 21.2769 13.9697 21.4435 14.1363 21.5685Z" fill="white" stroke="white" stroke-width="0.5"/>
  </g>
</svg>