<svg width="74" height="35" viewBox="0 0 74 35" fill="none" xmlns="http://www.w3.org/2000/svg">
<path fill-rule="evenodd" clip-rule="evenodd" d="M7.56942 24.0705C8.75678 24.5788 9.96887 24.8838 11.2799 24.9855C11.7252 25.0363 12.492 25.0109 12.4673 25.0109C13.9762 24.9855 15.4357 24.6551 16.8209 24.0705C18.3051 23.4096 19.5914 22.52 20.7293 21.4016C21.8425 20.2832 22.7577 18.9615 23.4256 17.4365C24.0935 15.9114 24.4398 14.2847 24.4398 12.5309C24.4398 10.7771 24.0935 9.15034 23.4256 7.62528C22.7577 6.10022 21.8672 4.77851 20.7293 3.63472C19.6162 2.51634 18.3051 1.62673 16.8209 0.965869C15.3615 0.330429 13.8031 0 12.1952 0C10.5873 0 9.05362 0.330429 7.59415 0.965869C6.13469 1.60131 4.82365 2.49093 3.7105 3.63472C2.57261 4.77851 1.68209 6.10022 1.0142 7.62528C0.346313 9.15034 0 10.8025 0 12.5309C0 14.2847 0.346313 15.9368 0.989466 17.4365C1.68209 18.9615 2.57261 20.2832 3.68576 21.4016C4.79891 22.52 6.10996 23.4096 7.56942 24.0705ZM15.4357 23.435C14.5452 24.0196 13.4567 24.3246 12.1952 24.3246C10.9583 24.3246 9.86993 24.0451 8.97941 23.4096C8.06415 22.825 7.32205 21.9862 6.75311 20.9441C6.15943 19.902 5.73891 18.6565 5.4668 17.2077C5.1947 15.7589 5.04628 14.183 5.04628 12.5055C5.04628 10.8279 5.1947 9.25201 5.4668 7.8032C5.76364 6.3544 6.18417 5.10894 6.75311 4.0414C7.32205 2.97386 8.06415 2.1605 8.97941 1.55047C9.86993 0.940451 10.9583 0.63544 12.2199 0.63544C13.4815 0.63544 14.5452 0.940451 15.4604 1.55047C16.3509 2.1605 17.093 2.99928 17.6867 4.0414C18.2804 5.08352 18.7009 6.3544 18.9483 7.77779C19.2204 9.22659 19.3688 10.8025 19.3688 12.5055C19.3688 14.2339 19.2204 15.8097 18.9483 17.2331C18.6762 18.6819 18.2557 19.9274 17.662 20.9695C17.093 22.0116 16.3509 22.8504 15.4357 23.435ZM66.1955 19.9021C65.7749 20.4358 65.206 20.8679 64.4886 21.2492C63.7713 21.6305 62.9055 21.8084 61.8913 21.8084C61.0997 21.8084 60.3824 21.6813 59.6897 21.4271C59.0218 21.173 58.4529 20.7663 57.9582 20.2325C57.5129 19.7241 57.1666 19.0633 56.8945 18.2753L66.1955 13.9289C66.1955 13.9289 66.1707 12.3276 64.736 10.3705C64.2165 9.68419 63.4744 9.22668 62.6581 8.81999C61.8418 8.41331 60.9266 8.20997 59.9124 8.20997C58.9229 8.20997 57.9829 8.41331 57.0676 8.84541C56.1524 9.25209 55.3361 9.86212 54.6435 10.6246C53.9508 11.3872 53.3819 12.3022 52.9614 13.3697C52.5408 14.4373 52.3182 15.6065 52.3182 16.9282C52.3182 18.072 52.4914 19.1395 52.8377 20.1054C53.184 21.0967 53.6787 21.9609 54.3466 22.6726C54.9898 23.4097 55.7813 23.9689 56.6966 24.401C57.6119 24.8077 58.6261 25.0364 59.7639 25.0364C61.5202 25.0364 62.955 24.5535 64.0681 23.613C65.1813 22.6726 65.9481 21.4525 66.3934 20.0292L66.1955 19.9021ZM56.4492 14.2848C56.4987 13.5477 56.5976 12.8614 56.7461 12.2005C56.8945 11.5397 57.1171 10.9551 57.3892 10.4721C57.6613 9.96379 57.9829 9.58252 58.4034 9.30293C58.7992 9.02334 59.2692 8.87083 59.7887 8.87083C60.6297 8.87083 61.2481 9.22668 61.6934 9.96379C62.1387 10.6755 62.3366 12.353 62.3366 13.9289V14.9456L56.7708 17.6653C56.5729 16.852 56.4492 16.0386 56.4492 14.9456V14.2848ZM39.8761 24.5277H35.9924V21.0455L35.9677 21.0201C35.7451 21.4776 35.473 21.9351 35.1514 22.4181C34.8298 22.901 34.4835 23.3077 34.0382 23.6889C33.6177 24.0702 33.123 24.4006 32.5788 24.6294C32.0346 24.8836 31.4162 25.0106 30.7483 25.0106C29.363 25.0106 28.3241 24.5277 27.6067 23.5364C26.8893 22.5451 26.543 21.2488 26.543 19.5967V8.69255H30.5998V19.3425C30.5998 20.283 30.7977 21.0201 31.2183 21.5539C31.6388 22.0876 32.2572 22.3418 33.0488 22.3418C33.7414 22.3418 34.2856 22.1639 34.7309 21.808C35.1761 21.4522 35.5472 20.9947 35.8193 20.4355V8.69255H39.8761V24.5277ZM24.4396 27.654C22.7823 27.654 21.2486 27.8065 19.8634 28.0861C18.4781 28.3657 17.266 28.8232 16.2271 29.4078C15.2129 30.0178 14.3966 30.7804 13.8276 31.6954C13.2587 32.6104 12.9618 33.7288 12.9618 34.9997H12.2939V34.7201C12.3434 33.1696 12.6403 31.67 13.2092 30.2466C13.8524 28.747 14.7181 27.3998 15.8066 26.2306C16.895 25.0614 18.1813 24.1464 19.6655 23.4601C21.1497 22.7738 22.7328 22.418 24.4396 22.418V27.654ZM49.1017 9.55638C49.5222 9.1497 49.9922 8.81927 50.5117 8.56509C51.0311 8.31092 51.4517 8.18383 52.0206 8.20925V12.9369H51.699C51.5506 12.7336 51.328 12.5557 51.0559 12.3777C50.7838 12.2252 50.5117 12.0727 50.2148 11.9456C49.9427 11.8185 49.6459 11.7169 49.3738 11.6406C49.1017 11.5644 48.8791 11.5135 48.6812 11.5135C48.4338 11.5135 48.137 11.6152 47.8154 11.8185C47.5185 12.0219 47.197 12.3015 46.9001 12.6827L46.9249 24.5273H42.7938V17.7917L42.8186 8.69218H46.9001V11.9456C47.1541 11.6629 47.4262 11.343 47.7163 11.0018C47.7653 10.9442 47.8148 10.886 47.8648 10.8273C48.2606 10.3697 48.6564 9.93764 49.1017 9.55638Z" fill="white"/>
<path d="M69.6122 9.84375V10.2945H68.8729V12.628H68.3164V10.2945H67.5771V9.84375H69.6122Z" fill="white"/>
<path d="M73.2086 9.84375V12.628H72.6521V10.8171L71.9089 12.628H71.4875L70.7403 10.8171V12.628H70.1838V9.84375H70.8158L71.6982 11.914L72.5806 9.84375H73.2086Z" fill="white"/>
</svg>
