<svg width="20" height="21" viewBox="0 0 20 21" fill="none" xmlns="http://www.w3.org/2000/svg">
<path d="M8.28086 13.6887C8.20647 13.4003 8.05615 13.1371 7.84555 12.9265C7.63494 12.7159 7.37176 12.5656 7.08336 12.4912L1.97086 11.1729C1.88364 11.1481 1.80687 11.0956 1.75221 11.0232C1.69754 10.9509 1.66797 10.8627 1.66797 10.772C1.66797 10.6813 1.69754 10.5932 1.75221 10.5208C1.80687 10.4485 1.88364 10.3959 1.97086 10.3712L7.08336 9.05202C7.37166 8.97769 7.63477 8.8275 7.84537 8.61705C8.05596 8.4066 8.20634 8.14359 8.28086 7.85535L9.5992 2.74285C9.6237 2.65528 9.67618 2.57814 9.74863 2.52318C9.82108 2.46822 9.90951 2.43848 10.0004 2.43848C10.0914 2.43848 10.1798 2.46822 10.2523 2.52318C10.3247 2.57814 10.3772 2.65528 10.4017 2.74285L11.7192 7.85535C11.7936 8.14374 11.9439 8.40693 12.1545 8.61753C12.3651 8.82813 12.6283 8.97845 12.9167 9.05285L18.0292 10.3704C18.1171 10.3946 18.1946 10.447 18.2499 10.5196C18.3052 10.5921 18.3351 10.6808 18.3351 10.772C18.3351 10.8632 18.3052 10.9519 18.2499 11.0245C18.1946 11.097 18.1171 11.1494 18.0292 11.1737L12.9167 12.4912C12.6283 12.5656 12.3651 12.7159 12.1545 12.9265C11.9439 13.1371 11.7936 13.4003 11.7192 13.6887L10.4009 18.8012C10.3764 18.8888 10.3239 18.9659 10.2514 19.0209C10.179 19.0758 10.0905 19.1056 9.99961 19.1056C9.90868 19.1056 9.82025 19.0758 9.7478 19.0209C9.67535 18.9659 9.62287 18.8888 9.59836 18.8012L8.28086 13.6887Z" stroke="black" stroke-linecap="round" stroke-linejoin="round"/>
</svg>
