<svg width="50" height="50" viewBox="0 0 50 50" fill="none" xmlns="http://www.w3.org/2000/svg">
<path d="M25.0005 7.29297C27.0308 7.29315 29.0551 9.04361 30.6089 12.3066C32.1405 15.5231 33.1049 20.0105 33.105 25.001C33.105 29.9917 32.1406 34.4797 30.6089 37.6963C29.0551 40.9592 27.0308 42.7098 25.0005 42.71C22.9701 42.71 20.945 40.9595 19.3911 37.6963C17.8594 34.4797 16.895 29.9917 16.895 25.001C16.8951 20.0105 17.8595 15.5231 19.3911 12.3066C20.945 9.04344 22.9701 7.29297 25.0005 7.29297Z" stroke="#212428" stroke-width="1.25"/>
<path d="M40.3357 33.8538C39.3204 35.612 36.7923 36.4898 33.1895 36.204C29.6381 35.9221 25.2698 34.5137 20.9479 32.0185C16.6258 29.5231 13.2212 26.4439 11.2014 23.5091C9.15255 20.532 8.64869 17.9036 9.66367 16.1453C10.6789 14.3869 13.2074 13.5084 16.8103 13.7943C20.3618 14.0761 24.7308 15.4849 29.0528 17.9802C33.3747 20.4755 36.7786 23.5544 38.7984 26.4891C40.8475 29.4664 41.3509 32.0954 40.3357 33.8538Z" stroke="#212428" stroke-width="1.25"/>
<path d="M9.66383 33.8533C8.64883 32.0949 9.15264 29.4666 11.2016 26.4894C13.2214 23.5547 16.6253 20.4758 20.9472 17.9806C25.2693 15.4852 29.6382 14.0764 33.1897 13.7946C36.7924 13.5087 39.3206 14.3866 40.3358 16.1448C41.351 17.9031 40.8476 20.5321 38.7986 23.5095C36.7788 26.4442 33.3742 29.5234 29.0521 32.0188C24.7303 34.514 20.3618 35.9224 16.8105 36.2043C13.2075 36.4902 10.679 35.6116 9.66383 33.8533Z" stroke="#212428" stroke-width="1.25"/>
</svg>
