<svg width="53" height="25" viewBox="0 0 53 25" fill="none" xmlns="http://www.w3.org/2000/svg">
<g clip-path="url(#clip0_3420_1167)">
<path fill-rule="evenodd" clip-rule="evenodd" d="M5.57355 17.2388C6.40861 17.5962 7.26107 17.8108 8.18312 17.8823C8.49629 17.918 9.03558 17.9001 9.01821 17.9001C10.0794 17.8823 11.1059 17.6499 12.0801 17.2388C13.1239 16.774 14.0286 16.1483 14.8288 15.3617C15.6118 14.5752 16.2554 13.6456 16.7251 12.5731C17.1949 11.5005 17.4384 10.3564 17.4384 9.123C17.4384 7.88956 17.1949 6.74546 16.7251 5.67289C16.2554 4.60032 15.6291 3.67077 14.8288 2.86635C14.046 2.07979 13.1239 1.45413 12.0801 0.989351C11.0537 0.542448 9.95767 0.310059 8.82684 0.310059C7.69601 0.310059 6.61738 0.542448 5.59094 0.989351C4.56451 1.43625 3.64246 2.06192 2.85958 2.86635C2.05931 3.67077 1.43301 4.60032 0.963283 5.67289C0.493561 6.74546 0.25 7.90742 0.25 9.123C0.25 10.3564 0.493561 11.5184 0.945888 12.5731C1.43301 13.6456 2.05931 14.5752 2.84218 15.3617C3.62506 16.1483 4.54711 16.774 5.57355 17.2388ZM11.1059 16.7918C10.4796 17.203 9.71405 17.4175 8.82684 17.4175C7.95694 17.4175 7.19149 17.2209 6.56519 16.774C5.92149 16.3628 5.39957 15.7729 4.99944 15.04C4.58191 14.3071 4.28616 13.4311 4.09478 12.4122C3.90342 11.3932 3.79903 10.2849 3.79903 9.10514C3.79903 7.92528 3.90342 6.81697 4.09478 5.79802C4.30355 4.77909 4.59931 3.90316 4.99944 3.15236C5.39957 2.40156 5.92149 1.82953 6.56519 1.4005C7.19149 0.971475 7.95694 0.756961 8.84422 0.756961C9.73149 0.756961 10.4796 0.971475 11.1232 1.4005C11.7495 1.82953 12.2715 2.41944 12.689 3.15236C13.1065 3.88528 13.4023 4.77909 13.5763 5.78015C13.7676 6.79909 13.872 7.90742 13.872 9.10514C13.872 10.3207 13.7676 11.429 13.5763 12.43C13.3849 13.449 13.0892 14.3249 12.6716 15.0578C12.2715 15.7907 11.7495 16.3807 11.1059 16.7918ZM46.8051 14.3071C46.5093 14.6825 46.1092 14.9864 45.6046 15.2546C45.1001 15.5227 44.4912 15.6478 43.7779 15.6478C43.2212 15.6478 42.7167 15.5584 42.2296 15.3797C41.7598 15.201 41.3597 14.9149 41.0118 14.5395C40.6986 14.182 40.4551 13.7172 40.2637 13.163L46.8051 10.1062C46.8051 10.1062 46.7876 8.98002 45.7786 7.6036C45.4132 7.12092 44.8913 6.79915 44.3172 6.51313C43.7431 6.22711 43.0995 6.0841 42.3862 6.0841C41.6903 6.0841 41.0292 6.22711 40.3855 6.53101C39.7418 6.81702 39.1677 7.24606 38.6806 7.78231C38.1934 8.31864 37.7933 8.96216 37.4976 9.71292C37.2018 10.4638 37.0452 11.2861 37.0452 12.2156C37.0452 13.02 37.167 13.7708 37.4106 14.4501C37.6541 15.1473 38.002 15.7551 38.4718 16.2556C38.9241 16.774 39.4808 17.1673 40.1245 17.4712C40.7683 17.7572 41.4815 17.9181 42.2818 17.9181C43.517 17.9181 44.526 17.5785 45.3089 16.917C46.0918 16.2556 46.6311 15.3975 46.9443 14.3965L46.8051 14.3071ZM39.9505 10.3565C39.9853 9.83811 40.0549 9.35544 40.1593 8.89063C40.2637 8.42589 40.4203 8.01474 40.6116 7.67505C40.803 7.31756 41.0292 7.04941 41.3249 6.85278C41.6033 6.65614 41.9338 6.54888 42.2992 6.54888C42.8907 6.54888 43.3256 6.79915 43.6388 7.31756C43.9519 7.8181 44.0911 8.99788 44.0911 10.1062V10.8212L40.1767 12.734C40.0375 12.162 39.9505 11.59 39.9505 10.8212V10.3565ZM28.2947 17.5603H25.5633V15.1113L25.546 15.0934C25.3894 15.4152 25.198 15.7369 24.9719 16.0766C24.7457 16.4163 24.5021 16.7023 24.189 16.9704C23.8932 17.2386 23.5453 17.4709 23.1626 17.6318C22.7798 17.8106 22.3449 17.8999 21.8752 17.8999C20.9009 17.8999 20.1702 17.5603 19.6657 16.8631C19.1612 16.166 18.9176 15.2543 18.9176 14.0924V6.4235H21.7707V13.9136C21.7707 14.575 21.9099 15.0934 22.2057 15.4688C22.5015 15.8442 22.9364 16.023 23.4931 16.023C23.9802 16.023 24.3629 15.8979 24.6761 15.6476C24.9892 15.3973 25.2502 15.0756 25.4416 14.6823V6.4235H28.2947V17.5603ZM17.4383 19.759C16.2727 19.759 15.1941 19.8663 14.2199 20.0629C13.2456 20.2596 12.3931 20.5813 11.6625 20.9925C10.9492 21.4215 10.3751 21.9578 9.97491 22.6013C9.5748 23.2448 9.36599 24.0314 9.36599 24.9252H8.89626V24.7286C8.93107 23.6381 9.13988 22.5835 9.53999 21.5824C9.99235 20.5277 10.6012 19.5802 11.3667 18.758C12.1322 17.9357 13.0368 17.2921 14.0807 16.8095C15.1245 16.3268 16.2379 16.0766 17.4383 16.0766V19.759ZM34.7831 7.03103C35.0788 6.74501 35.4093 6.51262 35.7747 6.33386C36.14 6.1551 36.4358 6.06572 36.8359 6.0836V9.40854H36.6097C36.5054 9.26556 36.3488 9.14044 36.1574 9.01525C35.9661 8.908 35.7747 8.80075 35.5659 8.71136C35.3745 8.62197 35.1658 8.55052 34.9744 8.49685C34.7831 8.44326 34.6265 8.40747 34.4873 8.40747C34.3133 8.40747 34.1046 8.47899 33.8784 8.62197C33.6696 8.76502 33.4435 8.96166 33.2347 9.22976L33.2521 17.56H30.3467V12.8229L30.3642 6.42324H33.2347V8.71136C33.4133 8.51254 33.6047 8.28755 33.8087 8.04759C33.8432 8.00708 33.878 7.96615 33.9132 7.92486C34.1915 7.60303 34.4699 7.29917 34.7831 7.03103Z" fill="#212428"/>
<path d="M49.2086 7.2334V7.55041H48.6887V9.19155H48.2973V7.55041H47.7773V7.2334H49.2086Z" fill="#212428"/>
<path d="M51.7367 7.2334V9.19155H51.3453V7.91795L50.8226 9.19155H50.5263L50.0008 7.91795V9.19155H49.6094V7.2334H50.0539L50.6744 8.6894L51.295 7.2334H51.7367Z" fill="#212428"/>
</g>
<defs>
<clipPath id="clip0_3420_1167">
<rect width="52.044" height="24.6154" fill="white" transform="translate(0.25 0.310059)"/>
</clipPath>
</defs>
</svg>
