<svg width="50" height="50" viewBox="0 0 50 50" fill="none" xmlns="http://www.w3.org/2000/svg">
<path fill-rule="evenodd" clip-rule="evenodd" d="M24.9994 6.66797V43.3346C24.9994 43.3346 9.71304 39.1386 7.86084 12.6819C7.86084 12.6819 21.5465 9.51487 24.9994 6.6794V6.66797Z" stroke="#212428" stroke-width="1.25" stroke-miterlimit="2.61313" stroke-linecap="round" stroke-linejoin="round"/>
<path fill-rule="evenodd" clip-rule="evenodd" d="M25.001 6.66797V43.3346C25.001 43.3346 40.2873 39.1386 42.1395 12.6819C42.1395 12.6819 28.4538 9.51487 25.001 6.6794V6.66797Z" stroke="#212428" stroke-width="1.25" stroke-miterlimit="2.61313" stroke-linecap="round" stroke-linejoin="round"/>
<path d="M25.0006 33.9377C30.7231 33.9377 35.362 29.2988 35.362 23.5763C35.362 17.8538 30.7231 13.2148 25.0006 13.2148C19.2781 13.2148 14.6392 17.8538 14.6392 23.5763C14.6392 29.2988 19.2781 33.9377 25.0006 33.9377Z" stroke="#212428" stroke-width="1.25" stroke-miterlimit="2.61313" stroke-linecap="round" stroke-linejoin="round"/>
<path fill-rule="evenodd" clip-rule="evenodd" d="M23.0021 29.8626C23.6014 30.1689 24.2806 30.342 24.9998 30.342C25.7189 30.342 26.3982 30.1689 26.9975 29.8626C28.4491 29.1301 29.4347 27.6252 29.4347 25.9071C29.4347 25.8006 29.4347 25.7074 29.4214 25.6008C29.4214 25.6008 29.4214 25.5875 29.4214 25.5742H29.4347C29.448 25.2945 29.3814 23.1902 24.9998 16.8242C20.6314 23.1902 20.5515 25.2945 20.5648 25.5742H20.5782C20.5782 25.6008 20.5782 25.6008 20.5782 25.6008C20.5648 25.7074 20.5648 25.8006 20.5648 25.9071C20.5648 27.6385 21.5504 29.1434 23.0021 29.8626Z" stroke="#212428" stroke-width="1.25" stroke-miterlimit="2.61313" stroke-linecap="round" stroke-linejoin="round"/>
</svg>
