<svg width="31" height="31" viewBox="0 0 31 31" fill="none" xmlns="http://www.w3.org/2000/svg">
<path fill-rule="evenodd" clip-rule="evenodd" d="M16.0242 6.56641H18.235V21.3035H12.2779C11.8357 19.5697 10.4703 18.2694 8.06028 18.2694C5.65022 18.2694 4.28484 19.5697 3.84268 21.3035H3.20129C3.20129 21.3035 3.20129 21.3035 3.20129 20.8701C3.20129 20.0032 2.31695 18.7028 1.43262 18.2694V6.56641L16.0242 6.56641Z" stroke="#212428" stroke-width="0.75" stroke-miterlimit="2.61313" stroke-linecap="round" stroke-linejoin="round"/>
<path fill-rule="evenodd" clip-rule="evenodd" d="M8.06606 20.2324C9.39257 20.2324 10.2769 21.0993 10.2769 22.3996C10.2769 23.7 9.39257 24.5669 8.06606 24.5669C6.73956 24.5669 5.85522 23.7 5.85522 22.3996C5.85522 21.0993 6.73956 20.2324 8.06606 20.2324Z" stroke="#212428" stroke-width="0.75" stroke-miterlimit="2.61313" stroke-linecap="round" stroke-linejoin="round"/>
<path fill-rule="evenodd" clip-rule="evenodd" d="M24.9867 20.2324C26.3132 20.2324 27.1976 21.0993 27.1976 22.3996C27.1976 23.7 26.3132 24.5669 24.9867 24.5669C23.6602 24.5669 22.7759 23.7 22.7759 22.3996C22.7759 21.0993 23.6602 20.2324 24.9867 20.2324Z" stroke="#212428" stroke-width="0.75" stroke-miterlimit="2.61313" stroke-linecap="round" stroke-linejoin="round"/>
<path fill-rule="evenodd" clip-rule="evenodd" d="M20.4202 10.2627H25.7262L29.7057 15.0306V21.5322H29.0157C28.5736 19.7985 27.2082 18.4981 24.8419 18.4981C22.3881 18.4981 21.0227 19.7985 20.5805 21.5322H19.978V10.2627H20.4202Z" stroke="#212428" stroke-width="0.75" stroke-miterlimit="2.61313" stroke-linecap="round" stroke-linejoin="round"/>
<path d="M29.5202 14.7148L20.1631 14.7148" stroke="#212428" stroke-width="0.75"/>
<path d="M22.0493 10.2634V14.9541" stroke="#212428" stroke-width="0.75"/>
<path d="M14.6342 6.56641H1.61694V16.5925H14.6342V6.56641Z" stroke="#212428" stroke-width="0.75" stroke-miterlimit="2.61313" stroke-linecap="round" stroke-linejoin="round"/>
<path d="M7.92382 12.8232C7.68137 12.8047 7.45723 12.7491 7.23766 12.6564C6.96777 12.5359 6.72532 12.3738 6.51948 12.1699C6.31363 11.966 6.14895 11.7251 6.02087 11.4471C5.90193 11.1737 5.83789 10.8725 5.83789 10.5528C5.83789 10.2378 5.90193 9.93659 6.02544 9.65858C6.14895 9.38058 6.31363 9.13964 6.52405 8.93114C6.7299 8.72263 6.97234 8.56046 7.24223 8.44463C7.51212 8.32879 7.79573 8.26855 8.09307 8.26855C8.3904 8.26855 8.67859 8.32879 8.94848 8.44463C9.22294 8.56509 9.46539 8.72726 9.67123 8.93114C9.88166 9.13964 10.0463 9.38058 10.1698 9.65858C10.2934 9.93659 10.3574 10.2331 10.3574 10.5528C10.3574 10.8725 10.2934 11.1691 10.1698 11.4471C10.0463 11.7251 9.87708 11.966 9.67123 12.1699C9.46081 12.3738 9.22294 12.5359 8.94848 12.6564C8.69231 12.763 8.42242 12.8232 8.14339 12.8279C8.14796 12.8279 8.00615 12.8325 7.92382 12.8232ZM8.09307 12.7027C8.32636 12.7027 8.52764 12.6471 8.69231 12.5406C8.86157 12.434 8.9988 12.2811 9.10401 12.0911C9.21379 11.9012 9.29156 11.6741 9.34188 11.41C9.3922 11.1505 9.41964 10.8633 9.41964 10.5482C9.41964 10.2378 9.3922 9.95049 9.34188 9.68638C9.29613 9.42691 9.21837 9.19524 9.10858 9.00527C8.9988 8.8153 8.86157 8.6624 8.69689 8.55119C8.52764 8.43999 8.33094 8.38439 8.09764 8.38439C7.86435 8.38439 7.66307 8.43999 7.4984 8.55119C7.32914 8.6624 7.19191 8.81067 7.0867 9.00527C6.98149 9.19987 6.90372 9.42691 6.84883 9.69102C6.79851 9.95512 6.77107 10.2424 6.77107 10.5482C6.77107 10.854 6.79851 11.1413 6.84883 11.4054C6.89915 11.6695 6.97692 11.8965 7.0867 12.0865C7.19191 12.2765 7.32914 12.4294 7.4984 12.5359C7.66307 12.6518 7.86435 12.7027 8.09307 12.7027Z" fill="#212428"/>
<path d="M10.3564 13.309C10.0499 13.309 9.76628 13.3368 9.51012 13.3877C9.25395 13.4387 9.02981 13.5221 8.83768 13.6287C8.65013 13.7399 8.49918 13.8789 8.39396 14.0457C8.28875 14.2125 8.23386 14.4164 8.23386 14.648H8.11035C8.11035 14.6156 8.11035 14.5971 8.11035 14.5971C8.1195 14.3144 8.17439 14.0411 8.2796 13.7816C8.39854 13.5082 8.55864 13.2626 8.75992 13.0495C8.96119 12.8364 9.19906 12.6696 9.47352 12.5445C9.74799 12.4194 10.0407 12.3545 10.3564 12.3545V13.309Z" fill="#212428"/>
</svg>
