<svg width="40" height="41" viewBox="0 0 40 41" fill="none" xmlns="http://www.w3.org/2000/svg">
<path fill-rule="evenodd" clip-rule="evenodd" d="M20.6068 8.76587H23.5545V28.4153H15.6117C15.0222 26.1036 13.2017 24.3699 9.98825 24.3699C6.77484 24.3699 4.95434 26.1036 4.36478 28.4153H3.5096C3.5096 28.4153 3.5096 28.4153 3.5096 27.8374C3.5096 26.6816 2.33048 24.9478 1.15137 24.3699V8.76587L20.6068 8.76587Z" stroke="#212428" stroke-miterlimit="2.61313" stroke-linecap="round" stroke-linejoin="round"/>
<path fill-rule="evenodd" clip-rule="evenodd" d="M9.99564 26.9866C11.7643 26.9866 12.9434 28.1424 12.9434 29.8762C12.9434 31.61 11.7643 32.7658 9.99564 32.7658C8.22697 32.7658 7.04785 31.61 7.04785 29.8762C7.04785 28.1424 8.22697 26.9866 9.99564 26.9866Z" stroke="#212428" stroke-miterlimit="2.61313" stroke-linecap="round" stroke-linejoin="round"/>
<path fill-rule="evenodd" clip-rule="evenodd" d="M32.5562 26.9866C34.3249 26.9866 35.504 28.1424 35.504 29.8762C35.504 31.61 34.3249 32.7658 32.5562 32.7658C30.7875 32.7658 29.6084 31.61 29.6084 29.8762C29.6084 28.1424 30.7875 26.9866 32.5562 26.9866Z" stroke="#212428" stroke-miterlimit="2.61313" stroke-linecap="round" stroke-linejoin="round"/>
<path fill-rule="evenodd" clip-rule="evenodd" d="M26.4675 13.6949H33.5422L38.8482 20.0521V28.721H37.9282C37.3387 26.4093 35.5182 24.6755 32.3631 24.6755C29.0913 24.6755 27.2708 26.4093 26.6813 28.721H25.8779V13.6949H26.4675Z" stroke="#212428" stroke-miterlimit="2.61313" stroke-linecap="round" stroke-linejoin="round"/>
<path d="M38.6011 19.631L26.125 19.631" stroke="#212428"/>
<path d="M28.6396 13.6949V19.9492" stroke="#212428"/>
<path d="M18.7538 8.76587H1.39746V22.134H18.7538V8.76587Z" stroke="#212428" stroke-miterlimit="2.61313" stroke-linecap="round" stroke-linejoin="round"/>
<path d="M9.80565 17.1083C9.48239 17.0836 9.18353 17.0094 8.89077 16.8859C8.53092 16.7253 8.20766 16.509 7.93319 16.2372C7.65873 15.9654 7.43916 15.6441 7.26838 15.2734C7.1098 14.9089 7.02441 14.5074 7.02441 14.0811C7.02441 13.661 7.1098 13.2594 7.27448 12.8888C7.43916 12.5181 7.65873 12.1968 7.93929 11.9188C8.21376 11.6408 8.53701 11.4246 8.89687 11.2702C9.25672 11.1157 9.63487 11.0354 10.0313 11.0354C10.4278 11.0354 10.812 11.1157 11.1719 11.2702C11.5378 11.4308 11.8611 11.647 12.1355 11.9188C12.4161 12.1968 12.6357 12.5181 12.8004 12.8888C12.965 13.2594 13.0504 13.6548 13.0504 14.0811C13.0504 14.5074 12.965 14.9028 12.8004 15.2734C12.6357 15.6441 12.41 15.9654 12.1355 16.2372C11.855 16.509 11.5378 16.7253 11.1719 16.8859C10.8303 17.028 10.4705 17.1083 10.0984 17.1145C10.1045 17.1145 9.91543 17.1206 9.80565 17.1083ZM10.0313 16.9477C10.3424 16.9477 10.6107 16.8735 10.8303 16.7314C11.056 16.5893 11.239 16.3855 11.3792 16.1322C11.5256 15.8789 11.6293 15.5762 11.6964 15.224C11.7635 14.8781 11.8001 14.495 11.8001 14.0749C11.8001 13.661 11.7635 13.278 11.6964 12.9258C11.6354 12.5799 11.5317 12.271 11.3853 12.0177C11.239 11.7644 11.056 11.5605 10.8364 11.4123C10.6107 11.264 10.3485 11.1898 10.0374 11.1898C9.72636 11.1898 9.45799 11.264 9.23842 11.4123C9.01275 11.5605 8.82978 11.7582 8.68949 12.0177C8.54921 12.2772 8.44553 12.5799 8.37234 12.932C8.30524 13.2842 8.26865 13.6672 8.26865 14.0749C8.26865 14.4827 8.30524 14.8657 8.37234 15.2178C8.43943 15.57 8.54311 15.8727 8.68949 16.126C8.82978 16.3793 9.01275 16.5832 9.23842 16.7253C9.45799 16.8797 9.72636 16.9477 10.0313 16.9477Z" fill="#212428"/>
<path d="M13.0494 17.7567C12.6407 17.7567 12.2626 17.7937 11.921 17.8617C11.5795 17.9296 11.2806 18.0408 11.0245 18.1829C10.7744 18.3312 10.5731 18.5165 10.4328 18.7389C10.2926 18.9614 10.2194 19.2332 10.2194 19.5421H10.0547C10.0547 19.4988 10.0547 19.4741 10.0547 19.4741C10.0669 19.0973 10.1401 18.7328 10.2804 18.3868C10.4389 18.0223 10.6524 17.6949 10.9208 17.4107C11.1891 17.1265 11.5063 16.9041 11.8722 16.7373C12.2382 16.5705 12.6285 16.484 13.0494 16.484V17.7567Z" fill="#212428"/>
</svg>
