<svg width="31" height="31" viewBox="0 0 31 31" fill="none" xmlns="http://www.w3.org/2000/svg">
<path fill-rule="evenodd" clip-rule="evenodd" d="M15.9551 6.78296H18.1659V21.5201H12.2088C11.7666 19.7863 10.4012 18.4859 7.99119 18.4859C5.58113 18.4859 4.21575 19.7863 3.77358 21.5201H3.1322C3.1322 21.5201 3.1322 21.5201 3.1322 21.0866C3.1322 20.2197 2.24786 18.9194 1.36353 18.4859V6.78296L15.9551 6.78296Z" stroke="#212428" stroke-width="0.75" stroke-miterlimit="2.61313" stroke-linecap="round" stroke-linejoin="round"/>
<path fill-rule="evenodd" clip-rule="evenodd" d="M7.99697 20.4485C9.32348 20.4485 10.2078 21.3154 10.2078 22.6157C10.2078 23.916 9.32348 24.7829 7.99697 24.7829C6.67047 24.7829 5.78613 23.916 5.78613 22.6157C5.78613 21.3154 6.67047 20.4485 7.99697 20.4485Z" stroke="#212428" stroke-width="0.75" stroke-miterlimit="2.61313" stroke-linecap="round" stroke-linejoin="round"/>
<path fill-rule="evenodd" clip-rule="evenodd" d="M24.9174 20.4485C26.2439 20.4485 27.1282 21.3154 27.1282 22.6157C27.1282 23.916 26.2439 24.7829 24.9174 24.7829C23.5909 24.7829 22.7065 23.916 22.7065 22.6157C22.7065 21.3154 23.5909 20.4485 24.9174 20.4485Z" stroke="#212428" stroke-width="0.75" stroke-miterlimit="2.61313" stroke-linecap="round" stroke-linejoin="round"/>
<path fill-rule="evenodd" clip-rule="evenodd" d="M20.3509 10.4797H25.6569L29.6364 15.2476V21.7493H28.9464C28.5042 20.0155 27.1389 18.7152 24.7725 18.7152C22.3188 18.7152 20.9534 20.0155 20.5112 21.7493H19.9087V10.4797H20.3509Z" stroke="#212428" stroke-width="0.75" stroke-miterlimit="2.61313" stroke-linecap="round" stroke-linejoin="round"/>
<path d="M29.4511 14.9318L20.094 14.9318" stroke="#212428" stroke-width="0.75"/>
<path d="M21.98 10.4797V15.1704" stroke="#212428" stroke-width="0.75"/>
<path d="M14.5651 6.78296H1.54785V16.809H14.5651V6.78296Z" stroke="#212428" stroke-width="0.75" stroke-miterlimit="2.61313" stroke-linecap="round" stroke-linejoin="round"/>
<path d="M7.85448 13.0398C7.61204 13.0212 7.38789 12.9656 7.16832 12.873C6.89843 12.7525 6.65599 12.5903 6.45014 12.3865C6.24429 12.1826 6.07961 11.9416 5.95153 11.6636C5.8326 11.3903 5.76855 11.0891 5.76855 10.7694C5.76855 10.4543 5.8326 10.1531 5.9561 9.87514C6.07961 9.59713 6.24429 9.35619 6.45471 9.14769C6.66056 8.93918 6.903 8.77701 7.17289 8.66118C7.44278 8.54534 7.7264 8.48511 8.02373 8.48511C8.32107 8.48511 8.60925 8.54534 8.87914 8.66118C9.15361 8.78165 9.39605 8.94382 9.6019 9.14769C9.81232 9.35619 9.977 9.59713 10.1005 9.87514C10.224 10.1531 10.2881 10.4497 10.2881 10.7694C10.2881 11.0891 10.224 11.3856 10.1005 11.6636C9.977 11.9416 9.80775 12.1826 9.6019 12.3865C9.39148 12.5903 9.15361 12.7525 8.87914 12.873C8.62298 12.9795 8.35309 13.0398 8.07405 13.0444C8.07862 13.0444 7.93682 13.049 7.85448 13.0398ZM8.02373 12.9193C8.25703 12.9193 8.4583 12.8637 8.62298 12.7571C8.79223 12.6506 8.92946 12.4977 9.03467 12.3077C9.14446 12.1177 9.22222 11.8907 9.27254 11.6266C9.32286 11.3671 9.35031 11.0798 9.35031 10.7648C9.35031 10.4543 9.32286 10.167 9.27254 9.90294C9.2268 9.64347 9.14903 9.41179 9.03925 9.22182C8.92946 9.03185 8.79223 8.87895 8.62755 8.76775C8.4583 8.65654 8.2616 8.60094 8.02831 8.60094C7.79501 8.60094 7.59374 8.65654 7.42906 8.76775C7.25981 8.87895 7.12258 9.02722 7.01736 9.22182C6.91215 9.41643 6.83439 9.64347 6.7795 9.90757C6.72918 10.1717 6.70173 10.4589 6.70173 10.7648C6.70173 11.0706 6.72918 11.3578 6.7795 11.6219C6.82981 11.886 6.90758 12.1131 7.01736 12.3031C7.12258 12.493 7.25981 12.6459 7.42906 12.7525C7.59374 12.8683 7.79501 12.9193 8.02373 12.9193Z" fill="#212428"/>
<path d="M10.2873 13.526C9.9808 13.526 9.69719 13.5538 9.44103 13.6048C9.18486 13.6558 8.96071 13.7392 8.76859 13.8457C8.58104 13.9569 8.43008 14.0959 8.32487 14.2627C8.21966 14.4295 8.16477 14.6334 8.16477 14.8651H8.04126C8.04126 14.8327 8.04126 14.8141 8.04126 14.8141C8.05041 14.5315 8.1053 14.2581 8.21051 13.9986C8.32945 13.7253 8.48955 13.4797 8.69082 13.2665C8.8921 13.0534 9.12997 12.8866 9.40443 12.7615C9.67889 12.6364 9.97166 12.5715 10.2873 12.5715V13.526Z" fill="#212428"/>
</svg>
