<svg width="121" height="29" viewBox="0 0 121 29" fill="none" xmlns="http://www.w3.org/2000/svg">
<path fill-rule="evenodd" clip-rule="evenodd" d="M23.276 26.7554C23.0545 27.6422 23.024 27.7315 22.7994 27.7315H20.2741V27.905H25.9937V27.7315H23.3756C23.2063 27.7315 23.2347 27.6112 23.4406 26.8007L25.1999 19.9696H32.1642L34.2905 27.7315H31.4613V27.905H40.9785V27.7315H38.0198L30.1273 0.359375H30.0793L23.276 26.7554ZM28.5669 6.88657L32.1102 19.7968H25.2497L28.5669 6.88657ZM105.248 14.2481H107.426C109.354 14.2481 112.199 15.0787 112.199 18.4538V24.5655C112.199 27.0664 113.579 28.6413 116.014 28.6413C118.573 28.6413 118.533 26.0575 118.533 24.1935V22.2291H118.36V24.1935C118.36 26.3137 118.109 28.1549 116.86 28.1549C115.754 28.1549 115.516 27.4689 115.516 24.5923V18.4538C115.516 15.6134 113.214 14.5724 109.659 14.1604C114.087 13.6337 115.754 10.8058 115.754 7.67879C115.754 3.05345 113.618 1.1092 108.118 1.1092L99.3984 1.10735V1.28116H101.688C101.853 1.28116 101.931 1.32752 101.931 1.42132V27.5902C101.931 27.6846 101.853 27.7315 101.688 27.7315H99.3984V27.905H107.417V27.7315H105.491C105.325 27.7315 105.248 27.6846 105.248 27.5902V14.2481ZM105.248 1.28275H107.599C111.219 1.28275 112.242 4.03617 112.242 7.67879C112.242 11.0893 111.219 14.0746 107.599 14.0746H105.248V1.28275ZM46.8966 27.5947C46.8682 27.657 46.9003 27.7315 47.0341 27.7315L53.2815 27.733C55.2048 27.733 57.6875 24.8885 57.6875 15.7223V14.768H57.8613V27.9061H42.9448L54.2454 1.41655C54.273 1.35508 54.2406 1.28116 54.1071 1.28116L47.4742 1.28275C45.7332 1.28275 43.205 4.46116 43.205 13.294V14.2481H43.0314V1.1092H58.2084L46.8966 27.5947ZM9.96595 1.28275C13.5868 1.28275 15.0611 4.03617 15.0611 7.67879C15.0611 11.0893 13.5868 13.8141 9.96595 13.8141H8.31845V1.28275H9.96595ZM2.46875 1.10735V1.28116H4.7585C4.9241 1.28116 5.00147 1.32752 5.00147 1.42132V27.5902C5.00147 27.6846 4.9241 27.7315 4.7585 27.7315H2.46875V27.905L11.007 27.9061C16.5064 27.9061 19.4405 25.6153 19.4405 20.9912C19.4405 17.789 17.7064 14.5298 12.2324 13.8806C16.8824 13.4458 18.4867 10.5252 18.4867 7.67879C18.4867 3.51606 15.9863 1.1092 10.4866 1.1092L2.46875 1.10735ZM9.96595 13.9877C14.0489 13.9877 15.6683 16.7702 15.6683 20.9912C15.6683 24.6328 14.2227 27.733 10.8331 27.733L8.56142 27.7315C8.39582 27.7315 8.31845 27.6846 8.31845 27.5902V13.9855L9.96595 13.9877ZM62.6498 26.7554C62.4273 27.6422 62.3968 27.7315 62.1726 27.7315H59.6473V27.905H65.3675V27.7315H62.7487C62.5804 27.7315 62.608 27.6112 62.8149 26.8007L64.5734 19.9696H71.5378L73.6646 27.7315H70.8343V27.905H80.3523V27.7315H77.3925L69.5005 0.359375H69.452L62.6498 26.7554ZM67.9407 6.88657L71.4829 19.7968H64.6224L67.9407 6.88657Z" fill="#212428"/>
<path fill-rule="evenodd" clip-rule="evenodd" d="M81.6489 26.7555C81.4266 27.6423 81.3972 27.7316 81.1728 27.7316H78.647V27.9051H84.3668V27.7316H81.7483C81.58 27.7316 81.6079 27.6113 81.814 26.8008L83.5733 19.9697H90.5374L92.664 27.7316H89.834V27.9051H99.3517V27.7316H96.3929L88.501 0.359497H88.4525L81.6489 26.7555ZM86.9406 6.88669L90.4834 19.7969H83.6221L86.9406 6.88669ZM75.5287 3.88103C75.5287 3.89163 75.5385 3.8956 75.5571 3.8956H75.9436V3.95734H74.6239V3.8956H74.9686C74.9879 3.8956 74.9964 3.89163 74.9964 3.88103V2.54485H73.736V3.88103C73.736 3.89163 73.7448 3.8956 73.7636 3.8956H74.1083V3.95734H72.7891V3.8956H73.1756C73.1944 3.8956 73.2032 3.89163 73.2032 3.88103V1.25902C73.2032 1.24948 73.1944 1.24498 73.1756 1.24498H72.7891V1.18298H74.1083V1.24498H73.7636C73.7448 1.24498 73.736 1.24948 73.736 1.25902V2.48365H74.9964V1.25902C74.9964 1.24948 74.9879 1.24498 74.9686 1.24498H74.6239V1.18298H75.9436V1.24498H75.5571C75.5385 1.24498 75.5287 1.24948 75.5287 1.25902V3.88103ZM79.193 2.74225C79.0717 2.74225 78.9904 2.68608 78.9904 2.59149C78.9904 2.50591 79.0418 2.50882 79.0418 2.44603C79.0418 2.38244 79.001 2.35329 78.9355 2.35329C78.868 2.35329 78.7474 2.37581 78.656 2.65349V3.88103C78.656 3.89163 78.6645 3.8956 78.6835 3.8956H78.9204V3.95734H77.9915V3.8956H78.2276C78.2466 3.8956 78.2551 3.89163 78.2551 3.88103V2.36574C78.2551 2.35647 78.2466 2.35117 78.2276 2.35117H77.9915V2.28944H78.6443L78.656 2.30136V2.56022C78.7257 2.34455 78.8762 2.25552 79.0532 2.25552C79.2686 2.25552 79.4085 2.36866 79.4085 2.5438C79.4085 2.65428 79.3231 2.74225 79.193 2.74225ZM82.6772 3.99099C82.9795 3.99099 83.2228 3.84446 83.3852 3.62005L83.3383 3.58242C83.1865 3.7973 82.983 3.93031 82.6772 3.93031C82.5654 3.93031 82.4753 3.90911 82.3982 3.84076C82.271 3.72656 82.2313 3.59276 82.2313 3.12378C82.2313 3.08907 82.2316 3.07954 82.2324 3.04774H83.4207L83.4323 3.03688C83.4323 2.72026 83.214 2.25552 82.6772 2.25552C82.1818 2.25552 81.8095 2.64474 81.8095 3.12378C81.8095 3.60203 82.1818 3.99099 82.6772 3.99099ZM82.8977 2.40708C82.9888 2.50988 83.0185 2.66885 83.0256 2.98601H82.2334C82.2432 2.66885 82.2832 2.50988 82.3982 2.40708C82.4753 2.33845 82.5654 2.31726 82.6772 2.31726C82.7739 2.31726 82.8365 2.33845 82.8977 2.40708ZM76.765 3.91468C76.9775 3.91468 77.1153 3.76339 77.1153 3.61872V3.04138C77.0164 3.09835 76.8731 3.09835 76.7464 3.12113C76.6042 3.1471 76.4516 3.22155 76.4516 3.58083C76.4516 3.85506 76.6312 3.91468 76.765 3.91468ZM76.2661 2.59467C76.2661 2.45609 76.4407 2.25552 76.778 2.25552C77.2721 2.25552 77.5167 2.47332 77.5167 2.96243V3.75809C77.5167 3.85162 77.5615 3.8903 77.6266 3.8903C77.7029 3.8903 77.7641 3.82724 77.7806 3.78909L77.8211 3.82936C77.7962 3.89878 77.6695 3.99099 77.5085 3.99099C77.3256 3.99099 77.1648 3.88527 77.1365 3.73848C77.0782 3.90567 76.9181 3.99099 76.6879 3.99099C76.3061 3.99099 76.0607 3.85798 76.0607 3.58083C76.0607 3.17174 76.4976 3.07662 76.6656 3.06311C76.9025 3.04324 77.1153 3.02761 77.1153 2.94388V2.71575C77.1153 2.43649 76.9934 2.31726 76.778 2.31726C76.6701 2.31726 76.6031 2.36654 76.6031 2.48206C76.6031 2.54777 76.6373 2.56791 76.6373 2.63203C76.6373 2.70383 76.5803 2.77219 76.4452 2.77219C76.3167 2.77219 76.2661 2.68316 76.2661 2.59467ZM80.9158 2.40522C80.844 2.33845 80.7468 2.31726 80.6429 2.31726C80.4993 2.31726 80.3673 2.41211 80.2759 2.51915V3.68523C80.331 3.82406 80.4908 3.93031 80.6429 3.93031C80.7468 3.93031 80.844 3.90964 80.9158 3.84208C81.0342 3.73 81.114 3.53473 81.114 3.13385C81.114 2.73271 81.0342 2.51703 80.9158 2.40522ZM81.5217 3.13385C81.5217 3.56706 81.1537 3.99099 80.6429 3.99099C80.4866 3.99099 80.3673 3.89348 80.2759 3.79916V5.09135C80.2759 5.10036 80.2855 5.10486 80.304 5.10486H80.5401V5.1666H79.6119V5.10486H79.8478C79.8666 5.10486 79.8753 5.10036 79.8753 5.09135V2.36574C79.8753 2.35647 79.8666 2.35117 79.8478 2.35117H79.6119V2.28944H80.2645L80.2759 2.30136V2.45C80.3673 2.35488 80.4866 2.25552 80.6429 2.25552C81.1537 2.25552 81.5217 2.70012 81.5217 3.13385ZM86.5888 2.30216C86.6328 2.30216 86.6571 2.28414 86.6619 2.26718H86.7289V2.68051H86.6619C86.6619 2.4402 86.4465 2.31726 86.2425 2.31726C86.0313 2.31726 85.9293 2.41211 85.9293 2.56181C85.9293 2.75444 86.0676 2.85247 86.3816 2.94043C86.7104 3.0329 86.9269 3.19347 86.9269 3.44412C86.9269 3.76127 86.6706 3.99099 86.2608 3.99099C86.0173 3.99099 85.9118 3.87758 85.7857 3.87758C85.7576 3.87663 85.7298 3.88425 85.7061 3.89944C85.6824 3.91463 85.6638 3.93667 85.6529 3.96264H85.5851L85.6084 3.41285H85.6763C85.6649 3.70112 85.9346 3.93031 86.2608 3.93031C86.5072 3.93031 86.6468 3.81744 86.6468 3.60733C86.6468 3.39775 86.4817 3.31429 86.1805 3.22235C85.8858 3.13332 85.6808 3.01356 85.6808 2.75444C85.6808 2.44735 85.9783 2.25552 86.2425 2.25552C86.4147 2.25552 86.4309 2.30216 86.5888 2.30216ZM85.3644 1.7227C85.3644 1.61088 85.4593 1.51974 85.5764 1.51974C85.7033 1.51974 85.7974 1.61194 85.7974 1.74707C85.7974 1.94658 85.6172 2.18081 85.37 2.32945L85.3305 2.28493C85.5091 2.1816 85.6376 2.05416 85.7136 1.87319C85.6808 1.90949 85.6352 1.92618 85.5764 1.92618C85.4593 1.92618 85.3644 1.83557 85.3644 1.7227ZM84.8284 2.74225C84.7076 2.74225 84.6257 2.68608 84.6257 2.59149C84.6257 2.50591 84.6774 2.50882 84.6774 2.44603C84.6774 2.38244 84.636 2.35329 84.5703 2.35329C84.503 2.35329 84.3822 2.37581 84.2913 2.65349V3.88103C84.2913 3.89163 84.299 3.8956 84.3181 3.8956H84.5547V3.95734H83.6258V3.8956H83.8629C83.8814 3.8956 83.8905 3.89163 83.8905 3.88103V2.36574C83.8905 2.35647 83.8814 2.35117 83.8629 2.35117H83.6258V2.28944H84.2792L84.2913 2.30136V2.56022C84.3615 2.34455 84.5113 2.25552 84.6896 2.25552C84.9029 2.25552 85.0446 2.36866 85.0446 2.5438C85.0446 2.65428 84.9577 2.74225 84.8284 2.74225Z" fill="#212428"/>
</svg>
