<svg width="120" height="29" viewBox="0 0 120 29" fill="none" xmlns="http://www.w3.org/2000/svg">
<path d="M32.079 28.9205C30.144 28.6392 28.4516 27.8213 27.1593 26.5428C26.0812 25.4764 25.3822 24.3038 24.8671 22.697C24.0626 20.1884 24.0623 16.963 24.8663 14.5055C25.6454 12.1239 27.3998 10.0508 29.5468 8.97447C32.5202 7.48392 36.7051 7.57756 39.459 9.19626C41.9374 10.653 43.4386 13.2416 43.8564 16.7781C43.9839 17.8579 43.9011 20.1386 43.7003 21.08C42.8782 24.9334 40.484 27.6252 36.9763 28.6396C36.5982 28.7489 36.0121 28.8769 35.6737 28.9238C34.9577 29.0234 32.7721 29.0213 32.079 28.9205ZM34.974 27.3732C35.5393 27.2055 36.2364 26.5526 36.6082 25.8427C37.3757 24.3773 37.7184 22.2101 37.7269 18.769C37.7376 14.4564 37.0605 11.7121 35.6316 10.2753C35.0316 9.67186 34.6061 9.4845 33.8389 9.48569C32.1362 9.4884 31.0555 11.2635 30.6286 14.7588C30.4324 16.3655 30.4313 20.1932 30.6268 21.5979C31.2315 25.9454 32.7931 28.0199 34.974 27.3732ZM66.3519 28.9195C65.5602 28.8393 63.141 28.4373 62.2959 28.2454L61.7113 28.1126L61.7568 24.9949C61.8667 17.4883 61.8805 13.3904 61.8094 9.40521C61.7398 5.50128 61.7195 5.08855 61.5687 4.51103C61.3776 3.7793 61.1019 3.26896 60.7704 3.03315C60.6416 2.94158 60.2916 2.81177 59.9926 2.74467C58.999 2.52177 59.053 2.55747 59.0265 2.10482C59.0112 1.84407 59.0395 1.67178 59.1063 1.61894C59.1958 1.54802 67.3457 -0.00437377 67.6053 9.26369e-06C67.6799 0.00128433 67.6904 1.0419 67.6522 4.62379C67.6251 7.16595 67.6216 9.2459 67.6445 9.2459C67.6673 9.2459 67.9651 9.11712 68.3063 8.95973C69.3345 8.48533 70.2822 8.27948 71.6587 8.23151C72.575 8.19963 72.9996 8.21964 73.4698 8.3167C76.5439 8.95192 78.8189 11.4647 79.6139 15.1032C79.8213 16.0523 79.8983 18.4113 79.7608 19.5928C79.6434 20.5999 79.3085 21.9568 78.9601 22.8373C77.6453 26.16 74.8244 28.3277 71.082 28.8911C70.22 29.0207 67.5131 29.0371 66.3519 28.9195ZM69.5502 27.3347C70.1299 27.2248 70.5803 26.9944 71.0638 26.5602C72.2758 25.4722 73.1869 23.2257 73.5453 20.4424C73.6913 19.3088 73.6717 16.7257 73.5099 15.7795C73.0724 13.2205 72.132 11.5386 70.7603 10.8614C70.1913 10.5805 70.1036 10.5607 69.4286 10.5607C68.9459 10.5607 68.5306 10.6123 68.1775 10.7162L67.649 10.8717L67.6101 13.7843C67.56 17.5153 67.6816 26.8561 67.7836 27.1241C67.8487 27.2951 67.9204 27.3314 68.2435 27.3568C69.004 27.4165 69.1297 27.4142 69.5502 27.3347ZM89.2946 28.88C85.3356 28.167 82.5043 25.3633 81.5792 21.24C81.4602 20.7098 81.4076 20.1162 81.3778 18.9682C81.3305 17.1519 81.4785 16.0245 81.9479 14.6237C82.8491 11.9341 84.4643 10.0282 86.8106 8.88594C89.2871 7.68028 92.6728 7.60131 94.8645 8.6981C97.3321 9.933 98.784 12.3987 99.1523 15.9798C99.202 16.462 99.2306 17.0357 99.2163 17.2548L99.19 17.6533L87.3795 17.6942L87.4019 18.3909C87.4541 20.005 87.8016 21.4327 88.4444 22.6739C88.7365 23.2381 88.969 23.5456 89.534 24.1152C90.8102 25.402 92.0798 25.9001 94.0827 25.9001C95.5348 25.9001 96.5791 25.6107 97.6713 24.9056C97.9772 24.7081 98.2872 24.5465 98.3601 24.5465C98.5268 24.5465 98.9106 25.0399 98.9106 25.2543C98.9106 25.6055 97.7656 26.7379 96.6489 27.4912C95.7343 28.1082 94.2838 28.667 93.026 28.8866C92.1452 29.0407 90.1664 29.0371 89.2946 28.88ZM91.8002 15.8904L93.1886 15.8422L93.1386 14.8573C92.9624 11.3844 92.1113 9.48649 90.731 9.48809C89.2308 9.48976 88.032 11.4157 87.5335 14.6251C87.4722 15.0196 87.4215 15.4873 87.4207 15.6647L87.4192 15.987L88.9155 15.9629C89.7385 15.9494 91.0366 15.9169 91.8002 15.8904ZM105.255 28.9574C103.833 28.8052 101.57 28.3105 100.817 27.987L100.449 27.8293L100.399 26.0086C100.371 25.0074 100.339 23.6685 100.328 23.0335L100.308 21.879L100.528 21.7734C100.649 21.7154 100.894 21.6611 101.072 21.6528L101.396 21.6379L101.671 22.3152C102.746 24.9578 104.007 26.3826 105.654 26.816C106.282 26.9814 107.46 26.9829 107.925 26.8188C109.228 26.3596 109.943 25.3744 109.949 24.0286C109.956 22.4348 109.079 21.669 105.765 20.3762C103.712 19.5752 102.995 19.163 102.142 18.2913C101.222 17.3509 100.781 16.2805 100.698 14.7896C100.598 12.9881 101.162 11.4693 102.414 10.1752C103.673 8.87279 105.307 8.16688 107.534 7.96398C109.494 7.78532 112.504 8.20059 114.081 8.86737L114.369 8.98898L114.42 10.6117C114.448 11.5041 114.477 12.7005 114.485 13.2702L114.498 14.3062L114.112 14.4494C113.501 14.6759 113.461 14.6476 113.121 13.7485C112.169 11.2283 111.062 10.0359 109.338 9.67162C108.287 9.44959 107.409 9.68827 106.771 10.3695C106.273 10.9009 106.079 11.3728 106.032 12.1652C105.981 13.0238 106.135 13.488 106.66 14.062C107.308 14.7695 108.368 15.3802 110.482 16.262C113.07 17.3421 114.305 18.259 114.976 19.5991C115.412 20.4695 115.535 21.1647 115.492 22.5028C115.459 23.5069 115.427 23.7132 115.198 24.3873C114.452 26.5852 112.769 28.0322 110.168 28.7107C109.287 28.9405 109.161 28.9523 107.409 28.9716C106.4 28.9824 105.43 28.9762 105.255 28.9574ZM4.60606 28.4784C4.53974 28.4516 4.5063 28.2531 4.5063 27.8854C4.5063 27.225 4.46425 27.2546 5.74322 27.0177C6.72429 26.8359 7.07517 26.6501 7.50841 26.0829C8.34831 24.9831 8.52986 22.8657 8.53177 14.1469C8.53353 5.95895 8.37552 4.23649 7.50689 2.97099C7.12145 2.40956 6.47196 2.10466 5.38403 1.97461L4.54612 1.87443L4.5 0.567891L4.76254 0.521192C4.90698 0.495531 9.97968 0.484693 16.0354 0.497046L27.0457 0.519678C27.0457 0.519678 27.0688 0.663123 27.0972 0.838444C27.1257 1.01377 27.1723 2.81209 27.2008 4.83466L27.2527 8.5121L26.6851 8.68432C25.8306 8.94347 25.8357 8.94666 25.4513 7.93091C24.5071 5.43593 23.4243 3.99829 21.9428 3.2723C20.9209 2.7716 20.4485 2.71112 17.5628 2.71112H15.0515L15.0082 3.1295C14.9269 3.91406 14.7988 8.96101 14.7997 11.3377L14.8006 13.7086L15.5388 13.7043C15.9448 13.702 16.7453 13.6722 17.3178 13.638C18.1783 13.5866 18.4341 13.541 18.7941 13.3746C19.6787 12.9656 20.2805 12.0656 20.6493 10.6L20.8396 9.84343L22.1423 9.79705V19.373L20.8391 19.3266L20.6541 18.5696C20.3067 17.1471 19.6379 16.1288 18.8115 15.7637C18.4298 15.5952 17.4854 15.4993 15.6585 15.4438L14.8006 15.4177V17.2165C14.8006 19.1766 14.9086 21.8283 15.0469 23.2675C15.2397 25.2738 15.7531 26.3823 16.675 26.7835C16.8511 26.8601 17.4082 26.9844 17.9128 27.06C18.4176 27.1355 18.8934 27.2297 18.9702 27.2693C19.165 27.3698 19.1765 28.4089 18.9837 28.4827C18.8327 28.5407 4.74986 28.5363 4.60606 28.4784ZM43.9439 28.4633C43.8711 28.4171 43.8473 28.2332 43.8641 27.8466L43.888 27.296L44.1673 27.2367C44.321 27.204 44.6509 27.1391 44.9005 27.0925C45.6733 26.9484 46.1173 26.5296 46.3672 25.7091C46.5708 25.0409 46.6605 22.903 46.6651 18.6096C46.6708 13.3588 46.5613 12.1187 46.0296 11.4158C45.7415 11.0348 45.5338 10.9265 44.8346 10.7925C44.4895 10.7263 44.1264 10.6554 44.0277 10.6348C43.8678 10.6016 43.8481 10.5496 43.8481 10.159C43.8481 9.77928 43.8722 9.71066 44.0277 9.64675C44.2664 9.54873 52.172 7.97068 52.4246 7.97068H52.6216L52.583 9.14613C52.5617 9.79259 52.5277 10.734 52.5075 11.238L52.4706 12.1545L52.757 11.6387C53.6738 9.98767 54.702 8.96268 56.0692 8.33702C56.8197 7.99347 57.3206 7.89099 58.2478 7.89099C59.3474 7.89099 60.4468 8.24928 60.4468 8.60773C60.4468 8.84872 58.5094 13.9611 58.4025 14.002C58.3504 14.0219 57.9721 13.8775 57.5618 13.6808C56.7062 13.2708 55.9035 13.0704 55.1244 13.0721C54.154 13.0741 53.0701 13.4311 52.6422 13.8895C52.4591 14.0855 52.4582 14.0973 52.4127 17.0252C52.3677 19.9248 52.4645 23.4617 52.6277 24.8842C52.7668 26.096 53.0893 26.6926 53.7552 26.9705C53.9774 27.0631 55.383 27.2555 55.8417 27.256C55.8765 27.256 55.8944 27.5339 55.8816 27.8736L55.8583 28.4912L49.953 28.5101C46.705 28.5207 44.0009 28.4997 43.9439 28.4633Z" fill="#212428"/>
</svg>
