<svg xmlns="http://www.w3.org/2000/svg" width="111" height="30" viewBox="0 0 111 30" fill="none">
  <g clip-path="url(#clip0_21274_666)">
    <mask id="mask0_21274_666" style="mask-type:luminance" maskUnits="userSpaceOnUse" x="0" y="0" width="111" height="30">
      <path d="M110.559 0.693848H0.78772V29.817H110.559V0.693848Z" fill="white"/>
    </mask>
    <g mask="url(#mask0_21274_666)">
      <path fill-rule="evenodd" clip-rule="evenodd" d="M24.7898 24.7307C26.7789 27.1881 29.8509 28.987 33.0627 28.987C36.4928 28.987 39.5855 27.0372 41.6332 24.3734C43.7214 21.6392 44.7458 18.1887 44.7458 14.7692C44.7458 11.1989 43.6222 7.5799 41.3651 4.78586C39.406 2.3603 36.3538 0.540245 33.1718 0.540245C29.7113 0.540245 26.5993 2.45945 24.531 5.14378C22.4335 7.87796 21.419 11.3286 21.419 14.7587C21.419 18.3284 22.5232 21.938 24.7898 24.7307ZM10.4623 1.12698H0.787598V1.40451H3.33344L13.3261 28.7276L21.9165 1.40451H24.2235V1.12698H19.0034V1.40451H21.3996L15.3046 21.171L8.086 1.40451H10.4623V1.12698ZM65.9246 10.1451V0.649377H65.7075C65.0416 1.14634 64.2659 1.71313 63.4005 1.71313C62.7053 1.71313 61.9994 1.48489 61.3528 1.24609L60.7854 1.02724C60.0098 0.718614 59.1848 0.460449 58.3493 0.460449C56.2118 0.460449 54.2034 1.4045 52.543 2.6877C48.8442 5.54099 47.1039 10.4232 47.1039 14.9874C47.1039 21.2309 50.8626 28.7576 57.9216 28.7576C59.4623 28.7576 60.7953 28.311 62.1878 27.6944L62.8044 27.3564C63.4891 26.9785 64.2548 26.6998 65.041 26.6998C66.1241 26.6998 66.9696 27.2866 67.5071 28.1814H67.6948V17.2041H69.823V16.9166H60.725V17.2041H63.2104V24.543C63.2104 25.03 63.1905 25.5064 62.9318 25.9342C61.9278 27.5753 59.9189 28.5299 58.0301 28.5299C55.6532 28.5299 54.3707 27.4068 53.4859 25.1198C52.2232 21.8586 51.9451 18.2697 51.9451 14.7891C51.9451 10.9014 52.462 0.709813 58.1492 0.709813C60.6252 0.709813 62.5245 2.87662 63.7173 4.80581C64.7213 6.4563 65.298 8.27577 65.7057 10.1451H65.9246ZM78.3435 1.12698H68.6394L68.64 1.40451H71.2939V21.5089C71.2939 26.501 76.1074 28.6185 80.4722 28.6185C84.3294 28.6185 88.4458 26.6992 88.4458 22.3651V1.40451H93.2589V27.9027H90.9818V28.1814H110.559V17.8906H110.341C110.291 18.8852 110.211 19.889 110.042 20.8736C109.734 22.6338 108.849 24.2643 107.576 25.517C106.084 26.9879 103.987 27.9027 101.879 27.9027H97.8125V14.4599C98.2995 14.42 98.7766 14.3901 99.2635 14.3901C102.356 14.3901 103.519 17.2141 103.947 19.8486H104.196V8.82202H103.947C103.798 11.7258 102.913 14.0721 99.5029 14.0721C98.9356 14.0721 98.3682 14.0323 97.8125 13.973V1.40451H100.526C103.042 1.40451 105.488 1.60341 107.287 3.64173C109.067 5.6601 109.564 8.31507 109.853 10.9002H110.042V1.1264H84.9953V1.40451H88.0369V22.2859C88.0369 25.5575 85.3427 27.7841 82.1408 27.7841C79.1684 27.7841 75.7683 25.7751 75.7683 22.4747V1.40509H78.3435V1.12698ZM33.3282 1.16599C38.6675 1.16599 40.0792 11.0296 40.0792 14.9772C40.0792 18.9247 38.6675 28.7971 33.3282 28.7977C27.979 28.7977 26.5766 18.9341 26.5766 14.9772C26.5766 11.0196 27.969 1.16599 33.3282 1.16599Z" fill="black"/>
    </g>
  </g>
  <defs>
    <clipPath id="clip0_21274_666">
      <rect width="109.772" height="29.1231" fill="white" transform="translate(0.789795 0.693848)"/>
    </clipPath>
  </defs>
</svg>