<svg width="135" height="28" viewBox="0 0 135 28" fill="none" xmlns="http://www.w3.org/2000/svg">
<path d="M13.5637 27.407L15.9452 3.85876C16.0792 2.6513 16.3141 2.44979 16.7167 2.44979H16.9514V1.1083H13.0939V2.44979H13.3288C13.8654 2.44979 14.1337 2.81896 14.0666 3.85876L12.6913 17.9475L11.1149 3.85876C10.9804 2.75195 11.2487 2.44979 11.853 2.44979H11.9198V1.1083H6.55268V2.44979H6.82145C7.32465 2.44979 7.32465 2.6513 7.42529 3.85876L7.82785 7.44844L6.5863 18.8533L5.1778 3.85876C5.00991 2.6513 5.24482 2.44979 5.78141 2.44979H5.84819V1.1083H0.414062V2.44979H0.682595C1.25281 2.44979 1.2862 2.6513 1.42047 3.85876L3.83561 27.407H7.32442L8.69976 15.2972L10.1085 27.407H13.5637ZM36.6765 11.9768C36.6765 10.3332 36.6765 9.7627 37.7163 9.7627C38.4208 9.7627 38.4208 10.031 38.4208 11.4063V25.4615C38.4208 25.9649 38.2529 26.0653 37.9846 26.0653H37.8172V27.4068H43.2177V26.0653H42.9828C42.6141 26.0653 42.5134 25.9308 42.5134 25.3942V10.6687C42.5134 8.25309 42.0102 7.3137 39.6285 7.3137C38.2529 7.3137 37.2469 7.74989 36.6095 9.25903C36.3407 7.91754 35.6365 7.3137 33.7918 7.3137C32.2822 7.3137 31.477 7.78351 30.8734 9.25903V7.3137L26.2442 7.68287V9.02436H26.4452C26.7471 9.02436 26.9818 9.25903 26.9818 9.99761V25.2934C26.9818 25.8972 26.8478 26.0653 26.4452 26.0653H26.2442V27.4068H31.41V26.0653H31.209C30.9404 26.0653 30.8734 25.9647 30.8734 25.5619V11.9768C30.8734 10.3332 30.8396 9.7627 31.8794 9.7627C32.5838 9.7627 32.5838 10.031 32.5838 11.4063V25.4615C32.5838 25.9649 32.4162 26.0653 32.1813 26.0653H31.9466V27.4068H37.2469V26.0653H37.1797C36.811 26.0653 36.6765 25.9308 36.6765 25.3942V11.9768ZM74.4149 27.407H80.8895V26.0656H80.4529C79.8829 26.0656 79.7152 25.8304 79.7152 24.6566V14.526H83.1368V24.6564C83.1368 25.8302 82.9691 26.0653 82.4323 26.0653H81.9289V27.4068H88.3696V26.0653H87.8333C87.2623 26.0653 87.1622 25.8302 87.1622 24.6564V3.85876C87.1622 2.6513 87.2623 2.44979 87.8333 2.44979H88.3696V1.1083H81.9289V2.44979H82.4323C82.9691 2.44979 83.1368 2.6513 83.1368 3.85876V12.9489H79.7152V3.85876C79.7152 2.6513 79.8829 2.44979 80.4529 2.44979H80.8895V1.1083H74.4149V2.44979H74.9853C75.5222 2.44979 75.6898 2.6513 75.6898 3.85876V25.327C75.6898 25.8974 75.5222 26.0656 74.9853 26.0656H74.4149V27.407ZM123.324 27.407H128.457V26.0656H128.289C127.954 26.0656 127.92 25.9649 127.92 25.5621V11.9768C127.92 10.3332 127.954 9.7627 128.993 9.7627C129.765 9.7627 129.765 10.031 129.765 11.4063V25.4615C129.765 25.9649 129.631 26.0653 129.396 26.0653H129.161V27.4068H134.595V26.0653H134.361C133.992 26.0653 133.925 25.9308 133.925 25.3942V10.6687C133.925 8.25309 133.321 7.3137 130.972 7.3137C129.43 7.3137 128.558 7.78351 127.92 9.25903V0.705505L122.989 1.1083V2.44979H123.493C123.827 2.44979 124.029 2.6513 124.029 3.38942V25.2934C124.029 25.8972 123.928 26.0653 123.493 26.0653H123.324V27.407ZM20.8093 27.6417C25.1035 27.6417 25.7071 24.0525 25.7071 17.4777C25.7071 10.8698 25.0696 7.3137 20.8093 7.3137C16.5495 7.3137 15.9123 10.8698 15.9123 17.4777C15.912 24.0525 16.5159 27.6417 20.8093 27.6417ZM53.3149 27.407H58.4807V26.0656H58.2456C57.9444 26.0656 57.9444 25.9649 57.9444 25.5621V11.9768C57.9444 10.3332 57.9444 9.7627 59.0171 9.7627C59.7552 9.7627 59.7891 10.031 59.7891 11.4063V25.4615C59.7891 25.9649 59.588 26.0653 59.3863 26.0653H59.1511V27.4068H64.5857V26.0653H64.351C63.9819 26.0653 63.8817 25.9308 63.8817 25.3942V10.6687C63.8817 8.25309 63.3112 7.3137 60.929 7.3137C59.4204 7.3137 58.5141 7.78351 57.9444 9.25903V7.3137L52.9793 7.68287V9.02436H53.5162C53.8183 9.02436 54.0525 9.25903 54.0525 9.99761V25.2934C54.0525 25.8972 53.919 26.0653 53.5162 26.0653H53.3151V27.407H53.3149ZM100.916 27.6417C102.694 27.6417 103.364 26.77 103.733 25.7298C104.068 27.2728 104.438 27.6417 106.45 27.6417C108.798 27.6417 109.1 26.2332 109.067 23.4823H107.96C107.96 25.4617 107.926 25.6628 107.557 25.6628C107.222 25.6628 107.222 25.4951 107.222 24.3878V11.3393C107.222 8.68928 106.35 7.31393 103.264 7.31393C100.815 7.31393 98.3996 8.05205 98.5334 10.7019C98.6009 11.9098 99.0707 13.1843 100.345 13.117C101.519 13.05 102.056 12.413 102.056 11.4397C102.056 10.7691 101.552 9.66183 100.748 9.05798C101.05 8.92395 101.519 8.78922 102.291 8.78922C103.163 8.78922 103.331 9.46031 103.331 10.735V14.3912C98.8692 15.9008 97.93 16.5047 97.93 22.1067C97.93 26.1326 98.9033 27.6417 100.916 27.6417ZM93.234 27.6417C96.5545 27.6417 97.326 26.6355 97.1583 21.1344H95.7827C95.7827 25.4951 95.6487 25.8304 94.1059 25.8304C92.261 25.8304 92.261 25.0253 92.261 17.5454V16.9411H97.6274C97.6274 9.394 96.7894 7.31417 93.2335 7.31417C90.0133 7.31417 88.336 9.2936 88.336 17.6122C88.3365 25.5285 89.6109 27.6756 93.234 27.6417ZM48.6518 27.6417C51.9062 27.6417 52.8117 26.6355 52.6772 21.1344H51.3026C51.3026 25.4951 51.1013 25.8304 49.5244 25.8304C47.5452 25.8304 47.6459 25.0253 47.6459 17.5454V16.9411H52.8453C52.8453 9.394 52.1411 7.31417 48.652 7.31417C45.3988 7.31417 43.7213 9.2936 43.7213 17.6122C43.7211 25.5285 44.9956 27.6756 48.6518 27.6417ZM109.806 27.407H115.173V26.0656H114.77C114.434 26.0656 114.3 25.8974 114.3 25.3611V0.705505L109.302 1.1083V2.44979H109.873C110.208 2.44979 110.342 2.58382 110.342 3.12088V25.4281C110.342 25.9311 110.308 26.0656 110.074 26.0656H109.805V27.407H109.806ZM70.6242 27.6417C73.0734 27.6417 74.3483 26.0315 74.3483 23.6168C74.3483 17.9478 69.2157 14.6602 69.2157 10.6012C69.2157 9.3599 69.6519 8.99097 70.524 8.99097C71.7985 8.99097 72 9.5278 72.2347 11.4397L72.4355 13.318H73.9115V7.48136H72.7381C72.6706 8.21994 72.5034 8.488 72.4355 8.38712C72.0672 7.95117 71.1946 7.31393 69.7525 7.31393C67.6054 7.31393 65.7271 8.28672 65.7271 11.4734C65.7271 16.4379 70.8259 20.2286 70.8259 24.0191C70.8259 25.6628 70.4572 25.9311 69.2829 25.9311C68.1091 25.9311 67.8074 25.3947 67.5727 22.9123L67.4046 21.2682H65.8616V27.407H67.2031C67.3042 26.736 67.5393 26.3002 67.7399 26.5013C68.1759 27.0047 68.6452 27.6417 70.6242 27.6417ZM116.179 23.2479C116.179 26.4343 116.649 27.6417 119.802 27.6417C122.016 27.6417 122.519 26.7701 122.519 24.3213V20.9999H121.177V24.4889C121.177 25.6628 121.076 25.7968 120.641 25.7968C120.205 25.7968 120.104 25.6628 120.104 24.623V8.99097H122.553V7.48136H120.138V2.44979H118.762C117.789 6.91161 116.951 7.48136 115.643 7.48136H115.274V8.95734H116.179L116.179 23.2479ZM20.8093 25.9308C19.8706 25.9308 19.8707 25.3945 19.8707 17.4777C19.8707 9.5278 19.8706 8.99097 20.8093 8.99097C21.7487 8.99097 21.7487 9.5278 21.7487 17.4777C21.7487 25.4281 21.7487 25.9308 20.8093 25.9308ZM65.056 8.32058C68.4101 5.83771 69.0814 3.9594 67.9741 2.24874C67.3703 1.30958 65.9947 0.70574 64.9885 1.54426C63.7806 2.55043 64.0828 4.29518 66.3305 5.30159C65.9277 5.77093 64.9885 6.67717 64.217 7.44867L65.056 8.32058ZM102.526 25.2934C101.721 25.2934 101.721 24.4553 101.721 21.8053C101.721 16.9747 101.721 16.3373 103.331 15.4651V23.7506C103.331 24.9917 103.163 25.2934 102.526 25.2934ZM47.6456 15.5324C47.7126 9.25926 47.8135 8.95758 48.6857 8.95758C49.5242 8.95758 49.4574 9.29336 49.4574 15.5324H47.6456ZM92.2615 15.5324C92.3621 9.25926 92.4291 8.95758 93.3013 8.95758C94.1734 8.95758 94.0389 9.29336 94.0389 15.5324H92.2615Z" fill="#212428"/>
</svg>
