<svg width="137" height="28" viewBox="0 0 137 28" fill="none" xmlns="http://www.w3.org/2000/svg">
<path d="M14.5637 27.4071L16.9452 3.85882C17.0792 2.65137 17.3141 2.44985 17.7167 2.44985H17.9514V1.10836H14.0939V2.44985H14.3288C14.8654 2.44985 15.1337 2.81902 15.0666 3.85882L13.6913 17.9476L12.1149 3.85882C11.9804 2.75201 12.2487 2.44985 12.853 2.44985H12.9198V1.10836H7.55268V2.44985H7.82145C8.32465 2.44985 8.32465 2.65137 8.42529 3.85882L8.82785 7.4485L7.5863 18.8534L6.1778 3.85882C6.00991 2.65137 6.24482 2.44985 6.78141 2.44985H6.84819V1.10836H1.41406V2.44985H1.68259C2.25281 2.44985 2.2862 2.65137 2.42047 3.85882L4.83561 27.4071H8.32442L9.69976 15.2973L11.1085 27.4071H14.5637ZM37.6765 11.9769C37.6765 10.3332 37.6765 9.76276 38.7163 9.76276C39.4208 9.76276 39.4208 10.0311 39.4208 11.4064V25.4615C39.4208 25.965 39.2529 26.0654 38.9846 26.0654H38.8172V27.4069H44.2177V26.0654H43.9828C43.6141 26.0654 43.5134 25.9309 43.5134 25.3943V10.6688C43.5134 8.25315 43.0102 7.31376 40.6285 7.31376C39.2529 7.31376 38.2469 7.74995 37.6095 9.25909C37.3407 7.9176 36.6365 7.31376 34.7918 7.31376C33.2822 7.31376 32.477 7.78357 31.8734 9.25909V7.31376L27.2442 7.68293V9.02442H27.4452C27.7471 9.02442 27.9818 9.25909 27.9818 9.99767V25.2934C27.9818 25.8973 27.8478 26.0654 27.4452 26.0654H27.2442V27.4069H32.41V26.0654H32.209C31.9404 26.0654 31.8734 25.9648 31.8734 25.562V11.9769C31.8734 10.3332 31.8396 9.76276 32.8794 9.76276C33.5838 9.76276 33.5838 10.0311 33.5838 11.4064V25.4615C33.5838 25.965 33.4162 26.0654 33.1813 26.0654H32.9466V27.4069H38.2469V26.0654H38.1797C37.811 26.0654 37.6765 25.9309 37.6765 25.3943V11.9769ZM75.4149 27.4071H81.8895V26.0656H81.4529C80.8829 26.0656 80.7152 25.8305 80.7152 24.6567V14.526H84.1368V24.6564C84.1368 25.8302 83.9691 26.0654 83.4323 26.0654H82.9289V27.4069H89.3696V26.0654H88.8333C88.2623 26.0654 88.1622 25.8302 88.1622 24.6564V3.85882C88.1622 2.65137 88.2623 2.44985 88.8333 2.44985H89.3696V1.10836H82.9289V2.44985H83.4323C83.9691 2.44985 84.1368 2.65137 84.1368 3.85882V12.9489H80.7152V3.85882C80.7152 2.65137 80.8829 2.44985 81.4529 2.44985H81.8895V1.10836H75.4149V2.44985H75.9853C76.5222 2.44985 76.6898 2.65137 76.6898 3.85882V25.327C76.6898 25.8975 76.5222 26.0656 75.9853 26.0656H75.4149V27.4071ZM124.324 27.4071H129.457V26.0656H129.289C128.954 26.0656 128.92 25.965 128.92 25.5622V11.9769C128.92 10.3332 128.954 9.76276 129.993 9.76276C130.765 9.76276 130.765 10.0311 130.765 11.4064V25.4615C130.765 25.965 130.631 26.0654 130.396 26.0654H130.161V27.4069H135.595V26.0654H135.361C134.992 26.0654 134.925 25.9309 134.925 25.3943V10.6688C134.925 8.25315 134.321 7.31376 131.972 7.31376C130.43 7.31376 129.558 7.78357 128.92 9.25909V0.705566L123.989 1.10836V2.44985H124.493C124.827 2.44985 125.029 2.65137 125.029 3.38948V25.2934C125.029 25.8973 124.928 26.0654 124.493 26.0654H124.324V27.4071ZM21.8093 27.6418C26.1035 27.6418 26.7071 24.0526 26.7071 17.4778C26.7071 10.8698 26.0696 7.31376 21.8093 7.31376C17.5495 7.31376 16.9123 10.8698 16.9123 17.4778C16.912 24.0526 17.5159 27.6418 21.8093 27.6418ZM54.3149 27.4071H59.4807V26.0656H59.2456C58.9444 26.0656 58.9444 25.965 58.9444 25.5622V11.9769C58.9444 10.3332 58.9444 9.76276 60.0171 9.76276C60.7552 9.76276 60.7891 10.0311 60.7891 11.4064V25.4615C60.7891 25.965 60.588 26.0654 60.3863 26.0654H60.1511V27.4069H65.5857V26.0654H65.351C64.9819 26.0654 64.8817 25.9309 64.8817 25.3943V10.6688C64.8817 8.25315 64.3112 7.31376 61.929 7.31376C60.4204 7.31376 59.5141 7.78357 58.9444 9.25909V7.31376L53.9793 7.68293V9.02442H54.5162C54.8183 9.02442 55.0525 9.25909 55.0525 9.99767V25.2934C55.0525 25.8973 54.919 26.0654 54.5162 26.0654H54.3151V27.4071H54.3149ZM101.916 27.6418C103.694 27.6418 104.364 26.7701 104.733 25.7298C105.068 27.2728 105.438 27.6418 107.45 27.6418C109.798 27.6418 110.1 26.2333 110.067 23.4824H108.96C108.96 25.4618 108.926 25.6628 108.557 25.6628C108.222 25.6628 108.222 25.4952 108.222 24.3879V11.3394C108.222 8.68934 107.35 7.314 104.264 7.314C101.815 7.314 99.3996 8.05211 99.5334 10.7019C99.6009 11.9098 100.071 13.1843 101.345 13.1171C102.519 13.05 103.056 12.413 103.056 11.4398C103.056 10.7692 102.552 9.66189 101.748 9.05804C102.05 8.92401 102.519 8.78928 103.291 8.78928C104.163 8.78928 104.331 9.46037 104.331 10.7351V14.3913C99.8692 15.9009 98.93 16.5048 98.93 22.1068C98.93 26.1326 99.9033 27.6418 101.916 27.6418ZM94.234 27.6418C97.5545 27.6418 98.326 26.6356 98.1583 21.1345H96.7827C96.7827 25.4952 96.6487 25.8305 95.1059 25.8305C93.261 25.8305 93.261 25.0254 93.261 17.5455V16.9412H98.6274C98.6274 9.39406 97.7894 7.31423 94.2335 7.31423C91.0133 7.31423 89.336 9.29366 89.336 17.6123C89.3365 25.5286 90.6109 27.6756 94.234 27.6418ZM49.6518 27.6418C52.9062 27.6418 53.8117 26.6356 53.6772 21.1345H52.3026C52.3026 25.4952 52.1013 25.8305 50.5244 25.8305C48.5452 25.8305 48.6459 25.0254 48.6459 17.5455V16.9412H53.8453C53.8453 9.39406 53.1411 7.31423 49.652 7.31423C46.3988 7.31423 44.7213 9.29366 44.7213 17.6123C44.7211 25.5286 45.9956 27.6756 49.6518 27.6418ZM110.806 27.4071H116.173V26.0656H115.77C115.434 26.0656 115.3 25.8975 115.3 25.3611V0.705566L110.302 1.10836V2.44985H110.873C111.208 2.44985 111.342 2.58388 111.342 3.12094V25.4282C111.342 25.9311 111.308 26.0656 111.074 26.0656H110.805V27.4071H110.806ZM71.6242 27.6418C74.0734 27.6418 75.3483 26.0315 75.3483 23.6169C75.3483 17.9478 70.2157 14.6603 70.2157 10.6013C70.2157 9.35997 70.6519 8.99103 71.524 8.99103C72.7985 8.99103 73 9.52786 73.2347 11.4398L73.4355 13.3181H74.9115V7.48142H73.7381C73.6706 8.22 73.5034 8.48806 73.4355 8.38718C73.0672 7.95123 72.1946 7.314 70.7525 7.314C68.6054 7.314 66.7271 8.28678 66.7271 11.4734C66.7271 16.438 71.8259 20.2287 71.8259 24.0192C71.8259 25.6628 71.4572 25.9311 70.2829 25.9311C69.1091 25.9311 68.8074 25.3948 68.5727 22.9124L68.4046 21.2683H66.8616V27.4071H68.2031C68.3042 26.736 68.5393 26.3003 68.7399 26.5013C69.1759 27.0048 69.6452 27.6418 71.6242 27.6418ZM117.179 23.2479C117.179 26.4343 117.649 27.6418 120.802 27.6418C123.016 27.6418 123.519 26.7701 123.519 24.3213V21H122.177V24.489C122.177 25.6628 122.076 25.7969 121.641 25.7969C121.205 25.7969 121.104 25.6628 121.104 24.623V8.99103H123.553V7.48142H121.138V2.44985H119.762C118.789 6.91167 117.951 7.48142 116.643 7.48142H116.274V8.9574H117.179L117.179 23.2479ZM21.8093 25.9309C20.8706 25.9309 20.8707 25.3945 20.8707 17.4778C20.8707 9.52786 20.8706 8.99103 21.8093 8.99103C22.7487 8.99103 22.7487 9.52786 22.7487 17.4778C22.7487 25.4282 22.7487 25.9309 21.8093 25.9309ZM66.056 8.32064C69.4101 5.83777 70.0814 3.95946 68.9741 2.2488C68.3703 1.30965 66.9947 0.705802 65.9885 1.54432C64.7806 2.55049 65.0828 4.29524 67.3305 5.30165C66.9277 5.77099 65.9885 6.67723 65.217 7.44873L66.056 8.32064ZM103.526 25.2934C102.721 25.2934 102.721 24.4554 102.721 21.8053C102.721 16.9748 102.721 16.3373 104.331 15.4652V23.7507C104.331 24.9917 104.163 25.2934 103.526 25.2934ZM48.6456 15.5324C48.7126 9.25933 48.8135 8.95764 49.6857 8.95764C50.5242 8.95764 50.4574 9.29342 50.4574 15.5324H48.6456ZM93.2615 15.5324C93.3621 9.25933 93.4291 8.95764 94.3013 8.95764C95.1734 8.95764 95.0389 9.29342 95.0389 15.5324H93.2615Z" fill="#B5B6B7"/>
</svg>
