<svg version="1.1" id="Layer_1" xmlns="http://www.w3.org/2000/svg" xmlns:xlink="http://www.w3.org/1999/xlink" x="0px" y="0px"
	 width="70" height="20" style="border-radius:50px;" viewBox="180 200 1650 300" enable-background="new 0 0 2000 697" xml:space="preserve">
<path fill="#B2FCE4" opacity="1" stroke="non0e" 
	d="
M1685.000000,698.000000 
	C1229.638672,698.000000 774.277283,698.000000 318.252075,697.631470 
	C312.665344,696.809021 307.663422,696.762085 302.834442,695.824463 
	C288.751282,693.089722 274.715271,690.099243 260.700867,687.026184 
	C235.347183,681.466675 211.584808,671.485535 188.627487,659.728943 
	C162.426682,646.311279 138.327911,629.504883 116.532135,609.773071 
	C97.288094,592.351440 79.517326,573.369629 65.001755,551.688293 
	C57.019321,539.765198 49.193634,527.682373 42.205299,515.164612 
	C35.852142,503.784607 29.904404,492.032135 25.274464,479.873993 
	C19.781094,465.448517 15.116825,450.598663 11.515217,435.591492 
	C7.786524,420.054718 5.761469,404.109100 2.991426,388.342285 
	C2.327207,384.561584 1.663785,380.780762 0.999997,377.000000 
	C1.000000,358.971954 1.000000,340.943939 1.370356,322.248962 
	C4.496788,303.968201 6.333978,286.145782 10.270381,268.799774 
	C14.117722,251.846237 19.267729,235.061142 25.422480,218.798798 
	C30.305424,205.896896 37.536327,193.879333 43.784924,181.499496 
	C56.044395,157.210846 72.191414,135.539001 90.285484,115.462662 
	C112.000893,91.368240 136.594589,70.390030 164.285110,53.318890 
	C173.723785,47.499969 183.598022,42.358345 193.450165,37.248390 
	C201.709839,32.964390 209.975677,28.483431 218.686890,25.325987 
	C233.057739,20.117180 247.653687,15.398023 262.412811,11.433125 
	C274.364655,8.222381 286.679962,6.339181 298.865784,4.035168 
	C305.208405,2.835950 311.619720,2.000027 318.000000,1.000000 
	C773.361389,1.000000 1228.722778,1.000000 1684.744507,1.366658 
	C1696.958374,3.181086 1708.668335,3.884487 1720.024170,6.272443 
	C1733.063843,9.014542 1745.780151,13.283154 1758.653809,16.827641 
	C1781.826782,23.207825 1803.252075,33.616276 1824.264160,45.034092 
	C1848.767212,58.348862 1870.665894,75.260574 1891.251709,93.876221 
	C1908.325684,109.315956 1923.522095,126.656975 1936.540039,145.558807 
	C1947.135010,160.942383 1956.393433,177.335938 1965.201050,193.838562 
	C1976.520752,215.048508 1985.289673,237.391693 1990.435913,260.985962 
	C1993.145020,273.407166 1995.541260,285.897369 1998.005615,298.370850 
	C1999.097046,303.895447 2000.007446,309.455872 2001.000000,315.000000 
	C2001.000000,337.694702 2001.000000,360.389404 2000.633301,383.744568 
	C1999.180664,392.029633 1998.379517,399.708313 1996.944946,407.266754 
	C1994.482788,420.239777 1992.102173,433.261963 1988.778076,446.026764 
	C1986.238037,455.781311 1982.919434,465.447144 1978.839233,474.661865 
	C1971.321289,491.639923 1963.630981,508.605835 1954.782715,524.909424 
	C1948.260620,536.927002 1940.187256,548.180725 1932.056885,559.223999 
	C1924.764648,569.128601 1917.121094,578.953918 1908.430664,587.607239 
	C1895.621460,600.362000 1881.912720,612.237000 1868.279785,624.134644 
	C1852.654053,637.771484 1834.964844,648.404358 1816.683472,658.049377 
	C1798.285400,667.755981 1779.276489,675.915527 1759.360840,682.171814 
	C1740.598755,688.065735 1721.675293,692.744202 1702.146118,695.059570 
	C1696.395386,695.741394 1690.713501,697.003723 1685.000000,698.000000 
M1577.851929,395.705383 
	C1592.261841,401.321411 1606.045410,400.412964 1619.565552,392.544098 
	C1647.205566,376.457367 1675.039307,360.703461 1702.727051,344.698212 
	C1706.738525,342.379395 1710.788818,339.857300 1714.134888,336.701752 
	C1735.583374,316.474121 1731.897705,281.737640 1706.286011,266.540131 
	C1677.497192,249.457397 1648.271729,233.110535 1619.244263,216.429581 
	C1603.396362,207.322403 1587.438599,207.050659 1571.921875,216.762573 
	C1556.435547,226.455536 1550.689819,241.299820 1551.390625,259.066895 
	C1551.546509,263.017975 1553.103149,266.033813 1556.705200,268.031647 
	C1563.113403,271.585815 1569.361206,275.430725 1575.790283,278.945129 
	C1582.764038,282.757263 1589.035156,279.247925 1589.476685,271.348358 
	C1589.717773,267.036163 1589.425171,262.687714 1589.784302,258.389954 
	C1590.430908,250.655014 1596.480103,247.587936 1603.322998,251.425201 
	C1610.150757,255.253830 1616.900635,259.220825 1623.692627,263.113159 
	C1642.911499,274.126801 1662.149780,285.106567 1681.348145,296.155701 
	C1689.113037,300.624573 1689.783936,308.031158 1682.638550,312.169373 
	C1656.117676,327.528625 1629.534424,342.780884 1602.901489,357.944977 
	C1596.455811,361.614960 1590.363403,358.193512 1589.638916,350.822571 
	C1589.509644,349.507507 1589.600220,348.164093 1589.665894,346.837585 
	C1591.363892,312.562775 1555.754150,288.751465 1525.510498,304.944946 
	C1494.250732,321.682434 1463.501465,339.456238 1433.211060,357.897064 
	C1405.451172,374.797394 1406.372925,416.128174 1434.401611,432.627563 
	C1463.969116,450.032745 1493.771606,467.046875 1523.675415,483.869263 
	C1539.277832,492.646332 1555.109375,491.827698 1570.035522,482.009979 
	C1584.946899,472.201996 1590.425415,457.656342 1589.627930,440.256287 
	C1589.431152,435.962311 1587.589844,433.088867 1583.907471,431.038483 
	C1577.796143,427.635651 1571.776123,424.068512 1565.714844,420.575775 
	C1558.655518,416.507996 1551.695190,420.339172 1551.409180,428.527069 
	C1551.269531,432.522095 1551.483276,436.529175 1551.354858,440.524933 
	C1551.108887,448.174469 1544.875366,451.906036 1538.189453,448.105408 
	C1511.545532,432.959595 1484.957520,417.714264 1458.442749,402.343628 
	C1451.759155,398.469086 1451.826538,391.052032 1458.562378,387.145020 
	C1485.071777,371.768494 1511.654297,356.517365 1538.275146,341.334534 
	C1544.687988,337.677063 1550.911011,341.277466 1551.350220,348.623138 
	C1551.459473,350.450104 1551.351685,352.289001 1551.385620,354.121674 
	C1551.734985,373.024078 1560.212646,386.845703 1577.851929,395.705383 
M480.663605,223.164948 
	C473.750061,229.662872 471.500824,238.180405 471.037628,247.134323 
	C470.577515,256.028748 470.936890,264.965546 470.936890,274.443542 
	C463.361908,274.443542 456.618530,274.443542 449.777344,274.443542 
	C449.777344,285.732941 449.777344,296.444946 449.777344,307.776184 
	C456.848907,307.776184 463.576782,307.776184 470.610657,307.776184 
	C470.610657,347.188049 470.610657,385.976349 470.610657,424.809998 
	C483.505646,424.809998 496.048431,424.809998 509.087341,424.809998 
	C509.087341,385.532135 509.087341,346.635834 509.087341,307.874756 
	C525.343323,307.874756 541.095947,307.874756 557.212769,307.874756 
	C557.212769,310.011566 557.212769,311.812836 557.212769,313.614105 
	C557.212769,336.612091 557.167664,359.610260 557.254150,382.607910 
	C557.269775,386.758728 557.575134,390.944305 558.176819,395.050781 
	C560.577698,411.437195 569.380371,421.449799 585.013062,423.655823 
	C596.273254,425.244751 607.782227,425.070526 619.350952,425.691925 
	C619.350952,413.715698 619.350952,402.821655 619.350952,391.463043 
	C616.909119,391.463043 614.776733,391.483826 612.644897,391.459656 
	C599.455688,391.309967 595.612976,387.475098 595.608582,374.439026 
	C595.601562,353.940826 595.606689,333.442596 595.606628,312.944397 
	C595.606628,311.198914 595.606567,309.453430 595.606567,307.331299 
	C603.875366,307.331299 611.331787,307.331299 618.749756,307.331299 
	C618.749756,296.213043 618.749756,285.483673 618.749756,274.325745 
	C610.968445,274.325745 603.537231,274.325745 595.568665,274.325745 
	C595.568665,262.003693 595.568665,250.107910 595.568665,238.041077 
	C582.586670,238.041077 570.158264,238.041077 557.160400,238.041077 
	C557.160400,250.162628 557.160400,262.063751 557.160400,274.123199 
	C540.847351,274.123199 525.104980,274.123199 508.928101,274.123199 
	C508.928101,268.418884 508.754547,262.955200 508.966064,257.506470 
	C509.346588,247.704376 513.604065,243.383942 523.502075,242.709000 
	C527.257751,242.452911 531.045471,242.667404 534.782166,242.667404 
	C534.782166,232.409714 534.782166,222.845535 534.782166,213.160904 
	C525.774963,213.160904 517.107910,212.754272 508.495758,213.267960 
	C498.625549,213.856659 488.909302,215.564682 480.663605,223.164948 
M948.195679,450.500061 
	C948.195679,436.765411 948.195679,423.030792 948.195679,408.498810 
	C950.352600,410.448822 951.878174,411.887146 953.465515,413.253601 
	C965.399841,423.527313 979.483826,428.422638 994.969727,427.580231 
	C1027.330444,425.819794 1049.620483,409.272919 1061.460083,379.219513 
	C1074.820312,345.306152 1063.603394,305.414886 1035.462036,284.926117 
	C1008.977478,265.643402 971.693298,267.797272 950.169067,289.844238 
	C949.322998,290.710846 948.395996,291.498444 946.758545,293.016510 
	C946.758545,286.251892 946.758545,280.510773 946.758545,274.721191 
	C934.236023,274.721191 922.166748,274.721191 910.106934,274.721191 
	C910.106934,345.445984 910.106934,415.839600 910.106934,486.273560 
	C922.857056,486.273560 935.270996,486.273560 948.195679,486.273560 
	C948.195679,474.460388 948.195679,462.980255 948.195679,450.500061 
M309.140259,283.649414 
	C266.046631,313.361969 263.518768,381.014771 304.267853,412.933014 
	C329.166382,432.435669 369.456543,433.848724 392.750397,408.802246 
	C393.248352,408.266785 393.924744,407.897308 395.325195,406.842102 
	C395.325195,413.498901 395.325195,419.220245 395.325195,424.952667 
	C407.995880,424.952667 420.107605,424.952667 432.471680,424.952667 
	C432.471680,374.813110 432.471680,324.910706 432.471680,274.710419 
	C420.046539,274.710419 407.824371,274.710419 394.993683,274.710419 
	C394.993683,280.524109 394.993683,286.034729 394.993683,292.030731 
	C391.373169,288.929230 388.500763,286.162109 385.327240,283.799469 
	C363.899689,267.846985 334.884552,267.671143 309.140259,283.649414 
M1098.053711,402.435822 
	C1130.290161,434.735443 1164.180176,436.561157 1200.051758,407.776184 
	C1200.051758,413.558472 1200.051758,419.166992 1200.051758,424.927551 
	C1212.454468,424.927551 1224.525879,424.927551 1236.811890,424.927551 
	C1236.811890,374.762878 1236.811890,324.858734 1236.811890,274.672058 
	C1224.502563,274.672058 1212.421753,274.672058 1199.766357,274.672058 
	C1199.766357,280.445648 1199.766357,285.974030 1199.766357,291.961456 
	C1198.743286,291.308533 1198.276611,291.125580 1197.965454,290.795898 
	C1174.029907,265.431885 1135.434082,266.876923 1110.016968,286.333893 
	C1075.347778,312.873260 1069.681885,365.947937 1098.053711,402.435822 
M743.078064,421.604614 
	C764.377625,412.818848 778.548279,397.624817 785.351685,374.869354 
	C772.599121,374.869354 760.452881,374.773804 748.312561,374.998627 
	C746.904114,375.024750 745.171875,376.557159 744.192017,377.848236 
	C732.196777,393.652985 711.156555,398.930328 693.151245,390.524506 
	C681.450256,385.061859 672.214905,371.073761 673.225342,359.680603 
	C711.223022,359.680603 749.276123,359.680603 787.584595,359.680603 
	C790.112732,333.084320 783.855896,309.713837 764.125305,291.992950 
	C738.635132,269.099152 708.664551,265.717651 677.854187,278.722595 
	C647.434631,291.562592 633.336487,316.653290 632.688843,349.211609 
	C631.998108,383.937866 650.309631,411.877045 680.670959,422.612152 
	C701.207703,429.873505 721.878784,429.198334 743.078064,421.604614 
M1330.652222,457.236237 
	C1360.039062,396.529114 1389.426025,335.821960 1419.165894,274.385834 
	C1405.525391,274.385834 1392.895264,274.507416 1380.270386,274.301758 
	C1377.046875,274.249237 1375.647949,275.487396 1374.360718,278.237946 
	C1365.896362,296.325195 1357.260376,314.332275 1348.667358,332.359192 
	C1343.994873,342.161346 1339.296387,351.951111 1334.192871,362.617310 
	C1332.838501,359.609283 1331.877686,357.531189 1330.962036,355.433411 
	C1319.843262,329.959167 1308.658936,304.512970 1297.703735,278.968567 
	C1296.242554,275.561737 1294.597778,274.197357 1290.781860,274.288025 
	C1279.294189,274.560822 1267.795776,274.375549 1256.301636,274.401245 
	C1254.910522,274.404358 1253.520020,274.605072 1251.617065,274.754364 
	C1252.832275,277.428009 1253.786377,279.524994 1254.738647,281.622681 
	C1273.108887,322.086975 1291.451416,362.563904 1309.905273,402.989990 
	C1311.271118,405.982178 1311.311035,408.374481 1309.833374,411.383301 
	C1298.241211,434.988190 1286.826538,458.680298 1275.380005,482.356537 
	C1274.785400,483.586243 1274.396729,484.915588 1273.755127,486.613953 
	C1287.518433,486.613953 1300.508911,486.713470 1313.493164,486.477020 
	C1314.970703,486.450073 1317.040405,484.860168 1317.770020,483.445435 
	C1322.117676,475.016479 1326.152222,466.426086 1330.652222,457.236237 
M806.031799,357.500000 
	C806.031799,379.924347 806.031799,402.348694 806.031799,424.897644 
	C819.135071,424.897644 831.691589,424.897644 844.673401,424.897644 
	C844.673401,422.810486 844.673462,421.012848 844.673462,419.215210 
	C844.673096,391.740082 844.594055,364.264679 844.695557,336.789948 
	C844.788086,311.757782 861.429871,300.765350 884.491028,310.357483 
	C885.718506,310.868042 886.903076,311.481628 888.128845,311.996674 
	C889.257874,312.471069 890.415588,312.877289 891.977173,313.472229 
	C891.977173,301.236115 892.106995,289.591003 891.810852,277.956726 
	C891.774353,276.521637 889.706665,274.310455 888.173950,273.868805 
	C872.122498,269.242950 857.902954,272.223267 846.283569,284.790375 
	C845.555176,285.578094 845.208557,286.718781 844.684326,287.695251 
	C844.165466,287.392059 843.646545,287.088867 843.127686,286.785706 
	C843.127686,282.759338 843.127686,278.733002 843.127686,274.747131 
	C830.440918,274.747131 818.374390,274.747131 806.031799,274.747131 
	C806.031799,302.239380 806.031799,329.369690 806.031799,357.500000 
z"/>
<path fill="#fff" opacity="0" stroke="none" 
	d="
M0.999997,377.468658 
	C1.663785,380.780762 2.327207,384.561584 2.991426,388.342285 
	C5.761469,404.109100 7.786524,420.054718 11.515217,435.591492 
	C15.116825,450.598663 19.781094,465.448517 25.274464,479.873993 
	C29.904404,492.032135 35.852142,503.784607 42.205299,515.164612 
	C49.193634,527.682373 57.019321,539.765198 65.001755,551.688293 
	C79.517326,573.369629 97.288094,592.351440 116.532135,609.773071 
	C138.327911,629.504883 162.426682,646.311279 188.627487,659.728943 
	C211.584808,671.485535 235.347183,681.466675 260.700867,687.026184 
	C274.715271,690.099243 288.751282,693.089722 302.834442,695.824463 
	C307.663422,696.762085 312.665344,696.809021 317.794128,697.631470 
	C212.405807,698.000000 106.811615,698.000000 1.000000,698.000000 
	C1.000000,591.312561 1.000000,484.624939 0.999997,377.468658 
z"/>
<path fill="#fff" opacity="0" stroke="none" 
	d="
M317.531342,1.000000 
	C311.619720,2.000027 305.208405,2.835950 298.865784,4.035168 
	C286.679962,6.339181 274.364655,8.222381 262.412811,11.433125 
	C247.653687,15.398023 233.057739,20.117180 218.686890,25.325987 
	C209.975677,28.483431 201.709839,32.964390 193.450165,37.248390 
	C183.598022,42.358345 173.723785,47.499969 164.285110,53.318890 
	C136.594589,70.390030 112.000893,91.368240 90.285484,115.462662 
	C72.191414,135.539001 56.044395,157.210846 43.784924,181.499496 
	C37.536327,193.879333 30.305424,205.896896 25.422480,218.798798 
	C19.267729,235.061142 14.117722,251.846237 10.270381,268.799774 
	C6.333978,286.145782 4.496788,303.968201 1.370356,321.791016 
	C1.000000,215.073395 1.000000,108.146774 1.000000,1.000000 
	C106.354126,1.000000 211.708405,1.000000 317.531342,1.000000 
z"/>
<path fill="#fff" opacity="0" stroke="none" 
	d="
M1685.468628,698.000000 
	C1690.713501,697.003723 1696.395386,695.741394 1702.146118,695.059570 
	C1721.675293,692.744202 1740.598755,688.065735 1759.360840,682.171814 
	C1779.276489,675.915527 1798.285400,667.755981 1816.683472,658.049377 
	C1834.964844,648.404358 1852.654053,637.771484 1868.279785,624.134644 
	C1881.912720,612.237000 1895.621460,600.362000 1908.430664,587.607239 
	C1917.121094,578.953918 1924.764648,569.128601 1932.056885,559.223999 
	C1940.187256,548.180725 1948.260620,536.927002 1954.782715,524.909424 
	C1963.630981,508.605835 1971.321289,491.639923 1978.839233,474.661865 
	C1982.919434,465.447144 1986.238037,455.781311 1988.778076,446.026764 
	C1992.102173,433.261963 1994.482788,420.239777 1996.944946,407.266754 
	C1998.379517,399.708313 1999.180664,392.029633 2000.633301,384.202515 
	C2001.000000,488.593964 2001.000000,593.187927 2001.000000,698.000000 
	C1895.979126,698.000000 1790.958252,698.000000 1685.468628,698.000000 
z"/>
<path fill="#fff" opacity="0" stroke="none" 
	d="
M2001.000000,314.531342 
	C2000.007446,309.455872 1999.097046,303.895447 1998.005615,298.370850 
	C1995.541260,285.897369 1993.145020,273.407166 1990.435913,260.985962 
	C1985.289673,237.391693 1976.520752,215.048508 1965.201050,193.838562 
	C1956.393433,177.335938 1947.135010,160.942383 1936.540039,145.558807 
	C1923.522095,126.656975 1908.325684,109.315956 1891.251709,93.876221 
	C1870.665894,75.260574 1848.767212,58.348862 1824.264160,45.034092 
	C1803.252075,33.616276 1781.826782,23.207825 1758.653809,16.827641 
	C1745.780151,13.283154 1733.063843,9.014542 1720.024170,6.272443 
	C1708.668335,3.884487 1696.958374,3.181086 1685.202393,1.366658 
	C1790.260132,1.000000 1895.520264,1.000000 2001.000000,1.000000 
	C2001.000000,105.354126 2001.000000,209.708405 2001.000000,314.531342 
z"/>
<path fill="#020202" opacity="1.000000" stroke="none" 
	d="
M1577.516479,395.529236 
	C1560.212646,386.845703 1551.734985,373.024078 1551.385620,354.121674 
	C1551.351685,352.289001 1551.459473,350.450104 1551.350220,348.623138 
	C1550.911011,341.277466 1544.687988,337.677063 1538.275146,341.334534 
	C1511.654297,356.517365 1485.071777,371.768494 1458.562378,387.145020 
	C1451.826538,391.052032 1451.759155,398.469086 1458.442749,402.343628 
	C1484.957520,417.714264 1511.545532,432.959595 1538.189453,448.105408 
	C1544.875366,451.906036 1551.108887,448.174469 1551.354858,440.524933 
	C1551.483276,436.529175 1551.269531,432.522095 1551.409180,428.527069 
	C1551.695190,420.339172 1558.655518,416.507996 1565.714844,420.575775 
	C1571.776123,424.068512 1577.796143,427.635651 1583.907471,431.038483 
	C1587.589844,433.088867 1589.431152,435.962311 1589.627930,440.256287 
	C1590.425415,457.656342 1584.946899,472.201996 1570.035522,482.009979 
	C1555.109375,491.827698 1539.277832,492.646332 1523.675415,483.869263 
	C1493.771606,467.046875 1463.969116,450.032745 1434.401611,432.627563 
	C1406.372925,416.128174 1405.451172,374.797394 1433.211060,357.897064 
	C1463.501465,339.456238 1494.250732,321.682434 1525.510498,304.944946 
	C1555.754150,288.751465 1591.363892,312.562775 1589.665894,346.837585 
	C1589.600220,348.164093 1589.509644,349.507507 1589.638916,350.822571 
	C1590.363403,358.193512 1596.455811,361.614960 1602.901489,357.944977 
	C1629.534424,342.780884 1656.117676,327.528625 1682.638550,312.169373 
	C1689.783936,308.031158 1689.113037,300.624573 1681.348145,296.155701 
	C1662.149780,285.106567 1642.911499,274.126801 1623.692627,263.113159 
	C1616.900635,259.220825 1610.150757,255.253830 1603.322998,251.425201 
	C1596.480103,247.587936 1590.430908,250.655014 1589.784302,258.389954 
	C1589.425171,262.687714 1589.717773,267.036163 1589.476685,271.348358 
	C1589.035156,279.247925 1582.764038,282.757263 1575.790283,278.945129 
	C1569.361206,275.430725 1563.113403,271.585815 1556.705200,268.031647 
	C1553.103149,266.033813 1551.546509,263.017975 1551.390625,259.066895 
	C1550.689819,241.299820 1556.435547,226.455536 1571.921875,216.762573 
	C1587.438599,207.050659 1603.396362,207.322403 1619.244263,216.429581 
	C1648.271729,233.110535 1677.497192,249.457397 1706.286011,266.540131 
	C1731.897705,281.737640 1735.583374,316.474121 1714.134888,336.701752 
	C1710.788818,339.857300 1706.738525,342.379395 1702.727051,344.698212 
	C1675.039307,360.703461 1647.205566,376.457367 1619.565552,392.544098 
	C1606.045410,400.412964 1592.261841,401.321411 1577.516479,395.529236 
z"/>
<path fill="#030404" opacity="1.000000" stroke="none" 
	d="
M480.916473,222.913330 
	C488.909302,215.564682 498.625549,213.856659 508.495758,213.267960 
	C517.107910,212.754272 525.774963,213.160904 534.782166,213.160904 
	C534.782166,222.845535 534.782166,232.409714 534.782166,242.667404 
	C531.045471,242.667404 527.257751,242.452911 523.502075,242.709000 
	C513.604065,243.383942 509.346588,247.704376 508.966064,257.506470 
	C508.754547,262.955200 508.928101,268.418884 508.928101,274.123199 
	C525.104980,274.123199 540.847351,274.123199 557.160400,274.123199 
	C557.160400,262.063751 557.160400,250.162628 557.160400,238.041077 
	C570.158264,238.041077 582.586670,238.041077 595.568665,238.041077 
	C595.568665,250.107910 595.568665,262.003693 595.568665,274.325745 
	C603.537231,274.325745 610.968445,274.325745 618.749756,274.325745 
	C618.749756,285.483673 618.749756,296.213043 618.749756,307.331299 
	C611.331787,307.331299 603.875366,307.331299 595.606567,307.331299 
	C595.606567,309.453430 595.606628,311.198914 595.606628,312.944397 
	C595.606689,333.442596 595.601562,353.940826 595.608582,374.439026 
	C595.612976,387.475098 599.455688,391.309967 612.644897,391.459656 
	C614.776733,391.483826 616.909119,391.463043 619.350952,391.463043 
	C619.350952,402.821655 619.350952,413.715698 619.350952,425.691925 
	C607.782227,425.070526 596.273254,425.244751 585.013062,423.655823 
	C569.380371,421.449799 560.577698,411.437195 558.176819,395.050781 
	C557.575134,390.944305 557.269775,386.758728 557.254150,382.607910 
	C557.167664,359.610260 557.212769,336.612091 557.212769,313.614105 
	C557.212769,311.812836 557.212769,310.011566 557.212769,307.874756 
	C541.095947,307.874756 525.343323,307.874756 509.087341,307.874756 
	C509.087341,346.635834 509.087341,385.532135 509.087341,424.809998 
	C496.048431,424.809998 483.505646,424.809998 470.610657,424.809998 
	C470.610657,385.976349 470.610657,347.188049 470.610657,307.776184 
	C463.576782,307.776184 456.848907,307.776184 449.777344,307.776184 
	C449.777344,296.444946 449.777344,285.732941 449.777344,274.443542 
	C456.618530,274.443542 463.361908,274.443542 470.936890,274.443542 
	C470.936890,264.965546 470.577515,256.028748 471.037628,247.134323 
	C471.500824,238.180405 473.750061,229.662872 480.916473,222.913330 
z"/>
<path fill="#020202" opacity="1.000000" stroke="none" 
	d="
M948.195679,451.000092 
	C948.195679,462.980255 948.195679,474.460388 948.195679,486.273560 
	C935.270996,486.273560 922.857056,486.273560 910.106934,486.273560 
	C910.106934,415.839600 910.106934,345.445984 910.106934,274.721191 
	C922.166748,274.721191 934.236023,274.721191 946.758545,274.721191 
	C946.758545,280.510773 946.758545,286.251892 946.758545,293.016510 
	C948.395996,291.498444 949.322998,290.710846 950.169067,289.844238 
	C971.693298,267.797272 1008.977478,265.643402 1035.462036,284.926117 
	C1063.603394,305.414886 1074.820312,345.306152 1061.460083,379.219513 
	C1049.620483,409.272919 1027.330444,425.819794 994.969727,427.580231 
	C979.483826,428.422638 965.399841,423.527313 953.465515,413.253601 
	C951.878174,411.887146 950.352600,410.448822 948.195679,408.498810 
	C948.195679,423.030792 948.195679,436.765411 948.195679,451.000092 
M978.817688,308.071228 
	C962.315613,312.533875 952.193970,323.242096 948.378784,339.769196 
	C942.675842,364.473755 958.558594,389.173950 982.025940,392.095551 
	C999.042969,394.214142 1012.725037,387.985992 1021.656738,373.494751 
	C1031.536011,357.466278 1031.331299,340.674194 1020.848267,324.979431 
	C1011.144043,310.450775 996.982056,304.908356 978.817688,308.071228 
z"/>
<path fill="#020303" opacity="1.000000" stroke="none" 
	d="
M309.437347,283.443909 
	C334.884552,267.671143 363.899689,267.846985 385.327240,283.799469 
	C388.500763,286.162109 391.373169,288.929230 394.993683,292.030731 
	C394.993683,286.034729 394.993683,280.524109 394.993683,274.710419 
	C407.824371,274.710419 420.046539,274.710419 432.471680,274.710419 
	C432.471680,324.910706 432.471680,374.813110 432.471680,424.952667 
	C420.107605,424.952667 407.995880,424.952667 395.325195,424.952667 
	C395.325195,419.220245 395.325195,413.498901 395.325195,406.842102 
	C393.924744,407.897308 393.248352,408.266785 392.750397,408.802246 
	C369.456543,433.848724 329.166382,432.435669 304.267853,412.933014 
	C263.518768,381.014771 266.046631,313.361969 309.437347,283.443909 
M344.881195,308.130554 
	C325.790558,313.468048 313.783142,329.144104 313.639923,348.917053 
	C313.494110,369.046173 325.087433,385.779724 342.719910,390.890594 
	C358.991455,395.606995 375.908051,390.139923 386.037933,376.891052 
	C396.903656,362.679840 397.870209,341.625183 388.369507,326.100616 
	C379.515594,311.632904 363.500916,304.825989 344.881195,308.130554 
z"/>
<path fill="#020202" opacity="1.000000" stroke="none" 
	d="
M1097.828125,402.161072 
	C1069.681885,365.947937 1075.347778,312.873260 1110.016968,286.333893 
	C1135.434082,266.876923 1174.029907,265.431885 1197.965454,290.795898 
	C1198.276611,291.125580 1198.743286,291.308533 1199.766357,291.961456 
	C1199.766357,285.974030 1199.766357,280.445648 1199.766357,274.672058 
	C1212.421753,274.672058 1224.502563,274.672058 1236.811890,274.672058 
	C1236.811890,324.858734 1236.811890,374.762878 1236.811890,424.927551 
	C1224.525879,424.927551 1212.454468,424.927551 1200.051758,424.927551 
	C1200.051758,419.166992 1200.051758,413.558472 1200.051758,407.776184 
	C1164.180176,436.561157 1130.290161,434.735443 1097.828125,402.161072 
M1118.200806,346.836548 
	C1118.196411,348.501495 1118.145264,350.167816 1118.194824,351.831146 
	C1118.736938,370.050079 1131.011963,386.311951 1147.749756,391.009094 
	C1174.078125,398.397583 1198.204834,379.754303 1199.562256,350.972107 
	C1200.956421,321.415222 1172.862915,299.526337 1145.689331,309.329590 
	C1128.752441,315.439880 1120.386963,328.477661 1118.200806,346.836548 
z"/>
<path fill="#020302" opacity="1.000000" stroke="none" 
	d="
M742.718323,421.745148 
	C721.878784,429.198334 701.207703,429.873505 680.670959,422.612152 
	C650.309631,411.877045 631.998108,383.937866 632.688843,349.211609 
	C633.336487,316.653290 647.434631,291.562592 677.854187,278.722595 
	C708.664551,265.717651 738.635132,269.099152 764.125305,291.992950 
	C783.855896,309.713837 790.112732,333.084320 787.584595,359.680603 
	C749.276123,359.680603 711.223022,359.680603 673.225342,359.680603 
	C672.214905,371.073761 681.450256,385.061859 693.151245,390.524506 
	C711.156555,398.930328 732.196777,393.652985 744.192017,377.848236 
	C745.171875,376.557159 746.904114,375.024750 748.312561,374.998627 
	C760.452881,374.773804 772.599121,374.869354 785.351685,374.869354 
	C778.548279,397.624817 764.377625,412.818848 742.718323,421.745148 
M709.500000,336.048401 
	C721.944702,336.048401 734.389465,336.048401 746.861267,336.048401 
	C745.522522,318.758179 729.880371,305.560211 710.686584,305.146057 
	C692.078369,304.744537 675.101746,318.542542 673.145020,336.048401 
	C684.958496,336.048401 696.729248,336.048401 709.500000,336.048401 
z"/>
<path fill="#020303" opacity="1.000000" stroke="none" 
	d="
M1330.471924,457.563049 
	C1326.152222,466.426086 1322.117676,475.016479 1317.770020,483.445435 
	C1317.040405,484.860168 1314.970703,486.450073 1313.493164,486.477020 
	C1300.508911,486.713470 1287.518433,486.613953 1273.755127,486.613953 
	C1274.396729,484.915588 1274.785400,483.586243 1275.380005,482.356537 
	C1286.826538,458.680298 1298.241211,434.988190 1309.833374,411.383301 
	C1311.311035,408.374481 1311.271118,405.982178 1309.905273,402.989990 
	C1291.451416,362.563904 1273.108887,322.086975 1254.738647,281.622681 
	C1253.786377,279.524994 1252.832275,277.428009 1251.617065,274.754364 
	C1253.520020,274.605072 1254.910522,274.404358 1256.301636,274.401245 
	C1267.795776,274.375549 1279.294189,274.560822 1290.781860,274.288025 
	C1294.597778,274.197357 1296.242554,275.561737 1297.703735,278.968567 
	C1308.658936,304.512970 1319.843262,329.959167 1330.962036,355.433411 
	C1331.877686,357.531189 1332.838501,359.609283 1334.192871,362.617310 
	C1339.296387,351.951111 1343.994873,342.161346 1348.667358,332.359192 
	C1357.260376,314.332275 1365.896362,296.325195 1374.360718,278.237946 
	C1375.647949,275.487396 1377.046875,274.249237 1380.270386,274.301758 
	C1392.895264,274.507416 1405.525391,274.385834 1419.165894,274.385834 
	C1389.426025,335.821960 1360.039062,396.529114 1330.471924,457.563049 
z"/>
<path fill="#030403" opacity="1.000000" stroke="none" 
	d="
M806.031799,357.000000 
	C806.031799,329.369690 806.031799,302.239380 806.031799,274.747131 
	C818.374390,274.747131 830.440918,274.747131 843.127686,274.747131 
	C843.127686,278.733002 843.127686,282.759338 843.127686,286.785706 
	C843.646545,287.088867 844.165466,287.392059 844.684326,287.695251 
	C845.208557,286.718781 845.555176,285.578094 846.283569,284.790375 
	C857.902954,272.223267 872.122498,269.242950 888.173950,273.868805 
	C889.706665,274.310455 891.774353,276.521637 891.810852,277.956726 
	C892.106995,289.591003 891.977173,301.236115 891.977173,313.472229 
	C890.415588,312.877289 889.257874,312.471069 888.128845,311.996674 
	C886.903076,311.481628 885.718506,310.868042 884.491028,310.357483 
	C861.429871,300.765350 844.788086,311.757782 844.695557,336.789948 
	C844.594055,364.264679 844.673096,391.740082 844.673462,419.215210 
	C844.673462,421.012848 844.673401,422.810486 844.673401,424.897644 
	C831.691589,424.897644 819.135071,424.897644 806.031799,424.897644 
	C806.031799,402.348694 806.031799,379.924347 806.031799,357.000000 
z"/>
<path fill="#B0FAE2" opacity="1.000000" stroke="none" 
	d="
M979.231689,307.988098 
	C996.982056,304.908356 1011.144043,310.450775 1020.848267,324.979431 
	C1031.331299,340.674194 1031.536011,357.466278 1021.656738,373.494751 
	C1012.725037,387.985992 999.042969,394.214142 982.025940,392.095551 
	C958.558594,389.173950 942.675842,364.473755 948.378784,339.769196 
	C952.193970,323.242096 962.315613,312.533875 979.231689,307.988098 
z"/>
<path fill="#B0FAE2" opacity="1.000000" stroke="none" 
	d="
M345.297119,308.050171 
	C363.500916,304.825989 379.515594,311.632904 388.369507,326.100616 
	C397.870209,341.625183 396.903656,362.679840 386.037933,376.891052 
	C375.908051,390.139923 358.991455,395.606995 342.719910,390.890594 
	C325.087433,385.779724 313.494110,369.046173 313.639923,348.917053 
	C313.783142,329.144104 325.790558,313.468048 345.297119,308.050171 
z"/>
<path fill="#B0FAE2" opacity="1.000000" stroke="none" 
	d="
M1118.234863,346.390015 
	C1120.386963,328.477661 1128.752441,315.439880 1145.689331,309.329590 
	C1172.862915,299.526337 1200.956421,321.415222 1199.562256,350.972107 
	C1198.204834,379.754303 1174.078125,398.397583 1147.749756,391.009094 
	C1131.011963,386.311951 1118.736938,370.050079 1118.194824,351.831146 
	C1118.145264,350.167816 1118.196411,348.501495 1118.234863,346.390015 
z"/>
<path fill="#B0F9E1" opacity="1.000000" stroke="none" 
	d="
M709.000000,336.048401 
	C696.729248,336.048401 684.958496,336.048401 673.145020,336.048401 
	C675.101746,318.542542 692.078369,304.744537 710.686584,305.146057 
	C729.880371,305.560211 745.522522,318.758179 746.861267,336.048401 
	C734.389465,336.048401 721.944702,336.048401 709.000000,336.048401 
z"/>
</svg>