<svg width="46" height="24" viewBox="0 0 46 24" fill="none" xmlns="http://www.w3.org/2000/svg">
<g clip-path="url(#clip0_348_608)">
<circle cx="39.132" cy="11.1826" r="5.34683" fill="white"/>
<ellipse cx="11.0722" cy="11.0858" rx="10.0393" ry="10.4328" fill="white"/>
<rect x="18.1765" y="4.63123" width="3.58594" height="13.1287" fill="white"/>
<rect x="21.7612" y="5.13757" width="4.24774" height="12.3004" fill="white"/>
<rect x="26.009" y="5.44159" width="13.7498" height="11.4813" fill="white"/>
<rect x="27.3967" y="3.78931" width="1.55058" height="10.7745" transform="rotate(-90 27.3967 3.78931)" fill="white"/>
<rect x="5.98926" y="23.2616" width="2.794" height="9.70498" transform="rotate(-90 5.98926 23.2616)" fill="white"/>
<path fill-rule="evenodd" clip-rule="evenodd" d="M19.3218 11.1793C19.3218 15.887 15.6454 19.7034 11.1105 19.7034C6.5755 19.7034 2.89917 15.887 2.89917 11.1793C2.89917 6.47152 6.5755 2.65515 11.1105 2.65515C15.6454 2.65515 19.3218 6.47152 19.3218 11.1793ZM18.5871 11.1793C18.5871 15.4658 15.2397 18.9408 11.1105 18.9408C6.98123 18.9408 3.63383 15.4658 3.63383 11.1793C3.63383 6.89272 6.98123 3.4178 11.1105 3.4178C15.2397 3.4178 18.5871 6.89272 18.5871 11.1793Z" fill="#212428"/>
<path d="M31.5478 12.5092H32.2694L32.2779 12.5003V9.51251H31.5224V11.729C31.4714 11.8354 31.4035 11.9152 31.3186 11.9861C31.2337 12.057 31.1319 12.0925 31.0045 12.0925C30.8602 12.0925 30.7413 12.0393 30.6649 11.9418C30.5885 11.8442 30.5461 11.7024 30.5461 11.525V9.51251H29.7905V11.5694C29.7905 11.8797 29.85 12.1279 29.9857 12.3141C30.1216 12.5003 30.3169 12.5978 30.5715 12.5978C30.6989 12.5978 30.8093 12.5712 30.9111 12.5269C31.013 12.4826 31.1064 12.4206 31.1828 12.3496C31.2592 12.2786 31.3271 12.1989 31.3865 12.1102C31.446 12.0216 31.4969 11.9329 31.5393 11.8442L31.5478 11.8531V12.5092Z" fill="#212428"/>
<path d="M37.2881 9.47665H37.4155V9.80469H37.4664V9.47665H37.5852V9.43231H37.2881V9.47665Z" fill="#212428"/>
<path d="M37.9663 9.52994V9.79596H38.0172V9.42358H37.9748L37.8305 9.68954L37.6777 9.42358H37.6353V9.79596H37.6862V9.52994L37.8135 9.75163H37.839L37.9663 9.52994Z" fill="#212428"/>
<path d="M33.9843 9.68062C34.0608 9.6097 34.1542 9.54761 34.2475 9.49444L34.256 9.47669C34.3494 9.42351 34.4258 9.40576 34.5362 9.40576V10.2924H34.4768C34.4513 10.2569 34.4088 10.2214 34.3579 10.186L34.2051 10.1062C34.1456 10.0884 34.0947 10.0707 34.0438 10.053L34.0183 10.0485C33.9785 10.0413 33.9446 10.0353 33.9164 10.0353C33.8655 10.0353 33.8146 10.0618 33.7551 10.0973C33.6957 10.1416 33.6448 10.1949 33.5854 10.2658V12.5088H32.8213V9.52102H33.5768V10.1328C33.6278 10.0707 33.6872 9.99976 33.7551 9.91999C33.8231 9.83132 33.8995 9.75155 33.9843 9.68062Z" fill="#212428"/>
<path d="M28.5516 13.1827C28.8062 13.1295 29.0949 13.1029 29.4005 13.1029V12.1276C29.0779 12.1276 28.7808 12.1897 28.5091 12.3227C28.2374 12.4557 27.9998 12.6241 27.796 12.8458C27.5923 13.0586 27.431 13.3157 27.3121 13.5994C27.2102 13.8654 27.1508 14.1491 27.1423 14.4417V14.4948H27.2697C27.2697 14.2466 27.3206 14.0427 27.431 13.8654C27.5413 13.6881 27.6941 13.5462 27.8809 13.431C28.0677 13.3157 28.2884 13.2359 28.5516 13.1827Z" fill="#212428"/>
<path fill-rule="evenodd" clip-rule="evenodd" d="M26.2689 12.4203C26.4811 12.5178 26.7188 12.5799 26.9565 12.5976L26.948 12.5888C27.0329 12.5976 27.1772 12.5976 27.1772 12.5976C27.4574 12.5888 27.7291 12.5355 27.9837 12.4203C28.2554 12.2961 28.4931 12.1277 28.7053 11.9149C28.9176 11.711 29.0789 11.4539 29.2062 11.1702C29.3335 10.8776 29.393 10.5673 29.393 10.2393C29.393 9.90234 29.3335 9.59204 29.2062 9.30834C29.0789 9.02463 28.9176 8.76752 28.7053 8.55474C28.5016 8.34196 28.2554 8.17352 27.9837 8.04935C27.7121 7.92524 27.4234 7.86316 27.1263 7.86316C26.8291 7.86316 26.5405 7.92524 26.2689 8.04935C25.9972 8.17352 25.751 8.34196 25.5472 8.55474C25.335 8.76752 25.1737 9.02463 25.0464 9.30834C24.9191 9.60089 24.8596 9.91124 24.8596 10.2393C24.8596 10.5762 24.9191 10.8865 25.0464 11.1702C25.1737 11.4539 25.3435 11.7021 25.5472 11.9149C25.751 12.1277 25.9972 12.2961 26.2689 12.4203ZM27.7291 12.3051C27.5592 12.4203 27.364 12.4735 27.1263 12.4735V12.4557C26.8886 12.4557 26.6933 12.4026 26.5235 12.2873C26.3537 12.172 26.2179 12.0124 26.1076 11.8174C25.9972 11.6135 25.9208 11.3829 25.8698 11.1081C25.8189 10.8333 25.7935 10.5407 25.7935 10.2215C25.7935 9.90234 25.8189 9.60979 25.8698 9.33493C25.9208 9.06006 25.9972 8.8296 26.1076 8.62566C26.2179 8.43063 26.3537 8.27103 26.5235 8.15577C26.6933 8.04051 26.8886 7.98733 27.1263 7.98733C27.364 7.98733 27.5592 8.04051 27.7291 8.15577C27.8988 8.27103 28.0346 8.43063 28.145 8.62566C28.2554 8.8296 28.3318 9.06006 28.3828 9.33493C28.4337 9.60979 28.4591 9.91124 28.4591 10.2304C28.4591 10.5584 28.4337 10.851 28.3828 11.1258C28.3318 11.4007 28.2554 11.6401 28.145 11.8352C28.0346 12.039 27.8988 12.1898 27.7291 12.3051Z" fill="#212428"/>
<path fill-rule="evenodd" clip-rule="evenodd" d="M36.8462 11.8972C36.9735 11.8262 37.0838 11.7376 37.1603 11.64L37.1773 11.6312L37.2112 11.649C37.1264 11.9238 36.982 12.1543 36.7783 12.3316C36.5745 12.5089 36.3028 12.5976 35.9802 12.5976C35.768 12.5976 35.5813 12.5622 35.4114 12.4823C35.2417 12.4026 35.0973 12.2961 34.9785 12.1543C34.8596 12.0124 34.7663 11.8528 34.6983 11.6666C34.6304 11.4804 34.5964 11.2766 34.5964 11.0638C34.5964 10.8155 34.6389 10.5939 34.7153 10.39C34.7917 10.1949 34.9021 10.0176 35.0294 9.87573C35.1568 9.72504 35.3096 9.61862 35.4794 9.53885C35.6492 9.45902 35.8274 9.42358 36.0057 9.42358C36.1925 9.42358 36.3623 9.45902 36.5151 9.53885C36.6594 9.61862 36.8037 9.69845 36.8971 9.83139C37.1603 10.2038 37.1688 10.5052 37.1688 10.5052L35.4369 11.3298C35.4878 11.4804 35.5473 11.6046 35.6322 11.7021C35.7256 11.8085 35.8274 11.8883 35.9548 11.9327C36.0821 11.977 36.218 12.0036 36.3623 12.0036C36.549 12.0036 36.7103 11.9681 36.8462 11.8972ZM35.4114 10.1772C35.3775 10.3013 35.3605 10.4343 35.352 10.5762V10.7003C35.352 10.9042 35.369 11.0638 35.4114 11.2145L36.4472 10.7003V10.5052C36.4472 10.2038 36.4132 9.88464 36.3283 9.75163C36.2434 9.61862 36.1245 9.54769 35.9718 9.54769C35.8784 9.54769 35.7935 9.57428 35.717 9.62752C35.6407 9.6807 35.5813 9.75163 35.5303 9.84914C35.4794 9.94666 35.4369 10.0531 35.4114 10.1772Z" fill="#212428"/>
<path fill-rule="evenodd" clip-rule="evenodd" d="M16.3133 20.6744C17.1912 20.1546 17.9901 19.5075 18.6865 18.7572C25.1276 17.3105 29.1615 17.3348 34.8292 17.3691C35.7367 17.3746 36.6862 17.3804 37.694 17.3804C40.0554 17.3804 41.86 16.6798 43.08 15.5785C44.3006 14.4766 44.9138 12.992 44.9138 11.481V10.9245C44.9138 9.18778 44.2015 7.68393 42.9288 6.62231C41.6621 5.56561 39.8615 4.96292 37.694 4.96292C37.068 4.96292 36.3092 4.97371 35.4556 4.98585C33.4143 5.01487 30.8309 5.0516 28.2241 4.96699C24.5141 4.84656 20.8479 4.48065 18.6966 3.53507L18.573 3.48072C16.6671 1.48941 14.0267 0.256531 11.109 0.256531C5.29793 0.256531 0.587158 5.14677 0.587158 11.1792C0.587158 14.9741 2.45142 18.3169 5.28109 20.2747V22.8133C5.28109 23.4233 5.79325 23.894 6.37365 23.8284C7.46843 23.7048 9.62616 23.4824 11.1428 23.4591C12.4881 23.4385 14.2186 23.6558 15.1809 23.7961C15.7716 23.8823 16.3133 23.4094 16.3133 22.7803V20.6744ZM20.8628 11.1785C20.873 10.911 20.8742 10.6438 20.8661 10.378C20.4726 5.14128 16.2545 1.01918 11.109 1.01918C5.70367 1.01918 1.32182 5.56797 1.32182 11.1792C1.32182 15.258 3.6371 18.7754 6.97776 20.3924C8.61083 20.9658 9.91511 21.249 11.1345 21.2524C12.6298 21.2566 14.0312 20.84 15.7857 19.9572L16.3133 19.6917L16.4389 19.6258C16.8115 19.3766 16.8304 19.3481 17.1363 19.1113L18.0714 18.1741C19.754 16.4881 20.7605 13.8478 20.8628 11.1785ZM6.70333 21.1011C8.04349 21.7435 9.53591 22.1019 11.109 22.1019C12.7071 22.1019 14.222 21.732 15.5786 21.0702V22.7803C15.5786 22.9362 15.4412 23.0639 15.2831 23.0409C14.318 22.9001 12.5387 22.675 11.1319 22.6966C9.57664 22.7204 7.38734 22.9469 6.29423 23.0703C6.14471 23.0871 6.01574 22.9656 6.01574 22.8133V20.8493C6.2504 20.9382 6.47942 21.0221 6.70333 21.1011ZM21.6308 11.1792C21.6308 13.6716 20.8266 15.969 19.473 17.8071C25.4616 16.549 29.443 16.5733 34.8389 16.6064C35.7453 16.6119 36.6916 16.6177 37.694 16.6177C39.9157 16.6177 41.5374 15.9603 42.5979 15.003C43.6577 14.0463 44.1792 12.7718 44.1792 11.481V10.9245C44.1792 9.42159 43.5698 8.13538 42.4686 7.21675C41.3615 6.29323 39.7358 5.72557 37.694 5.72557C37.0835 5.72557 36.3351 5.7362 35.4888 5.74822C33.4429 5.77726 30.825 5.81444 28.2012 5.72926C25.1769 5.63109 22.0837 5.37017 19.8018 4.72605C20.9665 6.31409 21.5343 8.30932 21.5996 10.3326C21.6203 10.6121 21.6308 10.8943 21.6308 11.1792Z" fill="#212428"/>
<path fill-rule="evenodd" clip-rule="evenodd" d="M38.617 1.69855H26.968C26.956 1.69855 26.9443 1.70104 26.9333 1.70565C26.9264 1.70858 26.9196 1.71238 26.9134 1.71694C26.883 1.73887 26.8618 1.77842 26.8618 1.82468V4.1385C28.2488 4.16675 29.6301 4.20521 31.0118 4.24368C33.3263 4.30812 35.6423 4.37261 37.9885 4.38921C38.2331 4.39094 38.4779 4.39215 38.7232 4.39279V1.82468C38.7232 1.78039 38.7029 1.73954 38.6719 1.71694C38.6569 1.70598 38.6393 1.69931 38.6203 1.6986L38.617 1.69855ZM37.9885 3.62655C35.6523 3.60998 33.3522 3.54592 31.0451 3.48165C29.8991 3.44973 28.7513 3.41776 27.5965 3.39154V2.4612H37.9885V3.62655Z" fill="#212428"/>
<path d="M38.554 0.935832C38.5637 0.941939 38.5729 0.948072 38.5816 0.954223H26.9326C26.9414 0.948078 26.9506 0.941958 26.9602 0.935857C27.5738 0.54708 29.9379 0.256759 32.7555 0.256531H32.7588C35.5797 0.256758 37.9405 0.547067 38.554 0.935832Z" fill="#212428"/>
</g>
<defs>
<clipPath id="clip0_348_608">
<rect width="44.8421" height="24" fill="white" transform="translate(0.5)"/>
</clipPath>
</defs>
</svg>
