<svg width="25" height="32" viewBox="0 0 25 32" fill="none" xmlns="http://www.w3.org/2000/svg">
<path fill-rule="evenodd" clip-rule="evenodd" d="M3.84063 25.6469C-1.02547 18.2986 -2.59359 1.1758 12.1453 1C26.8843 1.1758 25.3162 18.2986 20.443 25.6469C15.7176 32.7844 8.57312 32.7844 3.84063 25.6469V25.6469Z" fill="#DDF7EE" stroke="#212428" stroke-width="0.750003" stroke-miterlimit="2.61313" stroke-linecap="round" stroke-linejoin="round"/>
<path fill-rule="evenodd" clip-rule="evenodd" d="M11.2055 5.4954C11.2055 5.23731 11.2282 4.96111 11.2734 4.7415C11.3776 4.2208 11.613 3.70689 12.136 3.53256C12.6952 3.34692 13.2385 3.6367 13.4966 4.11213C13.5872 4.27966 13.6868 4.5219 13.714 4.7166C13.7909 5.27353 13.8136 5.84178 13.7026 6.39644C13.6143 6.83791 13.4649 7.2024 13.0868 7.45144C12.9533 7.53973 12.788 7.59859 12.6205 7.6167C12.4937 7.63029 12.3669 7.63029 12.2447 7.60538C11.5768 7.47181 11.2961 6.69981 11.244 6.09081C11.2259 5.88706 11.21 5.69915 11.21 5.49313L11.2055 5.4954ZM10.3203 5.55199C10.3203 5.90743 10.3996 6.19495 10.5082 6.44625C10.5218 6.47794 10.5377 6.50737 10.5535 6.53454C10.6124 6.65227 10.6305 6.6817 10.7029 6.79263C10.7686 6.89224 10.8659 7.01223 10.9474 7.096C11.2327 7.38125 11.6017 7.5918 11.9979 7.67557C12.3805 7.75707 12.6205 7.76159 13.0031 7.66651C13.2634 7.60086 13.5396 7.48539 13.7592 7.33598C13.8136 7.29975 13.8656 7.259 13.9154 7.21825C13.9403 7.19787 13.963 7.17976 13.9856 7.15486C14.0128 7.12769 14.0332 7.11411 14.0603 7.08921C14.0852 7.0643 14.0988 7.04393 14.1237 7.01902C14.2641 6.87866 14.4203 6.61604 14.4927 6.43493C14.5675 6.24929 14.6399 5.98893 14.658 5.77839C14.6648 5.69915 14.6784 5.61086 14.6784 5.52483C14.6784 5.37088 14.6444 5.18071 14.6105 5.05166C14.581 4.93168 14.5177 4.75735 14.4656 4.64868C14.3433 4.40644 14.212 4.20495 14.0173 4.00799C13.9336 3.92422 13.8181 3.82687 13.723 3.76122C13.4921 3.60501 13.2317 3.48955 12.9578 3.43069C12.3828 3.30843 11.9051 3.3922 11.4093 3.66387C11.2712 3.73858 11.2055 3.79518 11.0923 3.888C11.0018 3.96045 10.9587 4.01252 10.8863 4.08949L10.8252 4.16194C10.7844 4.21401 10.7459 4.26155 10.7097 4.31815C10.4584 4.69623 10.3203 5.08562 10.3203 5.55199V5.55199Z" fill="#212428"/>
<path fill-rule="evenodd" clip-rule="evenodd" d="M12.5124 9.36438C12.5124 9.48211 12.4921 9.46173 12.6188 9.46173C12.6528 9.46173 12.637 9.38929 12.6483 9.2942C12.68 9.01347 12.8271 8.77802 13.0422 8.60597C13.1758 8.49956 13.3275 8.42032 13.4927 8.3592C13.5923 8.32297 13.6874 8.29807 13.7961 8.26864C14.0904 8.19393 14.3802 8.18261 14.6858 8.18261V7.29062C14.1945 7.29062 13.7033 7.48985 13.3297 7.79548C13.2641 7.84755 13.1486 7.95395 13.0943 8.01734C13.0807 8.03545 13.0784 8.03998 13.0626 8.05583C12.9969 8.12375 12.8882 8.27996 12.8362 8.35693C12.8 8.41353 12.7705 8.46787 12.7388 8.52673C12.6143 8.74859 12.517 9.1063 12.517 9.36438H12.5124Z" fill="#212428"/>
<path fill-rule="evenodd" clip-rule="evenodd" d="M13.7485 12.7643C13.7485 12.7643 13.7485 11.372 15.83 10.7532C17.9114 10.1344 21.0758 10.3664 21.0547 11.9486C21.0336 13.5378 18.0169 14.8599 16.2238 14.7966C14.4306 14.7403 13.7485 13.1511 13.7485 12.7643Z" fill="#F6F6F7" stroke="#212428" stroke-width="0.750003" stroke-miterlimit="2.61313" stroke-linecap="round" stroke-linejoin="round"/>
<path fill-rule="evenodd" clip-rule="evenodd" d="M12.1471 26.1468C12.1471 26.1468 8.04747 25.9499 6.92236 23.1441C6.92236 23.1441 8.2303 21.8292 9.70701 22.0964C11.1907 22.3706 11.5002 22.6238 12.1471 22.5816C12.794 22.6238 13.1034 22.3706 14.5801 22.0964C16.0568 21.8292 17.3718 23.1441 17.3718 23.1441C16.2467 25.9499 12.1471 26.1468 12.1471 26.1468V26.1468Z" fill="#F6F6F7" stroke="#212428" stroke-width="0.750003" stroke-miterlimit="2.61313" stroke-linecap="round" stroke-linejoin="round"/>
<path d="M9.06006 18.4179C11.5423 19.6063 12.7518 19.6063 15.2341 18.4179" stroke="#212428" stroke-width="0.750003" stroke-miterlimit="2.61313" stroke-linecap="round" stroke-linejoin="round"/>
<path fill-rule="evenodd" clip-rule="evenodd" d="M10.5431 12.7643C10.5431 12.7643 10.5431 11.372 8.46165 10.7532C6.3802 10.1344 3.21583 10.3664 3.23692 11.9486C3.25802 13.5378 6.27472 14.8599 8.06786 14.7966C9.85398 14.7403 10.5431 13.1511 10.5431 12.7643Z" fill="#F6F6F7" stroke="#212428" stroke-width="0.750003" stroke-miterlimit="2.61313" stroke-linecap="round" stroke-linejoin="round"/>
</svg>
