<svg width="24" height="21" viewBox="0 0 24 21" fill="none" xmlns="http://www.w3.org/2000/svg">
<path d="M1.28022 14.9647C2.17168 12.3737 4.59212 12.361 5.69091 12.6784C10.6004 13.8378 15.7526 12.0251 17.7151 10.9738C20.3155 9.89084 21.5382 12.0065 21.7545 13.0041C22.1773 14.7664 21.4663 15.5179 20.746 16.137C14.9405 20.243 8.20271 19.7781 5.48364 18.9565C1.70382 18.1233 0.847927 16.2067 1.28022 14.9647Z" fill="#99C1F2" stroke="#212428" stroke-width="0.581818"/>
<path d="M11.9531 14.2284C12.0448 14.3201 12.2027 14.3038 12.2756 14.1964C12.3125 14.1421 12.3205 14.0595 12.295 14C12.2799 13.9648 12.2493 13.9277 12.2177 13.9061C12.1627 13.8685 12.091 13.8619 12.0289 13.8846C11.998 13.8958 11.9697 13.9142 11.9473 13.9383C11.9239 13.9635 11.9064 13.9933 11.8982 14.0268C11.8805 14.099 11.9009 14.1761 11.9531 14.2284Z" fill="#212428"/>
<path d="M12.6458 14.9216C12.7374 15.0133 12.8953 14.997 12.9683 14.8896C13.0051 14.8353 13.0131 14.7527 12.9876 14.6931C12.9726 14.6579 12.9419 14.6208 12.9104 14.5993C12.8554 14.5617 12.7836 14.5551 12.7215 14.5777C12.6906 14.589 12.6623 14.6073 12.6399 14.6315C12.6165 14.6566 12.599 14.6864 12.5908 14.72C12.5731 14.7922 12.5935 14.8693 12.6458 14.9216Z" fill="#212428"/>
<path d="M13.3411 15.6169C13.4327 15.7086 13.5906 15.6923 13.6636 15.5849C13.7004 15.5306 13.7084 15.4481 13.6829 15.3884C13.6679 15.3533 13.6373 15.3162 13.6057 15.2946C13.5507 15.257 13.4789 15.2504 13.4168 15.273C13.3859 15.2843 13.3576 15.3027 13.3352 15.3268C13.3118 15.352 13.2943 15.3817 13.2861 15.4152C13.2685 15.4875 13.2888 15.5646 13.3411 15.6169Z" fill="#212428"/>
<path d="M9.72828 16.4528C9.81995 16.5445 9.97782 16.5282 10.0508 16.4208C10.0876 16.3666 10.0956 16.284 10.0701 16.2244C10.0551 16.1892 10.0245 16.1521 9.99288 16.1305C9.93789 16.093 9.86612 16.0863 9.80402 16.109C9.77315 16.1203 9.74484 16.1386 9.72243 16.1627C9.69902 16.1879 9.68153 16.2177 9.67335 16.2512C9.65566 16.3234 9.676 16.4006 9.72828 16.4528Z" fill="#212428"/>
<path d="M10.1699 17.3999C10.2616 17.4916 10.4195 17.4753 10.4924 17.3679C10.5293 17.3137 10.5373 17.2311 10.5118 17.1715C10.4967 17.1363 10.4661 17.0992 10.4345 17.0776C10.3795 17.04 10.3078 17.0334 10.2457 17.0561C10.2148 17.0673 10.1865 17.0857 10.1641 17.1098C10.1407 17.135 10.1232 17.1648 10.115 17.1983C10.0973 17.2705 10.1177 17.3477 10.1699 17.3999Z" fill="#212428"/>
<path d="M11.2054 17.8668C11.1903 17.8316 11.1597 17.7945 11.1281 17.7729C11.0731 17.7354 11.0014 17.7287 10.9393 17.7514C10.9084 17.7626 10.8801 17.781 10.8577 17.8051C10.8343 17.8303 10.8168 17.8601 10.8086 17.8936C10.7909 17.9658 10.8113 18.0429 10.8635 18.0952C10.9552 18.1869 11.1131 18.1706 11.186 18.0632C11.2229 18.0089 11.2309 17.9264 11.2054 17.8668Z" fill="#212428"/>
<path d="M10.5669 14.4962C10.6586 14.5878 10.8164 14.5716 10.8894 14.4641C10.9262 14.4099 10.9343 14.3273 10.9088 14.2677C10.8937 14.2325 10.8631 14.1954 10.8315 14.1739C10.7765 14.1363 10.7048 14.1297 10.6426 14.1523C10.6118 14.1636 10.5835 14.1819 10.561 14.206C10.5376 14.2312 10.5202 14.261 10.512 14.2945C10.4943 14.3668 10.5146 14.4439 10.5669 14.4962Z" fill="#212428"/>
<path d="M11.3962 15.0399C11.3728 15.065 11.3553 15.0948 11.3471 15.1283C11.3295 15.2006 11.3498 15.2777 11.4021 15.3299C11.4938 15.4216 11.6516 15.4054 11.7246 15.2979C11.7614 15.2437 11.7695 15.1611 11.744 15.1015C11.7289 15.0663 11.6983 15.0292 11.6667 15.0076C11.6117 14.9701 11.54 14.9635 11.4778 14.9861C11.4469 14.9974 11.4186 15.0158 11.3962 15.0399Z" fill="#212428"/>
<path d="M12.2415 16.1677C12.3331 16.2593 12.491 16.2431 12.564 16.1357C12.6008 16.0814 12.6088 15.9988 12.5833 15.9392C12.5683 15.904 12.5377 15.8669 12.5061 15.8454C12.4511 15.8078 12.3793 15.8012 12.3172 15.8238C12.2863 15.8351 12.258 15.8534 12.2356 15.8776C12.2122 15.9027 12.1947 15.9325 12.1865 15.966C12.1688 16.0383 12.1892 16.1154 12.2415 16.1677Z" fill="#212428"/>
<path d="M13.0767 17.0036C13.1683 17.0953 13.3262 17.079 13.3992 16.9716C13.436 16.9174 13.444 16.8348 13.4185 16.7752C13.4035 16.74 13.3729 16.7029 13.3413 16.6813C13.2863 16.6437 13.2145 16.6371 13.1524 16.6598C13.1215 16.671 13.0932 16.6894 13.0708 16.7135C13.0474 16.7387 13.0299 16.7685 13.0217 16.802C13.004 16.8742 13.0244 16.9514 13.0767 17.0036Z" fill="#212428"/>
<path d="M9.74488 15.3197C9.83655 15.4113 9.99442 15.3951 10.0674 15.2876C10.1042 15.2334 10.1122 15.1508 10.0867 15.0912C10.0717 15.056 10.0411 15.0189 10.0095 14.9974C9.95451 14.9598 9.88276 14.9532 9.82062 14.9758C9.78975 14.9871 9.76144 15.0054 9.73903 15.0295C9.71563 15.0547 9.69813 15.0845 9.68995 15.118C9.67226 15.1903 9.69262 15.2674 9.74488 15.3197Z" fill="#212428"/>
<path d="M10.9188 15.925C10.9037 15.8898 10.8731 15.8527 10.8415 15.8311C10.7865 15.7936 10.7148 15.7869 10.6527 15.8096C10.6218 15.8209 10.5935 15.8392 10.5711 15.8633C10.5477 15.8885 10.5302 15.9183 10.522 15.9518C10.5043 16.024 10.5246 16.1012 10.5769 16.1534C10.6686 16.2451 10.8265 16.2288 10.8994 16.1214C10.9362 16.0672 10.9443 15.9846 10.9188 15.925Z" fill="#212428"/>
<path d="M11.4163 16.9915C11.5079 17.0832 11.6658 17.0669 11.7388 16.9595C11.7756 16.9053 11.7836 16.8227 11.7581 16.7631C11.7431 16.7279 11.7125 16.6908 11.6809 16.6692C11.6259 16.6317 11.5541 16.625 11.492 16.6477C11.4611 16.6589 11.4328 16.6773 11.4104 16.7014C11.387 16.7266 11.3695 16.7564 11.3613 16.7899C11.3436 16.8621 11.364 16.9392 11.4163 16.9915Z" fill="#212428"/>
<path d="M12.2522 17.8275C12.3439 17.9191 12.5017 17.9029 12.5747 17.7954C12.6115 17.7412 12.6196 17.6586 12.5941 17.599C12.579 17.5638 12.5484 17.5267 12.5168 17.5051C12.4618 17.4676 12.3901 17.4609 12.3279 17.4836C12.2971 17.4949 12.2688 17.5132 12.2464 17.5373C12.2229 17.5625 12.2055 17.5923 12.1973 17.6258C12.1796 17.6981 12.1999 17.7752 12.2522 17.8275Z" fill="#212428"/>
<path d="M23.3138 3.90223C22.8209 6.59756 20.4297 6.97309 19.2958 6.82393C14.268 6.41371 9.44569 8.97835 7.66302 10.312C5.25437 11.7725 3.72833 9.86411 3.36489 8.91019C2.68263 7.23126 3.27299 6.38161 3.89231 5.6615C9.01664 0.731535 15.748 0.181096 18.5595 0.585756C22.4215 0.842817 23.555 2.6095 23.3138 3.90223Z" fill="#99C1F2" stroke="#212428" stroke-width="0.581818"/>
<path d="M12.8715 6.22993C12.7671 6.15304 12.6135 6.19279 12.5574 6.30994C12.5291 6.36909 12.5336 6.45196 12.5677 6.50706C12.5879 6.53958 12.6237 6.57167 12.6582 6.58828C12.7182 6.61717 12.7901 6.61295 12.8481 6.58125C12.877 6.56548 12.9022 6.5431 12.9208 6.5159C12.9401 6.48749 12.953 6.45542 12.956 6.42105C12.9627 6.34697 12.931 6.27378 12.8715 6.22993Z" fill="#212428"/>
<path d="M12.0827 5.64686C11.9783 5.56997 11.8246 5.60972 11.7686 5.72687C11.7403 5.78602 11.7448 5.86889 11.7789 5.92399C11.7991 5.95652 11.8349 5.98861 11.8694 6.00521C11.9294 6.0341 12.0013 6.02988 12.0593 5.99818C12.0882 5.98241 12.1134 5.96003 12.1319 5.93283C12.1513 5.90442 12.1641 5.87235 12.1672 5.83798C12.1739 5.7639 12.1422 5.6907 12.0827 5.64686Z" fill="#212428"/>
<path d="M11.2897 5.06373C11.1853 4.98684 11.0317 5.02659 10.9756 5.14374C10.9473 5.20289 10.9518 5.28574 10.9859 5.34086C11.0061 5.37339 11.0419 5.40548 11.0764 5.42208C11.1364 5.45097 11.2083 5.44675 11.2664 5.41505C11.2952 5.3993 11.3204 5.3769 11.339 5.3497C11.3583 5.32129 11.3712 5.28922 11.3743 5.25487C11.3809 5.18077 11.3492 5.10759 11.2897 5.06373Z" fill="#212428"/>
<path d="M14.7374 3.69728C14.6331 3.62039 14.4794 3.66014 14.4234 3.77729C14.3951 3.83643 14.3996 3.9193 14.4337 3.9744C14.4539 4.00693 14.4897 4.03902 14.5242 4.05563C14.5842 4.08451 14.6561 4.0803 14.7141 4.04859C14.7429 4.03283 14.7682 4.01045 14.7867 3.98324C14.8061 3.95484 14.8189 3.92277 14.822 3.8884C14.8286 3.81432 14.797 3.74113 14.7374 3.69728Z" fill="#212428"/>
<path d="M14.1591 2.82722C14.0547 2.75033 13.901 2.79008 13.845 2.90723C13.8167 2.96638 13.8212 3.04925 13.8553 3.10435C13.8755 3.13687 13.9113 3.16896 13.9458 3.18557C14.0058 3.21446 14.0777 3.21024 14.1357 3.17854C14.1646 3.16277 14.1898 3.14039 14.2084 3.11319C14.2277 3.08478 14.2405 3.05271 14.2436 3.01834C14.2503 2.94426 14.2186 2.87106 14.1591 2.82722Z" fill="#212428"/>
<path d="M13.0665 2.52091C13.0867 2.55344 13.1225 2.58553 13.157 2.60213C13.217 2.63102 13.2889 2.62681 13.3469 2.5951C13.3758 2.57935 13.401 2.55696 13.4195 2.52975C13.4389 2.50135 13.4517 2.46927 13.4548 2.43492C13.4615 2.36086 13.4298 2.28766 13.3703 2.24383C13.2659 2.16693 13.1122 2.20668 13.0562 2.32383C13.0279 2.38297 13.0323 2.46582 13.0665 2.52091Z" fill="#212428"/>
<path d="M14.2013 5.75801C14.0969 5.68112 13.9433 5.72087 13.8873 5.83802C13.859 5.89716 13.8634 5.98002 13.8976 6.03513C13.9177 6.06766 13.9536 6.09975 13.988 6.11634C14.048 6.14523 14.1199 6.14101 14.178 6.10932C14.2068 6.09356 14.232 6.07118 14.2506 6.04397C14.27 6.01557 14.2828 5.9835 14.2858 5.94913C14.2925 5.87505 14.2608 5.80184 14.2013 5.75801Z" fill="#212428"/>
<path d="M13.2985 5.34363C13.3178 5.31523 13.3307 5.28316 13.3337 5.2488C13.3404 5.17475 13.3087 5.10154 13.2492 5.05771C13.1448 4.98082 12.9912 5.02057 12.9351 5.13772C12.9068 5.19686 12.9113 5.27971 12.9454 5.33483C12.9656 5.36736 13.0014 5.39943 13.0359 5.41604C13.0959 5.44493 13.1678 5.44071 13.2258 5.40901C13.2547 5.39319 13.2799 5.37081 13.2985 5.34363Z" fill="#212428"/>
<path d="M12.298 4.3564C12.1936 4.2795 12.04 4.31926 11.9839 4.43641C11.9556 4.49555 11.9601 4.5784 11.9942 4.63352C12.0144 4.66605 12.0502 4.69814 12.0847 4.71474C12.1447 4.74363 12.2166 4.73942 12.2747 4.70771C12.3035 4.69194 12.3287 4.66957 12.3473 4.64236C12.3666 4.61396 12.3795 4.58189 12.3826 4.54753C12.3892 4.47344 12.3575 4.40025 12.298 4.3564Z" fill="#212428"/>
<path d="M11.3451 3.65504C11.2407 3.57815 11.0871 3.6179 11.0311 3.73505C11.0028 3.7942 11.0072 3.87705 11.0414 3.93217C11.0615 3.96469 11.0974 3.99678 11.1318 4.01339C11.1918 4.04228 11.2638 4.03806 11.3218 4.00636C11.3506 3.99061 11.3758 3.96821 11.3944 3.94101C11.4138 3.9126 11.4266 3.88053 11.4297 3.84618C11.4363 3.77208 11.4046 3.69888 11.3451 3.65504Z" fill="#212428"/>
<path d="M14.8922 4.82014C14.7878 4.74325 14.6342 4.783 14.5782 4.90015C14.5499 4.9593 14.5543 5.04215 14.5885 5.09727C14.6086 5.12979 14.6445 5.16188 14.6789 5.17847C14.7389 5.20736 14.8108 5.20317 14.8689 5.17146C14.8977 5.15569 14.923 5.13331 14.9415 5.10611C14.9609 5.0777 14.9737 5.04563 14.9768 5.01126C14.9834 4.93718 14.9517 4.86398 14.8922 4.82014Z" fill="#212428"/>
<path d="M13.6383 4.39703C13.6585 4.42955 13.6943 4.46163 13.7287 4.47823C13.7887 4.50712 13.8607 4.50293 13.9187 4.4712C13.9475 4.45543 13.9728 4.43305 13.9913 4.40585C14.0107 4.37745 14.0235 4.34537 14.0266 4.31102C14.0332 4.23696 14.0015 4.16376 13.942 4.11993C13.8377 4.04303 13.684 4.08278 13.628 4.19993C13.5997 4.25906 13.6041 4.34193 13.6383 4.39703Z" fill="#212428"/>
<path d="M12.9882 3.41853C12.8838 3.34164 12.7302 3.38139 12.6741 3.49854C12.6458 3.55769 12.6503 3.64054 12.6844 3.69566C12.7046 3.72818 12.7404 3.76027 12.7749 3.77688C12.8349 3.80576 12.9068 3.80157 12.9648 3.76985C12.9937 3.75408 13.0189 3.7317 13.0375 3.7045C13.0568 3.67609 13.0696 3.64402 13.0727 3.60966C13.0794 3.53557 13.0477 3.46238 12.9882 3.41853Z" fill="#212428"/>
<path d="M12.0377 2.71681C11.9334 2.63992 11.7797 2.67967 11.7237 2.79682C11.6954 2.85597 11.6998 2.93882 11.734 2.99393C11.7541 3.02646 11.79 3.05855 11.8244 3.07516C11.8844 3.10404 11.9564 3.09985 12.0144 3.06812C12.0433 3.05237 12.0685 3.02998 12.087 3.00278C12.1064 2.97437 12.1192 2.9423 12.1223 2.90794C12.1289 2.83385 12.0972 2.76065 12.0377 2.71681Z" fill="#212428"/>
</svg>
