<svg width="13" height="31" viewBox="0 0 13 31" fill="none" xmlns="http://www.w3.org/2000/svg">
<path fill-rule="evenodd" clip-rule="evenodd" d="M9.62259 29.8389C6.2526 30.2111 0.743478 29.9382 0.500283 29.025L0.500283 13.4009C0.500283 13.4009 0.45065 12.572 1.66663 12.2445L2.66919 12.1601L6.34193 12.1601L10.0147 12.1601L11.0172 12.2445C12.2382 12.572 12.1836 13.4009 12.1836 13.4009L12.1836 29.3832" fill="#E0ECFB" stroke="#212428" stroke-width="0.7027" stroke-miterlimit="2.61313"/>
<path d="M8.5136 18.7898L8.5136 18.3679L8.88088 18.3679L8.88584 18.3629C8.83621 18.3381 8.78658 18.3083 8.73695 18.2736C8.68732 18.2388 8.64265 18.1991 8.60294 18.1545C8.56324 18.1098 8.5285 18.0552 8.50368 17.9957C8.47886 17.9361 8.46397 17.8716 8.46397 17.7971C8.46397 17.6482 8.51857 17.5341 8.6228 17.4547C8.72702 17.3753 8.86599 17.3405 9.0397 17.3405L10.1912 17.3405L10.1912 17.7822L9.06452 17.7822C8.96525 17.7822 8.88584 17.807 8.83125 17.8517C8.77665 17.8964 8.74687 17.9659 8.74687 18.0502C8.74687 18.1247 8.76673 18.1843 8.80643 18.2339C8.84614 18.2835 8.89081 18.3232 8.95036 18.353L10.1912 18.353L10.1912 18.7947L8.51857 18.7947L8.5136 18.7898ZM10.211 21.7925L10.211 21.723L10.2358 21.723L10.2358 21.8967L10.211 21.8967L10.211 21.8272L10.0274 21.8272L10.0274 21.7974L10.211 21.7974L10.211 21.7925ZM10.0274 22.12L10.1812 22.12L10.0572 22.0456L10.0572 22.0307L10.1812 21.9563L10.0323 21.9563L10.0323 21.9265L10.2408 21.9265L10.2408 21.9513L10.0919 22.0406L10.2408 22.125L10.2408 22.1498L10.0323 22.1498L10.0323 22.12L10.0274 22.12ZM10.2011 19.9462C10.1713 19.8916 10.1366 19.837 10.0969 19.7923C10.0572 19.7427 10.0125 19.698 9.96285 19.6583C9.91818 19.6186 9.87848 19.5839 9.84373 19.5541L10.1862 19.5541L10.1862 19.1124L9.2283 19.1124L8.5136 19.1124L8.5136 19.559L9.76929 19.559C9.80899 19.5938 9.83877 19.6236 9.86359 19.6583C9.88344 19.6931 9.89833 19.7228 9.89833 19.7526C9.89833 19.7725 9.89337 19.7973 9.8884 19.8271C9.87848 19.8568 9.86855 19.8866 9.85863 19.9214C9.84374 19.9511 9.82885 19.9809 9.81396 20.0107C9.7941 20.0405 9.77425 20.0653 9.7544 20.0802L9.7544 20.1149L10.2507 20.1149C10.2507 20.0504 10.2408 20.0057 10.211 19.9511L10.2011 19.9462ZM8.18107 17.1122C8.18107 16.9335 8.16618 16.7648 8.1364 16.6159C8.10663 16.462 8.06196 16.333 7.99744 16.2238C7.93292 16.1146 7.8535 16.0253 7.75424 15.9607C7.65498 15.8962 7.54082 15.8664 7.40186 15.8664L7.40186 15.792C7.42171 15.792 7.43163 15.792 7.43163 15.792C7.59542 15.797 7.75424 15.8317 7.90314 15.8913C8.06196 15.9607 8.20589 16.055 8.32501 16.1742C8.44908 16.2933 8.54339 16.4323 8.61783 16.5911C8.69228 16.7499 8.72702 16.9236 8.72702 17.1122L8.17611 17.1122L8.18107 17.1122ZM8.53346 15.7821C8.53346 15.921 8.56324 16.0352 8.62776 16.1345C8.69228 16.2337 8.77665 16.3131 8.89081 16.3777C9 16.4422 9.134 16.4868 9.28786 16.5166C9.44172 16.5464 9.6055 16.5613 9.78914 16.5613C9.96781 16.5613 10.1366 16.5464 10.2904 16.5166C10.4443 16.4868 10.5733 16.4422 10.6875 16.3777C10.7967 16.3131 10.886 16.2337 10.9505 16.1345C11.015 16.0352 11.0448 15.921 11.0448 15.7821C11.0448 15.6431 11.015 15.529 10.9505 15.4297C10.886 15.3304 10.7967 15.251 10.6875 15.1865C10.5733 15.122 10.4443 15.0773 10.2904 15.0475C10.1366 15.0177 9.97278 15.0029 9.7941 15.0029C9.61543 15.0029 9.45165 15.0177 9.29779 15.0475C9.14393 15.0773 9.01489 15.122 8.90073 15.1865C8.79154 15.251 8.70221 15.3304 8.63768 15.4297C8.57316 15.529 8.54338 15.6431 8.54338 15.7821L8.53346 15.7821ZM8.46397 15.6828C8.4739 15.5438 8.50864 15.4049 8.56324 15.2808C8.63272 15.122 8.72702 14.978 8.84614 14.8589C8.96525 14.7398 9.10422 14.6405 9.26304 14.5661C9.42187 14.4917 9.59558 14.4569 9.78418 14.4569C9.96781 14.4569 10.1415 14.4917 10.3053 14.5661C10.4641 14.6405 10.6081 14.7348 10.7272 14.8589C10.8463 14.978 10.9406 15.122 11.0101 15.2808C11.0796 15.4396 11.1143 15.6084 11.1143 15.7821C11.1143 15.9558 11.0796 16.1245 11.0101 16.2834C10.9406 16.4422 10.8463 16.5861 10.7272 16.7052C10.6081 16.8293 10.4641 16.9236 10.3053 16.9981C10.1465 17.0725 9.97278 17.1072 9.78418 17.1072C9.60054 17.1072 9.42683 17.0725 9.26304 16.9981C9.10422 16.9236 8.96029 16.8293 8.84614 16.7052C8.72702 16.5811 8.63272 16.4422 8.56324 16.2834C8.49872 16.1345 8.46894 15.9756 8.46397 15.8119C8.46397 15.8119 8.46397 15.7275 8.46894 15.6778L8.46397 15.6828ZM9.59558 20.5914C9.67499 20.5964 9.74943 20.6063 9.81892 20.6261C9.8884 20.641 9.94796 20.6658 10.0026 20.6956C10.0572 20.7254 10.0969 20.7601 10.1266 20.8048C10.1564 20.8495 10.1713 20.8991 10.1713 20.9537C10.1713 21.043 10.1316 21.1125 10.0572 21.1622C9.9827 21.2118 9.80403 21.2316 9.63528 21.2316L9.52609 21.2316L9.23823 20.6261C9.3226 20.6013 9.41194 20.5914 9.52609 20.5914L9.59558 20.5914V20.5914ZM9 21.6485C8.9454 21.6039 8.89577 21.5394 8.85606 21.4649C8.81636 21.3855 8.79651 21.2912 8.79651 21.182C8.79651 21.0976 8.8114 21.0182 8.83621 20.9438C8.86103 20.8693 8.9057 20.8098 8.96525 20.7552C9.01985 20.7055 9.08933 20.6708 9.17371 20.641L9.63528 21.6535C9.63528 21.6535 9.80403 21.6485 10.0125 21.4947C10.0869 21.4401 10.1316 21.3557 10.1763 21.2713C10.2209 21.182 10.2408 21.0827 10.2408 20.9736C10.2408 20.8693 10.2209 20.7651 10.1763 20.6658C10.1316 20.5666 10.072 20.4772 9.98767 20.4028C9.90826 20.3283 9.80899 20.2638 9.6998 20.2192C9.58565 20.1745 9.46157 20.1497 9.3226 20.1497C9.20349 20.1497 9.08933 20.1695 8.98511 20.2092C8.88088 20.2489 8.79154 20.3035 8.71213 20.373C8.63272 20.4425 8.57316 20.5269 8.5285 20.6261C8.48383 20.7254 8.46397 20.8346 8.46397 20.9587C8.46397 21.1473 8.51361 21.3061 8.61287 21.4252C8.71213 21.5443 8.84117 21.6287 8.99503 21.6783L9.00496 21.6585L9 21.6485Z" fill="#212428"/>
<path fill-rule="evenodd" clip-rule="evenodd" d="M5.90494 17.0929L5.9099 17.0929C5.93472 17.1127 5.95953 17.1276 5.97939 17.1425C5.99924 17.1525 6.01909 17.1624 6.03895 17.1723C6.0588 17.1773 6.08361 17.1822 6.10347 17.1872C6.12828 17.1922 6.1531 17.1922 6.18784 17.1922L6.94224 17.1922C6.96706 17.1922 6.98691 17.1872 7.0018 17.1822C7.02165 17.1773 7.03654 17.1723 7.05143 17.1624C7.06632 17.1525 7.08121 17.1425 7.0961 17.1276C7.11099 17.1127 7.12588 17.0979 7.14077 17.078L7.14573 17.078L7.14573 17.3212L6.12332 17.7828L7.14573 18.2344L7.14573 18.4627L7.14077 18.4627C7.12588 18.4379 7.10603 18.423 7.09114 18.4081C7.07625 18.3932 7.05639 18.3833 7.04151 18.3734C7.02165 18.3635 7.0018 18.3585 6.98195 18.3535C6.95713 18.3486 6.93232 18.3486 6.90254 18.3486L6.16799 18.3486C6.13821 18.3486 6.11339 18.3486 6.09354 18.3535C6.07369 18.3535 6.05383 18.3585 6.03398 18.3635C6.01413 18.3684 5.99924 18.3734 5.97939 18.3833C5.95953 18.3932 5.93968 18.4032 5.91983 18.4181L5.91487 18.4181L5.91487 18.1451L5.91983 18.1451C5.93968 18.16 5.95953 18.1699 5.97939 18.1798C5.99924 18.1898 6.01413 18.1947 6.03398 18.1997C6.05383 18.2046 6.07369 18.2096 6.09354 18.2096C6.11339 18.2096 6.14317 18.2146 6.16799 18.2146L7.01173 18.2146L5.94465 17.7431L5.94465 17.7133L7.01669 17.2269L6.18784 17.2319C6.15806 17.2319 6.12828 17.2319 6.10347 17.2368C6.07865 17.2418 6.0588 17.2468 6.03895 17.2567C6.01909 17.2666 5.99924 17.2765 5.97939 17.2914C5.95953 17.3063 5.93472 17.3262 5.9099 17.351L5.90494 17.351L5.90494 17.0929V17.0929ZM7.01669 18.7506C6.99187 18.7506 6.97202 18.7407 6.95713 18.7258C6.94224 18.7109 6.93232 18.691 6.93232 18.6662C6.93232 18.6414 6.94224 18.6265 6.95713 18.6067C6.97202 18.5918 6.99187 18.5818 7.01669 18.5818C7.04151 18.5818 7.0564 18.5918 7.07625 18.6067C7.09114 18.6216 7.10106 18.6414 7.10106 18.6662C7.10106 18.691 7.09114 18.7059 7.07625 18.7258C7.06136 18.7407 7.04151 18.7506 7.01669 18.7506ZM5.9099 18.5769C5.94465 18.5918 5.98435 18.6017 6.02406 18.6067C6.06376 18.6116 6.10843 18.6166 6.16799 18.6166L6.48067 18.6166C6.52037 18.6166 6.55511 18.6067 6.58489 18.5918C6.60971 18.5769 6.63453 18.557 6.64942 18.5421L6.65438 18.5421L6.74372 18.7407L6.16799 18.7407C6.10843 18.7407 6.0588 18.7407 6.02406 18.7456C5.98435 18.7506 5.94961 18.7605 5.9099 18.7754L5.90494 18.7754L5.90494 18.5769L5.9099 18.5769V18.5769ZM6.09354 19.5894C6.02902 19.5646 5.97939 19.5298 5.93968 19.4752C5.89998 19.4206 5.88012 19.3561 5.88012 19.2717C5.88012 19.2171 5.89005 19.1675 5.9099 19.1228C5.92976 19.0782 5.95457 19.0385 5.98931 19.0037C6.02406 18.969 6.06872 18.9442 6.11836 18.9293C6.16799 18.9094 6.22755 18.9045 6.2871 18.9045C6.35659 18.9045 6.41615 18.9144 6.47074 18.9392C6.52534 18.964 6.57 18.9938 6.60971 19.0335C6.64942 19.0732 6.67919 19.1179 6.69905 19.1675C6.7189 19.2171 6.72883 19.2717 6.72883 19.3263C6.72883 19.3809 6.72386 19.4305 6.70897 19.4653C6.69905 19.5 6.68416 19.5298 6.67919 19.5497L6.50548 19.5646L6.50052 19.5497C6.52534 19.5348 6.55015 19.5149 6.57497 19.5C6.59978 19.4802 6.61964 19.4603 6.63453 19.4405C6.64941 19.4206 6.6643 19.3958 6.67423 19.371C6.68416 19.3462 6.68912 19.3214 6.68912 19.2965C6.68912 19.2122 6.65934 19.1476 6.59482 19.098C6.5303 19.0484 6.44593 19.0236 6.33177 19.0236C6.22258 19.0236 6.13821 19.0484 6.07369 19.098C6.00917 19.1476 5.97939 19.2221 5.97939 19.3164C5.97939 19.366 5.98931 19.4107 6.0042 19.4554C6.01909 19.5 6.04887 19.5397 6.08858 19.5695L6.08361 19.5794L6.09354 19.5894ZM5.9099 19.7432C5.92976 19.7532 5.94464 19.7581 5.9645 19.7631C5.98435 19.768 5.99924 19.773 6.02406 19.773C6.04391 19.773 6.06376 19.778 6.08858 19.778C6.11339 19.778 6.13821 19.778 6.16799 19.778L6.48563 19.778C6.5303 19.778 6.56504 19.768 6.58986 19.7532C6.61467 19.7383 6.63949 19.7184 6.65438 19.7035L6.65934 19.7035L6.74868 19.8921L6.54519 19.8921L6.54519 19.902C6.56504 19.9219 6.58489 19.9368 6.60971 19.9566C6.63453 19.9765 6.65438 19.9963 6.67423 20.0212C6.69408 20.041 6.70897 20.0658 6.72386 20.0906C6.73875 20.1155 6.74372 20.1403 6.74372 20.1701L6.57497 20.1701L6.57497 20.1651C6.57993 20.1601 6.58489 20.1502 6.58986 20.1403C6.59482 20.1304 6.59978 20.1155 6.59978 20.1055C6.60475 20.0906 6.60475 20.0807 6.60971 20.0658C6.60971 20.0559 6.61467 20.041 6.61467 20.0311C6.61467 20.0162 6.60475 19.9963 6.58489 19.9715C6.56504 19.9467 6.54023 19.9219 6.51045 19.902L6.17791 19.902C6.11836 19.902 6.06872 19.902 6.03398 19.907C5.99428 19.912 5.95953 19.9219 5.91983 19.9368L5.91487 19.9368L5.91487 19.7383L5.91983 19.7383L5.9099 19.7432ZM5.88012 20.6713C5.88012 20.6118 5.89005 20.5572 5.91487 20.5076C5.93968 20.4579 5.96946 20.4133 6.00917 20.3735C6.04887 20.3338 6.09354 20.3041 6.14317 20.2842C6.1928 20.2594 6.2474 20.2495 6.30696 20.2495C6.36651 20.2495 6.42111 20.2594 6.47074 20.2842C6.52037 20.309 6.57 20.3388 6.60475 20.3785C6.64445 20.4182 6.67423 20.4629 6.69905 20.5125C6.72386 20.5622 6.73379 20.6167 6.73379 20.6763C6.73379 20.7359 6.72386 20.7905 6.69905 20.8401C6.67423 20.8897 6.64445 20.9344 6.60475 20.9741C6.56504 21.0138 6.52037 21.0436 6.47074 21.0634C6.42111 21.0882 6.36155 21.0982 6.30696 21.0982C6.2474 21.0982 6.1928 21.0882 6.14317 21.0634C6.09354 21.0386 6.04887 21.0088 6.00917 20.9741C5.96946 20.9344 5.93968 20.8897 5.91487 20.8401C5.89005 20.7905 5.88012 20.7359 5.88012 20.6763L5.88012 20.6713ZM5.9099 20.6713C5.9099 20.721 5.91983 20.7607 5.93968 20.7954C5.95953 20.8302 5.98931 20.8599 6.02406 20.8848C6.0588 20.9096 6.10347 20.9245 6.14813 20.9393C6.19777 20.9493 6.2474 20.9542 6.29703 20.9542C6.35162 20.9542 6.40126 20.9493 6.44593 20.9344C6.49556 20.9245 6.53526 20.9046 6.57 20.8798C6.60475 20.855 6.63453 20.8252 6.65934 20.7905C6.67919 20.7557 6.68912 20.716 6.68912 20.6664C6.68912 20.6167 6.67919 20.577 6.65934 20.5423C6.63949 20.5076 6.60971 20.4778 6.57 20.453C6.53526 20.4281 6.49059 20.4133 6.44593 20.3984C6.39629 20.3884 6.34666 20.3785 6.29703 20.3785C6.24243 20.3785 6.1928 20.3835 6.14813 20.3934C6.0985 20.4033 6.0588 20.4232 6.02406 20.448C5.98931 20.4728 5.95953 20.5026 5.93968 20.5373C5.91983 20.5721 5.9099 20.6118 5.9099 20.6614L5.9099 20.6713ZM5.90494 21.5002C5.92479 21.5151 5.94464 21.525 5.9645 21.5349C5.98435 21.5449 5.99924 21.5498 6.01909 21.5548C6.03895 21.5597 6.0588 21.5647 6.07865 21.5647C6.0985 21.5647 6.12332 21.5697 6.1531 21.5697L6.88268 21.5697C6.91246 21.5697 6.93728 21.5697 6.95713 21.5647C6.97698 21.5647 6.99684 21.5597 7.01669 21.5548C7.03654 21.5498 7.05143 21.5449 7.07129 21.5349C7.09114 21.525 7.11099 21.5151 7.13084 21.5002L7.13581 21.5002L7.13581 21.7732L7.13084 21.7732C7.11099 21.7583 7.09114 21.7483 7.07129 21.7384C7.05143 21.7285 7.03654 21.7235 7.01669 21.7186C6.99684 21.7136 6.97698 21.7086 6.95713 21.7086C6.93728 21.7086 6.91246 21.7037 6.88268 21.7037L6.1531 21.7037C6.12332 21.7037 6.0985 21.7037 6.07865 21.7086C6.0588 21.7086 6.03895 21.7136 6.01909 21.7186C5.99924 21.7235 5.98435 21.7285 5.9645 21.7384C5.94464 21.7483 5.92479 21.7583 5.90494 21.7732L5.89998 21.7732L5.89998 21.5002L5.90494 21.5002ZM5.89998 22.1255L5.89998 21.927L5.90494 21.927C5.92479 21.9369 5.93968 21.9419 5.95953 21.9469C5.97939 21.9518 5.99428 21.9568 6.01909 21.9568C6.03895 21.9568 6.0588 21.9618 6.08361 21.9618C6.10843 21.9618 6.13325 21.9618 6.16302 21.9618L6.48067 21.9618C6.52534 21.9618 6.56008 21.9518 6.58489 21.9369C6.60971 21.9221 6.63453 21.9022 6.64942 21.8873L6.65438 21.8873L6.74372 22.0759L6.58489 22.0759L6.58489 22.0809C6.63453 22.1206 6.66927 22.1653 6.69408 22.2149C6.7189 22.2645 6.73379 22.3142 6.73379 22.3737C6.73379 22.4531 6.71394 22.5127 6.66927 22.5524C6.6246 22.5921 6.56504 22.6119 6.49059 22.6119L6.16799 22.6119C6.13821 22.6119 6.10843 22.6119 6.08858 22.6119C6.06376 22.6119 6.04391 22.6119 6.02406 22.6169C6.0042 22.6169 5.98435 22.6219 5.9645 22.6268C5.94464 22.6318 5.92976 22.6368 5.9099 22.6467L5.90494 22.6467L5.90494 22.4482L5.9099 22.4482C5.94465 22.463 5.98435 22.473 6.02406 22.4779C6.06376 22.4829 6.10843 22.4829 6.16799 22.4829L6.46081 22.4829C6.48563 22.4829 6.51045 22.4779 6.53526 22.473C6.56008 22.468 6.57993 22.4581 6.59482 22.4432C6.61467 22.4283 6.6246 22.4134 6.63453 22.3886C6.64445 22.3638 6.64942 22.339 6.64942 22.3092C6.64942 22.2695 6.63949 22.2298 6.6246 22.1901C6.60971 22.1504 6.58489 22.1107 6.55015 22.0809L6.16302 22.0809C6.10347 22.0809 6.05383 22.0809 6.01909 22.0858C5.97939 22.0908 5.94464 22.1007 5.90494 22.1156L5.89998 22.1156L5.89998 22.1255ZM5.90494 22.8353C5.92976 22.8502 5.95457 22.8601 5.98931 22.8651C6.02406 22.87 6.07369 22.875 6.13821 22.875L6.67423 22.875L6.67423 22.7708L6.70401 22.7708L6.70401 22.875L6.84794 22.875C6.9075 22.875 6.95713 22.88 7.0018 22.8948C7.04647 22.9097 7.08617 22.9296 7.11595 22.9544C7.14573 22.9792 7.17055 23.009 7.1904 23.0437C7.20529 23.0785 7.21522 23.1182 7.21522 23.1579C7.21522 23.1827 7.21025 23.2075 7.20529 23.2274C7.20033 23.2472 7.19536 23.2621 7.1904 23.272L7.03654 23.2919L7.03158 23.282C7.05143 23.272 7.06632 23.2572 7.08617 23.2423C7.10603 23.2274 7.12092 23.2174 7.13581 23.2026C7.1507 23.1877 7.16062 23.1728 7.17055 23.1629C7.18047 23.148 7.18544 23.1331 7.18544 23.1182C7.18544 23.0834 7.16559 23.0537 7.12092 23.0288C7.07625 23.004 7.01173 22.9941 6.92239 22.9941L6.70401 22.9941L6.70401 23.1926L6.67423 23.1926L6.67423 22.9941L6.13821 22.9941C6.07369 22.9941 6.02406 22.9991 5.98931 23.004C5.95457 23.009 5.92976 23.0189 5.90494 23.0338L5.89998 23.0338L5.89998 22.8303L5.90494 22.8303L5.90494 22.8353ZM6.05383 23.823C6.02902 23.8081 6.00917 23.7882 5.98931 23.7733C5.96946 23.7535 5.94961 23.7336 5.92976 23.7138C5.91487 23.6939 5.89998 23.6691 5.89005 23.6393C5.88012 23.6095 5.87516 23.5798 5.87516 23.545C5.87516 23.4706 5.89998 23.416 5.94464 23.3812C5.98931 23.3465 6.05383 23.3266 6.13325 23.3266L6.55511 23.3266C6.58986 23.3266 6.61964 23.3217 6.63949 23.3068C6.6643 23.2919 6.67919 23.277 6.69408 23.2572L6.69905 23.2572L6.69905 23.4507L6.15806 23.4507C6.03398 23.4507 5.96946 23.5053 5.96946 23.6145C5.96946 23.6641 5.97939 23.7038 5.99924 23.7386C6.01909 23.7733 6.04391 23.7981 6.07369 23.818L6.55015 23.818C6.61467 23.818 6.65934 23.7932 6.69408 23.7435L6.69905 23.7435L6.69905 23.9421L6.12828 23.9421C6.09354 23.9421 6.06376 23.9421 6.04391 23.947C6.02406 23.952 6.0042 23.952 5.98931 23.9619C5.97442 23.9669 5.9645 23.9768 5.95457 23.9867C5.94465 23.9967 5.93968 24.0066 5.92976 24.0215L5.92479 24.0215L5.8702 23.8329L6.04391 23.8329L6.05383 23.823ZM6.5303 24.6121L6.52534 24.6022C6.58986 24.5674 6.63453 24.5277 6.65934 24.488C6.68416 24.4483 6.69408 24.4086 6.69408 24.3689C6.69408 24.3193 6.67919 24.2796 6.65438 24.2498C6.62956 24.22 6.59482 24.2051 6.55511 24.2051C6.5303 24.2051 6.50548 24.2101 6.49059 24.225C6.47074 24.2349 6.45585 24.2547 6.44593 24.2746C6.43104 24.2945 6.42111 24.3193 6.40622 24.3441C6.39629 24.3689 6.38637 24.3987 6.37148 24.4285C6.36155 24.4582 6.34666 24.488 6.33177 24.5178C6.31688 24.5476 6.30199 24.5724 6.28214 24.5922C6.26229 24.6171 6.23747 24.632 6.20769 24.6468C6.17791 24.6617 6.14317 24.6667 6.10347 24.6667C6.02406 24.6667 5.96946 24.6369 5.92479 24.5823C5.88509 24.5277 5.86523 24.4533 5.86523 24.359C5.86523 24.3093 5.8702 24.2647 5.88012 24.225C5.89005 24.1853 5.89998 24.1505 5.91487 24.1207L6.10843 24.1059L6.11339 24.1158C6.03895 24.1505 5.98435 24.1902 5.95457 24.2299C5.91983 24.2696 5.90494 24.3193 5.90494 24.3788C5.90494 24.4384 5.91983 24.488 5.95457 24.5178C5.98931 24.5476 6.02406 24.5625 6.06376 24.5625C6.08858 24.5625 6.10843 24.5575 6.12828 24.5476C6.14814 24.5376 6.16302 24.5228 6.17791 24.5079C6.1928 24.488 6.20769 24.4682 6.21762 24.4433C6.22755 24.4185 6.23747 24.3937 6.25236 24.3639C6.26229 24.3342 6.27718 24.3093 6.2871 24.2796C6.30199 24.2498 6.31688 24.225 6.33673 24.2002C6.35659 24.1753 6.3814 24.1555 6.40622 24.1406C6.436 24.1257 6.46578 24.1158 6.50548 24.1158C6.54519 24.1158 6.57993 24.1257 6.60971 24.1406C6.63949 24.1555 6.65934 24.1803 6.67919 24.2051C6.69905 24.2299 6.70897 24.2647 6.71394 24.2945C6.7189 24.3292 6.72386 24.3639 6.72386 24.3987C6.72386 24.4334 6.7189 24.4731 6.71394 24.5079C6.70897 24.5426 6.69905 24.5724 6.68912 24.5972L6.52534 24.6121L6.5303 24.6121ZM7.01173 24.9546C6.98691 24.9546 6.96706 24.9446 6.95217 24.9297C6.93728 24.9149 6.92735 24.895 6.92735 24.8702C6.92735 24.8454 6.93728 24.8305 6.95217 24.8106C6.96706 24.7957 6.98691 24.7858 7.01173 24.7858C7.03654 24.7858 7.05143 24.7957 7.07128 24.8106C7.08617 24.8255 7.0961 24.8454 7.0961 24.8702C7.0961 24.895 7.08617 24.9099 7.07128 24.9297C7.0564 24.9446 7.03654 24.9546 7.01173 24.9546ZM5.90494 24.7808C5.93968 24.7957 5.97939 24.8057 6.01909 24.8106C6.0588 24.8156 6.10347 24.8206 6.16302 24.8206L6.4757 24.8206C6.51541 24.8206 6.55015 24.8106 6.57993 24.7957C6.60475 24.7808 6.62956 24.761 6.64445 24.7461L6.64942 24.7461L6.73875 24.9446L6.16302 24.9446C6.10347 24.9446 6.05383 24.9446 6.01909 24.9496C5.97939 24.9546 5.94464 24.9645 5.90494 24.9794L5.89998 24.9794L5.89998 24.7808L5.90494 24.7808V24.7808ZM5.87516 25.5253C5.87516 25.4658 5.88509 25.4112 5.9099 25.3615C5.93472 25.3119 5.9645 25.2672 6.0042 25.2275C6.04391 25.1878 6.08858 25.158 6.13821 25.1382C6.18784 25.1134 6.24243 25.1035 6.30199 25.1035C6.36155 25.1035 6.41615 25.1134 6.46578 25.1382C6.51541 25.163 6.56504 25.1928 6.59978 25.2325C6.63949 25.2722 6.66927 25.3169 6.69408 25.3665C6.7189 25.4161 6.72883 25.4707 6.72883 25.5303C6.72883 25.5898 6.7189 25.6444 6.69408 25.6941C6.66927 25.7437 6.63949 25.7884 6.59978 25.8281C6.56008 25.8678 6.51541 25.8976 6.46578 25.9174C6.41615 25.9422 6.35659 25.9522 6.30199 25.9522C6.24243 25.9522 6.18784 25.9422 6.13821 25.9174C6.08858 25.8926 6.04391 25.8628 6.0042 25.8281C5.9645 25.7884 5.93472 25.7437 5.9099 25.6941C5.88509 25.6444 5.87516 25.5898 5.87516 25.5303L5.87516 25.5253ZM5.90494 25.5253C5.90494 25.575 5.91487 25.6147 5.93472 25.6494C5.95457 25.6841 5.98435 25.7139 6.01909 25.7387C6.05383 25.7636 6.0985 25.7784 6.14317 25.7933C6.1928 25.8033 6.24244 25.8082 6.29207 25.8082C6.34666 25.8082 6.39629 25.8033 6.44096 25.7884C6.49059 25.7784 6.5303 25.7586 6.56504 25.7338C6.59978 25.709 6.62956 25.6792 6.65438 25.6444C6.67423 25.6097 6.68416 25.57 6.68416 25.5204C6.68416 25.4707 6.67423 25.431 6.65438 25.3963C6.63453 25.3615 6.60475 25.3318 6.56504 25.3069C6.5303 25.2821 6.48563 25.2672 6.44096 25.2523C6.39133 25.2424 6.3417 25.2325 6.29207 25.2325C6.23747 25.2325 6.18784 25.2375 6.14317 25.2474C6.09354 25.2573 6.05383 25.2772 6.01909 25.302C5.98435 25.3268 5.95457 25.3566 5.93472 25.3913C5.91487 25.4261 5.90494 25.4658 5.90494 25.5154L5.90494 25.5253ZM5.89998 26.2847L5.89998 26.0862L5.90494 26.0862C5.92479 26.0961 5.93968 26.101 5.95953 26.106C5.97939 26.111 5.99428 26.1159 6.01909 26.1159C6.03894 26.1159 6.0588 26.1209 6.08361 26.1209C6.10843 26.1209 6.13325 26.1209 6.16302 26.1209L6.48067 26.1209C6.52534 26.1209 6.56008 26.111 6.58489 26.0961C6.60971 26.0812 6.63453 26.0613 6.64942 26.0465L6.65438 26.0465L6.74372 26.2351L6.58489 26.2351L6.58489 26.24C6.63453 26.2797 6.66927 26.3244 6.69408 26.374C6.7189 26.4237 6.73379 26.4733 6.73379 26.5328C6.73379 26.6123 6.71394 26.6718 6.66927 26.7115C6.6246 26.7512 6.56504 26.7711 6.49059 26.7711L6.16799 26.7711C6.13821 26.7711 6.10843 26.7711 6.08858 26.7711C6.06376 26.7711 6.04391 26.7711 6.02406 26.776C6.0042 26.776 5.98435 26.781 5.9645 26.786C5.94464 26.7909 5.92976 26.7959 5.9099 26.8058L5.90494 26.8058L5.90494 26.6073L5.9099 26.6073C5.94464 26.6222 5.98435 26.6321 6.02406 26.6371C6.06376 26.642 6.10843 26.642 6.16799 26.642L6.46081 26.642C6.48563 26.642 6.51045 26.6371 6.53526 26.6321C6.56008 26.6271 6.57993 26.6172 6.59482 26.6023C6.61467 26.5874 6.6246 26.5726 6.63453 26.5477C6.64445 26.5229 6.64942 26.4981 6.64942 26.4683C6.64942 26.4286 6.63949 26.3889 6.6246 26.3492C6.60971 26.3095 6.58489 26.2698 6.55015 26.24L6.16302 26.24C6.10347 26.24 6.05383 26.24 6.01909 26.245C5.97939 26.2499 5.94464 26.2599 5.90494 26.2748L5.89998 26.2748L5.89998 26.2847Z" fill="#212428"/>
<path d="M8.45068 21.9608L8.45068 28.2689" stroke="#212428" stroke-width="0.401769"/>
<path d="M7.13477 23.7606L12.2617 23.7674" stroke="#212428" stroke-width="0.401769"/>
<path fill-rule="evenodd" clip-rule="evenodd" d="M0.524414 8.47206L0.524414 12.1498L6.34125 12.1498L12.1581 12.1498L12.1581 8.47206C11.5228 8.26361 6.34125 8.26361 6.34125 8.26361C6.34125 8.26361 1.1597 8.26361 0.524414 8.47206Z" fill="white" stroke="#212428" stroke-width="0.7027" stroke-miterlimit="2.61313"/>
<path fill-rule="evenodd" clip-rule="evenodd" d="M1.4412 8.368C1.4412 7.51433 1.3866 6.26858 1.50572 5.07245C1.65958 3.50905 2.1013 2.03499 3.32224 1.62305L6.32 1.62305L9.31775 1.62305C11.4817 2.35263 11.1988 6.40258 11.1988 8.368C9.51628 8.26873 6.33985 8.26873 6.33985 8.26873L6.32 8.26873C6.06191 8.26873 3.03934 8.2737 1.4412 8.368Z" fill="white" stroke="#212428" stroke-width="0.7027" stroke-miterlimit="2.61313"/>
<path d="M1.43848 6.52112C4.20296 6.14392 8.42662 6.14392 11.1861 6.52112" stroke="#212428" stroke-width="0.64283" stroke-miterlimit="2.61313"/>
<path d="M2.92285 0.708984L2.92285 6.27766" stroke="#212428" stroke-width="0.64283" stroke-miterlimit="2.61313" stroke-linecap="round" stroke-linejoin="round"/>
<path d="M4.28174 0.708984L4.28174 6.27766" stroke="#212428" stroke-width="0.64283" stroke-miterlimit="2.61313" stroke-linecap="round" stroke-linejoin="round"/>
<path d="M5.64746 0.708984L5.64746 6.27766" stroke="#212428" stroke-width="0.64283" stroke-miterlimit="2.61313" stroke-linecap="round" stroke-linejoin="round"/>
<path d="M7.01221 0.708984L7.01221 6.27766" stroke="#212428" stroke-width="0.64283" stroke-miterlimit="2.61313" stroke-linecap="round" stroke-linejoin="round"/>
<path d="M8.37842 0.708984L8.37842 6.27766" stroke="#212428" stroke-width="0.64283" stroke-miterlimit="2.61313" stroke-linecap="round" stroke-linejoin="round"/>
<path d="M9.73682 0.708984L9.73682 6.27766" stroke="#212428" stroke-width="0.64283" stroke-miterlimit="2.61313" stroke-linecap="round" stroke-linejoin="round"/>
</svg>
