<svg width="50" height="51" viewBox="0 0 50 51" fill="none" xmlns="http://www.w3.org/2000/svg">
<path fill-rule="evenodd" clip-rule="evenodd" d="M21.5349 35.508C22.5738 35.9951 23.7511 36.2703 24.9978 36.2703C26.2444 36.2703 27.4218 35.9951 28.4607 35.508C30.9771 34.3434 32.6855 31.9506 32.6855 29.2189C32.6855 29.0495 32.6855 28.9013 32.6624 28.7319C32.6624 28.7319 32.6624 28.7107 32.6624 28.6896H32.6855C32.7085 28.2449 32.5931 24.8992 24.9978 14.7773C17.4256 24.8992 17.287 28.2449 17.3101 28.6896H17.3332C17.3332 28.7319 17.3332 28.7319 17.3332 28.7319C17.3101 28.9013 17.3101 29.0495 17.3101 29.2189C17.3101 31.9717 19.0185 34.3646 21.5349 35.508Z" stroke="#212428" stroke-width="1.25" stroke-miterlimit="2.61313" stroke-linecap="round" stroke-linejoin="round"/>
<path d="M21.0156 28.1794L23.6716 30.8353L28.9835 25.5234" stroke="#212428" stroke-width="1.25" stroke-linecap="round" stroke-linejoin="round"/>
<path d="M25.001 6.8916C25.1506 6.8916 25.2945 6.95333 25.3975 7.0625L25.4121 7.07715C25.4219 7.08693 25.4362 7.10102 25.4551 7.11914C25.493 7.15564 25.5495 7.20879 25.624 7.27539C25.773 7.40858 25.9952 7.59683 26.291 7.82227C26.8829 8.27341 27.77 8.87208 28.958 9.46973C31.3339 10.6649 34.9154 11.8573 39.749 11.8574C39.8439 11.8574 39.9394 11.8579 40.0342 11.8564C40.1486 11.8534 40.2546 11.887 40.3438 11.9463L40.4268 12.0137L40.4287 12.0146C40.5307 12.1168 40.5898 12.2575 40.5898 12.4033V25.2451L40.5908 25.2881C40.594 25.4347 40.6402 28.8158 38.7666 32.917C37.0366 36.7022 33.2746 41.8073 25.1836 44.6729L25.1826 44.6738C25.1239 44.6941 25.0623 44.7041 25.001 44.7041C24.9396 44.7041 24.8781 44.6941 24.8193 44.6738L24.8184 44.6729C16.7272 41.8072 12.9654 36.7022 11.2354 32.917C9.59474 29.3284 9.42559 26.2918 9.41113 25.4854V12.4033C9.41118 12.2588 9.46772 12.1172 9.57324 12.0137C9.67559 11.9133 9.81511 11.8526 9.96582 11.8564C10.0608 11.8579 10.1559 11.8574 10.251 11.8574C19.9176 11.8574 24.5779 7.09002 24.6064 7.06055C24.7093 6.9525 24.8522 6.89162 25.001 6.8916ZM24.998 8.19043C23.6625 9.37146 18.9818 12.8816 10.5039 12.9492V25.293C10.5039 25.3245 10.4604 28.6105 12.2441 32.4951C13.8723 36.0377 17.4024 40.8275 24.999 43.5742C32.4387 40.8846 35.9793 36.2355 37.6504 32.7168L37.752 32.4951C39.5311 28.6194 39.4934 25.3418 39.4932 25.3008V12.9492C31.0122 12.8829 26.3332 9.37164 24.998 8.19043Z" fill="#212428" stroke="#212428" stroke-width="0.3125"/>
</svg>
