<svg width="30" height="30" viewBox="0 0 30 30" fill="none" xmlns="http://www.w3.org/2000/svg">
<path d="M14.5017 15.1559V9.15588L13.4817 9.81588L12.9417 8.91588L14.8617 7.59588H15.6417V15.1559H14.5017Z" fill="#212428"/>
<path d="M9.70922 21.1072V19.6372L8.50922 17.3272H9.10922L9.97922 19.0372H10.0092L10.8792 17.3272H11.4792L10.2792 19.6372V21.1072H9.70922ZM11.9871 21.1072V17.3272H14.4771V17.8672H12.5571V18.8872H14.3271V19.4272H12.5571V20.5672H14.5371V21.1072H11.9871ZM14.8359 21.1072L16.2759 17.3272H16.7559L18.1959 21.1072H17.5959L17.2659 20.2372H15.7659L15.4359 21.1072H14.8359ZM15.9759 19.6972H17.0559L16.5159 18.1972L15.9759 19.6972ZM18.6434 21.1072V17.3272H20.1434C20.7734 17.3272 21.2834 17.8372 21.2834 18.4672C21.2834 18.9052 21.0734 19.1692 20.8634 19.3312C20.7374 19.4272 20.5994 19.4992 20.4434 19.5472L21.3734 21.1072H20.7434L19.8734 19.6072H19.2134V21.1072H18.6434ZM19.2134 19.0672H20.1434C20.4434 19.0672 20.7134 18.7972 20.7134 18.4672C20.7134 18.1372 20.4434 17.8672 20.1434 17.8672H19.2134V19.0672Z" fill="#212428"/>
<circle cx="15.0869" cy="15" r="12.125" stroke="#212428" stroke-width="0.75"/>
</svg>
