<svg width="29" height="27" viewBox="0 0 29 27" fill="none" xmlns="http://www.w3.org/2000/svg">
<g clip-path="url(#clip0_244_10961)">
<path d="M28.6651 11.745V11.595H28.6151V11.3951L28.5151 11.09L28.4151 10.89L28.3651 10.84V10.635L28.3251 10.6451L28.3151 10.585L28.2651 10.08V7.81L28.3051 6.345H28.3151V6.245C28.3151 6.195 28.3651 6.195 28.3651 6.195V6.045H28.1651C28.1651 6.045 28.1751 6.035 28.1801 6.03L28.3201 6.045V5.795L28.4201 5.54502L28.5701 4.94002L28.5951 4.70003L28.6201 4.68502V3.88002L28.5701 3.78003V3.47502C28.5201 3.42502 28.5201 3.32503 28.5201 3.32503C28.4701 3.27503 28.4201 3.17502 28.4201 3.17502C28.3701 3.17502 28.3201 3.07503 28.3201 3.07503L28.2201 2.97502C28.2201 2.92502 28.1201 2.87503 28.1201 2.87503C28.0701 2.82503 27.9701 2.77502 27.9701 2.77502C27.9201 2.72502 27.8201 2.67502 27.8201 2.67502C27.7701 2.62503 27.7201 2.57502 27.6701 2.57502C27.6201 2.52503 27.5701 2.47503 27.4651 2.47503C27.3651 2.42503 27.3151 2.37503 27.2601 2.37503C27.2101 2.32503 27.1101 2.27503 27.0551 2.27503C27.0051 2.22503 26.8501 2.17502 26.8501 2.17502L26.1401 1.92502C26.0901 1.82502 25.9901 1.82502 25.8851 1.82502C25.7351 1.77503 25.5301 1.67502 25.3251 1.67502C25.1201 1.62502 24.9201 1.52503 24.7151 1.52503C24.5101 1.47502 24.2601 1.37502 24.0551 1.37502C23.8001 1.37502 23.6001 1.27503 23.3451 1.27503C23.0901 1.22502 22.8401 1.17502 22.5851 1.17502C22.2801 1.12502 22.0251 1.07502 21.7751 1.07502C21.4701 1.02502 21.2151 0.975025 20.9151 0.975025V1.17502L20.8701 1.50503C20.8701 1.50503 20.8351 1.50002 20.8151 1.49502V1.12502C20.7801 1.12502 20.7451 1.12002 20.7101 1.11502V0.975025C20.4551 0.875025 20.1501 0.875025 19.9001 0.875025C19.6451 0.825025 19.3401 0.825025 19.0901 0.825025C18.7851 0.775024 18.5301 0.775024 18.2301 0.775024H12.0901C11.5301 0.825025 10.9251 0.875025 10.3651 0.875025C9.80514 0.925025 9.25014 0.975025 8.69014 1.02502C8.43514 1.07502 8.13014 1.12502 7.88014 1.12502C7.47514 1.17502 7.12014 1.22502 6.71514 1.27503C6.59514 1.29002 6.48014 1.31003 6.36014 1.32503C6.23014 1.32503 6.11514 1.35002 6.00514 1.37502C5.89014 1.39002 5.77014 1.41003 5.65514 1.42502C5.45014 1.42502 5.25015 1.52503 4.99515 1.52503C4.74015 1.52503 4.54015 1.62502 4.33515 1.62502C4.13015 1.67502 3.93015 1.77503 3.72515 1.77503C3.52015 1.82502 3.37015 1.92502 3.16515 1.92502C3.01515 1.97502 2.81015 2.02503 2.66015 2.07502C2.59515 2.09502 2.53015 2.12003 2.46515 2.14003C2.44515 2.14003 2.43015 2.15003 2.41515 2.15503C2.34515 2.18002 2.27515 2.20003 2.20515 2.22503C2.10515 2.22503 2.00515 2.32502 1.90015 2.32502C1.79515 2.32502 1.69515 2.42502 1.59515 2.42502C1.49515 2.47502 1.44515 2.57502 1.34015 2.57502C1.29015 2.62502 1.19015 2.72503 1.13515 2.72503C1.08515 2.77503 1.03515 2.77502 1.03515 2.77502C0.985154 2.77502 0.935154 2.82503 0.935154 2.82503C0.885154 2.87503 0.835154 2.87503 0.835154 2.87503C0.785154 2.92502 0.735156 2.97502 0.735156 2.97502C0.685156 3.02502 0.685156 3.07503 0.685156 3.07503C0.640156 3.12003 0.635156 3.12503 0.635156 3.12503C0.625156 3.13503 0.620156 3.14503 0.615156 3.15503C0.600156 3.16502 0.585156 3.17502 0.585156 3.17502C0.535156 3.17502 0.485156 3.27502 0.485156 3.27502C0.435156 3.27502 0.385156 3.37503 0.385156 3.37503C0.335156 3.42502 0.335156 3.52502 0.335156 3.52502C0.285156 3.57502 0.285156 3.67502 0.285156 3.67502V3.98003V4.58503L0.300156 4.60002L0.335156 4.74003L0.385156 4.99003L0.535156 5.24003L0.585156 5.54502V5.55503L0.685156 7.66V8.97005L0.635156 10.03L0.585156 10.33L0.535156 10.58L0.330156 11.1851V11.69H0.685156L0.695156 11.625C0.695156 11.625 0.740156 11.67 0.740156 11.695C0.790154 11.745 0.890154 11.845 0.890154 11.845C0.890154 11.845 0.900154 11.855 0.905154 11.86C0.870154 11.885 0.840154 11.945 0.840154 11.945C0.810154 11.96 0.790154 11.98 0.775154 12L0.675156 12.045H0.590156L0.610156 12.03L0.740156 11.995V11.695H0.305156V12.095H0.355156V12.195L0.405156 12.1451V12.195C0.405156 12.195 0.415156 12.205 0.420156 12.21L0.355156 12.245L0.455156 12.3951L0.660156 12.595L0.810154 12.745L1.06515 12.925V12.945C1.11515 13.045 1.16515 13.045 1.16515 13.045H1.29015C1.35015 13.095 1.39515 13.1451 1.47015 13.1451C1.52015 13.1451 1.62015 13.245 1.72515 13.245C1.83015 13.245 1.93015 13.345 2.03015 13.345C2.13015 13.3951 2.23515 13.445 2.33515 13.445C2.43515 13.495 2.59015 13.545 2.69015 13.545C2.79015 13.595 2.94515 13.6451 3.04515 13.6451C3.19515 13.6951 3.30015 13.745 3.45015 13.745C3.55015 13.795 3.70515 13.845 3.85515 13.845C4.00515 13.8951 4.16015 13.945 4.31015 13.945C4.46015 13.995 4.61515 14.045 4.76515 14.045C4.97015 14.095 5.12015 14.1451 5.27014 14.1451C5.42014 14.1951 5.62514 14.245 5.77514 14.245C5.79014 14.245 5.81014 14.25 5.82514 14.255V15.86H6.23014L6.18514 14.32C6.40014 14.36 6.62014 14.4 6.83514 14.4C7.22514 14.45 7.56514 14.54 7.95014 14.55V14.605C8.25514 14.705 8.51014 14.705 8.76014 14.705C9.01514 14.755 9.32014 14.755 9.57014 14.755C9.87514 14.805 10.1301 14.805 10.4301 14.805H11.2951C11.6201 14.83 11.9251 14.845 12.2351 14.85L12.9701 14.905L14.2901 14.955L15.6101 14.905H16.9301L17.3351 14.855L17.4351 14.955H17.5351L17.6851 14.905V14.84L18.5951 14.805L18.6451 14.855H18.7451L18.7901 14.7701C19.1101 14.7351 19.4101 14.705 19.7101 14.705C20.1151 14.655 20.5201 14.605 20.9301 14.605C21.2851 14.605 21.6901 14.505 22.0451 14.505L22.7051 14.41V15.815H23.0601V14.36H23.1101C23.2601 14.3 23.4151 14.25 23.6151 14.25C23.8201 14.2 23.9701 14.15 24.1201 14.15C24.2701 14.1 24.4251 14.05 24.5751 14.05C24.7251 14 24.8801 13.95 25.0301 13.95C25.1801 13.9 25.2851 13.85 25.4351 13.85C25.5851 13.8 25.6901 13.75 25.8401 13.75C25.9401 13.7 26.0951 13.65 26.1951 13.65C26.3451 13.6 26.5501 13.55 26.5501 13.55L26.4901 13.35C26.4901 13.35 26.4901 13.35 26.4951 13.35C26.5151 13.35 26.5301 13.35 26.5501 13.345L26.6801 13.575C26.6501 13.585 26.6251 13.595 26.5951 13.605H26.6951V13.595V13.6L26.7551 13.54C26.8301 13.51 26.9101 13.48 27.0001 13.45C27.1001 13.4 27.2051 13.35 27.2051 13.35L27.5601 13.15C27.6101 13.15 27.6601 13.1 27.7651 13.05C27.8151 13 27.8651 12.95 27.8651 12.95C27.9151 12.9 28.0151 12.85 28.0151 12.85L28.1151 12.75C28.1651 12.7 28.2151 12.65 28.2151 12.65C28.2651 12.6 28.3151 12.5 28.3151 12.5C28.3651 12.45 28.4151 12.35 28.4151 12.35C28.4401 12.3251 28.4551 12.28 28.4601 12.25C28.4651 12.225 28.4651 12.2 28.4651 12.2V11.745H28.3101H28.6651ZM27.9051 10.735V10.9351C27.8551 10.9851 27.8551 11.035 27.8551 11.035L27.7551 11.135C27.7051 11.1851 27.6551 11.235 27.6551 11.235C27.6401 11.25 27.6251 11.265 27.6051 11.275V6.675C27.6051 6.675 27.6401 6.645 27.6551 6.645C27.7051 6.595 27.8051 6.495 27.8051 6.495H27.8901L27.8501 7.805L27.9001 10.075V10.63L27.9351 10.72L27.8951 10.73L27.9051 10.735ZM18.6701 7.305L18.4701 7.505C18.4201 7.455 18.3201 7.455 18.3201 7.455C18.2701 7.405 18.2201 7.405 18.1701 7.405H17.5601V7H17.8651V6.86C17.8651 6.86 17.8851 6.86 17.8951 6.86L17.9651 7H18.1151V6.855V7.205H18.3201L18.5751 7.255V7.055L18.6251 7.255V7.305H18.6751H18.6701ZM19.7301 8.065C19.8301 8.165 19.8801 8.265 19.9351 8.37C19.9851 8.47 20.0851 8.57 20.0851 8.675C20.1351 8.775 20.2351 8.925 20.2351 9.03C20.2851 9.13 20.2351 9.28005 20.3351 9.38505C20.4351 9.48505 20.4351 9.63505 20.4351 9.74V10.495C20.4351 10.745 20.3851 11 20.3851 11.25C20.3351 11.4 20.2851 11.555 20.2851 11.655C20.2851 11.805 20.1851 11.96 20.1851 12.0601C20.0851 12.3101 19.9801 12.515 19.8801 12.765C19.8101 12.9001 19.6551 13.1451 19.5551 13.295L19.1651 13.01C19.1851 12.9801 19.2001 12.945 19.2151 12.915C19.2651 12.815 19.3651 12.715 19.3651 12.61C19.4151 12.56 19.4651 12.51 19.4651 12.41C19.5151 12.36 19.5151 12.26 19.5151 12.26C19.5651 12.1101 19.6151 12.01 19.6151 11.905C19.6651 11.755 19.7151 11.655 19.7151 11.55C19.7651 11.45 19.7651 11.3 19.7651 11.195V9.785C19.7151 9.63505 19.7151 9.43005 19.7151 9.43005L19.6151 9.125C19.6151 9.025 19.5151 8.925 19.5151 8.82C19.4651 8.77 19.3651 8.67 19.3651 8.67V8.52C19.3151 8.42 19.2651 8.32 19.2151 8.215C19.2101 8.215 19.2001 8.2 19.1951 8.195C19.2351 8.17 19.2701 8.16 19.2701 8.16C19.3201 8.11 19.3701 8.11 19.3701 8.11L19.6301 7.915C19.6651 7.96 19.7001 8.01 19.7251 8.055L19.7301 8.065ZM2.99015 3.86002L3.04015 3.82503L3.09015 3.72502L2.94015 3.57503H3.34515C3.39515 3.52503 3.44515 3.47502 3.49515 3.47502C3.54515 3.42502 3.64515 3.37503 3.70015 3.37503C3.75015 3.32503 3.85015 3.27502 3.90515 3.27502C3.97015 3.24502 4.04515 3.21502 4.10015 3.19502V3.21502C4.20515 3.19502 4.32515 3.12503 4.41515 3.12503C4.51515 3.07503 4.67015 3.02502 4.82015 3.02502C4.97016 2.97502 5.12515 2.92502 5.27514 2.92502C5.42514 2.87503 5.63014 2.82503 5.78014 2.82503C5.98514 2.77503 6.13514 2.72503 6.34014 2.72503C6.49014 2.67503 6.69514 2.62503 6.90014 2.62503C7.10514 2.57503 7.30514 2.52503 7.51014 2.52503C7.71514 2.47503 8.12014 2.47503 8.12014 2.47503V2.45502L8.33014 2.72503C8.18014 2.75503 8.03514 2.78003 7.86514 2.78003C7.66014 2.83002 7.41014 2.88002 7.20514 2.88002C7.00014 2.93002 6.80014 2.98003 6.59514 2.98003C6.44514 2.98003 6.24014 3.08002 6.03514 3.08002C5.98514 3.13002 5.88514 3.13002 5.78014 3.13002C5.68014 3.18002 5.52514 3.18003 5.52514 3.18003L5.07015 3.33002C5.02015 3.38002 4.86515 3.48003 4.86515 3.48003H4.66015C4.56015 3.53003 4.51015 3.53003 4.45515 3.53003C4.40515 3.58002 4.30515 3.58002 4.30515 3.58002L3.90015 3.78003L3.49515 4.18502L3.47515 4.27003C3.45015 4.25003 3.42015 4.23502 3.39515 4.23502C3.34515 4.18502 3.24515 4.13503 3.24515 4.13503L3.14515 4.03502C3.09515 4.03502 3.04515 3.98502 3.04515 3.93502H2.99515V3.87002L2.99015 3.86002ZM3.64515 2.99502L3.70015 2.97003C3.70015 2.97003 3.71015 2.97003 3.71515 2.97003C3.69515 2.98003 3.66515 2.99003 3.64515 3.00003V2.99502ZM24.8001 4.73502C24.6501 4.78503 24.5501 4.88503 24.4001 4.88503C24.3451 4.90002 24.2951 4.92502 24.2401 4.95003V4.93503C24.2401 4.93503 24.2251 4.91503 24.2151 4.91003L24.2451 4.78503L24.2001 4.89502C24.2001 4.89502 24.1551 4.86503 24.1401 4.85502V4.83502L23.7901 4.73502L23.2701 4.61503C23.1751 4.57002 23.0751 4.53003 22.9801 4.53003C22.8301 4.48003 22.6251 4.38002 22.4751 4.38002C22.2701 4.38002 22.1201 4.28003 21.9151 4.28003C21.7101 4.23003 21.5101 4.18003 21.3051 4.18003C21.1001 4.13003 20.9001 4.08002 20.6951 4.08002C20.4901 4.03003 20.2401 3.98003 20.0351 3.98003C19.7801 3.93003 19.5801 3.88002 19.3251 3.88002C19.0701 3.78003 18.8701 3.78003 18.6151 3.78003C18.4101 3.73003 18.1601 3.73003 17.9051 3.73003C17.6501 3.68003 17.4001 3.68003 17.1451 3.68003C16.6401 3.58003 16.1301 3.58002 15.6251 3.58002H12.5301C12.0251 3.63002 11.5151 3.63002 11.0101 3.63002H10.3001C10.0451 3.68002 9.84514 3.68003 9.59014 3.68003C9.33514 3.73003 9.08514 3.73003 8.88014 3.73003C8.67514 3.73003 8.42514 3.78003 8.22014 3.78003C8.01514 3.83002 7.86514 3.88002 7.61014 3.88002C7.40514 3.93002 7.20514 3.98003 7.00014 3.98003C6.79514 4.03003 6.64514 4.08002 6.44014 4.08002C6.29014 4.13002 6.08514 4.18003 5.93514 4.18003C5.78514 4.18003 5.63014 4.28003 5.48014 4.28003C5.43014 4.33002 5.27514 4.33002 5.27514 4.33002L4.51515 4.58002C4.46515 4.63002 4.36515 4.63002 4.36515 4.63002L4.38015 4.67003H4.37015C4.37015 4.67003 4.34015 4.66003 4.32515 4.65503L4.31515 4.63002H4.21515C4.11515 4.58002 4.06515 4.53003 3.96015 4.53003C3.93015 4.50003 3.88015 4.47003 3.83515 4.45502L3.86015 4.38002L3.91015 4.33002L4.11015 4.23003L4.08015 4.16002L4.09015 4.15002L4.11515 4.23003L4.98015 3.98003L6.04514 3.73003L7.31514 3.53003L8.68514 3.38002L10.2051 3.28003L11.8301 3.18003H15.1301L16.8051 3.23003L18.4301 3.33002L19.9501 3.48003L21.3701 3.68003L22.6401 3.93003L23.7051 4.18003L24.6201 4.48502L24.8251 4.53502L24.8401 4.50003L24.8751 4.53502C24.8901 4.55002 24.9001 4.56002 24.9151 4.57503C24.8401 4.60503 24.7701 4.63503 24.7701 4.63503L24.8151 4.74003L24.8001 4.73502ZM22.7801 5.69502L22.6951 5.70503C22.7901 5.68003 22.8951 5.65503 23.0001 5.64502L22.7801 5.69002V5.69502ZM19.3751 11.14C19.3251 11.2401 19.3251 11.34 19.3251 11.445C19.2751 11.545 19.2251 11.6451 19.2251 11.75C19.1751 11.85 19.1251 11.9501 19.1251 12.055C19.0751 12.1051 19.0751 12.155 19.0751 12.205C19.0251 12.255 19.0251 12.305 19.0251 12.355C18.9751 12.455 18.9251 12.555 18.8751 12.66C18.8551 12.68 18.8301 12.72 18.8051 12.76H18.7751C18.6751 12.76 18.6251 12.71 18.5701 12.71C18.5201 12.66 18.4201 12.61 18.3651 12.61C18.3151 12.56 18.1601 12.51 18.1601 12.51L17.7551 12.3101C17.6701 12.265 17.6201 12.2301 17.5751 12.22L17.6001 12.11C17.6501 12.01 17.7001 11.86 17.7001 11.86V9.59L17.5251 8.84505C17.5251 8.84505 17.5401 8.835 17.5501 8.835C17.6501 8.785 17.7001 8.735 17.7551 8.735C17.8551 8.685 17.9051 8.635 17.9601 8.635C18.0101 8.585 18.1101 8.535 18.1651 8.535C18.2151 8.485 18.3151 8.485 18.3701 8.485C18.4701 8.435 18.5201 8.435 18.5751 8.435H18.8451C18.8451 8.435 18.8651 8.465 18.8751 8.485C18.9251 8.585 19.0801 8.735 19.0801 8.735V8.88505C19.1301 8.93505 19.1301 9.035 19.1301 9.035C19.1801 9.13505 19.2301 9.34 19.2301 9.34L19.3301 9.64505C19.3801 9.74505 19.3801 9.84505 19.3801 9.95V10.86C19.3801 10.96 19.4301 11.0601 19.3801 11.165L19.3751 11.14ZM7.91514 13.965V13.91H7.86514V13.955C7.47514 13.905 7.13514 13.8101 6.74514 13.8101C6.39014 13.76 6.03514 13.71 5.68014 13.66C5.53014 13.61 5.32514 13.5601 5.17515 13.5601C4.97016 13.51 4.82015 13.46 4.67015 13.46C4.52015 13.41 4.36515 13.36 4.21515 13.36C4.06515 13.31 3.76015 13.26 3.76015 13.26L3.35515 13.16C3.20515 13.11 3.10015 13.0601 2.95015 13.0601C2.85015 13.01 2.69515 12.96 2.59515 12.96C2.44515 12.91 2.34015 12.86 2.24015 12.86C2.14015 12.81 2.03515 12.76 1.93515 12.76C1.88515 12.71 1.78515 12.66 1.68015 12.66C1.58015 12.61 1.53015 12.5601 1.42515 12.5601C1.42515 12.5601 1.41515 12.5601 1.41015 12.5601C1.42015 12.5351 1.42515 12.515 1.42515 12.515C1.47515 12.465 1.47515 12.415 1.47515 12.415C1.52515 12.415 1.52515 12.315 1.52515 12.315C1.57515 12.265 1.57515 12.165 1.57515 12.165L1.45015 12.11L1.50015 12.09L1.67515 12.165V12.215C1.72515 12.165 1.77515 12.0651 1.77515 11.965C1.82515 11.865 1.87515 11.765 1.87515 11.66C1.97515 11.56 1.97515 11.46 1.97515 11.355C2.02515 11.255 2.02515 11.105 2.02515 11C2.07515 10.9 2.07515 10.75 2.07515 10.6451V8.68C2.02515 8.43 1.97515 8.125 1.97515 7.875C1.92515 7.57 1.87515 7.32 1.82515 7.07C1.77515 6.82 1.67515 6.315 1.67515 6.315L1.63015 6.33V6.315L1.62015 6.285L1.68515 6.265L1.63515 6.115L1.56515 6.135L1.55515 6.1L1.68515 6.065C1.63515 5.915 1.53515 5.66003 1.53515 5.66003L1.50015 5.67502C1.46515 5.57503 1.43515 5.46002 1.43515 5.46002L1.33015 5.50502L1.32015 5.49003L1.43015 5.46002L1.38015 5.41003L1.29515 5.44002V5.41503L1.38515 5.35502L1.31515 5.23502C1.31515 5.23502 1.36015 5.25502 1.38515 5.25502C1.43515 5.25502 1.53515 5.35502 1.64015 5.35502C1.74515 5.35502 1.84515 5.45503 1.94515 5.45503C2.09515 5.50503 2.20015 5.55503 2.30015 5.55503C2.40015 5.60503 2.55515 5.65503 2.65515 5.65503C2.80515 5.70503 2.91015 5.755 3.06015 5.755C3.21015 5.805 3.31515 5.855 3.46515 5.855C3.61515 5.905 3.77015 5.955 3.92015 5.955C4.07015 6.005 4.37515 6.055 4.37515 6.055L4.47515 5.855V5.84C4.47515 5.84 4.48015 5.84 4.48515 5.84L4.42515 6.055C4.68016 6.105 4.93015 6.205 5.18515 6.205C5.44014 6.255 5.69014 6.355 5.99514 6.355C6.25014 6.405 6.55514 6.455 6.85514 6.455C7.16014 6.505 7.46514 6.555 7.76514 6.555L7.81514 6.58V6.705C8.17014 6.755 8.47514 6.805 8.83014 6.805C9.13514 6.855 9.49014 6.855 9.84514 6.855C10.2001 6.905 10.5551 6.905 10.9101 6.905H15.5601L15.2201 6.955C15.0701 7.005 14.8651 6.955 14.7151 7.005C14.5651 7.055 14.3601 7.055 14.2101 7.055L9.29014 7.86V8.01C9.29014 8.01 9.27514 8.01 9.27014 8.01H9.24014V8.06H9.09014V13.205H9.24014V13.24L9.14014 13.305L9.19014 13.405H9.24014V13.555L11.0051 13.825L11.6751 14.01C11.7751 14.0601 11.9301 14.11 12.0301 14.11C12.0401 14.11 12.0451 14.11 12.0551 14.115C11.7951 14.115 11.5401 14.11 11.2701 14.11H10.4101C10.1551 14.06 9.85014 14.0601 9.54514 14.0601C9.29014 14.01 8.98514 14.01 8.73514 14.01C8.45014 14.01 8.20514 13.97 7.92514 13.965H7.91514ZM0.995154 6.175L1.05515 6.135L0.995154 6.21V6.175ZM14.2551 6.245H13.6351C13.8201 6.245 14.0051 6.245 14.2001 6.245H14.2551ZM9.79014 6.095H9.78014C9.78014 6.095 9.78514 6.095 9.79014 6.095ZM19.7351 5.74503C19.5301 5.795 19.2801 5.795 19.0251 5.795C18.8651 5.825 18.7101 5.835 18.5501 5.84L18.5701 5.69502L16.4901 5.54502L14.8651 5.49503H11.6201L10.0451 5.59503L9.48514 5.64502V5.69002C9.28514 5.66502 9.09014 5.64502 8.87514 5.64502C8.57014 5.64502 8.21514 5.54502 7.91014 5.54502C7.89014 5.54502 7.87014 5.54003 7.85514 5.53503L8.67514 5.44502L10.1951 5.34503L11.8201 5.24503L13.4451 5.19502L16.7951 5.29502L18.3701 5.39502L19.9451 5.54502L20.5751 5.63503C20.5351 5.63503 20.4901 5.64502 20.4551 5.64502C20.2001 5.74502 20.0001 5.74503 19.7451 5.74503H19.7351ZM7.91014 5.945L7.88014 6.195H7.86014C7.86014 6.195 7.83014 6.195 7.81514 6.19L7.76014 5.995V5.89C7.76014 5.89 7.79514 5.89 7.81014 5.89C8.11514 5.94 8.47014 5.99 8.77514 5.99C8.85514 6.005 8.94514 6.015 9.03014 6.025L8.01014 5.94H7.91014V5.945ZM22.3051 5.35502L22.3201 5.24003L21.4051 5.04003L20.0851 4.84002L18.6151 4.69003L17.0401 4.54002L13.7401 4.44003L10.5401 4.54002L9.07014 4.64002L7.70014 4.84002L6.48014 5.04003L5.82014 5.14003V5.15002C5.82014 5.15002 5.79014 5.14003 5.77014 5.14003C5.67014 5.09002 5.51514 5.04003 5.41514 5.04003C5.30014 5.00003 5.22015 4.97003 5.14015 4.95503L6.02514 4.79003L7.29514 4.59002L8.66514 4.44003L10.1851 4.29002L13.4351 4.19003H15.1101L16.7851 4.29002L18.4101 4.39002L19.9301 4.54002L21.3501 4.69003L22.6201 4.94002L23.4601 5.14003C23.4601 5.14003 23.4401 5.14003 23.4351 5.14003C23.2851 5.14003 23.1301 5.24003 22.9301 5.24003C22.7801 5.29003 22.5751 5.34002 22.3701 5.34002C22.3451 5.34503 22.3251 5.35002 22.3001 5.35502H22.3051ZM1.14015 5.82V5.81L1.15015 5.805V5.815H1.13515L1.14015 5.82ZM1.25015 12.475L1.24015 12.46L1.29015 12.505C1.29015 12.505 1.26015 12.485 1.24515 12.48L1.25015 12.475ZM1.04515 12.415V12.425L1.04015 12.44L1.02515 12.43L1.04515 12.415ZM1.06515 12.45L1.04515 12.4351L1.05515 12.425L1.06515 12.45ZM17.4001 7.66L17.3501 7.625V7.56H17.4001V7.66ZM18.0601 8.115C18.1101 8.065 18.2101 8.015 18.2101 8.015C18.2601 7.965 18.3101 7.965 18.3601 7.965C18.3851 7.94 18.4201 7.93 18.4501 7.92C18.4951 7.95 18.5301 7.98 18.5601 8.015H18.4601C18.4101 8.065 18.3101 8.065 18.2551 8.065C18.2051 8.115 18.1051 8.165 18.0501 8.165C18.0001 8.215 17.9001 8.265 17.8451 8.265C17.8051 8.305 17.7451 8.335 17.6901 8.35L17.7451 8.315C17.7951 8.265 17.8451 8.215 17.8951 8.215C17.9451 8.165 17.9951 8.115 18.0451 8.115H18.0601ZM18.2601 13.71L18.1101 13.61H17.5051C17.4551 13.51 17.4051 13.41 17.4051 13.305C17.3551 13.205 17.3551 13.105 17.3551 13C17.3051 12.9 17.3051 12.755 17.3051 12.75C17.3551 12.8 17.4551 12.9 17.4551 12.9L17.7601 13.15C17.8101 13.15 17.9101 13.25 17.9101 13.25L18.2551 13.5201C18.2351 13.55 18.1601 13.555 18.1601 13.555L18.2601 13.705V13.71ZM16.0301 8.77H16.9451V8.515H17.0451V8.665H17.0951L17.1851 8.615H17.2851V8.625L17.1451 8.765L17.3451 8.71L17.3751 8.75L17.1451 8.815L17.3501 9.62V11.085C17.3501 11.1851 17.3001 11.335 17.3001 11.335V11.84L17.2001 12.295L17.2751 12.315V12.325L17.1501 12.295L17.2501 12.36L17.2401 12.375L17.1501 12.345L17.2301 12.3951L17.2151 12.42L17.1801 12.41L17.1501 12.39L17.1351 12.4L17.1001 12.39L17.1251 12.405L17.0501 12.44L17.1001 12.64L17.0001 12.44L17.0851 12.74H17.0401L16.9951 12.44L14.1551 12.745L9.43514 12.99V8.395C9.52014 8.405 9.60514 8.405 9.69014 8.405C9.84014 8.455 9.99514 8.455 10.1451 8.455C10.3501 8.505 10.5001 8.505 10.6501 8.505C10.8001 8.555 11.0051 8.555 11.1551 8.555H11.6601L14.1451 8.705H15.6151L15.5651 8.755H16.0201L16.0301 8.77ZM14.9401 14.26C14.9151 14.255 14.8901 14.25 14.8601 14.245V14.165H14.2501C14.0001 14.165 13.7951 14.065 13.5451 14.065H17.1701V14.125L14.9401 14.26ZM10.6351 13.35L12.6851 13.26L16.9151 12.82C16.9401 12.9 16.9451 12.9801 16.9451 13.0601C16.9451 13.1601 16.9951 13.26 16.9951 13.365C17.0451 13.465 17.0951 13.665 17.0951 13.665H13.2901C12.9351 13.615 12.6301 13.565 12.2751 13.565C12.1251 13.515 11.9201 13.515 11.7701 13.515C11.6201 13.465 11.4151 13.465 11.2651 13.465L10.7701 13.39L10.6401 13.355L10.6351 13.35ZM18.4651 13.53L18.4501 13.51L18.4901 13.455L18.5201 13.49L18.4701 13.53H18.4651ZM18.5101 13.1851L18.1601 12.955C18.1101 12.955 18.0101 12.855 18.0101 12.855H18.0151C18.0651 12.905 18.1651 12.955 18.2201 12.955C18.2701 13.005 18.3701 13.055 18.4251 13.055C18.4501 13.08 18.5001 13.12 18.5451 13.15C18.5351 13.16 18.5301 13.175 18.5201 13.1851H18.5101ZM16.8401 8.01V8.16C16.8151 8.21 16.8051 8.29 16.7951 8.36H14.1501L11.6651 8.21C11.4601 8.21 11.3601 8.26 11.1601 8.21C11.1351 8.205 11.1201 8.205 11.1001 8.2L16.9351 7.785L16.8451 8.005L16.8401 8.01ZM17.1451 7.305V7.37L12.9251 7.67L14.2551 7.455C14.4051 7.405 14.6101 7.405 14.7601 7.405C14.9101 7.355 15.2651 7.355 15.2651 7.355L16.2801 7.205C16.5501 7.205 16.8601 7.13 17.1451 7.11V7.205H17.3501L17.1451 7.305ZM17.3751 14.315H17.4001V14.465L17.3801 14.315H17.3751ZM17.8051 14.45V14.2701L17.8501 14.45H17.8051ZM18.6651 14.28L18.7151 14.4V14.42C18.7151 14.42 18.6801 14.42 18.6651 14.42V14.28ZM18.6201 14.165L17.8051 14.115H17.5851L17.5751 14.015H17.9601C18.0101 13.965 18.1101 13.965 18.1101 13.965C18.1601 13.965 18.2101 13.915 18.2101 13.915H18.3101C18.3601 13.865 18.4601 13.815 18.4601 13.815C18.4751 13.8 18.4951 13.7851 18.5151 13.7701C18.5651 13.8251 18.6601 13.965 18.6601 13.965C18.6951 14 18.7301 14.055 18.7451 14.09C18.6751 14.135 18.6201 14.16 18.6101 14.165H18.6201ZM17.7051 7.91C17.6551 7.91 17.5551 8.01 17.5551 8.01L17.4051 8.16C17.3701 8.195 17.3351 8.25 17.3001 8.285V8.16L17.4001 7.91V7.81H17.8551C17.8051 7.86 17.7051 7.91 17.7051 7.91ZM25.3201 4.38503C25.2701 4.33503 25.2201 4.28502 25.2201 4.28502C25.2201 4.23502 25.1201 4.18502 25.1201 4.18502C25.1201 4.13503 25.0201 4.08503 25.0201 4.08503C24.9701 4.03503 24.9201 3.98502 24.8701 3.98502C24.8201 3.93502 24.7201 3.88503 24.7201 3.88503C24.6701 3.83503 24.6201 3.78502 24.5701 3.78502C24.4701 3.73502 24.3651 3.68502 24.3651 3.68502L24.2851 3.86503L24.1901 3.83503L24.2101 3.78502C24.1601 3.73502 24.0601 3.68502 23.9551 3.68502C23.8501 3.68502 23.7501 3.58503 23.6001 3.58503C23.5501 3.53503 23.4501 3.48502 23.3451 3.48502C23.1951 3.43502 23.0901 3.38503 22.9901 3.38503C22.8901 3.33503 22.6351 3.28502 22.6351 3.28502L22.2301 3.18502C22.0801 3.13503 21.8251 3.08503 21.8251 3.08503L21.4201 2.98502C21.2701 2.88503 20.9651 2.88503 20.9651 2.88503L19.5451 2.68502C19.2401 2.63503 18.8851 2.58502 18.5301 2.58502C18.1751 2.53503 17.8201 2.48503 17.4651 2.48503C17.1101 2.43503 16.7051 2.43502 16.3501 2.43502H11.8351C11.4301 2.48502 11.0751 2.48503 10.7201 2.48503C10.3651 2.48503 10.0101 2.53503 9.65514 2.53503C9.32514 2.58002 9.04014 2.62503 8.75514 2.63003L8.56014 2.40003L9.70514 2.28003L11.3301 2.18002L13.0051 2.13003H14.6801L16.4051 2.18002L18.0801 2.28003L19.6551 2.43002L21.0751 2.63003L22.4451 2.83002L23.5601 3.13503L24.5251 3.38503L25.2351 3.74003L25.7401 4.04503L25.8151 4.12002L25.7901 4.14503C25.7401 4.14503 25.6901 4.24502 25.6901 4.24502H25.6401C25.5901 4.29502 25.5401 4.29503 25.5401 4.29503C25.4901 4.34503 25.4401 4.34503 25.4401 4.34503L25.3451 4.40002L25.3201 4.38503ZM0.685156 4.77502C0.685156 4.77502 0.700156 4.78503 0.705156 4.78503V4.83502L0.685156 4.77502ZM1.01015 7.66V6.55L0.995154 6.28L1.22515 6.46L1.36515 7.005L1.51515 7.76L1.56515 8.515L1.61515 9.22005L1.56515 9.925L1.52015 10.48H1.51515C1.46515 10.425 1.41515 10.425 1.36515 10.425C1.31515 10.425 1.31515 10.375 1.31515 10.375H1.26515L1.21515 10.525V10.325L1.06515 10.225L0.920154 10.32V10.305L1.01515 10.125H0.955154L0.965154 10.075L1.01515 7.655L1.01015 7.66ZM0.880154 10.575L1.06515 10.6851H1.16515C1.21515 10.6851 1.37015 10.835 1.37015 10.835H1.43515C1.42515 10.87 1.42015 10.9001 1.42015 10.9351C1.42015 10.9851 1.32015 11.085 1.32015 11.1851C1.27015 11.2851 1.22015 11.335 1.17015 11.4351C1.17015 11.4351 1.16515 11.44 1.16015 11.445C1.13515 11.415 1.12015 11.385 1.12015 11.385C1.07015 11.385 1.02015 11.285 1.02015 11.285V10.68L0.875154 10.62L0.885154 10.57L0.880154 10.575ZM19.0651 13.9C19.0151 13.84 18.9701 13.71 18.9701 13.71C18.9201 13.61 18.8201 13.5601 18.8201 13.51C18.8001 13.49 18.7751 13.465 18.7501 13.44C18.7751 13.415 18.8051 13.395 18.8201 13.36C18.8351 13.335 18.8501 13.305 18.8751 13.28L19.3751 13.61C19.3301 13.66 19.2801 13.71 19.2251 13.765C19.1801 13.8101 19.1201 13.86 19.0651 13.905V13.9ZM19.0751 7.81C19.0251 7.86 18.9751 7.91 18.9751 7.91C18.9251 7.86 18.8601 7.795 18.8251 7.76L18.9251 7.66L19.0751 7.46C19.0751 7.46 19.0951 7.43 19.1051 7.415C19.1451 7.445 19.1851 7.47 19.2251 7.51C19.2651 7.53 19.3151 7.575 19.3601 7.625L19.0751 7.815V7.81ZM22.6601 6.065C22.6101 6.075 22.5551 6.08 22.5051 6.085L22.6601 6.065ZM23.7301 5.49003C23.8551 5.44002 23.9901 5.39003 24.1001 5.39003C24.2501 5.34002 24.4051 5.24003 24.5551 5.24003C24.7051 5.19002 24.9601 5.09002 24.9601 5.09002L24.9351 5.03003C25.0401 4.97503 25.2151 4.89003 25.2151 4.89003L25.6201 4.69003C25.6201 4.64003 25.7201 4.64002 25.7201 4.64002C25.7701 4.59002 25.8201 4.59002 25.8201 4.59002C25.8201 4.54002 25.8701 4.49003 25.9201 4.49003C25.9701 4.44003 26.0201 4.44003 26.0201 4.44003C26.0701 4.39003 26.1201 4.34002 26.1201 4.34002C26.1701 4.29002 26.1701 4.24003 26.1701 4.24003C26.1701 4.24003 26.2201 4.19002 26.2201 4.14002V3.78502L26.0501 3.83002L26.0201 3.78502L25.4101 3.38002L24.6501 3.02502L23.6351 2.72002L22.4701 2.47002L21.1501 2.22002L19.6301 2.07002L18.0551 1.92002L16.3801 1.82002L14.6551 1.77003H12.9801L9.68014 1.87003L8.16014 2.02003L8.18514 2.21002L8.11014 2.26003V2.07502C7.90514 2.12502 7.70514 2.17502 7.45014 2.17502C7.30014 2.22502 7.09514 2.27503 6.89014 2.27503C6.74014 2.32502 6.53514 2.37503 6.33014 2.37503C6.12514 2.42502 5.97514 2.47503 5.77014 2.47503C5.62014 2.52503 5.41514 2.57502 5.26514 2.57502C5.11515 2.57502 4.96015 2.67502 4.81015 2.67502C4.71015 2.67502 4.55516 2.77502 4.40515 2.77502C4.29515 2.77502 4.14015 2.82503 4.05515 2.85503L4.04515 2.82503C4.04515 2.82503 4.00515 2.85002 3.98515 2.86002L3.84015 2.52003C3.74015 2.57002 3.48515 2.67002 3.48515 2.67002L3.08015 2.87002C3.08015 2.92002 2.98015 2.92003 2.98015 2.92003C2.94682 2.92003 2.91349 2.93669 2.88015 2.97003C2.83015 3.02003 2.78015 3.02003 2.78015 3.02003C2.73015 3.07002 2.68015 3.12002 2.68015 3.12002C2.63015 3.17002 2.58015 3.22003 2.58015 3.22003C2.53015 3.27003 2.53015 3.32002 2.53015 3.32002C2.48015 3.37002 2.48015 3.42003 2.48015 3.42003V3.67003L2.57515 3.64503C2.55015 3.68502 2.53015 3.72003 2.53015 3.72003L2.62015 3.77003H2.58015V3.78502L2.53015 3.77003V3.82002L2.58015 3.83503V4.07503C2.63015 4.12503 2.63015 4.22502 2.63015 4.22502C2.63015 4.27502 2.73015 4.37503 2.73015 4.37503C2.78015 4.37503 2.88015 4.47502 2.88015 4.47502C2.93015 4.47502 2.98015 4.57503 3.03015 4.57503C3.08015 4.62503 3.18015 4.67502 3.23515 4.67502C3.28515 4.72502 3.38515 4.77502 3.44015 4.77502C3.54015 4.82503 3.59015 4.87502 3.69515 4.87502C3.69515 4.87502 3.70515 4.88002 3.71015 4.88503C3.69015 4.88503 3.66515 4.87502 3.64515 4.87502C3.49515 4.82502 3.39015 4.77502 3.24015 4.77502C3.14015 4.72502 2.98515 4.67502 2.88515 4.67502C2.78515 4.67502 2.63015 4.57503 2.53015 4.57503C2.43015 4.57503 2.32515 4.47502 2.22515 4.47502C2.12515 4.47502 2.02015 4.37503 1.92015 4.37503C1.82015 4.37503 1.77015 4.27502 1.66515 4.27502C1.56015 4.27502 1.46015 4.17502 1.41015 4.17502C1.36015 4.17502 1.26015 4.07503 1.20515 4.07503C1.15015 4.07503 1.10515 3.97502 1.05515 3.97502L0.955154 3.87503C0.905154 3.82503 0.855154 3.77502 0.855154 3.77502V3.27003L0.905154 3.22003L1.05515 3.12002C1.08515 3.12002 1.15015 3.06503 1.20015 3.02003H1.20515C1.23015 3.02003 1.27015 2.99503 1.30515 2.97003H1.35515C1.35515 2.97003 1.40015 2.93003 1.43015 2.91502C1.49015 2.90503 1.53015 2.87003 1.58015 2.84503L1.61515 2.83002C1.61515 2.83002 1.64515 2.82002 1.66015 2.82002C1.67515 2.81002 1.68515 2.80503 1.70015 2.80002L1.91015 2.72002C2.01015 2.72002 2.11515 2.62003 2.21515 2.62003C2.31515 2.57003 2.42015 2.52003 2.52015 2.52003C2.62015 2.47003 2.77515 2.42002 2.87515 2.42002C3.02515 2.37003 3.13015 2.32002 3.28015 2.32002C3.43015 2.27003 3.53515 2.22002 3.68515 2.22002C3.83515 2.17002 3.99015 2.12003 4.14015 2.12003C4.29015 2.07003 4.44515 2.02003 4.59515 2.02003C4.80015 1.97003 4.95015 1.92002 5.10015 1.92002C5.25015 1.87003 5.45514 1.82002 5.60514 1.82002C5.76514 1.79502 5.92514 1.76502 6.09014 1.73502C6.15014 1.73002 6.20514 1.72003 6.26514 1.72003C6.33514 1.70503 6.40514 1.69502 6.47514 1.68002C6.54014 1.67502 6.60514 1.67002 6.67514 1.67002C6.78014 1.65503 6.88014 1.64002 6.98014 1.62502C6.99514 1.62502 7.01514 1.62502 7.03014 1.62502C7.12514 1.60502 7.22014 1.59003 7.31514 1.57503C7.37014 1.56503 7.42514 1.56002 7.48014 1.55002C7.55014 1.54002 7.61514 1.53503 7.68514 1.53503C7.74014 1.53503 7.79014 1.52503 7.84514 1.52503C8.15014 1.48502 8.45014 1.45502 8.75514 1.44002C8.48514 1.48502 8.22014 1.52503 7.99514 1.52503C7.69014 1.52503 7.43514 1.62502 7.18514 1.62502C6.93514 1.62502 6.68014 1.72502 6.42514 1.72502C6.17014 1.77503 5.71514 1.87503 5.71514 1.87503L5.05515 2.02503C4.95515 2.07502 4.85015 2.12503 4.75015 2.12503C4.70015 2.17502 4.60015 2.22503 4.49515 2.22503C4.39515 2.27503 4.34515 2.32502 4.24015 2.32502C4.14015 2.37502 3.98515 2.42502 3.98515 2.42502L4.13515 2.78003C4.23515 2.73003 4.28515 2.68002 4.39015 2.68002C4.49015 2.63003 4.54015 2.58002 4.64515 2.58002C4.69515 2.53003 4.79515 2.48003 4.90015 2.48003C5.00015 2.38003 5.20515 2.38003 5.20515 2.38003L5.81514 2.23003C6.02014 2.18003 6.27014 2.08002 6.47514 2.08002C6.68014 2.08002 6.93014 1.98003 7.18514 1.98003C7.44014 1.93003 7.69014 1.88003 7.94514 1.88003C8.20014 1.83003 8.50514 1.78003 8.75514 1.78003C9.06014 1.73002 9.31514 1.68002 9.62014 1.68002C9.92514 1.63002 10.2301 1.63003 10.5351 1.63003C10.8401 1.58003 11.1451 1.58003 11.4501 1.58003H17.2351C17.5401 1.63003 17.8451 1.63003 18.1501 1.63003C18.4551 1.68003 18.7601 1.68002 19.0651 1.68002C19.3701 1.73002 19.6251 1.78003 19.9301 1.78003C20.1851 1.83002 20.4901 1.88003 20.7401 1.88003C21.0451 1.93002 21.3001 1.98003 21.5501 1.98003C21.8001 1.98003 22.0551 2.08002 22.3101 2.08002C22.5651 2.13002 22.8151 2.23003 23.0201 2.23003C23.1201 2.28003 23.2251 2.28003 23.3251 2.28003C23.4251 2.33002 23.5301 2.33002 23.6301 2.33002C23.7301 2.38002 23.8351 2.43002 23.9351 2.43002C23.9851 2.48002 24.1901 2.53003 24.1901 2.53003L24.6951 2.68002C24.7451 2.73002 24.8451 2.78003 24.9001 2.78003C24.9501 2.83002 25.0501 2.88002 25.1051 2.88002C25.2051 2.93002 25.2551 2.98003 25.3101 2.98003C25.3601 3.03003 25.4101 3.08002 25.4601 3.08002C25.5101 3.13002 25.6101 3.18003 25.6101 3.18003C25.6601 3.23003 25.7101 3.28003 25.7101 3.28003C25.7601 3.33002 25.8101 3.38002 25.8101 3.38002C25.8601 3.43002 25.9101 3.48003 25.9101 3.48003C25.9601 3.48003 25.9601 3.53003 25.9601 3.53003V3.63002H26.1651L25.9601 3.73003H26.3651L26.4151 3.63002V3.38002C26.4151 3.33002 26.3651 3.23003 26.3651 3.23003C26.3151 3.18003 26.2651 3.13002 26.2651 3.13002L26.1651 3.03003C26.1651 2.98003 26.0651 2.93003 26.0651 2.93003C26.0151 2.88003 25.9151 2.83002 25.9151 2.83002C25.8651 2.78003 25.8151 2.73003 25.7651 2.73003C25.7151 2.68003 25.6651 2.63003 25.6151 2.63003C25.5651 2.58003 25.4651 2.53003 25.4101 2.53003C25.3601 2.48003 25.2601 2.43002 25.2051 2.43002C25.1051 2.38003 24.9501 2.33002 24.9501 2.33002L24.4451 2.18002C24.3951 2.08002 24.2951 2.08002 24.1901 2.08002C24.0901 1.98002 23.9851 1.98003 23.8851 1.98003C23.7851 1.93003 23.6801 1.93002 23.5801 1.93002C23.4801 1.88003 23.3751 1.88003 23.2751 1.88003C23.1551 1.85503 23.0451 1.82002 22.9401 1.79002L24.0851 1.98003L25.3551 2.28503L26.3701 2.59002L27.1801 2.94502L27.7401 3.30002L27.9451 3.60503V3.85503L27.7601 4.13002L27.2851 4.46003L26.4751 4.81502L25.4601 5.17002L24.1901 5.42002L23.7201 5.52002L23.7301 5.49003ZM22.5701 1.71003C22.4651 1.71003 22.3601 1.69002 22.2501 1.67002L22.5701 1.71003ZM27.4951 4.78503L28.0001 4.43003L27.9001 4.25502L28.0501 4.38002L28.2051 4.15002V4.27502L28.0551 4.42502L27.7501 4.67502C27.7001 4.67502 27.6001 4.77502 27.5451 4.77502C27.4451 4.77502 27.3951 4.87502 27.2901 4.87502C27.2001 4.87502 27.1101 4.95503 27.0151 4.97003L27.4901 4.77502L27.4951 4.78503ZM0.505156 3.72502C0.53849 3.69169 0.555156 3.65836 0.555156 3.62503V3.88002H0.450156V3.83002C0.500156 3.78003 0.500156 3.73003 0.500156 3.73003L0.505156 3.72502ZM17.3101 14.57V14.5201H17.3051V14.57H17.3101ZM26.4801 13.005C26.3801 13.055 26.2251 13.105 26.1251 13.105C25.9751 13.155 25.8701 13.205 25.7201 13.205C25.5701 13.255 25.4651 13.305 25.3151 13.305C25.1651 13.3551 25.0101 13.405 24.8601 13.405C24.7101 13.455 24.5551 13.505 24.4051 13.505C24.2001 13.555 24.0501 13.605 23.9001 13.605C23.7501 13.705 23.5451 13.705 23.3951 13.705C23.2451 13.755 23.0901 13.755 22.8901 13.755C22.6851 13.805 22.5351 13.805 22.3301 13.805C21.9251 13.8551 21.5701 13.905 21.1651 13.905C20.7601 13.955 20.3551 14.005 19.9451 14.005C19.7851 14.045 19.6251 14.065 19.4651 14.08C19.4751 14.07 19.4851 14.0651 19.4901 14.055C19.5901 13.955 19.7951 13.7 19.7951 13.7L19.6301 13.565L19.6501 13.535L19.7901 13.65H19.8401C19.9901 13.45 20.1451 13.195 20.2951 12.945C20.4451 12.695 20.5501 12.39 20.6501 12.14C20.7001 11.9901 20.7501 11.89 20.7501 11.735C20.8501 11.585 20.8501 11.485 20.8501 11.33C20.9001 11.025 20.9001 10.7751 20.9001 10.475V10.07C20.8501 9.92 20.8501 9.82 20.8501 9.665C20.8001 9.51505 20.7501 9.415 20.7501 9.26005C20.7501 9.10505 20.6501 9.01 20.6501 8.855C20.6001 8.755 20.5501 8.605 20.5001 8.5C20.4001 8.4 20.3501 8.25 20.2951 8.145C20.2451 7.995 20.1951 7.895 20.0901 7.79C19.9901 7.69 19.8351 7.485 19.8351 7.485L19.6551 7.635L19.6351 7.61L19.7851 7.485C19.6851 7.385 19.5801 7.285 19.4801 7.18C19.3801 7.08 19.1251 6.93 19.1251 6.93L19.1051 6.97C19.0601 6.94 19.0201 6.93 18.9751 6.93H18.8251L18.5451 6.825C18.8751 6.82 19.2051 6.78 19.5351 6.78C19.8901 6.73 20.1951 6.68 20.5501 6.68C20.8551 6.63 21.2101 6.58 21.5151 6.58C21.8201 6.58 22.1251 6.48 22.4301 6.48C22.6851 6.43 22.9901 6.33 23.2901 6.33C23.5951 6.28 24.0501 6.18 24.0501 6.18V5.82L24.2501 5.785V6.08L24.4001 6.23C24.6051 6.18 24.7551 6.13 24.9051 6.13C25.0551 6.08 25.2101 6.03 25.3601 6.03C25.5101 5.98 25.6651 5.93 25.8151 5.93C25.9651 5.93 26.0701 5.83 26.2201 5.83C26.3701 5.83 26.5251 5.73002 26.6251 5.73002C26.7251 5.73002 26.8801 5.63002 26.9801 5.63002C27.0801 5.63002 27.1851 5.53003 27.2851 5.53003C27.3851 5.48002 27.4901 5.38002 27.5901 5.38002C27.6901 5.33002 27.7401 5.23002 27.8451 5.23002C27.8851 5.19002 28.0151 5.12003 28.0701 5.09503L27.7951 5.68503L27.2351 6.34L27.3551 6.44H27.2351V11.585H27.4301V11.605L27.4351 11.84H28.0951V12.095C28.0451 12.095 28.0451 12.1451 28.0451 12.1451L27.9951 12.195C27.9451 12.245 27.8951 12.245 27.8951 12.245C27.8451 12.295 27.7951 12.345 27.7951 12.345C27.7451 12.3951 27.6951 12.3951 27.6951 12.3951C27.6951 12.4451 27.5951 12.445 27.5951 12.495C27.5951 12.545 27.4951 12.595 27.4951 12.595C27.4451 12.6451 27.3451 12.695 27.3451 12.695C27.2951 12.745 27.2451 12.795 27.1951 12.795C27.0451 12.845 26.8401 12.945 26.8401 12.945L26.9101 13.11L26.8951 13.095L26.8451 12.945H26.8051L26.7901 12.8951C26.6901 12.9451 26.5851 12.995 26.4851 12.995L26.4801 13.005Z" fill="#C7E7DC"/>
<path d="M23.0797 19.7151H23.0297V19.7351H22.7497V19.8051L22.6747 19.8151L22.5247 19.9651L22.6247 20.1151L22.4747 20.0151L22.5747 20.1651L22.4247 20.0651L22.5247 20.2151L22.3747 20.0651L22.1197 20.1651C22.0847 20.2301 22.0097 20.2501 21.9647 20.2601V20.2151L21.7147 20.1951V19.7101C21.6647 19.6601 21.6647 19.6101 21.6647 19.6101C21.6147 19.5601 21.5647 19.5101 21.5647 19.5101L21.3647 19.9101V19.8101L21.4647 19.5601H21.3097L21.3597 19.5101H21.5097V19.2251C21.6097 19.2701 21.7147 19.3101 21.7147 19.3101H21.8647C21.9147 19.3101 22.0147 19.4101 22.0147 19.4101H22.1647C22.1647 19.4601 22.2647 19.4601 22.2647 19.4601C22.3147 19.5101 22.3647 19.5101 22.3647 19.5101L22.4647 19.6101H22.6697V19.7101H23.0247V19.5101L22.9247 19.4101C22.8747 19.3601 22.8247 19.3601 22.8247 19.3601C22.7747 19.3101 22.7247 19.2101 22.7247 19.2101H22.6247C22.6247 19.1601 22.5247 19.1601 22.5247 19.1601C22.5247 19.1101 22.4247 19.1101 22.4247 19.1101C22.3747 19.1101 22.2747 19.0101 22.2747 19.0101H22.1247C22.0747 19.0101 21.9747 18.9101 21.9747 18.9101H21.8247C21.7497 18.8751 21.5997 18.8351 21.5197 18.8201V17.6751L21.5697 17.6501C21.6197 17.6001 21.6697 17.6001 21.6697 17.6001C21.7197 17.5501 21.7697 17.5501 21.7697 17.5501C21.8031 17.5168 21.8197 17.5001 21.8197 17.5001L21.8697 17.4501L21.6147 17.1451H21.5147C21.4647 17.1951 21.4147 17.1951 21.4147 17.1951H21.3147L21.1097 17.2951C21.0597 17.3451 20.9047 17.3951 20.9047 17.3951L21.0547 17.7501L21.1047 17.8501C21.1047 17.8501 21.1097 17.8501 21.1147 17.8501L21.1547 19.5201H21.2497L21.2097 19.5701H21.0597L21.2097 19.7201L21.0597 19.6201L20.9097 19.7701L21.0097 19.9201L20.8597 19.8201H20.8097C20.7597 19.8701 20.7097 19.8701 20.6597 19.8701C20.6097 19.9201 20.5097 19.9201 20.5097 19.9201L20.5397 20.0201H20.4297L20.4097 19.9701L19.9047 20.1701C19.8547 20.1701 19.6997 20.2701 19.6997 20.2701H19.4947C19.4447 20.3201 19.3947 20.3201 19.2897 20.3201C19.0847 20.3701 18.9347 20.4201 18.7847 20.4201C18.6347 20.4701 18.4797 20.5201 18.2797 20.5201C18.1297 20.5701 17.9247 20.6201 17.7197 20.6201C17.5147 20.6701 17.3147 20.6701 17.1097 20.6701C16.9047 20.7201 16.7047 20.7201 16.4997 20.7201H11.9347C11.7897 20.6851 11.5247 20.6751 11.3747 20.6701V20.6201H10.9697C10.8697 20.5701 10.7147 20.5701 10.6147 20.5701C10.5147 20.5201 10.3597 20.5201 10.2597 20.5201C10.1597 20.4701 10.0047 20.4701 9.90473 20.4701C9.80473 20.4201 9.69973 20.4201 9.59973 20.4201C9.49973 20.3701 9.39473 20.3701 9.29473 20.3701C9.24473 20.3201 9.14473 20.2701 9.03973 20.2701C8.93473 20.2701 8.88973 20.2201 8.78473 20.2201C8.73473 20.2201 8.57973 20.1201 8.57973 20.1201H8.47973L8.07473 19.8701L8.02473 19.8201L7.97473 19.6701H7.65973L7.53973 19.5701H7.82473V17.6801C7.88973 17.7051 7.97973 17.7051 7.97973 17.7051L9.24973 18.0101C9.34973 18.0601 9.45473 18.0601 9.55473 18.0601C9.75973 18.1101 10.0097 18.1601 10.2147 18.1601C10.4697 18.2601 10.9247 18.2601 10.9247 18.2601L10.9747 18.2351V18.4101C11.1797 18.4601 11.4297 18.4601 11.6347 18.4601H14.6797L14.5797 18.4101H17.2697C17.4747 18.3601 17.7247 18.3601 17.9297 18.3601C18.1347 18.3101 18.3347 18.3101 18.5397 18.3101C18.7447 18.2601 18.9447 18.2101 19.1497 18.2101C19.3547 18.1601 19.7097 18.1101 19.7097 18.1101L20.6247 17.9101C20.6747 17.9101 20.8297 17.8101 20.8297 17.8101H20.9797L20.8797 17.5051H20.7297C20.6297 17.5551 20.5247 17.5551 20.5247 17.5551L19.6647 17.7551C19.5147 17.8051 19.3097 17.8551 19.1597 17.8551C19.0097 17.9051 18.8047 17.9551 18.5997 17.9551C18.3947 18.0051 18.1947 18.0051 17.9897 18.0051C17.7847 18.0551 17.5347 18.0551 17.3297 18.0551H11.6997C11.4647 18.0101 11.2697 18.0051 11.0447 18.0051V17.8001C10.7897 17.7501 10.5897 17.7001 10.3347 17.7001C10.0797 17.6501 9.87973 17.6001 9.67473 17.6001C9.57473 17.6001 9.36973 17.5001 9.36973 17.5001H9.06473L8.09973 17.2501C8.04973 17.2001 7.94973 17.2001 7.89473 17.2001C7.84473 17.1501 7.79473 17.1501 7.74473 17.1501C7.69473 17.1001 7.59473 17.1001 7.59473 17.1001C7.62473 17.1001 7.64473 17.1001 7.64473 17.1001L8.25473 17.2501C8.40473 17.3001 8.50973 17.3001 8.60973 17.3001C8.70973 17.3501 8.86473 17.3501 8.96473 17.3501C9.21973 17.4001 9.46973 17.4501 9.72473 17.4501C9.97973 17.5001 10.2797 17.5501 10.5347 17.5501C10.8397 17.6501 11.1447 17.6501 11.4497 17.6501C11.7547 17.7001 12.0597 17.7001 12.3647 17.7001H14.2947L14.3947 17.7501H16.3247C16.6797 17.7001 16.9847 17.7001 17.2897 17.7001C17.5947 17.7001 17.8997 17.6501 18.2047 17.6501C18.5097 17.6001 18.7647 17.5501 19.0647 17.5501C19.3197 17.5501 19.6247 17.4501 19.8747 17.4501L20.5847 17.3001C20.7347 17.2501 20.8397 17.2501 20.9397 17.2501C21.0397 17.2001 21.1447 17.1501 21.2447 17.1501C21.3447 17.1001 21.4497 17.0501 21.5497 17.0501C21.5947 17.0051 21.6797 16.9651 21.7697 16.9551L21.6997 17.0251L21.9797 17.3151L22.9647 16.3701L22.9347 16.3401C22.9797 16.3351 23.0247 16.2901 23.0247 16.2451L23.1747 16.0951V15.8951L22.7697 15.9951L22.9197 16.0951L22.7147 15.9951L22.6647 16.0451L22.8197 16.2301L22.6797 16.0851L22.4447 16.3101C22.4147 16.3301 22.3897 16.3501 22.3597 16.3501C22.2597 16.4001 22.1547 16.4501 22.1547 16.4501L21.8997 16.5501C21.8497 16.6001 21.7497 16.6001 21.6947 16.6001C21.5947 16.6501 21.5447 16.7001 21.4397 16.7001C21.3397 16.7501 21.2347 16.7501 21.1347 16.7501C21.0347 16.8001 20.9297 16.8001 20.8297 16.8001C20.6797 16.8501 20.4747 16.8501 20.4747 16.8501L19.7647 17.0001C19.4597 17.0501 19.2047 17.1001 18.9547 17.1001C18.6497 17.1501 18.3947 17.2001 18.0947 17.2001C17.7897 17.2501 17.4847 17.2501 17.1797 17.2501C16.8247 17.3001 16.5197 17.3001 16.2147 17.3001H12.3597C12.0547 17.2501 11.7497 17.2501 11.4447 17.2501C11.1397 17.2001 10.8847 17.1501 10.5347 17.1501C10.2297 17.1001 9.97473 17.0501 9.72473 17.0501C9.51973 17.0501 9.26973 16.9501 9.01473 16.9501C8.91473 16.9001 8.75973 16.9001 8.65973 16.9001C8.55973 16.8501 8.35473 16.8501 8.35473 16.8501L7.74473 16.7001C7.69473 16.7001 7.59473 16.6501 7.48973 16.6501C7.38473 16.6501 7.33973 16.6001 7.23473 16.6001C7.18473 16.5501 7.13473 16.5001 7.02973 16.5001C6.97973 16.4501 6.87973 16.4001 6.82473 16.4001C6.77473 16.3501 6.72473 16.3001 6.67473 16.3001C6.62473 16.2501 6.52473 16.2001 6.52473 16.2001C6.47473 16.1501 6.42473 16.1501 6.42473 16.1501L6.40473 16.1351C6.40473 16.1351 6.39973 16.1301 6.39473 16.1251L6.41973 16.1001L6.36973 16.0501H6.11473L6.31973 15.9501L5.91473 16.0001V16.2001C5.91473 16.2501 5.96473 16.3001 5.96473 16.3001C6.01473 16.3501 6.06473 16.4001 6.06473 16.4001L6.08473 16.3901C6.10973 16.4201 6.15473 16.4451 6.16473 16.4501L7.02973 17.3101L7.09473 17.2451L7.07973 17.2601C7.12973 17.3101 7.17973 17.3601 7.17973 17.3601C7.17973 17.4101 7.27973 17.4601 7.27973 17.4601C7.32973 17.5101 7.37973 17.5601 7.42973 17.5601V18.6501C7.39473 18.6601 7.36473 18.6701 7.32973 18.6701C7.28473 18.6951 7.21473 18.7151 7.15473 18.7351L7.07473 18.7201V18.7601C7.04473 18.7651 7.02473 18.7701 7.02473 18.7701L7.05473 18.8751L7.02973 19.0701L6.91973 18.8201L6.46473 19.0201C6.41473 19.0201 6.31473 19.1201 6.31473 19.1201H6.26473C6.21473 19.1701 6.16473 19.1701 6.16473 19.1701L6.01473 19.2701L5.91473 19.3701V19.4201C5.91473 19.4701 5.86473 19.4701 5.86473 19.4701V19.7751L5.96473 19.7251H6.36973L6.16473 19.6751H6.36973L6.21973 19.5751H6.42473L6.52473 19.4751C6.57473 19.4751 6.57473 19.3751 6.57473 19.3751H6.72473L6.97973 19.2251L6.87973 19.0751L7.02973 19.1751H7.07973L7.05973 19.1301L7.43473 19.1601V19.4801C7.38473 19.5301 7.38473 19.5301 7.38473 19.5301C7.33473 19.5801 7.33473 19.6301 7.33473 19.6301V20.1851C7.36808 20.2184 7.38473 20.2518 7.38473 20.2851C7.43473 20.2851 7.43473 20.3351 7.43473 20.3351C7.48473 20.3851 7.53473 20.3851 7.53473 20.3851C7.58473 20.4351 7.63473 20.4351 7.63473 20.4351C7.68473 20.4851 7.73473 20.4851 7.73473 20.4851C7.78473 20.4851 7.83473 20.5851 7.83473 20.5851H7.93473C7.93473 20.6351 8.03473 20.6351 8.03473 20.6351L8.28973 20.7351C8.18973 20.6851 8.03473 20.6351 7.93473 20.6351C7.78473 20.5851 7.67973 20.5351 7.57973 20.5351C7.47973 20.4851 7.37473 20.4351 7.27473 20.4351C7.22473 20.3851 7.01973 20.2851 7.01973 20.2851H6.81473C6.76473 20.2351 6.71473 20.2351 6.71473 20.2351L6.56473 20.1351C6.53143 20.1018 6.51473 20.0851 6.51473 20.0851L6.46473 20.0351V19.8851H6.25473V19.8051L5.84473 19.8151L5.94973 23.3451H5.95473V23.4651L6.05473 23.4901V23.5151H6.15473L5.94973 23.5651H6.15473L5.94973 23.6151H6.05473V23.6501L5.95473 23.6651L6.00473 23.8651H6.05473V24.0151L6.10473 24.0651L6.14473 24.0151H6.16473V24.0351L6.04973 24.1151C6.09973 24.1651 6.09973 24.2151 6.09973 24.2151C6.10973 24.2251 6.11473 24.2301 6.12473 24.2401L6.19973 24.1501V24.1651H6.30473L6.20473 24.2651L6.25473 24.3151L6.35473 24.1651H6.37973L6.25473 24.3151L6.45973 24.5151L6.81473 24.8701L6.85473 24.8251L6.83473 24.8451L6.90973 24.9151L6.92973 24.8951L6.95973 24.9201L6.91973 24.9701L6.96973 25.0201L7.01973 25.0701V25.1701H7.22473H7.23973L7.57973 25.4751H7.69473V25.5101L7.93473 25.4901L8.03473 25.5751C8.08473 25.6251 8.13473 25.6751 8.13473 25.6751L8.18473 25.5301V25.7251H8.33473L8.38473 25.7001V25.7251L8.73473 25.6851L8.79473 25.7251C8.84473 25.7751 8.89473 25.7751 8.89473 25.7751L9.14973 25.9251H9.19973V25.5401L9.26973 25.4801L9.27973 25.5651H9.24973L9.26473 25.6151H9.25473V25.7201H9.29973L9.35973 25.9201H9.45973V25.9051L9.85473 25.8401L9.85973 25.8701C9.89308 25.9034 9.90973 25.9201 9.90973 25.9201C9.95973 25.9701 10.0097 25.9701 10.0097 25.9701C10.0597 26.0201 10.1097 26.0201 10.1097 26.0201C10.1597 26.0701 10.2097 26.0701 10.2097 26.0701C10.2597 26.0701 10.2597 26.1201 10.2597 26.1201H10.4097L10.3097 25.9701H10.4597L10.3897 25.8101L10.4347 25.7951V25.8051L10.4097 25.8151H10.4397L10.5097 26.0451V26.1201H10.5347L10.5447 26.1451L11.1247 25.9701L11.0647 25.7801L11.0947 25.8251L11.1247 25.9201C11.1747 25.9701 11.1747 26.0201 11.1747 26.0201L11.2247 26.1201C11.2747 26.1701 11.3247 26.1701 11.3247 26.1701C11.3747 26.2201 11.4247 26.2201 11.4247 26.2201C11.4247 26.2701 11.5247 26.2701 11.5247 26.2701H11.7297V26.0701H11.8647L11.9297 26.2201L12.3347 26.0201H12.3847C12.4347 25.9701 12.4847 25.9701 12.4847 25.9701C12.5347 26.0201 12.5347 26.0701 12.5347 26.0701L12.6347 26.1701C12.6847 26.2201 12.7347 26.2701 12.7347 26.2701C12.7847 26.3201 12.8347 26.3201 12.8847 26.3201H13.1397L13.0397 26.2701H13.1397C13.1897 26.2701 13.2397 26.2201 13.2397 26.2201H13.2897V26.1201H13.3397L13.0347 25.9201H12.8297V25.8701L12.4747 25.9701C12.5247 25.9201 12.5247 25.9201 12.5247 25.9201L12.9297 25.8201L12.8497 25.6201H13.1547L13.1897 25.8951L13.2897 25.8801L13.2547 25.9201H13.2297L13.5347 26.1701H13.5847V26.1501L13.7597 25.9351L13.7397 25.9201L13.7897 25.8201H13.8397V25.6701H13.8147L13.8347 25.4351L13.5347 25.4101V25.3801L13.8397 25.4201V25.0151L13.8897 25.0651H14.0397V25.4151H14.2397V25.4251L14.0247 25.4451L14.0647 25.8951L14.4697 25.8601L14.4497 25.6151H14.8297L14.7997 25.8651L15.1547 26.0651V25.9151L15.2047 25.4601L15.0547 25.4401V25.4101H15.2547V25.2101H15.3447L15.3597 25.3601H15.7147L15.3597 25.4101V25.6601L15.5947 25.6301L15.5147 25.7101H15.4647V25.9101L15.5147 25.9601L15.7697 26.1601H15.8197L16.0747 25.9101V25.8101H16.0447L16.0947 25.5601H16.4147L16.3247 25.7601L16.4397 25.8051L16.6797 25.9651H16.7297V25.9151L16.7397 25.8751L16.7797 25.9151C16.7797 25.9651 16.8797 25.9651 16.8797 25.9651V25.9151L16.8897 25.8351L16.9297 25.8501L16.8797 25.9701L17.2747 26.1451L17.2297 26.2701L17.3297 26.1701L17.4147 25.9701H17.4297H17.4197L17.4647 25.8601H17.4797L17.6247 25.5151C17.6997 25.5151 17.7797 25.5101 17.8547 25.5001L17.7847 25.6151L17.9947 25.7351L17.9597 25.7901L17.7847 25.7151L17.9397 25.8201L17.9847 25.8651H18.0097L18.0847 25.9151V25.9651C18.1097 25.9401 18.1247 25.9151 18.1297 25.8951L18.6447 26.0651L18.6547 26.0401L18.7447 25.8101H18.7797L18.6947 26.0601H18.7947L18.8447 26.1101H18.9947C19.0447 26.1101 19.0947 26.0101 19.0947 26.0101H19.1947C19.2447 26.0101 19.2447 25.9101 19.2447 25.9101H19.2947L19.3447 25.8601L19.0397 25.6101L18.8897 25.7101L19.0497 25.4701L19.1897 25.6101L19.0897 25.4601L19.2547 25.6601L19.2397 25.7651L19.6997 25.8501V25.8701H19.9047L19.9297 25.7551L19.9547 25.7201H20.1597L20.2097 25.6201H20.2597C20.2597 25.5951 20.2847 25.5701 20.3147 25.5501V25.5701L20.7197 25.6151L20.7697 25.6201L20.9697 25.5701V25.4701H21.0697L21.1197 25.4201H21.1697L21.2197 25.3701H21.3697H21.4197L21.4997 25.3001L21.5197 25.3201L21.6247 25.1901L21.7797 25.0551L21.8047 25.0801L21.8547 25.0351L21.8797 25.0701L22.0297 24.9201L22.0647 24.8901L22.0797 24.9051L22.2247 24.7651L22.2097 24.7501L22.2397 24.7251L22.5947 24.4151L22.7947 24.2151L22.8447 24.2651V24.2151C22.8447 24.1651 22.8947 24.0651 22.8947 24.0651L22.8397 24.0401V23.9101H22.9397V23.7601L22.9797 23.5551H22.9897V23.5051L22.8647 23.4751L22.9397 23.4551H22.7897H22.9947V23.2251H23.0347L23.1197 19.7451H23.0347L23.0447 19.7201L23.0797 19.7151ZM19.7847 24.5051H19.7997V24.5151L19.7847 24.5051ZM21.3997 24.6551L21.4097 24.6951L21.3947 24.7101L21.3347 24.6551H21.3997ZM20.9797 24.2751L20.9497 24.2551H20.9847V24.2751H20.9797ZM20.3947 24.9101V24.9801L20.3147 24.9101H20.3947ZM20.9747 24.8701L20.9547 24.8051H21.0347L20.9747 24.8701ZM20.3947 24.6251H20.4497L20.3947 24.6351V24.6251ZM20.2147 24.4601H20.1947L20.2447 24.4051L20.2147 24.4601ZM20.1397 24.8601V24.8751L19.8497 25.2351L19.7947 25.2251L19.8297 25.1851L19.6847 25.0701V25.0601H19.8847V24.8601L19.9347 24.8101L20.1397 24.8601ZM20.7997 20.5101L20.7897 20.4851H20.7997V20.5101ZM10.4997 21.1701C10.5497 21.1701 10.5997 21.1701 10.6547 21.1701C10.6547 21.1701 10.6647 21.1701 10.6697 21.1701C10.6147 21.1701 10.5647 21.1701 10.5047 21.1701H10.4997ZM21.2147 20.0151L21.3047 19.9501V20.0151H21.2147ZM21.3047 19.5101H21.3297L21.2547 19.5601L21.3047 19.5101ZM20.3647 20.3701L20.1897 20.4201L20.2897 20.3701H20.3647ZM19.7797 20.5201C19.7047 20.5551 19.6547 20.5651 19.5947 20.5651C19.6397 20.5401 19.6747 20.5201 19.6747 20.5201H19.7797ZM8.56973 20.7751C8.60973 20.7951 8.65973 20.8151 8.70973 20.8301C8.69473 20.8301 8.68473 20.8301 8.66973 20.8301C8.61473 20.8101 8.56973 20.7951 8.51973 20.7801H8.56973V20.7751ZM9.32973 25.1101H9.52973L9.37973 25.2101L9.42473 25.2701L9.32473 25.2901L9.07473 24.9751V24.9151L9.32973 24.8451V25.1101ZM7.31973 24.6151L7.29473 24.5951H7.32973L7.32473 24.6151H7.31973ZM8.20473 24.9501L8.16473 24.9101H8.24973L8.20473 24.9501ZM8.21473 25.2651V25.3151H8.16473L8.21473 25.2651ZM8.06473 24.6851V24.7051L8.09473 24.8301L7.97473 24.7051L8.06473 24.6851ZM8.82473 25.3601H8.80973L8.86473 25.3101L8.96473 25.4551L8.82473 25.3601ZM9.07973 25.6151L9.16473 25.5451L9.07973 25.7201V25.6151ZM10.1447 25.6151L10.0947 25.5651L9.92473 25.6751L9.91473 25.6001L10.0447 25.5151L9.95473 25.3851C10.0147 25.3951 10.0647 25.4001 10.1097 25.4051L10.2497 25.6151H10.1447ZM10.2447 24.7551H10.2497V24.7601L10.2447 24.7551ZM10.1897 24.9101V24.9201L10.1447 24.9101H10.1897ZM10.3747 25.7951L10.3597 25.7601L10.4947 25.6701V25.6901L10.4247 25.7551H10.4097V25.7651L10.3697 25.8001L10.3747 25.7951ZM11.5647 25.7151H11.4647L11.2997 25.8101H11.2897L11.3597 25.7701L11.2997 25.7401L11.4097 25.6701L11.3197 25.5101C11.4197 25.5151 11.5097 25.5201 11.5797 25.5201L11.6597 25.7301L11.6097 25.9251V25.7251H11.5597L11.5647 25.7151ZM11.6947 25.0601L11.7197 25.0951L11.6147 25.0601H11.6947ZM12.3847 25.6151L12.3697 25.5801H12.4197L12.4297 25.6151H12.3847ZM12.4797 24.9601H12.4547L12.5297 24.9101L12.4797 24.9601ZM12.4097 24.9601H12.3747L12.4747 24.8601L12.4047 24.9601H12.4097ZM12.2747 25.0051V25.3151L12.2447 25.4751L12.0397 25.5651L11.9247 25.2651L12.2797 25.0101L12.2747 25.0051ZM11.8097 25.8151L11.8597 25.7951L11.8697 25.8151H11.8097ZM11.6647 25.7301L11.6947 25.8051L11.6647 25.9201V25.7301ZM15.2147 24.7051H15.1147C15.0647 24.7551 14.9647 24.8551 14.9647 24.8551C14.9147 24.9051 14.8647 24.9551 14.8647 25.0051V25.2051H14.6147C14.6147 25.1551 14.5647 25.1051 14.5647 25.0551C14.5647 25.0051 14.4647 24.9051 14.4647 24.9051C14.4147 24.8551 14.3147 24.8051 14.3147 24.8051H13.5047V24.8251L13.4247 24.7801L13.3297 24.9501L13.2497 24.9051C13.1497 25.0051 13.1497 25.2051 13.1497 25.2051H12.7547L12.7397 25.1551H12.6897V25.0701L12.7397 25.0551C12.6897 25.0051 12.6897 24.9051 12.6897 24.9051V24.8051L12.5897 24.7051C12.5397 24.6551 12.4897 24.6551 12.4397 24.6551H12.1647L12.1347 24.6151L12.0797 24.6551H12.0347C12.0347 24.7051 11.9347 24.7051 11.9347 24.7051L11.9547 24.7451L11.7297 24.9101L11.6297 24.7601C11.5797 24.8101 11.5297 24.8601 11.5297 24.8601V25.0801C11.4147 25.0651 11.3047 25.0601 11.1747 25.0601H11.1247V24.9601L10.7697 25.0601L10.7197 25.1101H10.7797L10.8197 25.3101L10.9697 25.2901L10.8197 25.3601L10.8547 25.4151L10.6097 25.4751L10.4147 25.1801V25.1151L10.7697 24.9651V25.0051L10.8197 24.9551L11.1747 24.8551V24.6551C11.1747 24.6051 11.0747 24.5051 11.0747 24.5051C11.0247 24.4551 10.9747 24.4551 10.9747 24.4551H10.8747C10.8247 24.4051 10.6697 24.4051 10.6697 24.4051V24.6001L10.6197 24.6201V24.4051H10.4147L10.5147 24.6051V24.6601L10.3397 24.7351L10.2647 24.5551H10.1147L10.0647 24.6051C10.0147 24.6051 10.0147 24.6551 10.0147 24.6551V24.9551C9.93473 24.9401 9.84973 24.9301 9.75973 24.9251V24.9101H9.52973H9.70973V24.7601C9.65973 24.7101 9.65973 24.6601 9.65973 24.6601C9.60973 24.6101 9.60973 24.5601 9.60973 24.5601C9.60973 24.5101 9.55973 24.5101 9.55973 24.5101C9.50973 24.4601 9.45973 24.4601 9.45973 24.4601H9.15473L9.17973 24.5201L8.94973 24.5801V24.3051H8.79973C8.74973 24.3551 8.69973 24.4551 8.69973 24.4551V24.8101L8.66973 24.8251C8.60473 24.8101 8.54473 24.8001 8.49473 24.7851V24.6601H8.44473V24.4101C8.39473 24.3601 8.39473 24.3101 8.39473 24.3101L8.34473 24.2101L8.24473 24.0601H8.03973V24.2951L7.86473 24.3301L7.78473 24.0601H7.73473C7.68473 24.0601 7.63473 24.1601 7.63473 24.1601H7.58473V24.5251L7.74473 24.4651L7.76473 24.5651H7.58473V24.5251L7.54473 24.5401V24.3901H7.52973V24.1101C7.47973 24.0601 7.42973 23.9601 7.42973 23.9601L7.22473 23.8101H7.12473V24.0701L7.01473 24.0851L6.91973 24.0601H7.12473L7.02473 23.9601V23.7601H6.81973L6.71973 23.9101V23.7101L6.61973 23.5101H6.46973V23.1051H6.36973L6.35473 23.1251L6.27473 20.4701L6.31473 20.4801C6.36473 20.5301 6.41473 20.5301 6.41473 20.5301L6.61973 20.6301C6.61973 20.6801 6.71973 20.6801 6.71973 20.6801L6.81973 20.7801H6.96973C7.06973 20.8301 7.17473 20.8801 7.27473 20.8801C7.37473 20.9301 7.47973 20.9801 7.57973 20.9801C7.67973 21.0301 7.83473 21.0801 7.93473 21.0801C8.03473 21.1301 8.18973 21.1801 8.28973 21.1801C8.43973 21.2301 8.54473 21.2801 8.69473 21.2801C8.79473 21.3301 8.94973 21.3301 9.09973 21.3301C9.24973 21.3801 9.40473 21.3801 9.55473 21.3801C9.70473 21.4301 9.85973 21.4301 10.0097 21.4301C10.1597 21.4801 10.5097 21.4801 10.5147 21.4801V21.5801C10.7697 21.6301 11.0197 21.6301 11.2747 21.6301H14.0147L14.1147 21.7301H16.2447C16.4997 21.6801 16.8047 21.6801 17.0547 21.6801C17.3097 21.6301 17.5597 21.6301 17.8147 21.6301C18.0697 21.5801 18.3197 21.5301 18.5747 21.5301C18.8297 21.4801 19.0297 21.4301 19.2847 21.4301C19.4897 21.4301 19.7397 21.3301 19.9447 21.3301C20.0447 21.2801 20.1497 21.2801 20.2497 21.2801L20.8097 21.1301C20.8597 21.0801 21.0647 20.9801 21.0647 20.9801H21.3197C21.4197 20.9301 21.4697 20.8801 21.5747 20.8801C21.6247 20.8301 21.7247 20.7801 21.7797 20.7801C21.8297 20.7301 21.9847 20.6801 21.9847 20.6801L21.9397 20.5801L21.9647 20.3851L22.0347 20.6301H22.0847C22.1847 20.5801 22.3397 20.5301 22.3397 20.5301L22.7597 20.3051L22.6897 23.1601H22.6447L22.6097 23.5401L22.5697 23.5801L22.5447 23.5551V23.3551L22.4447 23.4051H22.3947L22.2947 23.6051V23.7601L22.2397 23.6551H22.0897V23.9051L22.0697 23.9401L21.9797 23.9301L21.9647 24.0551H21.9397L21.9647 24.0651L21.9397 24.2401V23.7551L21.8897 23.8051H21.7897V23.8551L21.6897 23.9551H21.6397V24.3601H21.6897V24.4451C21.6547 24.4551 21.6197 24.4601 21.5947 24.4601H21.5897V24.4101H21.4697V24.3601H21.5897V24.3101L21.4897 24.0601L21.2847 23.9601L21.2547 24.2351H21.2347V23.9101C21.1847 23.9101 21.1847 23.9601 21.1847 23.9601H20.9797C20.9297 24.0101 20.8797 24.0101 20.8797 24.0101C20.8297 24.0601 20.7797 24.1101 20.7797 24.1101C20.7297 24.1601 20.7297 24.2101 20.7297 24.2101V24.6151H21.1347V24.6051L21.2347 24.6251V24.6401L21.1347 24.7451V24.6151H20.7297V24.6301C20.6547 24.6551 20.5847 24.6751 20.5247 24.6901V24.6201H20.5797L20.5297 24.4601L20.4297 24.3101L20.2247 24.2101L20.1597 24.4451L20.1247 24.4351V24.2101H19.8697C19.8197 24.2101 19.8197 24.2601 19.8197 24.2601H19.7697C19.7197 24.3101 19.6697 24.3601 19.6697 24.3601L19.5697 24.4601C19.5197 24.5101 19.5197 24.5601 19.5197 24.5601V24.8551C19.4097 24.8751 19.2947 24.8901 19.2147 24.9001V24.7601L19.1697 24.7751L19.2097 24.7601V24.6601L19.1097 24.5101L18.9597 24.6101L19.0597 24.4601L18.8047 24.3601V24.4601H18.6047L18.5947 24.4701H18.5847L18.5747 24.4901L18.5547 24.5101H18.2997C18.2497 24.5601 18.1997 24.6101 18.1997 24.6101C18.1497 24.6101 18.1497 24.7101 18.1497 24.7101C18.0997 24.7601 18.0997 24.8101 18.0997 24.8601V25.0101H18.6047V24.9101L18.9047 25.0201V25.0601L18.6597 25.4251L18.4597 25.3751L18.4997 25.3101L18.3797 25.2451L18.4997 25.2601V25.0101H18.1447V25.0801C18.0247 25.0951 17.8947 25.1001 17.7897 25.1051V25.0601H17.7397V24.9601L17.6647 24.9901L17.6847 24.9601L17.7097 24.9201L17.6847 24.9051V24.8551C17.6347 24.8051 17.6347 24.7551 17.6347 24.7551L17.4847 24.6051L17.4247 24.7401L17.2247 24.6151V24.6051H17.2097L17.1547 24.5701L17.1297 24.6051H16.7747C16.7247 24.6051 16.6247 24.7051 16.6247 24.7051H16.5747C16.5747 24.7551 16.5247 24.7551 16.5247 24.7551V25.1601H16.1197V25.1101L16.0247 25.1351L16.0897 25.0801L16.1697 25.0601C16.1697 25.0101 16.0697 24.8601 16.0697 24.8601L16.0097 24.9101L15.9847 24.8751L16.0647 24.8101C16.0314 24.7768 16.0147 24.7601 16.0147 24.7601C15.9647 24.7101 15.9147 24.7101 15.9147 24.7101H15.2547L15.2147 24.7051ZM19.0447 25.1601H19.0697V25.1751L19.0447 25.1601ZM18.7697 24.5451L18.7447 24.5351L18.7697 24.4551V24.5451ZM16.8897 25.1601H16.7697C16.7997 25.1301 16.8397 25.1101 16.8397 25.1101V25.0101L16.7397 24.8601L16.8897 24.9601H16.9747L17.3447 25.1951V25.2151L17.2147 25.5351L16.9397 25.4101V25.3151L16.8897 25.3301V25.1601ZM19.1247 25.4151L19.2097 25.2901C19.2097 25.2901 19.2247 25.2901 19.2297 25.2901L19.1297 25.4151L19.3047 25.5501V25.5701L19.1247 25.4201V25.4151ZM20.2447 25.3701L20.2597 25.3501L20.3547 25.4651V25.4801L20.2447 25.3701ZM21.4097 25.3251L21.4247 25.1851L21.4497 25.2101V25.3601L21.4047 25.3251H21.4097Z" fill="#C7E7DC"/>
<path d="M6.18508 24.3051C6.18508 24.3051 6.15008 24.2701 6.10508 24.2251L6.08008 24.255L6.18008 24.3051H6.18508Z" fill="#C7E7DC"/>
<path d="M16.2351 26.02H16.0851L15.8301 26.27V26.32H16.0851L16.1351 26.42H16.2851C16.2851 26.37 16.3851 26.37 16.3851 26.37C16.4351 26.32 16.4851 26.32 16.4851 26.32C16.5351 26.27 16.5851 26.27 16.5851 26.27C16.6351 26.22 16.6351 26.17 16.6351 26.17L16.2801 26.02H16.2301H16.2351Z" fill="#C7E7DC"/>
<path d="M17.5996 25.8648H17.4996L17.3496 26.2198H17.4996L17.4496 26.1698H17.8046L17.9546 26.0698L18.0046 26.0199L17.6996 25.7699L17.5996 25.8699V25.8648Z" fill="#C7E7DC"/>
<path d="M14.9645 26.0698L14.7595 25.9698V26.1698L14.6095 26.0199H14.5595L14.4595 25.9698H14.1045V26.1698L14.2545 26.3198C14.3045 26.3698 14.3545 26.3699 14.3545 26.3699H14.6595L14.7095 26.2699H15.1145C15.1645 26.2199 15.1645 26.1199 15.1645 26.1199L14.8095 25.9698L14.9595 26.0698H14.9645Z" fill="#C7E7DC"/>
<path d="M4.10957 3.22008V3.21008C4.10957 3.21008 4.07457 3.22008 4.05957 3.22008H4.10957Z" fill="#C7E7DC"/>
</g>
<defs>
<clipPath id="clip0_244_10961">
<rect width="28.5" height="26" fill="white" transform="translate(0.25 0.75)"/>
</clipPath>
</defs>
</svg>
