<svg width="25" height="25" viewBox="0 0 25 25" fill="none" xmlns="http://www.w3.org/2000/svg">
<rect x="1.1" y="1.35" width="22.8" height="22.8" rx="11.4" stroke="#212428" stroke-width="1.2"/>
<path d="M8.64 15.03H10.16C10.24 15.75 10.96 16.47 12 16.47C13.12 16.47 14 15.59 14 14.39C14 13.19 13.12 12.31 12 12.31C11.36 12.31 10.896 12.614 10.592 12.918C10.416 13.094 10.272 13.302 10.16 13.51H8.88L9.52 7.67H14.88V9.11H10.816L10.56 11.51C10.672 11.414 10.816 11.318 10.992 11.238C11.264 11.094 11.664 10.95 12.16 10.95C14.016 10.95 15.52 12.47 15.52 14.39C15.52 16.31 13.984 17.83 12 17.83C10 17.83 8.72 16.55 8.64 15.03Z" fill="#212428"/>
</svg>
