<svg width="25" height="25" viewBox="0 0 25 25" fill="none" xmlns="http://www.w3.org/2000/svg">
<rect x="1.1" y="1.35" width="22.8" height="22.8" rx="11.4" stroke="#212428" stroke-width="1.2"/>
<path d="M9.14 17.75V16.63L13.14 12.31C13.316 12.118 13.476 11.926 13.62 11.718C13.86 11.35 14.1 10.918 14.1 10.47C14.1 9.574 13.476 8.95 12.34 8.95C11.3 8.95 10.58 9.67 10.58 10.71H9.06C9.06 8.87 10.34 7.59 12.34 7.59C14.34 7.59 15.62 8.87 15.62 10.55C15.62 11.19 15.268 11.862 14.9 12.358C14.692 12.646 14.452 12.918 14.18 13.19L11.316 16.31H15.62V17.75H9.14Z" fill="#212428"/>
</svg>
