<svg width="24" height="24" viewBox="0 0 24 24" fill="none" xmlns="http://www.w3.org/2000/svg">
<rect x="0.6" y="0.6" width="22.8" height="22.8" rx="11.4" stroke="#212428" stroke-width="1.2"/>
<path d="M8.48 14.28H10C10.08 15 10.8 15.72 11.92 15.72C13.136 15.72 13.84 15.016 13.84 14.12C13.84 13.224 13.136 12.52 11.92 12.52H11.2V11.16H11.84C12.88 11.16 13.52 10.536 13.52 9.72C13.52 8.824 12.88 8.2 11.84 8.2C10.8 8.2 10.16 8.824 10.08 9.64H8.56C8.64 8.12 9.92 6.84 11.84 6.84C13.68 6.84 15.04 8.184 15.04 9.64C15.04 10.36 14.72 10.888 14.4 11.224C14.208 11.416 14 11.576 13.76 11.72C14.064 11.864 14.32 12.04 14.56 12.264C14.96 12.648 15.36 13.288 15.36 14.2C15.36 15.72 14 17.08 11.92 17.08C9.824 17.08 8.56 15.8 8.48 14.28Z" fill="#212428"/>
</svg>
