<svg width="46" height="37" viewBox="0 0 46 37" fill="none" xmlns="http://www.w3.org/2000/svg">
<g clip-path="url(#clip0_244_11760)">
<path d="M4.96787 30.4246C4.53794 29.7665 4.38857 29.086 4.5113 28.3978C4.76521 27.0068 6.06394 26.0243 6.81584 25.56C8.29048 24.6414 23.748 14.4637 25.0359 13.5331C25.201 13.4162 25.3536 13.3076 25.504 13.2093C26.4821 12.5436 27.0653 12.1359 27.252 10.601C27.2837 10.3209 27.3069 10.0554 27.3324 9.77943C27.4512 8.18161 27.583 6.52161 29.9854 4.76452C32.0513 3.24514 33.4524 2.8575 34.2575 3.58352C34.3811 3.69058 34.5476 3.87695 34.6489 4.14162L34.6975 4.27082L32.0474 8.08553C31.9864 8.17009 31.9979 8.26987 32.0326 8.33665L33.7003 11.4235C33.7412 11.4862 33.8176 11.5346 33.8964 11.5458L37.8163 11.8379C37.9013 11.8449 37.9806 11.802 38.031 11.7423L40.5978 8.40235L40.7231 8.32046C40.8253 8.27158 40.9046 8.22872 40.9548 8.19596C41.1968 8.07364 41.5338 8.0145 41.8398 8.15441C42.0321 8.24343 42.2918 8.44936 42.4162 8.91359C42.6005 9.6338 42.7004 11.3749 42.0669 12.9513L42.2737 12.8161L41.6141 13.8462C40.6005 15.4294 38.5123 17.3389 35.9688 17.5248C34.321 17.6444 33.3947 17.4447 32.7149 17.3075C32.4351 17.2488 32.2175 17.2031 32.0244 17.1951C31.2896 17.1654 30.4198 17.1344 29.0951 18.0087C28.3492 18.4959 23.3589 21.863 18.5338 25.1132C14.3062 27.9642 10.3191 30.6492 9.98687 30.8662C7.37773 32.5258 5.91134 31.6773 5.13791 30.6713C5.07432 30.5876 5.01483 30.5102 4.95751 30.4225L4.96787 30.4246ZM34.0796 4.17366C34.0223 4.08591 33.9503 4.01671 33.9091 3.98102C33.1823 3.32011 31.5433 4.2745 30.3012 5.19317C28.0912 6.8067 27.9777 8.27583 27.851 9.83412C27.8256 10.1101 27.8042 10.3923 27.7725 10.6723C27.5565 12.4499 26.7853 12.9805 25.801 13.6503C25.6568 13.7444 25.5042 13.8531 25.3454 13.9658C24.0534 14.8902 8.57082 25.0843 7.09401 26.0132C6.54677 26.3528 5.25699 27.2668 5.03159 28.4961C4.91781 29.1159 5.09877 29.7489 5.56656 30.3555C6.49173 31.5665 7.89317 31.59 9.71063 30.4296C10.0366 30.2167 14.0237 27.5317 18.2513 24.6808C23.0764 21.4305 28.0667 18.0634 28.8189 17.5721C30.2815 16.6077 31.2862 16.64 32.021 16.6697C32.2992 16.6848 32.5479 16.7369 32.8339 16.7915C33.4867 16.9285 34.3716 17.1195 35.9426 17.0055C38.1888 16.8438 40.0626 15.2084 41.0521 13.7661L41.1807 13.5659C42.2047 11.9849 42.1275 9.79965 41.9331 9.05027C41.8749 8.83792 41.7807 8.69376 41.6422 8.63224C41.4892 8.56228 41.306 8.6104 41.2267 8.65327C41.1953 8.67374 41.1076 8.73106 40.9991 8.78404L40.9615 8.8086L38.4558 12.064C38.3002 12.2639 38.0541 12.38 37.7926 12.363L33.8624 12.0687C33.6072 12.0477 33.3699 11.8897 33.2514 11.6809L31.5756 8.58155C31.4369 8.31446 31.4584 8.00526 31.6246 7.78047L34.1042 4.21127C34.1042 4.21127 34.0878 4.1862 34.0796 4.17366Z" fill="#C7E7DC"/>
</g>
<defs>
<clipPath id="clip0_244_11760">
<rect width="14.9734" height="43.423" fill="white" transform="translate(36.8545 0.25) rotate(56.8465)"/>
</clipPath>
</defs>
</svg>
