<svg width="35" height="31" viewBox="0 0 35 31" fill="none" xmlns="http://www.w3.org/2000/svg">
<path d="M34.8559 26.6605C34.8559 26.6605 34.8559 26.6553 34.8559 26.65L34.7453 22.3395C34.7453 22.2553 34.7296 22.1711 34.7138 22.0921C34.5769 21.3184 33.8822 20.6237 32.6401 20.0237C32.6401 20.0237 32.6348 20.0237 32.6296 20.0237C32.6296 20.0237 32.6296 20.0237 32.6243 20.0184C32.6085 20.0132 32.5927 20.0026 32.5769 19.9974L32.0085 19.7237C32.0085 19.7237 32.0085 19.7237 31.998 19.7184C31.9138 19.6763 31.8243 19.6395 31.7348 19.6026C31.6401 19.5605 31.5453 19.5184 31.4453 19.4763C31.3559 19.4395 31.2611 19.4079 31.1717 19.3711C31.0611 19.329 30.9506 19.2869 30.8348 19.25C30.7401 19.2184 30.6453 19.1869 30.5453 19.1553C30.4348 19.1184 30.3243 19.0869 30.2085 19.05C30.0927 19.0132 29.9769 18.9816 29.8611 18.95C29.7769 18.929 29.6927 18.9026 29.6085 18.8816C29.4401 18.8395 29.2717 18.7974 29.1032 18.7553C29.0875 18.7553 29.0717 18.75 29.0559 18.7448C28.2822 18.5658 27.5348 18.4342 26.898 18.3395C26.4401 18.2711 25.9875 18.2184 25.5243 18.1711V17.0132C25.5243 17.0132 25.5243 17.0132 25.5243 17.0079C25.5243 16.9395 25.5138 16.8763 25.5032 16.8132C25.519 16.75 25.5296 16.6921 25.5296 16.6237V16.5605C25.5296 16.5605 25.5296 16.5553 25.5296 16.55L25.5453 5.06579C25.5453 5.06579 25.5453 5.06579 25.5453 5.06053C25.5453 5.05526 25.5453 5.05 25.5453 5.04474C25.5453 5.03947 25.5453 5.02895 25.5453 5.02369C25.4822 3.98684 24.5717 3.28684 23.8138 2.88684C23.6348 2.78684 23.4296 2.69211 23.198 2.59737C23.198 2.59737 23.198 2.59737 23.1927 2.59737C23.1717 2.58684 23.1453 2.58158 23.119 2.57105L22.8296 2.45C22.8296 2.45 22.819 2.43947 22.8085 2.43421C22.7769 2.42369 22.7401 2.4079 22.7085 2.39737C22.6822 2.38684 22.6506 2.37632 22.6243 2.36579C22.0138 2.12895 21.3085 1.93947 20.5506 1.8079C20.519 1.59211 20.3769 1.38684 20.1138 1.21842C19.9243 1.09737 19.7138 1.00789 19.4506 0.93421C19.019 0.807895 18.5664 0.75 18.0664 0.75C18.0559 0.75 18.0506 0.75 18.0401 0.75C17.5769 0.75 17.1927 0.797368 16.8348 0.897368C16.1138 1.10263 15.8875 1.41842 15.8348 1.67105C15.0032 1.76579 14.219 1.92895 13.5453 2.16579L13.1875 2.29211L13.1453 2.3079C12.9085 2.38684 12.7085 2.47105 12.519 2.56053C11.7769 2.90263 10.9085 3.49211 10.698 4.40263C10.6664 4.50263 10.6453 4.6079 10.6401 4.72895C10.6401 4.74474 10.6401 4.76053 10.6453 4.77632L10.0717 16.2763C10.0717 16.3553 10.0717 16.4237 10.0875 16.4816C10.0717 16.5448 10.0611 16.6079 10.0559 16.6711L9.98745 18.0553C8.57166 18.1342 6.84535 18.3132 5.26639 18.6921C5.2506 18.6921 5.23481 18.6974 5.21902 18.7026C5.0506 18.7448 4.88218 18.7869 4.71902 18.8342C4.68744 18.8448 4.65586 18.85 4.62428 18.8605C4.47692 18.9026 4.32955 18.95 4.18218 18.9974C4.13481 19.0132 4.08744 19.029 4.04534 19.0395C3.91376 19.0816 3.78744 19.129 3.66113 19.1816C3.62428 19.1974 3.58218 19.2079 3.54007 19.2237C3.54007 19.2237 3.53481 19.2237 3.52955 19.229C3.47692 19.25 3.41902 19.2711 3.36639 19.2921C3.15586 19.3763 2.94007 19.4658 2.72955 19.5605C2.72955 19.5605 2.72428 19.5605 2.71902 19.5605C2.70323 19.5605 2.69271 19.5711 2.67692 19.5763C1.39797 20.1184 0.661128 20.7816 0.476918 21.55C0.455865 21.6342 0.434813 21.7184 0.42955 21.8026C0.42955 21.8553 0.445339 21.9026 0.476918 21.9395L0.150602 26.0921C0.150602 26.0921 0.145339 26.1184 0.145339 26.1342C0.145339 26.1342 0.145339 26.1395 0.145339 26.1448C0.145339 26.1448 0.145339 26.1448 0.145339 26.1553C0.145339 26.1553 0.145339 26.1605 0.145339 26.1658C0.134813 26.3395 0.171655 26.4974 0.234813 26.6605C0.245339 26.6921 0.255865 26.7237 0.271655 26.75C0.282181 26.7763 0.287444 26.7974 0.297971 26.8184C0.303234 26.829 0.31376 26.8342 0.324286 26.8448C0.334813 26.8658 0.345339 26.8921 0.361128 26.9132C0.361128 26.9184 0.361128 26.929 0.361128 26.9342C0.445339 27.0605 0.519023 27.1869 0.597971 27.3079L0.61376 27.3342C0.61376 27.3342 0.62955 27.3395 0.634813 27.3448C0.650602 27.3711 0.661128 27.3974 0.676916 27.4237C0.676916 27.4237 0.676916 27.4237 0.676916 27.429C1.08218 28.0763 2.04007 28.5816 3.14534 28.9763C3.20849 28.9974 3.26639 29.0184 3.32955 29.0395C3.37165 29.0553 3.41376 29.0658 3.4506 29.0816C4.82428 29.5395 6.37166 29.8342 7.42429 29.9921C7.58745 30.0184 7.75061 30.0342 7.91903 30.0553C8.20324 30.0974 8.48745 30.1342 8.77693 30.1711C9.02429 30.2027 9.27166 30.2237 9.51903 30.25C9.80324 30.2763 10.0822 30.3079 10.3717 30.329C10.6822 30.3553 10.998 30.3711 11.3085 30.3921C11.5348 30.4026 11.7611 30.4184 11.9875 30.429C12.3506 30.4448 12.7243 30.4553 13.0927 30.4605C13.2401 30.4605 13.3769 30.4711 13.5243 30.4711C13.5243 30.4711 13.5296 30.4711 13.5348 30.4711C13.6611 30.4711 13.7822 30.4763 13.9085 30.4763C13.9401 30.5079 13.9875 30.529 14.0401 30.529L22.4717 30.5395C22.4717 30.5395 22.4769 30.5395 22.4822 30.5395C22.5032 30.5395 22.5296 30.529 22.5453 30.5237C22.5611 30.5184 22.5717 30.5079 22.5822 30.4974C23.1506 30.4974 23.7032 30.4869 24.2453 30.4658C24.4032 30.4605 24.5559 30.45 24.7085 30.4448C25.0717 30.429 25.4296 30.4079 25.7822 30.3816C26.0401 30.3605 26.2875 30.3395 26.5348 30.3132C26.7875 30.2869 27.0453 30.2658 27.2927 30.2395C27.5348 30.2132 27.7664 30.1816 28.0032 30.15C28.1717 30.129 28.3453 30.1079 28.5138 30.0816C28.6769 30.0553 28.8506 30.029 29.0296 29.9974C29.0401 29.9974 29.0506 29.9974 29.0611 29.9974C29.0875 29.9974 29.119 29.9869 29.1453 29.9816C29.219 29.9658 29.298 29.9553 29.3769 29.9395C30.0243 29.8237 30.7717 29.6658 31.5506 29.4184C31.7927 29.3448 32.0243 29.2658 32.2506 29.1763C32.2611 29.1763 32.2664 29.1763 32.2769 29.1658C32.2874 29.1658 32.298 29.1553 32.3085 29.1553C33.0611 28.8658 33.7032 28.5079 34.0769 28.0658C34.1296 28.0658 34.1769 28.0395 34.2085 27.9869C34.2085 27.9869 34.2085 27.9763 34.2138 27.9711C34.219 27.9658 34.2296 27.9605 34.2348 27.9553L34.5664 27.4711C34.5664 27.4711 34.5717 27.4342 34.5769 27.4184C34.598 27.4026 34.6243 27.3869 34.6348 27.3605C34.7664 27.1342 34.8296 26.9132 34.8296 26.6711C34.8296 26.6711 34.8296 26.6658 34.8296 26.6605C34.8296 26.6605 34.8296 26.6553 34.8296 26.65L34.8559 26.6605ZM0.740074 21.929C0.776916 21.8974 0.797968 21.8553 0.803232 21.8079C0.808495 21.7184 0.834811 21.6395 0.855863 21.5553C1.05586 21.0184 1.77165 20.5079 2.94534 20.0605C3.78744 19.7448 4.70323 19.5026 5.91903 19.2921C7.78219 18.9658 9.74008 18.8079 12.0717 18.8079L21.5717 18.8184C24.1085 18.8184 26.398 19.0237 28.5611 19.429C29.9243 19.6869 30.9664 19.9711 31.9296 20.3448C32.3664 20.5132 32.9401 20.7553 33.4664 21.1184C33.698 21.2763 33.9664 21.4816 34.1664 21.7711C34.2927 21.9605 34.3506 22.1184 34.3664 22.2974C34.3664 22.3132 34.3717 22.329 34.3717 22.35C34.3717 22.3553 34.3717 22.3605 34.3717 22.3658L34.4611 25.8711C34.2453 25.6079 33.9874 25.4184 33.6717 25.2184C33.219 24.9448 32.7138 24.7132 32.0296 24.4711C31.0401 24.129 29.9401 23.8553 28.5664 23.6184C26.398 23.25 24.119 23.0658 21.6032 23.0553C21.5717 23.0237 21.5296 23.0026 21.4769 23.0026L11.8822 22.9869C11.8296 22.9869 11.7875 23.0079 11.7506 23.0395C9.48745 23.0448 7.48745 23.1869 5.64008 23.4816C4.40323 23.6763 3.46113 23.9026 2.58744 24.2027C1.99271 24.4026 1.54534 24.6079 1.14007 24.8553C0.908495 24.9974 0.666392 25.1711 0.455865 25.4184L0.729547 21.9184L0.740074 21.929ZM0.508497 26.6448C0.508497 26.6448 0.497971 26.6237 0.497971 26.6132C0.350602 26.2448 0.476918 25.8816 0.882179 25.5237C1.29271 25.1553 1.86639 24.9079 2.26113 24.75C3.35586 24.3132 4.46113 24.0921 5.39797 23.929C7.32429 23.6026 9.35587 23.4448 11.7717 23.4395C11.8032 23.4711 11.8506 23.4921 11.898 23.4921L21.4927 23.5026C21.5401 23.5026 21.5875 23.4816 21.619 23.45C23.4296 23.45 26.1138 23.5658 28.8348 24.0605C29.8927 24.2553 31.1401 24.5184 32.3769 25.0079C32.998 25.25 33.5032 25.4921 33.9559 25.8711C34.2506 26.1184 34.4296 26.3658 34.4874 26.6079V26.6711C34.4874 26.8079 34.4506 26.929 34.398 27.0605C34.3243 26.7658 34.119 26.4763 33.7822 26.2079C33.2769 25.7921 32.7085 25.5448 32.1717 25.3342C31.1822 24.95 30.1032 24.6658 28.6769 24.4132C26.5032 24.0237 24.1927 23.829 21.6296 23.8184C21.598 23.7869 21.5506 23.7605 21.498 23.7605L11.919 23.75C11.8664 23.75 11.8243 23.7711 11.7875 23.8026C11.719 23.8026 11.6506 23.8026 11.5875 23.8026C11.5611 23.7869 11.5296 23.7763 11.498 23.7763H11.3822C11.3453 23.7763 11.319 23.7869 11.2875 23.8026C10.6875 23.8079 10.1085 23.829 9.55061 23.8553C9.52956 23.8448 9.50324 23.8395 9.47693 23.8395H9.42429C9.39271 23.8395 9.36114 23.85 9.33482 23.8658C7.99271 23.9395 6.76114 24.0711 5.5664 24.2711C4.6506 24.4237 3.56113 24.6395 2.46639 25.0711C1.98744 25.2553 1.48744 25.4816 1.04534 25.8605C0.755863 26.1132 0.587444 26.3763 0.534813 26.65C0.534813 26.6448 0.52955 26.6395 0.524286 26.6342L0.508497 26.6448ZM24.1506 30.1184C24.119 30.0921 24.0769 30.0711 24.0296 30.0711C24.0296 30.0711 24.0296 30.0711 24.0243 30.0711H24.0138C23.6348 30.0816 23.2559 30.0921 22.8769 30.0974H22.7927C21.8506 30.0974 20.9032 30.0974 19.9559 30.0974C19.3875 30.0974 18.819 30.0974 18.2559 30.0974C17.6085 30.0974 16.9611 30.0974 16.3085 30.0974C15.4506 30.0974 14.598 30.0974 13.7401 30.0974C13.7348 30.0974 13.7243 30.0974 13.719 30.0974H13.6348C13.5875 30.0974 13.5453 30.1184 13.5138 30.1448C11.2875 30.1132 9.26114 29.9448 7.32429 29.629C5.95061 29.4079 2.62955 28.7658 1.47692 27.5711C1.47692 27.5711 1.47692 27.5711 1.47165 27.5711C1.38744 27.4869 1.31376 27.3921 1.2506 27.2816C1.06113 26.9448 1.10849 26.6184 1.40849 26.2921C1.69271 25.9763 2.0506 25.7869 2.39271 25.6237C3.20323 25.2342 4.02955 25.0237 4.73481 24.8658C4.73481 24.8658 4.73481 24.8658 4.74007 24.8658C5.04534 24.7974 5.35586 24.7395 5.67166 24.6816C5.74535 24.6658 5.82429 24.6553 5.90324 24.6448C5.90324 24.6448 5.90324 24.6448 5.90324 24.65C5.89272 24.6658 5.88745 24.6763 5.88219 24.6974C5.88219 24.7132 5.88219 24.729 5.88219 24.7448C5.88219 24.7553 5.88219 24.7658 5.88219 24.7763C5.88219 24.7869 5.89272 24.7869 5.89798 24.7974C5.89798 24.7974 5.89798 24.8079 5.90324 24.8132C5.90324 24.8132 5.91377 24.8132 5.91903 24.8184C5.94535 24.8448 5.98219 24.8605 6.03482 24.8605H6.0664C6.0664 24.8605 6.05061 24.8763 6.04008 24.8869C6.02956 24.8974 6.01903 24.9026 6.0085 24.9132C6.0085 24.9132 6.00324 24.9132 6.00324 24.9184C6.00324 24.9184 6.00324 24.9184 5.99798 24.9184C5.99798 24.9184 5.99798 24.9237 5.99798 24.929C5.98745 24.9448 5.98219 24.9605 5.98219 24.9816C5.98219 25.0184 6.00324 25.0658 6.02956 25.0921C6.07693 25.1342 6.13482 25.1395 6.17166 25.1395H6.25587C6.25587 25.1395 6.2664 25.1448 6.27166 25.1448C6.28219 25.1448 6.29272 25.1448 6.30851 25.1448C6.35061 25.1448 6.4085 25.1237 6.45587 25.0869C6.4664 25.0816 6.47693 25.0711 6.48219 25.0605C6.48219 25.0553 6.49798 25.0553 6.49798 25.0448C6.50324 25.0342 6.49798 25.0237 6.49798 25.0132C6.49798 25.0026 6.5085 24.9974 6.5085 24.9816C6.5085 24.9711 6.5085 24.9605 6.50324 24.9448C6.49798 24.9184 6.48219 24.8921 6.4664 24.8763C6.41377 24.8237 6.34008 24.829 6.30851 24.829H6.28219C6.28219 24.829 6.28219 24.829 6.27166 24.829C6.27166 24.829 6.26114 24.829 6.25587 24.829H6.22429C6.22429 24.829 6.21377 24.829 6.2085 24.8237C6.23482 24.8026 6.25061 24.7816 6.26114 24.75C6.2664 24.729 6.27693 24.7079 6.27166 24.6869C6.27166 24.6711 6.26114 24.6658 6.25587 24.6553C6.24008 24.6342 6.22429 24.6184 6.20324 24.6079C6.27166 24.5974 6.34535 24.5869 6.41903 24.5763C6.41903 24.5816 6.41903 24.5869 6.41903 24.5974C6.41903 24.5974 6.41903 24.5974 6.41903 24.6026C6.41903 24.6184 6.41903 24.6342 6.42956 24.6448C6.43482 24.6553 6.45061 24.6605 6.45587 24.6658C6.45587 24.6658 6.45587 24.6658 6.46114 24.6711C6.49272 24.6921 6.53482 24.7132 6.5664 24.7132H6.62429C6.5664 24.7553 6.55061 24.8342 6.58745 24.8974C6.61377 24.9395 6.66114 24.9763 6.81377 24.9763C6.82429 24.9763 6.83482 24.9763 6.84535 24.9763C6.85587 24.9763 6.87166 24.9763 6.89798 24.9763C6.91377 24.9763 6.92429 24.9763 6.94008 24.9711C6.95587 24.9711 7.01377 24.9395 7.01377 24.9395C7.01377 24.9395 7.01903 24.9342 7.02429 24.929C7.08745 24.8921 7.1085 24.8132 7.07166 24.75C7.04535 24.7079 6.99798 24.6605 6.85061 24.6658C6.85587 24.6658 6.86114 24.6553 6.8664 24.65C6.87693 24.6395 6.88219 24.6342 6.88745 24.6237C6.88745 24.6237 6.88745 24.6237 6.89272 24.6184C6.90324 24.5921 6.9085 24.5658 6.90324 24.5342C6.90324 24.529 6.90324 24.5237 6.90324 24.5184C6.96114 24.5132 7.01903 24.5026 7.07693 24.4974C7.09798 24.5342 7.14008 24.5711 7.19798 24.5711C7.19798 24.5711 7.19798 24.5711 7.20324 24.5711C7.20324 24.5711 7.20324 24.5763 7.20324 24.5816C7.20324 24.5816 7.19272 24.5869 7.19272 24.5921C7.17693 24.6132 7.17166 24.6342 7.17166 24.6605C7.17166 24.6711 7.17693 24.6763 7.18219 24.6816C7.18219 24.6816 7.18219 24.6816 7.18219 24.6869C7.18219 24.6921 7.18745 24.6974 7.19272 24.7027C7.19798 24.7237 7.20324 24.75 7.21903 24.7658C7.24008 24.7816 7.27693 24.7974 7.31377 24.8026C7.34008 24.8079 7.3664 24.8079 7.38219 24.8079H7.45587C7.47693 24.8079 7.48745 24.8079 7.50324 24.8079C7.43482 24.8132 7.38745 24.8448 7.36114 24.8921C7.35061 24.9079 7.34008 24.9184 7.34008 24.9395C7.34008 24.9448 7.32956 24.95 7.32956 24.9553C7.32956 24.9658 7.34008 24.9711 7.34008 24.9816C7.34008 24.9921 7.34008 25.0079 7.34008 25.0184C7.34535 25.029 7.35587 25.0395 7.3664 25.0448C7.42429 25.1079 7.51377 25.1184 7.58219 25.1184H7.6085C7.6085 25.1184 7.6085 25.1184 7.61377 25.1184C7.62956 25.1184 7.64535 25.1184 7.68219 25.1184C7.70324 25.1184 7.73482 25.1184 7.80324 25.0763C7.80324 25.0763 7.80324 25.0711 7.8085 25.0658C7.82956 25.0553 7.83482 25.0342 7.84535 25.0184C7.85061 25.0079 7.85587 24.9974 7.86114 24.9816C7.86114 24.9763 7.8664 24.9711 7.8664 24.9658C7.8664 24.9658 7.85587 24.9395 7.85061 24.929C7.85061 24.9184 7.85061 24.9079 7.85061 24.8974C7.85061 24.8921 7.84008 24.8921 7.83482 24.8869C7.82429 24.8711 7.81377 24.8658 7.79798 24.8605C7.75587 24.829 7.70324 24.8132 7.63482 24.8079C7.63482 24.8079 7.62956 24.8079 7.62429 24.8026C7.62429 24.8026 7.61903 24.8026 7.61377 24.8026C7.60324 24.8026 7.59272 24.8026 7.58219 24.8026C7.58219 24.8026 7.57693 24.8026 7.57166 24.8026C7.64535 24.7816 7.6664 24.7448 7.67693 24.729C7.67693 24.7237 7.67693 24.7132 7.67693 24.7027C7.68219 24.6869 7.69798 24.6711 7.69798 24.6553C7.69798 24.6448 7.68745 24.6395 7.68745 24.6342C7.68745 24.6342 7.68745 24.6237 7.68219 24.6237C7.67693 24.5974 7.67166 24.5711 7.65061 24.55C7.62956 24.5342 7.59272 24.5184 7.55587 24.5132C7.52956 24.5079 7.50324 24.5079 7.48745 24.5079H7.46114C7.46114 24.5079 7.46114 24.5079 7.45587 24.5079C7.45587 24.5079 7.45061 24.5079 7.44535 24.5079H7.43482C7.43482 24.5079 7.45587 24.4763 7.46114 24.4605C7.56114 24.45 7.65587 24.4395 7.75587 24.429C7.75587 24.429 7.75587 24.429 7.7664 24.429H7.79272C7.79272 24.429 7.77166 24.4763 7.77166 24.5026C7.77166 24.5079 7.77693 24.5132 7.78219 24.5237C7.78219 24.529 7.78745 24.5342 7.79272 24.5395C7.79798 24.5658 7.80324 24.5974 7.82429 24.6132C7.85061 24.6342 7.88219 24.6448 7.92956 24.65C7.95061 24.65 7.9664 24.65 7.97693 24.65H8.04008C7.99798 24.6658 7.97166 24.6869 7.95587 24.7184C7.95061 24.729 7.94535 24.7395 7.94008 24.75C7.94008 24.7605 7.92429 24.7711 7.92429 24.7816C7.92429 24.7921 7.93482 24.8026 7.94008 24.8132C7.94008 24.8184 7.94008 24.8237 7.94008 24.8342C7.94008 24.8448 7.95587 24.8553 7.96114 24.8658C7.96114 24.8658 7.9664 24.8763 7.97166 24.8816C8.02429 24.9448 8.11903 24.95 8.18745 24.95H8.2085C8.22429 24.95 8.24008 24.95 8.27166 24.95C8.29272 24.95 8.32429 24.95 8.39272 24.9079C8.41377 24.8974 8.41377 24.8816 8.42429 24.8658C8.45587 24.829 8.47166 24.7816 8.45061 24.7395C8.41377 24.6553 8.32429 24.6342 8.22429 24.6342C8.21377 24.6342 8.19798 24.6342 8.18745 24.6342C8.25061 24.6184 8.30324 24.5711 8.30324 24.5079C8.30324 24.4816 8.28745 24.4605 8.27693 24.4395C8.32429 24.4395 8.37166 24.4342 8.41377 24.429C8.41903 24.4395 8.42956 24.4448 8.43482 24.4553C8.43482 24.4553 8.43482 24.4605 8.44008 24.4605C8.47166 24.4921 8.51377 24.5079 8.55587 24.5079H8.61903C8.61903 24.5079 8.6085 24.5079 8.60324 24.5132C8.54008 24.55 8.51903 24.629 8.55587 24.6921C8.60324 24.7711 8.70324 24.7816 8.79798 24.7816H8.81903C8.81903 24.7816 8.81903 24.7816 8.82429 24.7816C8.82956 24.7816 8.84008 24.7816 8.84535 24.7816C8.85061 24.7816 8.86114 24.7816 8.8664 24.7816C8.89272 24.7816 8.91903 24.7816 8.94008 24.7658L8.98745 24.7448C8.98745 24.7448 9.0085 24.7342 9.01377 24.729C9.01377 24.729 9.01377 24.7237 9.01903 24.7184C9.02956 24.7079 9.03482 24.6974 9.04535 24.6816C9.05587 24.6605 9.0664 24.6448 9.0664 24.6237C9.0664 24.6237 9.0664 24.6237 9.0664 24.6184C9.0664 24.6184 9.06114 24.6026 9.05587 24.5974C9.05587 24.5816 9.05587 24.5605 9.04535 24.5448C9.04535 24.5395 9.03482 24.5395 9.02956 24.5342C9.02429 24.5237 9.01377 24.5237 9.00324 24.5184C8.96114 24.4869 8.90324 24.4711 8.82429 24.4658C8.82429 24.4658 8.82429 24.4658 8.81903 24.4658C8.85061 24.45 8.87166 24.4237 8.88219 24.3869C8.92956 24.3869 8.97166 24.3816 9.01903 24.3763C9.05587 24.4079 9.10324 24.429 9.15061 24.429C9.15061 24.429 9.15061 24.4605 9.15061 24.4711C9.15061 24.4869 9.15061 24.4974 9.15061 24.5132C9.15061 24.5132 9.15061 24.5132 9.15061 24.5184C9.15587 24.529 9.17166 24.5342 9.18219 24.5448C9.19272 24.5553 9.19798 24.5605 9.2085 24.5658C9.25061 24.5974 9.30324 24.6184 9.38219 24.6184C9.39271 24.6184 9.4085 24.6184 9.41903 24.6184C9.41903 24.6184 9.41903 24.6184 9.42429 24.6184C9.42429 24.6184 9.42956 24.6184 9.43482 24.6132C9.43482 24.6132 9.43482 24.6132 9.44008 24.6132C9.44535 24.6132 9.45587 24.6132 9.46114 24.6132C9.49271 24.6132 9.51377 24.6132 9.58745 24.5816C9.60851 24.5711 9.61903 24.55 9.62956 24.5342C9.63482 24.5237 9.64535 24.5184 9.65061 24.5079C9.66114 24.4869 9.65061 24.4605 9.65061 24.4342C9.65061 24.4237 9.65061 24.4132 9.65061 24.4079C9.64008 24.3816 9.61903 24.3658 9.60324 24.35C9.63482 24.35 9.67166 24.35 9.70324 24.35C9.70324 24.3658 9.70324 24.3763 9.7085 24.3921C9.73482 24.4658 9.80324 24.5079 9.87166 24.5079C9.89272 24.5079 9.91903 24.5079 9.94008 24.4921H9.95587C9.89798 24.529 9.88745 24.5869 9.88745 24.6132C9.88745 24.6237 9.89798 24.6342 9.89798 24.6448C9.89798 24.65 9.89798 24.6553 9.89798 24.6605C9.90324 24.6763 9.91377 24.6869 9.92429 24.6974C9.92429 24.6974 9.92429 24.7026 9.92956 24.7079C9.98219 24.7711 10.0664 24.7816 10.1296 24.7816C10.1401 24.7816 10.1559 24.7816 10.1664 24.7816C10.1664 24.7816 10.1664 24.7816 10.1769 24.7816C10.1769 24.7816 10.1822 24.7816 10.1875 24.7816H10.2401C10.2822 24.7816 10.319 24.7658 10.3506 24.7448C10.3506 24.7448 10.3559 24.7448 10.3611 24.7448C10.3769 24.7342 10.3822 24.7237 10.3927 24.7132C10.4138 24.6921 10.4243 24.6658 10.4296 24.6395C10.4296 24.6395 10.4296 24.6342 10.4296 24.629C10.4296 24.6237 10.4296 24.6184 10.4243 24.6132C10.4243 24.6026 10.4243 24.5869 10.4243 24.5763C10.3927 24.5079 10.3296 24.4816 10.2664 24.4711C10.3032 24.4342 10.3243 24.3869 10.3243 24.3395C10.3401 24.3395 10.3559 24.3395 10.3717 24.3395C10.4085 24.3869 10.4664 24.4132 10.519 24.4184C10.5085 24.4395 10.5085 24.4605 10.5085 24.4658C10.5085 24.4711 10.5138 24.4763 10.519 24.4869C10.519 24.4921 10.519 24.5026 10.519 24.5079C10.5243 24.529 10.5401 24.5395 10.5506 24.5553C10.6032 24.6132 10.6875 24.6237 10.7506 24.6237C10.7611 24.6237 10.7769 24.6237 10.7822 24.6237C10.7822 24.6237 10.7822 24.6237 10.7875 24.6237C10.7875 24.6237 10.7927 24.6237 10.798 24.6237H10.8506C10.9611 24.6237 11.0085 24.5711 11.0243 24.529C11.0243 24.529 11.0243 24.5184 11.0296 24.5184C11.0348 24.4974 11.0401 24.4763 11.0401 24.4711C11.0401 24.4605 11.0348 24.4553 11.0296 24.4448C11.0296 24.4395 11.0296 24.429 11.0296 24.4237C11.0296 24.4184 11.019 24.4132 11.019 24.4079C11.019 24.4079 11.019 24.4079 11.019 24.4026C10.9927 24.3658 10.9611 24.3395 10.919 24.329C10.9927 24.329 11.0664 24.329 11.1401 24.3237C11.1401 24.3237 11.1401 24.3237 11.1401 24.3342C11.1401 24.3658 11.1453 24.3974 11.1611 24.4237C11.1611 24.4342 11.1769 24.4342 11.1822 24.4395C11.1822 24.4448 11.1822 24.45 11.1875 24.4553C11.1927 24.4605 11.2085 24.4605 11.2138 24.4658C11.2401 24.4869 11.2664 24.5026 11.298 24.5132C11.2769 24.529 11.2611 24.55 11.2559 24.5763V24.5974C11.2559 24.5974 11.2559 24.6079 11.2559 24.6132C11.2559 24.6132 11.2559 24.6132 11.2559 24.6184C11.2559 24.6395 11.2611 24.6658 11.2769 24.6869C11.298 24.7237 11.3401 24.7553 11.4085 24.7711C11.419 24.7711 11.4243 24.7711 11.4296 24.7711C11.4296 24.7711 11.4296 24.7711 11.4348 24.7711C11.4348 24.7711 11.4401 24.7711 11.4453 24.7711C11.4717 24.7711 11.498 24.7763 11.5243 24.7763H11.5348C11.5348 24.7763 11.5401 24.7763 11.5453 24.7763H11.6085C11.6875 24.7763 11.7401 24.7395 11.7664 24.6869C11.7769 24.6711 11.7875 24.6553 11.7875 24.6342C11.7875 24.629 11.7927 24.6237 11.7927 24.6184C11.7927 24.6079 11.7875 24.5974 11.7822 24.5869C11.7822 24.5763 11.7822 24.5658 11.7822 24.5553C11.7453 24.4816 11.6664 24.4605 11.5822 24.4553C11.5927 24.4448 11.598 24.4395 11.6085 24.429C11.619 24.4132 11.6296 24.3921 11.6348 24.3763C11.6348 24.3658 11.6348 24.3605 11.6348 24.35C11.6348 24.3395 11.6348 24.3342 11.6348 24.3237C11.6611 24.3237 11.6875 24.3237 11.7138 24.3237C11.7348 24.3342 11.7506 24.3448 11.7717 24.3605C11.7927 24.3763 11.8243 24.3921 11.8822 24.4026C11.8822 24.4026 11.8822 24.4026 11.8822 24.4079C11.8822 24.4079 11.8822 24.4132 11.8822 24.4184C11.8717 24.4395 11.8717 24.4605 11.8717 24.4658C11.8717 24.4763 11.8769 24.4816 11.8822 24.4869C11.8822 24.4974 11.8822 24.5026 11.8822 24.5132C11.8875 24.529 11.898 24.5395 11.9085 24.55C11.9085 24.55 11.9085 24.5553 11.9138 24.5605C11.9717 24.6184 12.0611 24.629 12.1243 24.629H12.1717C12.1717 24.629 12.1769 24.629 12.1822 24.629H12.2296C12.2611 24.629 12.2875 24.6184 12.3401 24.5921V24.5816C12.3769 24.5605 12.4085 24.5237 12.4085 24.4763C12.4085 24.4605 12.398 24.3658 12.2927 24.329C12.3453 24.329 12.398 24.329 12.4453 24.329C12.4453 24.329 12.4453 24.35 12.4559 24.3763C12.4559 24.3869 12.4611 24.3974 12.4664 24.4079C12.4875 24.4658 12.5401 24.529 12.6559 24.529C12.6506 24.5342 12.6506 24.5448 12.6453 24.55C12.6296 24.5658 12.6243 24.5816 12.619 24.6026C12.619 24.6132 12.6085 24.6132 12.6085 24.6237C12.6085 24.6342 12.619 24.6395 12.619 24.65C12.619 24.6605 12.619 24.6658 12.619 24.6763C12.6243 24.6921 12.6348 24.7027 12.6453 24.7132C12.6453 24.7132 12.6453 24.7132 12.6453 24.7184C12.698 24.7816 12.7927 24.7921 12.8506 24.7921C12.8611 24.7921 12.8717 24.7921 12.8822 24.7921C12.8822 24.7921 12.8822 24.7921 12.8927 24.7921C12.8927 24.7921 12.898 24.7921 12.9032 24.7921H12.9664C13.0453 24.7921 13.0927 24.7553 13.1243 24.7079C13.1348 24.6921 13.1453 24.6763 13.1453 24.6605C13.1453 24.65 13.1559 24.65 13.1559 24.6395C13.1559 24.629 13.1506 24.6237 13.1453 24.6132C13.1453 24.6026 13.1453 24.5974 13.1453 24.5869C13.119 24.5184 13.0506 24.4921 12.9822 24.4763C13.019 24.45 13.0506 24.4132 13.0611 24.3658C13.0611 24.3553 13.0611 24.3395 13.0611 24.329C13.0822 24.329 13.098 24.329 13.119 24.329C13.1401 24.35 13.1611 24.3711 13.1875 24.3816C13.2085 24.3921 13.2296 24.4026 13.2559 24.4079C13.2559 24.4079 13.2559 24.4079 13.2559 24.4132C13.2453 24.4395 13.2401 24.4605 13.2401 24.4658C13.2401 24.4763 13.2453 24.4763 13.2506 24.4869C13.2506 24.4974 13.2506 24.5026 13.2506 24.5132C13.2875 24.6237 13.4085 24.6342 13.4822 24.6342C13.4927 24.6342 13.5032 24.6342 13.5138 24.6342C13.5138 24.6342 13.5138 24.6342 13.519 24.6342H13.5875C13.5875 24.6342 13.6085 24.6342 13.619 24.6342C13.7664 24.6132 13.7769 24.5132 13.7769 24.4816C13.7769 24.4658 13.7717 24.4553 13.7664 24.4448C13.7664 24.4448 13.7664 24.4395 13.7664 24.4342C13.7664 24.4342 13.7611 24.429 13.7611 24.4237C13.7611 24.4237 13.7559 24.4132 13.7506 24.4079C13.7243 24.3711 13.6927 24.3448 13.6506 24.329H13.8243C13.8243 24.329 13.8243 24.3553 13.8296 24.3658C13.8296 24.3763 13.8296 24.3816 13.8296 24.3869C13.8296 24.3974 13.8401 24.4132 13.8453 24.4237C13.8506 24.4342 13.8559 24.45 13.8611 24.4605C13.8875 24.4921 13.9348 24.529 14.0085 24.529C14.0085 24.529 14.0085 24.529 14.0138 24.529C13.9769 24.5711 13.9664 24.6184 13.9664 24.629C13.9664 24.6342 13.9717 24.6395 13.9769 24.65C13.9769 24.6605 13.9769 24.6658 13.9769 24.6711C14.0138 24.7869 14.1401 24.7974 14.2138 24.7974C14.2243 24.7974 14.2348 24.7974 14.2453 24.7974H14.2559C14.2559 24.7974 14.2611 24.7974 14.2664 24.7974H14.3243C14.4559 24.7974 14.519 24.7184 14.519 24.6395C14.519 24.629 14.5138 24.6237 14.5085 24.6132C14.5085 24.6026 14.5085 24.5974 14.5085 24.5869C14.4822 24.5237 14.4296 24.4974 14.3717 24.4816C14.4085 24.4553 14.4348 24.4132 14.4401 24.3658C14.4401 24.3605 14.4401 24.3553 14.4401 24.35C14.4401 24.3448 14.4401 24.3342 14.4401 24.329H14.498C14.498 24.329 14.5085 24.3448 14.519 24.35C14.5506 24.3763 14.5875 24.3974 14.6296 24.4079C14.6296 24.4079 14.6296 24.4184 14.6243 24.4184C14.6138 24.4448 14.6085 24.4658 14.6085 24.4711C14.6085 24.4816 14.6138 24.4816 14.619 24.4921C14.619 24.5026 14.619 24.5079 14.619 24.5184C14.6559 24.629 14.7769 24.6395 14.8506 24.6395C14.8611 24.6395 14.8717 24.6395 14.8822 24.6395C14.8822 24.6395 14.8822 24.6395 14.8875 24.6395C14.8875 24.6395 14.8927 24.6395 14.898 24.6395H14.9506C14.9506 24.6395 14.9717 24.6395 14.9822 24.6395C15.0717 24.6237 15.1085 24.5816 15.1243 24.5448C15.1243 24.5448 15.1243 24.5448 15.1243 24.5395C15.1296 24.5184 15.1348 24.4974 15.1348 24.4921C15.1348 24.4869 15.1296 24.4763 15.1243 24.4658C15.1243 24.4605 15.1243 24.45 15.1243 24.4448C15.1243 24.4395 15.1138 24.4342 15.1138 24.429C15.1138 24.429 15.1138 24.429 15.1085 24.4237C15.0822 24.3869 15.0506 24.3605 15.0138 24.35C15.0138 24.35 15.0138 24.35 15.0138 24.3448H15.1927C15.1927 24.3448 15.1927 24.3448 15.1927 24.35C15.1927 24.3711 15.1927 24.5395 15.3822 24.55C15.3717 24.5658 15.3611 24.5763 15.3506 24.5869C15.3401 24.6132 15.3348 24.6395 15.3348 24.6448C15.3348 24.65 15.3401 24.6553 15.3401 24.6658C15.3401 24.6711 15.3401 24.6763 15.3401 24.6869C15.3769 24.8026 15.5032 24.8132 15.5769 24.8132C15.5875 24.8132 15.598 24.8132 15.6085 24.8132C15.6085 24.8132 15.6085 24.8132 15.6138 24.8132C15.6138 24.8132 15.619 24.8132 15.6243 24.8132H15.6822C15.8138 24.8132 15.8769 24.7342 15.8769 24.6553C15.8769 24.6448 15.8717 24.6395 15.8664 24.629C15.8664 24.6237 15.8664 24.6132 15.8664 24.6079C15.8453 24.5395 15.7927 24.5132 15.7348 24.4974C15.7717 24.4711 15.798 24.429 15.8032 24.3816C15.8032 24.3763 15.8032 24.3711 15.8032 24.3658C15.8032 24.3605 15.8032 24.35 15.8032 24.3448H15.8717C15.9032 24.3816 15.9453 24.4079 15.9875 24.4237C15.9875 24.4237 15.9875 24.4237 15.9875 24.429C15.9875 24.4342 15.9875 24.4395 15.9822 24.4448C15.9769 24.4658 15.9717 24.4816 15.9717 24.4869C15.9717 24.4921 15.9717 24.4921 15.9717 24.4974C15.9717 24.5079 15.9664 24.5184 15.9717 24.529C16.0085 24.6395 16.1296 24.65 16.2032 24.65C16.2138 24.65 16.2243 24.65 16.2348 24.65C16.2348 24.65 16.2348 24.65 16.2401 24.65H16.2927C16.2927 24.65 16.2717 24.65 16.2506 24.65C16.2348 24.65 16.2296 24.65 16.219 24.65C16.1296 24.6605 16.0927 24.7027 16.0769 24.7395C16.0664 24.7658 16.0611 24.7921 16.0611 24.8026C16.0611 24.8079 16.0664 24.8132 16.0664 24.8184C16.0664 24.8237 16.0664 24.829 16.0664 24.8342C16.0717 24.8605 16.0875 24.8763 16.098 24.8921C16.1506 24.9553 16.2506 24.9658 16.3085 24.9658C16.319 24.9658 16.3296 24.9658 16.3348 24.9658C16.3348 24.9658 16.3348 24.9658 16.3401 24.9658C16.3559 24.9658 16.3717 24.9658 16.4138 24.9658C16.4243 24.9658 16.4348 24.9658 16.4453 24.9658C16.598 24.9448 16.6085 24.8395 16.6085 24.8079C16.6085 24.7974 16.6032 24.7921 16.6032 24.7869C16.6032 24.7869 16.6032 24.7816 16.6032 24.7763C16.6032 24.7658 16.5927 24.7658 16.5927 24.7553C16.5927 24.75 16.5875 24.7395 16.5822 24.7342C16.5296 24.6448 16.4085 24.6395 16.3453 24.6395C16.3453 24.6395 16.3348 24.6395 16.3296 24.6395C16.3296 24.6395 16.3296 24.6395 16.3243 24.6395C16.3296 24.6395 16.3401 24.6395 16.3453 24.6395C16.4927 24.6184 16.5032 24.5184 16.5032 24.4869C16.5032 24.4132 16.4296 24.3605 16.3664 24.3605C16.3769 24.35 16.3875 24.3448 16.398 24.3342H16.6296C16.6296 24.3711 16.6296 24.4132 16.6559 24.45C16.6822 24.4921 16.719 24.5132 16.7611 24.529C16.7085 24.5711 16.698 24.6342 16.698 24.6448C16.698 24.65 16.698 24.6553 16.7032 24.6605C16.7032 24.6658 16.7032 24.6711 16.7032 24.6763C16.7243 24.7816 16.8506 24.8079 16.8822 24.8079C16.9138 24.8079 16.9453 24.8079 16.9769 24.8079H16.9875C16.9875 24.8079 16.9927 24.8079 16.998 24.8079H17.0611C17.2506 24.8079 17.2559 24.6658 17.2559 24.65C17.2559 24.6448 17.2559 24.6395 17.2559 24.6342C17.2559 24.6342 17.2559 24.629 17.2559 24.6237C17.2559 24.6184 17.2453 24.6132 17.2453 24.6079C17.2401 24.5869 17.2243 24.5711 17.2085 24.5605C17.1717 24.5184 17.119 24.4921 17.0769 24.4869C17.0717 24.4869 17.0611 24.4869 17.0559 24.4869C17.1032 24.45 17.1296 24.3974 17.1243 24.3342H17.2664C17.2927 24.3711 17.3348 24.3974 17.3769 24.4079C17.3611 24.4395 17.3559 24.4658 17.3559 24.4816C17.3559 24.4869 17.3611 24.4921 17.3611 24.4974C17.3611 24.5026 17.3611 24.5079 17.3611 24.5184C17.3927 24.6395 17.5401 24.6448 17.5348 24.6448C17.5664 24.65 17.5927 24.65 17.6243 24.65C17.6138 24.65 17.6085 24.65 17.598 24.65C17.4453 24.6711 17.4348 24.7763 17.4348 24.8079C17.4348 24.8184 17.4401 24.8237 17.4453 24.829C17.4453 24.829 17.4453 24.8342 17.4453 24.8395C17.4664 24.9448 17.5822 24.9816 17.6243 24.9711C17.6559 24.9711 17.6927 24.9763 17.7243 24.9763C17.7401 24.9763 17.7559 24.9763 17.798 24.9763C17.8085 24.9763 17.819 24.9763 17.8296 24.9763C17.9822 24.9553 17.9927 24.85 17.9927 24.8184C17.9927 24.8184 17.9927 24.8184 17.9927 24.8132C17.9927 24.8132 17.9927 24.8079 17.9927 24.8026C17.9927 24.8026 17.9927 24.7974 17.9927 24.7921C17.9927 24.7869 17.9822 24.7816 17.9822 24.7763C17.9822 24.7658 17.9769 24.7553 17.9664 24.7448C17.9559 24.7342 17.9506 24.7237 17.9401 24.7132C17.9032 24.6763 17.8559 24.6553 17.8138 24.65C17.7769 24.6395 17.7453 24.6395 17.7138 24.6448C17.7243 24.6448 17.7348 24.6448 17.7453 24.6448C17.8927 24.6237 17.9032 24.5237 17.9032 24.4921C17.9032 24.4237 17.8401 24.3711 17.7717 24.3658C17.7822 24.3553 17.7927 24.35 17.8032 24.3395H17.9664V24.35C17.9664 24.45 18.0506 24.529 18.1506 24.529C18.1506 24.529 18.1559 24.529 18.1611 24.529C18.098 24.5711 18.0927 24.6395 18.0927 24.65C18.0927 24.65 18.0927 24.6553 18.0927 24.6605C18.0927 24.6605 18.0927 24.6711 18.0927 24.6763C18.1138 24.7816 18.2243 24.8079 18.2664 24.8079C18.298 24.8079 18.3348 24.8132 18.3664 24.8132C18.3664 24.8132 18.3717 24.8132 18.3769 24.8132H18.4348C18.5348 24.8132 18.5822 24.7711 18.6085 24.7342C18.6085 24.729 18.6138 24.7184 18.619 24.7132C18.6296 24.6869 18.6348 24.6658 18.6348 24.6605C18.6348 24.6605 18.6348 24.6605 18.6348 24.6553C18.6348 24.65 18.6401 24.6448 18.6348 24.6342C18.6348 24.6237 18.619 24.6184 18.6138 24.6079C18.6085 24.5974 18.6032 24.5869 18.5927 24.5816C18.5611 24.5448 18.5296 24.5237 18.4927 24.5132C18.5506 24.4816 18.5927 24.4237 18.5927 24.3553C18.5927 24.3553 18.5927 24.3553 18.5927 24.35H18.6559C18.6822 24.3816 18.719 24.4132 18.7559 24.429C18.7348 24.4605 18.7348 24.4974 18.7348 24.5079C18.7348 24.5184 18.7401 24.5237 18.7453 24.529C18.7453 24.529 18.7453 24.5342 18.7453 24.5395C18.7453 24.55 18.7559 24.5605 18.7611 24.5711C18.7664 24.5816 18.7717 24.5974 18.7822 24.6079C18.8348 24.6605 18.919 24.6658 18.919 24.6658C18.9506 24.6711 18.9822 24.6711 19.019 24.6711H19.0875C19.0875 24.6711 19.1085 24.6711 19.119 24.6711C19.2664 24.65 19.2769 24.55 19.2769 24.5184C19.2769 24.5132 19.2769 24.5079 19.2717 24.4974C19.2717 24.4974 19.2717 24.4921 19.2717 24.4869C19.2717 24.4816 19.2611 24.4763 19.2611 24.4711C19.2559 24.4553 19.2506 24.4448 19.2401 24.4342C19.2243 24.4079 19.2032 24.3921 19.1717 24.3763C19.1769 24.3711 19.1822 24.3658 19.1927 24.3553H19.3138C19.3138 24.3553 19.3348 24.3553 19.3453 24.3553C19.3453 24.3553 19.3453 24.3553 19.3453 24.3605C19.3453 24.4658 19.4243 24.5448 19.5243 24.5448C19.5032 24.5605 19.4875 24.5763 19.4769 24.5921C19.4769 24.5921 19.4769 24.5974 19.4769 24.6026C19.4664 24.629 19.4611 24.6605 19.4611 24.6658C19.4611 24.6658 19.4611 24.6658 19.4611 24.6711C19.4611 24.6816 19.4559 24.6869 19.4611 24.6921C19.4822 24.8026 19.598 24.8237 19.6453 24.829C19.6769 24.829 19.7085 24.829 19.7348 24.829H19.7453C19.7453 24.829 19.7559 24.8237 19.7664 24.8184H19.819C19.9138 24.8184 19.9611 24.7816 19.9875 24.7448C19.9927 24.7342 19.998 24.7237 20.0032 24.7132C20.0138 24.6869 20.0138 24.6658 20.0138 24.6605C20.0138 24.6553 20.0138 24.65 20.0138 24.6448C20.0138 24.6342 20.0032 24.6342 19.998 24.6237C19.9927 24.6079 19.9822 24.5921 19.9664 24.5816C19.9401 24.5553 19.9138 24.5342 19.8822 24.529C19.9401 24.4974 19.9822 24.4395 19.9822 24.3658C19.9822 24.3658 19.9822 24.3605 19.9822 24.3553C20.0032 24.3553 20.0296 24.3553 20.0506 24.3553C20.0559 24.3658 20.0611 24.3711 20.0717 24.3816C20.0927 24.4026 20.119 24.4184 20.1453 24.429C20.1243 24.4605 20.1243 24.4974 20.1243 24.5079C20.1243 24.5132 20.1296 24.5184 20.1296 24.5237C20.1296 24.529 20.1296 24.5342 20.1296 24.5395C20.1611 24.6605 20.3085 24.6658 20.3032 24.6658C20.3348 24.6711 20.3664 24.6711 20.4032 24.6711C20.4032 24.6711 20.4085 24.6711 20.4138 24.6711H20.4611C20.4611 24.6711 20.4559 24.6711 20.4506 24.6711C20.4401 24.6711 20.3875 24.6711 20.3822 24.6711C20.3664 24.6711 20.3611 24.6711 20.3506 24.6711C20.198 24.6921 20.1875 24.7974 20.1875 24.829C20.1875 24.8342 20.1875 24.8395 20.1927 24.8448C20.1927 24.85 20.1927 24.8553 20.1927 24.8605C20.2138 24.9658 20.3243 24.9921 20.3664 24.9921C20.398 24.9921 20.4296 24.9921 20.4559 24.9921H20.4611C20.4611 24.9921 20.5296 24.9921 20.5348 24.9921C20.5453 24.9921 20.5559 24.9921 20.5664 24.9921C20.719 24.9711 20.7296 24.8658 20.7296 24.8342C20.7296 24.829 20.7296 24.8237 20.7243 24.8132C20.7243 24.8132 20.7243 24.8079 20.7243 24.8026C20.7243 24.7974 20.7138 24.7921 20.7138 24.7869C20.7085 24.7711 20.698 24.7605 20.6875 24.7448C20.6506 24.6974 20.5927 24.6711 20.5506 24.6658C20.5243 24.6605 20.5032 24.6605 20.4769 24.6605C20.4875 24.6605 20.4927 24.6605 20.5032 24.6605C20.6506 24.6395 20.6611 24.5395 20.6611 24.5079C20.6611 24.5026 20.6611 24.4974 20.6559 24.4869C20.6559 24.4869 20.6559 24.4816 20.6559 24.4763C20.6559 24.4711 20.6506 24.4658 20.6453 24.4605C20.6401 24.4448 20.6296 24.4342 20.619 24.4184C20.6032 24.3974 20.5875 24.3816 20.5664 24.3711C20.5717 24.3658 20.5769 24.3553 20.5875 24.35C20.6559 24.35 20.7243 24.35 20.7927 24.35C20.7927 24.3869 20.798 24.429 20.8243 24.4553C20.8559 24.4974 20.9032 24.5079 20.9506 24.5132C20.8506 24.5553 20.8401 24.6448 20.8401 24.6605C20.8401 24.6605 20.8401 24.6658 20.8401 24.6711V24.6816C20.8611 24.7921 20.9769 24.8132 21.0243 24.8184C21.0611 24.8184 21.0927 24.8184 21.1243 24.8184H21.198C21.198 24.8184 21.2138 24.8184 21.2296 24.8184C21.3138 24.8079 21.3506 24.7711 21.3717 24.7342C21.3874 24.7079 21.3927 24.6763 21.3927 24.6658C21.3927 24.6605 21.398 24.6553 21.3927 24.6448C21.3927 24.629 21.3769 24.6184 21.3664 24.6079C21.3664 24.6079 21.3664 24.6026 21.3611 24.5974C21.3348 24.5605 21.298 24.5342 21.2506 24.5184C21.3032 24.4921 21.3506 24.4553 21.3611 24.3921C21.3611 24.3816 21.3611 24.3658 21.3611 24.3553C21.3875 24.3553 21.4138 24.3553 21.4453 24.3553C21.4717 24.3921 21.5085 24.4184 21.5506 24.429C21.5138 24.4711 21.5032 24.5342 21.5348 24.5816C21.5453 24.6026 21.5875 24.6553 21.7296 24.6605V24.6658C21.6717 24.6763 21.6085 24.6974 21.5769 24.7605C21.5769 24.7658 21.5769 24.7711 21.5769 24.7816C21.5717 24.7974 21.5769 24.8079 21.5769 24.8237C21.5769 24.8395 21.5769 24.8553 21.5769 24.8658C21.5769 24.8711 21.5769 24.8763 21.5769 24.8869C21.619 24.9711 21.7138 24.9869 21.8085 24.9921C21.798 24.9974 21.798 25.0132 21.7927 25.0184C21.7927 25.0184 21.7875 25.0184 21.7822 25.0184C21.6348 25.0395 21.6243 25.1448 21.6243 25.1763C21.6243 25.1816 21.6243 25.1869 21.6296 25.1921C21.6296 25.1974 21.6296 25.2027 21.6296 25.2079C21.6506 25.3184 21.7769 25.3448 21.8032 25.3448C21.8348 25.3448 21.8611 25.3448 21.8927 25.3448C21.8717 25.3553 21.8559 25.3658 21.8453 25.3869C21.8243 25.3921 21.798 25.4026 21.7611 25.4237C21.7453 25.4342 21.7453 25.45 21.7348 25.4605C21.7243 25.4711 21.719 25.4763 21.7138 25.4921C21.7138 25.4974 21.7138 25.5026 21.7085 25.5079C21.7085 25.5184 21.698 25.529 21.698 25.5395C21.698 25.6132 21.7559 25.7026 21.9085 25.7026C21.919 25.7026 21.919 25.6974 21.9296 25.6921C21.9348 25.6921 21.9401 25.7026 21.9453 25.7026C21.9453 25.7026 21.9506 25.7026 21.9559 25.7026C21.9717 25.7026 21.9875 25.7026 22.019 25.7026C22.0453 25.7026 22.0769 25.7027 22.1401 25.6605C22.1453 25.6605 22.1401 25.65 22.1506 25.6448C22.1664 25.6342 22.1769 25.6184 22.1822 25.5974C22.1822 25.5869 22.1927 25.5816 22.1927 25.5711C22.1927 25.5605 22.2032 25.5553 22.2032 25.5448C22.2032 25.4553 22.1296 25.3921 22.0506 25.3921C22.0348 25.3658 22.0138 25.35 21.9822 25.3395C22.1032 25.329 22.1611 25.2553 22.1611 25.1816C22.1611 25.1763 22.1611 25.1711 22.1559 25.1658C22.1559 25.1658 22.1559 25.1553 22.1559 25.15C22.1348 25.05 22.0348 25.0184 21.9927 25.0184C21.9822 25.0026 21.9664 24.9921 21.9453 24.9816C22.098 24.9605 22.1085 24.8553 22.1085 24.8237C22.1085 24.8184 22.1085 24.8132 22.1085 24.8079C22.1085 24.8079 22.1085 24.8027 22.1085 24.7974C22.1085 24.7921 22.098 24.7869 22.098 24.7816C22.0927 24.7658 22.0822 24.75 22.0664 24.7342C22.0296 24.6921 21.9769 24.6658 21.9296 24.6605C21.9243 24.65 21.919 24.6448 21.9138 24.6342C22.0348 24.6079 22.0453 24.5132 22.0453 24.4921C22.0453 24.4921 22.0453 24.4869 22.0453 24.4816C22.0453 24.4816 22.0453 24.4763 22.0453 24.4711C22.0453 24.45 22.0243 24.3974 21.9717 24.3605C21.9717 24.3605 21.9717 24.3553 21.9769 24.35C21.9769 24.35 21.9822 24.3448 21.9875 24.3395H22.0138C22.0611 24.3395 22.1032 24.3184 22.1348 24.2921C22.1506 24.3079 22.1664 24.3184 22.1875 24.3237C22.1875 24.329 22.1875 24.3395 22.1875 24.3448C22.1875 24.3448 22.1875 24.35 22.1875 24.3553C22.1875 24.3605 22.1875 24.3605 22.1875 24.3658C22.1875 24.3816 22.1875 24.3921 22.198 24.4079C22.198 24.4184 22.2032 24.429 22.2085 24.4395V24.45C22.2085 24.45 22.219 24.4553 22.219 24.4605C22.2348 24.4816 22.2506 24.4974 22.2717 24.5132C22.2717 24.5132 22.2769 24.5132 22.2822 24.5184C22.2138 24.5605 22.2085 24.6342 22.2085 24.6448C22.2085 24.6553 22.2138 24.6605 22.219 24.6658C22.219 24.6921 22.2348 24.7132 22.2453 24.7342C22.2822 24.7763 22.3348 24.8026 22.3875 24.8026C22.4085 24.8026 22.4296 24.8026 22.4453 24.8026C22.4401 24.8079 22.4348 24.8132 22.4296 24.8237C22.4296 24.8237 22.4243 24.8237 22.419 24.8237C22.2769 24.8448 22.2611 24.9395 22.2611 24.9816C22.2611 24.9816 22.2611 24.9869 22.2611 24.9921C22.2611 25.0921 22.3664 25.15 22.4401 25.1448C22.4717 25.1448 22.498 25.1448 22.5243 25.1448C22.498 25.1605 22.4769 25.1816 22.4664 25.2079C22.4559 25.2079 22.4453 25.2079 22.4348 25.2079C22.3611 25.2237 22.319 25.2921 22.3296 25.3605C22.3506 25.4605 22.4453 25.4921 22.5032 25.4974C22.5348 25.4974 22.5611 25.4974 22.5875 25.5026C22.5611 25.5132 22.5401 25.529 22.5296 25.55C22.5085 25.5553 22.4822 25.5658 22.4506 25.5921C22.419 25.6237 22.3927 25.6553 22.3927 25.6974C22.3927 25.7869 22.4664 25.8553 22.5506 25.8553C22.5769 25.8605 22.6085 25.8605 22.6348 25.8605C22.6506 25.8605 22.6611 25.8605 22.6927 25.8605C22.719 25.8605 22.7559 25.8553 22.8138 25.8132L22.7611 25.7342V25.6763C22.7611 25.6763 22.7559 25.6658 22.7506 25.6553V25.6184C22.7506 25.5605 22.7032 25.5132 22.6506 25.4974C22.6611 25.4974 22.6664 25.4974 22.6769 25.4974C22.8138 25.4711 22.8296 25.3816 22.8296 25.3395C22.8296 25.2605 22.7506 25.2079 22.6769 25.2132C22.6611 25.1763 22.6348 25.15 22.598 25.1395C22.6927 25.1395 22.7611 25.0921 22.7822 25.0184C22.7822 25.0184 22.7822 25.0132 22.7822 25.0079C22.7822 24.9974 22.7875 24.9869 22.7875 24.9763C22.7875 24.9658 22.7822 24.9553 22.7769 24.9448C22.7769 24.9342 22.7769 24.9237 22.7769 24.9184C22.7453 24.8553 22.6822 24.829 22.6138 24.8184C22.6032 24.8026 22.5927 24.7974 22.5769 24.7921C22.7296 24.7763 22.7401 24.6553 22.7401 24.6395C22.7401 24.6026 22.719 24.5763 22.698 24.5553C22.6717 24.5237 22.6348 24.5026 22.5875 24.4921C22.6559 24.45 22.6927 24.3711 22.6664 24.2869C22.6664 24.2816 22.6611 24.2763 22.6559 24.2658C22.7401 24.2658 22.819 24.2658 22.9032 24.2711C22.9032 24.2763 22.9032 24.2816 22.9085 24.2869C22.9138 24.3132 22.9243 24.3342 22.9453 24.3553C22.9348 24.3605 22.919 24.3605 22.9085 24.3711C22.9032 24.3763 22.898 24.3921 22.8927 24.3974C22.8769 24.4237 22.8664 24.45 22.8664 24.4711C22.8664 24.4711 22.8664 24.4763 22.8664 24.4816C22.8664 24.4816 22.8664 24.4869 22.8664 24.4921C22.8664 24.5237 22.9032 24.6237 23.0348 24.6237C23.0348 24.6237 23.0611 24.6237 23.0769 24.6237C23.0664 24.6395 23.0611 24.6605 23.0559 24.6763C23.0401 24.6763 23.0243 24.6605 23.0085 24.6658C22.9348 24.6816 22.8927 24.75 22.9032 24.8184C22.9243 24.9237 23.0348 24.95 23.0769 24.95C23.0769 24.95 23.1243 24.95 23.1453 24.95C23.119 24.9658 23.1085 24.9921 23.098 25.0184C23.0822 25.0184 23.0717 25.0026 23.0559 25.0079C22.9822 25.0237 22.9401 25.0921 22.9506 25.1605C22.9717 25.2711 23.1032 25.2974 23.1243 25.2974C23.1453 25.2974 23.1664 25.2974 23.1875 25.2974C23.1664 25.3132 23.1611 25.329 23.1506 25.35C23.1506 25.35 23.1453 25.35 23.1401 25.35C23.0664 25.35 23.0085 25.4079 23.0085 25.4816V25.5026C23.0085 25.5026 23.0138 25.5132 23.019 25.5237C23.0348 25.6132 23.119 25.6658 23.1769 25.6605C23.2032 25.6658 23.2401 25.6658 23.2664 25.6658C23.2664 25.6658 23.2717 25.6658 23.2769 25.6658C23.2875 25.6658 23.3032 25.6658 23.3296 25.6658C23.3927 25.6658 23.4401 25.6395 23.4717 25.6026C23.498 25.5763 23.519 25.5448 23.519 25.5079C23.519 25.5079 23.5085 25.4869 23.5085 25.4763C23.5085 25.4605 23.498 25.4448 23.4927 25.4342C23.4822 25.4132 23.4664 25.4026 23.4453 25.3921C23.4296 25.3816 23.4138 25.3711 23.3927 25.3711C23.3927 25.3711 23.3875 25.3711 23.3822 25.3711C23.3717 25.3395 23.3559 25.3132 23.3243 25.2974C23.3243 25.2974 23.3296 25.2974 23.3348 25.2974C23.4769 25.2763 23.4927 25.1816 23.4927 25.1395C23.4927 25.1237 23.4822 25.1132 23.4769 25.0974C23.4769 25.0869 23.4769 25.0763 23.4769 25.0711C23.4453 25.0132 23.3822 24.9921 23.319 24.9816C23.3085 24.9658 23.2927 24.9605 23.2769 24.95C23.2769 24.95 23.2822 24.95 23.2875 24.95C23.4348 24.929 23.4506 24.8237 23.4506 24.7921C23.4506 24.7763 23.4453 24.7658 23.4401 24.7553C23.419 24.6816 23.3506 24.6395 23.2769 24.629C23.2769 24.629 23.2769 24.6184 23.2717 24.6132C23.298 24.6079 23.3296 24.5974 23.3559 24.5711C23.3664 24.5605 23.3717 24.55 23.3769 24.5395C23.3875 24.5184 23.398 24.4921 23.398 24.4658C23.398 24.4605 23.398 24.4553 23.398 24.45C23.398 24.45 23.398 24.4448 23.398 24.4395C23.398 24.4342 23.3875 24.429 23.3875 24.4237C23.3822 24.4079 23.3717 24.3921 23.3559 24.3816C23.3453 24.3711 23.3401 24.35 23.3243 24.3448C23.3453 24.3237 23.3611 24.2974 23.3717 24.2711C23.4296 24.2711 23.498 24.2711 23.5559 24.2711C23.5453 24.2869 23.5453 24.3027 23.5401 24.3184L23.5348 24.329C23.5348 24.3553 23.5611 24.4763 23.6875 24.4816C23.5769 24.5184 23.5664 24.6132 23.5664 24.6237C23.5664 24.6237 23.5664 24.629 23.5664 24.6342V24.6448C23.5875 24.7553 23.719 24.7869 23.7401 24.7816C23.7559 24.7816 23.7717 24.7816 23.7822 24.7816C23.7822 24.7816 23.7822 24.7921 23.7717 24.7974C23.7717 24.7974 23.7611 24.7974 23.7559 24.7974C23.6138 24.8184 23.598 24.9132 23.598 24.9553C23.598 24.9605 23.598 24.9658 23.6032 24.9711C23.6032 24.9763 23.6032 24.9816 23.6032 24.9869C23.6032 25.0079 23.6243 25.0184 23.6348 25.0342C23.6348 25.0395 23.6401 25.0448 23.6453 25.05C23.6769 25.0869 23.7138 25.1132 23.7664 25.1132C23.7822 25.1132 23.7927 25.1026 23.8085 25.0974C23.8243 25.1079 23.8401 25.1184 23.8611 25.1237C23.8453 25.1342 23.8296 25.1448 23.819 25.1605C23.6717 25.1816 23.6611 25.2869 23.6611 25.3184C23.6611 25.4184 23.7559 25.4763 23.8243 25.4763C23.8243 25.4763 23.8822 25.4816 23.9085 25.4816H23.9138C23.9296 25.4816 23.9453 25.4816 23.9822 25.4816C23.9927 25.4816 24.0032 25.4816 24.0138 25.4816C24.1611 25.4605 24.1717 25.3553 24.1717 25.3237C24.1717 25.3132 24.1664 25.3026 24.1611 25.2921C24.1453 25.2079 24.0717 25.1658 24.0085 25.1605C23.9875 25.1342 23.9611 25.1132 23.9243 25.1079C23.9401 25.1026 23.9506 25.0921 23.9664 25.0816C23.9822 25.0816 23.9927 25.0974 24.0085 25.0974C24.0822 25.0974 24.1401 25.0395 24.1401 24.9658C24.1401 24.8711 24.0559 24.8184 23.9717 24.8079C23.9611 24.7921 23.9453 24.7869 23.9348 24.7816C24.0085 24.7711 24.0506 24.7448 24.0717 24.7132C24.0927 24.6763 24.098 24.6448 24.098 24.6342C24.098 24.6342 24.098 24.629 24.098 24.6237C24.098 24.6237 24.098 24.6237 24.098 24.6184C24.098 24.6132 24.0927 24.6079 24.0875 24.6026C24.0822 24.5816 24.0717 24.5658 24.0559 24.55C24.0243 24.5132 23.9874 24.4869 23.9296 24.4816V24.4711C23.9927 24.4605 24.0453 24.4132 24.0453 24.3448C24.0453 24.3395 24.0453 24.3237 24.0401 24.3026C24.0822 24.3026 24.1243 24.3079 24.1664 24.3132C24.1822 24.3605 24.2138 24.3921 24.2559 24.4132C24.2453 24.4342 24.2348 24.4605 24.2348 24.4816C24.2348 24.4974 24.2348 24.629 24.4085 24.6342C24.4401 24.6342 24.4664 24.6395 24.498 24.6395C24.498 24.6395 24.5032 24.6395 24.5085 24.6395H24.5664C24.5664 24.6395 24.5769 24.6395 24.5822 24.6395C24.6138 24.6395 24.6717 24.6395 24.7138 24.5921C24.7401 24.5658 24.7559 24.5237 24.7559 24.4869C24.7559 24.4763 24.7506 24.4132 24.698 24.3711C24.7085 24.3605 24.719 24.3553 24.7243 24.3395C24.7769 24.3395 24.8296 24.3448 24.8822 24.35C24.8822 24.3605 24.8927 24.3711 24.9032 24.3816C24.9032 24.4132 24.9138 24.4395 24.9296 24.4605C24.9506 24.4869 24.9822 24.5026 25.0085 24.5079C24.9927 24.5132 24.9822 24.5184 24.9664 24.529C24.9401 24.5553 24.9243 24.5974 24.9243 24.6342C24.9243 24.6448 24.9348 24.65 24.9348 24.6605C24.9453 24.729 25.0032 24.8026 25.098 24.7921C25.1085 24.7921 25.119 24.7921 25.1243 24.7921C25.1243 24.7921 25.1243 24.7974 25.1243 24.8026C25.1243 24.8026 25.1243 24.8026 25.119 24.8026C24.9822 24.8237 24.9611 24.9026 24.9559 24.9448C24.9559 24.95 24.9506 24.9553 24.9506 24.9605C24.9506 25.0658 25.0453 25.1079 25.1296 25.1184C25.1559 25.1184 25.1769 25.1184 25.198 25.1184C25.1822 25.129 25.1717 25.1342 25.1611 25.1448C25.1611 25.1448 25.1559 25.1448 25.1506 25.1448C24.998 25.1658 24.9875 25.2711 24.9875 25.3026C24.9875 25.3026 24.9875 25.3079 24.9875 25.3132C24.9875 25.3132 24.9875 25.3237 24.9875 25.329C24.9875 25.3448 25.0032 25.3448 25.0085 25.3553C25.019 25.3711 25.0243 25.3869 25.0401 25.4026C25.0769 25.4395 25.1243 25.4605 25.1611 25.4658C25.1875 25.4711 25.2138 25.4711 25.2348 25.4711C25.2138 25.4816 25.198 25.4869 25.1822 25.5079C25.0506 25.5342 25.0296 25.6184 25.0296 25.6605C25.0296 25.7605 25.1296 25.8132 25.198 25.8184C25.219 25.8184 25.2401 25.8184 25.2611 25.8184C25.2401 25.829 25.2243 25.8395 25.2085 25.8605C25.1875 25.8658 25.1611 25.8763 25.1296 25.8974C25.1138 25.9079 25.1138 25.9184 25.1085 25.929C25.098 25.9395 25.0927 25.9448 25.0875 25.9553C25.0875 25.9658 25.0769 25.9711 25.0769 25.9816C25.0769 25.9921 25.0717 25.9974 25.0717 26.0026C25.0717 26.0921 25.1559 26.1658 25.2348 26.1553C25.2611 26.1553 25.2875 26.1605 25.319 26.1605C25.3348 26.1605 25.3453 26.1605 25.3769 26.1605C25.4032 26.1605 25.4348 26.1605 25.498 26.1184C25.5032 26.1184 25.5032 26.1026 25.5138 26.0974C25.5243 26.0869 25.5296 26.0763 25.5401 26.0605C25.5401 26.05 25.5506 26.0395 25.5559 26.029C25.5559 26.0184 25.5664 26.0132 25.5664 25.9974C25.5664 25.9132 25.498 25.8605 25.419 25.85C25.4032 25.829 25.3875 25.8132 25.3611 25.8027C25.3717 25.8027 25.3875 25.8027 25.3927 25.8027C25.5243 25.7763 25.5453 25.6921 25.5453 25.6448C25.5453 25.5448 25.4559 25.4974 25.3822 25.4869C25.3611 25.4605 25.3348 25.4448 25.298 25.4395C25.3243 25.429 25.3453 25.4184 25.3611 25.3974C25.3769 25.3974 25.3875 25.4132 25.398 25.4132C25.4085 25.4132 25.4138 25.4132 25.4243 25.4132C25.498 25.3974 25.5401 25.329 25.5296 25.2605C25.5085 25.1553 25.398 25.1237 25.3559 25.129C25.3453 25.1184 25.3296 25.1132 25.3138 25.1026H25.3348C25.4875 25.0816 25.5032 24.9869 25.5032 24.9448C25.5032 24.85 25.4138 24.7921 25.3243 24.7869C25.3243 24.7869 25.3243 24.7763 25.319 24.7711C25.4506 24.7448 25.4611 24.6448 25.4611 24.6237C25.4611 24.6184 25.4611 24.6132 25.4611 24.6079V24.5974C25.4611 24.5869 25.4506 24.5869 25.4506 24.5763C25.4453 24.5658 25.4401 24.5553 25.4296 24.5448C25.4032 24.5132 25.3717 24.4921 25.3243 24.4816C25.3243 24.4816 25.3348 24.4763 25.3401 24.4763C25.3559 24.4711 25.3717 24.4658 25.3822 24.4553C25.3875 24.45 25.3927 24.4395 25.398 24.4342C25.4085 24.4184 25.419 24.4079 25.4243 24.3869C25.4243 24.3869 25.4243 24.3869 25.4243 24.3816C25.5032 24.3869 25.5822 24.3974 25.6559 24.4026C25.6506 24.4079 25.6453 24.4237 25.6401 24.429C25.6243 24.45 25.6085 24.4763 25.6085 24.5026C25.6085 24.5237 25.619 24.6342 25.7664 24.65C25.7085 24.6605 25.6717 24.6921 25.6506 24.7184C25.6506 24.7184 25.6506 24.729 25.6453 24.7342C25.6348 24.7605 25.6296 24.7869 25.6296 24.7974C25.6296 24.7974 25.6296 24.7974 25.6296 24.8026C25.6296 24.8079 25.6243 24.8132 25.6296 24.8237C25.6506 24.9342 25.7822 24.9605 25.8032 24.9605C25.8085 24.9605 25.819 24.9605 25.8243 24.9605C25.8243 24.9605 25.8243 24.9711 25.819 24.9763C25.6664 24.9974 25.6506 25.0921 25.6506 25.1342C25.6506 25.2342 25.7401 25.2921 25.8296 25.2974C25.8506 25.2974 25.8664 25.2974 25.8822 25.2974C25.8664 25.3079 25.8559 25.3132 25.8506 25.3237C25.7032 25.3448 25.6875 25.4448 25.6875 25.4816C25.6875 25.5763 25.7717 25.6342 25.8611 25.6395C25.8875 25.6448 25.9085 25.6448 25.9296 25.6448C25.9085 25.6553 25.8927 25.6605 25.8769 25.6816C25.8348 25.6921 25.8085 25.7026 25.7875 25.7237C25.7769 25.7342 25.7664 25.7395 25.7559 25.75C25.7348 25.7763 25.7296 25.7974 25.7296 25.8184C25.7296 25.8184 25.7296 25.8184 25.7296 25.8237V25.8342C25.7296 25.9395 25.819 25.9869 25.8927 25.9921C25.919 25.9921 25.9453 25.9974 25.9769 25.9974H25.9874C26.0032 25.9974 26.019 25.9974 26.0559 25.9974C26.0717 25.9974 26.0822 25.9974 26.0927 25.9921C26.2243 25.9658 26.2453 25.8816 26.2453 25.8395C26.2453 25.75 26.1717 25.6816 26.0822 25.6816C26.0664 25.6605 26.0506 25.6553 26.0296 25.6448C26.0401 25.6448 26.0506 25.6448 26.0664 25.6448C26.2085 25.6237 26.2243 25.529 26.2243 25.4869C26.2243 25.3816 26.1296 25.329 26.0506 25.329C26.0506 25.329 26.0085 25.2921 25.9769 25.2869C25.998 25.2763 26.0138 25.2711 26.0243 25.2553C26.0401 25.2553 26.0506 25.2711 26.0664 25.2711C26.1401 25.2711 26.198 25.2132 26.198 25.1395C26.198 25.0395 26.1085 24.9816 26.019 24.9763C26.019 24.9711 26.0138 24.9605 26.0085 24.9553C26.0769 24.9448 26.1243 24.9184 26.1401 24.8869C26.1401 24.8816 26.1401 24.8763 26.1506 24.8658C26.1611 24.8395 26.1664 24.8132 26.1664 24.8079C26.1664 24.8027 26.1664 24.7974 26.1664 24.7921C26.1664 24.7763 26.1506 24.7711 26.1453 24.7553C26.1453 24.75 26.1401 24.7448 26.1348 24.7395C26.1085 24.6974 26.0664 24.6658 26.0032 24.6553C26.0717 24.6395 26.1243 24.5869 26.1243 24.5184C26.1243 24.5079 26.1243 24.4816 26.1032 24.45C26.1822 24.4605 26.2664 24.4711 26.3453 24.4763C26.3453 24.4763 26.3453 24.4816 26.3453 24.4869C26.3453 24.4921 26.3559 24.4974 26.3559 24.5026C26.3611 24.5132 26.3559 24.529 26.3717 24.5395C26.3717 24.5395 26.3769 24.5395 26.3822 24.5448C26.3717 24.55 26.3559 24.55 26.3453 24.5605C26.319 24.5869 26.298 24.629 26.298 24.6658C26.298 24.6816 26.298 24.8132 26.4717 24.8237C26.319 24.8395 26.3085 24.9553 26.3085 24.9763C26.3085 25.0026 26.3243 25.029 26.3401 25.0553C26.3401 25.0605 26.3453 25.0658 26.3506 25.0711C26.3822 25.1026 26.419 25.1237 26.4559 25.1237C26.4664 25.1237 26.4769 25.1132 26.4874 25.1079C26.5085 25.129 26.5401 25.1448 26.5717 25.1448C26.6032 25.1448 26.6243 25.129 26.6453 25.1132C26.6611 25.1184 26.6769 25.129 26.698 25.129C26.719 25.129 26.7401 25.129 26.7559 25.1132C26.7717 25.1026 26.7875 25.0869 26.8032 25.0658C26.8032 25.0658 26.8138 25.0605 26.8138 25.0553C26.8138 25.0553 26.819 25.0553 26.819 25.05C26.8296 25.0342 26.819 25.0184 26.8243 24.9974C26.8243 24.9869 26.8348 24.9763 26.8348 24.9605C26.8348 24.9605 26.8348 24.9605 26.8348 24.9553C26.8348 24.9395 26.819 24.929 26.8085 24.9132C26.7822 24.8658 26.7348 24.8342 26.6717 24.829C26.698 24.829 26.7296 24.8184 26.7611 24.7921C26.7875 24.7658 26.8085 24.7184 26.8085 24.6816C26.8085 24.6711 26.8032 24.6079 26.7506 24.5658C26.7611 24.5658 26.7717 24.5763 26.7875 24.5763C26.8032 24.5763 26.819 24.5763 26.8348 24.5658H26.8401L26.9822 24.5869C26.9822 24.5869 26.9769 24.6026 26.9822 24.6132C26.9822 24.6132 26.9822 24.6132 26.9822 24.6184C26.9927 24.6448 27.0032 24.6711 27.0243 24.6869C27.0243 24.6869 27.0243 24.6974 27.0348 24.7027C27.0453 24.7132 27.0559 24.7132 27.0717 24.7184C27.0559 24.7237 27.0401 24.729 27.0243 24.7395C27.0138 24.75 27.0085 24.7605 27.0032 24.7763C27.0032 24.7763 27.0032 24.7763 27.0032 24.7816C27.0032 24.7921 26.998 24.7974 26.9927 24.8079C26.9927 24.8184 26.9822 24.829 26.9822 24.8448C26.9822 24.9184 27.0348 24.9921 27.1559 25.0026C27.1559 25.0026 27.1611 25.0026 27.1664 25.0026V25.0079C27.0085 25.0237 26.998 25.1448 26.998 25.1605C26.998 25.2342 27.0559 25.2921 27.1296 25.2921C27.1453 25.2921 27.1559 25.2816 27.1664 25.2816C27.1822 25.3026 27.2085 25.3079 27.2296 25.3184C27.2138 25.329 27.1927 25.3342 27.1822 25.35H27.1769C27.0243 25.3711 27.0085 25.4658 27.0085 25.5079C27.0085 25.5184 27.019 25.5237 27.019 25.5342C27.019 25.5553 27.0296 25.5711 27.0401 25.5869C27.0401 25.5921 27.0453 25.5974 27.0506 25.6026C27.0822 25.6395 27.1348 25.6605 27.1875 25.6658C27.2085 25.6658 27.2243 25.6658 27.2401 25.6658C27.2243 25.6763 27.2085 25.6763 27.198 25.6921C27.198 25.6921 27.198 25.6921 27.1875 25.6921C27.0348 25.7132 27.0243 25.8184 27.0243 25.85C27.0243 25.9448 27.1085 26.0026 27.198 26.0079C27.219 26.0132 27.2348 26.0079 27.2559 26.0132C27.2401 26.0237 27.2243 26.029 27.2138 26.0448C27.2138 26.0448 27.2138 26.0448 27.2085 26.0448C27.0611 26.0658 27.0506 26.1711 27.0506 26.2026C27.0506 26.2026 27.0506 26.2079 27.0506 26.2132V26.2237C27.0717 26.3342 27.1875 26.3605 27.219 26.3553C27.2348 26.3553 27.2506 26.3553 27.2717 26.3553C27.2559 26.3658 27.2401 26.3711 27.2296 26.3869C27.2296 26.3869 27.2296 26.3869 27.2243 26.3869C27.0927 26.4132 27.0717 26.4974 27.0717 26.5448C27.0717 26.55 27.0769 26.5553 27.0769 26.5605C27.0875 26.65 27.1717 26.7079 27.2401 26.7027C27.2664 26.7079 27.3032 26.7079 27.3296 26.7079C27.3453 26.7079 27.3611 26.7079 27.398 26.7079C27.4085 26.7079 27.4296 26.7079 27.4348 26.7027C27.5664 26.6763 27.5875 26.5921 27.5875 26.5448C27.5875 26.529 27.5769 26.5184 27.5717 26.5026C27.5506 26.4342 27.4874 26.3869 27.4243 26.3869C27.4138 26.3711 27.398 26.3605 27.3769 26.35C27.3927 26.35 27.398 26.35 27.4085 26.35C27.5559 26.329 27.5664 26.2237 27.5664 26.1921C27.5664 26.1869 27.5664 26.1816 27.5664 26.1763C27.5664 26.1763 27.5664 26.1711 27.5664 26.1658C27.5664 26.15 27.5559 26.1395 27.5453 26.129C27.5453 26.129 27.5453 26.129 27.5453 26.1237C27.5032 26.0605 27.4243 26.0342 27.4032 26.0342C27.3875 26.0184 27.3717 26.0079 27.3506 26.0026C27.3506 26.0026 27.3559 26.0026 27.3611 26.0026C27.3717 26.0026 27.3822 26.0026 27.3927 26.0026C27.5401 25.9816 27.5559 25.8816 27.5559 25.85C27.5559 25.7553 27.4717 25.6974 27.3822 25.6921C27.3717 25.6763 27.3559 25.6711 27.3401 25.6658C27.3506 25.6658 27.3611 25.6658 27.3769 25.6658C27.4401 25.6553 27.4769 25.6342 27.5032 25.6079C27.5296 25.5763 27.5401 25.5395 27.5401 25.5184C27.5401 25.5184 27.5401 25.5132 27.5401 25.5079C27.5348 25.4184 27.4506 25.3658 27.3664 25.3553C27.3506 25.3342 27.3296 25.3237 27.3032 25.3132C27.319 25.3079 27.3348 25.3027 27.3453 25.2869C27.3611 25.2921 27.3769 25.3026 27.3927 25.3026C27.398 25.3026 27.4085 25.3026 27.4138 25.3026C27.4875 25.2921 27.5348 25.2237 27.5243 25.15C27.5138 25.0711 27.4453 25.0237 27.3559 25.0132C27.3875 25.0132 27.4243 25.0026 27.4559 24.9711C27.4822 24.9448 27.498 24.9026 27.498 24.8658C27.498 24.8342 27.4822 24.8079 27.4611 24.7869C27.4453 24.7658 27.4243 24.75 27.3927 24.7395C27.4032 24.7395 27.4032 24.7237 27.4085 24.7184C27.419 24.7079 27.4296 24.6974 27.4348 24.6869C27.4453 24.6711 27.4506 24.6605 27.4559 24.6448C27.5453 24.6605 27.6296 24.6763 27.719 24.6869C27.719 24.6869 27.7296 24.6869 27.7348 24.6869C27.7348 24.6921 27.7348 24.6974 27.7243 24.7079C27.719 24.7184 27.7138 24.729 27.7085 24.7395C27.7085 24.7658 27.7085 24.7869 27.719 24.8132V24.8237C27.719 24.8342 27.719 24.8395 27.7296 24.85C27.7401 24.8605 27.7559 24.8711 27.7717 24.8763C27.7453 24.8816 27.719 24.8921 27.6927 24.9184C27.6822 24.929 27.6769 24.9395 27.6717 24.9553C27.6664 24.9658 27.6611 24.9763 27.6611 24.9869C27.6611 24.9974 27.6506 25.0079 27.6506 25.0184C27.6506 25.1079 27.7243 25.1711 27.8243 25.1763C27.8243 25.1763 27.8243 25.1763 27.8296 25.1763V25.1869C27.6717 25.2026 27.6611 25.3237 27.6611 25.3395C27.6611 25.4132 27.719 25.4711 27.7927 25.4711C27.8085 25.4711 27.819 25.4605 27.8348 25.4553C27.8506 25.4763 27.8717 25.4816 27.898 25.4921C27.8822 25.5026 27.8611 25.5079 27.8506 25.5184H27.8401C27.6927 25.5395 27.6769 25.629 27.6717 25.6711C27.6717 25.7079 27.6875 25.7342 27.7085 25.7553C27.7401 25.7921 27.7927 25.8184 27.8453 25.8237C27.8664 25.829 27.8822 25.8237 27.898 25.829C27.8822 25.8395 27.8664 25.8395 27.8559 25.8553C27.8559 25.8553 27.8453 25.8553 27.8401 25.8553C27.698 25.8763 27.6822 25.9711 27.6822 26.0132C27.6822 26.0869 27.7401 26.1448 27.8138 26.1448C27.8296 26.1448 27.8401 26.1342 27.8559 26.129C27.8717 26.15 27.898 26.1605 27.9243 26.1711C27.8874 26.1869 27.8664 26.2079 27.8559 26.2448C27.7822 26.2395 27.7032 26.2921 27.7032 26.3711C27.7032 26.4658 27.7875 26.5237 27.8769 26.529C27.9138 26.5395 27.9453 26.5395 27.9717 26.5395C27.9874 26.5395 28.0032 26.5395 28.0453 26.5395C28.0559 26.5395 28.0664 26.5395 28.0822 26.5395C28.2243 26.5184 28.2401 26.4237 28.2401 26.3816C28.2401 26.3553 28.2296 26.3342 28.2138 26.3132C28.2032 26.2974 28.1875 26.2869 28.1664 26.2763C28.1664 26.2763 28.1664 26.2763 28.1611 26.2763C28.1453 26.2711 28.1296 26.2553 28.1138 26.2553C28.1085 26.2553 28.1032 26.2605 28.098 26.2605C28.0822 26.2184 28.0559 26.1921 28.0138 26.1816C28.0348 26.1763 28.0506 26.1711 28.0664 26.1553C28.0822 26.1605 28.0927 26.1711 28.1085 26.1711C28.1822 26.1711 28.2401 26.1132 28.2401 26.0395C28.2401 25.9448 28.1559 25.8869 28.0664 25.8763C28.0559 25.8605 28.0401 25.8553 28.0243 25.85H28.0611C28.2085 25.829 28.2296 25.7342 28.2296 25.6921C28.2296 25.5921 28.1401 25.5395 28.0559 25.529C28.0401 25.5079 28.019 25.5026 27.9927 25.4921C28.0085 25.4816 28.0296 25.4763 28.0401 25.4605C28.0559 25.4658 28.0664 25.4763 28.0875 25.4763C28.098 25.4763 28.1032 25.4763 28.1138 25.4763C28.1875 25.4605 28.2296 25.3921 28.219 25.3237C28.2032 25.229 28.1085 25.1974 28.0453 25.1869C28.0453 25.1869 28.0453 25.1869 28.0453 25.1816C28.0769 25.1816 28.119 25.1711 28.1559 25.1395C28.1559 25.1395 28.1559 25.129 28.1611 25.129C28.1611 25.129 28.1611 25.129 28.1611 25.1237C28.1769 25.1026 28.1822 25.0816 28.1875 25.0605C28.1875 25.0553 28.198 25.05 28.198 25.0395C28.198 25.0237 28.1875 25.0132 28.1822 24.9974C28.1822 24.9869 28.1769 24.9763 28.1717 24.9711C28.1506 24.929 28.1085 24.9027 28.0453 24.8921C28.0453 24.8921 28.0559 24.8921 28.0611 24.8921C28.0717 24.8869 28.0717 24.8711 28.0822 24.8658C28.0822 24.8658 28.0875 24.8658 28.0927 24.8658C28.0927 24.8605 28.0927 24.8553 28.098 24.85C28.1085 24.8342 28.1138 24.8184 28.1138 24.7974C28.1138 24.7816 28.1138 24.7711 28.1138 24.7605C28.2296 24.7816 28.3401 24.8026 28.4506 24.8237C28.4453 24.8237 28.4401 24.829 28.4296 24.8342C28.4085 24.8448 28.3927 24.8553 28.3822 24.8711C28.3664 24.8921 28.3506 24.9132 28.3506 24.9448C28.3506 24.9921 28.3822 25.0658 28.4664 25.0869C28.4453 25.0921 28.419 25.1026 28.398 25.1237C28.398 25.1237 28.3927 25.1342 28.3875 25.1395C28.3822 25.15 28.3769 25.1553 28.3717 25.1658C28.3611 25.1869 28.3559 25.2079 28.3559 25.229C28.3559 25.2342 28.3559 25.2395 28.3559 25.2448C28.3559 25.2658 28.3769 25.2816 28.3875 25.3026C28.3875 25.3079 28.3927 25.3184 28.398 25.3237C28.4296 25.3553 28.4717 25.3816 28.5243 25.3869C28.5243 25.3869 28.5243 25.3869 28.5296 25.3869C28.5296 25.3869 28.5296 25.3974 28.5243 25.4026C28.3664 25.4184 28.3559 25.5395 28.3559 25.5553C28.3559 25.65 28.4401 25.7079 28.5296 25.7132C28.5401 25.7132 28.5453 25.7132 28.5559 25.7132C28.5453 25.7184 28.5401 25.7237 28.5348 25.7342H28.5296C28.3769 25.7553 28.3611 25.85 28.3611 25.8921C28.3611 25.9658 28.419 26.0237 28.4927 26.0237C28.5085 26.0237 28.519 26.0132 28.5348 26.0079C28.5348 26.0079 28.5348 26.0132 28.5401 26.0184C28.5559 26.0342 28.5769 26.0395 28.598 26.0448C28.5769 26.05 28.5611 26.0605 28.5453 26.0763C28.5453 26.0763 28.5348 26.0763 28.5296 26.0763C28.3769 26.0974 28.3664 26.2027 28.3664 26.2342C28.3664 26.3079 28.4243 26.3658 28.498 26.3658C28.5138 26.3658 28.5243 26.3553 28.5401 26.35C28.5559 26.3711 28.5769 26.3816 28.6032 26.3921C28.5822 26.4026 28.5611 26.4079 28.5453 26.4237C28.5453 26.4237 28.5453 26.4237 28.5401 26.4237C28.3927 26.4448 28.3769 26.55 28.3769 26.5816C28.3769 26.6763 28.4611 26.7342 28.5506 26.7448C28.5875 26.7553 28.619 26.7553 28.6453 26.7553C28.6453 26.7553 28.6506 26.7553 28.6559 26.7553C28.6559 26.7553 28.6611 26.7553 28.6664 26.7553H28.7296C28.7296 26.7553 28.7559 26.75 28.7717 26.7448C28.9032 26.7132 28.919 26.629 28.919 26.5921C28.919 26.5921 28.919 26.5869 28.919 26.5816C28.9138 26.4921 28.8348 26.4395 28.7506 26.429C28.7348 26.4079 28.7138 26.4026 28.6875 26.3921C28.7085 26.3816 28.7296 26.3763 28.7453 26.3605C28.7611 26.3658 28.7717 26.3763 28.7874 26.3763C28.7927 26.3763 28.8032 26.3763 28.8085 26.3763C28.8822 26.3658 28.9296 26.2974 28.919 26.2237C28.9032 26.1342 28.819 26.0921 28.7559 26.0816C28.7453 26.0658 28.7296 26.0605 28.7138 26.0553C28.7243 26.0553 28.7348 26.0553 28.7506 26.0553C28.8085 26.0448 28.8453 26.0237 28.8717 25.9974C28.8717 25.9974 28.8822 25.9921 28.8875 25.9869C28.9085 25.9605 28.9138 25.9395 28.9138 25.9184C28.9138 25.9132 28.919 25.9079 28.919 25.9026C28.919 25.8026 28.8348 25.75 28.7453 25.7395C28.7401 25.7342 28.7348 25.7237 28.7296 25.7184C28.7453 25.7184 28.7664 25.7184 28.7822 25.7079C28.7875 25.7079 28.7927 25.7079 28.798 25.7079C28.819 25.7027 28.8453 25.6816 28.8664 25.6605C28.8717 25.6553 28.8769 25.65 28.8822 25.6448C28.8927 25.629 28.8874 25.6132 28.8927 25.5974C28.8927 25.5869 28.9032 25.5816 28.9032 25.5711C28.9032 25.5711 28.9032 25.5605 28.9032 25.5553C28.9032 25.5448 28.9032 25.5395 28.9032 25.5342C28.8822 25.4605 28.819 25.4184 28.7453 25.4132V25.4026C28.7769 25.4026 28.819 25.3921 28.8559 25.3605C28.8559 25.3605 28.8559 25.35 28.8611 25.35C28.8611 25.35 28.8611 25.35 28.8611 25.3448C28.8769 25.3237 28.8822 25.3026 28.8875 25.2816C28.8875 25.2763 28.898 25.2711 28.898 25.2605C28.898 25.2448 28.8874 25.2395 28.8822 25.2237C28.8822 25.2132 28.8769 25.1974 28.8664 25.1869C28.8453 25.15 28.8085 25.1237 28.7559 25.1132C28.8243 25.1079 28.8769 25.0553 28.8769 24.9869C28.8769 24.9658 28.8717 24.9395 28.8611 24.9184C28.9769 24.9448 29.0927 24.9711 29.2085 24.9921C29.2085 24.9974 29.2032 25.0079 29.198 25.0132C29.198 25.0132 29.1927 25.0132 29.1875 25.0132C29.1875 25.0132 29.1875 25.0132 29.1822 25.0132C29.1717 25.0132 29.1664 25.0237 29.1559 25.0237C29.1296 25.029 29.1085 25.0395 29.0927 25.0553C29.0927 25.0553 29.0927 25.0658 29.0875 25.0711C29.0769 25.0869 29.0717 25.1026 29.0664 25.1237C29.0664 25.129 29.0611 25.1342 29.0611 25.1395C29.0611 25.2132 29.1085 25.2711 29.1717 25.2869C29.1506 25.2921 29.1243 25.3027 29.1032 25.3237C29.0769 25.35 29.0611 25.3921 29.0611 25.429C29.0611 25.4395 29.0664 25.4448 29.0717 25.45C29.0717 25.4763 29.0822 25.4974 29.098 25.5132C29.098 25.5132 29.098 25.5184 29.1032 25.5237C29.1348 25.5605 29.1822 25.5816 29.2296 25.5869C29.2296 25.5869 29.2296 25.5974 29.2243 25.6026C29.0717 25.6184 29.0611 25.7342 29.0611 25.75C29.0611 25.8448 29.1453 25.8974 29.2296 25.9079C29.2664 25.9184 29.298 25.9184 29.3243 25.9184C29.3506 25.9184 29.3717 25.9026 29.3927 25.8921C29.4085 25.9026 29.4296 25.9079 29.4453 25.9079C29.4611 25.9079 29.4874 25.9079 29.5032 25.8921C29.5138 25.8869 29.5243 25.8711 29.5348 25.8605C29.5401 25.8605 29.5453 25.85 29.5506 25.8448C29.5559 25.8395 29.5664 25.8342 29.5717 25.829C29.5769 25.8184 29.5717 25.8027 29.5717 25.7921C29.5717 25.7816 29.5822 25.7763 29.5822 25.7658C29.5822 25.7553 29.5822 25.75 29.5822 25.7448C29.5822 25.7342 29.5822 25.729 29.5769 25.7237C29.5559 25.65 29.4822 25.6132 29.4243 25.6079V25.5974C29.4559 25.5974 29.5032 25.5869 29.5401 25.5553C29.5664 25.529 29.5822 25.4869 29.5822 25.45C29.5822 25.429 29.5717 25.4132 29.5664 25.3974C29.5453 25.35 29.5085 25.3184 29.4611 25.3026C29.4769 25.2974 29.498 25.2869 29.519 25.2711V25.2658C29.5401 25.2448 29.5506 25.2237 29.5559 25.1921C29.5559 25.1921 29.5559 25.1869 29.5559 25.1816C29.5559 25.1763 29.5611 25.1711 29.5611 25.1658C29.5611 25.129 29.5453 25.0869 29.5085 25.0553C29.6032 25.0763 29.698 25.0974 29.7927 25.1237C29.9664 25.1658 30.1401 25.2079 30.3085 25.2553C30.419 25.2816 30.5296 25.3132 30.6348 25.3448C30.5927 25.3553 30.5664 25.3763 30.5506 25.4132C30.5506 25.4132 30.5453 25.4132 30.5401 25.4132C30.5401 25.4132 30.5401 25.4132 30.5348 25.4132C30.4927 25.4132 30.4611 25.4395 30.4401 25.4763C30.4296 25.4921 30.4243 25.5079 30.419 25.529C30.419 25.5342 30.4138 25.5395 30.4138 25.5448C30.4138 25.5869 30.4296 25.6184 30.4559 25.6448C30.4822 25.6711 30.5138 25.6869 30.5506 25.6974C30.5506 25.7027 30.5453 25.7132 30.5401 25.7184C30.4717 25.7184 30.3927 25.7658 30.3927 25.8448C30.3927 25.9448 30.4822 25.9974 30.5506 26.0026V26.0132C30.519 26.0132 30.4769 26.0184 30.4348 26.0553C30.4085 26.0816 30.3927 26.1237 30.3927 26.1605C30.3927 26.2658 30.4874 26.3184 30.5559 26.3184C30.5559 26.3184 30.5611 26.3184 30.5664 26.3184C30.5559 26.3237 30.5506 26.3342 30.5401 26.3448C30.3927 26.3605 30.3822 26.4711 30.3822 26.4974C30.3822 26.5921 30.4664 26.6448 30.5453 26.6553C30.5559 26.6553 30.5664 26.6553 30.5769 26.6553C30.5611 26.6605 30.5506 26.6658 30.5401 26.6816C30.3822 26.6974 30.3769 26.8132 30.3769 26.8342C30.3769 26.929 30.4611 26.9869 30.5453 26.9974C30.5822 27.0079 30.6138 27.0079 30.6401 27.0079H30.7085C30.8611 27.0079 30.898 26.9079 30.898 26.85C30.898 26.8342 30.8875 26.8184 30.8822 26.8026C30.8611 26.7342 30.7927 26.6921 30.7348 26.6869C30.7296 26.6763 30.7243 26.6711 30.7138 26.6605H30.7348C30.8927 26.6448 30.898 26.529 30.898 26.5079C30.898 26.4921 30.8927 26.4816 30.8822 26.4658C30.8611 26.3921 30.798 26.35 30.7348 26.3448C30.7348 26.3395 30.7348 26.329 30.7243 26.3184C30.7559 26.3184 30.8085 26.3184 30.8506 26.2711C30.8769 26.2448 30.8927 26.2026 30.8927 26.1658C30.8927 26.0658 30.7927 26.0184 30.7401 26.0079C30.7401 26.0079 30.7401 26.0026 30.7401 25.9974C30.7717 25.9974 30.819 25.9921 30.8559 25.9553C30.8822 25.929 30.9032 25.8869 30.9032 25.85C30.9032 25.7763 30.8348 25.7237 30.7664 25.7237C30.7664 25.7184 30.7664 25.7132 30.7611 25.7079C30.7664 25.7079 30.7717 25.7079 30.7769 25.7079C30.8506 25.7027 30.9085 25.6448 30.9085 25.5711C30.9085 25.4763 30.8296 25.429 30.7717 25.4184C30.7664 25.4027 30.7611 25.3816 30.7506 25.3711C30.8875 25.4132 31.0138 25.4553 31.1243 25.4869C31.7769 25.7026 32.2664 25.9079 32.698 26.1553C33.119 26.3921 33.619 26.7605 33.7296 27.1974C33.7243 27.2079 33.719 27.2132 33.7138 27.2237C33.7138 27.2237 33.7138 27.2237 33.7138 27.229C33.7032 27.2553 33.7032 27.2763 33.7032 27.3026C33.7032 27.3448 33.7032 27.3816 33.7032 27.4184C33.7032 27.4184 33.7032 27.429 33.7032 27.4342C33.7032 27.45 33.7032 27.4605 33.7032 27.4711C33.7032 27.4816 33.7032 27.4921 33.7138 27.5026C33.7138 27.5132 33.7243 27.5237 33.7348 27.5395C33.6401 27.9079 33.2243 28.4184 31.8559 28.9342C31.1296 29.2079 30.3401 29.4237 29.2927 29.6237C27.7296 29.9237 26.0769 30.0974 24.1138 30.1658L24.1506 30.1184ZM20.4927 24.5605C20.4927 24.5605 20.4927 24.5605 20.4875 24.5605H20.4927ZM17.7138 24.5553C17.7138 24.5553 17.6927 24.5553 17.6822 24.5553C17.6822 24.5553 17.6822 24.5553 17.6875 24.5553H17.7138ZM26.7348 24.5079C26.7348 24.5079 26.7348 24.5026 26.7401 24.4974C26.7401 24.4974 26.7453 24.5079 26.7506 24.5079C26.7453 24.5079 26.7401 24.5079 26.7348 24.5079ZM23.8664 14.9553C23.2559 14.6869 22.598 14.4869 21.7348 14.3079C20.3611 14.0184 18.919 13.8763 17.3296 13.8763C17.319 13.8763 17.3138 13.8763 17.3032 13.8763C15.8664 13.8763 14.6085 13.9869 13.419 14.2237C12.6664 14.3711 12.0611 14.55 11.519 14.7869C11.0664 14.9816 10.719 15.1974 10.4769 15.4342L11.0138 4.69737C11.0138 4.61316 11.0348 4.52895 11.0559 4.45C11.098 4.32369 11.1717 4.2079 11.2822 4.07105C11.5611 3.74474 11.9032 3.54474 12.2032 3.39211C12.7348 3.11842 13.319 2.91842 14.0927 2.74474C15.3348 2.46053 16.6138 2.35 18.119 2.39211C19.6032 2.43421 20.9138 2.61842 22.1296 2.96053C22.8927 3.17105 23.4664 3.40263 23.9875 3.70263C24.2822 3.87105 24.6138 4.08684 24.8822 4.41842C25.0401 4.61316 25.1506 4.79737 25.1664 5.06053L25.1506 15.7921C24.8769 15.4974 24.4506 15.2184 23.8611 14.9658L23.8664 14.9553ZM20.1138 1.7079C19.5085 1.61842 18.8769 1.56053 18.2296 1.53947L18.2401 1.15526C18.6296 1.16579 18.9822 1.21316 19.3243 1.3079C19.5559 1.37105 19.7348 1.44474 19.898 1.53947C19.9769 1.58158 20.0559 1.64474 20.1138 1.7079ZM17.8717 1.15L17.8611 1.52895C17.7348 1.52895 17.6138 1.52369 17.4875 1.52895C17.4664 1.52895 17.4453 1.53421 17.4243 1.54474C17.0348 1.55 16.6506 1.56579 16.2717 1.60263C16.3138 1.56053 16.3664 1.51316 16.4401 1.47105C16.5769 1.39211 16.7296 1.32895 16.9348 1.27632C17.219 1.20263 17.5243 1.17105 17.8611 1.15526L17.8717 1.15ZM21.2769 2.36579C20.3085 2.16579 19.2717 2.05 18.1348 2.01842C16.998 1.98684 15.9822 2.04474 15.0138 2.19211C16.9822 1.86579 19.319 1.93421 21.2769 2.36579ZM14.9559 2.20263C14.9559 2.20263 14.9085 2.21316 14.8822 2.21842C14.9085 2.21842 14.9296 2.2079 14.9559 2.20263ZM21.7138 2.47105C21.5717 2.43421 21.4296 2.39737 21.2875 2.36579C21.4348 2.39737 21.5769 2.43421 21.7138 2.47105ZM10.419 16.6605C10.4453 16.129 11.2032 15.729 11.6506 15.5395C12.1664 15.3184 12.7296 15.15 13.4769 15.0026C14.6453 14.7711 15.8611 14.6605 17.3138 14.6605C18.8769 14.6605 20.298 14.8026 21.6664 15.0921C22.4875 15.2658 23.1453 15.4658 23.7401 15.7237C24.0769 15.8711 24.3611 16.029 24.5822 16.1869C24.5822 16.1869 24.5875 16.1869 24.5927 16.1921C24.9559 16.4605 25.1506 16.7342 25.1506 17.0026V18.129C24.4348 18.0605 23.7138 18.0132 22.9769 17.9869C22.9559 17.9816 22.9348 17.9816 22.9138 17.9869C22.4927 17.9711 22.0717 17.9658 21.6401 17.9658L12.2032 17.95C12.2032 17.95 12.1875 17.95 12.1822 17.95C12.1085 17.95 12.0296 17.95 11.9453 17.95C11.9348 17.95 11.9296 17.95 11.919 17.95C11.498 17.95 10.9664 17.9658 10.3611 17.9974L10.4243 16.65L10.419 16.6605Z" fill="#C7E7DC"/>
</svg>
