<svg width="41" height="31" viewBox="0 0 41 31" fill="none" xmlns="http://www.w3.org/2000/svg">
<g clip-path="url(#clip0_244_11773)">
<mask id="mask0_244_11773" style="mask-type:luminance" maskUnits="userSpaceOnUse" x="0" y="2" width="41" height="27">
<path d="M40.5 2.03564H0.5V28.4642H40.5V2.03564Z" fill="white"/>
</mask>
<g mask="url(#mask0_244_11773)">
<path d="M6.8632 9.3445C7.57104 9.66964 8.30723 9.90293 9.24859 10.0867C10.4449 10.3341 11.6694 10.4542 13.0497 10.4542C13.4178 10.4542 13.7929 10.4471 14.1822 10.4259C15.9872 10.3482 17.5799 10.1008 19.0664 9.67671C19.76 9.47878 20.574 9.21021 21.3881 8.73662C21.7844 8.50337 23.0019 7.78946 22.9594 6.67973C22.9594 6.65146 22.9524 6.61612 22.9382 6.59491C22.8816 5.97996 22.4215 5.42863 21.565 4.94092C20.8784 4.55215 20.1706 4.33304 19.5619 4.17753C18.3373 3.85946 17.049 3.69689 15.3856 3.65448C12.9648 3.59793 9.53173 3.96548 7.16049 5.1247C6.20492 5.5912 5.07237 6.36873 5.12899 7.44311C5.17147 8.53164 6.4385 9.14659 6.8632 9.35157V9.3445ZM21.1403 8.30545C20.3759 8.75076 19.5972 9.00522 18.9319 9.19607C17.4879 9.61307 15.9307 9.85343 14.1681 9.93114C12.356 10.0089 10.82 9.90293 9.34773 9.599C8.44166 9.42228 7.74094 9.20314 7.07555 8.89213C6.58714 8.6518 6.21907 8.41148 5.9784 8.15702C6.35356 7.63396 7.05432 7.23813 7.46487 7.04022C10.1405 5.7043 13.9699 5.59828 15.0742 5.59828C17.1622 5.59828 20.9279 5.9941 22.1809 7.45018C21.9614 7.73292 21.6146 8.01565 21.1332 8.29838L21.1403 8.30545ZM7.37992 5.57C9.52466 4.51682 12.6038 4.14219 14.9255 4.14219C15.0812 4.14219 15.2299 4.14219 15.3785 4.14219C16.9994 4.1846 18.2524 4.3401 19.4415 4.64405C20.0149 4.79248 20.6873 4.99746 21.3244 5.36502C22.0605 5.78205 22.4427 6.22735 22.4569 6.69387C22.4569 6.72214 22.4569 6.75042 22.4711 6.77869C22.4711 6.84937 22.4569 6.92005 22.4357 6.99074C20.6165 5.1671 15.6687 5.11055 15.0812 5.11055C13.9416 5.11055 10.0202 5.21658 7.25252 6.60198C6.74995 6.8423 6.12705 7.23106 5.70234 7.73292C5.65987 7.62689 5.63157 7.52087 5.62449 7.41484C5.58202 6.5737 6.7004 5.89515 7.37992 5.57Z" fill="#C7E7DC"/>
<path d="M40.4074 24.4424C40.379 23.1842 40.3436 21.9261 40.3224 20.6749C40.3224 20.5407 40.2091 20.4347 40.0746 20.4347C34.7305 20.371 30.2711 20.0388 26.1727 19.3956C26.8026 18.9362 27.2769 18.4555 27.5742 17.9607C27.8361 17.5295 27.9635 17.0842 27.9635 16.6389C27.9635 16.6177 27.9848 16.6107 27.9848 16.5894V16.5753L27.9635 16.1724C27.9635 16.1088 27.9706 16.0452 27.9706 15.9745C27.9352 14.8153 27.0009 13.96 26.1798 13.4299L26.0524 9.72609C26.4275 9.45752 26.8026 9.13235 27.1141 8.70825C27.3902 8.3407 27.6591 7.88125 27.6521 7.20975C27.6521 7.20269 27.6521 7.19562 27.6521 7.18148C27.6521 7.14614 27.6521 7.10373 27.6521 7.06839L27.6379 6.5736C27.6379 6.5736 27.6238 6.54533 27.6167 6.52412C27.5671 5.56283 26.8947 4.72877 25.571 4.00072C24.7287 3.52715 23.7661 3.15959 22.5415 2.84858C20.6799 2.36087 18.6554 2.10641 16.1639 2.04279C14.189 2.00038 11.7681 2.12761 9.38986 2.53051C7.44327 2.85565 5.39054 3.38577 3.60678 4.24812C3.58555 4.25518 3.57139 4.26932 3.55723 4.28346C2.33975 4.87013 0.421506 6.06468 0.499369 7.72575C0.499369 7.72575 0.499369 7.73282 0.499369 7.73988L0.527682 8.2488C0.527682 8.2488 0.513525 8.31242 0.513525 8.3407C0.555996 8.97685 0.810818 9.39387 1.19305 9.83209C1.53989 10.2138 1.9292 10.4965 2.35391 10.751C2.40345 11.6134 2.44592 12.4757 2.49547 13.3309C2.51671 13.7056 2.53795 14.0732 2.55918 14.4477C1.80887 15.0274 0.987778 15.9179 1.00193 17.0489C1.00193 17.0701 1.00193 17.0913 1.00193 17.1125C1.00193 17.1125 1.00193 17.1337 1.00193 17.1408L1.03733 17.678C1.03733 17.678 1.03733 17.6851 1.03733 17.6921C1.12227 19.4663 3.18208 20.5831 4.88797 21.2122C6.37443 21.7494 8.00957 22.0957 10.0127 22.3007C10.4374 22.5198 10.8621 22.7319 11.301 22.9369C14.6208 24.4777 18.0396 25.4532 20.6586 26.1317C26.3496 27.609 32.3804 28.3229 40.2304 28.4502C40.2941 28.4502 40.3578 28.4219 40.4074 28.3794C40.4569 28.3371 40.4781 28.2664 40.4781 28.2027C40.4498 26.9517 40.4215 25.6935 40.3932 24.4353L40.4074 24.4424ZM25.4295 19.2754C25.5639 19.1977 25.7055 19.1129 25.8471 19.0209C25.7268 19.1058 25.5994 19.1977 25.4578 19.2825C25.4436 19.2825 25.4366 19.2825 25.4295 19.2825V19.2754ZM27.4681 15.9533C27.4681 15.9533 27.4539 15.9745 27.4539 15.9887V16.0028L27.4681 16.1866C27.3619 17.5507 25.7126 18.6039 24.6579 19.1341C23.9571 19.0068 23.2635 18.8725 22.5769 18.7241C23.3414 18.4131 23.9571 18.0879 24.5164 17.7062C25.3162 17.162 26.2647 16.2714 26.2294 15.1404L26.1939 14.0449C26.7602 14.4689 27.4185 15.1263 27.461 15.9533H27.4681ZM25.7409 15.1475C25.7692 16.0593 24.9411 16.8227 24.2403 17.2963C23.5466 17.7699 22.7539 18.1445 21.685 18.5262C21.6354 18.512 21.5859 18.505 21.5434 18.4979C16.4186 17.3104 10.5931 15.6211 5.68783 12.0657C7.70515 12.7584 10.2888 13.0977 12.9574 13.0977C16.5956 13.0977 20.3755 12.4686 23.0016 11.267C23.8793 10.956 24.6296 10.6097 25.3162 10.1997C25.3941 10.1502 25.479 10.1007 25.5569 10.0512L25.7339 15.1475H25.7409ZM2.77153 10.4259C2.60165 10.3269 2.43885 10.2279 2.29728 10.1219C2.5521 10.2774 2.814 10.4188 3.1113 10.5672C4.40664 11.1822 5.73738 11.4932 6.75667 11.6982C8.61829 12.0657 10.5649 12.2495 12.6671 12.2495C13.198 12.2495 13.7431 12.2354 14.2951 12.2142C17.0204 12.1011 19.4624 11.7194 21.7558 11.0549C23.1998 10.6379 24.2828 10.1926 25.2737 9.62009C25.4861 9.4928 25.7126 9.34437 25.9391 9.18887C25.6489 9.42216 25.3516 9.61302 25.0756 9.77559C23.8934 10.4824 22.6335 10.8994 21.6709 11.1822C21.6709 11.1822 21.6638 11.1822 21.6567 11.1822C19.4058 11.8324 16.9991 12.2 14.3093 12.3131C14.1182 12.3202 13.9271 12.3272 13.7431 12.3343C11.2656 12.405 9.02179 12.2283 6.89116 11.8042C5.43301 11.5214 4.35002 11.1822 3.35904 10.7086C3.14669 10.6097 2.96265 10.5177 2.78569 10.4188L2.77153 10.4259ZM3.82621 4.70049C3.82621 4.70049 3.8616 4.67929 3.87576 4.66515C7.38665 2.99702 12.5114 2.46689 16.1568 2.53758C18.613 2.60119 20.5949 2.84858 22.407 3.32216C23.6032 3.6261 24.5022 3.96538 25.3162 4.42482C26.4983 5.08218 27.0929 5.78195 27.1141 6.58067C27.1283 7.09666 26.9442 7.45008 26.6682 7.81763C26.2364 8.39017 25.7126 8.7648 25.0119 9.1818C24.0563 9.73316 23.0016 10.1643 21.6001 10.5672C19.3421 11.2175 16.9425 11.5922 14.2527 11.7052C11.5558 11.8183 9.12793 11.6557 6.83453 11.1963C5.84355 10.9984 4.54821 10.6944 3.30949 10.1078C2.60165 9.76145 2.0283 9.42216 1.54697 8.8991C1.29922 8.61636 1.12227 8.3619 1.0444 8.04382V8.02262C1.0444 8.02262 1.03733 7.97314 1.03025 7.95193C1.01609 7.87418 0.994856 7.79643 0.994856 7.70454C0.916994 6.29087 2.73614 5.20941 3.82621 4.69342V4.70049ZM2.60165 15.0768C2.62289 15.4302 2.63705 15.7907 2.65828 16.1442C2.68659 16.5682 2.85647 16.9782 3.14669 17.3669C3.14669 17.3669 3.14669 17.3811 3.15377 17.3811L3.16792 17.3952C3.38735 17.678 3.67757 17.9466 4.03149 18.201C5.11448 19.1694 6.26826 20.0459 7.50697 20.8446C6.34612 20.6114 5.34807 20.3074 4.42787 19.9187C3.3732 19.4734 1.6036 18.5262 1.51158 17.1196V17.0913C1.51158 17.0913 1.51158 17.0842 1.51158 17.0772C1.51158 17.063 1.51158 17.0418 1.51158 17.0277C1.5045 16.2502 2.04246 15.5716 2.60873 15.0627L2.60165 15.0768ZM5.07201 20.7669C4.54113 20.5689 3.85452 20.2792 3.23163 19.8904C3.56431 20.0812 3.91115 20.2438 4.23676 20.3781C5.5038 20.9153 6.9124 21.2899 8.65365 21.5514C8.71736 21.5868 8.78107 21.6292 8.85186 21.6645C7.4362 21.4596 6.21163 21.1697 5.07909 20.7598L5.07201 20.7669ZM20.8002 25.6652C18.2095 24.9937 14.8119 24.0254 11.5275 22.5057C8.4555 21.0779 5.85063 19.3108 3.57139 17.0984L3.25994 11.2317C3.59262 11.3801 3.94655 11.5214 4.30755 11.6487C9.48893 15.8261 15.8666 17.7062 21.4231 18.9857C26.8169 20.2367 32.5008 20.8375 39.8269 20.9294C39.8552 22.1028 39.8836 23.2832 39.9119 24.4565C39.9401 25.6299 39.9685 26.7962 39.9968 27.9624C32.3167 27.8282 26.3921 27.1142 20.8002 25.6652Z" fill="#C7E7DC"/>
</g>
</g>
<defs>
<clipPath id="clip0_244_11773">
<rect width="40" height="30" fill="white" transform="translate(0.5 0.25)"/>
</clipPath>
</defs>
</svg>
