<svg width="24" height="25" viewBox="0 0 24 25" fill="none" xmlns="http://www.w3.org/2000/svg">
<path d="M10.2114 3.25812C11.3925 3.02789 12.6069 3.02789 13.7879 3.25812" stroke="#212428" stroke-width="1.5" stroke-linecap="round" stroke-linejoin="round"/>
<path d="M17.2705 4.69824C18.2703 5.37425 19.13 6.23713 19.8023 7.23942" stroke="#212428" stroke-width="1.5" stroke-linecap="round" stroke-linejoin="round"/>
<path d="M21.2417 10.7114C21.4719 11.8925 21.4719 13.1069 21.2417 14.2879" stroke="#212428" stroke-width="1.5" stroke-linecap="round" stroke-linejoin="round"/>
<path d="M19.8029 17.7705C19.1269 18.7703 18.264 19.63 17.2617 20.3023" stroke="#212428" stroke-width="1.5" stroke-linecap="round" stroke-linejoin="round"/>
<path d="M13.7879 21.7432C12.6068 21.9732 11.3925 21.9732 10.2114 21.7432" stroke="#212428" stroke-width="1.5" stroke-linecap="round" stroke-linejoin="round"/>
<path d="M6.73001 20.3029C5.73022 19.6269 4.87053 18.764 4.19824 17.7617" stroke="#212428" stroke-width="1.5" stroke-linecap="round" stroke-linejoin="round"/>
<path d="M2.75812 14.2879C2.52789 13.1069 2.52789 11.8925 2.75812 10.7114" stroke="#212428" stroke-width="1.5" stroke-linecap="round" stroke-linejoin="round"/>
<path d="M4.19824 7.23001C4.87425 6.23022 5.73713 5.37053 6.73942 4.69824" stroke="#212428" stroke-width="1.5" stroke-linecap="round" stroke-linejoin="round"/>
</svg>
