<svg width="24" height="25" viewBox="0 0 24 25" fill="none" xmlns="http://www.w3.org/2000/svg">
<path d="M12.7698 3.2941C12.5255 3.18267 12.2602 3.125 11.9916 3.125C11.7231 3.125 11.4578 3.18267 11.2135 3.2941L3.17845 6.95064C3.01207 7.024 2.87062 7.14415 2.77132 7.29647C2.67201 7.44878 2.61914 7.62669 2.61914 7.80852C2.61914 7.99035 2.67201 8.16825 2.77132 8.32057C2.87062 8.47288 3.01207 8.59304 3.17845 8.6664L11.2228 12.3323C11.4671 12.4437 11.7325 12.5014 12.001 12.5014C12.2695 12.5014 12.5349 12.4437 12.7792 12.3323L20.8236 8.67577C20.99 8.60241 21.1314 8.48226 21.2307 8.32994C21.33 8.17763 21.3829 7.99972 21.3829 7.81789C21.3829 7.63606 21.33 7.45816 21.2307 7.30584C21.1314 7.15353 20.99 7.03337 20.8236 6.96001L12.7698 3.2941Z" stroke="#212428" stroke-width="1.5" stroke-linecap="round" stroke-linejoin="round"/>
<path d="M2.61621 12.5015C2.61577 12.6808 2.66676 12.8565 2.76315 13.0077C2.85953 13.1589 2.99726 13.2793 3.16001 13.3547L11.2231 17.0206C11.4662 17.1306 11.7299 17.1875 11.9966 17.1875C12.2634 17.1875 12.5271 17.1306 12.7701 17.0206L20.8145 13.364C20.9805 13.2894 21.1212 13.1682 21.2194 13.015C21.3176 12.8618 21.3691 12.6834 21.3677 12.5015" stroke="#212428" stroke-width="1.5" stroke-linecap="round" stroke-linejoin="round"/>
<path d="M2.61621 17.189C2.61577 17.3683 2.66676 17.544 2.76315 17.6952C2.85953 17.8464 2.99726 17.9668 3.16001 18.0422L11.2231 21.7081C11.4662 21.8181 11.7299 21.875 11.9966 21.875C12.2634 21.875 12.5271 21.8181 12.7701 21.7081L20.8145 18.0515C20.9805 17.9769 21.1212 17.8557 21.2194 17.7025C21.3176 17.5493 21.3691 17.3709 21.3677 17.189" stroke="#212428" stroke-width="1.5" stroke-linecap="round" stroke-linejoin="round"/>
</svg>
