<svg width="41" height="40" viewBox="0 0 41 40" fill="none" xmlns="http://www.w3.org/2000/svg">
<path d="M20.8335 5.83325C22.4577 5.83339 24.0777 7.23357 25.3208 9.84399C26.5461 12.4173 27.3169 16.0078 27.3169 20.0002C27.3169 23.9925 26.546 27.5823 25.3208 30.1555C24.0777 32.7659 22.4577 34.1661 20.8335 34.1663C19.2092 34.1663 17.5893 32.7661 16.3462 30.1555C15.1209 27.5823 14.3492 23.9926 14.3491 20.0002C14.3491 16.0077 15.1208 12.4173 16.3462 9.84399C17.5893 7.23344 19.2092 5.83325 20.8335 5.83325Z" stroke="#212428"/>
<path d="M33.1017 27.0833C32.2894 28.4899 30.2668 29.1928 27.3846 28.9641C24.5434 28.7386 21.0486 27.6108 17.591 25.6146C14.1336 23.6185 11.4101 21.1559 9.7943 18.8083C8.15514 16.4266 7.75256 14.3235 8.56455 12.9168C9.37671 11.5101 11.3992 10.8074 14.2816 11.0361C17.1227 11.2615 20.6174 12.3881 24.0749 14.3842C27.5325 16.3805 30.2561 18.844 31.8719 21.1918C33.5111 23.5737 33.9138 25.6766 33.1017 27.0833Z" stroke="#212428"/>
<path d="M8.56448 27.0834C7.75249 25.6767 8.15507 23.5737 9.79424 21.1919C11.4101 18.8442 14.1342 16.3814 17.5918 14.3852C21.0491 12.3891 24.5435 11.2617 27.3845 11.0362C30.2668 10.8075 32.2893 11.5104 33.1016 12.9169C33.9137 14.3236 33.5111 16.4266 31.8718 18.8084C30.256 21.1561 27.5331 23.6194 24.0756 25.6156C20.618 27.6119 17.1227 28.7387 14.2815 28.9642C11.3992 29.1929 9.37664 28.4901 8.56448 27.0834Z" stroke="#212428"/>
</svg>
