<svg width="67" height="60" viewBox="0 0 67 60" fill="none" xmlns="http://www.w3.org/2000/svg">
<circle cx="18.6501" cy="38.5906" r="2.1853" fill="#212428"/>
<circle cx="34.5544" cy="38.5906" r="2.1853" fill="#212428"/>
<circle cx="27.0876" cy="44.3269" r="2.1853" fill="#212428"/>
<circle cx="50.4587" cy="38.5906" r="2.1853" fill="#212428"/>
<circle cx="42.9919" cy="44.3269" r="2.1853" fill="#212428"/>
<path d="M5.70703 30.2395C8.34721 30.2395 9.71084 29.4583 10.9294 28.7607C12.0319 28.119 12.9893 27.5889 14.9912 27.5889C16.9931 27.5889 17.9505 28.119 19.053 28.7607C20.2715 29.4583 21.6352 30.2395 24.2753 30.2395C26.9155 30.2395 28.2791 29.4583 29.4977 28.7607C30.6002 28.119 31.5576 27.5889 33.5305 27.5889C35.5034 27.5889 36.4898 28.119 37.5633 28.7607C38.7818 29.4583 40.1455 30.2395 42.7857 30.2395C45.4258 30.2395 46.7895 29.4583 48.008 28.7607C49.1105 28.119 50.0679 27.5889 52.0408 27.5889C54.0137 27.5889 54.9711 28.119 56.0736 28.7607C57.2922 29.4583 58.6558 30.2395 61.296 30.2395" stroke="#212428" stroke-width="0.9375" stroke-linecap="round"/>
<path d="M5.70703 21.4229H61.296" stroke="#212428" stroke-width="0.9375" stroke-linecap="round"/>
<path d="M5.70703 13.4873H61.296" stroke="#212428" stroke-width="0.9375" stroke-linecap="round"/>
</svg>
