<svg width="67" height="60" viewBox="0 0 67 60" fill="none" xmlns="http://www.w3.org/2000/svg">
<path d="M22.6982 17.5557C23.4021 17.5557 23.9727 16.9851 23.9727 16.2812C23.9727 15.5774 23.4021 15.0068 22.6982 15.0068C21.9944 15.0068 21.4238 15.5774 21.4238 16.2812C21.4238 16.9851 21.9944 17.5557 22.6982 17.5557Z" fill="#212428"/>
<path d="M21.8163 16.1424C22.087 16.1424 22.3065 15.923 22.3065 15.6523C22.3065 15.3816 22.087 15.1621 21.8163 15.1621C21.5456 15.1621 21.3262 15.3816 21.3262 15.6523C21.3262 15.923 21.5456 16.1424 21.8163 16.1424Z" fill="#E1E9F3"/>
<path fill-rule="evenodd" clip-rule="evenodd" d="M27.763 17.8729C29.1989 17.6653 25.6871 15.5605 25.5141 15.4394C24.7356 14.8801 23.7034 14.5398 22.6077 14.4822C20.1165 14.3496 19.067 15.3818 17.2852 16.7773C17.2852 16.7773 17.9483 16.685 18.6634 17.475C19.3784 18.2651 22.1348 19.2108 24.5337 18.6283C26.9326 18.0459 27.763 17.8729 27.763 17.8729Z" stroke="#212428" stroke-width="0.734837" stroke-miterlimit="2.61313" stroke-linecap="round" stroke-linejoin="round"/>
<mask id="mask0_4503_12518" style="mask-type:alpha" maskUnits="userSpaceOnUse" x="20" y="13" width="6" height="6">
<path d="M22.6973 18.5879C23.9712 18.5879 25.0039 17.5552 25.0039 16.2812C25.0039 15.0073 23.9712 13.9746 22.6973 13.9746C21.4233 13.9746 20.3906 15.0073 20.3906 16.2812C20.3906 17.5552 21.4233 18.5879 22.6973 18.5879Z" stroke="black" stroke-width="0.734837" stroke-miterlimit="2.61313" stroke-linecap="round" stroke-linejoin="round"/>
</mask>
<g mask="url(#mask0_4503_12518)">
<path fill-rule="evenodd" clip-rule="evenodd" d="M27.765 17.8729C29.2008 17.6653 25.689 15.5605 25.516 15.4394C24.7375 14.8801 23.7053 14.5398 22.6097 14.4822C20.1185 14.3496 19.069 15.3818 17.2871 16.7773C17.2871 16.7773 17.9503 16.685 18.6653 17.475C19.3804 18.2651 22.1368 19.2108 24.5357 18.6283C26.9346 18.0459 27.765 17.8729 27.765 17.8729Z" fill="#212428" stroke="#212428" stroke-width="0.734837" stroke-miterlimit="2.61313" stroke-linecap="round" stroke-linejoin="round"/>
</g>
<path d="M27.4288 16.958C27.4288 16.958 26.9848 17.4193 27.1635 17.9556" stroke="#212428" stroke-width="0.734837" stroke-miterlimit="2.61313" stroke-linecap="round" stroke-linejoin="round"/>
<path d="M27.973 16.3049C27.973 16.3049 26.3469 13.4735 22.5352 13.4331C18.7235 13.3928 16.832 15.7167 16.832 15.7167" stroke="#212428" stroke-width="0.734837" stroke-miterlimit="2.61313" stroke-linecap="round" stroke-linejoin="round"/>
<path fill-rule="evenodd" clip-rule="evenodd" d="M28.4449 12.2693C28.4449 12.2693 29.1253 11.387 27.1589 10.3606C27.1589 10.3606 20.0257 8.24424 18.3649 8.45183C16.7041 8.65943 14.0977 10.7412 14.0977 10.7412C14.0977 10.7412 17.004 9.62245 20.3256 10.5047C23.6471 11.387 28.1047 12.6211 28.4449 12.2693V12.2693Z" stroke="#212428" stroke-width="0.918546" stroke-miterlimit="2.61313" stroke-linecap="round" stroke-linejoin="round"/>
<path d="M34.1366 32.7849C34.1366 32.7849 33.2025 32.808 32.8276 32.3813C32.447 31.9545 31.4898 31.574 30.7344 31.6259" stroke="#212428" stroke-width="0.918546" stroke-miterlimit="2.61313" stroke-linecap="round" stroke-linejoin="round"/>
<path d="M29.6474 29.5098C29.6474 29.5098 28.3903 32.1566 31.0083 32.5833" stroke="#212428" stroke-width="0.918546" stroke-miterlimit="2.61313" stroke-linecap="round" stroke-linejoin="round"/>
<path d="M30.1523 15.2969C30.1523 15.2969 32.4186 17.3152 31.9688 22.8569" stroke="#212428" stroke-width="0.918546" stroke-miterlimit="2.61313" stroke-linecap="round" stroke-linejoin="round"/>
<path fill-rule="evenodd" clip-rule="evenodd" d="M34.2723 37.8502C34.2723 37.8502 32.4213 36.9448 31.1122 37.7003C29.8032 38.4557 26.0723 40.3183 26.0723 40.3183C26.0723 40.3183 27.733 45.4102 34.2723 45.4102C40.8116 45.4102 42.4724 40.3183 42.4724 40.3183C42.4724 40.3183 38.7414 38.4557 37.4324 37.7003C36.1234 36.9448 34.2723 37.8502 34.2723 37.8502Z" stroke="#212428" stroke-width="0.918546" stroke-miterlimit="2.61313" stroke-linecap="round" stroke-linejoin="round"/>
<path d="M34.2783 40.9519C34.2783 40.9519 33.8112 40.9288 33.2346 40.6866C32.6579 40.4444 29.7573 40.3349 28.3445 40.6636C26.9317 40.9923 26.505 40.208 24.9941 40.208" stroke="#212428" stroke-width="0.918546" stroke-miterlimit="2.61313" stroke-linecap="round" stroke-linejoin="round"/>
<path d="M8.01758 15.4414C8.01758 15.4414 11.0277 28.1106 12.6424 34.7133C14.257 41.316 14.6549 42.4232 18.184 45.7505C21.7132 49.0778 28.4774 55.323 34.2728 55.323" stroke="#212428" stroke-width="0.918546" stroke-miterlimit="2.61313" stroke-linecap="round" stroke-linejoin="round"/>
<path d="M5.84164 13.7051C5.84164 13.7051 3.89831 13.7281 4.5557 16.5538C5.21309 19.3736 7.57738 23.4564 7.88301 26.478C8.18287 29.4997 9.37655 30.3935 11.5506 30.1975" stroke="#212428" stroke-width="0.918546" stroke-miterlimit="2.61313" stroke-linecap="round" stroke-linejoin="round"/>
<path d="M6.3457 17.9108C6.3457 17.9108 6.66863 16.5498 7.30872 17.0054C7.94881 17.461 9.29819 21.0362 9.29819 21.0362C9.29819 21.0362 8.4332 22.8527 8.91183 23.4063C9.39045 23.9599 10.3246 25.0844 10.3246 25.0844" stroke="#212428" stroke-width="0.734837" stroke-miterlimit="2.61313" stroke-linecap="round" stroke-linejoin="round"/>
<path d="M45.8545 17.5557C46.5583 17.5557 47.1289 16.9851 47.1289 16.2812C47.1289 15.5774 46.5583 15.0068 45.8545 15.0068C45.1507 15.0068 44.5801 15.5774 44.5801 16.2812C44.5801 16.9851 45.1507 17.5557 45.8545 17.5557Z" fill="#212428"/>
<path d="M44.9706 16.1424C45.2413 16.1424 45.4608 15.923 45.4608 15.6523C45.4608 15.3816 45.2413 15.1621 44.9706 15.1621C44.6999 15.1621 44.4805 15.3816 44.4805 15.6523C44.4805 15.923 44.6999 16.1424 44.9706 16.1424Z" fill="#E1E9F3"/>
<path fill-rule="evenodd" clip-rule="evenodd" d="M40.7855 17.8729C39.3496 17.6653 42.8614 15.5605 43.0344 15.4394C43.8129 14.8801 44.8451 14.5398 45.9408 14.4822C48.4319 14.3496 49.4814 15.3818 51.2633 16.7773C51.2633 16.7773 50.6002 16.685 49.8851 17.475C49.17 18.2651 46.4136 19.2108 44.0147 18.6283C41.6158 18.0459 40.7855 17.8729 40.7855 17.8729Z" stroke="#212428" stroke-width="0.734837" stroke-miterlimit="2.61313" stroke-linecap="round" stroke-linejoin="round"/>
<mask id="mask1_4503_12518" style="mask-type:alpha" maskUnits="userSpaceOnUse" x="43" y="13" width="6" height="6">
<path d="M45.8515 18.5879C47.1255 18.5879 48.1582 17.5552 48.1582 16.2812C48.1582 15.0073 47.1255 13.9746 45.8515 13.9746C44.5776 13.9746 43.5449 15.0073 43.5449 16.2812C43.5449 17.5552 44.5776 18.5879 45.8515 18.5879Z" stroke="black" stroke-width="0.734837" stroke-miterlimit="2.61313" stroke-linecap="round" stroke-linejoin="round"/>
</mask>
<g mask="url(#mask1_4503_12518)">
<path fill-rule="evenodd" clip-rule="evenodd" d="M40.7855 17.8729C39.3496 17.6653 42.8614 15.5605 43.0344 15.4394C43.8129 14.8801 44.8451 14.5398 45.9408 14.4822C48.4319 14.3496 49.4814 15.3818 51.2633 16.7773C51.2633 16.7773 50.6002 16.685 49.8851 17.475C49.1701 18.2651 46.4136 19.2108 44.0147 18.6283C41.6158 18.0459 40.7855 17.8729 40.7855 17.8729Z" fill="#212428" stroke="#212428" stroke-width="0.734837" stroke-miterlimit="2.61313" stroke-linecap="round" stroke-linejoin="round"/>
</g>
<path d="M41.1211 16.958C41.1211 16.958 41.5651 17.4193 41.3864 17.9556" stroke="#212428" stroke-width="0.734837" stroke-miterlimit="2.61313" stroke-linecap="round" stroke-linejoin="round"/>
<path d="M40.582 16.3049C40.582 16.3049 42.2082 13.4735 46.0199 13.4331C49.8316 13.3928 51.723 15.7167 51.723 15.7167" stroke="#212428" stroke-width="0.734837" stroke-miterlimit="2.61313" stroke-linecap="round" stroke-linejoin="round"/>
<path fill-rule="evenodd" clip-rule="evenodd" d="M40.1021 12.2693C40.1021 12.2693 39.4217 11.387 41.3881 10.3606C41.3881 10.3606 48.5213 8.24424 50.1821 8.45183C51.8429 8.65943 54.4493 10.7412 54.4493 10.7412C54.4493 10.7412 51.543 9.62245 48.2214 10.5047C44.8999 11.387 40.4423 12.6211 40.1021 12.2693Z" stroke="#212428" stroke-width="0.918546" stroke-miterlimit="2.61313" stroke-linecap="round" stroke-linejoin="round"/>
<path d="M34.4043 32.7849C34.4043 32.7849 35.3385 32.808 35.7133 32.3813C36.0939 31.9545 37.0512 31.574 37.8066 31.6259" stroke="#212428" stroke-width="0.918546" stroke-miterlimit="2.61313" stroke-linecap="round" stroke-linejoin="round"/>
<path d="M38.8961 29.5098C38.8961 29.5098 40.1532 32.1566 37.5352 32.5833" stroke="#212428" stroke-width="0.918546" stroke-miterlimit="2.61313" stroke-linecap="round" stroke-linejoin="round"/>
<path d="M38.3912 15.2969C38.3912 15.2969 36.1249 17.3152 36.5747 22.8569" stroke="#212428" stroke-width="0.918546" stroke-miterlimit="2.61313" stroke-linecap="round" stroke-linejoin="round"/>
<path d="M34.2773 40.9519C34.2773 40.9519 34.7444 40.9288 35.3211 40.6866C35.8978 40.4444 38.7983 40.3349 40.2112 40.6636C41.624 40.9923 42.0507 40.208 43.5615 40.208" stroke="#212428" stroke-width="0.918546" stroke-miterlimit="2.61313" stroke-linecap="round" stroke-linejoin="round"/>
<path d="M60.5189 15.4414C60.5189 15.4414 57.5087 28.1106 55.8941 34.7133C54.2794 41.316 53.8816 42.4232 50.3524 45.7505C46.8233 49.0778 40.0591 55.323 34.2637 55.323" stroke="#212428" stroke-width="0.918546" stroke-miterlimit="2.61313" stroke-linecap="round" stroke-linejoin="round"/>
<path d="M62.703 13.7051C62.703 13.7051 64.6464 13.7281 63.989 16.5538C63.3316 19.3736 60.9673 23.4564 60.6617 26.478C60.3618 29.4997 59.1681 30.3935 56.9941 30.1975" stroke="#212428" stroke-width="0.918546" stroke-miterlimit="2.61313" stroke-linecap="round" stroke-linejoin="round"/>
<path d="M62.2055 17.9108C62.2055 17.9108 61.8826 16.5498 61.2425 17.0054C60.6024 17.461 59.253 21.0362 59.253 21.0362C59.253 21.0362 60.118 22.8527 59.6394 23.4063C59.1607 23.9599 58.2266 25.0844 58.2266 25.0844" stroke="#212428" stroke-width="0.734837" stroke-miterlimit="2.61313" stroke-linecap="round" stroke-linejoin="round"/>
<path fill-rule="evenodd" clip-rule="evenodd" d="M12.2129 46.3189C16.8588 46.3189 20.6243 41.7853 20.6243 36.1934C20.6243 41.7853 24.3897 46.3189 29.0356 46.3189C24.3897 46.3189 20.6243 50.8524 20.6243 56.4444C20.6243 50.8524 16.8588 46.3189 12.2129 46.3189Z" fill="#E1E9F3" stroke="#212428" stroke-width="0.918546" stroke-miterlimit="2.61313" stroke-linecap="round" stroke-linejoin="round"/>
<path fill-rule="evenodd" clip-rule="evenodd" d="M4.41992 39.1611C6.84592 39.1611 8.81295 36.6414 8.81295 33.541C8.81295 36.6414 10.78 39.1611 13.206 39.1611C10.78 39.1611 8.81295 41.6808 8.81295 44.7812C8.81295 41.6808 6.84592 39.1611 4.41992 39.1611Z" fill="#E1E9F3" stroke="#212428" stroke-width="0.918546" stroke-miterlimit="2.61313" stroke-linecap="round" stroke-linejoin="round"/>
<path fill-rule="evenodd" clip-rule="evenodd" d="M51.2656 28.1025C53.4648 28.1025 55.2479 25.905 55.2479 23.2012C55.2479 25.905 57.031 28.1025 59.2302 28.1025C57.031 28.1025 55.2479 30.2999 55.2479 33.0037C55.2479 30.2999 53.4648 28.1025 51.2656 28.1025Z" fill="#E1E9F3" stroke="#212428" stroke-width="0.918546" stroke-miterlimit="2.61313" stroke-linecap="round" stroke-linejoin="round"/>
</svg>
