<svg width="67" height="60" viewBox="0 0 67 60" fill="none" xmlns="http://www.w3.org/2000/svg">
<path d="M34.3771 37.9845C30.0267 37.9845 26.502 34.4578 26.502 30.1094" stroke="#212428" stroke-width="0.9375" stroke-miterlimit="2.61313" stroke-linecap="round" stroke-linejoin="round"/>
<path fill-rule="evenodd" clip-rule="evenodd" d="M28.1643 42.1911C29.8059 43.0206 31.6617 43.488 33.6266 43.488H33.6363H33.6461C35.611 43.488 37.4668 43.0206 39.1084 42.1911L39.1045 42.1833C43.0557 40.1814 45.7645 36.0803 45.7645 31.3482C45.7645 31.0658 45.7528 30.7854 45.7353 30.5089H45.7372C45.7372 30.5089 45.7411 30.4797 45.745 30.4213L45.7645 30.4174C45.8015 29.6618 45.6067 23.8918 33.6461 6.48828L33.6363 6.50191L33.6266 6.48828C21.6679 23.8918 21.4732 29.6598 21.5082 30.4174L21.5277 30.4213C21.5316 30.4797 21.5355 30.5089 21.5355 30.5089H21.5374C21.518 30.7854 21.5082 31.0658 21.5082 31.3482C21.5082 36.0803 24.217 40.1814 28.1682 42.1833L28.1643 42.1911V42.1911Z" stroke="#212428" stroke-width="0.9375" stroke-miterlimit="2.61313" stroke-linecap="round" stroke-linejoin="round"/>
<path d="M5.82812 24.9902H22.6474" stroke="#212428" stroke-width="0.9375" stroke-miterlimit="2.61313" stroke-linecap="round" stroke-linejoin="round"/>
<path d="M44.3535 24.9902H61.1728" stroke="#212428" stroke-width="0.9375" stroke-miterlimit="2.61313" stroke-linecap="round" stroke-linejoin="round"/>
<path d="M33.6328 53.5113V49.0967" stroke="#212428" stroke-width="0.9375" stroke-miterlimit="2.61313" stroke-linecap="round" stroke-linejoin="round"/>
<path d="M22.3516 50.4877L24.5579 46.667" stroke="#212428" stroke-width="0.9375" stroke-miterlimit="2.61313" stroke-linecap="round" stroke-linejoin="round"/>
<path d="M14.0996 42.2317L17.9203 40.0254" stroke="#212428" stroke-width="0.9375" stroke-miterlimit="2.61313" stroke-linecap="round" stroke-linejoin="round"/>
<path d="M51.7773 30.9551H56.192" stroke="#212428" stroke-width="0.9375" stroke-miterlimit="2.61313" stroke-linecap="round" stroke-linejoin="round"/>
<path d="M11.0801 30.9551H15.4928" stroke="#212428" stroke-width="0.9375" stroke-miterlimit="2.61313" stroke-linecap="round" stroke-linejoin="round"/>
<path d="M49.3535 40.0254L53.1742 42.2317" stroke="#212428" stroke-width="0.9375" stroke-miterlimit="2.61313" stroke-linecap="round" stroke-linejoin="round"/>
<path d="M42.7109 46.667L44.9173 50.4877" stroke="#212428" stroke-width="0.9375" stroke-miterlimit="2.61313" stroke-linecap="round" stroke-linejoin="round"/>
</svg>
