<svg width="67" height="60" viewBox="0 0 67 60" fill="none" xmlns="http://www.w3.org/2000/svg">
<path d="M22.132 17.7279C22.8478 17.7279 23.4281 17.1477 23.4281 16.4318C23.4281 15.716 22.8478 15.1357 22.132 15.1357C21.4162 15.1357 20.8359 15.716 20.8359 16.4318C20.8359 17.1477 21.4162 17.7279 22.132 17.7279Z" fill="#212428"/>
<path d="M21.2421 16.2938C21.5182 16.2938 21.742 16.07 21.742 15.7939C21.742 15.5178 21.5182 15.2939 21.2421 15.2939C20.966 15.2939 20.7422 15.5178 20.7422 15.7939C20.7422 16.07 20.966 16.2938 21.2421 16.2938Z" fill="white"/>
<path fill-rule="evenodd" clip-rule="evenodd" d="M27.3051 18.0548C28.7678 17.8419 25.1851 15.6941 25.0184 15.5737C24.2223 15.009 23.1761 14.6572 22.0559 14.6017C19.5193 14.4721 18.4454 15.5182 16.6309 16.9439C16.6309 16.9439 17.3067 16.8513 18.038 17.6568C18.7694 18.4622 21.5838 19.425 24.0278 18.8325C26.4719 18.24 27.3236 18.0641 27.3236 18.0641L27.3051 18.0548Z" stroke="#212428" stroke-width="0.695864" stroke-miterlimit="2.61313" stroke-linecap="round" stroke-linejoin="round"/>
<mask id="mask0_4503_12549" style="mask-type:alpha" maskUnits="userSpaceOnUse" x="19" y="13" width="6" height="7">
<path d="M22.1288 18.784C23.4275 18.784 24.4803 17.7312 24.4803 16.4325C24.4803 15.1338 23.4275 14.0811 22.1288 14.0811C20.8301 14.0811 19.7773 15.1338 19.7773 16.4325C19.7773 17.7312 20.8301 18.784 22.1288 18.784Z" stroke="black" stroke-width="0.86983" stroke-miterlimit="2.61313" stroke-linecap="round" stroke-linejoin="round"/>
</mask>
<g mask="url(#mask0_4503_12549)">
<path fill-rule="evenodd" clip-rule="evenodd" d="M27.3012 18.0539C28.7639 17.8409 25.1812 15.6931 25.0145 15.5728C24.2184 15.008 23.1722 14.6562 22.052 14.6007C19.5154 14.4711 18.4415 15.5172 16.627 16.9429C16.627 16.9429 17.3028 16.8503 18.0341 17.6558C18.7655 18.4612 21.5799 19.424 24.0239 18.8315C26.468 18.239 27.3197 18.0631 27.3197 18.0631L27.3012 18.0539Z" fill="#212428" stroke="#212428" stroke-width="0.695864" stroke-miterlimit="2.61313" stroke-linecap="round" stroke-linejoin="round"/>
</g>
<path d="M26.9652 17.1279C26.9652 17.1279 26.5116 17.6001 26.6968 18.1463" stroke="#212428" stroke-width="0.695864" stroke-miterlimit="2.61313" stroke-linecap="round" stroke-linejoin="round"/>
<path d="M27.5097 16.461C27.5097 16.461 25.8526 13.5726 21.9643 13.5356C18.076 13.4986 16.1504 15.8685 16.1504 15.8685" stroke="#212428" stroke-width="0.695864" stroke-miterlimit="2.61313" stroke-linecap="round" stroke-linejoin="round"/>
<path fill-rule="evenodd" clip-rule="evenodd" d="M27.9984 12.3406C27.9984 12.3406 28.6928 11.4426 26.6931 10.3964C26.6931 10.3964 19.4164 8.23936 17.7223 8.45229C16.0281 8.66522 13.3711 10.7853 13.3711 10.7853C13.3711 10.7853 16.3336 9.64654 19.7219 10.5445C23.1103 11.4426 27.6559 12.7016 27.9984 12.3406V12.3406Z" stroke="#212428" stroke-width="0.86983" stroke-miterlimit="2.61313" stroke-linecap="round" stroke-linejoin="round"/>
<path d="M33.8062 33.266C33.8062 33.266 32.8526 33.2938 32.473 32.8587C32.0842 32.4235 31.1121 32.0347 30.3438 32.0903" stroke="#212428" stroke-width="0.86983" stroke-miterlimit="2.61313" stroke-linecap="round" stroke-linejoin="round"/>
<path d="M29.2371 29.9307C29.2371 29.9307 27.9502 32.6247 30.6258 33.0691" stroke="#212428" stroke-width="0.86983" stroke-miterlimit="2.61313" stroke-linecap="round" stroke-linejoin="round"/>
<path d="M29.7441 15.4316C29.7441 15.4316 32.0586 17.4869 31.5957 23.1434" stroke="#212428" stroke-width="0.86983" stroke-miterlimit="2.61313" stroke-linecap="round" stroke-linejoin="round"/>
<path fill-rule="evenodd" clip-rule="evenodd" d="M33.9496 38.4282C33.9496 38.4282 32.061 37.5024 30.7279 38.2708C29.3948 39.0392 25.5898 40.9463 25.5898 40.9463C25.5898 40.9463 27.284 46.1399 33.9496 46.1399C40.6153 46.1399 42.3094 40.9463 42.3094 40.9463C42.3094 40.9463 38.5045 39.0485 37.1714 38.2708C35.8382 37.5024 33.9496 38.4282 33.9496 38.4282Z" stroke="#212428" stroke-width="0.86983" stroke-miterlimit="2.61313" stroke-linecap="round" stroke-linejoin="round"/>
<path d="M33.9439 41.5863C33.9439 41.5863 33.4717 41.5585 32.8792 41.3178C32.2867 41.0771 29.3335 40.9568 27.8985 41.29C26.4636 41.6233 26.0192 40.8271 24.4824 40.8271" stroke="#212428" stroke-width="0.86983" stroke-miterlimit="2.61313" stroke-linecap="round" stroke-linejoin="round"/>
<path d="M7.17383 15.5801C7.17383 15.5801 10.2474 28.504 11.8861 35.2344C13.5339 41.9648 13.9413 43.0943 17.5333 46.4826C21.1346 49.871 28.0317 56.2496 33.9381 56.2496" stroke="#212428" stroke-width="0.86983" stroke-miterlimit="2.61313" stroke-linecap="round" stroke-linejoin="round"/>
<path d="M4.95167 13.8027C4.95167 13.8027 2.9705 13.8305 3.63707 16.7097C4.30363 19.5889 6.71991 23.7456 7.02542 26.8285C7.33093 29.9113 8.5437 30.8186 10.7656 30.6242" stroke="#212428" stroke-width="0.86983" stroke-miterlimit="2.61313" stroke-linecap="round" stroke-linejoin="round"/>
<path d="M5.45898 18.0886C5.45898 18.0886 5.78301 16.6999 6.44031 17.1628C7.09761 17.6257 8.46777 21.2733 8.46777 21.2733C8.46777 21.2733 7.58828 23.1248 8.07894 23.6896C8.5696 24.2543 9.5139 25.4023 9.5139 25.4023" stroke="#212428" stroke-width="0.86983" stroke-miterlimit="2.61313" stroke-linecap="round" stroke-linejoin="round"/>
<path d="M45.759 17.7279C46.4748 17.7279 47.0551 17.1477 47.0551 16.4318C47.0551 15.716 46.4748 15.1357 45.759 15.1357C45.0432 15.1357 44.4629 15.716 44.4629 16.4318C44.4629 17.1477 45.0432 17.7279 45.759 17.7279Z" fill="#212428"/>
<path d="M44.8613 16.2938C45.1373 16.2938 45.3612 16.07 45.3612 15.7939C45.3612 15.5178 45.1373 15.2939 44.8613 15.2939C44.5852 15.2939 44.3613 15.5178 44.3613 15.7939C44.3613 16.07 44.5852 16.2938 44.8613 16.2938Z" fill="white"/>
<path fill-rule="evenodd" clip-rule="evenodd" d="M40.5787 18.0548C39.1159 17.8419 42.6987 15.6941 42.8653 15.5737C43.6615 15.009 44.7076 14.6572 45.8278 14.6017C48.3645 14.4721 49.4384 15.5182 51.2529 16.9439C51.2529 16.9439 50.5771 16.8513 49.8457 17.6568C49.1143 18.4622 46.3 19.425 43.8559 18.8325C41.4119 18.24 40.5601 18.0641 40.5601 18.0641L40.5787 18.0548Z" stroke="#212428" stroke-width="0.695864" stroke-miterlimit="2.61313" stroke-linecap="round" stroke-linejoin="round"/>
<mask id="mask1_4503_12549" style="mask-type:alpha" maskUnits="userSpaceOnUse" x="43" y="13" width="6" height="7">
<path d="M45.7597 18.784C47.0584 18.784 48.1112 17.7312 48.1112 16.4325C48.1112 15.1338 47.0584 14.0811 45.7597 14.0811C44.461 14.0811 43.4082 15.1338 43.4082 16.4325C43.4082 17.7312 44.461 18.784 45.7597 18.784Z" stroke="black" stroke-width="0.695864" stroke-miterlimit="2.61313" stroke-linecap="round" stroke-linejoin="round"/>
</mask>
<g mask="url(#mask1_4503_12549)">
<path fill-rule="evenodd" clip-rule="evenodd" d="M40.5787 18.0539C39.1159 17.8409 42.6987 15.6931 42.8653 15.5728C43.6615 15.008 44.7076 14.6562 45.8278 14.6007C48.3645 14.4711 49.4384 15.5172 51.2529 16.9429C51.2529 16.9429 50.5771 16.8503 49.8457 17.6558C49.1143 18.4612 46.3 19.424 43.8559 18.8315C41.4119 18.239 40.5601 18.0631 40.5601 18.0631L40.5787 18.0539Z" fill="#212428" stroke="#212428" stroke-width="0.695864" stroke-miterlimit="2.61313" stroke-linecap="round" stroke-linejoin="round"/>
</g>
<path d="M40.9219 17.1279C40.9219 17.1279 41.3755 17.6001 41.1904 18.1463" stroke="#212428" stroke-width="0.695864" stroke-miterlimit="2.61313" stroke-linecap="round" stroke-linejoin="round"/>
<path d="M40.3691 16.461C40.3691 16.461 42.0263 13.5726 45.9146 13.5356C49.8028 13.4986 51.7285 15.8685 51.7285 15.8685" stroke="#212428" stroke-width="0.695864" stroke-miterlimit="2.61313" stroke-linecap="round" stroke-linejoin="round"/>
<path fill-rule="evenodd" clip-rule="evenodd" d="M39.8842 12.3406C39.8842 12.3406 39.1899 11.4426 41.1896 10.3964C41.1896 10.3964 48.4662 8.23936 50.1604 8.45229C51.8545 8.66522 54.5115 10.7853 54.5115 10.7853C54.5115 10.7853 51.549 9.64654 48.1607 10.5445C44.7723 11.4426 40.2267 12.7016 39.8842 12.3406V12.3406Z" stroke="#212428" stroke-width="0.86983" stroke-miterlimit="2.61313" stroke-linecap="round" stroke-linejoin="round"/>
<path d="M34.0781 33.266C34.0781 33.266 35.0317 33.2938 35.4112 32.8587C35.8001 32.4235 36.7721 32.0347 37.5405 32.0903" stroke="#212428" stroke-width="0.86983" stroke-miterlimit="2.61313" stroke-linecap="round" stroke-linejoin="round"/>
<path d="M38.6543 29.9307C38.6543 29.9307 39.9411 32.6247 37.2656 33.0691" stroke="#212428" stroke-width="0.86983" stroke-miterlimit="2.61313" stroke-linecap="round" stroke-linejoin="round"/>
<path d="M38.1374 15.4316C38.1374 15.4316 35.8229 17.4869 36.2858 23.1434" stroke="#212428" stroke-width="0.86983" stroke-miterlimit="2.61313" stroke-linecap="round" stroke-linejoin="round"/>
<path d="M33.9434 41.5863C33.9434 41.5863 34.4155 41.5585 35.008 41.3178C35.6005 41.0771 38.5537 40.9568 39.9887 41.29C41.4237 41.6233 41.868 40.8271 43.4048 40.8271" stroke="#212428" stroke-width="0.86983" stroke-miterlimit="2.61313" stroke-linecap="round" stroke-linejoin="round"/>
<path d="M60.7155 15.5801C60.7155 15.5801 57.6419 28.504 56.0033 35.2344C54.3554 41.9648 53.948 43.0943 50.356 46.4826C46.7547 49.871 39.8576 56.2496 33.9512 56.2496" stroke="#212428" stroke-width="0.86983" stroke-miterlimit="2.61313" stroke-linecap="round" stroke-linejoin="round"/>
<path d="M62.935 13.8027C62.935 13.8027 64.9162 13.8305 64.2496 16.7097C63.583 19.5889 61.1668 23.7456 60.8612 26.8285C60.5557 29.9113 59.343 30.8186 57.1211 30.6242" stroke="#212428" stroke-width="0.86983" stroke-miterlimit="2.61313" stroke-linecap="round" stroke-linejoin="round"/>
<path d="M62.4202 18.0886C62.4202 18.0886 62.0961 16.6999 61.4388 17.1628C60.7815 17.6257 59.4114 21.2733 59.4114 21.2733C59.4114 21.2733 60.2909 23.1248 59.8002 23.6896C59.3095 24.2543 58.3652 25.4023 58.3652 25.4023" stroke="#212428" stroke-width="0.86983" stroke-miterlimit="2.61313" stroke-linecap="round" stroke-linejoin="round"/>
<path fill-rule="evenodd" clip-rule="evenodd" d="M48.9393 17.0234C43.0594 17.0234 38.2891 21.7904 38.2891 27.6737C38.2891 33.5569 43.0549 38.3239 48.9393 38.3239C54.8192 38.3239 59.5895 33.5569 59.5895 27.6737C59.5895 21.7904 54.8236 17.0234 48.9393 17.0234Z" fill="url(#paint0_radial_4503_12549)"/>
<path fill-rule="evenodd" clip-rule="evenodd" d="M18.5877 17.0234C12.7079 17.0234 7.9375 21.7904 7.9375 27.6737C7.9375 33.5569 12.7034 38.3239 18.5877 38.3239C24.4676 38.3239 29.238 33.5569 29.238 27.6737C29.238 21.7904 24.4721 17.0234 18.5877 17.0234Z" fill="url(#paint1_radial_4503_12549)"/>
<defs>
<radialGradient id="paint0_radial_4503_12549" cx="0" cy="0" r="1" gradientUnits="userSpaceOnUse" gradientTransform="translate(48.9393 27.6737) rotate(90) scale(10.6502)">
<stop stop-opacity="0.32"/>
<stop offset="1" stop-opacity="0"/>
</radialGradient>
<radialGradient id="paint1_radial_4503_12549" cx="0" cy="0" r="1" gradientUnits="userSpaceOnUse" gradientTransform="translate(18.5877 27.6737) rotate(90) scale(10.6502)">
<stop stop-opacity="0.32"/>
<stop offset="1" stop-opacity="0"/>
</radialGradient>
</defs>
</svg>
