<svg width="67" height="60" viewBox="0 0 67 60" fill="none" xmlns="http://www.w3.org/2000/svg">
<path fill-rule="evenodd" clip-rule="evenodd" d="M27.7373 46.6517C29.4677 47.5255 31.4226 48.018 33.4928 48.018H33.5029H33.513C35.5832 48.018 37.5381 47.5255 39.2685 46.6517L39.2654 46.6426C43.4291 44.533 46.2831 40.2136 46.2831 35.2267C46.2831 34.9284 46.271 34.6341 46.2517 34.3418H46.2528C46.2528 34.3418 46.2568 34.3114 46.2598 34.2497L46.2801 34.2457C46.3185 33.4488 46.1132 27.3707 33.513 9.03418L33.5029 9.04834L33.4928 9.03418C20.8926 27.3707 20.6873 33.4488 20.7257 34.2457L20.7459 34.2497C20.749 34.3114 20.753 34.3418 20.753 34.3418H20.754C20.7338 34.6341 20.7227 34.9284 20.7227 35.2267C20.7227 40.2136 23.5766 44.533 27.7403 46.6426L27.7373 46.6517Z" fill="#E1E9F3" stroke="#212428" stroke-miterlimit="2.61313" stroke-linecap="round" stroke-linejoin="round"/>
<path d="M33.2726 43.2892C28.6902 43.2892 24.9746 39.5736 24.9746 34.9912" stroke="#212428" stroke-miterlimit="2.61313" stroke-linecap="round" stroke-linejoin="round"/>
<path d="M52.7259 29.349C50.9281 29.349 49.4707 27.8912 49.4707 26.0938" stroke="#212428" stroke-miterlimit="2.61313" stroke-linecap="round" stroke-linejoin="round"/>
<path fill-rule="evenodd" clip-rule="evenodd" d="M50.3119 30.5946C50.8405 30.8803 51.4384 31.0417 52.071 31.0417H52.0745H52.078C52.7106 31.0417 53.3085 30.8803 53.8371 30.5946L53.8357 30.5915C55.1079 29.9012 55.9803 28.4872 55.9803 26.8549C55.9803 26.7571 55.9768 26.6609 55.9704 26.5654H55.9711C55.9711 26.5654 55.9725 26.5556 55.9733 26.5351L55.9796 26.5336C55.9917 26.2729 55.9287 24.2829 52.0773 18.2812L52.0745 18.2858L52.0717 18.2812C48.2203 24.2837 48.1574 26.2729 48.1694 26.5336L48.1758 26.5351C48.1765 26.5556 48.1779 26.5654 48.1779 26.5654C48.1715 26.6609 48.168 26.7579 48.168 26.8549C48.168 28.4872 49.0404 29.9012 50.3126 30.5915L50.3112 30.5946H50.3119Z" stroke="#212428" stroke-miterlimit="2.61313" stroke-linecap="round" stroke-linejoin="round"/>
<path d="M16.1019 49.8099C14.4969 49.8099 13.1953 48.5083 13.1953 46.9033" stroke="#212428" stroke-miterlimit="2.61313" stroke-linecap="round" stroke-linejoin="round"/>
<path fill-rule="evenodd" clip-rule="evenodd" d="M14.1654 50.9882C14.7712 51.2936 15.4559 51.4665 16.182 51.4665H16.1861H16.1901C16.9153 51.4665 17.5999 51.2936 18.2057 50.9882L18.2047 50.9851C19.6631 50.2458 20.6633 48.7329 20.6633 46.9863C20.6633 46.8821 20.6592 46.779 20.6521 46.6768C20.6521 46.6768 20.6542 46.6667 20.6552 46.6445L20.6622 46.6435C20.6754 46.3643 20.6036 44.2355 16.1901 37.8125L16.1871 37.8176L16.1841 37.8125C11.7706 44.2355 11.6988 46.3643 11.7119 46.6435L11.719 46.6445C11.72 46.6657 11.7221 46.6768 11.7221 46.6768C11.715 46.779 11.7109 46.8821 11.7109 46.9863C11.7109 48.7329 12.7111 50.2458 14.1695 50.9851L14.1685 50.9882H14.1654Z" stroke="#212428" stroke-miterlimit="2.61313" stroke-linecap="round" stroke-linejoin="round"/>
<path fill-rule="evenodd" clip-rule="evenodd" d="M18.3944 29.2574C19.1499 29.6386 20.0045 29.8541 20.9086 29.8541H20.9136H20.9187C21.8228 29.8541 22.6774 29.6386 23.4329 29.2574L23.4309 29.2533C25.2492 28.332 26.4962 26.4449 26.4962 24.2664C26.4962 24.136 26.4912 24.0075 26.482 23.8801H26.4831C26.4831 23.8801 26.4851 23.867 26.4861 23.8397L26.4952 23.8376C26.5124 23.4897 26.4224 20.834 20.9177 12.8242L20.9136 12.8303L20.9096 12.8242C15.4049 20.835 15.3149 23.4897 15.3321 23.8376L15.3412 23.8397C15.3422 23.867 15.3442 23.8801 15.3442 23.8801C15.3351 24.0075 15.3301 24.137 15.3301 24.2664C15.3301 26.4449 16.5771 28.332 18.3954 29.2533L18.3934 29.2574H18.3944Z" fill="#E1E9F3" stroke="#212428" stroke-miterlimit="2.61313" stroke-linecap="round" stroke-linejoin="round"/>
<path d="M20.8073 27.7877C18.8048 27.7877 17.1816 26.1645 17.1816 24.1631" stroke="#212428" stroke-miterlimit="2.61313" stroke-linecap="round" stroke-linejoin="round"/>
<path d="M46.3306 46.6377C48.6134 46.6377 50.4639 44.7872 50.4639 42.5044C50.4639 40.2216 48.6134 38.3711 46.3306 38.3711C44.0478 38.3711 42.1973 40.2216 42.1973 42.5044C42.1973 44.7872 44.0478 46.6377 46.3306 46.6377Z" fill="#E1E9F3" stroke="#212428" stroke-miterlimit="2.61313" stroke-linecap="round" stroke-linejoin="round"/>
<path d="M10.1873 32.8501C11.9874 32.8501 13.4468 31.3908 13.4468 29.5906C13.4468 27.7904 11.9874 26.3311 10.1873 26.3311C8.38707 26.3311 6.92773 27.7904 6.92773 29.5906C6.92773 31.3908 8.38707 32.8501 10.1873 32.8501Z" fill="#E1E9F3" stroke="#212428" stroke-miterlimit="2.61313" stroke-linecap="round" stroke-linejoin="round"/>
<path d="M59.5578 32.0473C60.6124 32.0473 61.4672 31.1924 61.4672 30.1379C61.4672 29.0834 60.6124 28.2285 59.5578 28.2285C58.5033 28.2285 57.6484 29.0834 57.6484 30.1379C57.6484 31.1924 58.5033 32.0473 59.5578 32.0473Z" fill="#E1E9F3" stroke="#212428" stroke-miterlimit="2.61313" stroke-linecap="round" stroke-linejoin="round"/>
<path d="M41.2364 13.7639C42.8071 13.7639 44.0803 12.4907 44.0803 10.92C44.0803 9.34942 42.8071 8.07617 41.2364 8.07617C39.6658 8.07617 38.3926 9.34942 38.3926 10.92C38.3926 12.4907 39.6658 13.7639 41.2364 13.7639Z" fill="#E1E9F3" stroke="#212428" stroke-miterlimit="2.61313" stroke-linecap="round" stroke-linejoin="round"/>
<path d="M54.2981 45.31C55.3526 45.31 56.2075 44.4551 56.2075 43.4006C56.2075 42.3461 55.3526 41.4912 54.2981 41.4912C53.2435 41.4912 52.3887 42.3461 52.3887 43.4006C52.3887 44.4551 53.2435 45.31 54.2981 45.31Z" fill="#E1E9F3" stroke="#212428" stroke-miterlimit="2.61313" stroke-linecap="round" stroke-linejoin="round"/>
<path d="M23.6692 52.5102C24.7237 52.5102 25.5786 51.6553 25.5786 50.6008C25.5786 49.5463 24.7237 48.6914 23.6692 48.6914C22.6146 48.6914 21.7598 49.5463 21.7598 50.6008C21.7598 51.6553 22.6146 52.5102 23.6692 52.5102Z" fill="#E1E9F3" stroke="#212428" stroke-miterlimit="2.61313" stroke-linecap="round" stroke-linejoin="round"/>
</svg>
