<svg width="67" height="60" viewBox="0 0 67 60" fill="none" xmlns="http://www.w3.org/2000/svg">
<path d="M7.25391 48.7502C9.74711 48.7502 11.0348 48.0124 12.1855 47.3537C13.2266 46.7477 14.1307 46.2471 16.0212 46.2471C17.9116 46.2471 18.8158 46.7477 19.8569 47.3537C21.0076 48.0124 22.2953 48.7502 24.7885 48.7502C27.2817 48.7502 28.5694 48.0124 29.7201 47.3537C30.7612 46.7477 31.6653 46.2471 33.5284 46.2471C35.3914 46.2471 36.323 46.7477 37.3367 47.3537C38.4874 48.0124 39.7751 48.7502 42.2683 48.7502C44.7615 48.7502 46.0492 48.0124 47.1999 47.3537C48.241 46.7477 49.1452 46.2471 51.0082 46.2471C52.8713 46.2471 53.7754 46.7477 54.8165 47.3537C55.9672 48.0124 57.2549 48.7502 59.7481 48.7502" stroke="#212428" stroke-width="0.9375" stroke-linecap="round"/>
<path d="M7.25391 40.4238H59.7481" stroke="#212428" stroke-width="0.9375" stroke-linecap="round"/>
<path d="M7.25391 32.9316H59.7481" stroke="#212428" stroke-width="0.9375" stroke-linecap="round"/>
<path d="M19.3896 12.2139C19.6373 12.6634 19.9288 13.1798 20.2412 13.7324C20.7497 14.6321 21.3162 15.6395 21.8457 16.6514C22.3758 17.6643 22.8648 18.6732 23.2197 19.5752C23.5799 20.4906 23.7812 21.2452 23.7812 21.7676C23.7812 23.9359 21.8588 25.7587 19.4043 25.7588C16.9497 25.7588 15.0274 23.9359 15.0273 21.7676C15.0273 21.2358 15.199 20.5239 15.5117 19.6777C15.8212 18.8403 16.2551 17.9083 16.748 16.9473C17.5864 15.3129 18.5736 13.6302 19.3896 12.2139Z" fill="#E1E9F3" stroke="#212428" stroke-width="0.9375"/>
<path d="M47.5811 13.0947C47.8287 13.5442 48.1202 14.0606 48.4326 14.6133C48.9412 15.513 49.5076 16.5204 50.0371 17.5322C50.5672 18.5452 51.0562 19.554 51.4111 20.4561C51.7713 21.3715 51.9727 22.126 51.9727 22.6484C51.9726 24.8168 50.0503 26.6396 47.5957 26.6396C45.1411 26.6396 43.2188 24.8168 43.2188 22.6484C43.2188 22.1166 43.3904 21.4048 43.7031 20.5586C44.0126 19.7212 44.4465 18.7892 44.9395 17.8281C45.7778 16.1938 46.765 14.5111 47.5811 13.0947Z" fill="#E1E9F3" stroke="#212428" stroke-width="0.9375"/>
<path d="M33.0557 12.9697C33.3839 13.5665 33.7483 14.2326 34.0889 14.9014C34.43 15.5713 34.7424 16.235 34.9688 16.8262C35.2001 17.4303 35.3222 17.9089 35.3223 18.2266C35.3223 19.5773 34.1564 20.7167 32.6631 20.7168C31.1697 20.7168 30.0039 19.5774 30.0039 18.2266C30.0039 17.8998 30.1077 17.4476 30.3076 16.8916C30.5046 16.344 30.7817 15.7316 31.0986 15.0967C31.5881 14.1161 32.1552 13.111 32.6504 12.2305C32.7756 12.4605 32.9125 12.7095 33.0557 12.9697Z" fill="#E1E9F3" stroke="#212428" stroke-width="0.9375"/>
</svg>
