<svg width="140" height="26" viewBox="0 0 140 26" fill="none" xmlns="http://www.w3.org/2000/svg">
<g clip-path="url(#clip0_1475_1222)">
<path d="M92.9974 0.683105H88.5058V9.13374C87.8575 2.81313 85.5191 0.683105 82.0926 0.683105C79.5226 0.683105 77.601 1.95649 76.4202 5.29044C75.5636 1.97964 73.1094 0.683105 69.0346 0.683105H64.543V9.13374H64.4273C63.779 2.81313 61.4406 0.683105 58.014 0.683105C54.7032 0.683105 52.3417 2.81313 51.6008 9.13374H51.4851V0.683105H45.6969L43.5669 13.3012H43.4512L41.6221 0.683105H35.6256V5.49881C35.0931 2.60475 33.3799 0.683105 30.1617 0.683105C26.6194 0.683105 24.6977 3.13726 24.3736 6.23969C23.4012 2.07225 21.2711 0.683105 18.4928 0.683105C15.3904 0.683105 13.1446 2.51215 12.288 7.7446C12.0796 3.9939 11.0146 0.683105 6.49989 0.683105C2.95757 0.683105 0.0866699 3.9013 0.0866699 13.0002C0.0866699 20.8026 1.68419 25.3173 6.49989 25.3173C10.7831 25.3173 11.9639 21.8907 12.288 18.4642C13.1446 23.604 15.3904 25.3173 18.4928 25.3173C21.4795 25.3173 23.6327 23.604 24.5819 18.7883C24.7903 21.8907 25.9711 25.3173 30.37 25.3173C32.8242 25.3173 34.6532 24.2523 35.6256 22.4232V25.2015H38.9364V7.21209H39.0522L42.0389 25.2015H44.493L47.4797 7.21209H47.5955V25.2015H51.5545V16.7509H51.6703C52.3185 23.0715 54.6569 25.2015 58.0835 25.2015C61.3943 25.2015 63.7558 23.0715 64.4967 16.7509H64.6125V25.2015H69.104V15.3617H70.9331C73.1789 15.3617 74.6838 14.5051 75.633 13.116C75.633 22.3306 78.203 25.2015 82.162 25.2015C85.4728 25.2015 87.8344 23.0715 88.5752 16.7509V25.2015H98.7392V21.4508H93.0668V0.683105H92.9974ZM8.67622 15.8943C8.56046 19.3208 8.25948 21.4508 6.75457 21.4508C5.36542 21.4508 4.92553 20.5942 4.92553 12.7918C4.92553 4.87369 5.89793 4.34119 6.84718 4.34119C7.91219 4.34119 8.4447 5.8461 8.4447 9.6894L12.1954 9.57364C12.0796 10.6386 12.0796 11.7037 12.0796 13.0002C12.0796 14.181 12.0796 15.246 12.1954 16.2184L8.67622 15.8943ZM20.2293 15.4544C20.2293 20.5942 19.581 21.5434 18.6318 21.5434C17.5668 21.5434 17.0342 20.4784 17.0342 15.4544V10.4303C17.0342 5.29044 17.6825 4.34119 18.6318 4.34119C19.6968 4.34119 20.2293 5.4062 20.2293 10.4303V15.4544ZM30.6016 21.5666C28.6799 21.5666 28.6799 19.205 28.6799 17.9317H24.8366C25.045 16.5425 25.1607 14.8292 25.1607 12.9076C25.1607 11.9352 25.1607 10.9859 25.045 10.1293C26.9666 14.5283 32.5464 15.8016 32.5464 19.344C32.5464 20.1543 32.1065 21.5666 30.6016 21.5666ZM28.4715 6.47121C28.4715 5.19783 29.1198 4.34119 30.1848 4.34119C32.0139 4.34119 32.0139 6.58698 32.0139 7.88351H35.7646V15.0608C33.6114 11.1712 28.4715 9.66625 28.4715 6.47121ZM59.7273 15.4544C59.7273 20.5942 59.0791 21.6592 58.1298 21.6592C57.0648 21.6592 56.5323 20.5942 56.5323 15.4544V10.4303C56.5323 5.29044 57.1806 4.22542 58.1298 4.22542C59.1948 4.22542 59.7273 5.29044 59.7273 10.4303V15.4544ZM69.4513 11.8194H69.0346V4.4338H69.3587C70.8636 4.4338 72.2528 4.54956 72.2528 8.06873C72.2528 11.0785 71.2804 11.8194 69.4513 11.8194ZM83.6901 15.4544C83.6901 20.5942 83.0418 21.6592 82.0926 21.6592C81.0276 21.6592 80.495 20.5942 80.495 15.4544V10.4303C80.495 5.29044 81.1433 4.22542 82.0926 4.22542C83.1576 4.22542 83.6901 5.29044 83.6901 10.4303V15.4544ZM99.4337 0.683105H103.925V25.2015H99.4337V0.683105ZM116.775 0.683105H104.574V4.4338H108.417V25.2015H112.908V4.4338H116.752V0.683105M135.274 0.683105V13.6253H135.158L131.083 0.683105H126.684V22.0991L123.998 0.706259H117.469L114.043 25.2247H117.794L118.442 19.7607H122.123L122.771 25.2247H130.574V10.3377H130.689L135.505 25.2247H139.024V0.683105H135.274ZM119.021 16.1952L120.41 4.4338H120.526L121.799 16.1952H119.021Z" fill="#B5B6B7"/>
</g>
<defs>
<clipPath id="clip0_1475_1222">
<rect width="139.278" height="24.6342" fill="white" transform="translate(0.0891113 0.683105)"/>
</clipPath>
</defs>
</svg>
