<svg width="69" height="26" viewBox="0 0 69 26" fill="none" xmlns="http://www.w3.org/2000/svg">
<g clip-path="url(#clip0_1475_1219)">
<path d="M25.2143 24.9547H24.0335V1.06752H25.8728V0.749633H19.2765V1.06752H21.1158V24.9547H19.2765V25.2612H29.7556V18.824H29.449C29.3809 23.0701 27.6098 24.9547 25.2143 24.9547ZM44.651 24.9547H43.4703V1.06752H45.3095V0.749633H38.7133V1.06752H40.5525V24.9547H38.7133V25.2612H49.1923V18.824H48.8857C48.829 23.0701 47.0465 24.9547 44.651 24.9547ZM5.67538 24.9547H4.699V12.943H5.11907C6.75394 12.943 7.61678 14.68 7.61678 17.3253H7.88926V8.06111H7.61678C7.61678 10.3204 6.85612 12.6251 5.11907 12.6251H4.699V1.06752H5.94786C7.88926 1.06752 10.0123 2.63427 10.0123 6.81226H10.2848V0.749633H0.18042V1.06752H1.78122V24.9547H0.18042V25.2612H10.3188V18.858H10.0464C10.0464 23.3766 7.75302 24.9547 5.67538 24.9547ZM68.0159 18.8467C68.0159 23.3766 65.7226 24.9434 63.6449 24.9434H62.6686V12.9316H63.0886C64.7235 12.9316 65.5863 14.6687 65.5863 17.314H65.8702V8.04976H65.5863C65.5863 10.309 64.8257 12.6138 63.0886 12.6138H62.6686V1.05617H63.9174C65.8702 1.05617 67.9819 2.62292 67.9819 6.8009H68.2657V0.738281H58.15V1.05617H59.7508V24.9434H58.15V25.2499H68.2884V18.8467H68.0159Z" fill="#B5B6B7"/>
</g>
<defs>
<clipPath id="clip0_1475_1219">
<rect width="67.9097" height="24.523" fill="white" transform="translate(0.179443 0.738281)"/>
</clipPath>
</defs>
</svg>
