<svg width="46" height="24" viewBox="0 0 46 24" fill="none" xmlns="http://www.w3.org/2000/svg">
<g clip-path="url(#clip0_1475_1236)">
<path d="M37.5434 13.405L36.9347 12.5802H29.6782L32.6293 16.8414C29.5591 17.4413 26.6609 14.874 26.7006 11.8876C26.7447 8.83503 29.2062 6.54998 32.1529 6.57208C35.3864 6.58969 38.6109 10.0746 37.5434 13.405ZM41.8973 18.6412C41.8973 18.6412 44.05 15.8312 44.0588 12.1743C44.0765 4.98843 39.0433 0.321347 32.0206 0.308113C27.9534 0.303702 24.4995 2.28875 22.4041 5.19133C23.2731 6.4265 23.7804 7.61752 23.9877 8.40713H20.772C20.6087 8.91441 20.4808 9.43496 20.3882 9.96868H24.3583C24.4509 10.5554 24.4995 11.1553 24.4995 11.7685C24.4995 14.23 23.7275 16.5105 22.413 18.3897C24.4597 21.332 27.852 23.4671 32.0603 23.4671C34.8526 23.4671 36.8244 22.276 37.1817 22.0864L37.9228 23.0612H45.069L41.8973 18.6412Z" fill="#B5B6B7"/>
<path d="M13.6392 15.4213H16.5948C16.5948 15.5537 15.0817 17.027 12.8055 17.027C10.3044 17.027 7.47236 15.0508 7.41499 11.8879C7.35766 8.61043 10.1897 6.46217 12.8055 6.55477C14.9273 6.6298 15.7346 7.23851 16.9212 8.40308C16.9212 8.40308 18.6328 8.40308 20.3708 8.40752H23.9835C23.7763 7.61787 23.2689 6.42685 22.3999 5.19173C22.325 5.09025 22.2544 4.98438 22.1749 4.88291C20.4369 2.56704 17.4153 0.220264 12.7173 0.211442C7.19886 0.202619 2.94201 3.89482 1.53924 8.40752C1.5216 8.46046 1.50395 8.51778 1.49072 8.57071C1.49072 8.57511 1.49072 8.57511 1.48631 8.57955C1.19958 9.58971 1.04077 10.6572 1.04077 11.7556C1.04959 12.8099 1.18634 13.8201 1.43778 14.7729C2.32444 18.0681 4.6271 20.7854 7.66643 22.2455C7.69292 22.2587 7.71497 22.2676 7.74142 22.2808C7.75464 22.2896 7.7723 22.2941 7.78996 22.3029C9.32063 22.9998 11.041 23.388 12.8717 23.4013C16.7447 23.3704 20.1723 21.4736 22.2852 18.571C22.3293 18.5092 22.3691 18.4475 22.4132 18.3857C23.7277 16.5065 24.4997 14.2259 24.4997 11.7645C24.4997 11.1513 24.4512 10.5513 24.3585 9.96468H13.6392V15.4213Z" fill="#B5B6B7"/>
</g>
<defs>
<clipPath id="clip0_1475_1236">
<rect width="44.843" height="23.5772" fill="white" transform="translate(0.765625 0.211426)"/>
</clipPath>
</defs>
</svg>
