<svg width="77" height="26" viewBox="0 0 77 26" fill="none" xmlns="http://www.w3.org/2000/svg">
<g clip-path="url(#clip0_1475_1224)">
<mask id="mask0_1475_1224" style="mask-type:luminance" maskUnits="userSpaceOnUse" x="0" y="0" width="11" height="26">
<path d="M10.7404 0.841797H0.368896V25.2502H10.7404V0.841797Z" fill="white"/>
</mask>
<g mask="url(#mask0_1475_1224)">
<path d="M6.08571 12.9523V13.2439H7.24157V20.7517C7.24157 23.1051 6.67926 24.8858 5.63795 24.8858C3.48243 24.8858 3.00342 16.7947 3.00342 12.9419C3.00342 9.96372 3.64904 1.0813 5.57547 1.0813C8.07463 1.0813 8.72024 8.32885 8.95974 9.26603L9.07429 9.25562L8.73065 1.01882H8.59528C8.56404 1.2375 8.51198 1.45617 8.42867 1.67485C8.1371 2.34129 7.46025 2.21633 7.1062 1.70609C6.61679 0.997994 6.18985 0.841797 5.57547 0.841797C1.93087 0.841797 0.368896 8.6829 0.368896 12.9523C0.368896 18.0964 1.71219 25.2398 5.57547 25.2502C6.75216 25.2502 7.64769 23.5112 8.49115 23.5112C9.25131 23.5112 9.27214 24.5213 9.43875 25.0107H9.57412V13.2439H10.7404V12.9523H6.08571Z" fill="#B5B6B7"/>
</g>
<path d="M59.066 24.6052V1.02985H58.0559V0.738281H62.3774V1.02985H61.3569L61.3673 24.6052H62.3774V24.8968H58.0559V24.6052H59.066Z" fill="#B5B6B7"/>
<path d="M16.3726 0.738281H21.2876C23.641 0.738281 25.1613 3.42487 25.1613 6.64254C25.1613 9.8602 23.8805 12.8384 21.902 12.8384C21.6416 12.8384 21.6625 13.005 21.902 13.005C23.0891 13.005 23.9742 14.4003 24.1616 14.7648C24.8905 16.2643 24.3803 23.1474 25.1092 23.8242C25.7236 24.397 26.1714 23.5014 26.2443 23.366L26.3171 23.4181C26.3067 23.4806 25.7757 25.2612 24.4532 25.2612C23.3494 25.2612 22.7975 23.8763 22.6413 23.012C22.381 21.5958 22.4643 17.2744 22.3289 16.3997C22.204 15.6395 21.8707 13.3798 20.8398 13.182C20.465 13.1091 20.0901 13.0779 19.7152 13.0987V24.6885H20.7565V24.9801H16.2268V24.6885H17.3827V1.02985H16.3622L16.3726 0.738281ZM19.8402 1.10274V12.6405C20.3296 12.6405 21.1418 12.6926 21.9853 11.62C22.7663 10.6308 23.0787 8.13162 23.0787 6.25725C23.0787 4.26834 22.0582 1.09233 20.7565 1.09233L19.8402 1.10274Z" fill="#B5B6B7"/>
<path d="M31.3037 24.6052L35.7189 0.738281L39.8112 24.6052H40.738V24.8968H36.4894V24.6052H37.4162L36.2604 17.9512H32.8761L31.6682 24.6156H32.8657V24.9072H30.2832V24.626L31.3037 24.6052ZM32.9386 17.6492H36.2187L34.6359 8.32946L32.9386 17.6492Z" fill="#B5B6B7"/>
<path d="M67.3554 24.6052L71.781 0.738281L75.8734 24.6052H76.8002V24.8968H72.5516V24.6052H73.4784L72.3225 17.9512H68.9278L67.7199 24.6156H68.9174V24.9072H66.335V24.626L67.3554 24.6052ZM68.9903 17.6492H72.2705L70.6877 8.32946L68.9903 17.6492Z" fill="#B5B6B7"/>
<path d="M46.7991 24.6052H49.5378C50.8186 24.5532 52.391 23.314 52.391 19.8776L52.4014 17.8471H52.6409V24.8968H44.3521L49.9752 1.02985H47.351C45.6953 1.02985 44.779 3.61231 44.779 5.98651C44.779 6.60088 44.7582 7.77757 44.7582 7.77757H44.5187V0.738281H52.5784L46.7991 24.6052Z" fill="#B5B6B7"/>
</g>
<defs>
<clipPath id="clip0_1475_1224">
<rect width="76.3985" height="24.523" fill="white" transform="translate(0.366943 0.738281)"/>
</clipPath>
</defs>
</svg>
