<svg width="88" height="28" viewBox="0 0 88 28" fill="none" xmlns="http://www.w3.org/2000/svg">
<mask id="mask0_2005_192" style="mask-type:luminance" maskUnits="userSpaceOnUse" x="0" y="0" width="13" height="28">
<path d="M12.4753 0.222778H0.723145V27.8804H12.4753V0.222778Z" fill="white"/>
</mask>
<g mask="url(#mask0_2005_192)">
<path d="M7.20099 13.9454V14.2758H8.51071V22.7831C8.51071 25.4498 7.87355 27.4675 6.69361 27.4675C4.25115 27.4675 3.70838 18.2994 3.70838 13.9336C3.70838 10.559 4.43994 0.494164 6.62282 0.494164C9.45466 0.494164 10.1862 8.70651 10.4576 9.76845L10.5874 9.75665L10.198 0.423367H10.0446C10.0092 0.671153 9.95023 0.91894 9.85584 1.16673C9.52546 1.92188 8.7585 1.78029 8.35732 1.20212C7.80275 0.399769 7.31898 0.222778 6.62282 0.222778C2.49305 0.222778 0.723145 9.10769 0.723145 13.9454C0.723145 19.7743 2.24526 27.8686 6.62282 27.8804C7.95614 27.8804 8.97089 25.91 9.92664 25.91C10.788 25.91 10.8116 27.0545 11.0004 27.6091H11.1538V14.2758H12.4753V13.9454H7.20099Z" fill="#8B8C8E"/>
</g>
<path d="M67.2346 27.1504V0.436705H66.0901V0.106323H70.9868V0.436705H69.8305L69.8423 27.1504H70.9868V27.4808H66.0901V27.1504H67.2346Z" fill="#8B8C8E"/>
<path d="M18.8581 0.106323H24.4274C27.094 0.106323 28.8167 3.15055 28.8167 6.79655C28.8167 10.4426 27.3654 13.8172 25.1235 13.8172C24.8285 13.8172 24.8521 14.006 25.1235 14.006C26.4686 14.006 27.4716 15.5871 27.684 16C28.5099 17.6992 27.9318 25.4985 28.7577 26.2655C29.4539 26.9144 29.9612 25.8997 30.0438 25.7463L30.1264 25.8053C30.1146 25.8761 29.5129 27.8938 28.0144 27.8938C26.7636 27.8938 26.1383 26.3245 25.9613 25.3451C25.6663 23.7404 25.7607 18.8437 25.6073 17.8525C25.4657 16.9912 25.0881 14.4307 23.92 14.2065C23.4952 14.124 23.0704 14.0886 22.6457 14.1122V27.2448H23.8256V27.5752H18.6929V27.2448H20.0026V0.436705H18.8463L18.8581 0.106323ZM22.7872 0.5193V13.593C23.3418 13.593 24.2622 13.652 25.2179 12.4366C26.1029 11.3157 26.4568 8.48386 26.4568 6.35998C26.4568 4.1063 25.3005 0.5075 23.8256 0.5075L22.7872 0.5193Z" fill="#8B8C8E"/>
<path d="M35.7782 27.1504L40.7811 0.106323L45.4182 27.1504H46.4684V27.4808H41.6542V27.1504H42.7044L41.3947 19.6106H37.5599L36.1911 27.1622H37.5481V27.4926H34.6218V27.174L35.7782 27.1504ZM37.6307 19.2685H41.3475L39.554 8.70805L37.6307 19.2685Z" fill="#8B8C8E"/>
<path d="M76.6263 27.1504L81.641 0.106323L86.2782 27.1504H87.3283V27.4808H82.5142V27.1504H83.5643L82.2546 19.6106H78.408L77.0393 27.1622H78.3962V27.4926H75.47V27.174L76.6263 27.1504ZM78.4788 19.2685H82.1956L80.4021 8.70805L78.4788 19.2685Z" fill="#8B8C8E"/>
<path d="M53.3368 27.1504H56.44C57.8914 27.0914 59.6731 25.6873 59.6731 21.7935L59.6849 19.4927H59.9562V27.4808H50.564L56.9356 0.436705H53.9622C52.0861 0.436705 51.0477 3.36294 51.0477 6.05319C51.0477 6.74936 51.0241 8.08268 51.0241 8.08268H50.7528V0.106323H59.8855L53.3368 27.1504Z" fill="#8B8C8E"/>
</svg>
