<svg width="147" height="30" viewBox="0 0 147 30" fill="none" xmlns="http://www.w3.org/2000/svg">
<path d="M15.8638 29.3647L18.4154 4.13435C18.559 2.84064 18.8107 2.62473 19.242 2.62473H19.4934V1.18743H15.3604V2.62473H15.6121C16.187 2.62473 16.4745 3.02028 16.4027 4.13435L14.9291 19.2295L13.2401 4.13435C13.096 2.94847 13.3834 2.62473 14.0309 2.62473H14.1025V1.18743H8.35199V2.62473H8.63996C9.1791 2.62473 9.1791 2.84064 9.28693 4.13435L9.71825 7.98043L8.38802 20.1999L6.87891 4.13435C6.69903 2.84064 6.95071 2.62473 7.52564 2.62473H7.59719V1.18743H1.7749V2.62473H2.06262C2.67356 2.62473 2.70934 2.84064 2.8532 4.13435L5.44085 29.3647H9.17885L10.6524 16.3899L12.1618 29.3647H15.8638ZM40.6275 12.8322C40.6275 11.0712 40.6275 10.46 41.7416 10.46C42.4964 10.46 42.4964 10.7475 42.4964 12.221V27.2801C42.4964 27.8195 42.3165 27.9271 42.029 27.9271H41.8496V29.3644H47.6359V27.9271H47.3842C46.9892 27.9271 46.8814 27.783 46.8814 27.2081V11.4307C46.8814 8.84256 46.3422 7.83607 43.7903 7.83607C42.3165 7.83607 41.2387 8.30341 40.5557 9.92035C40.2677 8.48304 39.5132 7.83607 37.5367 7.83607C35.9193 7.83607 35.0566 8.33944 34.4099 9.92035V7.83607L29.45 8.23161V9.66891H29.6654C29.9889 9.66891 30.2403 9.92035 30.2403 10.7117V27.1C30.2403 27.747 30.0967 27.9271 29.6654 27.9271H29.45V29.3644H34.9848V27.9271H34.7694C34.4817 27.9271 34.4099 27.8193 34.4099 27.3877V12.8322C34.4099 11.0712 34.3736 10.46 35.4877 10.46C36.2425 10.46 36.2425 10.7475 36.2425 12.221V27.2801C36.2425 27.8195 36.0629 27.9271 35.8112 27.9271H35.5598V29.3644H41.2387V27.9271H41.1666C40.7716 27.9271 40.6275 27.783 40.6275 27.2081V12.8322ZM81.0615 29.3647H87.9986V27.9274H87.5308C86.9201 27.9274 86.7404 27.6754 86.7404 26.4177V15.5635H90.4064V26.4175C90.4064 27.6752 90.2267 27.9271 89.6516 27.9271H89.1122V29.3644H96.013V27.9271H95.4383C94.8266 27.9271 94.7193 27.6752 94.7193 26.4175V4.13435C94.7193 2.84064 94.8266 2.62473 95.4383 2.62473H96.013V1.18743H89.1122V2.62473H89.6516C90.2267 2.62473 90.4064 2.84064 90.4064 4.13435V13.8738H86.7404V4.13435C86.7404 2.84064 86.9201 2.62473 87.5308 2.62473H87.9986V1.18743H81.0615V2.62473H81.6727C82.2479 2.62473 82.4275 2.84064 82.4275 4.13435V27.136C82.4275 27.7472 82.2479 27.9274 81.6727 27.9274H81.0615V29.3647ZM133.465 29.3647H138.963V27.9274H138.784C138.424 27.9274 138.388 27.8195 138.388 27.388V12.8322C138.388 11.0712 138.425 10.46 139.539 10.46C140.365 10.46 140.365 10.7475 140.365 12.221V27.2801C140.365 27.8195 140.222 27.9271 139.97 27.9271H139.718V29.3644H145.541V27.9271H145.289C144.894 27.9271 144.822 27.783 144.822 27.2081V11.4307C144.822 8.84256 144.175 7.83607 141.659 7.83607C140.006 7.83607 139.071 8.33944 138.388 9.92035V0.755859L133.105 1.18743V2.62473H133.645C134.003 2.62473 134.219 2.84064 134.219 3.63148V27.1C134.219 27.747 134.111 27.9271 133.645 27.9271H133.465V29.3647ZM23.627 29.6161C28.2279 29.6161 28.8746 25.7705 28.8746 18.7261C28.8746 11.6461 28.1916 7.83607 23.627 7.83607C19.0629 7.83607 18.3801 11.6461 18.3801 18.7261C18.3799 25.7705 19.0268 29.6161 23.627 29.6161ZM58.4544 29.3647H63.9892V27.9274H63.7373C63.4145 27.9274 63.4145 27.8195 63.4145 27.388V12.8322C63.4145 11.0712 63.4145 10.46 64.5639 10.46C65.3547 10.46 65.391 10.7475 65.391 12.221V27.2801C65.391 27.8195 65.1756 27.9271 64.9594 27.9271H64.7075V29.3644H70.5302V27.9271H70.2788C69.8833 27.9271 69.7759 27.783 69.7759 27.2081V11.4307C69.7759 8.84256 69.1647 7.83607 66.6124 7.83607C64.9959 7.83607 64.025 8.33944 63.4145 9.92035V7.83607L58.0948 8.23161V9.66891H58.67C58.9938 9.66891 59.2447 9.92035 59.2447 10.7117V27.1C59.2447 27.747 59.1016 27.9271 58.67 27.9271H58.4546V29.3647H58.4544ZM109.455 29.6161C111.36 29.6161 112.079 28.6822 112.474 27.5676C112.833 29.2208 113.229 29.6161 115.385 29.6161C117.901 29.6161 118.225 28.107 118.189 25.1596H117.002C117.002 27.2804 116.966 27.4958 116.571 27.4958C116.212 27.4958 116.212 27.3162 116.212 26.1298V12.1492C116.212 9.3099 115.278 7.83632 111.971 7.83632C109.347 7.83632 106.759 8.62715 106.903 11.4662C106.975 12.7604 107.478 14.1259 108.844 14.0539C110.102 13.9821 110.677 13.2996 110.677 12.2568C110.677 11.5383 110.137 10.3519 109.276 9.70494C109.599 9.56134 110.102 9.41698 110.928 9.41698C111.863 9.41698 112.043 10.136 112.043 11.5018V15.4191C107.263 17.0366 106.256 17.6836 106.256 23.6857C106.256 27.9992 107.299 29.6161 109.455 29.6161ZM101.225 29.6161C104.782 29.6161 105.609 28.538 105.429 22.644H103.956C103.956 27.3162 103.812 27.6754 102.159 27.6754C100.182 27.6754 100.182 26.8128 100.182 18.7986V18.1512H105.932C105.932 10.065 105.034 7.83657 101.224 7.83657C97.774 7.83657 95.977 9.95738 95.977 18.8702C95.9775 27.3519 97.343 29.6524 101.225 29.6161ZM53.4582 29.6161C56.945 29.6161 57.9152 28.538 57.7711 22.644H56.2983C56.2983 27.3162 56.0826 27.6754 54.3931 27.6754C52.2726 27.6754 52.3804 26.8128 52.3804 18.7986V18.1512H57.9512C57.9512 10.065 57.1967 7.83657 53.4584 7.83657C49.9729 7.83657 48.1756 9.95738 48.1756 18.8702C48.1753 27.3519 49.5408 29.6524 53.4582 29.6161ZM118.98 29.3647H124.731V27.9274H124.299C123.94 27.9274 123.796 27.7472 123.796 27.1725V0.755859L118.441 1.18743V2.62473H119.052C119.411 2.62473 119.555 2.76834 119.555 3.34376V27.2443C119.555 27.7832 119.519 27.9274 119.267 27.9274H118.98V29.3647H118.98ZM77 29.6161C79.6242 29.6161 80.9902 27.8908 80.9902 25.3037C80.9902 19.2297 75.4909 15.7074 75.4909 11.3584C75.4909 10.0284 75.9583 9.63314 76.8927 9.63314C78.2582 9.63314 78.4741 10.2083 78.7255 12.2568L78.9407 14.2693H80.5221V8.0157H79.2649C79.1926 8.80704 79.0135 9.09424 78.9407 8.98616C78.5462 8.51907 77.6112 7.83632 76.0661 7.83632C73.7656 7.83632 71.7532 8.87859 71.7532 12.2928C71.7532 17.612 77.2162 21.6735 77.2162 25.7347C77.2162 27.4958 76.8211 27.7832 75.563 27.7832C74.3053 27.7832 73.982 27.2086 73.7306 24.5489L73.5505 22.7873H71.8973V29.3647H73.3346C73.4429 28.6456 73.6948 28.1788 73.9097 28.3942C74.3768 28.9336 74.8797 29.6161 77 29.6161ZM125.809 24.9084C125.809 28.3224 126.312 29.6161 129.69 29.6161C132.062 29.6161 132.602 28.6822 132.602 26.0585V22.4999H131.164V26.2381C131.164 27.4958 131.056 27.6394 130.589 27.6394C130.122 27.6394 130.014 27.4958 130.014 26.3817V9.63314H132.638V8.0157H130.05V2.62473H128.577C127.534 7.40525 126.636 8.0157 125.234 8.0157H124.839V9.59711H125.809L125.809 24.9084ZM23.627 27.783C22.6212 27.783 22.6212 27.2083 22.6212 18.7261C22.6212 10.2083 22.6212 9.63314 23.627 9.63314C24.6335 9.63314 24.6335 10.2083 24.6335 18.7261C24.6335 27.2443 24.6335 27.783 23.627 27.783ZM71.0341 8.91486C74.6278 6.25465 75.347 4.24217 74.1607 2.40933C73.5137 1.40309 72.0399 0.756111 70.9618 1.65452C69.6676 2.73256 69.9913 4.60194 72.3996 5.68024C71.9681 6.1831 70.9618 7.15407 70.1352 7.98068L71.0341 8.91486ZM111.18 27.1C110.318 27.1 110.318 26.2021 110.318 23.3627C110.318 18.1872 110.318 17.5042 112.043 16.5697V25.447C112.043 26.7768 111.863 27.1 111.18 27.1ZM52.3801 16.6418C52.4519 9.9206 52.56 9.59737 53.4945 9.59737C54.3929 9.59737 54.3213 9.95713 54.3213 16.6418H52.3801ZM100.183 16.6418C100.291 9.9206 100.362 9.59737 101.297 9.59737C102.231 9.59737 102.087 9.95713 102.087 16.6418H100.183Z" fill="#8B8C8E"/>
</svg>
