<svg width="36" height="36" viewBox="0 0 36 36" fill="none" xmlns="http://www.w3.org/2000/svg">
<rect x="1.0999" y="1.48711" width="33.6" height="33.6" rx="16.8" fill="#F6F6F7"/>
<rect x="1.0999" y="1.48711" width="33.6" height="33.6" rx="16.8" stroke="#8B8C8E" stroke-width="1.4"/>
<path d="M21.0356 15.1514V28.8535C20.9398 28.8697 20.8198 28.8891 20.6724 28.9072C20.1433 28.9723 19.266 29.0391 17.8999 29.0391C16.5338 29.0391 15.6565 28.9723 15.1274 28.9072C14.98 28.8891 14.86 28.8697 14.7642 28.8535V15.1514H21.0356Z" fill="white" stroke="#8B8C8E" stroke-width="0.895996"/>
<path d="M17.8999 8.20898C19.2729 8.20898 20.1592 8.24316 20.6987 8.27734C20.8315 8.28576 20.9431 8.29689 21.0356 8.30469V14.0322H14.7642V8.30469C14.8568 8.29689 14.9683 8.28576 15.1011 8.27734C15.6406 8.24316 16.5269 8.20898 17.8999 8.20898Z" fill="white" stroke="#8B8C8E" stroke-width="0.895996"/>
<path d="M17.7393 22.4073C17.5155 22.3905 17.3087 22.3402 17.106 22.2564C16.857 22.1474 16.6332 22.0007 16.4432 21.8163C16.2533 21.6319 16.1013 21.4139 15.9831 21.1624C15.8733 20.9151 15.8142 20.6427 15.8142 20.3535C15.8142 20.0685 15.8733 19.796 15.9873 19.5445C16.1013 19.293 16.2533 19.0751 16.4475 18.8865C16.6374 18.6979 16.8612 18.5512 17.1103 18.4464C17.3593 18.3416 17.6211 18.2871 17.8955 18.2871C18.1699 18.2871 18.4359 18.3416 18.6849 18.4464C18.9382 18.5554 19.162 18.7021 19.352 18.8865C19.5462 19.0751 19.6981 19.293 19.8121 19.5445C19.9261 19.796 19.9852 20.0643 19.9852 20.3535C19.9852 20.6427 19.9261 20.9109 19.8121 21.1624C19.6981 21.4139 19.5419 21.6319 19.352 21.8163C19.1578 22.0007 18.9382 22.1474 18.6849 22.2564C18.4485 22.3528 18.1994 22.4073 17.9419 22.4115C17.9461 22.4115 17.8153 22.4156 17.7393 22.4073ZM17.8955 22.2983C18.1108 22.2983 18.2965 22.248 18.4485 22.1516C18.6047 22.0552 18.7314 21.9169 18.8285 21.745C18.9298 21.5732 19.0016 21.3678 19.048 21.1289C19.0944 20.8942 19.1198 20.6343 19.1198 20.3493C19.1198 20.0685 19.0944 19.8086 19.048 19.5697C19.0058 19.335 18.934 19.1254 18.8327 18.9535C18.7314 18.7817 18.6047 18.6434 18.4527 18.5428C18.2965 18.4422 18.115 18.3919 17.8997 18.3919C17.6844 18.3919 17.4986 18.4422 17.3467 18.5428C17.1905 18.6434 17.0638 18.7775 16.9667 18.9535C16.8696 19.1296 16.7979 19.335 16.7472 19.5739C16.7008 19.8128 16.6754 20.0726 16.6754 20.3493C16.6754 20.6259 16.7008 20.8858 16.7472 21.1247C16.7936 21.3636 16.8654 21.569 16.9667 21.7408C17.0638 21.9127 17.1905 22.051 17.3467 22.1474C17.4986 22.2522 17.6844 22.2983 17.8955 22.2983Z" fill="#8B8C8E"/>
<path d="M19.9854 22.8478C19.7026 22.8478 19.4408 22.873 19.2044 22.9191C18.968 22.9652 18.7612 23.0406 18.5838 23.137C18.4108 23.2376 18.2714 23.3633 18.1743 23.5142C18.0772 23.6651 18.0266 23.8496 18.0266 24.0591H17.9126C17.9126 24.0298 17.9126 24.013 17.9126 24.013C17.921 23.7573 17.9717 23.51 18.0688 23.2753C18.1786 23.028 18.3263 22.8059 18.5121 22.6131C18.6978 22.4203 18.9174 22.2694 19.1707 22.1562C19.424 22.0431 19.6941 21.9844 19.9854 21.9844V22.8478Z" fill="#8B8C8E"/>
</svg>
