<svg width="16" height="11" viewBox="0 0 16 11" fill="none" xmlns="http://www.w3.org/2000/svg">
<path d="M6.65625 0.25774C7.78778 0.242817 8.89503 0.245578 9.95839 0.269404L10.1621 0.275101C11.1779 0.30842 12.1528 0.4301 13.0685 0.631817L13.1119 0.639683C13.217 0.654508 13.3474 0.64698 13.4927 0.62585C13.6576 0.601867 13.8343 0.561386 14.0046 0.522225L14.006 0.521953L14.1921 0.479908C14.2534 0.465919 14.3136 0.453005 14.3708 0.4441L14.3763 0.443286H14.3819C14.7959 0.378578 15.0373 0.4861 15.1629 0.602792C15.3579 0.781692 15.3811 1.0379 15.3409 1.28828C15.3007 1.53859 15.1943 1.80242 15.107 2.01799L15.1073 2.01826C15.0939 2.0529 15.0771 2.09271 15.0669 2.11863C15.0552 2.1483 15.0472 2.17133 15.043 2.19052L15.0422 2.19377L15.0411 2.19703C14.9892 2.35831 14.9766 2.47758 15.0039 2.59308L15.0181 2.64245L15.0186 2.64354L15.0688 2.81308C15.1783 3.21367 15.2313 3.65242 15.2313 4.20442L15.2354 5.42539L15.2313 6.64609C15.2258 7.27828 15.1459 7.83809 14.9907 8.34828L14.9904 8.34884C14.9845 8.36767 14.9855 8.40295 14.9939 8.44975C15.0021 8.49517 15.012 8.52817 15.0191 8.55986L15.0536 8.67706C15.0654 8.71559 15.0775 8.75359 15.0897 8.79128L15.1646 9.01345V9.01398L15.2313 9.21256C15.2943 9.40584 15.344 9.58275 15.3574 9.73825C15.3664 9.84331 15.3594 9.94289 15.3262 10.0339C15.2927 10.1259 15.2338 10.2051 15.1458 10.271L15.1461 10.2713C14.9983 10.3829 14.8019 10.4284 14.5404 10.4178C14.2797 10.4071 13.9464 10.3404 13.5161 10.2192L13.448 10.2057C13.2881 10.1819 13.118 10.2112 12.9138 10.2515L12.9128 10.2518C12.8616 10.261 12.8088 10.2702 12.7551 10.2789L12.5921 10.3022C10.8606 10.5149 9.49384 10.6113 7.97461 10.6172L7.97759 10.6207H7.82678C7.44214 10.6207 7.05164 10.6163 6.63725 10.6023C5.59684 10.575 4.22998 10.5062 2.87261 10.2073C2.78445 10.1874 2.66198 10.1935 2.51997 10.2149C2.37945 10.236 2.22819 10.2708 2.0835 10.303L2.08323 10.3028C1.87833 10.3503 1.66267 10.3998 1.45931 10.4134C1.25549 10.4271 1.05528 10.4056 0.885579 10.3036L0.885037 10.3033C0.672008 10.1731 0.580675 9.96289 0.580675 9.67695C0.580674 9.65839 0.580352 9.63634 0.588813 9.6075C0.640048 9.42853 0.696886 9.24522 0.753472 9.07095C0.819851 8.86311 0.886571 8.65367 0.942004 8.44784V8.4427L0.944715 8.4332C0.945457 8.43067 0.953207 8.39839 0.933323 8.31873C0.757488 7.7382 0.665313 7.15589 0.66531 6.58775V5.96114C0.66531 5.34859 0.665308 4.71284 0.670736 4.08234V4.08206L0.676432 3.89409C0.69752 3.45792 0.775141 3.04348 0.905382 2.6533C0.986193 2.40728 0.891407 2.14878 0.776259 1.8452L0.705458 1.65449C0.636842 1.46023 0.579603 1.25445 0.57959 1.03411V1.02136L0.586914 0.955711C0.639167 0.635469 0.936451 0.429997 1.30442 0.429994H1.32395L1.32178 0.4951V0.496183L1.32395 0.429994C1.63118 0.439014 1.88618 0.50063 2.10547 0.550436H2.10601L2.33849 0.602519C2.5615 0.647058 2.76643 0.663894 3.04215 0.604692L3.04243 0.604419L3.22662 0.566983C4.151 0.384753 5.13775 0.286534 6.16959 0.265064L6.65625 0.25774ZM9.94945 0.846389C8.74073 0.819211 7.47656 0.818978 6.18831 0.841778C5.13553 0.860144 4.13378 0.969283 3.2117 1.16052L3.21197 1.16079C2.66426 1.27829 2.26715 1.18342 1.92779 1.10599H1.92698C1.71738 1.05592 1.53224 1.01215 1.30984 1.00698C1.2923 1.00701 1.28113 1.00788 1.27322 1.01213C1.27054 1.01358 1.26798 1.01576 1.26535 1.02C1.26262 1.02446 1.25872 1.03372 1.25667 1.05092C1.25736 1.19953 1.29834 1.35012 1.35677 1.51018L1.42052 1.67511L1.42106 1.67647L1.46962 1.80586C1.58132 2.11222 1.67448 2.44786 1.55805 2.81471L1.55751 2.81579C1.42453 3.20989 1.35832 3.64148 1.35189 4.09264V4.09292C1.34105 4.71875 1.34646 5.35211 1.34646 5.96548V6.59211C1.34647 7.11475 1.42985 7.64759 1.59712 8.18011L1.60037 8.19014V8.19747C1.63364 8.32909 1.64 8.45645 1.60878 8.56964L1.60905 8.56992C1.58054 8.68078 1.54745 8.79195 1.51329 8.90195L1.41048 9.2272C1.36007 9.38942 1.3059 9.55245 1.26128 9.7125C1.26424 9.76153 1.27138 9.79578 1.27919 9.818C1.28421 9.83225 1.28838 9.83964 1.29058 9.8427C1.29134 9.843 1.29241 9.84361 1.29384 9.84406C1.29736 9.84517 1.3024 9.84628 1.30903 9.84731C1.32252 9.84939 1.34028 9.85064 1.36247 9.85031C1.40705 9.84959 1.46326 9.84323 1.52631 9.83348C1.6515 9.81414 1.79452 9.7822 1.91423 9.75698L2.11252 9.70978C2.31645 9.66417 2.53582 9.62681 2.75027 9.62678H2.7519L2.82677 9.62867C2.8767 9.631 2.92658 9.63559 2.97542 9.64278L3.04785 9.65553L3.04867 9.65581L3.29145 9.70597C4.5055 9.94595 5.7222 10.0074 6.66384 10.0288H6.66411L7.04686 10.0375C8.9345 10.0723 10.4561 9.98531 12.5088 9.73717L12.5105 9.73692L12.5756 9.72903C12.6409 9.71967 12.7082 9.70614 12.7806 9.69214H12.7815L12.9936 9.65497C13.2129 9.62109 13.459 9.60359 13.7184 9.67261H13.7249L13.7342 9.67506C14.1754 9.79984 14.427 9.83834 14.5667 9.84595C14.6364 9.84975 14.6766 9.84581 14.6974 9.84189C14.6979 9.84181 14.6983 9.84145 14.6988 9.84134C14.7002 9.83042 14.7011 9.81459 14.6993 9.79306C14.6955 9.74642 14.683 9.68475 14.6646 9.61375C14.6279 9.47217 14.5711 9.30561 14.5252 9.16995L14.5246 9.16914C14.4799 9.03042 14.4225 8.86653 14.3714 8.69659L14.3711 8.6955C14.3318 8.55759 14.2913 8.37989 14.3429 8.20398L14.3434 8.20317L14.3941 8.02684C14.5047 7.61075 14.5612 7.15653 14.5659 6.64148C14.5713 5.8327 14.5713 5.01514 14.5659 4.20631V4.20575L14.5631 3.99309C14.5507 3.51239 14.494 3.1367 14.3828 2.79707L14.357 2.70647C14.3068 2.49479 14.3236 2.27722 14.4058 2.03508L14.4066 2.03237C14.4288 1.97429 14.4525 1.90772 14.4869 1.82865C14.5268 1.72976 14.6039 1.53533 14.6548 1.35095C14.6805 1.25796 14.6986 1.17098 14.7026 1.10165C14.7046 1.06702 14.7029 1.03957 14.6985 1.01946C14.6956 1.00635 14.6917 0.998592 14.6888 0.993958C14.6844 0.99298 14.6765 0.991492 14.6638 0.990703C14.6353 0.988933 14.59 0.99068 14.5227 1.00156C14.4232 1.0196 14.3129 1.04607 14.1939 1.07344L14.1937 1.07371C13.7914 1.16396 13.3171 1.27419 12.9098 1.18792H12.9092C11.982 0.983617 10.9859 0.869111 9.94945 0.846389Z" fill="#8B8C8E"/>
<path d="M1.32395 0.429994H1.30442C0.936451 0.429997 0.639167 0.635469 0.586914 0.955711L0.57959 1.02136V1.03411C0.579603 1.25445 0.636842 1.46023 0.705458 1.65449L0.776259 1.8452C0.891407 2.14878 0.986193 2.40728 0.905382 2.6533C0.775141 3.04348 0.69752 3.45792 0.676432 3.89409L0.670736 4.08206V4.08234C0.665308 4.71284 0.66531 5.34859 0.66531 5.96114V6.58775C0.665313 7.15589 0.757488 7.7382 0.933323 8.31873C0.953207 8.39839 0.945457 8.43067 0.944715 8.4332L0.942004 8.4427V8.44784C0.886571 8.65367 0.819851 8.86311 0.753472 9.07095C0.696886 9.24523 0.640048 9.42853 0.588813 9.6075C0.580352 9.63634 0.580674 9.65839 0.580675 9.67695C0.580675 9.96289 0.672008 10.1731 0.885037 10.3033L0.885579 10.3036C1.05528 10.4056 1.25549 10.4271 1.45931 10.4134C1.66267 10.3998 1.87833 10.3503 2.08323 10.3028L2.0835 10.303C2.22819 10.2708 2.37945 10.236 2.51997 10.2149C2.66198 10.1935 2.78445 10.1874 2.87261 10.2073C4.22998 10.5062 5.59684 10.575 6.63725 10.6023C7.05164 10.6163 7.44214 10.6207 7.82678 10.6207H7.97759L7.97461 10.6172C9.49384 10.6113 10.8606 10.5149 12.5921 10.3022L12.7551 10.2789C12.8088 10.2702 12.8616 10.261 12.9128 10.2518L12.9138 10.2515C13.118 10.2112 13.2881 10.1819 13.448 10.2057L13.5161 10.2192C13.9464 10.3404 14.2797 10.4071 14.5404 10.4178C14.8019 10.4284 14.9983 10.3829 15.1461 10.2713L15.1458 10.271C15.2338 10.2051 15.2927 10.1259 15.3262 10.0339C15.3594 9.94289 15.3664 9.84331 15.3574 9.73825C15.344 9.58275 15.2943 9.40584 15.2313 9.21256L15.1646 9.01398V9.01345L15.0897 8.79128C15.0775 8.75359 15.0654 8.71559 15.0536 8.67706L15.0191 8.55986C15.012 8.52817 15.0021 8.49517 14.9939 8.44975C14.9855 8.40295 14.9845 8.36767 14.9904 8.34884L14.9907 8.34828C15.1459 7.83809 15.2258 7.27828 15.2313 6.64609L15.2354 5.42539L15.2313 4.20442C15.2313 3.65242 15.1783 3.21367 15.0688 2.81308L15.0186 2.64354L15.0181 2.64245L15.0039 2.59308C14.9766 2.47758 14.9892 2.35831 15.0411 2.19703L15.0422 2.19377L15.043 2.19052C15.0472 2.17133 15.0552 2.1483 15.0669 2.11863C15.0771 2.09271 15.0939 2.0529 15.1073 2.01826L15.107 2.01799C15.1943 1.80242 15.3007 1.53859 15.3409 1.28828C15.3811 1.0379 15.3579 0.781692 15.1629 0.602792C15.0373 0.4861 14.7959 0.378578 14.3819 0.443286H14.3763L14.3708 0.4441C14.3136 0.453005 14.2534 0.465919 14.1921 0.479908L14.006 0.521953L14.0046 0.522225C13.8343 0.561386 13.6576 0.601867 13.4927 0.62585C13.3474 0.64698 13.217 0.654508 13.1119 0.639683L13.0685 0.631817C12.1528 0.4301 11.1779 0.30842 10.1621 0.275101L9.95839 0.269404C8.89503 0.245578 7.78778 0.242817 6.65625 0.25774L6.16959 0.265064C5.13775 0.286534 4.151 0.384753 3.22662 0.566983L3.04243 0.604419L3.04215 0.604692C2.76643 0.663894 2.5615 0.647058 2.33849 0.602519L2.10601 0.550436H2.10547C1.88618 0.50063 1.63118 0.439014 1.32395 0.429994ZM1.32395 0.429994L1.32178 0.4951V0.496183L1.32395 0.429994ZM9.94945 0.846389C8.74073 0.819211 7.47656 0.818978 6.18831 0.841778C5.13553 0.860144 4.13378 0.969283 3.2117 1.16052L3.21197 1.16079C2.66426 1.27829 2.26715 1.18342 1.92779 1.10599H1.92698C1.71738 1.05592 1.53224 1.01215 1.30984 1.00698C1.2923 1.00701 1.28113 1.00788 1.27322 1.01213C1.27054 1.01358 1.26798 1.01576 1.26535 1.02C1.26262 1.02446 1.25872 1.03372 1.25667 1.05092C1.25736 1.19953 1.29834 1.35012 1.35677 1.51018L1.42052 1.67511L1.42106 1.67647L1.46962 1.80586C1.58132 2.11222 1.67448 2.44786 1.55805 2.81471L1.55751 2.81579C1.42453 3.20989 1.35832 3.64148 1.35189 4.09264V4.09292C1.34105 4.71875 1.34646 5.35211 1.34646 5.96548V6.59211C1.34647 7.11475 1.42985 7.64759 1.59712 8.18011L1.60037 8.19014V8.19748C1.63364 8.32909 1.64 8.45645 1.60878 8.56964L1.60905 8.56992C1.58054 8.68078 1.54745 8.79195 1.51329 8.90195L1.41048 9.2272C1.36007 9.38942 1.3059 9.55245 1.26128 9.7125C1.26424 9.76153 1.27138 9.79578 1.27919 9.818C1.28421 9.83225 1.28838 9.83964 1.29058 9.8427C1.29134 9.843 1.29241 9.84361 1.29384 9.84406C1.29736 9.84517 1.3024 9.84628 1.30903 9.84731C1.32252 9.84939 1.34028 9.85064 1.36247 9.85031C1.40705 9.84959 1.46326 9.84323 1.52631 9.83348C1.6515 9.81414 1.79452 9.7822 1.91423 9.75697L2.11252 9.70978C2.31645 9.66417 2.53582 9.62681 2.75027 9.62678H2.7519L2.82677 9.62867C2.8767 9.631 2.92658 9.63559 2.97542 9.64278L3.04785 9.65553L3.04866 9.65581L3.29145 9.70597C4.5055 9.94595 5.7222 10.0074 6.66384 10.0288H6.66411L7.04686 10.0375C8.9345 10.0723 10.4561 9.98531 12.5088 9.73717L12.5105 9.73692L12.5756 9.72903C12.6409 9.71967 12.7082 9.70614 12.7806 9.69214H12.7815L12.9936 9.65498C13.2129 9.62109 13.459 9.60359 13.7184 9.67261H13.7249L13.7342 9.67506C14.1754 9.79984 14.427 9.83834 14.5667 9.84595C14.6364 9.84975 14.6766 9.84581 14.6974 9.84189C14.6979 9.84181 14.6983 9.84145 14.6988 9.84134C14.7002 9.83042 14.7011 9.81459 14.6993 9.79306C14.6955 9.74642 14.683 9.68475 14.6646 9.61375C14.6279 9.47217 14.5711 9.30561 14.5252 9.16995L14.5246 9.16914C14.4799 9.03042 14.4225 8.86653 14.3714 8.69659L14.3711 8.6955C14.3318 8.55759 14.2913 8.37989 14.3429 8.20398L14.3434 8.20317L14.3941 8.02684C14.5047 7.61075 14.5612 7.15653 14.5659 6.64148C14.5713 5.8327 14.5713 5.01514 14.5659 4.20631V4.20575L14.5631 3.99309C14.5507 3.51239 14.494 3.1367 14.3828 2.79707L14.357 2.70647C14.3068 2.49479 14.3236 2.27722 14.4058 2.03508L14.4066 2.03237C14.4288 1.97429 14.4525 1.90772 14.4869 1.82865C14.5268 1.72976 14.6039 1.53533 14.6548 1.35095C14.6805 1.25796 14.6986 1.17098 14.7026 1.10165C14.7046 1.06702 14.7029 1.03957 14.6985 1.01946C14.6956 1.00635 14.6917 0.998592 14.6888 0.993958C14.6844 0.99298 14.6765 0.991492 14.6638 0.990703C14.6353 0.988933 14.59 0.99068 14.5227 1.00156C14.4232 1.0196 14.3129 1.04607 14.1939 1.07344L14.1937 1.07371C13.7914 1.16396 13.3171 1.27419 12.9098 1.18792H12.9092C11.982 0.983617 10.9859 0.869111 9.94945 0.846389Z" stroke="#8B8C8E" stroke-width="0.25"/>
</svg>
