<svg width="90" height="21" viewBox="0 0 90 21" fill="none" xmlns="http://www.w3.org/2000/svg">
<path d="M4.33145 17.344C3.37984 17.344 2.56214 17.1866 1.87858 16.8713C1.19503 16.5561 0.568793 16.0779 0.00012207 15.4366L1.67357 13.7615C2.0453 14.1926 2.45846 14.5273 2.91225 14.7651C3.3663 15.0026 3.89407 15.1217 4.49556 15.1217C5.04261 15.1217 5.46618 15.0224 5.76706 14.8233C6.06794 14.6242 6.21825 14.3477 6.21825 13.994C6.21825 13.6732 6.11978 13.4136 5.92284 13.2142C5.72616 13.0151 5.46618 12.844 5.14369 12.6999C4.82093 12.5564 4.46534 12.4181 4.0772 12.2851C3.6888 12.1527 3.30326 12.0005 2.92058 11.829C2.53765 11.6576 2.18493 11.4419 1.86217 11.182C1.53967 10.9223 1.2797 10.596 1.08302 10.2034C0.886081 9.81073 0.787612 9.31616 0.787612 8.71889C0.787612 8.00022 0.959803 7.38082 1.30444 6.86124C1.64882 6.34139 2.12736 5.94611 2.74006 5.67539C3.35275 5.4044 4.05818 5.26904 4.85662 5.26904C5.66599 5.26904 6.40711 5.41283 7.07972 5.70041C7.75233 5.98798 8.30745 6.38037 8.74509 6.87809L7.07138 8.55325C6.72153 8.18825 6.36855 7.91753 6.01323 7.74056C5.65791 7.56359 5.2557 7.4751 4.80738 7.4751C4.35906 7.4751 4.00348 7.56069 3.7409 7.73213C3.47831 7.90331 3.34702 8.14954 3.34702 8.47003C3.34702 8.76866 3.44549 9.0091 3.64243 9.1916C3.83936 9.3741 4.09908 9.53158 4.42158 9.66431C4.74434 9.79704 5.09992 9.92976 5.48807 10.0625C5.87647 10.1952 6.26201 10.3501 6.64468 10.5268C7.02736 10.7035 7.38007 10.9276 7.70283 11.1986C8.02533 11.4696 8.28531 11.8122 8.48225 12.2269C8.67918 12.6417 8.77765 13.1531 8.77765 13.7612C8.77765 14.8781 8.38378 15.7542 7.59629 16.3899C6.8088 17.0257 5.72043 17.3438 4.33145 17.3438V17.344ZM14.0773 17.344C13.2132 17.344 12.4447 17.1644 11.7721 16.805C11.0995 16.4458 10.5715 15.9454 10.1888 15.3039C9.80585 14.6624 9.61464 13.9384 9.61464 13.131C9.61464 12.3239 9.80324 11.6023 10.1807 10.9666C10.5582 10.3308 11.0693 9.83048 11.7148 9.46548C12.3603 9.10048 13.0876 8.91798 13.897 8.91798C14.6845 8.91798 15.3792 9.08942 15.9807 9.4323C16.5822 9.77518 17.0553 10.2505 17.3999 10.8589C17.7446 11.4669 17.9168 12.1635 17.9168 12.9488C17.9168 13.0926 17.9087 13.2445 17.8923 13.4049C17.8759 13.5653 17.8459 13.7504 17.8021 13.9606L10.9276 13.9771V12.2356L16.7357 12.219L15.6528 12.9488C15.6418 12.4845 15.5707 12.1 15.4394 11.7961C15.3081 11.4919 15.114 11.2599 14.8569 11.0993C14.5998 10.9389 14.2854 10.8589 13.9137 10.8589C13.52 10.8589 13.178 10.95 12.8881 11.1325C12.5981 11.315 12.3741 11.572 12.2155 11.9038C12.0568 12.2356 11.9776 12.6391 11.9776 13.1144C11.9776 13.59 12.0623 13.9964 12.2319 14.3337C12.4015 14.6708 12.6422 14.931 12.9537 15.1132C13.2655 15.2957 13.6347 15.3868 14.0611 15.3868C14.455 15.3868 14.8103 15.3178 15.1276 15.1796C15.4449 15.0413 15.7236 14.8338 15.9643 14.5576L17.3426 15.9507C16.9487 16.4152 16.4731 16.7636 15.9153 16.9956C15.3574 17.2279 14.7449 17.344 14.0778 17.344H14.0773ZM22.9863 17.344C22.166 17.344 21.4223 17.1615 20.7549 16.7965C20.0875 16.4318 19.5626 15.9285 19.1799 15.287C18.797 14.6458 18.6058 13.9271 18.6058 13.1307C18.6058 12.3236 18.7999 11.602 19.1883 10.9663C19.5767 10.3306 20.1044 9.83022 20.7716 9.46522C21.4387 9.10022 22.1879 8.91772 23.0192 8.91772C23.6428 8.91772 24.2141 9.02569 24.7338 9.24137C25.2532 9.45705 25.7156 9.78044 26.1202 10.2115L24.5121 11.8369C24.3264 11.6268 24.1101 11.4719 23.8642 11.3724C23.6181 11.2728 23.3365 11.2231 23.0192 11.2231C22.6584 11.2231 22.3382 11.3034 22.0595 11.4635C21.7805 11.6239 21.5617 11.8448 21.4033 12.1269C21.2446 12.4089 21.1654 12.7376 21.1654 13.1136C21.1654 13.4897 21.2446 13.8215 21.4033 14.1088C21.5619 14.3964 21.7834 14.6229 22.0678 14.7888C22.3523 14.9547 22.6693 15.0376 23.0194 15.0376C23.3477 15.0376 23.6402 14.9797 23.8973 14.8636C24.1544 14.7474 24.3758 14.5844 24.5618 14.3743L26.1535 15.9997C25.7377 16.4421 25.2675 16.7765 24.7424 17.0033C24.2175 17.23 23.6321 17.3433 22.9869 17.3433L22.9863 17.344ZM30.8125 17.344C30.0904 17.344 29.4452 17.1918 28.8765 16.8879C28.3076 16.584 27.8647 16.1637 27.5474 15.6275C27.2301 15.0914 27.0718 14.4804 27.0718 13.7946V9.10075H29.5655L29.5817 13.7451C29.5817 14.0217 29.6283 14.2592 29.7213 14.4583C29.8143 14.6574 29.9537 14.8122 30.1397 14.9228C30.3254 15.0334 30.5499 15.0887 30.8123 15.0887C31.184 15.0887 31.4823 14.97 31.7066 14.7322C31.9306 14.4944 32.0374 14.1654 32.0265 13.7454L32.0429 9.10101H34.5366V13.7617C34.5366 14.4693 34.378 15.0914 34.0607 15.6275C33.7434 16.164 33.3032 16.584 32.74 16.8879C32.1768 17.1921 31.5341 17.344 30.8123 17.344H30.8125ZM36.1283 17.1615L36.1119 9.10048H38.622V17.1615H36.128H36.1283ZM38.6223 12.7331L37.5722 11.9038C37.7801 10.9639 38.13 10.2339 38.6223 9.71434C39.1144 9.19476 39.7982 8.93484 40.6732 8.93484C41.0562 8.93484 41.3925 8.99304 41.6824 9.10891C41.9723 9.22505 42.2266 9.40465 42.4454 9.64798L40.9522 11.5554C40.8428 11.4337 40.706 11.3397 40.5419 11.2734C40.3778 11.207 40.1918 11.1738 39.9842 11.1738C39.5684 11.1738 39.2376 11.3039 38.9917 11.5636C38.7455 11.8235 38.6226 12.2132 38.6226 12.7328L38.6223 12.7331ZM46.8257 17.344C45.9616 17.344 45.1931 17.1644 44.5205 16.805C43.8479 16.4458 43.3202 15.9454 42.9372 15.3039C42.5545 14.6624 42.3631 13.9384 42.3631 13.131C42.3631 12.3239 42.5517 11.6023 42.9291 10.9666C43.3066 10.3308 43.8177 9.83048 44.4632 9.46548C45.1085 9.10048 45.8361 8.91798 46.6454 8.91798C47.4329 8.91798 48.1277 9.08942 48.7292 9.4323C49.3307 9.77518 49.8037 10.2505 50.1484 10.8589C50.4927 11.4669 50.6649 12.1635 50.6649 12.9488C50.6649 13.0926 50.6569 13.2445 50.6405 13.4049C50.624 13.5653 50.5938 13.7504 50.5501 13.9606L43.6755 13.9771V12.2356L49.4836 12.219L48.4007 12.9488C48.3897 12.4845 48.3186 12.1 48.1873 11.7961C48.056 11.4919 47.862 11.2599 47.6049 11.0993C47.3477 10.9389 47.0336 10.8589 46.6616 10.8589C46.2677 10.8589 45.9259 10.95 45.636 11.1325C45.3461 11.315 45.122 11.572 44.9634 11.9038C44.8047 12.2356 44.7256 12.6391 44.7256 13.1144C44.7256 13.59 44.8102 13.9964 44.9798 14.3337C45.1494 14.6708 45.3901 14.931 45.7016 15.1132C46.0135 15.2957 46.3826 15.3868 46.8093 15.3868C47.2029 15.3868 47.5585 15.3178 47.8758 15.1796C48.1931 15.0413 48.4721 14.8338 48.7125 14.5576L50.0905 15.9507C49.6969 16.4152 49.221 16.7636 48.6633 16.9956C48.1053 17.2279 47.4928 17.344 46.8257 17.344Z" fill="#474747"/>
<path d="M55.5866 17.3442C54.635 17.3442 53.8173 17.1867 53.1337 16.8715C52.4502 16.5562 51.8239 16.078 51.2552 15.4367L52.9287 13.7616C53.3004 14.1927 53.7136 14.5274 54.1674 14.7652C54.6214 15.0027 55.1492 15.1218 55.7507 15.1218C56.2977 15.1218 56.7213 15.0225 57.0222 14.8234C57.3231 14.6243 57.4734 14.3478 57.4734 13.9941C57.4734 13.6734 57.3749 13.4137 57.178 13.2144C56.9813 13.0153 56.7213 12.8441 56.3988 12.7C56.0761 12.5565 55.7205 12.4183 55.3323 12.2853C54.9439 12.1528 54.5584 12.0006 54.1757 11.8292C53.793 11.6577 53.4401 11.442 53.1173 11.1821C52.7948 10.9224 52.5348 10.5962 52.3381 10.2035C52.1412 9.81086 52.0427 9.31629 52.0427 8.71902C52.0427 8.00035 52.2149 7.38095 52.5596 6.86137C52.904 6.34152 53.3825 5.94624 53.9952 5.67552C54.6076 5.40453 55.3133 5.26917 56.1115 5.26917C56.9209 5.26917 57.662 5.41296 58.3346 5.70053C59.0072 5.98811 59.5623 6.3805 60 6.87822L58.3262 8.55338C57.9764 8.18838 57.6234 7.91765 57.2681 7.74069C56.9128 7.56372 56.5106 7.47523 56.0623 7.47523C55.6139 7.47523 55.2583 7.56082 54.9958 7.73226C54.7332 7.90343 54.6019 8.14966 54.6019 8.47016C54.6019 8.76879 54.7004 9.00923 54.8973 9.19173C55.0942 9.37423 55.354 9.53171 55.6764 9.66444C55.9992 9.79716 56.3548 9.92989 56.7429 10.0626C57.1313 10.1953 57.5169 10.3502 57.8995 10.5269C58.2822 10.7036 58.6349 10.9277 58.9577 11.1987C59.2805 11.4697 59.5402 11.8123 59.7371 12.2271C59.9341 12.6418 60.0325 13.1533 60.0325 13.7613C60.0325 14.8782 59.6389 15.7543 58.8512 16.3901C58.0637 17.0258 56.9753 17.3439 55.5863 17.3439L55.5866 17.3442ZM66.7104 17.1617V12.5673C66.7104 12.147 66.582 11.807 66.3249 11.5471C66.0678 11.2872 65.7369 11.1574 65.3321 11.1574C65.0586 11.1574 64.8208 11.2153 64.6184 11.3314C64.4159 11.4476 64.2547 11.6132 64.1343 11.8289C64.014 12.0446 63.9538 12.2905 63.9538 12.5671L62.9858 12.0859C62.9858 11.4555 63.1171 10.9027 63.3797 10.4271C63.6423 9.95175 64.0085 9.58412 64.479 9.32419C64.9492 9.06427 65.4853 8.93444 66.0868 8.93444C66.7214 8.93444 67.2736 9.06427 67.7438 9.32419C68.214 9.58412 68.5779 9.94332 68.8348 10.4023C69.0917 10.8614 69.2203 11.3949 69.2203 12.003V17.1611H66.7102L66.7104 17.1617ZM61.4601 17.1617L61.4436 5.12012H63.9538V17.1617H61.4598H61.4601ZM70.8284 17.1617V9.10061H73.3386V17.1617H70.8284ZM79.7047 17.3276C79.1688 17.3276 78.6765 17.2225 78.2282 17.0126C77.7796 16.8025 77.4133 16.5123 77.1288 16.1417C76.8444 15.7715 76.6805 15.3485 76.6368 14.8729V11.4728C76.6805 10.9972 76.8446 10.5661 77.1288 10.179C77.4133 9.7919 77.7796 9.48799 78.2282 9.26678C78.6765 9.04557 79.1688 8.93496 79.7047 8.93496C80.4593 8.93496 81.1293 9.11746 81.7147 9.48246C82.2998 9.8472 82.7593 10.3449 83.093 10.9751C83.4267 11.6053 83.5934 12.324 83.5934 13.1314C83.5934 13.9386 83.4267 14.6575 83.093 15.2877C82.7593 15.9181 82.3 16.4156 81.7147 16.7806C81.1293 17.1453 80.4596 17.3278 79.7047 17.3278V17.3276ZM79.2451 15.0386C79.6171 15.0386 79.9344 14.9556 80.1967 14.7897C80.4593 14.6238 80.6672 14.3999 80.8201 14.1179C80.9733 13.8361 81.0499 13.5069 81.0499 13.1311C81.0499 12.7551 80.9733 12.4235 80.8201 12.136C80.6672 11.8484 80.4565 11.6216 80.1884 11.456C79.9206 11.2901 79.6059 11.2071 79.2449 11.2071C78.906 11.2182 78.5996 11.304 78.3264 11.4642C78.0528 11.6245 77.8424 11.8455 77.6946 12.1275C77.5469 12.4096 77.4732 12.744 77.4732 13.1309C77.4732 13.4959 77.5469 13.8219 77.6946 14.1095C77.8424 14.3971 78.0528 14.6235 78.3264 14.7894C78.5999 14.9553 78.906 15.0383 79.2449 15.0383L79.2451 15.0386ZM75.1108 20.5617L75.1272 9.10061H77.6212V11.1739L77.2109 13.1311L77.5884 15.0883L77.572 20.5617H75.1108Z" fill="#2576B3"/>
<path d="M84.3894 3.87934C84.1117 3.71738 83.9359 3.48959 83.8616 3.19596C83.7874 2.90259 83.827 2.6216 83.9802 2.35351C84.1378 2.07778 84.3597 1.90082 84.646 1.82286C84.9323 1.74465 85.2142 1.78679 85.4918 1.94874C85.7695 2.11097 85.9446 2.3356 86.0167 2.62291C86.0892 2.91049 86.0467 3.19201 85.8891 3.46773C85.7359 3.73582 85.5171 3.91226 85.2324 3.99601C84.9479 4.08028 84.6666 4.0413 84.3891 3.87934H84.3894ZM80.5223 2.8486C80.1816 2.8486 79.8997 2.73352 79.6772 2.50283C79.455 2.27266 79.3435 1.99299 79.3435 1.66354C79.3435 1.32488 79.455 1.04309 79.6772 0.817405C79.8997 0.591717 80.1816 0.479004 80.5223 0.479004C80.863 0.479004 81.1425 0.591717 81.3603 0.817405C81.5781 1.04309 81.687 1.32514 81.687 1.66354C81.687 1.99272 81.5781 2.2724 81.3603 2.50283C81.1425 2.73326 80.863 2.8486 80.5223 2.8486ZM72.0928 7.87669C71.651 7.87669 71.2858 7.72737 70.9974 7.42874C70.709 7.1301 70.5647 6.76747 70.5647 6.34085C70.5647 5.90185 70.709 5.53632 70.9974 5.24374C71.2858 4.95117 71.651 4.80501 72.0928 4.80501C72.5346 4.80501 72.8967 4.95117 73.1791 5.24374C73.4612 5.53632 73.6026 5.90185 73.6026 6.34085C73.6026 6.76747 73.4614 7.1301 73.1791 7.42874C72.8967 7.72764 72.5346 7.87669 72.0928 7.87669ZM75.1972 1.65959C75.5233 1.46945 75.8554 1.42231 76.1941 1.51844C76.5327 1.61429 76.7919 1.82023 76.9717 2.13467C77.1566 2.45858 77.204 2.7904 77.1147 3.13065C77.0253 3.47063 76.8175 3.73582 76.4913 3.92596C76.1657 4.11609 75.8367 4.16428 75.5053 4.06974C75.1737 3.97546 74.9156 3.76663 74.7306 3.44271C74.5509 3.12801 74.5021 2.79936 74.5847 2.45753C74.667 2.11571 74.8713 1.84973 75.1972 1.65959ZM84.1164 18.1899C84.2881 18.0898 84.4629 18.0651 84.6413 18.1156C84.8195 18.1662 84.9563 18.2744 85.0508 18.4403C85.1485 18.611 85.1735 18.7858 85.1261 18.9647C85.079 19.1437 84.9695 19.283 84.7979 19.3834C84.6262 19.4835 84.453 19.509 84.2784 19.4592C84.1039 19.4095 83.9679 19.2994 83.8705 19.129C83.7757 18.9633 83.7501 18.7903 83.7936 18.6102C83.8371 18.4303 83.9445 18.29 84.1164 18.1896V18.1899ZM87.1312 14.9765C87.2476 14.773 87.4109 14.6437 87.6217 14.5894C87.8324 14.5352 88.0341 14.5641 88.2266 14.6763C88.4245 14.7917 88.5517 14.9547 88.6077 15.1648C88.6639 15.3747 88.6335 15.5817 88.5173 15.7853C88.4008 15.9891 88.2396 16.1176 88.0333 16.1708C87.827 16.2237 87.6248 16.1927 87.4268 16.0768C87.2343 15.9646 87.1077 15.804 87.0473 15.5951C86.9869 15.3863 87.015 15.1801 87.1312 14.9763V14.9765ZM88.1211 10.7285C88.1211 10.4522 88.2122 10.2239 88.3948 10.0438C88.5775 9.86364 88.7994 9.77332 89.0602 9.77332C89.3285 9.77332 89.5522 9.86338 89.7312 10.0438C89.9102 10.2239 89.9995 10.4522 89.9995 10.7285C89.9995 11.0045 89.9102 11.2309 89.7312 11.4074C89.5522 11.5838 89.3285 11.672 89.0602 11.672C88.7994 11.672 88.5775 11.5838 88.3948 11.4074C88.2122 11.2309 88.1211 11.0047 88.1211 10.7285ZM87.1372 6.67319C87.0007 6.43407 86.9668 6.19048 87.0358 5.94188C87.1046 5.69354 87.2523 5.50341 87.4782 5.37147C87.7108 5.23558 87.9491 5.20082 88.193 5.26639C88.437 5.33223 88.6272 5.48471 88.764 5.72356C88.9005 5.96268 88.9351 6.20391 88.8674 6.44724C88.7997 6.69057 88.6499 6.87992 88.4172 7.01581C88.1911 7.14775 87.9556 7.1833 87.71 7.12273C87.4649 7.06242 87.2737 6.91258 87.1372 6.67346V6.67319Z" fill="url(#paint0_linear_753_4655)"/>
<path d="M84.3894 3.87934C84.1117 3.71738 83.9359 3.48959 83.8616 3.19596C83.7874 2.90259 83.827 2.6216 83.9802 2.35351C84.1378 2.07778 84.3597 1.90082 84.646 1.82286C84.9323 1.74465 85.2142 1.78679 85.4918 1.94874C85.7695 2.11097 85.9446 2.3356 86.0167 2.62291C86.0892 2.91049 86.0467 3.19201 85.8891 3.46773C85.7359 3.73582 85.5171 3.91226 85.2324 3.99601C84.9479 4.08028 84.6666 4.0413 84.3891 3.87934H84.3894ZM80.5223 2.8486C80.1816 2.8486 79.8997 2.73352 79.6772 2.50283C79.455 2.27266 79.3435 1.99299 79.3435 1.66354C79.3435 1.32488 79.455 1.04309 79.6772 0.817405C79.8997 0.591717 80.1816 0.479004 80.5223 0.479004C80.863 0.479004 81.1425 0.591717 81.3603 0.817405C81.5781 1.04309 81.687 1.32514 81.687 1.66354C81.687 1.99272 81.5781 2.2724 81.3603 2.50283C81.1425 2.73326 80.863 2.8486 80.5223 2.8486ZM72.0928 7.87669C71.651 7.87669 71.2858 7.72737 70.9974 7.42874C70.709 7.1301 70.5647 6.76747 70.5647 6.34085C70.5647 5.90185 70.709 5.53632 70.9974 5.24374C71.2858 4.95117 71.651 4.80501 72.0928 4.80501C72.5346 4.80501 72.8967 4.95117 73.1791 5.24374C73.4612 5.53632 73.6026 5.90185 73.6026 6.34085C73.6026 6.76747 73.4614 7.1301 73.1791 7.42874C72.8967 7.72764 72.5346 7.87669 72.0928 7.87669ZM75.1972 1.65959C75.5233 1.46945 75.8554 1.42231 76.1941 1.51844C76.5327 1.61429 76.7919 1.82023 76.9717 2.13467C77.1566 2.45858 77.204 2.7904 77.1147 3.13065C77.0253 3.47063 76.8175 3.73582 76.4913 3.92596C76.1657 4.11609 75.8367 4.16428 75.5053 4.06974C75.1737 3.97546 74.9156 3.76663 74.7306 3.44271C74.5509 3.12801 74.5021 2.79936 74.5847 2.45753C74.667 2.11571 74.8713 1.84973 75.1972 1.65959ZM84.1164 18.1899C84.2881 18.0898 84.4629 18.0651 84.6413 18.1156C84.8195 18.1662 84.9563 18.2744 85.0508 18.4403C85.1485 18.611 85.1735 18.7858 85.1261 18.9647C85.079 19.1437 84.9695 19.283 84.7979 19.3834C84.6262 19.4835 84.453 19.509 84.2784 19.4592C84.1039 19.4095 83.9679 19.2994 83.8705 19.129C83.7757 18.9633 83.7501 18.7903 83.7936 18.6102C83.8371 18.4303 83.9445 18.29 84.1164 18.1896V18.1899ZM87.1312 14.9765C87.2476 14.773 87.4109 14.6437 87.6217 14.5894C87.8324 14.5352 88.0341 14.5641 88.2266 14.6763C88.4245 14.7917 88.5517 14.9547 88.6077 15.1648C88.6639 15.3747 88.6335 15.5817 88.5173 15.7853C88.4008 15.9891 88.2396 16.1176 88.0333 16.1708C87.827 16.2237 87.6248 16.1927 87.4268 16.0768C87.2343 15.9646 87.1077 15.804 87.0473 15.5951C86.9869 15.3863 87.015 15.1801 87.1312 14.9763V14.9765ZM88.1211 10.7285C88.1211 10.4522 88.2122 10.2239 88.3948 10.0438C88.5775 9.86364 88.7994 9.77332 89.0602 9.77332C89.3285 9.77332 89.5522 9.86338 89.7312 10.0438C89.9102 10.2239 89.9995 10.4522 89.9995 10.7285C89.9995 11.0045 89.9102 11.2309 89.7312 11.4074C89.5522 11.5838 89.3285 11.672 89.0602 11.672C88.7994 11.672 88.5775 11.5838 88.3948 11.4074C88.2122 11.2309 88.1211 11.0047 88.1211 10.7285ZM87.1372 6.67319C87.0007 6.43407 86.9668 6.19048 87.0358 5.94188C87.1046 5.69354 87.2523 5.50341 87.4782 5.37147C87.7108 5.23558 87.9491 5.20082 88.193 5.26639C88.437 5.33223 88.6272 5.48471 88.764 5.72356C88.9005 5.96268 88.9351 6.20391 88.8674 6.44724C88.7997 6.69057 88.6499 6.87992 88.4172 7.01581C88.1911 7.14775 87.9556 7.1833 87.71 7.12273C87.4649 7.06242 87.2737 6.91258 87.1372 6.67346V6.67319Z" fill="#2576B3"/>
<defs>
<linearGradient id="paint0_linear_753_4655" x1="72.9681" y1="3.71738" x2="87.7288" y2="16.0876" gradientUnits="userSpaceOnUse">
<stop stop-color="#0FA847"/>
<stop offset="0.471875" stop-color="#1D8242"/>
<stop offset="1" stop-color="#324539"/>
</linearGradient>
</defs>
</svg>
